<?xml version="1.0" encoding="UTF-8" standalone="no"?>
<svg xmlns="http://www.w3.org/2000/svg" viewBox="0 0 100 100" height="25" width="25">

    <g id="foro-boario-torri-bg" style="fill:#ff6600;fill-opacity:1">
        <ellipse ry="48.436813" rx="64.523491" cy="48.734756" cx="50.513672" id="path8237" style="display:inline;opacity:1;vector-effect:none;fill:#ffffff;fill-opacity:1;stroke:none;stroke-width:1;stroke-linecap:round;stroke-linejoin:round;stroke-miterlimit:4;stroke-dasharray:none;stroke-dashoffset:0;stroke-opacity:1;paint-order:markers fill stroke" />
        <path id="path2178" d="M 7.6816406 16.189453 L 4.7890625 17.8125 L 38.308594 17.8125 L 35.066406 16.189453 L 7.6816406 16.189453 z M 65.181641 16.189453 L 62.289062 17.8125 L 95.808594 17.8125 L 92.566406 16.189453 L 65.181641 16.189453 z M 5.0878906 22.048828 L 1.609375 24 L 41.917969 24 L 38.019531 22.048828 L 5.0878906 22.048828 z M 62.587891 22.048828 L 59.109375 24 L 99.417969 24 L 95.519531 22.048828 L 62.587891 22.048828 z M 5.0625 24.677734 L 5.0625 25.972656 L 37.902344 25.972656 L 37.902344 24.677734 L 5.0625 24.677734 z M 62.5625 24.677734 L 62.5625 25.972656 L 95.402344 25.972656 L 95.402344 24.677734 L 62.5625 24.677734 z M 5.0605469 37.074219 L 5.0605469 37.701172 L 37.902344 37.701172 L 37.902344 37.074219 L 5.0605469 37.074219 z M 62.560547 37.074219 L 62.560547 37.701172 L 95.402344 37.701172 L 95.402344 37.074219 L 62.560547 37.074219 z " style="fill:#ff6600;fill-opacity:1;stroke:none;stroke-width:0.57754296;stroke-linecap:butt;stroke-linejoin:miter;stroke-miterlimit:4;stroke-dasharray:none;stroke-opacity:1" />
    </g>
    <g id="torri-basso">
        <path id="torri-basso-finestra" d="M 15.658203 41.214844 L 9.9472656 43.767578 L 34.011719 43.767578 L 27.449219 41.214844 L 15.658203 41.214844 z M 73.158203 41.214844 L 67.447266 43.767578 L 91.511719 43.767578 L 84.949219 41.214844 L 73.158203 41.214844 z M 21.617188 46.609375 C 20.392616 46.589775 19.082013 46.817721 17.662109 47.351562 L 17.662109 61.419922 L 25.050781 61.419922 L 25.050781 47.351562 C 23.980035 46.896124 22.841758 46.628976 21.617188 46.609375 z M 79.117188 46.609375 C 77.892618 46.589775 76.582009 46.817721 75.162109 47.351562 L 75.162109 61.419922 L 82.550781 61.419922 L 82.550781 47.351562 C 81.480031 46.896124 80.341767 46.628976 79.117188 46.609375 z M 16.664062 61.748047 L 16.664062 62.375 L 26.046875 62.375 L 26.046875 61.748047 L 16.664062 61.748047 z M 74.164062 61.748047 L 74.164062 62.375 L 83.546875 62.375 L 83.546875 61.748047 L 74.164062 61.748047 z " style="fill:#ff6600;fill-opacity:1;stroke:none;stroke-width:0.57754296;stroke-linecap:butt;stroke-linejoin:miter;stroke-miterlimit:4;stroke-dasharray:none;stroke-opacity:1" />
        <path class="identikit-option identikit-option-1 identikit-option-3" id="torri-basso-fregio-grande" d="M 20.539062 44.3125 C 20.420389 44.3125 20.328125 44.40477 20.328125 44.523438 L 20.328125 44.816406 C 18.767621 44.942095 17.122816 45.305763 15.375 45.962891 L 15.375 48.449219 L 17.376953 48.449219 L 17.376953 47.048828 C 20.434533 45.899269 23.024363 46.068103 25.330078 47.048828 L 25.330078 48.449219 L 27.332031 48.449219 L 27.332031 45.962891 C 25.779018 45.30232 24.132896 44.900707 22.382812 44.798828 L 22.382812 44.523438 C 22.382812 44.404766 22.286645 44.3125 22.167969 44.3125 L 20.539062 44.3125 z M 78.039062 44.3125 C 77.920383 44.3125 77.828125 44.40477 77.828125 44.523438 L 77.828125 44.816406 C 76.267625 44.942095 74.62282 45.305763 72.875 45.962891 L 72.875 48.449219 L 74.876953 48.449219 L 74.876953 47.048828 C 77.934533 45.899269 80.524358 46.068103 82.830078 47.048828 L 82.830078 48.449219 L 84.832031 48.449219 L 84.832031 45.962891 C 83.279021 45.30232 81.632902 44.900707 79.882812 44.798828 L 79.882812 44.523438 C 79.882812 44.404766 79.786679 44.3125 79.667969 44.3125 L 78.039062 44.3125 z " style="opacity:1;vector-effect:none;fill:#ff6600;fill-opacity:1;stroke:none;stroke-width:1.23679912;stroke-linecap:round;stroke-linejoin:round;stroke-miterlimit:4;stroke-dasharray:none;stroke-dashoffset:0;stroke-opacity:1;paint-order:markers fill stroke" />
        <path class="identikit-option identikit-option-2 identikit-option-4" id="torri-basso-fregio-piccolo" d="M 20.539062 44.3125 C 20.420389 44.3125 20.328125 44.404769 20.328125 44.523438 L 20.328125 44.816406 C 19.467117 44.885756 18.577712 45.034256 17.662109 45.257812 L 17.662109 46.955078 C 20.473178 45.965052 22.8889 46.094045 25.050781 46.943359 L 25.050781 45.205078 C 24.188896 44.993029 23.30254 44.852255 22.384766 44.798828 L 22.384766 44.523438 C 22.384766 44.404766 22.286646 44.3125 22.167969 44.3125 L 20.539062 44.3125 z M 78.039062 44.3125 C 77.920393 44.3125 77.828125 44.404769 77.828125 44.523438 L 77.828125 44.816406 C 76.967115 44.885756 76.077709 45.034256 75.162109 45.257812 L 75.162109 46.955078 C 77.973179 45.965052 80.388901 46.094045 82.550781 46.943359 L 82.550781 45.205078 C 81.688891 44.993029 80.802546 44.852255 79.884766 44.798828 L 79.884766 44.523438 C 79.884766 44.404766 79.786659 44.3125 79.667969 44.3125 L 78.039062 44.3125 z " style="opacity:1;vector-effect:none;fill:#ff6600;fill-opacity:1;stroke:none;stroke-width:0.93054056;stroke-linecap:round;stroke-linejoin:round;stroke-miterlimit:4;stroke-dasharray:none;stroke-dashoffset:0;stroke-opacity:1;paint-order:markers fill stroke" />
        <path class="identikit-option identikit-option-1 identikit-option-2" id="torri-basso-tondi" d="M 12.451172 45.681641 A 1.3839285 1.3839285 0 0 0 11.068359 47.066406 A 1.3839285 1.3839285 0 0 0 12.451172 48.449219 A 1.3839285 1.3839285 0 0 0 13.835938 47.066406 A 1.3839285 1.3839285 0 0 0 12.451172 45.681641 z M 30.255859 45.681641 A 1.3839285 1.3839285 0 0 0 28.871094 47.066406 A 1.3839285 1.3839285 0 0 0 30.255859 48.449219 A 1.3839285 1.3839285 0 0 0 31.638672 47.066406 A 1.3839285 1.3839285 0 0 0 30.255859 45.681641 z M 69.951172 45.681641 A 1.3839285 1.3839285 0 0 0 68.568359 47.066406 A 1.3839285 1.3839285 0 0 0 69.951172 48.449219 A 1.3839285 1.3839285 0 0 0 71.335938 47.066406 A 1.3839285 1.3839285 0 0 0 69.951172 45.681641 z M 87.755859 45.681641 A 1.3839285 1.3839285 0 0 0 86.371094 47.066406 A 1.3839285 1.3839285 0 0 0 87.755859 48.449219 A 1.3839285 1.3839285 0 0 0 89.138672 47.066406 A 1.3839285 1.3839285 0 0 0 87.755859 45.681641 z " style="opacity:1;vector-effect:none;fill:#ff6600;fill-opacity:1;stroke:none;stroke-width:1;stroke-linecap:round;stroke-linejoin:round;stroke-miterlimit:4;stroke-dasharray:none;stroke-dashoffset:0;stroke-opacity:1;paint-order:markers fill stroke" />
        <g id="g2298" style="display:inline" transform="translate(-78.936651,48.37793)">
            <circle r="5" cy="11.152834" cx="94.137627" id="circle2294" style="opacity:1;vector-effect:none;fill:#ffffff;fill-opacity:1;stroke:#000000;stroke-width:1;stroke-linecap:round;stroke-linejoin:round;stroke-miterlimit:4;stroke-dasharray:none;stroke-dashoffset:0;stroke-opacity:1;paint-order:markers fill stroke" />
            <path style="fill:#000000;stroke-width:0.01428598" d="m 93.680476,14.091438 c -0.667172,-0.103041 -1.206761,-0.366448 -1.669389,-0.814931 -0.294109,-0.285117 -0.555221,-0.670372 -0.687829,-1.014854 -0.01815,-0.04714 -0.03782,-0.09122 -0.04371,-0.09794 -0.0088,-0.01001 -0.275729,0.08634 -0.731773,0.264128 -0.0639,0.02491 -0.06753,0.02502 -0.05577,0.0017 0.0069,-0.01374 0.188392,-0.41913 0.403265,-0.900859 0.353983,-0.793605 0.393436,-0.875155 0.420058,-0.868236 0.01616,0.0042 0.424415,0.184261 0.907234,0.400137 0.826765,0.36966 0.875403,0.393412 0.83573,0.408135 -0.02317,0.0086 -0.214031,0.08119 -0.424142,0.161318 -0.345946,0.131927 -0.381218,0.148393 -0.373533,0.174381 0.02233,0.07552 0.142753,0.309935 0.214964,0.418462 0.04435,0.06665 0.140546,0.183604 0.213773,0.259896 0.403903,0.420809 0.967998,0.6349 1.540858,0.584804 0.459801,-0.04021 0.844438,-0.21488 1.176904,-0.534452 0.177425,-0.170546 0.286247,-0.319377 0.391706,-0.535724 0.04788,-0.09822 0.08873,-0.180931 0.09079,-0.183811 0.0032,-0.0045 0.963449,0.337883 0.972829,0.346837 0.0066,0.0063 -0.09821,0.243476 -0.163031,0.368971 -0.234365,0.453774 -0.63017,0.875414 -1.078721,1.149131 -0.318375,0.19428 -0.663338,0.324577 -1.054496,0.398295 -0.165681,0.03122 -0.719145,0.04038 -0.88573,0.01465 z m 2.396473,-2.832129 c -0.485187,-0.216979 -0.882027,-0.398436 -0.881868,-0.403238 1.08e-4,-0.0048 0.186555,-0.07932 0.414211,-0.165597 0.376432,-0.14266 0.413147,-0.159481 0.405385,-0.185718 -0.02239,-0.07568 -0.142742,-0.309998 -0.215013,-0.418615 C 95.755316,10.01949 95.659118,9.9025368 95.585892,9.8262452 95.182145,9.4055981 94.618115,9.191456 94.045367,9.2413628 93.585829,9.281405 93.200594,9.4563223 92.868131,9.7758927 92.690704,9.9464383 92.581882,10.09527 92.476423,10.311617 c -0.04787,0.09822 -0.08873,0.180931 -0.09079,0.183811 -0.0032,0.0045 -0.96345,-0.337883 -0.97283,-0.346837 -0.0066,-0.0063 0.09822,-0.2434765 0.16303,-0.3689714 0.234365,-0.4537734 0.630171,-0.8754135 1.078723,-1.149131 0.321626,-0.1962644 0.669879,-0.3271308 1.061637,-0.3989411 0.167484,-0.0307 0.645096,-0.043096 0.815734,-0.021172 0.682311,0.087667 1.255024,0.3594679 1.732242,0.8220966 0.294111,0.2851177 0.555222,0.6703726 0.687829,1.0148539 0.01815,0.04714 0.03782,0.09122 0.04371,0.09794 0.0088,0.01001 0.275728,-0.08634 0.731771,-0.2641275 0.0639,-0.024911 0.06754,-0.025019 0.05577,-0.00166 -0.0069,0.013743 -0.188221,0.4187445 -0.402882,0.9000025 -0.214663,0.481261 -0.39726,0.874863 -0.405773,0.874677 -0.0085,-1.85e-4 -0.412449,-0.17787 -0.897637,-0.394849 z" id="path2296" />
        </g>
    </g>
    <g id="torri-bordo">
        <path class="identikit-option identikit-option-1" id="torri-bordo-scacchi" d="M 5.0605469 18.640625 L 5.0605469 20.851562 L 8.9394531 20.851562 L 8.9394531 18.640625 L 5.0605469 18.640625 z M 34.109375 18.640625 L 34.109375 20.851562 L 37.990234 20.851562 L 37.990234 18.640625 L 34.109375 18.640625 z M 62.560547 18.640625 L 62.560547 20.851562 L 66.439453 20.851562 L 66.439453 18.640625 L 62.560547 18.640625 z M 91.609375 18.640625 L 91.609375 20.851562 L 95.490234 20.851562 L 95.490234 18.640625 L 91.609375 18.640625 z M 5.0605469 26.546875 L 5.0605469 28.757812 L 8.9394531 28.757812 L 8.9394531 26.546875 L 5.0605469 26.546875 z M 34.109375 26.546875 L 34.109375 28.757812 L 37.990234 28.757812 L 37.990234 26.546875 L 34.109375 26.546875 z M 62.560547 26.546875 L 62.560547 28.757812 L 66.439453 28.757812 L 66.439453 26.546875 L 62.560547 26.546875 z M 91.609375 26.546875 L 91.609375 28.757812 L 95.490234 28.757812 L 95.490234 26.546875 L 91.609375 26.546875 z M 5.0605469 29.142578 L 5.0605469 31.353516 L 7.8242188 31.353516 L 7.8242188 29.142578 L 5.0605469 29.142578 z M 35.226562 29.142578 L 35.226562 31.353516 L 37.990234 31.353516 L 37.990234 29.142578 L 35.226562 29.142578 z M 62.560547 29.142578 L 62.560547 31.353516 L 65.324219 31.353516 L 65.324219 29.142578 L 62.560547 29.142578 z M 92.726562 29.142578 L 92.726562 31.353516 L 95.490234 31.353516 L 95.490234 29.142578 L 92.726562 29.142578 z M 5.0605469 31.740234 L 5.0605469 33.947266 L 8.9394531 33.947266 L 8.9394531 31.740234 L 5.0605469 31.740234 z M 34.109375 31.740234 L 34.109375 33.947266 L 37.990234 33.947266 L 37.990234 31.740234 L 34.109375 31.740234 z M 62.560547 31.740234 L 62.560547 33.947266 L 66.439453 33.947266 L 66.439453 31.740234 L 62.560547 31.740234 z M 91.609375 31.740234 L 91.609375 33.947266 L 95.490234 33.947266 L 95.490234 31.740234 L 91.609375 31.740234 z M 5.0605469 34.333984 L 5.0605469 36.541016 L 7.8242188 36.541016 L 7.8242188 34.333984 L 5.0605469 34.333984 z M 35.226562 34.333984 L 35.226562 36.541016 L 37.990234 36.541016 L 37.990234 34.333984 L 35.226562 34.333984 z M 62.560547 34.333984 L 62.560547 36.541016 L 65.324219 36.541016 L 65.324219 34.333984 L 62.560547 34.333984 z M 92.726562 34.333984 L 92.726562 36.541016 L 95.490234 36.541016 L 95.490234 34.333984 L 92.726562 34.333984 z M 5.0605469 38.279297 L 5.0605469 40.490234 L 8.9394531 40.490234 L 8.9394531 38.279297 L 5.0605469 38.279297 z M 34.109375 38.279297 L 34.109375 40.490234 L 37.990234 40.490234 L 37.990234 38.279297 L 34.109375 38.279297 z M 62.560547 38.279297 L 62.560547 40.490234 L 66.439453 40.490234 L 66.439453 38.279297 L 62.560547 38.279297 z M 91.609375 38.279297 L 91.609375 40.490234 L 95.490234 40.490234 L 95.490234 38.279297 L 91.609375 38.279297 z M 5.0605469 41.005859 L 5.0605469 43.212891 L 7.8242188 43.212891 L 7.8242188 41.005859 L 5.0605469 41.005859 z M 35.226562 41.005859 L 35.226562 43.212891 L 37.990234 43.212891 L 37.990234 41.005859 L 35.226562 41.005859 z M 62.560547 41.005859 L 62.560547 43.212891 L 65.324219 43.212891 L 65.324219 41.005859 L 62.560547 41.005859 z M 92.726562 41.005859 L 92.726562 43.212891 L 95.490234 43.212891 L 95.490234 41.005859 L 92.726562 41.005859 z M 5.0605469 43.726562 L 5.0605469 45.9375 L 8.9394531 45.9375 L 8.9394531 43.726562 L 5.0605469 43.726562 z M 34.109375 43.726562 L 34.109375 45.9375 L 37.990234 45.9375 L 37.990234 43.726562 L 34.109375 43.726562 z M 62.560547 43.726562 L 62.560547 45.9375 L 66.439453 45.9375 L 66.439453 43.726562 L 62.560547 43.726562 z M 91.609375 43.726562 L 91.609375 45.9375 L 95.490234 45.9375 L 95.490234 43.726562 L 91.609375 43.726562 z M 5.0605469 46.453125 L 5.0605469 48.660156 L 7.8242188 48.660156 L 7.8242188 46.453125 L 5.0605469 46.453125 z M 35.226562 46.453125 L 35.226562 48.660156 L 37.990234 48.660156 L 37.990234 46.453125 L 35.226562 46.453125 z M 62.560547 46.453125 L 62.560547 48.660156 L 65.324219 48.660156 L 65.324219 46.453125 L 62.560547 46.453125 z M 92.726562 46.453125 L 92.726562 48.660156 L 95.490234 48.660156 L 95.490234 46.453125 L 92.726562 46.453125 z M 5.0605469 49.175781 L 5.0605469 51.386719 L 8.9394531 51.386719 L 8.9394531 49.175781 L 5.0605469 49.175781 z M 34.109375 49.175781 L 34.109375 51.386719 L 37.990234 51.386719 L 37.990234 49.175781 L 34.109375 49.175781 z M 62.560547 49.175781 L 62.560547 51.386719 L 66.439453 51.386719 L 66.439453 49.175781 L 62.560547 49.175781 z M 91.609375 49.175781 L 91.609375 51.386719 L 95.490234 51.386719 L 95.490234 49.175781 L 91.609375 49.175781 z M 5.0605469 51.902344 L 5.0605469 54.109375 L 7.8242188 54.109375 L 7.8242188 51.902344 L 5.0605469 51.902344 z M 35.226562 51.902344 L 35.226562 54.109375 L 37.990234 54.109375 L 37.990234 51.902344 L 35.226562 51.902344 z M 62.560547 51.902344 L 62.560547 54.109375 L 65.324219 54.109375 L 65.324219 51.902344 L 62.560547 51.902344 z M 92.726562 51.902344 L 92.726562 54.109375 L 95.490234 54.109375 L 95.490234 51.902344 L 92.726562 51.902344 z M 5.0605469 54.623047 L 5.0605469 56.833984 L 8.9394531 56.833984 L 8.9394531 54.623047 L 5.0605469 54.623047 z M 34.109375 54.623047 L 34.109375 56.833984 L 37.990234 56.833984 L 37.990234 54.623047 L 34.109375 54.623047 z M 62.560547 54.623047 L 62.560547 56.833984 L 66.439453 56.833984 L 66.439453 54.623047 L 62.560547 54.623047 z M 91.609375 54.623047 L 91.609375 56.833984 L 95.490234 56.833984 L 95.490234 54.623047 L 91.609375 54.623047 z M 5.0605469 57.345703 L 5.0605469 59.556641 L 7.8242188 59.556641 L 7.8242188 57.345703 L 5.0605469 57.345703 z M 35.226562 57.345703 L 35.226562 59.556641 L 37.990234 59.556641 L 37.990234 57.345703 L 35.226562 57.345703 z M 62.560547 57.345703 L 62.560547 59.556641 L 65.324219 59.556641 L 65.324219 57.345703 L 62.560547 57.345703 z M 92.726562 57.345703 L 92.726562 59.556641 L 95.490234 59.556641 L 95.490234 57.345703 L 92.726562 57.345703 z M 5.0605469 60.072266 L 5.0605469 62.283203 L 8.9394531 62.283203 L 8.9394531 60.072266 L 5.0605469 60.072266 z M 34.109375 60.072266 L 34.109375 62.283203 L 37.990234 62.283203 L 37.990234 60.072266 L 34.109375 60.072266 z M 62.560547 60.072266 L 62.560547 62.283203 L 66.439453 62.283203 L 66.439453 60.072266 L 62.560547 60.072266 z M 91.609375 60.072266 L 91.609375 62.283203 L 95.490234 62.283203 L 95.490234 60.072266 L 91.609375 60.072266 z M 5.0605469 62.794922 L 5.0605469 65.005859 L 7.8242188 65.005859 L 7.8242188 62.794922 L 5.0605469 62.794922 z M 35.226562 62.794922 L 35.226562 65.005859 L 37.990234 65.005859 L 37.990234 62.794922 L 35.226562 62.794922 z M 62.560547 62.794922 L 62.560547 65.005859 L 65.324219 65.005859 L 65.324219 62.794922 L 62.560547 62.794922 z M 92.726562 62.794922 L 92.726562 65.005859 L 95.490234 65.005859 L 95.490234 62.794922 L 92.726562 62.794922 z " style="opacity:1;vector-effect:none;fill:#ff6600;fill-opacity:1;stroke:none;stroke-width:0.60600603;stroke-linecap:round;stroke-linejoin:round;stroke-miterlimit:4;stroke-dasharray:none;stroke-dashoffset:0;stroke-opacity:1;paint-order:markers fill stroke" />
        <path class="identikit-option identikit-option-2" id="torri-bordo-grande" d="M 5.0605469 18.492188 L 5.0605469 20.890625 L 8.6054688 20.890625 L 8.6054688 18.492188 L 5.0605469 18.492188 z M 34.447266 18.492188 L 34.447266 20.890625 L 37.992188 20.890625 L 37.992188 18.492188 L 34.447266 18.492188 z M 62.560547 18.492188 L 62.560547 20.890625 L 66.105469 20.890625 L 66.105469 18.492188 L 62.560547 18.492188 z M 91.947266 18.492188 L 91.947266 20.890625 L 95.492188 20.890625 L 95.492188 18.492188 L 91.947266 18.492188 z M 5.0605469 26.546875 L 5.0605469 36.541016 L 8.6054688 36.541016 L 8.6054688 26.546875 L 5.0605469 26.546875 z M 34.447266 26.546875 L 34.447266 36.541016 L 37.992188 36.541016 L 37.992188 26.546875 L 34.447266 26.546875 z M 62.560547 26.546875 L 62.560547 36.541016 L 66.105469 36.541016 L 66.105469 26.546875 L 62.560547 26.546875 z M 91.947266 26.546875 L 91.947266 36.541016 L 95.492188 36.541016 L 95.492188 26.546875 L 91.947266 26.546875 z M 5.0605469 38.279297 L 5.0605469 65.005859 L 8.6054688 65.005859 L 8.6054688 38.279297 L 5.0605469 38.279297 z M 34.447266 38.279297 L 34.447266 65.005859 L 37.992188 65.005859 L 37.992188 38.279297 L 34.447266 38.279297 z M 62.560547 38.279297 L 62.560547 65.005859 L 66.105469 65.005859 L 66.105469 38.279297 L 62.560547 38.279297 z M 91.947266 38.279297 L 91.947266 65.005859 L 95.492188 65.005859 L 95.492188 38.279297 L 91.947266 38.279297 z " style="opacity:1;vector-effect:none;fill:#ff6600;fill-opacity:1;stroke:none;stroke-width:2.38800263;stroke-linecap:round;stroke-linejoin:round;stroke-miterlimit:4;stroke-dasharray:none;stroke-dashoffset:0;stroke-opacity:1;paint-order:markers fill stroke" />
        <path class="identikit-option identikit-option-3" id="torri-bordo-piccolo" d="M 5.0605469 18.492188 L 5.0605469 20.890625 L 6.0585938 20.890625 L 6.0585938 18.492188 L 5.0605469 18.492188 z M 36.992188 18.492188 L 36.992188 20.890625 L 37.992188 20.890625 L 37.992188 18.492188 L 36.992188 18.492188 z M 62.560547 18.492188 L 62.560547 20.890625 L 63.558594 20.890625 L 63.558594 18.492188 L 62.560547 18.492188 z M 94.492188 18.492188 L 94.492188 20.890625 L 95.492188 20.890625 L 95.492188 18.492188 L 94.492188 18.492188 z M 5.0605469 26.546875 L 5.0605469 36.541016 L 6.0585938 36.541016 L 6.0585938 26.546875 L 5.0605469 26.546875 z M 36.992188 26.546875 L 36.992188 36.541016 L 37.992188 36.541016 L 37.992188 26.546875 L 36.992188 26.546875 z M 62.560547 26.546875 L 62.560547 36.541016 L 63.558594 36.541016 L 63.558594 26.546875 L 62.560547 26.546875 z M 94.492188 26.546875 L 94.492188 36.541016 L 95.492188 36.541016 L 95.492188 26.546875 L 94.492188 26.546875 z M 5.0605469 38.279297 L 5.0605469 65.005859 L 6.0585938 65.005859 L 6.0585938 38.279297 L 5.0605469 38.279297 z M 36.992188 38.279297 L 36.992188 65.005859 L 37.992188 65.005859 L 37.992188 38.279297 L 36.992188 38.279297 z M 62.560547 38.279297 L 62.560547 65.005859 L 63.558594 65.005859 L 63.558594 38.279297 L 62.560547 38.279297 z M 94.492188 38.279297 L 94.492188 65.005859 L 95.492188 65.005859 L 95.492188 38.279297 L 94.492188 38.279297 z " style="opacity:1;vector-effect:none;fill:#ff6600;fill-opacity:1;stroke:none;stroke-width:2.38800263;stroke-linecap:round;stroke-linejoin:round;stroke-miterlimit:4;stroke-dasharray:none;stroke-dashoffset:0;stroke-opacity:1;paint-order:markers fill stroke" />
        <g transform="translate(-53.063144,36.016034)" style="display:inline" id="g2292">
            <circle style="opacity:1;vector-effect:none;fill:#ffffff;fill-opacity:1;stroke:#000000;stroke-width:1;stroke-linecap:round;stroke-linejoin:round;stroke-miterlimit:4;stroke-dasharray:none;stroke-dashoffset:0;stroke-opacity:1;paint-order:markers fill stroke" id="circle2288" cx="94.137627" cy="11.152834" r="5" />
            <path id="path2290" d="m 93.680476,14.091438 c -0.667172,-0.103041 -1.206761,-0.366448 -1.669389,-0.814931 -0.294109,-0.285117 -0.555221,-0.670372 -0.687829,-1.014854 -0.01815,-0.04714 -0.03782,-0.09122 -0.04371,-0.09794 -0.0088,-0.01001 -0.275729,0.08634 -0.731773,0.264128 -0.0639,0.02491 -0.06753,0.02502 -0.05577,0.0017 0.0069,-0.01374 0.188392,-0.41913 0.403265,-0.900859 0.353983,-0.793605 0.393436,-0.875155 0.420058,-0.868236 0.01616,0.0042 0.424415,0.184261 0.907234,0.400137 0.826765,0.36966 0.875403,0.393412 0.83573,0.408135 -0.02317,0.0086 -0.214031,0.08119 -0.424142,0.161318 -0.345946,0.131927 -0.381218,0.148393 -0.373533,0.174381 0.02233,0.07552 0.142753,0.309935 0.214964,0.418462 0.04435,0.06665 0.140546,0.183604 0.213773,0.259896 0.403903,0.420809 0.967998,0.6349 1.540858,0.584804 0.459801,-0.04021 0.844438,-0.21488 1.176904,-0.534452 0.177425,-0.170546 0.286247,-0.319377 0.391706,-0.535724 0.04788,-0.09822 0.08873,-0.180931 0.09079,-0.183811 0.0032,-0.0045 0.963449,0.337883 0.972829,0.346837 0.0066,0.0063 -0.09821,0.243476 -0.163031,0.368971 -0.234365,0.453774 -0.63017,0.875414 -1.078721,1.149131 -0.318375,0.19428 -0.663338,0.324577 -1.054496,0.398295 -0.165681,0.03122 -0.719145,0.04038 -0.88573,0.01465 z m 2.396473,-2.832129 c -0.485187,-0.216979 -0.882027,-0.398436 -0.881868,-0.403238 1.08e-4,-0.0048 0.186555,-0.07932 0.414211,-0.165597 0.376432,-0.14266 0.413147,-0.159481 0.405385,-0.185718 -0.02239,-0.07568 -0.142742,-0.309998 -0.215013,-0.418615 C 95.755316,10.01949 95.659118,9.9025368 95.585892,9.8262452 95.182145,9.4055981 94.618115,9.191456 94.045367,9.2413628 93.585829,9.281405 93.200594,9.4563223 92.868131,9.7758927 92.690704,9.9464383 92.581882,10.09527 92.476423,10.311617 c -0.04787,0.09822 -0.08873,0.180931 -0.09079,0.183811 -0.0032,0.0045 -0.96345,-0.337883 -0.97283,-0.346837 -0.0066,-0.0063 0.09822,-0.2434765 0.16303,-0.3689714 0.234365,-0.4537734 0.630171,-0.8754135 1.078723,-1.149131 0.321626,-0.1962644 0.669879,-0.3271308 1.061637,-0.3989411 0.167484,-0.0307 0.645096,-0.043096 0.815734,-0.021172 0.682311,0.087667 1.255024,0.3594679 1.732242,0.8220966 0.294111,0.2851177 0.555222,0.6703726 0.687829,1.0148539 0.01815,0.04714 0.03782,0.09122 0.04371,0.09794 0.0088,0.01001 0.275728,-0.08634 0.731771,-0.2641275 0.0639,-0.024911 0.06754,-0.025019 0.05577,-0.00166 -0.0069,0.013743 -0.188221,0.4187445 -0.402882,0.9000025 -0.214663,0.481261 -0.39726,0.874863 -0.405773,0.874677 -0.0085,-1.85e-4 -0.412449,-0.17787 -0.897637,-0.394849 z" style="fill:#000000;stroke-width:0.01428598" />
        </g>
    </g>
    <g id="torri-base">
        <path id="rect2212" d="M 5.0605469 65.492188 L 5.0605469 66.117188 L 37.902344 66.117188 L 37.902344 65.492188 L 5.0605469 65.492188 z M 62.560547 65.492188 L 62.560547 66.117188 L 95.402344 66.117188 L 95.402344 65.492188 L 62.560547 65.492188 z " style="opacity:1;vector-effect:none;fill:#ff6600;fill-opacity:1;stroke:none;stroke-width:1.11314332;stroke-linecap:round;stroke-linejoin:round;stroke-miterlimit:4;stroke-dasharray:none;stroke-dashoffset:0;stroke-opacity:1;paint-order:markers fill stroke" />
        <path class="identikit-option identikit-option-2" id="torri-base-scacchi" d="M 5.0625 66.666016 L 5.0625 70.208984 L 9.3320312 70.208984 L 9.3320312 66.666016 L 5.0625 66.666016 z M 9.9296875 66.666016 L 9.9296875 70.208984 L 13.955078 70.208984 L 13.955078 66.666016 L 9.9296875 66.666016 z M 14.550781 66.666016 L 14.550781 70.208984 L 18.714844 70.208984 L 18.714844 66.666016 L 14.550781 66.666016 z M 19.308594 66.666016 L 19.308594 70.208984 L 23.519531 70.208984 L 23.519531 66.666016 L 19.308594 66.666016 z M 24.113281 66.666016 L 24.113281 70.208984 L 28.277344 70.208984 L 28.277344 66.666016 L 24.113281 66.666016 z M 28.873047 66.666016 L 28.873047 70.208984 L 33.037109 70.208984 L 33.037109 66.666016 L 28.873047 66.666016 z M 33.630859 66.666016 L 33.630859 70.208984 L 37.904297 70.208984 L 37.904297 66.666016 L 33.630859 66.666016 z M 62.5625 66.666016 L 62.5625 70.208984 L 66.832031 70.208984 L 66.832031 66.666016 L 62.5625 66.666016 z M 67.429688 66.666016 L 67.429688 70.208984 L 71.455078 70.208984 L 71.455078 66.666016 L 67.429688 66.666016 z M 72.050781 66.666016 L 72.050781 70.208984 L 76.214844 70.208984 L 76.214844 66.666016 L 72.050781 66.666016 z M 76.808594 66.666016 L 76.808594 70.208984 L 81.019531 70.208984 L 81.019531 66.666016 L 76.808594 66.666016 z M 81.613281 66.666016 L 81.613281 70.208984 L 85.777344 70.208984 L 85.777344 66.666016 L 81.613281 66.666016 z M 86.373047 66.666016 L 86.373047 70.208984 L 90.537109 70.208984 L 90.537109 66.666016 L 86.373047 66.666016 z M 91.130859 66.666016 L 91.130859 70.208984 L 95.404297 70.208984 L 95.404297 66.666016 L 91.130859 66.666016 z " style="opacity:1;vector-effect:none;fill:#ff6600;fill-opacity:1;stroke:none;stroke-width:2.64711452;stroke-linecap:round;stroke-linejoin:round;stroke-miterlimit:4;stroke-dasharray:none;stroke-dashoffset:0;stroke-opacity:1;paint-order:markers fill stroke" />
        <path class="identikit-option identikit-option-1 identikit-option-3" id="torri-base-unico" d="M 5.0605469 66.666016 L 5.0605469 70.208984 L 37.902344 70.208984 L 37.902344 66.666016 L 5.0605469 66.666016 z M 62.560547 66.666016 L 62.560547 70.208984 L 95.402344 70.208984 L 95.402344 66.666016 L 62.560547 66.666016 z " style="opacity:1;vector-effect:none;fill:#ff6600;fill-opacity:1;stroke:none;stroke-width:2.64711452;stroke-linecap:round;stroke-linejoin:round;stroke-miterlimit:4;stroke-dasharray:none;stroke-dashoffset:0;stroke-opacity:1;paint-order:markers fill stroke" />
        <path class="identikit-option identikit-option-3" id="torri-base-tondi" d="M 6.7285156 67.564453 A 0.87360037 0.87360037 0 0 0 5.8535156 68.439453 A 0.87360037 0.87360037 0 0 0 6.7285156 69.310547 A 0.87360037 0.87360037 0 0 0 7.6015625 68.439453 A 0.87360037 0.87360037 0 0 0 6.7285156 67.564453 z M 10.417969 67.564453 A 0.87360037 0.87360037 0 0 0 9.5429688 68.439453 A 0.87360037 0.87360037 0 0 0 10.417969 69.310547 A 0.87360037 0.87360037 0 0 0 11.289062 68.439453 A 0.87360037 0.87360037 0 0 0 10.417969 67.564453 z M 14.107422 67.564453 A 0.87360037 0.87360037 0 0 0 13.232422 68.439453 A 0.87360037 0.87360037 0 0 0 14.107422 69.310547 A 0.87360037 0.87360037 0 0 0 14.978516 68.439453 A 0.87360037 0.87360037 0 0 0 14.107422 67.564453 z M 17.792969 67.564453 A 0.87360037 0.87360037 0 0 0 16.921875 68.439453 A 0.87360037 0.87360037 0 0 0 17.792969 69.310547 A 0.87360037 0.87360037 0 0 0 18.667969 68.439453 A 0.87360037 0.87360037 0 0 0 17.792969 67.564453 z M 21.482422 67.564453 A 0.87360037 0.87360037 0 0 0 20.609375 68.439453 A 0.87360037 0.87360037 0 0 0 21.482422 69.310547 A 0.87360037 0.87360037 0 0 0 22.357422 68.439453 A 0.87360037 0.87360037 0 0 0 21.482422 67.564453 z M 25.169922 67.564453 A 0.87360037 0.87360037 0 0 0 24.298828 68.439453 A 0.87360037 0.87360037 0 0 0 25.169922 69.310547 A 0.87360037 0.87360037 0 0 0 26.044922 68.439453 A 0.87360037 0.87360037 0 0 0 25.169922 67.564453 z M 28.859375 67.564453 A 0.87360037 0.87360037 0 0 0 27.984375 68.439453 A 0.87360037 0.87360037 0 0 0 28.859375 69.310547 A 0.87360037 0.87360037 0 0 0 29.734375 68.439453 A 0.87360037 0.87360037 0 0 0 28.859375 67.564453 z M 32.548828 67.564453 A 0.87360037 0.87360037 0 0 0 31.673828 68.439453 A 0.87360037 0.87360037 0 0 0 32.548828 69.310547 A 0.87360037 0.87360037 0 0 0 33.419922 68.439453 A 0.87360037 0.87360037 0 0 0 32.548828 67.564453 z M 36.238281 67.564453 A 0.87360037 0.87360037 0 0 0 35.363281 68.439453 A 0.87360037 0.87360037 0 0 0 36.238281 69.310547 A 0.87360037 0.87360037 0 0 0 37.109375 68.439453 A 0.87360037 0.87360037 0 0 0 36.238281 67.564453 z M 64.228516 67.564453 A 0.87360037 0.87360037 0 0 0 63.353516 68.439453 A 0.87360037 0.87360037 0 0 0 64.228516 69.310547 A 0.87360037 0.87360037 0 0 0 65.101562 68.439453 A 0.87360037 0.87360037 0 0 0 64.228516 67.564453 z M 67.917969 67.564453 A 0.87360037 0.87360037 0 0 0 67.042969 68.439453 A 0.87360037 0.87360037 0 0 0 67.917969 69.310547 A 0.87360037 0.87360037 0 0 0 68.789062 68.439453 A 0.87360037 0.87360037 0 0 0 67.917969 67.564453 z M 71.607422 67.564453 A 0.87360037 0.87360037 0 0 0 70.732422 68.439453 A 0.87360037 0.87360037 0 0 0 71.607422 69.310547 A 0.87360037 0.87360037 0 0 0 72.478516 68.439453 A 0.87360037 0.87360037 0 0 0 71.607422 67.564453 z M 75.292969 67.564453 A 0.87360037 0.87360037 0 0 0 74.421875 68.439453 A 0.87360037 0.87360037 0 0 0 75.292969 69.310547 A 0.87360037 0.87360037 0 0 0 76.167969 68.439453 A 0.87360037 0.87360037 0 0 0 75.292969 67.564453 z M 78.982422 67.564453 A 0.87360037 0.87360037 0 0 0 78.109375 68.439453 A 0.87360037 0.87360037 0 0 0 78.982422 69.310547 A 0.87360037 0.87360037 0 0 0 79.857422 68.439453 A 0.87360037 0.87360037 0 0 0 78.982422 67.564453 z M 82.669922 67.564453 A 0.87360037 0.87360037 0 0 0 81.798828 68.439453 A 0.87360037 0.87360037 0 0 0 82.669922 69.310547 A 0.87360037 0.87360037 0 0 0 83.544922 68.439453 A 0.87360037 0.87360037 0 0 0 82.669922 67.564453 z M 86.359375 67.564453 A 0.87360037 0.87360037 0 0 0 85.484375 68.439453 A 0.87360037 0.87360037 0 0 0 86.359375 69.310547 A 0.87360037 0.87360037 0 0 0 87.234375 68.439453 A 0.87360037 0.87360037 0 0 0 86.359375 67.564453 z M 90.048828 67.564453 A 0.87360037 0.87360037 0 0 0 89.173828 68.439453 A 0.87360037 0.87360037 0 0 0 90.048828 69.310547 A 0.87360037 0.87360037 0 0 0 90.919922 68.439453 A 0.87360037 0.87360037 0 0 0 90.048828 67.564453 z M 93.738281 67.564453 A 0.87360037 0.87360037 0 0 0 92.863281 68.439453 A 0.87360037 0.87360037 0 0 0 93.738281 69.310547 A 0.87360037 0.87360037 0 0 0 94.609375 68.439453 A 0.87360037 0.87360037 0 0 0 93.738281 67.564453 z " style="opacity:1;vector-effect:none;fill:#ffffff;fill-opacity:1;stroke:none;stroke-width:1.44952941;stroke-linecap:round;stroke-linejoin:round;stroke-miterlimit:4;stroke-dasharray:none;stroke-dashoffset:0;stroke-opacity:1;paint-order:markers fill stroke" />
        <g id="g2286" style="display:inline" transform="translate(-59.272768,63.97216)">
            <circle r="5" cy="11.152834" cx="94.137627" id="circle2282" style="opacity:1;vector-effect:none;fill:#ffffff;fill-opacity:1;stroke:#000000;stroke-width:1;stroke-linecap:round;stroke-linejoin:round;stroke-miterlimit:4;stroke-dasharray:none;stroke-dashoffset:0;stroke-opacity:1;paint-order:markers fill stroke" />
            <path style="fill:#000000;stroke-width:0.01428598" d="m 93.680476,14.091438 c -0.667172,-0.103041 -1.206761,-0.366448 -1.669389,-0.814931 -0.294109,-0.285117 -0.555221,-0.670372 -0.687829,-1.014854 -0.01815,-0.04714 -0.03782,-0.09122 -0.04371,-0.09794 -0.0088,-0.01001 -0.275729,0.08634 -0.731773,0.264128 -0.0639,0.02491 -0.06753,0.02502 -0.05577,0.0017 0.0069,-0.01374 0.188392,-0.41913 0.403265,-0.900859 0.353983,-0.793605 0.393436,-0.875155 0.420058,-0.868236 0.01616,0.0042 0.424415,0.184261 0.907234,0.400137 0.826765,0.36966 0.875403,0.393412 0.83573,0.408135 -0.02317,0.0086 -0.214031,0.08119 -0.424142,0.161318 -0.345946,0.131927 -0.381218,0.148393 -0.373533,0.174381 0.02233,0.07552 0.142753,0.309935 0.214964,0.418462 0.04435,0.06665 0.140546,0.183604 0.213773,0.259896 0.403903,0.420809 0.967998,0.6349 1.540858,0.584804 0.459801,-0.04021 0.844438,-0.21488 1.176904,-0.534452 0.177425,-0.170546 0.286247,-0.319377 0.391706,-0.535724 0.04788,-0.09822 0.08873,-0.180931 0.09079,-0.183811 0.0032,-0.0045 0.963449,0.337883 0.972829,0.346837 0.0066,0.0063 -0.09821,0.243476 -0.163031,0.368971 -0.234365,0.453774 -0.63017,0.875414 -1.078721,1.149131 -0.318375,0.19428 -0.663338,0.324577 -1.054496,0.398295 -0.165681,0.03122 -0.719145,0.04038 -0.88573,0.01465 z m 2.396473,-2.832129 c -0.485187,-0.216979 -0.882027,-0.398436 -0.881868,-0.403238 1.08e-4,-0.0048 0.186555,-0.07932 0.414211,-0.165597 0.376432,-0.14266 0.413147,-0.159481 0.405385,-0.185718 -0.02239,-0.07568 -0.142742,-0.309998 -0.215013,-0.418615 C 95.755316,10.01949 95.659118,9.9025368 95.585892,9.8262452 95.182145,9.4055981 94.618115,9.191456 94.045367,9.2413628 93.585829,9.281405 93.200594,9.4563223 92.868131,9.7758927 92.690704,9.9464383 92.581882,10.09527 92.476423,10.311617 c -0.04787,0.09822 -0.08873,0.180931 -0.09079,0.183811 -0.0032,0.0045 -0.96345,-0.337883 -0.97283,-0.346837 -0.0066,-0.0063 0.09822,-0.2434765 0.16303,-0.3689714 0.234365,-0.4537734 0.630171,-0.8754135 1.078723,-1.149131 0.321626,-0.1962644 0.669879,-0.3271308 1.061637,-0.3989411 0.167484,-0.0307 0.645096,-0.043096 0.815734,-0.021172 0.682311,0.087667 1.255024,0.3594679 1.732242,0.8220966 0.294111,0.2851177 0.555222,0.6703726 0.687829,1.0148539 0.01815,0.04714 0.03782,0.09122 0.04371,0.09794 0.0088,0.01001 0.275728,-0.08634 0.731771,-0.2641275 0.0639,-0.024911 0.06754,-0.025019 0.05577,-0.00166 -0.0069,0.013743 -0.188221,0.4187445 -0.402882,0.9000025 -0.214663,0.481261 -0.39726,0.874863 -0.405773,0.874677 -0.0085,-1.85e-4 -0.412449,-0.17787 -0.897637,-0.394849 z" id="path2284" />
        </g>
    </g>
    <g id="torri-alto">
        <path style="opacity:1;vector-effect:none;fill:#ff6600;fill-opacity:1;stroke:none;stroke-width:0.53142756;stroke-linecap:round;stroke-linejoin:round;stroke-miterlimit:4;stroke-dasharray:none;stroke-dashoffset:0;stroke-opacity:1;paint-order:markers fill stroke" d="M 17.306641 30.339844 C 16.455203 30.326214 15.543891 30.486245 14.556641 30.857422 L 14.556641 36.783203 L 19.693359 36.783203 L 19.693359 30.857422 C 18.948875 30.540759 18.158078 30.353472 17.306641 30.339844 z M 25.621094 30.339844 C 24.769656 30.326214 23.858345 30.486245 22.871094 30.857422 L 22.871094 36.783203 L 28.007812 36.783203 L 28.007812 30.857422 C 27.263329 30.540759 26.472532 30.353472 25.621094 30.339844 z M 74.806641 30.339844 C 73.955201 30.326214 73.043891 30.486245 72.056641 30.857422 L 72.056641 36.783203 L 77.193359 36.783203 L 77.193359 30.857422 C 76.448869 30.540759 75.658071 30.353472 74.806641 30.339844 z M 83.121094 30.339844 C 82.269654 30.326214 81.358344 30.486245 80.371094 30.857422 L 80.371094 36.783203 L 85.507812 36.783203 L 85.507812 30.857422 C 84.763333 30.540759 83.972534 30.353472 83.121094 30.339844 z " id="torri-finestre" />
        <path class="identikit-option identikit-option-1 identikit-option-3" id="torri-fregio-grande" style="opacity:1;vector-effect:none;fill:#ff6600;fill-opacity:1;stroke:none;stroke-width:0.85993946;stroke-linecap:round;stroke-linejoin:round;stroke-miterlimit:4;stroke-dasharray:none;stroke-dashoffset:0;stroke-opacity:1;paint-order:markers fill stroke" d="M 16.558594 28.744141 C 16.476084 28.744141 16.412109 28.808121 16.412109 28.890625 L 16.412109 29.09375 C 15.327098 29.18116 14.182043 29.433728 12.966797 29.890625 L 12.966797 31.619141 L 14.359375 31.619141 L 14.359375 30.646484 C 16.485294 29.847202 18.28552 29.964591 19.888672 30.646484 L 19.888672 31.619141 L 21.28125 31.619141 L 22.671875 31.619141 L 22.671875 30.646484 C 24.797794 29.847202 26.599973 29.964591 28.203125 30.646484 L 28.203125 31.619141 L 29.59375 31.619141 L 29.59375 29.890625 C 28.513946 29.431335 27.37112 29.152866 26.154297 29.082031 L 26.154297 28.890625 C 26.154297 28.808115 26.086417 28.744141 26.003906 28.744141 L 24.871094 28.744141 C 24.788584 28.744141 24.724609 28.808121 24.724609 28.890625 L 24.724609 29.09375 C 23.639599 29.18116 22.496497 29.433728 21.28125 29.890625 C 20.201447 29.431335 19.056666 29.152866 17.839844 29.082031 L 17.839844 28.890625 C 17.839844 28.808115 17.771964 28.744141 17.689453 28.744141 L 16.558594 28.744141 z M 74.058594 28.744141 C 73.976094 28.744141 73.912109 28.808121 73.912109 28.890625 L 73.912109 29.09375 C 72.827099 29.18116 71.682047 29.433728 70.466797 29.890625 L 70.466797 31.619141 L 71.859375 31.619141 L 71.859375 30.646484 C 73.985295 29.847202 75.785522 29.964591 77.388672 30.646484 L 77.388672 31.619141 L 78.78125 31.619141 L 80.171875 31.619141 L 80.171875 30.646484 C 82.297795 29.847202 84.099975 29.964591 85.703125 30.646484 L 85.703125 31.619141 L 87.09375 31.619141 L 87.09375 29.890625 C 86.01394 29.431335 84.871127 29.152866 83.654297 29.082031 L 83.654297 28.890625 C 83.654297 28.808115 83.586396 28.744141 83.503906 28.744141 L 82.371094 28.744141 C 82.288594 28.744141 82.224609 28.808121 82.224609 28.890625 L 82.224609 29.09375 C 81.139599 29.18116 79.99649 29.433728 78.78125 29.890625 C 77.70144 29.431335 76.556664 29.152866 75.339844 29.082031 L 75.339844 28.890625 C 75.339844 28.808115 75.271943 28.744141 75.189453 28.744141 L 74.058594 28.744141 z " />
        <path class="identikit-option identikit-option-2 identikit-option-4" id="torri-fregio-piccolo" style="opacity:1;vector-effect:none;fill:#ff6600;fill-opacity:1;stroke:none;stroke-width:0.85993946;stroke-linecap:round;stroke-linejoin:round;stroke-miterlimit:4;stroke-dasharray:none;stroke-dashoffset:0;stroke-opacity:1;paint-order:markers fill stroke" d="M 16.558594 28.744141 C 16.476084 28.744141 16.412109 28.808121 16.412109 28.890625 L 16.412109 29.09375 C 15.81313 29.142 15.193619 29.246764 14.556641 29.402344 L 14.556641 30.582031 C 16.511639 29.89327 18.189928 29.983541 19.693359 30.574219 L 19.693359 29.363281 C 19.094318 29.215946 18.477712 29.119164 17.839844 29.082031 L 17.839844 28.890625 C 17.839844 28.808115 17.771964 28.744141 17.689453 28.744141 L 16.558594 28.744141 z M 24.873047 28.744141 C 24.790537 28.744141 24.726562 28.808121 24.726562 28.890625 L 24.726562 29.09375 C 24.127585 29.142 23.508072 29.246764 22.871094 29.402344 L 22.871094 30.582031 C 24.826093 29.89327 26.504383 29.983529 28.007812 30.574219 L 28.007812 29.363281 C 27.408773 29.215946 26.792165 29.119164 26.154297 29.082031 L 26.154297 28.890625 C 26.154297 28.808115 26.086417 28.744141 26.003906 28.744141 L 24.873047 28.744141 z M 74.058594 28.744141 C 73.976094 28.744141 73.912109 28.808121 73.912109 28.890625 L 73.912109 29.09375 C 73.313129 29.142 72.693621 29.246764 72.056641 29.402344 L 72.056641 30.582031 C 74.011641 29.89327 75.689929 29.983541 77.193359 30.574219 L 77.193359 29.363281 C 76.594319 29.215946 75.977714 29.119164 75.339844 29.082031 L 75.339844 28.890625 C 75.339844 28.808115 75.271943 28.744141 75.189453 28.744141 L 74.058594 28.744141 z M 82.373047 28.744141 C 82.290547 28.744141 82.226562 28.808121 82.226562 28.890625 L 82.226562 29.09375 C 81.627583 29.142 81.008074 29.246764 80.371094 29.402344 L 80.371094 30.582031 C 82.326094 29.89327 84.004382 29.983529 85.507812 30.574219 L 85.507812 29.363281 C 84.908772 29.215946 84.292167 29.119164 83.654297 29.082031 L 83.654297 28.890625 C 83.654297 28.808115 83.586396 28.744141 83.503906 28.744141 L 82.373047 28.744141 z " />
        <path class="identikit-option identikit-option-1 identikit-option-2" id="torri-tondini" style="opacity:1;vector-effect:none;fill:#ff6600;fill-opacity:1;stroke:none;stroke-width:1;stroke-linecap:round;stroke-linejoin:round;stroke-miterlimit:4;stroke-dasharray:none;stroke-dashoffset:0;stroke-opacity:1;paint-order:markers fill stroke" d="M 17.125 26.964844 A 0.78125 0.78125 0 0 0 16.34375 27.746094 A 0.78125 0.78125 0 0 0 17.125 28.527344 A 0.78125 0.78125 0 0 0 17.90625 27.746094 A 0.78125 0.78125 0 0 0 17.125 26.964844 z M 25.439453 26.964844 A 0.78125 0.78125 0 0 0 24.658203 27.746094 A 0.78125 0.78125 0 0 0 25.439453 28.527344 A 0.78125 0.78125 0 0 0 26.220703 27.746094 A 0.78125 0.78125 0 0 0 25.439453 26.964844 z M 74.625 26.964844 A 0.78125 0.78125 0 0 0 73.84375 27.746094 A 0.78125 0.78125 0 0 0 74.625 28.527344 A 0.78125 0.78125 0 0 0 75.40625 27.746094 A 0.78125 0.78125 0 0 0 74.625 26.964844 z M 82.939453 26.964844 A 0.78125 0.78125 0 0 0 82.158203 27.746094 A 0.78125 0.78125 0 0 0 82.939453 28.527344 A 0.78125 0.78125 0 0 0 83.720703 27.746094 A 0.78125 0.78125 0 0 0 82.939453 26.964844 z " />
        <g transform="translate(-66.922326,11.529927)" style="display:inline" id="g2304">
            <circle style="opacity:1;vector-effect:none;fill:#ffffff;fill-opacity:1;stroke:#000000;stroke-width:1;stroke-linecap:round;stroke-linejoin:round;stroke-miterlimit:4;stroke-dasharray:none;stroke-dashoffset:0;stroke-opacity:1;paint-order:markers fill stroke" id="circle2300" cx="94.137627" cy="11.152834" r="5" />
            <path id="path2302" d="m 93.680476,14.091438 c -0.667172,-0.103041 -1.206761,-0.366448 -1.669389,-0.814931 -0.294109,-0.285117 -0.555221,-0.670372 -0.687829,-1.014854 -0.01815,-0.04714 -0.03782,-0.09122 -0.04371,-0.09794 -0.0088,-0.01001 -0.275729,0.08634 -0.731773,0.264128 -0.0639,0.02491 -0.06753,0.02502 -0.05577,0.0017 0.0069,-0.01374 0.188392,-0.41913 0.403265,-0.900859 0.353983,-0.793605 0.393436,-0.875155 0.420058,-0.868236 0.01616,0.0042 0.424415,0.184261 0.907234,0.400137 0.826765,0.36966 0.875403,0.393412 0.83573,0.408135 -0.02317,0.0086 -0.214031,0.08119 -0.424142,0.161318 -0.345946,0.131927 -0.381218,0.148393 -0.373533,0.174381 0.02233,0.07552 0.142753,0.309935 0.214964,0.418462 0.04435,0.06665 0.140546,0.183604 0.213773,0.259896 0.403903,0.420809 0.967998,0.6349 1.540858,0.584804 0.459801,-0.04021 0.844438,-0.21488 1.176904,-0.534452 0.177425,-0.170546 0.286247,-0.319377 0.391706,-0.535724 0.04788,-0.09822 0.08873,-0.180931 0.09079,-0.183811 0.0032,-0.0045 0.963449,0.337883 0.972829,0.346837 0.0066,0.0063 -0.09821,0.243476 -0.163031,0.368971 -0.234365,0.453774 -0.63017,0.875414 -1.078721,1.149131 -0.318375,0.19428 -0.663338,0.324577 -1.054496,0.398295 -0.165681,0.03122 -0.719145,0.04038 -0.88573,0.01465 z m 2.396473,-2.832129 c -0.485187,-0.216979 -0.882027,-0.398436 -0.881868,-0.403238 1.08e-4,-0.0048 0.186555,-0.07932 0.414211,-0.165597 0.376432,-0.14266 0.413147,-0.159481 0.405385,-0.185718 -0.02239,-0.07568 -0.142742,-0.309998 -0.215013,-0.418615 C 95.755316,10.01949 95.659118,9.9025368 95.585892,9.8262452 95.182145,9.4055981 94.618115,9.191456 94.045367,9.2413628 93.585829,9.281405 93.200594,9.4563223 92.868131,9.7758927 92.690704,9.9464383 92.581882,10.09527 92.476423,10.311617 c -0.04787,0.09822 -0.08873,0.180931 -0.09079,0.183811 -0.0032,0.0045 -0.96345,-0.337883 -0.97283,-0.346837 -0.0066,-0.0063 0.09822,-0.2434765 0.16303,-0.3689714 0.234365,-0.4537734 0.630171,-0.8754135 1.078723,-1.149131 0.321626,-0.1962644 0.669879,-0.3271308 1.061637,-0.3989411 0.167484,-0.0307 0.645096,-0.043096 0.815734,-0.021172 0.682311,0.087667 1.255024,0.3594679 1.732242,0.8220966 0.294111,0.2851177 0.555222,0.6703726 0.687829,1.0148539 0.01815,0.04714 0.03782,0.09122 0.04371,0.09794 0.0088,0.01001 0.275728,-0.08634 0.731771,-0.2641275 0.0639,-0.024911 0.06754,-0.025019 0.05577,-0.00166 -0.0069,0.013743 -0.188221,0.4187445 -0.402882,0.9000025 -0.214663,0.481261 -0.39726,0.874863 -0.405773,0.874677 -0.0085,-1.85e-4 -0.412449,-0.17787 -0.897637,-0.394849 z" style="fill:#000000;stroke-width:0.01428598" />
        </g>
    </g>
    <g id="done" style="display:inline" transform="translate(-7.9061006,5.0509167)">
        <circle style="opacity:1;vector-effect:none;fill:#ffffff;fill-opacity:1;stroke:#000000;stroke-width:1;stroke-linecap:round;stroke-linejoin:round;stroke-miterlimit:4;stroke-dasharray:none;stroke-dashoffset:0;stroke-opacity:1;paint-order:markers fill stroke" id="circle8551-5-6-2-9" cx="91.023964" cy="81.197296" r="5" />
        <path style="display:inline;fill:#000000;stroke:none;stroke-width:0.68732953px;stroke-linecap:butt;stroke-linejoin:miter;stroke-opacity:1" d="m 87.646268,80.092183 2.994201,0.954673 6.335558,-7.029866 -5.901614,10.067463 z" id="path8659-7-3-0" />
    </g>

</svg>