<?xml version="1.0" encoding="UTF-8" standalone="no"?>
<svg xmlns="http://www.w3.org/2000/svg" viewBox="0 0 100 100" height="25" width="25">
    <path
        style="fill:#000000;stroke-width:0.15029608"
        d="m 47.074106,81.35281 c -0.247988,-0.0351 -1.22867,-0.16886 -2.179293,-0.29716 -7.370539,-0.99469 -15.436817,-4.41936 -21.838744,-9.272 l -1.173028,-0.88914 -0.555377,0.22428 c -0.305454,0.12335 -1.197888,0.52758 -1.983185,0.8983 -2.389248,1.1279 -3.720199,1.74571 -6.387584,2.96504 -1.405268,0.64239 -3.3666322,1.55506 -4.3585862,2.02818 -2.031346,0.96884 -2.752326,1.07841 -3.516337,0.53439 -0.81444,-0.57993 -0.969673,-1.92673 -0.317618,-2.75567 0.17223,-0.21896 1.19956,-0.78595 2.51351,-1.38722 1.222221,-0.5593 4.1159522,-1.89642 6.4305122,-2.97138 2.314559,-1.07496 4.430573,-2.04889 4.702252,-2.1643 0.547303,-0.23249 0.546979,-0.23376 -0.313499,-1.24862 l -0.420721,-0.49621 -1.382832,0.1834 c -0.760554,0.10087 -4.223428,0.58769 -7.6952672,1.08184 -3.53425,0.50302 -6.59859,0.86877 -6.962617,0.83103 -1.24830702,-0.12941 -1.97072002,-1.36805 -1.48119602,-2.53964 0.315617,-0.75538 1.00749102,-1.10696 2.58226502,-1.3122 0.743966,-0.097 2.468614,-0.33808 3.832551,-0.53584 3.6803612,-0.5336 5.7531882,-0.82592 7.5148042,-1.05979 2.448985,-0.32511 2.254441,-0.2034 2.254441,-1.41034 0,-1.1978 0.115601,-1.11039 -1.803553,-1.36383 -0.702634,-0.0928 -1.852399,-0.26879 -2.555033,-0.39113 -0.702635,-0.12232 -1.95385,-0.31626 -2.7804782,-0.43097 -3.610727,-0.50103 -5.749887,-0.83535 -6.263787,-0.97892 -1.755787,-0.49052 -1.788143,-3.10626 -0.04438,-3.58774 0.366647,-0.10124 1.053801,-0.0586 2.43265,0.15101 1.05692,0.16066 3.240515,0.49259 4.8524412,0.73762 4.423336,0.67241 6.32653,0.93328 6.38152,0.87469 0.02734,-0.0291 0.15883,-1.0336 0.292251,-2.23221 0.811171,-7.28724 2.861449,-18.35414 4.761366,-25.70063 2.646084,-10.23174 5.440746,-16.8777 8.263438,-19.6512098 0.441678,-0.43398 0.876381,-0.78906 0.966009,-0.78906 0.534806,0 7.32398,6.7368198 9.769443,9.6940998 0.410139,0.49598 0.78293,0.93559 0.828423,0.97692 0.568288,0.5163 2.897755,3.8527 3.446279,4.93597 0.289057,0.57085 0.377432,0.64071 0.706101,0.55823 1.976332,-0.49603 7.257464,-0.49168 8.953485,0.007 0.190758,0.0561 0.359649,-0.12865 0.659565,-0.72164 1.112134,-2.19886 4.410809,-6.26306 8.332114,-10.26574 3.197747,-3.2641 5.294922,-5.1852098 5.660446,-5.1852098 0.275892,0 1.950604,1.8740698 2.650585,2.9661098 2.997552,4.67649 5.905807,13.54511 8.440968,25.74044 1.084678,5.21783 2.429067,13.50261 2.944949,18.14825 0.13985,1.25941 0.21598,1.53996 0.417179,1.53741 0.232086,-0.003 1.832039,-0.23633 6.182806,-0.90186 1.033285,-0.15806 2.825566,-0.42742 3.982846,-0.59857 1.15728,-0.17115 2.219178,-0.34599 2.359775,-0.38852 0.466646,-0.14117 1.440194,0.23186 1.837544,0.70408 0.432589,0.5141 0.520752,1.4446 0.196624,2.07528 -0.362894,0.70614 -0.868579,0.91873 -2.899338,1.21887 -4.404657,0.65101 -7.104378,1.06195 -8.321838,1.2667 -0.708815,0.11922 -1.667258,0.261 -2.129869,0.31508 -0.462607,0.0541 -0.92247,0.14861 -1.021915,0.21008 -0.120138,0.0743 -0.165706,0.45871 -0.135811,1.14587 l 0.045,1.03413 1.427813,0.18532 c 0.785297,0.10192 2.374678,0.32352 3.531958,0.49242 6.117853,0.89289 7.326868,1.06525 8.566876,1.22131 1.801947,0.22678 2.324719,0.55591 2.693161,1.69556 0.13888,0.42957 -0.168571,1.35489 -0.577969,1.7395 -0.226191,0.2125 -0.6179,0.37181 -1.016184,0.41329 -0.362425,0.0378 -3.430659,-0.32857 -6.960555,-0.83103 -3.471839,-0.4942 -6.929777,-0.98379 -7.68431,-1.08798 l -1.371874,-0.18945 -0.506827,0.57215 c -0.790144,0.89199 -0.802149,0.9492 -0.248947,1.18658 0.271482,0.11649 1.136117,0.51506 1.921414,0.88572 0.785297,0.37065 1.799795,0.84374 2.254441,1.05129 5.514453,2.51743 9.133188,4.22981 9.346232,4.42262 0.621893,0.5628 0.705927,1.9358 0.156811,2.56203 -0.859647,0.98038 -1.541653,0.90616 -4.543272,-0.49442 -3.293513,-1.53678 -8.504143,-3.94619 -10.769964,-4.98007 l -1.827342,-0.8338 -0.952638,0.7333 c -6.181394,4.75813 -14.066964,8.19262 -21.544194,9.38339 -1.864799,0.29697 -7.366124,0.52452 -8.566877,0.35435 z"
        id="path103" />
    <path
        style="opacity:1;vector-effect:none;fill:#ffffff;fill-opacity:1;stroke:none;stroke-width:0.11390762;stroke-linecap:round;stroke-linejoin:round;stroke-miterlimit:4;stroke-dasharray:none;stroke-dashoffset:0;stroke-opacity:1;paint-order:markers fill stroke"
        d="m 66.822132,44.161769 a 21.141212,14.474264 0 0 1 0.899385,0.841266 l 0.259464,-0.102168 a 25.320289,17.335456 0 0 0 -1.158849,-0.739098 z m -33.677867,0.02025 a 25.320289,17.335456 0 0 0 -1.126585,0.722529 l 0.263495,0.104011 a 21.141212,14.474264 0 0 1 0.86309,-0.82654 z m -2.653792,1.867533 a 25.320289,17.335456 0 0 0 -2.133519,2.081071 l 1.546032,0.283489 a 21.141212,14.474264 0 0 1 1.274464,-2.093038 z m 39.001583,0.0037 -0.658743,0.260481 a 21.141212,14.474264 0 0 1 1.243544,2.10316 l 1.563505,-0.287174 a 25.320289,17.335456 0 0 0 -2.148306,-2.076467 z m 3.243969,3.443291 -2.085121,0.382895 a 21.141212,14.474264 0 0 1 0.446332,2.247665 h 3.13642 a 25.320289,17.335456 0 0 0 -1.497631,-2.63056 z m -45.468011,0.0028 a 25.320289,17.335456 0 0 0 -1.520482,2.627798 h 3.161963 a 21.141212,14.474264 0 0 1 0.416749,-2.250427 z m -2.085124,4.142813 a 25.320289,17.335456 0 0 0 -0.481279,3.099972 l 4.639425,-0.851388 a 21.141212,14.474264 0 0 1 -0.446333,-2.248584 z m 45.899558,0 a 21.141212,14.474264 0 0 1 -0.416756,2.250426 l 4.632707,0.849546 A 25.320289,17.335456 0 0 0 74.78216,53.642113 Z m -41.16871,3.710196 -5.175832,0.949876 a 25.320289,17.335456 0 0 0 0.838888,3.360454 l 5.583179,-2.207166 a 21.141212,14.474264 0 0 1 -1.246235,-2.103164 z m 40.176563,0.0028 a 21.141212,14.474264 0 0 1 -1.277154,2.093956 l 5.581834,2.206247 a 25.320289,17.335456 0 0 0 0.83351,-3.357693 z m -2.380883,3.406477 a 21.141212,14.474264 0 0 1 -2.019247,1.797579 l 5.624853,3.85104 a 25.320289,17.335456 0 0 0 2.383572,-3.281297 z m -35.440336,0.0046 -5.989184,2.367317 a 25.320289,17.335456 0 0 0 2.378196,3.288664 l 5.643675,-3.863925 a 21.141212,14.474264 0 0 1 -2.032687,-1.792056 z m 31.854893,2.862503 a 21.141212,14.474264 0 0 1 -2.617489,1.392596 l 4.584307,5.436003 a 25.320289,17.335456 0 0 0 3.929601,-2.791635 z M 35.865271,63.62969 29.9581,67.674015 a 25.320289,17.335456 0 0 0 3.937671,2.787951 l 4.595063,-5.448888 a 21.141212,14.474264 0 0 1 -2.625563,-1.383449 z m 4.542634,2.139055 -4.736217,5.616405 a 25.320289,17.335456 0 0 0 5.209436,1.86109 l 2.585228,-6.604066 a 21.141212,14.474264 0 0 1 -3.058447,-0.873481 z m 19.185537,0.01288 a 21.141212,14.474264 0 0 1 -3.073232,0.852312 l 2.594637,6.628863 a 25.320289,17.335456 0 0 0 5.191967,-1.892381 z m -5.208093,1.24441 a 21.141212,14.474264 0 0 1 -3.284306,0.3065 v 7.068827 a 25.320289,17.335456 0 0 0 5.912547,-0.659941 z m -8.784129,0.01104 -2.62153,6.698816 a 25.320289,17.335456 0 0 0 5.909862,0.654418 V 67.321434 A 21.141212,14.474264 0 0 1 45.60122,67.037026 Z"
        id="circle136" />
</svg>
