<?xml version="1.0" encoding="UTF-8" standalone="no"?>
<svg xmlns="http://www.w3.org/2000/svg" viewBox="0 0 100 100" height="25" width="25">

    <g id="book-icon">
        <circle style="opacity:1;vector-effect:none;fill:#60271a;fill-opacity:1;stroke:none;stroke-width:5.33333349;stroke-linecap:round;stroke-linejoin:miter;stroke-miterlimit:4;stroke-dasharray:none;stroke-dashoffset:0;stroke-opacity:1;paint-order:markers fill stroke" id="path934" cx="50" cy="50" r="45" />
        <path style="opacity:1;vector-effect:none;fill:#ece4d4;fill-opacity:1;stroke:#ece4d4;stroke-width:4;stroke-linecap:round;stroke-linejoin:miter;stroke-miterlimit:4;stroke-dasharray:none;stroke-dashoffset:0;stroke-opacity:1;paint-order:markers fill stroke" d="m 71.977044,30.936225 c 1.74763,-0.018 2.99041,0.05826 3.11132,0.253907 0.0804,0.13013 0.45471,1.102466 0.83204,2.160156 l 0.68554,1.923828 1.55078,0.210938 c 0.85279,0.115884 1.65731,0.27883 1.78711,0.363281 0.12981,0.08445 0.45,0.72411 0.71094,1.421875 l 0.47461,1.269531 h 1.84375 c 1.22132,0 1.91703,0.08931 2.05859,0.263672 0.11761,0.144854 1.65847,4.196678 3.42383,9.005859 1.76536,4.809182 3.86165,10.49147 4.65821,12.626953 1.11372,2.985789 1.44921,4.139466 1.44921,4.990235 0,1.937017 1.96921,1.767577 -20.66992,1.767577 h -20.00781 l -0.61524,0.70117 c -0.33855,0.38559 -0.98783,0.81333 -1.4414,0.94922 -0.99572,0.29833 -2.85757,0.29538 -3.72461,-0.006 -0.34765,-0.12078 -0.96843,-0.54009 -1.37891,-0.93164 l -0.74609,-0.71289 H 26.039538 c -22.551094,0 -20.603504,0.16654 -20.603504,-1.75586 0,-0.939171 0.64383,-2.674094 4.54297,-12.257812 2.49816,-6.140236 4.78896,-11.779958 5.08984,-12.533203 0.82214,-2.058226 0.88933,-2.107422 2.906244,-2.107422 h 1.72656 l 0.57422,-1.353516 c 0.31637,-0.744409 0.72623,-1.411841 0.91016,-1.482421 0.18393,-0.07058 0.87801,-0.184405 1.54297,-0.253907 0.66497,-0.0695 1.29494,-0.186262 1.40039,-0.257812 0.10545,-0.0716 0.50835,-0.934912 0.89453,-1.919922 0.38619,-0.98502 0.82712,-1.9274 0.98047,-2.09375 0.23949,-0.25981 0.76273,-0.265686 3.70898,-0.04102 10.127126,0.7724 13.618396,1.367693 16.525386,2.814453 1.31246,0.65319 3.04497,2.0926 3.71094,3.083985 l 0.33398,0.498047 1.64844,-1.394532 c 2.78301,-2.352964 6.10663,-3.831506 9.97266,-4.435546 2.84714,-0.44485 7.15954,-0.737576 10.07227,-0.767579 z" id="path898" />
        <path id="path880" d="m 48.103254,68.837787 c -0.34765,-0.12078 -0.96794,-0.53996 -1.37842,-0.93151 l -0.74633,-0.71191 H 26.038808 c -22.551094,0 -20.601884,0.16616 -20.601884,-1.75624 0,-0.939171 0.64296,-2.674389 4.5421,-12.258107 2.49816,-6.140236 4.78828,-11.780358 5.08916,-12.533603 0.82214,-2.058226 0.88939,-2.10698 2.906304,-2.10698 h 1.72667 l 0.57524,-1.353472 c 0.31637,-0.744409 0.72572,-1.41122 0.90965,-1.481801 0.18393,-0.07058 0.87848,-0.185195 1.54344,-0.254697 0.66497,-0.0695 1.2953,-0.184907 1.40075,-0.256457 0.10545,-0.0716 0.50769,-0.93601 0.89387,-1.92102 0.38619,-0.98502 0.82762,-1.92704 0.98097,-2.09339 0.23949,-0.25981 0.76247,-0.26557 3.70872,-0.0409 10.127126,0.7724 13.617306,1.36663 16.524296,2.81339 1.31246,0.65319 3.04473,2.093146 3.7107,3.084531 l 0.33443,0.497855 1.64909,-1.394262 c 2.78301,-2.352964 6.10562,-3.830624 9.97165,-4.434664 4.55543,-0.71176 12.8622,-1.0354 13.18463,-0.51369 0.0804,0.13013 0.45494,1.10197 0.83227,2.15966 l 0.68605,1.92306 1.55051,0.210696 c 0.85279,0.115884 1.65673,0.279794 1.78653,0.364245 0.12981,0.08445 0.44951,0.724446 0.71046,1.422211 l 0.47445,1.268665 h 1.84479 c 1.22132,0 1.91706,0.08901 2.05863,0.263373 0.11761,0.144854 1.65822,4.198157 3.42358,9.007338 1.76536,4.809182 3.86146,10.491179 4.65802,12.626662 1.11372,2.985789 1.44827,4.138258 1.44827,4.989027 0,1.93701 1.96924,1.76853 -20.66989,1.76853 h -20.00769 l -0.61554,0.70106 c -0.33855,0.38558 -0.98665,0.81224 -1.44022,0.94814 -0.99572,0.29832 -2.85852,0.29543 -3.72556,-0.006 z m -5.08346,-5.643646 c -0.77747,-0.313948 -5.14747,-1.240632 -7.55842,-1.602809 -1.90824,-0.286659 -3.34128,-0.326856 -8.111866,-0.227545 -5.45385,0.113536 -7.31267,0.224206 -13.307464,0.792302 -2.6473,0.25087 -3.24758,0.175897 -3.43977,-0.429613 -0.12107,-0.381462 0.29597,-1.458298 5.85876,-15.127841 l 2.422234,-5.952218 h -0.79766 c -0.79622,0 -0.79888,0.0029 -1.47469,1.632909 -2.119824,5.112737 -8.434924,20.793247 -8.434924,20.944075 0,0.09812 7.94068,0.172389 17.645954,0.165042 10.052026,-0.0076 17.453106,-0.09123 17.197846,-0.194302 z m 48.70803,-0.58246 c -0.15799,-0.434564 -0.99854,-2.733806 -1.8679,-5.109426 -4.46074,-12.189574 -6.04622,-16.479306 -6.15696,-16.658488 -0.0671,-0.108543 -0.50578,-0.19735 -0.97487,-0.19735 -0.7285,0 -0.8312,0.05378 -0.70412,0.368721 0.17053,0.422628 3.11298,8.420716 5.71324,15.529558 0.97302,2.660151 1.71666,5.001949 1.65253,5.203998 -0.0641,0.202049 -0.29108,0.422738 -0.50433,0.490423 -0.21325,0.06768 -2.03357,-0.01999 -4.04516,-0.194833 -6.7896,-0.590131 -11.64373,-0.7994 -15.98325,-0.689064 -3.74904,0.09532 -4.72268,0.195091 -7.37443,0.755647 -6.20997,1.312729 -6.87175,1.247014 12.79055,1.2701 l 17.74196,0.02083 z M 48.614194,38.822847 c -0.92891,-1.918872 -3.42073,-3.503667 -6.7063,-4.265187 -1.6464,-0.3816 -7.69934,-1.06179 -12.586756,-1.41443 -1.75309,-0.12648 -1.94502,-0.10326 -2.13467,0.25826 -0.11462,0.21848 -1.60538,4.000178 -3.31281,8.403766 -2.85073,7.352226 -5.264,13.545672 -5.51432,14.151974 -0.0687,0.166525 0.39671,0.119578 1.44187,-0.145432 5.68198,-1.440706 12.205046,-1.401283 16.965466,0.102532 2.11328,0.667586 7.34987,3.27955 10.07239,5.024018 l 2.10698,1.350057 0.0545,-11.2774 c 0.0535,-11.069969 0.0464,-11.294152 -0.38637,-12.188158 z m 3.49232,22.795248 c 2.40147,-1.737565 8.08435,-4.675085 10.81274,-5.589179 4.82364,-1.616068 11.03511,-1.702644 17.15741,-0.239138 0.8981,0.214684 1.63291,0.333689 1.63291,0.264449 0,-0.06924 -0.60879,-1.833964 -1.35286,-3.92161 -0.74408,-2.087648 -2.56925,-7.287171 -4.05594,-11.554495 l -2.70307,-7.758772 -2.94977,0.13157 c -10.34684,0.46148 -14.05816,1.58127 -18.20449,5.49271 l -1.49577,1.411038 v 11.259254 c 0,8.946337 0.0541,11.228675 0.26337,11.110389 0.14486,-0.08188 0.54782,-0.354674 0.89547,-0.606216 z m -9.97172,-1.079983 c -0.82226,-0.57593 -4.27899,-2.109803 -6.04133,-2.680742 -2.59548,-0.840851 -4.15333,-1.057255 -7.585116,-1.053661 -3.40797,0.0036 -5.75886,0.326355 -9.16537,1.25843 -2.69559,0.737559 -3.111654,0.796409 -3.478434,0.492005 -0.55601,-0.461448 -0.95615,0.690719 5.633794,-16.222143 0.92564,-2.37562 1.73024,-4.437827 1.78799,-4.582681 0.067,-0.168059 -0.0838,-0.263373 -0.41672,-0.263373 -0.48831,0 -0.71461,0.475542 -3.53441,7.427104 -5.717604,14.095469 -6.138984,15.151208 -6.068174,15.203477 0.0391,0.02886 1.44588,-0.06658 3.12619,-0.212071 5.523104,-0.478238 12.697274,-0.777158 15.59164,-0.649641 2.78287,0.122603 6.85448,0.709001 8.95467,1.289659 1.44852,0.400486 1.77366,0.398757 1.19527,-0.0064 z m 18.86649,-0.40537 c 3.8404,-0.799304 6.83434,-1.0217 11.67566,-0.867288 4.25321,0.135656 12.28311,0.651628 13.58794,0.873113 l 0.6574,0.111588 -1.32432,-3.638954 c -1.17854,-3.238392 -3.25635,-8.890338 -6.06274,-16.491529 -0.90217,-2.443555 -0.95557,-2.530591 -1.59175,-2.594389 -0.6431,-0.06449 -0.65287,-0.05235 -0.42399,0.526745 0.29541,0.747418 4.74298,13.346267 6.03679,17.10074 1.08218,3.140313 1.06175,3.522125 -0.18672,3.490021 -0.39151,-0.01007 -1.61257,-0.268061 -2.71347,-0.573318 -3.35131,-0.929252 -5.74337,-1.260418 -9.16536,-1.268884 -3.41366,-0.0084 -4.9636,0.207495 -7.58513,1.056783 -1.83537,0.594602 -5.27314,2.131522 -6.04712,2.703483 l -0.48451,0.358049 0.63209,-0.14716 c 0.34765,-0.08094 1.69551,-0.368487 2.99523,-0.639 z" style="fill:#60271a;fill-opacity:1;stroke-width:0.21069798" />
    </g>

</svg>
