<?xml version="1.0" encoding="UTF-8" standalone="no"?>
<svg xmlns="http://www.w3.org/2000/svg"
   xmlns:xlink="http://www.w3.org/1999/xlink" viewBox="0 0 100 100" height="25" width="25">

      <g
         class="item"
         id="books-frame">
        <image
           width="237.97128"
           height="135.9836"
           preserveAspectRatio="none"
           xlink:href="~/sfondo-sml.jpg"
           id="image2800"
           x="-66.287369"
           y="-35.983593" />
        <g
           id="text2759"
           style="font-style:normal;font-variant:normal;font-weight:normal;font-stretch:normal;font-size:15.51064301px;line-height:1.25;font-family:Blackout;-inkscape-font-specification:'Blackout, Normal';font-variant-ligatures:normal;font-variant-caps:normal;font-variant-numeric:normal;font-feature-settings:normal;text-align:start;letter-spacing:0px;word-spacing:0px;writing-mode:lr-tb;text-anchor:start;display:inline;fill:#f6bb91;fill-opacity:1;stroke:none;stroke-width:0.38776606"
           transform="rotate(-15,-3.3293698,25.289074)"
           aria-label="play_me!">
          <path
             id="path2681"
             style="stroke-width:0.38776606"
             d="M -3.4150051,51.103728 V 64.117157 H -10.456837 V 51.103728 Z m -3.5054053,7.600215 q 0.6204257,0 1.1632982,-0.23266 0.5428725,-0.23266 0.9461492,-0.635936 0.4187874,-0.403277 0.651447,-0.94615 0.2326597,-0.542872 0.2326597,-1.163298 0,-0.620426 -0.2326597,-1.163298 -0.2326596,-0.542873 -0.651447,-0.946149 -0.4032767,-0.418788 -0.9461492,-0.651447 -0.5428725,-0.23266 -1.1632982,-0.23266 h -0.015511 -2.9160009 v 9.616599 h 2.1714901 v -3.645001 h 0.7445108 z" />
          <path
             id="path2683"
             style="stroke-width:0.38776606"
             d="M -3.6420905,51.103728 H 2.9964647 V 64.117157 H -3.6420905 Z M 2.376039,62.348944 v -2.17149 H -0.69506834 V 52.732345 H -2.8665584 v 9.616599 z" />
          <path
             id="path2685"
             style="stroke-width:0.38776606"
             d="M 2.6894029,51.103728 H 12.523151 V 64.117157 H 2.6894029 Z M 9.7002135,62.348944 H 12.042321 L 8.7075323,52.732345 H 6.334404 l -3.3347883,9.616599 h 2.3265965 l 1.302894,-3.722555 h 1.7837239 z" />
          <path
             id="path2687"
             style="stroke-width:0.38776606"
             d="m 12.246141,51.103728 h 8.499832 v 13.013429 h -8.499832 z m 5.32015,6.452427 2.590277,-4.82381 h -2.17149 l -1.504532,2.791916 -1.504532,-2.791916 h -2.17149 l 2.590277,4.808299 v 4.8083 h 2.17149 z" />
          <path
             id="path2689"
             style="stroke-width:0.38776606"
             d="m 28.553157,51.088217 v 13.02894 h -8.112066 v -13.02894 z" />
          <path
             id="path2691"
             style="stroke-width:0.38776606"
             d="M 28.28802,51.103728 H 38.64913 V 64.117157 H 28.28802 Z m 9.585578,1.644128 0.01551,-0.01551 h -2.187 v 0.01551 l -2.249043,6.483448 -2.249044,-6.498959 H 29.00151 v 9.616599 H 31.173 V 58.89007 l 1.19432,3.458874 h 2.17149 l 1.163298,-3.350299 v 3.350299 h 2.17149 z" />
          <path
             id="path2693"
             style="stroke-width:0.38776606"
             d="m 38.436588,51.103728 h 7.103874 v 13.013429 h -7.103874 z m 6.467938,3.800107 v -2.17149 h -5.894045 v 9.616599 h 5.894045 v -2.17149 h -3.722555 v -1.551065 h 2.745384 v -2.17149 h -2.745384 v -1.551064 z" />
          <path
             id="path2695"
             style="stroke-width:0.38776606"
             d="m 45.283084,51.088217 h 3.458874 v 13.02894 h -3.458874 z m 0.666958,1.737192 v 6.452427 h 2.093937 v -6.452427 z m 2.093937,9.290875 v -2.093937 h -2.078427 v 2.093937 z" />
        </g>
        <g
           id="text2678"
           style="font-style:normal;font-variant:normal;font-weight:normal;font-stretch:normal;font-size:8.94372749px;line-height:1.25;font-family:Daniel;-inkscape-font-specification:'Daniel, Normal';font-variant-ligatures:normal;font-variant-caps:normal;font-variant-numeric:normal;font-feature-settings:normal;text-align:start;letter-spacing:0px;word-spacing:0px;writing-mode:lr-tb;text-anchor:start;display:inline;fill:#017bc2;fill-opacity:1;stroke:#007ac0;stroke-width:0.22359283;stroke-opacity:1"
           transform="rotate(-15,-3.3293698,25.289074)"
           aria-label="(teaser)">
          <path
             id="path2698"
             style="font-style:normal;font-variant:normal;font-weight:normal;font-stretch:normal;font-size:8.94372749px;font-family:Daniel;-inkscape-font-specification:'Daniel, Normal';font-variant-ligatures:normal;font-variant-caps:normal;font-variant-numeric:normal;font-feature-settings:normal;text-align:start;writing-mode:lr-tb;text-anchor:start;fill:#017bc2;fill-opacity:1;stroke:#007ac0;stroke-width:0.22359283;stroke-opacity:1"
             d="m 6.9663994,66.974743 q 0,0.08297 -0.6463241,0.772968 l -0.803538,0.842842 q -0.2489221,0.26639 -0.4454396,0.672526 -0.1397457,0.388668 -0.3187949,0.729298 -0.4279714,0.794804 -0.960752,1.860365 -0.3668326,0.938917 -0.3668326,2.052516 0,1.952073 0.7860698,2.912825 -0.017468,0.135379 -0.1353787,0.257657 -1.0218907,-0.602654 -1.1135989,-1.877834 -0.091708,-1.209674 -0.091708,-1.484798 0,-0.07424 0.039303,-0.262024 0.043671,-0.187783 0.052405,-0.227086 0.318795,-2.47612 2.1704261,-5.039581 0.5065783,-0.698729 1.4585962,-1.371255 h 0.244555 q 0.1310117,0.07424 0.1310117,0.161581 z" />
          <path
             id="path2700"
             style="font-style:normal;font-variant:normal;font-weight:normal;font-stretch:normal;font-size:8.94372749px;font-family:Daniel;-inkscape-font-specification:'Daniel, Normal';font-variant-ligatures:normal;font-variant-caps:normal;font-variant-numeric:normal;font-feature-settings:normal;text-align:start;writing-mode:lr-tb;text-anchor:start;fill:#017bc2;fill-opacity:1;stroke:#007ac0;stroke-width:0.22359283;stroke-opacity:1"
             d="m 10.154349,72.09293 q -1.0000554,0 -1.7206194,0.331897 -0.1746822,0.07861 -0.2139857,0.222719 -0.00873,0.205252 -0.069873,0.746767 -0.021835,0.200884 -0.021835,0.41487 0,0.04367 0.017468,0.292592 0.021835,0.244555 0.021835,0.283859 0,0.344997 -0.1703152,0.572084 -0.034936,-0.0087 -0.1921504,-0.07424 -0.1703151,-0.441072 -0.1703151,-1.026258 0,-0.144112 0.048038,-0.576451 0.043671,-0.423604 0.043671,-0.572084 0,-0.131012 -0.091708,-0.196517 -0.078607,0.03057 -0.5589829,0.07861 -0.082974,0.01747 -0.4978442,0.07861 -0.07424,0.0087 -0.2707574,0.03057 -0.043671,0.0044 -0.2139857,0.139746 -0.043671,0.0393 -0.043671,0.170315 0,0.0131 0,0.03057 H 5.8571675 q -0.065506,0 -0.2751245,-0.179049 -0.2052515,-0.183416 -0.2052515,-0.235821 0,-0.270757 0.960752,-0.401769 1.1747376,-0.161581 1.4018244,-0.283859 0.1310117,-0.07861 0.2882256,-1.724986 0.078607,-0.812272 0.3231621,-2.083085 0.021835,-0.109176 0.069873,-0.336263 0.017468,-0.04804 0.3056938,-0.187784 l 0.07424,0.537148 q -0.021835,0.109177 -0.082974,0.458541 l -0.1834163,1.122333 q -0.030569,0.139746 -0.069873,0.537148 l -0.07424,1.559038 1.7642899,-0.01747 z" />
          <path
             id="path2702"
             style="font-style:normal;font-variant:normal;font-weight:normal;font-stretch:normal;font-size:8.94372749px;font-family:Daniel;-inkscape-font-specification:'Daniel, Normal';font-variant-ligatures:normal;font-variant-caps:normal;font-variant-numeric:normal;font-feature-settings:normal;text-align:start;writing-mode:lr-tb;text-anchor:start;fill:#017bc2;fill-opacity:1;stroke:#007ac0;stroke-width:0.22359283;stroke-opacity:1"
             d="m 14.569441,74.813605 q -0.161581,0.192151 -0.419237,0.192151 h -1.545937 q -0.537148,0 -1.196573,-0.161581 -0.864677,-0.209619 -0.978221,-0.528414 -0.126644,-0.358098 -0.126644,-0.685627 0,-0.659426 0.567717,-1.013157 0.480376,-0.305694 1.170371,-0.305694 0.593919,0 0.943283,0.257656 0.349365,0.253289 0.349365,0.694362 0,0.244555 -0.838475,0.537148 -0.694361,0.248922 -1.008789,0.248922 -0.0393,0 -0.06987,-0.0044 0,0.06114 -0.09607,0.14848 0.0524,0.08734 0.510945,0.200884 0.410503,0.104809 0.585185,0.104809 h 1.388723 q 0,0 0,0 0,0.0044 0.524047,0.07861 0.165948,0.10481 0.240188,0.235821 z m -1.799226,-1.742454 q -0.244555,-0.248923 -0.78607,-0.248923 -0.379934,0 -0.703096,0.14848 -0.419237,0.192151 -0.419237,0.51968 0,0.11791 0.07861,0.165948 h 0.279491 q 0.14848,0 0.803538,-0.248922 0.655058,-0.248922 0.746767,-0.336263 z" />
          <path
             id="path2705"
             style="font-style:normal;font-variant:normal;font-weight:normal;font-stretch:normal;font-size:8.94372749px;font-family:Daniel;-inkscape-font-specification:'Daniel, Normal';font-variant-ligatures:normal;font-variant-caps:normal;font-variant-numeric:normal;font-feature-settings:normal;text-align:start;writing-mode:lr-tb;text-anchor:start;fill:#017bc2;fill-opacity:1;stroke:#007ac0;stroke-width:0.22359283;stroke-opacity:1"
             d="m 19.05004,75.031958 q -0.09171,0.126645 -0.200885,0.126645 -0.06987,0 -0.471642,-0.419238 -0.401769,-0.423604 -0.537148,-0.423604 0,0 0,0 0,0.0087 -0.952017,0.366833 -0.973854,0.362465 -1.240244,0.362465 -0.218353,0 -0.484743,-0.213985 -0.26639,-0.213986 -0.26639,-0.401769 0,-0.484744 1.061194,-1.131068 0.995688,-0.611387 1.519735,-0.611387 0.218353,0 0.393035,0.248922 v 0.187783 q -0.08734,0.126645 -0.200885,0.126645 -0.02183,0 -0.152847,-0.05677 -0.126644,-0.05677 -0.152846,-0.05677 -0.174683,0 -0.799171,0.358099 -0.59392,0.336263 -0.794804,0.502211 -0.200885,0.174682 -0.257657,0.397402 0.152847,0.144113 0.362466,0.144113 0.109176,0 1.05246,-0.362466 0.938917,-0.366832 1.135434,-0.366832 0.288226,0 0.41487,0.144113 0.03057,0.03494 0.22272,0.393034 0.144113,0.270758 0.349365,0.489111 z" />
          <path
             id="path2711"
             style="font-style:normal;font-variant:normal;font-weight:normal;font-stretch:normal;font-size:8.94372749px;font-family:Daniel;-inkscape-font-specification:'Daniel, Normal';font-variant-ligatures:normal;font-variant-caps:normal;font-variant-numeric:normal;font-feature-settings:normal;text-align:start;writing-mode:lr-tb;text-anchor:start;fill:#017bc2;fill-opacity:1;stroke:#007ac0;stroke-width:0.22359283;stroke-opacity:1"
             d="m 22.377736,73.992599 q 0,0.3712 -0.240188,0.493477 -0.179049,0.08297 -0.873411,0.29696 -0.720564,0.22272 -0.882145,0.22272 -0.0262,0 -0.06987,-0.0262 -0.04367,-0.03057 -0.06551,-0.03057 -0.09607,0 -0.371199,0.279491 -0.192151,-0.144112 -0.192151,-0.222719 0,-0.48911 1.471698,-0.78607 0.09171,-0.02183 0.34063,-0.06551 0.06987,-0.04804 0.213985,-0.19215 -0.139745,-0.231454 -0.432338,-0.344998 -0.292593,-0.100442 -1.056827,-0.397402 -0.759868,-0.292592 -0.759868,-0.659425 0,-0.476009 0.952018,-0.476009 0.362466,0 0.930183,0.08297 0.663792,0.09608 0.864677,0.218353 l -0.06987,0.113543 -1.620177,0.08297 q -0.0131,0.01747 -0.10481,0.08734 l 1.166004,0.519679 q 0.799171,0.353731 0.799171,0.803538 z" />
          <path
             id="path2714"
             style="font-style:normal;font-variant:normal;font-weight:normal;font-stretch:normal;font-size:8.94372749px;font-family:Daniel;-inkscape-font-specification:'Daniel, Normal';font-variant-ligatures:normal;font-variant-caps:normal;font-variant-numeric:normal;font-feature-settings:normal;text-align:start;writing-mode:lr-tb;text-anchor:start;fill:#017bc2;fill-opacity:1;stroke:#007ac0;stroke-width:0.22359283;stroke-opacity:1"
             d="m 27.076686,74.813605 q -0.161581,0.192151 -0.419237,0.192151 h -1.545937 q -0.537148,0 -1.196573,-0.161581 -0.864677,-0.209619 -0.978221,-0.528414 -0.126644,-0.358098 -0.126644,-0.685627 0,-0.659426 0.567717,-1.013157 0.480376,-0.305694 1.170371,-0.305694 0.593919,0 0.943283,0.257656 0.349365,0.253289 0.349365,0.694362 0,0.244555 -0.838475,0.537148 -0.694361,0.248922 -1.008789,0.248922 -0.0393,0 -0.06987,-0.0044 0,0.06114 -0.09608,0.14848 0.0524,0.08734 0.510945,0.200884 0.410503,0.104809 0.585185,0.104809 h 1.388724 q 0,0 0,0 0,0.0044 0.524046,0.07861 0.165948,0.10481 0.240188,0.235821 z M 25.27746,73.071151 q -0.244555,-0.248923 -0.78607,-0.248923 -0.379934,0 -0.703096,0.14848 -0.419237,0.192151 -0.419237,0.51968 0,0.11791 0.07861,0.165948 h 0.279491 q 0.14848,0 0.803538,-0.248922 0.655059,-0.248922 0.746767,-0.336263 z" />
          <path
             id="path2716"
             style="font-style:normal;font-variant:normal;font-weight:normal;font-stretch:normal;font-size:8.94372749px;font-family:Daniel;-inkscape-font-specification:'Daniel, Normal';font-variant-ligatures:normal;font-variant-caps:normal;font-variant-numeric:normal;font-feature-settings:normal;text-align:start;writing-mode:lr-tb;text-anchor:start;fill:#017bc2;fill-opacity:1;stroke:#007ac0;stroke-width:0.22359283;stroke-opacity:1"
             d="m 31.277792,72.782925 -0.139746,0.126645 q -0.45854,-0.144113 -0.711829,-0.144113 -0.01747,0 -0.03494,0 -0.327529,0.01747 -0.480376,0.01747 H 29.56154 q -0.0087,0 -0.305694,0.09607 -0.187783,0.0131 -0.554616,0.09607 -0.585185,0.257657 -0.698729,0.908348 -0.04804,0.257656 -0.04804,0.454173 0,0.0524 0.0044,0.10481 0.03494,0.484743 0.03494,0.572084 -0.100442,0.0262 -0.323162,0.0524 -0.122277,-0.23582 -0.122277,-0.327529 0,-0.04804 0.02183,-0.248922 0.0131,-0.200884 0.0131,-0.270757 0,-0.366833 0.323162,-1.262079 0.109177,-0.227087 0.314428,-0.371199 0.44544,-0.305694 1.64638,-0.305694 1.205307,0.0044 1.410558,0.318795 z" />
          <path
             id="path2718"
             style="font-style:normal;font-variant:normal;font-weight:normal;font-stretch:normal;font-size:8.94372749px;font-family:Daniel;-inkscape-font-specification:'Daniel, Normal';font-variant-ligatures:normal;font-variant-caps:normal;font-variant-numeric:normal;font-feature-settings:normal;text-align:start;writing-mode:lr-tb;text-anchor:start;fill:#017bc2;fill-opacity:1;stroke:#007ac0;stroke-width:0.22359283;stroke-opacity:1"
             d="m 34.085808,71.56015 q 0,1.476064 -0.777336,3.222886 -0.122277,0.279491 -1.537203,2.978331 -0.126645,-0.0044 -0.602654,-0.0044 v -0.257656 q 0.401769,-0.467275 0.545882,-0.729298 0.06987,-0.139746 0.738032,-1.20094 0.44544,-0.720564 0.602654,-1.266446 0.471642,-1.698784 0.471642,-2.484854 0,-1.799226 -0.476009,-3.393201 -0.235821,-0.558983 -0.480376,-1.244611 V 66.82623 h 0.29696 q 0.148479,0 0.331896,0.567717 0.104809,0.187783 0.248922,0.471642 0.26639,0.524046 0.445439,1.502266 0.192151,1.048093 0.192151,2.192262 z" />
        </g>
        <text
           id="text2735"
           y="24.691881"
           x="-5.9863071"
           style="font-style:normal;font-variant:normal;font-weight:500;font-stretch:normal;font-size:19.59389305px;line-height:1.25;font-family:MomsDiner;-inkscape-font-specification:'MomsDiner, Medium';font-variant-ligatures:normal;font-variant-caps:normal;font-variant-numeric:normal;font-feature-settings:normal;text-align:start;letter-spacing:0px;word-spacing:0px;writing-mode:lr-tb;text-anchor:start;display:inline;fill:#0277c1;fill-opacity:1;stroke:none;stroke-width:0.4898473"
           xml:space="preserve"><tspan
             style="fill:#0277c1;fill-opacity:1;stroke-width:0.4898473"
             y="24.691881"
             x="-5.9863071"
             id="tspan2733">A.L.I.C.E</tspan></text>
        <text
           xml:space="preserve"
           style="font-style:normal;font-variant:normal;font-weight:500;font-stretch:normal;font-size:5.23923492px;line-height:1.25;font-family:MomsDiner;-inkscape-font-specification:'MomsDiner, Medium';font-variant-ligatures:normal;font-variant-caps:normal;font-variant-numeric:normal;font-feature-settings:normal;text-align:start;letter-spacing:0px;word-spacing:0px;writing-mode:lr-tb;text-anchor:start;display:inline;fill:#0277c1;fill-opacity:1;stroke:none;stroke-width:0.13098086"
           x="-5.8589096"
           y="31.204342"
           id="text2757"><tspan
             id="tspan2755"
             x="-5.8589096"
             y="31.204342"
             style="fill:#0277c1;fill-opacity:1;stroke-width:0.13098086">Alice's Lucca Interactive Creative Experience</tspan></text>
        <image
           width="71.307091"
           height="100.7874"
           preserveAspectRatio="none"
           xlink:href="~/books-tall-sml.png"
           id="image2789"
           x="68.33606"
           y="-14.630271" />
        <image
           width="71.307091"
           height="100.7874"
           preserveAspectRatio="none"
           xlink:href="~/books-short-sml.png"
           id="image2778"
           x="34.368027"
           y="-11.93974" />
        <image
           width="57.521412"
           height="57.521412"
           preserveAspectRatio="none"
           xlink:href="~/alice.png"
           id="image2767"
           x="59.330784"
           y="34.739117" />
        <image
           width="19.237171"
           height="19.237171"
           preserveAspectRatio="none"
           xlink:href="~/logo/citta-che-legge.png"
           id="image6613"
           x="-0.6497919"
           y="82.455772" />
        <image
           width="8.9229565"
           height="11.094956"
           preserveAspectRatio="none"
           xlink:href="~/logo/logo-agora.jpg"
           id="image6624"
           x="17.16712"
           y="86.280647" />
        <image
           width="36.630764"
           height="25.87702"
           preserveAspectRatio="none"
           xlink:href="~/logo/logo-cepell.png"
           id="image6635"
           x="-29.422077"
           y="80.041534" />
        <image
           width="9.1345119"
           height="10.514545"
           preserveAspectRatio="none"
           xlink:href="~/logo/lucca-creative-hub.png"
           id="image6646"
           x="29.42515"
           y="87.434166" />
        <image
           width="8.6615334"
           height="11.115635"
           preserveAspectRatio="none"
           xlink:href="~/logo/viva-voce-sml.jpg"
           id="image4616"
           x="42.736923"
           y="86.280647"
           style="display:inline" />
      </g>

</svg>