<?xml version="1.0" encoding="UTF-8" standalone="no"?>
<svg 
   xmlns="http://www.w3.org/2000/svg" 
   xmlns:xlink="http://www.w3.org/1999/xlink"
   viewBox="0 0 100 100" height="25" width="25">

   <g id="bosco">
      <image width="100" height="74.125008" preserveAspectRatio="none" xlink:href="~/badges/copertina.jpg" id="image2295" x="0" y="11.575891" />
      <path style="fill:#000000;stroke-width:0.10559987" d="m 29.986874,42.502022 c -1.112944,-0.0035 -1.41358,0.03154 -2.061026,0.243628 -0.418377,0.137053 -0.923073,0.358815 -1.07865,0.463683 -0.128267,0.08646 -0.375421,0.329663 -0.622826,0.611038 -0.247407,0.281375 -0.502067,0.605068 -0.666052,0.858597 -0.529766,0.819041 -0.989365,1.567118 -1.324244,2.151405 -0.512456,0.894116 -0.837149,1.433859 -1.07865,1.758455 -0.12075,0.162297 -0.220182,0.27105 -0.31829,0.343832 -0.09811,0.07278 -0.199687,0.106636 -0.296678,0.108061 -0.15363,0.0022 -0.228493,0.06216 -0.233805,0.06877 0.0094,0.01083 0.04026,0.03537 0.102167,0.05502 0.05452,0.0173 0.108724,0.02991 0.155216,0.08252 0.02325,0.02631 0.03855,0.064 0.04126,0.100203 0.0027,0.03619 -0.0043,0.06967 -0.01572,0.102168 -0.04543,0.129969 -0.162524,0.289315 -0.385091,0.601214 -0.775216,1.08637 -0.838399,2.117676 -0.206299,3.516909 0.538425,1.191871 1.894196,2.243313 3.163253,2.453977 l 0.465647,0.07662 0.0727,2.375387 c 0.03803,1.261116 0.115076,3.433584 0.172898,4.825434 0.05788,1.393316 0.109777,3.064231 0.113957,3.719279 0.0036,0.573319 0.0045,0.877178 -0.04126,1.121874 -0.04578,0.244696 -0.139354,0.416636 -0.304537,0.705347 -0.175552,0.306831 -0.332019,0.521286 -0.626756,0.758394 -0.294739,0.237108 -0.725054,0.501572 -1.469637,0.937188 -0.357525,0.209169 -1.234364,0.64781 -1.962788,0.984341 -0.724674,0.3348 -1.472059,0.701443 -1.626816,0.793761 -0.196215,0.117048 -0.618296,0.27735 -0.974518,0.377233 -0.346035,0.09702 -1.155203,0.337972 -1.793819,0.534413 -0.641835,0.197429 -1.398313,0.403423 -1.701478,0.461716 -0.287185,0.05523 -0.815434,0.169733 -1.170992,0.253453 l -0.84288,0.198441 0.231841,-0.55406 c 0.04629,-0.110809 0.06977,-0.204584 0.07662,-0.273102 0.0068,-0.06852 -0.0066,-0.108618 -0.01179,-0.11592 -0.0051,-0.0073 0.0078,-0.0067 -0.02161,0 -0.02942,0.0067 -0.09017,0.03619 -0.163075,0.102167 -0.05221,0.04725 -0.0906,0.0848 -0.125744,0.111991 -0.03514,0.02719 -0.05958,0.06127 -0.137532,0.05108 -0.03898,-0.0051 -0.07809,-0.03694 -0.09235,-0.06287 -0.0094,-0.01697 -0.009,-0.02962 -0.01179,-0.04323 4.81e-4,0.0051 -5.04e-4,0.0046 0,0.0099 l 0.07662,0.801619 -0.465647,-0.410634 c -0.151555,-0.134056 -0.414812,-0.373901 -0.587461,-0.534413 -0.154346,-0.143496 -0.263699,-0.2154 -0.314361,-0.237735 7.61e-4,-0.0021 0.0096,0.04126 0.02554,0.102167 0.01697,0.06451 0.04003,0.15028 0.07073,0.249524 0.0614,0.198488 0.14581,0.453616 0.235771,0.713205 0.17992,0.519178 0.389544,1.071772 0.47154,1.231901 l 0.12378,0.243629 0.742677,-0.06287 c 0.445303,-0.03739 1.355576,-0.110676 2.023696,-0.163074 0.66311,-0.05201 1.850127,-0.192345 2.630805,-0.312396 0.392966,-0.06043 0.787215,-0.117523 1.104192,-0.15718 0.316976,-0.03967 0.547616,-0.06333 0.654262,-0.06287 0.607983,0.0024 1.205031,0.446073 1.567874,1.131698 0.638456,1.206429 1.720081,1.96351 2.98839,2.092462 0.356401,0.03623 0.818205,0.137359 1.060966,0.2397 l 0.552104,0.233773 -0.624792,0.534413 c -0.50532,0.434136 -2.812724,2.086649 -3.601393,2.581686 -0.08332,0.0523 -0.147658,0.09264 -0.200405,0.121815 -0.05274,0.02917 -0.08801,0.04844 -0.137533,0.05698 -0.02476,0.0042 -0.06407,0.0055 -0.102167,-0.02358 -0.0381,-0.02914 -0.04561,-0.07395 -0.04519,-0.100203 8.45e-4,-0.0525 0.01526,-0.08394 0.0334,-0.127709 0.102717,-0.247901 0.173943,-0.490574 0.204335,-0.679806 0.0152,-0.09462 0.01987,-0.17615 0.01572,-0.233804 -0.0041,-0.05699 -0.02159,-0.08421 -0.01965,-0.08252 -0.0082,0.0094 -0.03709,0.03778 -0.0727,0.115921 -0.07757,0.170242 -0.180519,0.286081 -0.314361,0.312396 -0.06692,0.01316 -0.147111,-0.0113 -0.192545,-0.06877 -0.02423,-0.03064 -0.02295,-0.07714 -0.03144,-0.11592 -0.009,0.08003 -0.01671,0.164755 -0.01375,0.269171 l 0.02161,0.766254 -1.009883,-1.002024 c -0.226494,-0.225166 -0.439191,-0.422355 -0.599249,-0.556026 -0.04721,-0.03942 -0.07769,-0.05916 -0.113956,-0.08645 0.0054,0.02439 0.0063,0.04017 0.01375,0.06877 0.03829,0.147122 0.103994,0.343994 0.182722,0.552096 0.159803,0.422403 0.376902,1.005485 0.48333,1.296738 0.104234,0.285249 0.33584,0.844414 0.510835,1.233865 0.183305,0.40794 0.34047,0.611082 0.453858,0.652298 0.0567,0.02061 0.108925,0.01674 0.190582,-0.02554 0.08165,-0.04227 0.183342,-0.125075 0.302572,-0.249523 0.176025,-0.183732 0.427458,-0.357669 0.622826,-0.406704 0.02411,-0.006 0.105127,-0.03388 0.212194,-0.07662 0.107066,-0.04275 0.246053,-0.10252 0.40474,-0.170934 0.317371,-0.136829 0.716121,-0.316227 1.121873,-0.504942 0.814997,-0.379053 1.988222,-0.893543 2.613122,-1.147416 0.61941,-0.251643 1.555576,-0.657573 2.072815,-0.897892 l 0.976483,-0.451894 0.776078,0.174863 c 1.189705,0.270593 2.012086,0.225385 2.795843,-0.145391 1.589482,-0.751944 3.656759,-3.010483 4.300846,-4.705585 0.103191,-0.271576 0.244317,-0.858991 0.306502,-1.27709 0.122983,-0.82688 -0.0017,-1.494741 -0.447964,-2.369493 -0.106197,-0.208164 -0.168239,-0.361835 -0.180757,-0.776077 -0.01252,-0.414242 0.0163,-1.103285 0.07466,-2.444154 0.144351,-3.316549 0.225466,-7.846334 0.239701,-11.711896 0.0071,-1.93278 -0.0015,-3.700983 -0.02948,-5.067099 -0.02799,-1.366116 -0.07794,-2.344777 -0.137533,-2.650453 -0.323063,-1.657107 -1.176403,-3.227618 -2.369489,-4.36568 -1.159152,-1.105695 -1.708953,-1.465461 -2.98053,-1.951001 -0.501558,-0.191516 -0.797509,-0.228304 -1.895988,-0.23184 z" id="path3776" />
      <path id="path3811" d="m 60.841797,41.21875 c -0.0138,0.0119 -0.03046,0.02561 -0.05469,0.05078 -0.01045,0.01085 -0.04848,0.06573 -0.0918,0.140625 -0.04332,0.0749 -0.09565,0.1729 -0.154296,0.289063 -0.117304,0.232326 -0.259573,0.533663 -0.404297,0.857422 -0.28945,0.647517 -0.592406,1.387186 -0.742188,1.841797 l -0.333984,1.013671 -0.521485,-1.083984 c -0.229462,-0.47681 -0.562596,-1.230374 -0.742187,-1.681641 -0.088,-0.221129 -0.175924,-0.416626 -0.246094,-0.550781 -0.01521,-0.02908 -0.02395,-0.0417 -0.03711,-0.06445 -8e-4,0.0025 -0.0011,0.0034 -0.002,0.0059 -0.02842,0.08886 -0.0611,0.214977 -0.09766,0.365235 -0.07313,0.300514 -0.156551,0.697406 -0.232421,1.095703 -0.07587,0.398296 -0.14451,0.798317 -0.1875,1.107422 -0.02149,0.154552 -0.03637,0.285579 -0.04297,0.380859 -0.0033,0.04764 -0.0048,0.08787 -0.0039,0.113281 9e-4,0.02541 0.0148,0.04199 -0.0039,0.01172 0.01468,0.02374 0.03115,0.05836 0.01758,0.107422 -0.01357,0.04907 -0.06313,0.07954 -0.09375,0.08594 -0.05583,0.0117 -0.09425,-0.0039 -0.140626,-0.02148 -0.0018,0.01733 -0.0021,0.03195 -0.002,0.0625 8.53e-4,0.17959 0.04308,0.574068 0.13086,1.326172 0.102208,0.875772 0.449575,1.967773 1.048828,3.279297 0.267646,0.585767 0.409915,0.884144 0.416015,1.128906 0.0031,0.122381 -0.03724,0.230773 -0.109374,0.320313 -0.07215,0.08954 -0.170396,0.166172 -0.294922,0.263671 -0.60553,0.474093 -1.266895,1.254833 -1.654297,1.953126 -0.179988,0.324426 -0.444533,0.977296 -0.660157,1.595703 -0.10781,0.309203 -0.204087,0.611164 -0.273437,0.859375 -0.06935,0.24821 -0.110128,0.450716 -0.111328,0.529296 l -0.0098,0.640626 -0.330078,-0.607422 c -0.07641,-0.140849 -0.152395,-0.211489 -0.197265,-0.230469 -0.04488,-0.01898 -0.06036,-0.0158 -0.105469,0.0332 -0.09022,0.098 -0.187435,0.417126 -0.177735,0.875 0.0065,0.305697 0.0847,0.693188 0.185547,0.996094 0.05042,0.151453 0.106773,0.28207 0.158203,0.36914 0.02572,0.04353 0.05088,0.07691 0.06836,0.09375 0.0175,0.01682 0.02341,0.01172 0.0098,0.01172 0.04087,0 0.06396,0.01809 0.08008,0.03125 0.01612,0.01315 0.02657,0.02498 0.03711,0.03906 0.02107,0.02815 0.03956,0.06274 0.05859,0.101562 0.03807,0.07764 0.07784,0.177282 0.111328,0.289063 0.051,0.170218 0.170508,0.361234 0.304687,0.501953 0.134179,0.140716 0.287752,0.222656 0.357422,0.222656 0.04584,0 0.07498,0.01217 0.115234,0.02734 0.04025,0.01518 0.08667,0.03559 0.136719,0.06055 0.100097,0.04991 0.218074,0.116796 0.332031,0.191406 l 0.5625,0.369141 -0.794921,0.316406 c -0.407206,0.161295 -0.614935,0.25655 -0.703125,0.34375 -0.0441,0.0436 -0.06415,0.08334 -0.07813,0.146484 -0.01398,0.06314 -0.01758,0.150202 -0.01758,0.269531 1e-6,0.451286 0.148171,0.979422 0.363282,1.404297 0.21511,0.424875 0.506917,0.736883 0.720703,0.789063 0.179968,0.04393 0.423996,0.178985 0.591797,0.318359 0.142228,0.118139 0.260657,0.182779 0.335937,0.199219 0.07528,0.01643 0.09444,0.0084 0.125,-0.04102 C 57.499145,64.29513 57.5589,64.27161 57.625,64.25 c 0.0661,-0.02161 0.14126,-0.0332 0.21875,-0.0332 0.09652,0 0.180397,0.01614 0.248047,0.06836 0.06765,0.05222 0.100922,0.136106 0.107422,0.222656 0.0081,0.108318 0.02009,0.249651 0.02539,0.3125 0.0041,0.04851 -0.01368,0.07032 -0.02734,0.0918 -0.01366,0.02148 -0.02988,0.04051 -0.04883,0.06055 -0.0379,0.04009 -0.08707,0.08398 -0.148438,0.132813 -0.12275,0.09766 -0.291452,0.213487 -0.476562,0.326172 -0.363676,0.221382 -1.029622,0.630659 -1.480469,0.908203 -0.581081,0.357716 -1.259898,0.731607 -1.871094,1.039062 -0.611196,0.307456 -1.150464,0.547162 -1.46875,0.638672 -0.04587,0.01318 -0.08965,0.03918 -0.117187,0.06445 -0.02755,0.02527 -0.03125,0.04767 -0.03125,0.04297 0,0.04261 -0.01271,0.102595 -0.06055,0.140625 -0.04784,0.038 -0.102374,0.0391 -0.152344,0.0332 -0.09994,-0.01174 -0.225348,-0.05931 -0.431641,-0.140625 -0.474787,-0.187146 -0.474145,-0.185618 -0.964844,-0.04297 -0.390197,0.11344 -0.629707,0.131688 -0.847656,0.04883 -0.168075,-0.0639 -0.450503,-0.09464 -0.734375,-0.08594 -0.283872,0.0087 -0.572752,0.0563 -0.755859,0.132813 -0.124594,0.05206 -0.223687,0.08485 -0.310547,0.09375 -0.04343,0.0044 -0.08407,0.0033 -0.125,-0.0098 -0.04093,-0.0131 -0.08186,-0.04188 -0.105469,-0.08008 0.0027,0.0043 -0.0026,-0.0046 -0.02344,-0.0078 -0.02089,-0.0032 -0.05248,-1.51e-4 -0.08008,0.01172 -0.106441,0.04576 -0.265464,0.08517 -0.388672,0.09766 -0.158717,0.01609 -0.363076,0.0791 -0.519531,0.152344 -0.07823,0.03661 -0.14545,0.0765 -0.1875,0.109375 -0.04205,0.03287 -0.04297,0.06431 -0.04297,0.0332 0,0.07747 -0.03128,0.132681 -0.07031,0.207031 -0.03903,0.07435 -0.09002,0.156209 -0.148437,0.230469 -0.134951,0.171557 -0.176133,0.345521 -0.175781,0.816406 2.2e-4,0.287466 0.0094,0.440417 0.04883,0.554688 0.03941,0.114271 0.11183,0.207199 0.269531,0.378906 0.09653,0.105106 0.18456,0.209619 0.25,0.292969 0.03272,0.04167 0.05957,0.07825 0.08008,0.109375 0.01025,0.01556 0.01984,0.02835 0.02734,0.04297 0.0034,0.0065 0.0066,0.01994 0.0098,0.02734 2e-4,2.6e-4 0.0034,0.0066 0.0098,0.01367 0.01279,0.0142 0.03564,0.03652 0.06445,0.0625 0.05762,0.05195 0.140648,0.120753 0.236328,0.195313 0.191354,0.149111 0.43301,0.321226 0.626953,0.443359 0.04619,0.02909 0.09274,0.06288 0.132813,0.09375 0.04008,0.03087 0.07107,0.05554 0.09766,0.08789 -0.01221,-0.01485 -0.0054,-0.0067 0.0039,0 0.0093,0.0067 0.02469,0.0177 0.04297,0.0293 0.03656,0.0232 0.08652,0.05403 0.148438,0.08984 0.123841,0.07162 0.289256,0.16293 0.464843,0.25586 0.138959,0.07355 0.339517,0.0642 0.482422,0.128906 -0.12478,-0.06051 -0.247159,-0.116287 -0.378906,-0.185547 -0.204574,-0.107542 -0.401247,-0.217604 -0.550781,-0.308594 -0.07477,-0.04549 -0.138797,-0.08645 -0.185547,-0.121093 -0.02337,-0.01732 -0.04129,-0.03353 -0.05859,-0.05078 -0.0087,-0.0086 -0.01679,-0.0163 -0.02539,-0.0293 -0.0044,-0.0065 -0.0096,-0.01498 -0.01367,-0.02539 -0.0019,-0.0047 -0.0045,-0.0095 -0.0059,-0.01563 0,0 0,-0.002 0,-0.002 -0.0075,-0.0037 -0.02137,-0.0078 -0.04102,-0.0078 -0.05492,0 -0.09077,-0.02007 -0.132813,-0.04297 -0.04204,-0.02289 -0.08652,-0.05247 -0.136719,-0.08984 -0.100396,-0.07475 -0.219623,-0.178166 -0.345703,-0.296875 -0.25216,-0.237419 -0.532239,-0.539448 -0.738281,-0.810547 -0.121507,-0.159871 -0.199608,-0.278892 -0.236328,-0.419922 -0.0367,-0.14103 -0.02954,-0.289947 -0.0078,-0.511719 0.05178,-0.528352 0.270337,-1.012865 0.59375,-1.222656 0.06633,-0.04302 0.147457,-0.06568 0.248047,-0.08594 0.100591,-0.02027 0.215375,-0.03306 0.324219,-0.03516 0.09104,-0.0018 0.160916,-0.0024 0.222656,0.0039 0.06174,0.0063 0.122872,0.02081 0.169922,0.06641 0.04706,0.0456 0.06457,0.106718 0.07227,0.167969 0.0077,0.06125 0.0078,0.130643 0.0078,0.220703 0,0.204696 0.08648,0.388317 0.273438,0.5625 0.186952,0.174182 0.476458,0.333358 0.863281,0.464843 0.187957,0.06389 0.338335,0.129259 0.451172,0.199219 0.112837,0.06996 0.195246,0.143234 0.222656,0.248047 0.0093,0.03549 0.01794,0.04899 0.02344,0.05469 0.0055,0.0057 0.01551,0.01418 0.05664,0.02148 0.08225,0.01468 0.263696,0.01052 0.587891,-0.01172 1.307352,-0.08969 1.779487,-0.204005 2.091797,-0.466797 0.194094,-0.163319 0.315233,-0.26244 0.460937,-0.27539 0.07285,-0.0065 0.145095,0.01883 0.203125,0.06055 0.05803,0.04172 0.107453,0.09806 0.164063,0.167969 0.07065,0.08726 0.100304,0.110441 0.146484,0.119141 0.04618,0.0087 0.139394,-0.0025 0.310547,-0.04687 0.228587,-0.05924 0.690305,-0.131676 1.048828,-0.166016 0.343795,-0.03293 1.012063,-0.147381 1.46875,-0.251953 0.46197,-0.105781 1.129017,-0.25824 1.482422,-0.33789 0.352158,-0.07938 1.034369,-0.238458 1.513672,-0.353516 0.241376,-0.05795 0.464752,-0.105679 0.632812,-0.136719 0.08403,-0.01552 0.153922,-0.027 0.207032,-0.0332 0.02655,-0.0032 0.04965,-0.0056 0.07031,-0.0059 0.01033,-1e-4 0.01825,5.3e-5 0.03125,0.002 0.0065,0.001 0.01528,0.0023 0.02539,0.0059 0.0051,0.0018 0.01704,0.0075 0.01758,0.0078 5.4e-4,3e-4 0.02309,0.01723 0.02344,0.01758 7e-4,7e-4 0.02505,0.04372 0.02539,0.04492 4e-4,0.0011 0.0059,0.0245 0.0059,0.0332 -1e-4,0.01749 -0.0031,0.02892 -0.0059,0.03906 -0.0056,0.02027 -0.01424,0.03762 -0.02344,0.05664 -0.01831,0.03805 -0.04447,0.08271 -0.07813,0.136719 -0.06731,0.108027 -0.162071,0.247305 -0.273437,0.396484 -0.384182,0.514627 -0.6395,0.886003 -0.777344,1.130859 -0.06892,0.122428 -0.109023,0.214748 -0.121093,0.267578 -0.006,0.02642 -0.0042,0.04147 -0.0039,0.04297 0.03801,0.02893 0.0636,0.06439 0.08203,0.105469 0.02091,0.04661 0.03734,0.100903 0.05078,0.164062 0.02688,0.126321 0.04393,0.288125 0.04883,0.478516 0.0076,0.295657 0.01815,0.444983 -0.03516,0.570313 -0.02665,0.06266 -0.07972,0.112301 -0.136719,0.138671 -0.057,0.02637 -0.115523,0.0404 -0.189453,0.05664 -0.156443,0.03436 -0.364582,0.101553 -0.425782,0.132813 -0.182484,0.09319 -0.444095,0.19273 -0.693359,0.28125 0.345048,-0.111351 0.654261,-0.148947 1.013672,-0.306641 0.100445,-0.04407 0.197227,-0.08386 0.273437,-0.113281 0.03811,-0.01471 0.07095,-0.02626 0.09766,-0.03516 0.01336,-0.0044 0.02586,-0.0087 0.03711,-0.01172 0.01126,-0.003 0.01769,-0.0059 0.04297,-0.0059 8.4e-4,0 0.02034,0.0021 0.02734,0.0039 0.007,0.0018 0.01298,0.002 0.01758,0.0039 0.0092,0.0038 0.01498,0.0078 0.02148,0.01172 0.01306,0.0077 0.02559,0.01725 0.03906,0.02734 0.02695,0.02018 0.05872,0.04577 0.0957,0.07813 0.07395,0.06473 0.167212,0.15354 0.263672,0.25 0.252329,0.252337 0.380789,0.316407 0.611328,0.316407 0.131703,0 0.232357,-0.01116 0.304687,-0.0332 0.07233,-0.02204 0.116637,-0.05051 0.154297,-0.101562 0.07531,-0.102093 0.119106,-0.322146 0.134766,-0.708984 l 0.03125,-0.777344 0.529297,-0.05859 c 0.16815,-0.01868 0.271687,-0.04267 0.310546,-0.0625 0.01938,-0.0099 0.02174,-0.0142 0.02148,-0.01367 -3e-4,5.3e-4 0.0011,-0.0029 -0.002,-0.02148 -0.01073,-0.06525 0.01377,-0.117629 0.04492,-0.167969 0.03115,-0.05034 0.07504,-0.10073 0.130859,-0.15625 0.09484,-0.09433 0.243917,-0.207801 0.410156,-0.328125 -0.112502,0.07763 -0.229113,0.172427 -0.314453,0.216797 -0.06475,0.03366 -0.10874,0.05766 -0.15625,0.07031 -0.01188,0.0032 -0.02333,0.0063 -0.04297,0.0059 -0.0098,-2e-4 -0.02232,-6.59e-4 -0.03711,-0.0059 -0.0074,-0.0026 -0.02285,-0.01134 -0.02344,-0.01172 -5.8e-4,-3.8e-4 -0.02301,-0.02098 -0.02344,-0.02148 -4.3e-4,-5e-4 -0.01731,-0.02671 -0.01758,-0.02734 -3e-4,-6.3e-4 -0.0047,-0.01709 -0.0059,-0.02539 -0.0025,-0.01658 -0.0021,-0.03074 0,-0.04102 0.0042,-0.02056 0.01138,-0.03168 0.01758,-0.04297 0.02482,-0.04515 0.05887,-0.08442 0.117187,-0.148438 0.05832,-0.06402 0.138618,-0.14767 0.242188,-0.253906 0.158032,-0.162099 0.295409,-0.284224 0.412109,-0.365234 0.05835,-0.0405 0.112072,-0.0706 0.164062,-0.08984 0.05199,-0.01923 0.107166,-0.03039 0.166016,-0.0078 0.04006,0.01538 0.08431,0.03812 0.109375,0.0918 0.02507,0.05368 0.01092,0.113117 -0.01172,0.154297 -0.03989,0.07257 -0.120606,0.145398 -0.226562,0.236328 l 0.40039,-0.28125 0.402344,0.236328 c 0.09766,0.05762 0.185383,0.116896 0.251953,0.166016 0.03328,0.02456 0.06153,0.04535 0.08398,0.06641 0.01123,0.01053 0.02116,0.02001 0.03125,0.0332 0.005,0.0066 0.01032,0.01454 0.01563,0.02539 0.0027,0.0054 0.0055,0.01143 0.0078,0.01953 0.0023,0.0081 0.0039,0.03037 0.0039,0.03125 -10e-7,4.3e-4 -7.54e-4,0.01588 -0.002,0.02148 -0.0012,0.0056 -0.0026,0.01007 -0.0039,0.01367 -0.0025,0.0073 -0.0056,0.01298 -0.0078,0.01758 -0.0045,0.0091 -0.0088,0.01564 -0.01367,0.02344 -0.0099,0.01564 -0.02187,0.03391 -0.03711,0.05469 -0.03049,0.04155 -0.07286,0.09544 -0.125,0.160156 -0.104273,0.129436 -0.247101,0.299456 -0.404296,0.480468 -0.833584,0.959884 -1.561158,2.106109 -2.181641,3.441407 -0.115919,0.24946 -0.306441,0.582202 -0.439453,0.759765 -0.117123,0.156351 -0.366021,0.550233 -0.541016,0.859375 -0.3317,0.585974 -0.854715,1.035636 -1.49414,1.285157 -0.09444,0.03685 -0.310379,0.09963 -0.601563,0.18164 -0.291184,0.08201 -0.652047,0.179055 -1.011719,0.271485 -0.813255,0.208989 -1.299629,0.359058 -1.566406,0.501953 -0.133388,0.07145 -0.210226,0.139291 -0.253906,0.207031 -0.04368,0.06774 -0.05859,0.140569 -0.05859,0.242187 0,0.140135 0.01056,0.19908 0.05469,0.25586 0.04413,0.05677 0.142629,0.124296 0.335937,0.228516 0.206367,0.111256 0.315429,0.160307 0.476563,0.179687 0.161132,0.01938 0.384904,0.0058 0.800781,-0.03125 0.497755,-0.04436 1.652464,-0.08284 2.580078,-0.08594 l 1.652344,-0.0039 0.664062,-0.439453 c 0.651561,-0.429692 1.237568,-0.892588 2.902344,-2.294922 0.411733,-0.346825 1.101662,-0.887607 1.726562,-1.363281 0.312451,-0.237837 0.608794,-0.458851 0.845703,-0.630859 0.236911,-0.172009 0.405624,-0.291424 0.496094,-0.339844 0.03499,-0.01872 0.143864,-0.0948 0.269532,-0.191406 0.125666,-0.09662 0.275747,-0.216207 0.416015,-0.335938 0.148533,-0.126784 0.295362,-0.233141 0.419922,-0.30664 0.06228,-0.03674 0.118422,-0.06516 0.169922,-0.08398 0.0515,-0.01877 0.09612,-0.03974 0.164062,-0.01367 -0.01122,-0.0043 0.02208,-4.67e-4 0.07031,-0.0293 0.04823,-0.02883 0.107833,-0.07854 0.158203,-0.142578 0.06329,-0.08047 0.141193,-0.152128 0.220703,-0.205078 0.07951,-0.05296 0.157184,-0.0918 0.246094,-0.0918 0.03557,0 0.0767,-0.0099 0.109375,-0.02344 0.03267,-0.01353 0.05393,-0.0351 0.05273,-0.0332 0.02117,-0.03425 0.04321,-0.05223 0.07422,-0.08008 0.03101,-0.02785 0.06945,-0.0602 0.113281,-0.09375 0.08766,-0.06709 0.198858,-0.143103 0.3125,-0.214843 0.21022,-0.132705 0.609924,-0.450891 0.869141,-0.69336 l 0.550781,-0.515625 0.681641,0.65625 c 0.333042,0.32028 0.812369,0.722584 1.044922,0.88086 0.346702,0.235964 0.920075,0.534884 1.46875,0.78125 0.548674,0.246366 1.084789,0.440786 1.318359,0.472656 0.124922,0.01704 0.301865,0.05528 0.412109,0.08984 0.638522,0.200151 1.361551,0.225661 4.503907,0.144531 0.727086,-0.01872 1.101632,-0.02627 1.353515,0.002 0.251883,0.02822 0.381378,0.103177 0.564453,0.22461 0.130373,0.08648 0.291861,0.250749 0.478516,0.472656 0.186655,0.221906 0.394306,0.500127 0.597656,0.800781 0.750238,1.109224 1.141621,1.483004 2.285157,2.189453 0.510943,0.315625 0.853661,0.463861 1.052734,0.464844 0.09954,4.9e-4 0.161093,-0.02696 0.220703,-0.08789 0.05961,-0.06093 0.114296,-0.163119 0.160156,-0.3125 0.07746,-0.252341 0.04531,-0.518857 -0.162109,-0.921875 C 87.99375,77.007138 87.60891,76.479719 87,75.742188 c -1.369239,-1.65847 -1.745347,-2.581059 -1.748047,-4.28125 -6.4e-4,-0.400004 -0.0083,-0.632742 -0.03711,-0.78125 -0.0288,-0.14851 -0.07134,-0.214146 -0.166016,-0.324219 -0.157279,-0.182849 -0.372839,-0.282645 -0.664062,-0.296875 -0.291224,-0.01423 -0.65679,0.06123 -1.082032,0.232422 l -0.714843,0.289062 -0.97461,-0.171875 c -0.528315,-0.09361 -1.182722,-0.276399 -1.490234,-0.421875 -0.300143,-0.14199 -0.675277,-0.428555 -1.003906,-0.732422 -0.328629,-0.303866 -0.606119,-0.610297 -0.699219,-0.849609 -0.03173,-0.08157 -0.08703,-0.284238 -0.164063,-0.566406 -0.07703,-0.282169 -0.171518,-0.635068 -0.261718,-0.984375 -0.0902,-0.349308 -0.177508,-0.69434 -0.242188,-0.960938 -0.03234,-0.133299 -0.0593,-0.246931 -0.07813,-0.332031 -0.0094,-0.04255 -0.01618,-0.07756 -0.02148,-0.105469 -0.0053,-0.02791 -0.0098,-0.04053 -0.0098,-0.07031 0,-0.04392 0.02113,-0.06829 0.03516,-0.08398 0.01404,-0.0157 0.02637,-0.02516 0.04102,-0.03516 0.0293,-0.01995 0.06485,-0.0386 0.105469,-0.05664 0.08124,-0.03608 0.187383,-0.07193 0.304687,-0.103515 0.219328,-0.05906 0.595889,-0.311925 0.871094,-0.5625 0.137603,-0.125288 0.252053,-0.25051 0.314453,-0.34375 0.03048,-0.04555 0.0452,-0.08364 0.04883,-0.09961 -0.05613,-0.04222 -0.106173,-0.101116 -0.109375,-0.175781 -0.0035,-0.08335 0.03174,-0.153997 0.08203,-0.248047 -0.01208,0.0029 -0.02411,0.0084 -0.03711,0.0098 -0.01918,0.002 -0.04093,0.0021 -0.06641,-0.0059 -0.02548,-0.008 -0.05232,-0.02642 -0.06836,-0.05078 -0.03208,-0.04873 -0.02678,-0.09147 -0.02148,-0.128906 0.0053,-0.03744 0.01667,-0.07675 0.03125,-0.125 0.15806,-0.52289 0.15809,-0.990796 0.0098,-1.394531 -0.09055,-0.246479 -0.206636,-0.585203 -0.259766,-0.759766 -0.03382,-0.111113 -0.0718,-0.177464 -0.15039,-0.246094 -0.07859,-0.06863 -0.203436,-0.137469 -0.404297,-0.224609 -0.654908,-0.28413 -1.25646,-0.334847 -1.753907,-0.162109 -0.119954,0.04166 -0.228793,0.06904 -0.314453,0.08203 -0.04282,0.0065 -0.07753,0.01016 -0.115234,0.0059 -0.01886,-0.0021 -0.04054,-0.004 -0.06641,-0.01953 -0.0087,-0.0052 -0.01103,-0.02289 -0.01953,-0.0332 -0.0026,0 -0.0024,5.53e-4 -0.01563,0.002 -0.0395,0.0042 -0.10857,0.02193 -0.18164,0.04883 -0.146132,0.05381 -0.316889,0.154692 -0.355469,0.201172 -0.04249,0.0512 -0.09677,0.08865 -0.154297,0.111328 -0.05753,0.02266 -0.12164,0.03308 -0.1875,0.0078 0.0012,4.6e-4 -0.0019,-0.0028 -0.03125,0.01953 -0.02933,0.02237 -0.07068,0.06857 -0.109375,0.132812 -0.07738,0.128479 -0.148147,0.323166 -0.179687,0.527344 L 74.8125,62.144531 73.443359,61.730469 C 72.746611,61.52051 71.804907,61.181471 71.333984,60.96875 70.709932,60.686858 70.026611,60.330226 69.476562,60.011719 69.20154,59.852465 68.960999,59.703751 68.775391,59.576172 c -0.185608,-0.127579 -0.311604,-0.21994 -0.376953,-0.31836 -0.06917,-0.104179 -0.118282,-0.180166 -0.113282,-0.279296 0.005,-0.09913 0.06332,-0.16828 0.142578,-0.25586 0.07583,-0.08378 0.102098,-0.161695 0.08594,-0.28125 -0.01616,-0.119555 -0.08406,-0.279592 -0.214844,-0.486328 -0.05692,-0.08997 -0.09495,-0.159065 -0.105469,-0.234375 -0.0053,-0.03765 -0.0016,-0.08259 0.02148,-0.121094 0.02309,-0.0385 0.06222,-0.06241 0.09766,-0.07422 0.0292,-0.0097 0.0288,-0.01073 0.0332,-0.02344 0.0044,-0.01271 0.0066,-0.05214 -0.01172,-0.119141 -0.03665,-0.134007 -0.149286,-0.365423 -0.347656,-0.705078 -0.159913,-0.273808 -0.2779,-0.476462 -0.375,-0.611328 -0.0971,-0.134861 -0.168685,-0.192601 -0.228516,-0.207031 -0.05983,-0.01443 -0.140696,0.0042 -0.27539,0.08203 -0.134694,0.07786 -0.312522,0.209839 -0.554688,0.386719 l -0.904296,0.660156 -0.351563,-0.414062 c -0.212544,-0.250192 -0.540929,-0.72499 -0.816406,-1.15625 -0.137739,-0.215631 -0.26129,-0.419615 -0.34961,-0.578125 -0.04416,-0.07925 -0.07906,-0.146562 -0.103515,-0.201172 -0.01223,-0.02731 -0.0223,-0.05085 -0.0293,-0.07422 -0.007,-0.02336 -0.01961,-0.04225 -0.002,-0.0957 -0.01257,0.03804 -0.0047,0.0012 -0.02539,-0.03906 -0.02065,-0.04027 -0.05481,-0.09153 -0.0957,-0.136719 -0.06884,-0.07606 -0.117843,-0.139163 -0.132812,-0.220703 -0.01497,-0.08154 0.02499,-0.16366 0.08008,-0.21875 0.02293,-0.0229 0.02575,-0.0146 0.0098,-0.06445 -0.01598,-0.04985 -0.07036,-0.141098 -0.167969,-0.271484 -0.191721,-0.256099 -0.573523,-0.708258 -0.9375,-1.11914 -0.363976,-0.410883 -0.723661,-0.790487 -0.832031,-0.878907 -0.107039,-0.08734 -0.186644,-0.177888 -0.214843,-0.310547 -0.02817,-0.132658 -0.01651,-0.291925 0.0098,-0.568359 0.09371,-0.986211 0.248981,-2.222146 0.412109,-3.28125 0.0939,-0.609652 0.115892,-1.335042 0.08203,-1.882813 -0.01693,-0.273884 -0.04853,-0.504729 -0.08789,-0.646484 -0.01908,-0.06872 -0.04028,-0.114936 -0.05078,-0.128906 -0.02321,0.0047 -0.04622,0.01391 -0.06445,0.0078 -0.02871,-0.0096 -0.04603,-0.0247 -0.06055,-0.03906 -0.02904,-0.02873 -0.04836,-0.06069 -0.06836,-0.09961 -0.03999,-0.07784 -0.07858,-0.182712 -0.109374,-0.304687 -0.05709,-0.226054 -0.208282,-0.729368 -0.333985,-1.107422 -0.127934,-0.384766 -0.282806,-0.939393 -0.347656,-1.246094 -0.03098,-0.146528 -0.06876,-0.295733 -0.105469,-0.417968 -0.0367,-0.122235 -0.08014,-0.224735 -0.08984,-0.240235 -0.01189,-0.01899 -0.01584,-0.02499 -0.02344,-0.03516 z m -6.169922,15.486328 c 0.05557,0.0072 0.09032,0.03784 0.121094,0.06836 0.06153,0.06103 0.11097,0.146044 0.15625,0.246093 0.09055,0.200099 0.163824,0.443127 0.115234,0.636719 -0.0096,0.03835 -0.01441,0.137946 -0.0078,0.248047 0.0066,0.110101 0.02257,0.235562 0.04687,0.34375 0.02679,0.119284 0.04358,0.22759 0.04687,0.3125 0.0016,0.04245 -1.13e-4,0.07725 -0.0078,0.113281 -0.0038,0.01802 -0.0079,0.03761 -0.02344,0.06055 -0.01557,0.02294 -0.05374,0.05078 -0.0957,0.05078 -0.08756,0 -0.133635,-0.0566 -0.171876,-0.111328 -0.03824,-0.05473 -0.07254,-0.123998 -0.105468,-0.205078 -0.06586,-0.162165 -0.126452,-0.371966 -0.175782,-0.591797 -0.04933,-0.219831 -0.08544,-0.448051 -0.09961,-0.640625 -0.0071,-0.09629 -0.01031,-0.183855 -0.0039,-0.259766 0.0064,-0.07591 0.01778,-0.140518 0.05664,-0.199218 0.02865,-0.04328 0.09286,-0.07947 0.148437,-0.07227 z M 76.0625,60.556641 c 0,0.01318 0.0062,0.03377 0.01758,0.04687 0.0066,0.0076 0.01042,0.0089 0.01563,0.01172 -0.01412,-0.01948 -0.0332,-0.03478 -0.0332,-0.05859 z M 57.40625,72.980469 c -0.06358,0.01364 -0.133841,0.03125 -0.181641,0.03125 -0.111059,0 -0.297384,0.04377 -0.365234,0.08008 -0.08311,0.04448 -0.200359,0.06718 -0.367187,0.0957 -0.16683,0.02852 -0.371117,0.05324 -0.574219,0.07031 -0.198459,0.01668 -0.389801,0.03801 -0.535157,0.05859 -0.07268,0.01029 -0.133404,0.0203 -0.177734,0.0293 -0.02216,0.0045 -0.0391,0.0084 -0.05078,0.01172 -0.0117,0.0033 -0.02034,0.0097 -0.0078,0.002 -0.03492,0.02154 -0.05503,0.02174 -0.08398,0.02734 -0.02895,0.0056 -0.06332,0.01122 -0.103516,0.01563 -0.0804,0.0087 -0.184048,0.01538 -0.30664,0.02148 -0.245185,0.01228 -0.562115,0.01918 -0.890625,0.02148 -0.65702,0.0045 -1.347689,-0.0086 -1.621094,-0.05273 -0.01678,-0.0027 -0.03866,-0.0032 -0.05664,-0.0059 0.143455,0.01628 0.22698,0.08963 0.376954,0.101562 1.201308,0.09552 2.598523,0.05312 3.128906,-0.08203 0.252377,-0.06431 0.729732,-0.154655 1.074218,-0.203125 0.222598,-0.03132 0.501171,-0.163536 0.742188,-0.222656 z" style="fill:#000000;stroke-width:0.0987877" />
      <path style="display:inline;fill:#ffffff;stroke-width:0.06918869" d="m 28.300424,65.369168 c -0.25502,-0.178625 -0.294068,-0.522872 -0.294068,-2.592538 0,-2.034661 0.03684,-2.378151 0.2785,-2.596852 0.136064,-0.123144 0.164538,-0.121949 0.98555,0.04152 0.729983,0.145342 1.039124,0.168323 2.263803,0.168323 1.229227,0 1.532491,-0.02271 2.274182,-0.170344 l 0.855811,-0.170344 0.164722,0.1915 0.16472,0.191499 v 2.351701 2.351703 l -0.169828,0.169826 -0.169826,0.169828 h -3.101241 c -2.671249,0 -3.12219,-0.0146 -3.252325,-0.105828 z m 3.904546,-1.215313 c 0.05485,-0.05485 0.02824,-0.254999 -0.09651,-0.725985 l -0.172252,-0.650247 0.17954,-0.21337 c 0.4823,-0.573183 -0.108925,-1.407292 -0.829052,-1.169629 -0.489626,0.16159 -0.665126,0.776131 -0.334021,1.169629 l 0.17954,0.21337 -0.172252,0.650247 c -0.124767,0.470986 -0.151372,0.671127 -0.09651,0.725985 0.04311,0.04311 0.332028,0.07574 0.670761,0.07574 0.338734,0 0.627646,-0.03263 0.670761,-0.07574 z m -2.734249,-4.43584 -0.368364,-0.06707 0.02242,-0.945252 c 0.02027,-0.854651 0.04021,-0.983187 0.207923,-1.341035 0.229154,-0.488919 0.69657,-0.952899 1.217812,-1.208861 0.353457,-0.17357 0.469288,-0.194259 1.08748,-0.194248 0.615185,1.2e-5 0.73493,0.02117 1.080158,0.19077 0.464961,0.228432 1.048435,0.82232 1.25699,1.279423 0.123468,0.270622 0.154513,0.489182 0.175688,1.23697 l 0.02572,0.908269 -0.369825,0.08164 c -0.767501,0.169415 -0.681174,0.239325 -0.681174,-0.55163 0,-0.963366 -0.08907,-1.269237 -0.484915,-1.665074 -0.250565,-0.250566 -0.400478,-0.339116 -0.673087,-0.397582 -0.697077,-0.149495 -1.380595,0.196989 -1.685663,0.854492 -0.101728,0.219258 -0.128719,0.445647 -0.129929,1.089722 -0.0018,0.925676 0.05614,0.863707 -0.681233,0.729466 z" id="path2514-7" />
      <path id="path3848" d="m 60.050424,67.244168 c -0.25502,-0.178625 -0.294068,-0.522872 -0.294068,-2.592538 0,-2.034661 0.03684,-2.378151 0.2785,-2.596852 0.136064,-0.123144 0.164538,-0.121949 0.98555,0.04152 0.729983,0.145342 1.039124,0.168323 2.263803,0.168323 1.229227,0 1.532491,-0.02271 2.274182,-0.170344 l 0.855811,-0.170344 0.164722,0.1915 0.16472,0.191499 v 2.351701 2.351703 l -0.169828,0.169826 -0.169826,0.169828 h -3.101241 c -2.671249,0 -3.12219,-0.0146 -3.252325,-0.105828 z m 3.904546,-1.215313 c 0.05485,-0.05485 0.02824,-0.254999 -0.09651,-0.725985 l -0.172252,-0.650247 0.17954,-0.21337 c 0.4823,-0.573183 -0.108925,-1.407292 -0.829052,-1.169629 -0.489626,0.16159 -0.665126,0.776131 -0.334021,1.169629 l 0.17954,0.21337 -0.172252,0.650247 c -0.124767,0.470986 -0.151372,0.671127 -0.09651,0.725985 0.04311,0.04311 0.332028,0.07574 0.670761,0.07574 0.338734,0 0.627646,-0.03263 0.670761,-0.07574 z m -2.734249,-4.43584 -0.368364,-0.06707 0.02242,-0.945252 c 0.02027,-0.854651 0.04021,-0.983187 0.207923,-1.341035 0.229154,-0.488919 0.69657,-0.952899 1.217812,-1.208861 0.353457,-0.17357 0.469288,-0.194259 1.08748,-0.194248 0.615185,1.2e-5 0.73493,0.02117 1.080158,0.19077 0.464961,0.228432 1.048435,0.82232 1.25699,1.279423 0.123468,0.270622 0.154513,0.489182 0.175688,1.23697 l 0.02572,0.908269 -0.369825,0.08164 c -0.767501,0.169415 -0.681174,0.239325 -0.681174,-0.55163 0,-0.963366 -0.08907,-1.269237 -0.484915,-1.665074 -0.250565,-0.250566 -0.400478,-0.339116 -0.673087,-0.397582 -0.697077,-0.149495 -1.380595,0.196989 -1.685663,0.854492 -0.101728,0.219258 -0.128719,0.445647 -0.129929,1.089722 -0.0018,0.925676 0.05614,0.863707 -0.681234,0.729466 z" style="display:inline;fill:#ffffff;stroke-width:0.06918869" />
   </g>
   <g id="badge-alice" transform="matrix(0.52799937,0,0,0.52799937,26.925253,62.619638)">
      <image width="100" height="100" preserveAspectRatio="none" xlink:href="~/badges/alice.png" id="image2273" x="-50" y="-50" />
   </g>
   <g id="badge-bianconiglio" transform="matrix(0.49393845,0,0,0.49393845,66.876786,62.242417)">
      <image width="100" height="100" preserveAspectRatio="none" xlink:href="~/badges/bianconiglio.png" id="image2284" x="-50" y="-50" />
   </g>
   <g class="badge-trigger" id="starme">
      <path style="opacity:1;vector-effect:none;fill:#ffff00;fill-opacity:0.73333333;stroke:#ffcc00;stroke-width:1;stroke-linecap:round;stroke-linejoin:miter;stroke-miterlimit:4;stroke-dasharray:none;stroke-dashoffset:0;stroke-opacity:1;paint-order:markers fill stroke" id="path2276" d="m 48,103.70133 c 0.160294,0 3.892576,4.66829 4.022256,4.76251 0.129681,0.0942 5.722823,2.20125 5.772357,2.3537 0.04953,0.15245 -3.236932,5.14464 -3.286465,5.29709 -0.04953,0.15244 -0.325064,6.12295 -0.454745,6.21717 -0.12968,0.0942 -5.893109,-1.48873 -6.053403,-1.48873 -0.160294,0 -5.923723,1.58294 -6.053404,1.48872 -0.12968,-0.0942 -0.40521,-6.06472 -0.454744,-6.21716 -0.04953,-0.15245 -3.335998,-5.14464 -3.286464,-5.29709 0.04953,-0.15245 5.642675,-2.25948 5.772355,-2.3537 0.129681,-0.0942 3.861963,-4.76251 4.022257,-4.76251 z" />
      <path d="m 114.5,40.451335 c 0.16029,0 3.89258,4.668285 4.02226,4.762504 0.12968,0.09422 5.72282,2.20125 5.77235,2.353699 0.0495,0.152449 -3.23693,5.144639 -3.28646,5.297087 -0.0495,0.152449 -0.32507,6.122952 -0.45475,6.21717 -0.12968,0.09422 -5.89311,-1.488724 -6.0534,-1.488724 -0.16029,0 -5.92372,1.582942 -6.0534,1.488724 -0.12968,-0.09422 -0.40521,-6.064721 -0.45475,-6.21717 -0.0495,-0.152448 -3.336,-5.144639 -3.28646,-5.297088 0.0495,-0.152449 5.64267,-2.25948 5.77235,-2.353698 0.12968,-0.09422 3.86197,-4.762504 4.02226,-4.762504 z" id="path2278" style="opacity:1;vector-effect:none;fill:#ffff00;fill-opacity:0.73333333;stroke:#ffcc00;stroke-width:1;stroke-linecap:round;stroke-linejoin:miter;stroke-miterlimit:4;stroke-dasharray:none;stroke-dashoffset:0;stroke-opacity:1;paint-order:markers fill stroke" />
   </g>

</svg>
