<?xml version="1.0" encoding="UTF-8" standalone="no"?>
<svg xmlns="http://www.w3.org/2000/svg"
   xmlns:xlink="http://www.w3.org/1999/xlink" viewBox="0 0 100 100" height="25" width="25">

   <g class="item background" id="bosco">
      <image width="100" height="74.125008" preserveAspectRatio="none" xlink:href="~/badges/copertina.jpg" id="image2295" x="0" y="11.575891" />
      <path style="fill:#000000;stroke-width:0.10559987" d="m 29.986874,42.502022 c -1.112944,-0.0035 -1.41358,0.03154 -2.061026,0.243628 -0.418377,0.137053 -0.923073,0.358815 -1.07865,0.463683 -0.128267,0.08646 -0.375421,0.329663 -0.622826,0.611038 -0.247407,0.281375 -0.502067,0.605068 -0.666052,0.858597 -0.529766,0.819041 -0.989365,1.567118 -1.324244,2.151405 -0.512456,0.894116 -0.837149,1.433859 -1.07865,1.758455 -0.12075,0.162297 -0.220182,0.27105 -0.31829,0.343832 -0.09811,0.07278 -0.199687,0.106636 -0.296678,0.108061 -0.15363,0.0022 -0.228493,0.06216 -0.233805,0.06877 0.0094,0.01083 0.04026,0.03537 0.102167,0.05502 0.05452,0.0173 0.108724,0.02991 0.155216,0.08252 0.02325,0.02631 0.03855,0.064 0.04126,0.100203 0.0027,0.03619 -0.0043,0.06967 -0.01572,0.102168 -0.04543,0.129969 -0.162524,0.289315 -0.385091,0.601214 -0.775216,1.08637 -0.838399,2.117676 -0.206299,3.516909 0.538425,1.191871 1.894196,2.243313 3.163253,2.453977 l 0.465647,0.07662 0.0727,2.375387 c 0.03803,1.261116 0.115076,3.433584 0.172898,4.825434 0.05788,1.393316 0.109777,3.064231 0.113957,3.719279 0.0036,0.573319 0.0045,0.877178 -0.04126,1.121874 -0.04578,0.244696 -0.139354,0.416636 -0.304537,0.705347 -0.175552,0.306831 -0.332019,0.521286 -0.626756,0.758394 -0.294739,0.237108 -0.725054,0.501572 -1.469637,0.937188 -0.357525,0.209169 -1.234364,0.64781 -1.962788,0.984341 -0.724674,0.3348 -1.472059,0.701443 -1.626816,0.793761 -0.196215,0.117048 -0.618296,0.27735 -0.974518,0.377233 -0.346035,0.09702 -1.155203,0.337972 -1.793819,0.534413 -0.641835,0.197429 -1.398313,0.403423 -1.701478,0.461716 -0.287185,0.05523 -0.815434,0.169733 -1.170992,0.253453 l -0.84288,0.198441 0.231841,-0.55406 c 0.04629,-0.110809 0.06977,-0.204584 0.07662,-0.273102 0.0068,-0.06852 -0.0066,-0.108618 -0.01179,-0.11592 -0.0051,-0.0073 0.0078,-0.0067 -0.02161,0 -0.02942,0.0067 -0.09017,0.03619 -0.163075,0.102167 -0.05221,0.04725 -0.0906,0.0848 -0.125744,0.111991 -0.03514,0.02719 -0.05958,0.06127 -0.137532,0.05108 -0.03898,-0.0051 -0.07809,-0.03694 -0.09235,-0.06287 -0.0094,-0.01697 -0.009,-0.02962 -0.01179,-0.04323 4.81e-4,0.0051 -5.04e-4,0.0046 0,0.0099 l 0.07662,0.801619 -0.465647,-0.410634 c -0.151555,-0.134056 -0.414812,-0.373901 -0.587461,-0.534413 -0.154346,-0.143496 -0.263699,-0.2154 -0.314361,-0.237735 7.61e-4,-0.0021 0.0096,0.04126 0.02554,0.102167 0.01697,0.06451 0.04003,0.15028 0.07073,0.249524 0.0614,0.198488 0.14581,0.453616 0.235771,0.713205 0.17992,0.519178 0.389544,1.071772 0.47154,1.231901 l 0.12378,0.243629 0.742677,-0.06287 c 0.445303,-0.03739 1.355576,-0.110676 2.023696,-0.163074 0.66311,-0.05201 1.850127,-0.192345 2.630805,-0.312396 0.392966,-0.06043 0.787215,-0.117523 1.104192,-0.15718 0.316976,-0.03967 0.547616,-0.06333 0.654262,-0.06287 0.607983,0.0024 1.205031,0.446073 1.567874,1.131698 0.638456,1.206429 1.720081,1.96351 2.98839,2.092462 0.356401,0.03623 0.818205,0.137359 1.060966,0.2397 l 0.552104,0.233773 -0.624792,0.534413 c -0.50532,0.434136 -2.812724,2.086649 -3.601393,2.581686 -0.08332,0.0523 -0.147658,0.09264 -0.200405,0.121815 -0.05274,0.02917 -0.08801,0.04844 -0.137533,0.05698 -0.02476,0.0042 -0.06407,0.0055 -0.102167,-0.02358 -0.0381,-0.02914 -0.04561,-0.07395 -0.04519,-0.100203 8.45e-4,-0.0525 0.01526,-0.08394 0.0334,-0.127709 0.102717,-0.247901 0.173943,-0.490574 0.204335,-0.679806 0.0152,-0.09462 0.01987,-0.17615 0.01572,-0.233804 -0.0041,-0.05699 -0.02159,-0.08421 -0.01965,-0.08252 -0.0082,0.0094 -0.03709,0.03778 -0.0727,0.115921 -0.07757,0.170242 -0.180519,0.286081 -0.314361,0.312396 -0.06692,0.01316 -0.147111,-0.0113 -0.192545,-0.06877 -0.02423,-0.03064 -0.02295,-0.07714 -0.03144,-0.11592 -0.009,0.08003 -0.01671,0.164755 -0.01375,0.269171 l 0.02161,0.766254 -1.009883,-1.002024 c -0.226494,-0.225166 -0.439191,-0.422355 -0.599249,-0.556026 -0.04721,-0.03942 -0.07769,-0.05916 -0.113956,-0.08645 0.0054,0.02439 0.0063,0.04017 0.01375,0.06877 0.03829,0.147122 0.103994,0.343994 0.182722,0.552096 0.159803,0.422403 0.376902,1.005485 0.48333,1.296738 0.104234,0.285249 0.33584,0.844414 0.510835,1.233865 0.183305,0.40794 0.34047,0.611082 0.453858,0.652298 0.0567,0.02061 0.108925,0.01674 0.190582,-0.02554 0.08165,-0.04227 0.183342,-0.125075 0.302572,-0.249523 0.176025,-0.183732 0.427458,-0.357669 0.622826,-0.406704 0.02411,-0.006 0.105127,-0.03388 0.212194,-0.07662 0.107066,-0.04275 0.246053,-0.10252 0.40474,-0.170934 0.317371,-0.136829 0.716121,-0.316227 1.121873,-0.504942 0.814997,-0.379053 1.988222,-0.893543 2.613122,-1.147416 0.61941,-0.251643 1.555576,-0.657573 2.072815,-0.897892 l 0.976483,-0.451894 0.776078,0.174863 c 1.189705,0.270593 2.012086,0.225385 2.795843,-0.145391 1.589482,-0.751944 3.656759,-3.010483 4.300846,-4.705585 0.103191,-0.271576 0.244317,-0.858991 0.306502,-1.27709 0.122983,-0.82688 -0.0017,-1.494741 -0.447964,-2.369493 -0.106197,-0.208164 -0.168239,-0.361835 -0.180757,-0.776077 -0.01252,-0.414242 0.0163,-1.103285 0.07466,-2.444154 0.144351,-3.316549 0.225466,-7.846334 0.239701,-11.711896 0.0071,-1.93278 -0.0015,-3.700983 -0.02948,-5.067099 -0.02799,-1.366116 -0.07794,-2.344777 -0.137533,-2.650453 -0.323063,-1.657107 -1.176403,-3.227618 -2.369489,-4.36568 -1.159152,-1.105695 -1.708953,-1.465461 -2.98053,-1.951001 -0.501558,-0.191516 -0.797509,-0.228304 -1.895988,-0.23184 z" id="path3776" />
      <path id="path3811" d="m 60.841797,41.21875 c -0.0138,0.0119 -0.03046,0.02561 -0.05469,0.05078 -0.01045,0.01085 -0.04848,0.06573 -0.0918,0.140625 -0.04332,0.0749 -0.09565,0.1729 -0.154296,0.289063 -0.117304,0.232326 -0.259573,0.533663 -0.404297,0.857422 -0.28945,0.647517 -0.592406,1.387186 -0.742188,1.841797 l -0.333984,1.013671 -0.521485,-1.083984 c -0.229462,-0.47681 -0.562596,-1.230374 -0.742187,-1.681641 -0.088,-0.221129 -0.175924,-0.416626 -0.246094,-0.550781 -0.01521,-0.02908 -0.02395,-0.0417 -0.03711,-0.06445 -8e-4,0.0025 -0.0011,0.0034 -0.002,0.0059 -0.02842,0.08886 -0.0611,0.214977 -0.09766,0.365235 -0.07313,0.300514 -0.156551,0.697406 -0.232421,1.095703 -0.07587,0.398296 -0.14451,0.798317 -0.1875,1.107422 -0.02149,0.154552 -0.03637,0.285579 -0.04297,0.380859 -0.0033,0.04764 -0.0048,0.08787 -0.0039,0.113281 9e-4,0.02541 0.0148,0.04199 -0.0039,0.01172 0.01468,0.02374 0.03115,0.05836 0.01758,0.107422 -0.01357,0.04907 -0.06313,0.07954 -0.09375,0.08594 -0.05583,0.0117 -0.09425,-0.0039 -0.140626,-0.02148 -0.0018,0.01733 -0.0021,0.03195 -0.002,0.0625 8.53e-4,0.17959 0.04308,0.574068 0.13086,1.326172 0.102208,0.875772 0.449575,1.967773 1.048828,3.279297 0.267646,0.585767 0.409915,0.884144 0.416015,1.128906 0.0031,0.122381 -0.03724,0.230773 -0.109374,0.320313 -0.07215,0.08954 -0.170396,0.166172 -0.294922,0.263671 -0.60553,0.474093 -1.266895,1.254833 -1.654297,1.953126 -0.179988,0.324426 -0.444533,0.977296 -0.660157,1.595703 -0.10781,0.309203 -0.204087,0.611164 -0.273437,0.859375 -0.06935,0.24821 -0.110128,0.450716 -0.111328,0.529296 l -0.0098,0.640626 -0.330078,-0.607422 c -0.07641,-0.140849 -0.152395,-0.211489 -0.197265,-0.230469 -0.04488,-0.01898 -0.06036,-0.0158 -0.105469,0.0332 -0.09022,0.098 -0.187435,0.417126 -0.177735,0.875 0.0065,0.305697 0.0847,0.693188 0.185547,0.996094 0.05042,0.151453 0.106773,0.28207 0.158203,0.36914 0.02572,0.04353 0.05088,0.07691 0.06836,0.09375 0.0175,0.01682 0.02341,0.01172 0.0098,0.01172 0.04087,0 0.06396,0.01809 0.08008,0.03125 0.01612,0.01315 0.02657,0.02498 0.03711,0.03906 0.02107,0.02815 0.03956,0.06274 0.05859,0.101562 0.03807,0.07764 0.07784,0.177282 0.111328,0.289063 0.051,0.170218 0.170508,0.361234 0.304687,0.501953 0.134179,0.140716 0.287752,0.222656 0.357422,0.222656 0.04584,0 0.07498,0.01217 0.115234,0.02734 0.04025,0.01518 0.08667,0.03559 0.136719,0.06055 0.100097,0.04991 0.218074,0.116796 0.332031,0.191406 l 0.5625,0.369141 -0.794921,0.316406 c -0.407206,0.161295 -0.614935,0.25655 -0.703125,0.34375 -0.0441,0.0436 -0.06415,0.08334 -0.07813,0.146484 -0.01398,0.06314 -0.01758,0.150202 -0.01758,0.269531 1e-6,0.451286 0.148171,0.979422 0.363282,1.404297 0.21511,0.424875 0.506917,0.736883 0.720703,0.789063 0.179968,0.04393 0.423996,0.178985 0.591797,0.318359 0.142228,0.118139 0.260657,0.182779 0.335937,0.199219 0.07528,0.01643 0.09444,0.0084 0.125,-0.04102 C 57.499145,64.29513 57.5589,64.27161 57.625,64.25 c 0.0661,-0.02161 0.14126,-0.0332 0.21875,-0.0332 0.09652,0 0.180397,0.01614 0.248047,0.06836 0.06765,0.05222 0.100922,0.136106 0.107422,0.222656 0.0081,0.108318 0.02009,0.249651 0.02539,0.3125 0.0041,0.04851 -0.01368,0.07032 -0.02734,0.0918 -0.01366,0.02148 -0.02988,0.04051 -0.04883,0.06055 -0.0379,0.04009 -0.08707,0.08398 -0.148438,0.132813 -0.12275,0.09766 -0.291452,0.213487 -0.476562,0.326172 -0.363676,0.221382 -1.029622,0.630659 -1.480469,0.908203 -0.581081,0.357716 -1.259898,0.731607 -1.871094,1.039062 -0.611196,0.307456 -1.150464,0.547162 -1.46875,0.638672 -0.04587,0.01318 -0.08965,0.03918 -0.117187,0.06445 -0.02755,0.02527 -0.03125,0.04767 -0.03125,0.04297 0,0.04261 -0.01271,0.102595 -0.06055,0.140625 -0.04784,0.038 -0.102374,0.0391 -0.152344,0.0332 -0.09994,-0.01174 -0.225348,-0.05931 -0.431641,-0.140625 -0.474787,-0.187146 -0.474145,-0.185618 -0.964844,-0.04297 -0.390197,0.11344 -0.629707,0.131688 -0.847656,0.04883 -0.168075,-0.0639 -0.450503,-0.09464 -0.734375,-0.08594 -0.283872,0.0087 -0.572752,0.0563 -0.755859,0.132813 -0.124594,0.05206 -0.223687,0.08485 -0.310547,0.09375 -0.04343,0.0044 -0.08407,0.0033 -0.125,-0.0098 -0.04093,-0.0131 -0.08186,-0.04188 -0.105469,-0.08008 0.0027,0.0043 -0.0026,-0.0046 -0.02344,-0.0078 -0.02089,-0.0032 -0.05248,-1.51e-4 -0.08008,0.01172 -0.106441,0.04576 -0.265464,0.08517 -0.388672,0.09766 -0.158717,0.01609 -0.363076,0.0791 -0.519531,0.152344 -0.07823,0.03661 -0.14545,0.0765 -0.1875,0.109375 -0.04205,0.03287 -0.04297,0.06431 -0.04297,0.0332 0,0.07747 -0.03128,0.132681 -0.07031,0.207031 -0.03903,0.07435 -0.09002,0.156209 -0.148437,0.230469 -0.134951,0.171557 -0.176133,0.345521 -0.175781,0.816406 2.2e-4,0.287466 0.0094,0.440417 0.04883,0.554688 0.03941,0.114271 0.11183,0.207199 0.269531,0.378906 0.09653,0.105106 0.18456,0.209619 0.25,0.292969 0.03272,0.04167 0.05957,0.07825 0.08008,0.109375 0.01025,0.01556 0.01984,0.02835 0.02734,0.04297 0.0034,0.0065 0.0066,0.01994 0.0098,0.02734 2e-4,2.6e-4 0.0034,0.0066 0.0098,0.01367 0.01279,0.0142 0.03564,0.03652 0.06445,0.0625 0.05762,0.05195 0.140648,0.120753 0.236328,0.195313 0.191354,0.149111 0.43301,0.321226 0.626953,0.443359 0.04619,0.02909 0.09274,0.06288 0.132813,0.09375 0.04008,0.03087 0.07107,0.05554 0.09766,0.08789 -0.01221,-0.01485 -0.0054,-0.0067 0.0039,0 0.0093,0.0067 0.02469,0.0177 0.04297,0.0293 0.03656,0.0232 0.08652,0.05403 0.148438,0.08984 0.123841,0.07162 0.289256,0.16293 0.464843,0.25586 0.138959,0.07355 0.339517,0.0642 0.482422,0.128906 -0.12478,-0.06051 -0.247159,-0.116287 -0.378906,-0.185547 -0.204574,-0.107542 -0.401247,-0.217604 -0.550781,-0.308594 -0.07477,-0.04549 -0.138797,-0.08645 -0.185547,-0.121093 -0.02337,-0.01732 -0.04129,-0.03353 -0.05859,-0.05078 -0.0087,-0.0086 -0.01679,-0.0163 -0.02539,-0.0293 -0.0044,-0.0065 -0.0096,-0.01498 -0.01367,-0.02539 -0.0019,-0.0047 -0.0045,-0.0095 -0.0059,-0.01563 0,0 0,-0.002 0,-0.002 -0.0075,-0.0037 -0.02137,-0.0078 -0.04102,-0.0078 -0.05492,0 -0.09077,-0.02007 -0.132813,-0.04297 -0.04204,-0.02289 -0.08652,-0.05247 -0.136719,-0.08984 -0.100396,-0.07475 -0.219623,-0.178166 -0.345703,-0.296875 -0.25216,-0.237419 -0.532239,-0.539448 -0.738281,-0.810547 -0.121507,-0.159871 -0.199608,-0.278892 -0.236328,-0.419922 -0.0367,-0.14103 -0.02954,-0.289947 -0.0078,-0.511719 0.05178,-0.528352 0.270337,-1.012865 0.59375,-1.222656 0.06633,-0.04302 0.147457,-0.06568 0.248047,-0.08594 0.100591,-0.02027 0.215375,-0.03306 0.324219,-0.03516 0.09104,-0.0018 0.160916,-0.0024 0.222656,0.0039 0.06174,0.0063 0.122872,0.02081 0.169922,0.06641 0.04706,0.0456 0.06457,0.106718 0.07227,0.167969 0.0077,0.06125 0.0078,0.130643 0.0078,0.220703 0,0.204696 0.08648,0.388317 0.273438,0.5625 0.186952,0.174182 0.476458,0.333358 0.863281,0.464843 0.187957,0.06389 0.338335,0.129259 0.451172,0.199219 0.112837,0.06996 0.195246,0.143234 0.222656,0.248047 0.0093,0.03549 0.01794,0.04899 0.02344,0.05469 0.0055,0.0057 0.01551,0.01418 0.05664,0.02148 0.08225,0.01468 0.263696,0.01052 0.587891,-0.01172 1.307352,-0.08969 1.779487,-0.204005 2.091797,-0.466797 0.194094,-0.163319 0.315233,-0.26244 0.460937,-0.27539 0.07285,-0.0065 0.145095,0.01883 0.203125,0.06055 0.05803,0.04172 0.107453,0.09806 0.164063,0.167969 0.07065,0.08726 0.100304,0.110441 0.146484,0.119141 0.04618,0.0087 0.139394,-0.0025 0.310547,-0.04687 0.228587,-0.05924 0.690305,-0.131676 1.048828,-0.166016 0.343795,-0.03293 1.012063,-0.147381 1.46875,-0.251953 0.46197,-0.105781 1.129017,-0.25824 1.482422,-0.33789 0.352158,-0.07938 1.034369,-0.238458 1.513672,-0.353516 0.241376,-0.05795 0.464752,-0.105679 0.632812,-0.136719 0.08403,-0.01552 0.153922,-0.027 0.207032,-0.0332 0.02655,-0.0032 0.04965,-0.0056 0.07031,-0.0059 0.01033,-1e-4 0.01825,5.3e-5 0.03125,0.002 0.0065,0.001 0.01528,0.0023 0.02539,0.0059 0.0051,0.0018 0.01704,0.0075 0.01758,0.0078 5.4e-4,3e-4 0.02309,0.01723 0.02344,0.01758 7e-4,7e-4 0.02505,0.04372 0.02539,0.04492 4e-4,0.0011 0.0059,0.0245 0.0059,0.0332 -1e-4,0.01749 -0.0031,0.02892 -0.0059,0.03906 -0.0056,0.02027 -0.01424,0.03762 -0.02344,0.05664 -0.01831,0.03805 -0.04447,0.08271 -0.07813,0.136719 -0.06731,0.108027 -0.162071,0.247305 -0.273437,0.396484 -0.384182,0.514627 -0.6395,0.886003 -0.777344,1.130859 -0.06892,0.122428 -0.109023,0.214748 -0.121093,0.267578 -0.006,0.02642 -0.0042,0.04147 -0.0039,0.04297 0.03801,0.02893 0.0636,0.06439 0.08203,0.105469 0.02091,0.04661 0.03734,0.100903 0.05078,0.164062 0.02688,0.126321 0.04393,0.288125 0.04883,0.478516 0.0076,0.295657 0.01815,0.444983 -0.03516,0.570313 -0.02665,0.06266 -0.07972,0.112301 -0.136719,0.138671 -0.057,0.02637 -0.115523,0.0404 -0.189453,0.05664 -0.156443,0.03436 -0.364582,0.101553 -0.425782,0.132813 -0.182484,0.09319 -0.444095,0.19273 -0.693359,0.28125 0.345048,-0.111351 0.654261,-0.148947 1.013672,-0.306641 0.100445,-0.04407 0.197227,-0.08386 0.273437,-0.113281 0.03811,-0.01471 0.07095,-0.02626 0.09766,-0.03516 0.01336,-0.0044 0.02586,-0.0087 0.03711,-0.01172 0.01126,-0.003 0.01769,-0.0059 0.04297,-0.0059 8.4e-4,0 0.02034,0.0021 0.02734,0.0039 0.007,0.0018 0.01298,0.002 0.01758,0.0039 0.0092,0.0038 0.01498,0.0078 0.02148,0.01172 0.01306,0.0077 0.02559,0.01725 0.03906,0.02734 0.02695,0.02018 0.05872,0.04577 0.0957,0.07813 0.07395,0.06473 0.167212,0.15354 0.263672,0.25 0.252329,0.252337 0.380789,0.316407 0.611328,0.316407 0.131703,0 0.232357,-0.01116 0.304687,-0.0332 0.07233,-0.02204 0.116637,-0.05051 0.154297,-0.101562 0.07531,-0.102093 0.119106,-0.322146 0.134766,-0.708984 l 0.03125,-0.777344 0.529297,-0.05859 c 0.16815,-0.01868 0.271687,-0.04267 0.310546,-0.0625 0.01938,-0.0099 0.02174,-0.0142 0.02148,-0.01367 -3e-4,5.3e-4 0.0011,-0.0029 -0.002,-0.02148 -0.01073,-0.06525 0.01377,-0.117629 0.04492,-0.167969 0.03115,-0.05034 0.07504,-0.10073 0.130859,-0.15625 0.09484,-0.09433 0.243917,-0.207801 0.410156,-0.328125 -0.112502,0.07763 -0.229113,0.172427 -0.314453,0.216797 -0.06475,0.03366 -0.10874,0.05766 -0.15625,0.07031 -0.01188,0.0032 -0.02333,0.0063 -0.04297,0.0059 -0.0098,-2e-4 -0.02232,-6.59e-4 -0.03711,-0.0059 -0.0074,-0.0026 -0.02285,-0.01134 -0.02344,-0.01172 -5.8e-4,-3.8e-4 -0.02301,-0.02098 -0.02344,-0.02148 -4.3e-4,-5e-4 -0.01731,-0.02671 -0.01758,-0.02734 -3e-4,-6.3e-4 -0.0047,-0.01709 -0.0059,-0.02539 -0.0025,-0.01658 -0.0021,-0.03074 0,-0.04102 0.0042,-0.02056 0.01138,-0.03168 0.01758,-0.04297 0.02482,-0.04515 0.05887,-0.08442 0.117187,-0.148438 0.05832,-0.06402 0.138618,-0.14767 0.242188,-0.253906 0.158032,-0.162099 0.295409,-0.284224 0.412109,-0.365234 0.05835,-0.0405 0.112072,-0.0706 0.164062,-0.08984 0.05199,-0.01923 0.107166,-0.03039 0.166016,-0.0078 0.04006,0.01538 0.08431,0.03812 0.109375,0.0918 0.02507,0.05368 0.01092,0.113117 -0.01172,0.154297 -0.03989,0.07257 -0.120606,0.145398 -0.226562,0.236328 l 0.40039,-0.28125 0.402344,0.236328 c 0.09766,0.05762 0.185383,0.116896 0.251953,0.166016 0.03328,0.02456 0.06153,0.04535 0.08398,0.06641 0.01123,0.01053 0.02116,0.02001 0.03125,0.0332 0.005,0.0066 0.01032,0.01454 0.01563,0.02539 0.0027,0.0054 0.0055,0.01143 0.0078,0.01953 0.0023,0.0081 0.0039,0.03037 0.0039,0.03125 -10e-7,4.3e-4 -7.54e-4,0.01588 -0.002,0.02148 -0.0012,0.0056 -0.0026,0.01007 -0.0039,0.01367 -0.0025,0.0073 -0.0056,0.01298 -0.0078,0.01758 -0.0045,0.0091 -0.0088,0.01564 -0.01367,0.02344 -0.0099,0.01564 -0.02187,0.03391 -0.03711,0.05469 -0.03049,0.04155 -0.07286,0.09544 -0.125,0.160156 -0.104273,0.129436 -0.247101,0.299456 -0.404296,0.480468 -0.833584,0.959884 -1.561158,2.106109 -2.181641,3.441407 -0.115919,0.24946 -0.306441,0.582202 -0.439453,0.759765 -0.117123,0.156351 -0.366021,0.550233 -0.541016,0.859375 -0.3317,0.585974 -0.854715,1.035636 -1.49414,1.285157 -0.09444,0.03685 -0.310379,0.09963 -0.601563,0.18164 -0.291184,0.08201 -0.652047,0.179055 -1.011719,0.271485 -0.813255,0.208989 -1.299629,0.359058 -1.566406,0.501953 -0.133388,0.07145 -0.210226,0.139291 -0.253906,0.207031 -0.04368,0.06774 -0.05859,0.140569 -0.05859,0.242187 0,0.140135 0.01056,0.19908 0.05469,0.25586 0.04413,0.05677 0.142629,0.124296 0.335937,0.228516 0.206367,0.111256 0.315429,0.160307 0.476563,0.179687 0.161132,0.01938 0.384904,0.0058 0.800781,-0.03125 0.497755,-0.04436 1.652464,-0.08284 2.580078,-0.08594 l 1.652344,-0.0039 0.664062,-0.439453 c 0.651561,-0.429692 1.237568,-0.892588 2.902344,-2.294922 0.411733,-0.346825 1.101662,-0.887607 1.726562,-1.363281 0.312451,-0.237837 0.608794,-0.458851 0.845703,-0.630859 0.236911,-0.172009 0.405624,-0.291424 0.496094,-0.339844 0.03499,-0.01872 0.143864,-0.0948 0.269532,-0.191406 0.125666,-0.09662 0.275747,-0.216207 0.416015,-0.335938 0.148533,-0.126784 0.295362,-0.233141 0.419922,-0.30664 0.06228,-0.03674 0.118422,-0.06516 0.169922,-0.08398 0.0515,-0.01877 0.09612,-0.03974 0.164062,-0.01367 -0.01122,-0.0043 0.02208,-4.67e-4 0.07031,-0.0293 0.04823,-0.02883 0.107833,-0.07854 0.158203,-0.142578 0.06329,-0.08047 0.141193,-0.152128 0.220703,-0.205078 0.07951,-0.05296 0.157184,-0.0918 0.246094,-0.0918 0.03557,0 0.0767,-0.0099 0.109375,-0.02344 0.03267,-0.01353 0.05393,-0.0351 0.05273,-0.0332 0.02117,-0.03425 0.04321,-0.05223 0.07422,-0.08008 0.03101,-0.02785 0.06945,-0.0602 0.113281,-0.09375 0.08766,-0.06709 0.198858,-0.143103 0.3125,-0.214843 0.21022,-0.132705 0.609924,-0.450891 0.869141,-0.69336 l 0.550781,-0.515625 0.681641,0.65625 c 0.333042,0.32028 0.812369,0.722584 1.044922,0.88086 0.346702,0.235964 0.920075,0.534884 1.46875,0.78125 0.548674,0.246366 1.084789,0.440786 1.318359,0.472656 0.124922,0.01704 0.301865,0.05528 0.412109,0.08984 0.638522,0.200151 1.361551,0.225661 4.503907,0.144531 0.727086,-0.01872 1.101632,-0.02627 1.353515,0.002 0.251883,0.02822 0.381378,0.103177 0.564453,0.22461 0.130373,0.08648 0.291861,0.250749 0.478516,0.472656 0.186655,0.221906 0.394306,0.500127 0.597656,0.800781 0.750238,1.109224 1.141621,1.483004 2.285157,2.189453 0.510943,0.315625 0.853661,0.463861 1.052734,0.464844 0.09954,4.9e-4 0.161093,-0.02696 0.220703,-0.08789 0.05961,-0.06093 0.114296,-0.163119 0.160156,-0.3125 0.07746,-0.252341 0.04531,-0.518857 -0.162109,-0.921875 C 87.99375,77.007138 87.60891,76.479719 87,75.742188 c -1.369239,-1.65847 -1.745347,-2.581059 -1.748047,-4.28125 -6.4e-4,-0.400004 -0.0083,-0.632742 -0.03711,-0.78125 -0.0288,-0.14851 -0.07134,-0.214146 -0.166016,-0.324219 -0.157279,-0.182849 -0.372839,-0.282645 -0.664062,-0.296875 -0.291224,-0.01423 -0.65679,0.06123 -1.082032,0.232422 l -0.714843,0.289062 -0.97461,-0.171875 c -0.528315,-0.09361 -1.182722,-0.276399 -1.490234,-0.421875 -0.300143,-0.14199 -0.675277,-0.428555 -1.003906,-0.732422 -0.328629,-0.303866 -0.606119,-0.610297 -0.699219,-0.849609 -0.03173,-0.08157 -0.08703,-0.284238 -0.164063,-0.566406 -0.07703,-0.282169 -0.171518,-0.635068 -0.261718,-0.984375 -0.0902,-0.349308 -0.177508,-0.69434 -0.242188,-0.960938 -0.03234,-0.133299 -0.0593,-0.246931 -0.07813,-0.332031 -0.0094,-0.04255 -0.01618,-0.07756 -0.02148,-0.105469 -0.0053,-0.02791 -0.0098,-0.04053 -0.0098,-0.07031 0,-0.04392 0.02113,-0.06829 0.03516,-0.08398 0.01404,-0.0157 0.02637,-0.02516 0.04102,-0.03516 0.0293,-0.01995 0.06485,-0.0386 0.105469,-0.05664 0.08124,-0.03608 0.187383,-0.07193 0.304687,-0.103515 0.219328,-0.05906 0.595889,-0.311925 0.871094,-0.5625 0.137603,-0.125288 0.252053,-0.25051 0.314453,-0.34375 0.03048,-0.04555 0.0452,-0.08364 0.04883,-0.09961 -0.05613,-0.04222 -0.106173,-0.101116 -0.109375,-0.175781 -0.0035,-0.08335 0.03174,-0.153997 0.08203,-0.248047 -0.01208,0.0029 -0.02411,0.0084 -0.03711,0.0098 -0.01918,0.002 -0.04093,0.0021 -0.06641,-0.0059 -0.02548,-0.008 -0.05232,-0.02642 -0.06836,-0.05078 -0.03208,-0.04873 -0.02678,-0.09147 -0.02148,-0.128906 0.0053,-0.03744 0.01667,-0.07675 0.03125,-0.125 0.15806,-0.52289 0.15809,-0.990796 0.0098,-1.394531 -0.09055,-0.246479 -0.206636,-0.585203 -0.259766,-0.759766 -0.03382,-0.111113 -0.0718,-0.177464 -0.15039,-0.246094 -0.07859,-0.06863 -0.203436,-0.137469 -0.404297,-0.224609 -0.654908,-0.28413 -1.25646,-0.334847 -1.753907,-0.162109 -0.119954,0.04166 -0.228793,0.06904 -0.314453,0.08203 -0.04282,0.0065 -0.07753,0.01016 -0.115234,0.0059 -0.01886,-0.0021 -0.04054,-0.004 -0.06641,-0.01953 -0.0087,-0.0052 -0.01103,-0.02289 -0.01953,-0.0332 -0.0026,0 -0.0024,5.53e-4 -0.01563,0.002 -0.0395,0.0042 -0.10857,0.02193 -0.18164,0.04883 -0.146132,0.05381 -0.316889,0.154692 -0.355469,0.201172 -0.04249,0.0512 -0.09677,0.08865 -0.154297,0.111328 -0.05753,0.02266 -0.12164,0.03308 -0.1875,0.0078 0.0012,4.6e-4 -0.0019,-0.0028 -0.03125,0.01953 -0.02933,0.02237 -0.07068,0.06857 -0.109375,0.132812 -0.07738,0.128479 -0.148147,0.323166 -0.179687,0.527344 L 74.8125,62.144531 73.443359,61.730469 C 72.746611,61.52051 71.804907,61.181471 71.333984,60.96875 70.709932,60.686858 70.026611,60.330226 69.476562,60.011719 69.20154,59.852465 68.960999,59.703751 68.775391,59.576172 c -0.185608,-0.127579 -0.311604,-0.21994 -0.376953,-0.31836 -0.06917,-0.104179 -0.118282,-0.180166 -0.113282,-0.279296 0.005,-0.09913 0.06332,-0.16828 0.142578,-0.25586 0.07583,-0.08378 0.102098,-0.161695 0.08594,-0.28125 -0.01616,-0.119555 -0.08406,-0.279592 -0.214844,-0.486328 -0.05692,-0.08997 -0.09495,-0.159065 -0.105469,-0.234375 -0.0053,-0.03765 -0.0016,-0.08259 0.02148,-0.121094 0.02309,-0.0385 0.06222,-0.06241 0.09766,-0.07422 0.0292,-0.0097 0.0288,-0.01073 0.0332,-0.02344 0.0044,-0.01271 0.0066,-0.05214 -0.01172,-0.119141 -0.03665,-0.134007 -0.149286,-0.365423 -0.347656,-0.705078 -0.159913,-0.273808 -0.2779,-0.476462 -0.375,-0.611328 -0.0971,-0.134861 -0.168685,-0.192601 -0.228516,-0.207031 -0.05983,-0.01443 -0.140696,0.0042 -0.27539,0.08203 -0.134694,0.07786 -0.312522,0.209839 -0.554688,0.386719 l -0.904296,0.660156 -0.351563,-0.414062 c -0.212544,-0.250192 -0.540929,-0.72499 -0.816406,-1.15625 -0.137739,-0.215631 -0.26129,-0.419615 -0.34961,-0.578125 -0.04416,-0.07925 -0.07906,-0.146562 -0.103515,-0.201172 -0.01223,-0.02731 -0.0223,-0.05085 -0.0293,-0.07422 -0.007,-0.02336 -0.01961,-0.04225 -0.002,-0.0957 -0.01257,0.03804 -0.0047,0.0012 -0.02539,-0.03906 -0.02065,-0.04027 -0.05481,-0.09153 -0.0957,-0.136719 -0.06884,-0.07606 -0.117843,-0.139163 -0.132812,-0.220703 -0.01497,-0.08154 0.02499,-0.16366 0.08008,-0.21875 0.02293,-0.0229 0.02575,-0.0146 0.0098,-0.06445 -0.01598,-0.04985 -0.07036,-0.141098 -0.167969,-0.271484 -0.191721,-0.256099 -0.573523,-0.708258 -0.9375,-1.11914 -0.363976,-0.410883 -0.723661,-0.790487 -0.832031,-0.878907 -0.107039,-0.08734 -0.186644,-0.177888 -0.214843,-0.310547 -0.02817,-0.132658 -0.01651,-0.291925 0.0098,-0.568359 0.09371,-0.986211 0.248981,-2.222146 0.412109,-3.28125 0.0939,-0.609652 0.115892,-1.335042 0.08203,-1.882813 -0.01693,-0.273884 -0.04853,-0.504729 -0.08789,-0.646484 -0.01908,-0.06872 -0.04028,-0.114936 -0.05078,-0.128906 -0.02321,0.0047 -0.04622,0.01391 -0.06445,0.0078 -0.02871,-0.0096 -0.04603,-0.0247 -0.06055,-0.03906 -0.02904,-0.02873 -0.04836,-0.06069 -0.06836,-0.09961 -0.03999,-0.07784 -0.07858,-0.182712 -0.109374,-0.304687 -0.05709,-0.226054 -0.208282,-0.729368 -0.333985,-1.107422 -0.127934,-0.384766 -0.282806,-0.939393 -0.347656,-1.246094 -0.03098,-0.146528 -0.06876,-0.295733 -0.105469,-0.417968 -0.0367,-0.122235 -0.08014,-0.224735 -0.08984,-0.240235 -0.01189,-0.01899 -0.01584,-0.02499 -0.02344,-0.03516 z m -6.169922,15.486328 c 0.05557,0.0072 0.09032,0.03784 0.121094,0.06836 0.06153,0.06103 0.11097,0.146044 0.15625,0.246093 0.09055,0.200099 0.163824,0.443127 0.115234,0.636719 -0.0096,0.03835 -0.01441,0.137946 -0.0078,0.248047 0.0066,0.110101 0.02257,0.235562 0.04687,0.34375 0.02679,0.119284 0.04358,0.22759 0.04687,0.3125 0.0016,0.04245 -1.13e-4,0.07725 -0.0078,0.113281 -0.0038,0.01802 -0.0079,0.03761 -0.02344,0.06055 -0.01557,0.02294 -0.05374,0.05078 -0.0957,0.05078 -0.08756,0 -0.133635,-0.0566 -0.171876,-0.111328 -0.03824,-0.05473 -0.07254,-0.123998 -0.105468,-0.205078 -0.06586,-0.162165 -0.126452,-0.371966 -0.175782,-0.591797 -0.04933,-0.219831 -0.08544,-0.448051 -0.09961,-0.640625 -0.0071,-0.09629 -0.01031,-0.183855 -0.0039,-0.259766 0.0064,-0.07591 0.01778,-0.140518 0.05664,-0.199218 0.02865,-0.04328 0.09286,-0.07947 0.148437,-0.07227 z M 76.0625,60.556641 c 0,0.01318 0.0062,0.03377 0.01758,0.04687 0.0066,0.0076 0.01042,0.0089 0.01563,0.01172 -0.01412,-0.01948 -0.0332,-0.03478 -0.0332,-0.05859 z M 57.40625,72.980469 c -0.06358,0.01364 -0.133841,0.03125 -0.181641,0.03125 -0.111059,0 -0.297384,0.04377 -0.365234,0.08008 -0.08311,0.04448 -0.200359,0.06718 -0.367187,0.0957 -0.16683,0.02852 -0.371117,0.05324 -0.574219,0.07031 -0.198459,0.01668 -0.389801,0.03801 -0.535157,0.05859 -0.07268,0.01029 -0.133404,0.0203 -0.177734,0.0293 -0.02216,0.0045 -0.0391,0.0084 -0.05078,0.01172 -0.0117,0.0033 -0.02034,0.0097 -0.0078,0.002 -0.03492,0.02154 -0.05503,0.02174 -0.08398,0.02734 -0.02895,0.0056 -0.06332,0.01122 -0.103516,0.01563 -0.0804,0.0087 -0.184048,0.01538 -0.30664,0.02148 -0.245185,0.01228 -0.562115,0.01918 -0.890625,0.02148 -0.65702,0.0045 -1.347689,-0.0086 -1.621094,-0.05273 -0.01678,-0.0027 -0.03866,-0.0032 -0.05664,-0.0059 0.143455,0.01628 0.22698,0.08963 0.376954,0.101562 1.201308,0.09552 2.598523,0.05312 3.128906,-0.08203 0.252377,-0.06431 0.729732,-0.154655 1.074218,-0.203125 0.222598,-0.03132 0.501171,-0.163536 0.742188,-0.222656 z" style="fill:#000000;stroke-width:0.0987877" />
      <path style="fill:#ffffff;stroke-width:0.06918869" d="m 28.300424,65.369168 c -0.25502,-0.178625 -0.294068,-0.522872 -0.294068,-2.592538 0,-2.034661 0.03684,-2.378151 0.2785,-2.596852 0.136064,-0.123144 0.164538,-0.121949 0.98555,0.04152 0.729983,0.145342 1.039124,0.168323 2.263803,0.168323 1.229227,0 1.532491,-0.02271 2.274182,-0.170344 l 0.855811,-0.170344 0.164722,0.1915 0.16472,0.191499 v 2.351701 2.351703 l -0.169828,0.169826 -0.169826,0.169828 h -3.101241 c -2.671249,0 -3.12219,-0.0146 -3.252325,-0.105828 z m 3.904546,-1.215313 c 0.05485,-0.05485 0.02824,-0.254999 -0.09651,-0.725985 l -0.172252,-0.650247 0.17954,-0.21337 c 0.4823,-0.573183 -0.108925,-1.407292 -0.829052,-1.169629 -0.489626,0.16159 -0.665126,0.776131 -0.334021,1.169629 l 0.17954,0.21337 -0.172252,0.650247 c -0.124767,0.470986 -0.151372,0.671127 -0.09651,0.725985 0.04311,0.04311 0.332028,0.07574 0.670761,0.07574 0.338734,0 0.627646,-0.03263 0.670761,-0.07574 z m -2.734249,-4.43584 -0.368364,-0.06707 0.02242,-0.945252 c 0.02027,-0.854651 0.04021,-0.983187 0.207923,-1.341035 0.229154,-0.488919 0.69657,-0.952899 1.217812,-1.208861 0.353457,-0.17357 0.469288,-0.194259 1.08748,-0.194248 0.615185,1.2e-5 0.73493,0.02117 1.080158,0.19077 0.464961,0.228432 1.048435,0.82232 1.25699,1.279423 0.123468,0.270622 0.154513,0.489182 0.175688,1.23697 l 0.02572,0.908269 -0.369825,0.08164 c -0.767501,0.169415 -0.681174,0.239325 -0.681174,-0.55163 0,-0.963366 -0.08907,-1.269237 -0.484915,-1.665074 -0.250565,-0.250566 -0.400478,-0.339116 -0.673087,-0.397582 -0.697077,-0.149495 -1.380595,0.196989 -1.685663,0.854492 -0.101728,0.219258 -0.128719,0.445647 -0.129929,1.089722 -0.0018,0.925676 0.05614,0.863707 -0.681233,0.729466 z" id="path2514-7" />
      <path id="path3848" d="m 60.050424,67.244168 c -0.25502,-0.178625 -0.294068,-0.522872 -0.294068,-2.592538 0,-2.034661 0.03684,-2.378151 0.2785,-2.596852 0.136064,-0.123144 0.164538,-0.121949 0.98555,0.04152 0.729983,0.145342 1.039124,0.168323 2.263803,0.168323 1.229227,0 1.532491,-0.02271 2.274182,-0.170344 l 0.855811,-0.170344 0.164722,0.1915 0.16472,0.191499 v 2.351701 2.351703 l -0.169828,0.169826 -0.169826,0.169828 h -3.101241 c -2.671249,0 -3.12219,-0.0146 -3.252325,-0.105828 z m 3.904546,-1.215313 c 0.05485,-0.05485 0.02824,-0.254999 -0.09651,-0.725985 l -0.172252,-0.650247 0.17954,-0.21337 c 0.4823,-0.573183 -0.108925,-1.407292 -0.829052,-1.169629 -0.489626,0.16159 -0.665126,0.776131 -0.334021,1.169629 l 0.17954,0.21337 -0.172252,0.650247 c -0.124767,0.470986 -0.151372,0.671127 -0.09651,0.725985 0.04311,0.04311 0.332028,0.07574 0.670761,0.07574 0.338734,0 0.627646,-0.03263 0.670761,-0.07574 z m -2.734249,-4.43584 -0.368364,-0.06707 0.02242,-0.945252 c 0.02027,-0.854651 0.04021,-0.983187 0.207923,-1.341035 0.229154,-0.488919 0.69657,-0.952899 1.217812,-1.208861 0.353457,-0.17357 0.469288,-0.194259 1.08748,-0.194248 0.615185,1.2e-5 0.73493,0.02117 1.080158,0.19077 0.464961,0.228432 1.048435,0.82232 1.25699,1.279423 0.123468,0.270622 0.154513,0.489182 0.175688,1.23697 l 0.02572,0.908269 -0.369825,0.08164 c -0.767501,0.169415 -0.681174,0.239325 -0.681174,-0.55163 0,-0.963366 -0.08907,-1.269237 -0.484915,-1.665074 -0.250565,-0.250566 -0.400478,-0.339116 -0.673087,-0.397582 -0.697077,-0.149495 -1.380595,0.196989 -1.685663,0.854492 -0.101728,0.219258 -0.128719,0.445647 -0.129929,1.089722 -0.0018,0.925676 0.05614,0.863707 -0.681234,0.729466 z" style="fill:#ffffff;stroke-width:0.06918869" />
   </g>
   <g class="item" id="badge-alice" transform="matrix(0.52799937,0,0,0.52799937,26.925253,62.619638)">
      <image width="100" height="100" preserveAspectRatio="none" xlink:href="~/badges/alice.png" id="image2273" x="-50" y="-50" />
      <g class="shadow" id="g9300">
         <path id="path3776-7" d="m 5.7985306,-38.101547 c -2.107851,-0.007 -2.677238,0.0597 -3.903463,0.46142 -0.792382,0.25957 -1.74824695,0.67957 -2.04289995,0.87818 -0.242931,0.16375 -0.711026,0.62437 -1.17959705,1.15727 -0.468574,0.53291 -0.950885,1.14597 -1.261463,1.62614 -1.003346,1.55121 -1.8738,2.96803 -2.508041,4.07463 -0.970562,1.69341 -1.585511,2.71565 -2.0429,3.33041 -0.228694,0.30739 -0.417012,0.51336 -0.602823,0.6512 -0.185815,0.13784 -0.378195,0.20196 -0.561891,0.20466 -0.290966,0.004 -0.432752,0.11773 -0.442813,0.13025 0.0178,0.0205 0.07625,0.067 0.193499,0.1042 0.103257,0.0328 0.205916,0.0567 0.29397,0.15629 0.04403,0.0498 0.07301,0.12121 0.07814,0.18978 0.0051,0.0685 -0.0081,0.13195 -0.02977,0.1935 -0.08604,0.24615 -0.307811,0.54795 -0.72934,1.13867 -1.4682136,2.05752 -1.5878786,4.01075 -0.390718,6.660816 1.019745,2.257334 3.587496,4.248704 5.991016,4.647689 l 0.881909,0.145114 0.137689,4.4988448 c 0.07203,2.38848 0.217947,6.503007 0.327459,9.13909 0.109621,2.638859 0.207911,5.803475 0.215828,7.044098 0.0068,1.085832 0.0085,1.661323 -0.07814,2.1247632 -0.0867,0.46344 -0.263929,0.789085 -0.576776,1.335887 -0.332485,0.58112 -0.628824,0.987285 -1.187039,1.436353 -0.558218,0.449069 -1.37321,0.949949 -2.783407,1.77498 -0.677131,0.396154 -2.337813,1.226914 -3.7174056,1.864284 -1.37249,0.634092 -2.787993,1.328492 -3.081094,1.503337 -0.37162,0.221682 -1.171017,0.525285 -1.84568,0.714458 -0.65537,0.18375 -2.187887,0.640099 -3.397389,1.012147 -1.215598,0.373919 -2.648323,0.764059 -3.2225,0.874463 -0.543912,0.104602 -1.544384,0.321464 -2.21779,0.480025 l -1.596366,0.375836 0.439093,-1.049358 c 0.08767,-0.209865 0.132141,-0.38747 0.145114,-0.517239 0.01288,-0.129773 -0.0125,-0.205716 -0.02233,-0.219546 -0.0097,-0.01383 0.01477,-0.01269 -0.04093,0 -0.05572,0.01269 -0.170776,0.06854 -0.308854,0.193499 -0.09888,0.08949 -0.171591,0.160606 -0.238152,0.212104 -0.06655,0.0515 -0.112841,0.116042 -0.260477,0.09674 -0.07383,-0.0097 -0.147898,-0.06996 -0.174906,-0.119072 -0.0178,-0.03214 -0.01705,-0.0561 -0.02233,-0.08188 9.11e-4,0.0097 -9.54e-4,0.0087 0,0.01875 l 0.145114,1.518219 -0.881908,-0.777717 c -0.287036,-0.253894 -0.78563,-0.708146 -1.112617,-1.012147 -0.292322,-0.271773 -0.49943,-0.407955 -0.595381,-0.450256 0.0014,-0.004 0.01818,0.07814 0.04837,0.193498 0.03214,0.122179 0.07581,0.284622 0.133959,0.472584 0.116288,0.375925 0.276155,0.859123 0.446536,1.350769 0.340758,0.983293 0.737774,2.029874 0.893069,2.333149 l 0.234432,0.461419 1.406587,-0.119072 c 0.843378,-0.07081 2.567382,-0.209614 3.832762,-0.308853 1.255892,-0.0985 3.504033,-0.36429 4.982592,-0.59166 0.744254,-0.114451 1.490939,-0.222582 2.091275,-0.29769 0.600334,-0.07513 1.037153,-0.119943 1.239134,-0.119072 1.151484,0.0045 2.282258,0.844836 2.969462,2.14337 1.2091976,2.284906 3.2577326,3.718774 5.6598356,3.963001 0.675003,0.06862 1.549633,0.26015 2.009408,0.453978 l 1.045653,0.442752 -1.18332,1.012147 c -0.957047,0.822229 -5.327135,3.951992 -6.820828,4.889563 -0.157803,0.09905 -0.279656,0.175455 -0.379556,0.230711 -0.09989,0.05525 -0.166685,0.09174 -0.2604786,0.107916 -0.04689,0.008 -0.121345,0.01042 -0.193498,-0.04466 -0.07216,-0.05519 -0.08638,-0.140057 -0.08559,-0.189778 0.0016,-0.09943 0.0289,-0.158978 0.06326,-0.241874 0.19454,-0.46951 0.3294376,-0.929118 0.3869986,-1.287513 0.02879,-0.179204 0.03763,-0.333617 0.02977,-0.442811 -0.0078,-0.107936 -0.04089,-0.159489 -0.03722,-0.156288 -0.01553,0.0178 -0.07025,0.07155 -0.1376886,0.219548 -0.146913,0.322428 -0.341893,0.54182 -0.595382,0.59166 -0.126742,0.02492 -0.278619,-0.0214 -0.364669,-0.130247 -0.04589,-0.05803 -0.04347,-0.146098 -0.05954,-0.219546 -0.01705,0.151573 -0.03165,0.312037 -0.02604,0.509795 l 0.04093,1.45124 -1.912659,-1.897775 c -0.428967,-0.426451 -0.831802,-0.799916 -1.134943,-1.053081 -0.08941,-0.07466 -0.14714,-0.112045 -0.215826,-0.163731 0.01023,0.04619 0.01193,0.07608 0.02604,0.130246 0.07252,0.278641 0.196958,0.651505 0.346065,1.045638 0.302657,0.800007 0.71383,1.90433 0.915398,2.455946 0.197414,0.540245 0.636062,1.599271 0.967492,2.336868 0.347169,0.772615 0.64483,1.157354 0.859581,1.235415 0.107386,0.03903 0.206297,0.0317 0.360951,-0.04837 0.15464,-0.08006 0.347239,-0.236884 0.573054,-0.472582 0.3333806,-0.347977 0.8095796,-0.677404 1.1795956,-0.770273 0.04566,-0.01136 0.199104,-0.06417 0.401883,-0.145114 0.202777,-0.08097 0.46601,-0.194167 0.766554,-0.323739 0.601082,-0.259146 1.356291,-0.598916 2.124762,-0.956331 1.543557,-0.717904 3.765576,-1.692318 4.94910005,-2.173139 1.173127,-0.476597 2.94617095,-1.245405 3.92579095,-1.700555 l 1.849402,-0.855861 1.469846,0.331181 c 2.253232,0.512487 3.8107744,0.426866 5.2951644,-0.275362 3.010386,-1.424138 6.925688,-5.70168 8.145551,-8.912104 0.195438,-0.514349 0.462722,-1.626879 0.580497,-2.418734 0.232922,-1.566062 -0.0032,-2.830952 -0.848418,-4.487681 -0.201131,-0.394251 -0.318635,-0.685295 -0.342343,-1.469845 -0.02371,-0.78455 0.03087,-2.089557 0.141402,-4.629085 0.273392,-6.2813502 0.427019,-14.8604992 0.453979,-22.181648 0.01345,-3.660572 -0.0028,-7.009445 -0.05583,-9.596792 -0.05301,-2.58734 -0.147614,-4.44087 -0.260479,-5.0198 -0.611863,-3.13847 -2.228039,-6.11292 -4.487674,-8.26835 -2.195366,-2.09412 -3.236657,-2.77549 -5.6449504,-3.69508 -0.949922,-0.36272 -1.510436,-0.43239 -3.590891,-0.43909 z" style="display:inline;fill:#000000;stroke-width:0.2" />
         <path id="path2514-7-5" d="m 2.6044926,5.2074918 c -0.482993,-0.338305 -0.556948,-0.990289 -0.556948,-4.91011495 0,-3.85352905 0.06977,-4.50407905 0.527463,-4.91828605 0.257697,-0.233228 0.311625,-0.230965 1.866574,0.07864 1.382545,0.275269 1.96804,0.318794 4.287511,0.318794 2.3280844,0 2.9024484,-0.04301 4.3071684,-0.322622 l 1.620856,-0.322621 0.311974,0.36269 0.31197,0.362688 V 0.31064385 4.7646318 l -0.321645,0.321641 -0.32164,0.321644 H 8.7642066 c -5.05919,0 -5.913246,-0.02765 -6.159714,-0.200432 z m 7.394982,-2.301731 c 0.1038834,-0.103883 0.05349,-0.482954 -0.182784,-1.374974 l -0.326235,-1.23152995 0.340038,-0.40411 C 10.743942,-1.1904282 9.6241956,-2.7701822 8.2603176,-2.3200622 c -0.927323,0.306042 -1.25971,1.46994705 -0.632617,2.21520905 l 0.340039,0.40411 -0.326236,1.23152995 c -0.236301,0.89202 -0.286689,1.271076 -0.182784,1.374974 0.08165,0.08165 0.628842,0.143447 1.270382,0.143447 0.641543,0 1.188725,-0.0618 1.270383,-0.143447 z m -5.178508,-8.401223 -0.69766,-0.127026 0.04246,-1.790252 c 0.03839,-1.61866 0.07616,-1.862099 0.393794,-2.539842 0.434005,-0.9259838 1.319263,-1.8047358 2.306465,-2.2895128 0.669427,-0.328731 0.888804,-0.367915 2.059624,-0.367894 1.1651244,2.3e-5 1.3919144,0.0401 2.0457564,0.361307 0.880609,0.432637 1.985674,1.557426 2.380665,2.4231528 0.233842,0.512542 0.292639,0.926482 0.332743,2.342749 l 0.04871,1.720208 -0.700427,0.154622 c -1.453601,0.320862 -1.290103,0.453267 -1.290103,-1.044755 0,-1.824559 -0.168693,-2.403861 -0.918401,-3.153553 -0.474555,-0.4745578 -0.758482,-0.6422658 -1.2747874,-0.7529968 -1.320223,-0.283135 -2.614767,0.373085 -3.192548,1.6183568 -0.192666,0.415262 -0.243786,0.84403 -0.246078,2.06387 -0.0034,1.753177 0.106326,1.635811 -1.290215,1.381566 z" style="display:inline;fill:#ffffff;stroke-width:0.13103935" />
      </g>
   </g>
   <g class="item" id="badge-bianconiglio" transform="matrix(0.49393845,0,0,0.49393845,66.876786,62.242417)">
      <image width="100" height="100" preserveAspectRatio="none" xlink:href="~/badges/bianconiglio.png" id="image2284" x="-50" y="-50" />
      <g class="shadow" id="g9278">
         <path style="display:inline;fill:#000000;stroke-width:0.20000003" d="m -12.217834,-42.563156 c -0.0279,0.0241 -0.0617,0.0518 -0.11072,0.1028 -0.0212,0.022 -0.0981,0.13308 -0.18585,0.2847 -0.0877,0.15164 -0.19365,0.35005 -0.31238,0.58522 -0.23749,0.47036 -0.52552,1.08043 -0.81852,1.73589 -0.58601,1.31093 -1.19935,2.80842 -1.50259,3.7288 l -0.67617,2.05222 -1.05577,-2.19457 c -0.46455,-0.96532 -1.139,-2.49095 -1.50259,-3.40456 -0.17816,-0.44768 -0.35616,-0.84347 -0.49823,-1.11508 -0.0308,-0.0589 -0.0485,-0.0844 -0.0751,-0.13048 -0.002,0.005 -0.002,0.007 -0.004,0.0119 -0.0575,0.1799 -0.1237,0.43523 -0.19771,0.73943 -0.14806,0.6084 -0.31695,1.41193 -0.47055,2.2183 -0.1536,0.80637 -0.29257,1.61623 -0.3796,2.24202 -0.0435,0.3129 -0.0736,0.57817 -0.087,0.77107 -0.007,0.0965 -0.01,0.1779 -0.008,0.22934 0.002,0.0515 0.03,0.085 -0.008,0.0237 0.0297,0.0481 0.0631,0.11815 0.0356,0.21748 -0.0275,0.0993 -0.1278,0.16103 -0.1898,0.17399 -0.11303,0.0237 -0.19081,-0.008 -0.2847,-0.0435 -0.004,0.0351 -0.004,0.0647 -0.004,0.12654 0.002,0.36358 0.0872,1.16222 0.26493,2.68489 0.20693,1.77304 0.91019,3.98384 2.1234,6.63908 0.54186,1.18591 0.82989,1.78999 0.84224,2.28552 0.006,0.24777 -0.0754,0.46721 -0.22143,0.64849 -0.14607,0.18127 -0.34498,0.33642 -0.59708,0.53381 -1.22593,0.95982 -2.56489,2.54046 -3.3492,3.95419 -0.36439,0.65681 -0.89998,1.978578 -1.33652,3.23057 -0.21826,0.625995 -0.41318,1.237328 -0.55358,1.739842 -0.1404,0.502512 -0.22296,0.912495 -0.22539,1.071583 l -0.0198,1.296976 -0.66826,-1.229753 c -0.15469,-0.285155 -0.30853,-0.428169 -0.39937,-0.466594 -0.0909,-0.03843 -0.1222,-0.03199 -0.21353,0.06721 -0.18265,0.198406 -0.37947,0.84449 -0.35983,1.7714762 0.0132,0.618897 0.17148,1.40339 0.37565,2.016636 0.10208,0.306623 0.21617,0.571063 0.32029,0.74734 0.0521,0.08813 0.10301,0.155708 0.1384,0.189801 0.0354,0.03405 0.0474,0.02373 0.0198,0.02373 0.0827,0 0.12949,0.03662 0.16212,0.06327 0.0326,0.02662 0.0538,0.05057 0.0751,0.07908 0.0427,0.05699 0.0801,0.127019 0.11862,0.205616 0.0771,0.157186 0.15759,0.358915 0.22539,0.585221 0.10325,0.344614 0.3452,0.731334 0.61685,1.016226 0.27165,0.284885 0.58257,0.450777 0.72362,0.450777 0.0928,0 0.1518,0.02464 0.23329,0.05535 0.0815,0.03073 0.17547,0.07205 0.2768,0.122586 0.20265,0.101045 0.4415,0.236458 0.67221,0.38751 l 1.1388,0.747342 -1.60935,0.640577 c -0.8244,0.326549 -1.24496,0.519397 -1.4235,0.695937 -0.0893,0.08827 -0.12988,0.168726 -0.15818,0.296564 -0.0283,0.127829 -0.0356,0.30409 -0.0356,0.545677 0,0.91364798 0.29998,1.98288298 0.73548,2.843061 0.4355,0.860178 1.02627,1.491851 1.45909,1.597492 0.36435,0.08894 0.8584,0.362363 1.19812,0.644532 0.28795,0.239177 0.52771,0.370044 0.68012,0.403327 0.15241,0.03326 0.1912,0.01701 0.25307,-0.08305 0.0855,-0.138054 0.20643,-0.185671 0.34025,-0.229426 0.13383,-0.04375 0.28599,-0.06721 0.44287,-0.06721 0.19541,0 0.36522,0.03268 0.50219,0.138398 0.13696,0.105722 0.20432,0.275553 0.21748,0.450777 0.0164,0.219295 0.0407,0.505429 0.0514,0.63267 0.008,0.09821 -0.0277,0.142366 -0.0554,0.185853 -0.0277,0.04349 -0.0605,0.08201 -0.0989,0.122586 -0.0767,0.08116 -0.17628,0.170021 -0.30052,0.268886 -0.24851,0.197717 -0.59006,0.432214 -0.96482,0.660349 -0.73628,0.448198 -2.08452,1.276797 -2.99727,1.838697 -1.17643,0.724212 -2.55072,1.481171 -3.78812,2.1036268 -1.23739,0.622458 -2.32916,1.107753 -2.97354,1.293019 -0.0929,0.02668 -0.1815,0.07932 -0.23725,0.130482 -0.0558,0.05116 -0.0633,0.09651 -0.0633,0.087 0,0.08626 -0.0257,0.207708 -0.12259,0.284701 -0.0969,0.07693 -0.20726,0.07916 -0.30843,0.06721 -0.20233,-0.02377 -0.45622,-0.120076 -0.87387,-0.284702 -0.96123,-0.378885 -0.95993,-0.375791 -1.95337,-0.08699 -0.78997,0.229664 -1.27487,0.266608 -1.71612,0.09886 -0.34027,-0.129368 -0.91206,-0.191603 -1.48677,-0.173989 -0.57471,0.01761 -1.15956,0.113982 -1.53027,0.268886 -0.25225,0.105397 -0.45286,0.171782 -0.62872,0.189801 -0.0879,0.0089 -0.1702,0.0067 -0.25306,-0.01984 -0.0829,-0.02652 -0.16573,-0.08479 -0.21353,-0.162125 0.005,0.0087 -0.005,-0.0093 -0.0475,-0.01579 -0.0423,-0.0065 -0.10624,-3.05e-4 -0.16212,0.02373 -0.2155,0.09264 -0.53745,0.17243 -0.78689,0.197717 -0.32132,0.03257 -0.73506,0.160141 -1.05181,0.308427 -0.15838,0.07412 -0.29447,0.154877 -0.3796,0.221434 -0.0851,0.06655 -0.087,0.130199 -0.087,0.06722 0,0.156842 -0.0633,0.268619 -0.14234,0.419144 -0.079,0.150524 -0.18225,0.316251 -0.30052,0.466594 -0.27321,0.347325 -0.35659,0.699522 -0.35587,1.65285 4.4e-4,0.581987 0.019,0.891643 0.0988,1.12299 0.0798,0.231347 0.22641,0.419483 0.54568,0.767112 0.19543,0.212791 0.37365,0.424383 0.50614,0.593128 0.0662,0.08436 0.1206,0.158421 0.16212,0.221435 0.0207,0.0315 0.0402,0.0574 0.0554,0.08699 0.007,0.01316 0.0134,0.04037 0.0198,0.05535 4.1e-4,5.27e-4 0.007,0.01336 0.0198,0.02768 0.0259,0.02875 0.0722,0.07394 0.13049,0.126534 0.11665,0.105175 0.28474,0.24447 0.47845,0.39542 0.38741,0.301881 0.87665,0.650336 1.2693,0.897599 0.0935,0.05889 0.18775,0.127304 0.26888,0.189801 0.0812,0.0625 0.14389,0.112443 0.19772,0.177937 -0.0247,-0.03006 -0.0109,-0.01356 0.008,0 0.0188,0.01356 0.05,0.03583 0.087,0.05932 0.074,0.04697 0.17516,0.109386 0.30052,0.181885 0.25072,0.144997 0.58561,0.329858 0.94109,0.517999 0.28133,0.148905 0.68737,0.129976 0.97669,0.260976 -0.25262,-0.122505 -0.50039,-0.235428 -0.76711,-0.375648 -0.41417,-0.217723 -0.81235,-0.440549 -1.11508,-0.624762 -0.15138,-0.0921 -0.281,-0.175022 -0.37565,-0.245158 -0.0473,-0.03506 -0.0836,-0.06788 -0.11862,-0.102806 -0.0176,-0.01741 -0.034,-0.033 -0.0514,-0.05932 -0.009,-0.01316 -0.0194,-0.03033 -0.0277,-0.0514 -0.004,-0.0095 -0.009,-0.01923 -0.0119,-0.03164 0,0 0,-0.004 0,-0.004 -0.0152,-0.0075 -0.0433,-0.01579 -0.083,-0.01579 -0.11119,0 -0.18377,-0.04063 -0.26889,-0.08699 -0.0851,-0.04634 -0.17516,-0.106228 -0.27679,-0.181885 -0.20326,-0.151335 -0.44464,-0.360705 -0.69989,-0.601037 -0.51051,-0.480665 -1.07754,-1.092136 -1.49468,-1.640988 -0.246,-0.323666 -0.40412,-0.564629 -0.47846,-0.85015 -0.0743,-0.285522 -0.0598,-0.587011 -0.0158,-1.035998 0.10483,-1.069671 0.54731,-2.050589 1.20207,-2.47532 0.13429,-0.0871 0.29854,-0.132972 0.50218,-0.17399 0.20366,-0.04104 0.43604,-0.06693 0.6564,-0.07118 0.18431,-0.0036 0.32578,-0.0049 0.45078,0.0079 0.12499,0.01275 0.24876,0.04213 0.34401,0.13445 0.0953,0.09232 0.13073,0.216055 0.14632,0.340061 0.0156,0.124003 0.0158,0.264492 0.0158,0.446823 0,0.414416 0.17508,0.786164 0.55358,1.138805 0.3785,0.35264 0.96461,0.674898 1.74775,0.941095 0.38053,0.129349 0.68498,0.261691 0.91342,0.403328 0.22845,0.141637 0.39529,0.289984 0.45078,0.502182 0.0188,0.07185 0.0363,0.09918 0.0474,0.110722 0.0111,0.01154 0.0314,0.02871 0.11467,0.04349 0.16652,0.02972 0.53387,0.0213 1.19022,-0.02373 2.64679,-0.181581 3.60264,-0.413017 4.23493,-0.945051 0.39295,-0.330646 0.6382,-0.531321 0.93319,-0.557539 0.14748,-0.01316 0.29375,0.03812 0.41123,0.122586 0.11749,0.08446 0.21755,0.198527 0.33215,0.340061 0.14304,0.176661 0.20307,0.223592 0.29657,0.241206 0.0935,0.01761 0.28221,-0.0051 0.62871,-0.09489 0.46279,-0.119934 1.39756,-0.266583 2.1234,-0.336106 0.69603,-0.06667 2.04897,-0.29838 2.97355,-0.51009 0.93528,-0.214158 2.28574,-0.522818 3.00123,-0.684073 0.71296,-0.160709 2.09412,-0.482769 3.06449,-0.715709 0.48868,-0.117322 0.94091,-0.213952 1.28116,-0.276793 0.17012,-0.03142 0.31162,-0.05466 0.41914,-0.06721 0.0538,-0.0065 0.10052,-0.01134 0.14235,-0.01195 0.0209,-2.03e-4 0.0369,1.07e-4 0.0633,0.004 0.0132,0.002 0.0309,0.0047 0.0514,0.01194 0.0103,0.0036 0.0345,0.01518 0.0356,0.01579 10e-4,6.08e-4 0.0468,0.03488 0.0475,0.03559 0.001,0.0014 0.0507,0.08851 0.0514,0.09094 8.1e-4,0.0022 0.0119,0.0496 0.0119,0.06722 -2.1e-4,0.03541 -0.006,0.05855 -0.0119,0.07908 -0.0113,0.04104 -0.0288,0.07616 -0.0474,0.11467 -0.0371,0.07703 -0.09,0.16745 -0.15818,0.276794 -0.13627,0.218705 -0.32812,0.500679 -0.55359,0.802699 -0.77779,1.041885 -1.29469,1.793752 -1.57376,2.289473 -0.13954,0.247861 -0.22073,0.434767 -0.24516,0.541724 -0.0122,0.05349 -0.009,0.08396 -0.008,0.08699 0.0769,0.05857 0.12876,0.130361 0.16608,0.213527 0.0423,0.09436 0.0756,0.204282 0.1028,0.332151 0.0544,0.255742 0.0889,0.583321 0.0989,0.968776 0.0154,0.598571 0.0367,0.900888 -0.0712,1.154624 -0.054,0.126858 -0.1614,0.227358 -0.2768,0.280745 -0.1154,0.05339 -0.23388,0.08179 -0.38355,0.11467 -0.31673,0.06956 -0.73811,0.205599 -0.86202,0.268886 -0.36944,0.188667 -0.89909,0.39019 -1.40373,0.569403 0.69856,-0.225435 1.32458,-0.30155 2.05222,-0.620808 0.20336,-0.08922 0.3993,-0.169778 0.55359,-0.229342 0.0772,-0.02978 0.14364,-0.05316 0.19771,-0.07118 0.0271,-0.0089 0.0524,-0.01761 0.0751,-0.02373 0.0228,-0.0061 0.0358,-0.01195 0.087,-0.01195 0.002,0 0.0412,0.0043 0.0553,0.0079 0.0142,0.0036 0.0263,0.004 0.0356,0.0079 0.0186,0.0077 0.0303,0.01579 0.0435,0.02373 0.0264,0.01559 0.0518,0.03492 0.0791,0.05535 0.0546,0.04086 0.11888,0.09266 0.19375,0.158178 0.14971,0.131049 0.33852,0.310848 0.53381,0.506136 0.51085,0.510867 0.77093,0.64058 1.23766,0.64058 0.26664,0 0.47042,-0.02259 0.61685,-0.06722 0.14644,-0.04462 0.23614,-0.10226 0.31238,-0.205617 0.15247,-0.206692 0.24114,-0.652199 0.27284,-1.435369 l 0.0633,-1.573767 1.07159,-0.118618 c 0.34042,-0.03782 0.5500401,-0.08639 0.6287101,-0.126534 0.0392,-0.02004 0.044,-0.02875 0.0435,-0.02768 -6.1e-4,0.0011 0.002,-0.0059 -0.004,-0.04349 -0.0217,-0.132101 0.0279,-0.238145 0.0909,-0.34006 0.0631,-0.101916 0.15192,-0.203933 0.26493,-0.316335 0.19201,-0.190975 0.49382,-0.420702 0.83038,-0.664304 -0.22777,0.157166 -0.46385,0.349086 -0.63662,0.438915 -0.13109,0.06815 -0.22015,0.116736 -0.31634,0.142346 -0.0241,0.0065 -0.0472,0.01275 -0.087,0.01194 -0.0198,-4.05e-4 -0.0452,-0.0013 -0.0751,-0.01194 -0.015,-0.0053 -0.0463,-0.02296 -0.0475,-0.02373 -0.001,-7.69e-4 -0.0466,-0.04247 -0.0475,-0.04349 -8.7e-4,-0.001 -0.035,-0.05407 -0.0356,-0.05535 -6e-4,-0.0013 -0.01,-0.0346 -0.0119,-0.0514 -0.005,-0.03357 -0.004,-0.06223 0,-0.08305 0.008,-0.04162 0.023,-0.06414 0.0356,-0.08699 0.0503,-0.09141 0.11918,-0.170912 0.23725,-0.30052 0.11807,-0.129611 0.28064,-0.298964 0.49032,-0.514043 0.31994,-0.328177 0.59807,-0.575424 0.83433,-0.739433 0.11813,-0.08199 0.2269,-0.142932 0.33215,-0.181885 0.10526,-0.03893 0.21697,-0.06153 0.33611,-0.01579 0.0811,0.03114 0.17069,0.07718 0.22143,0.185853 0.0508,0.108677 0.0221,0.22901 -0.0237,0.312381 -0.0808,0.146921 -0.24418,0.294365 -0.45869,0.478456 l 0.81061,-0.569403 0.81456,0.478457 c 0.197719,0.116654 0.375318,0.236661 0.510092,0.336106 0.06738,0.04972 0.12457,0.09181 0.170021,0.13445 0.02274,0.02132 0.04284,0.04051 0.06327,0.06722 0.01012,0.01336 0.02089,0.02944 0.03164,0.0514 0.0055,0.01093 0.01113,0.02314 0.01579,0.03954 0.0047,0.0164 0.0079,0.06149 0.0079,0.06327 -2e-6,8.7e-4 -0.0015,0.03215 -0.004,0.04349 -0.0024,0.01134 -0.0053,0.02039 -0.0079,0.02768 -0.0051,0.01478 -0.01134,0.02628 -0.01579,0.03559 -0.0091,0.01842 -0.01782,0.03166 -0.02768,0.04745 -0.02004,0.03166 -0.04428,0.06865 -0.07513,0.110723 -0.06173,0.08412 -0.147509,0.193222 -0.253068,0.324242 -0.211106,0.262049 -0.500275,0.606262 -0.818515,0.972729 -1.68763,1.943327 -3.16064,4.26391 -4.4168301,6.967279 -0.23469,0.505043 -0.62041,1.178693 -0.88969,1.538177 -0.23712,0.31654 -0.74103,1.113971 -1.09531,1.739843 -0.67155,1.18633 -1.73041,2.09669 -3.02496,2.601856 -0.19119,0.0746 -0.62837,0.201706 -1.21789,0.367738 -0.58951,0.166033 -1.32009,0.362505 -2.04827,0.549634 -1.64647,0.423107 -2.63115,0.726928 -3.17125,1.016225 -0.27005,0.144654 -0.42561,0.282001 -0.51405,0.419144 -0.0884,0.137142 -0.11861,0.284588 -0.11861,0.490318 0,0.283709 0.0214,0.403046 0.11072,0.518 0.0893,0.114933 0.28876,0.251642 0.68012,0.46264 0.4178,0.225243 0.6386,0.324549 0.96482,0.363785 0.32622,0.03923 0.77925,0.01174 1.62121,-0.06327 1.00773,-0.08981 3.34549,-0.167714 5.22349,-0.17399 l 3.34524,-0.0079 1.3444201,-0.889692 c 1.31911,-0.869931 2.50551,-1.807084 5.875927,-4.64617 0.833572,-0.702163 2.230363,-1.796999 3.49550096,-2.760022 0.63257,-0.481512 1.23253,-0.928964 1.71216204,-1.277202 0.479637,-0.34824 0.821204,-0.590001 1.004364,-0.688029 0.07084,-0.0379 0.291259,-0.191927 0.54568,-0.38751 0.254416,-0.195611 0.558262,-0.43772 0.84224,-0.680121 0.300712,-0.25668 0.597974,-0.472004 0.850151,-0.620806 0.126088,-0.07438 0.23975,-0.131919 0.344014,-0.170021 0.104264,-0.038 0.194599,-0.08046 0.332151,-0.02768 -0.02272,-0.0087 0.0447,-9.45e-4 0.142346,-0.05932 0.09764,-0.05837 0.218312,-0.159008 0.320289,-0.288655 0.128133,-0.162915 0.285851,-0.30799 0.446822,-0.41519 0.160972,-0.10722 0.318226,-0.185853 0.498228,-0.185853 0.07201,0 0.155283,-0.02004 0.221435,-0.04745 0.06614,-0.02739 0.109184,-0.07106 0.106754,-0.06721 0.04286,-0.06934 0.08748,-0.105742 0.150262,-0.162125 0.06278,-0.05638 0.140604,-0.121878 0.229342,-0.189801 0.177472,-0.135827 0.402597,-0.289719 0.63267,-0.434959 0.4256,-0.268668 1.234818,-0.912849 1.759614,-1.403738 l 1.1150799,-1.043905 1.380012,1.328606 c 0.674258,0.648421 1.644677,1.462903 2.115491,1.78334 0.701913,0.477719 1.862732,1.082896 2.973548,1.581675 1.110815,0.498778 2.196203,0.89239 2.669076,0.956912 0.25291,0.0345 0.611139,0.111917 0.834332,0.181886 1.292716,0.405214 2.75652,0.45686 9.118357,0.292609 1.472018,-0.0379 2.230302,-0.05318 2.74025,0.004 0.509949,0.05713 0.772117,0.208886 1.14276,0.454733 0.263946,0.175082 0.590886,0.507652 0.968777,0.956912 0.377891,0.449259 0.79829,1.012529 1.20998,1.621217 1.51889,2.245672 2.311262,3.002406 4.626401,4.432643 1.034426,0.638997 1.728274,0.939107 2.131306,0.941097 0.201523,9.92e-4 0.32614,-0.05458 0.446823,-0.177937 0.120683,-0.123356 0.231397,-0.330242 0.324243,-0.63267 0.156821,-0.510875 0.09173,-1.050449 -0.328197,-1.866376 -0.41967,-0.815912 -1.198795,-1.883695 -2.43156,-3.376858 -2.772085,-3.357645 -3.533532,-5.225467 -3.538998,-8.667578 -0.0013,-0.809826 -0.0168,-1.281014 -0.07513,-1.581675 -0.05831,-0.300665 -0.144431,-0.433548 -0.336106,-0.656396 -0.318419,-0.370185 -0.754829,-0.572227 -1.344423,-0.601036 -0.589596,-0.02881 -1.3297,0.123963 -2.190621,0.470548 l -1.447231,0.585219 -1.973141,-0.347968 c -1.069596,-0.189518 -2.394472,-0.559582 -3.017043,-0.854105 -0.607653,-0.287465 -1.367128,-0.867628 -2.032452,-1.48282 -0.665324,-0.61519 -1.227115,-1.235573 -1.4156,-1.720071 -0.06424,-0.165142 -0.176196,-0.575452 -0.332152,-1.146713 -0.155951,-0.571264 -0.347246,-1.285723 -0.52986,-1.9929108 -0.182614,-0.707189 -0.359373,-1.405721 -0.49032,-1.945461 -0.06547,-0.269869 -0.120055,-0.499922 -0.158178,-0.672211 -0.01903,-0.08614 -0.03276,-0.157024 -0.04349,-0.213527 -0.01073,-0.05651 -0.01984,-0.08205 -0.01984,-0.142345 0,-0.08892 0.04278,-0.138256 0.07118,-0.170021 0.02842,-0.03179 0.05339,-0.05094 0.08305,-0.07118 0.05932,-0.04039 0.131292,-0.07815 0.213527,-0.114671 0.164474,-0.07304 0.379365,-0.145625 0.616852,-0.20957 0.444039,-0.11957 1.206404,-0.631506 1.763568,-1.138806 0.278583,-0.253651 0.510292,-0.507168 0.636624,-0.695937 0.06171,-0.09222 0.09151,-0.169333 0.09886,-0.201665 -0.113637,-0.08548 -0.214951,-0.204713 -0.221434,-0.355876 -0.0071,-0.168746 0.06426,-0.311774 0.166073,-0.502182 -0.02446,0.0059 -0.04881,0.01701 -0.07513,0.01984 -0.03883,0.004 -0.08286,0.0043 -0.13445,-0.01194 -0.05159,-0.0162 -0.105924,-0.05349 -0.138397,-0.102807 -0.06495,-0.09866 -0.05422,-0.185185 -0.04349,-0.260975 0.01073,-0.0758 0.03375,-0.155384 0.06327,-0.253068 0.32,-1.058614 0.320061,-2.00591002 0.01984,-2.82328902 -0.183322,-0.49900798 -0.418344,-1.18476998 -0.525908,-1.53817998 -0.06847,-0.224953 -0.145362,-0.359284 -0.304471,-0.498228 -0.159109,-0.138944 -0.411865,-0.278312 -0.818517,-0.454731 -1.32589,-0.575233 -2.543758,-0.677912 -3.550861,-0.328197 -0.242852,0.08434 -0.463202,0.139775 -0.636624,0.166074 -0.08669,0.01316 -0.156963,0.02057 -0.233296,0.01194 -0.03818,-0.0043 -0.08208,-0.0081 -0.13445,-0.03954 -0.01761,-0.01053 -0.02233,-0.04634 -0.03954,-0.06721 -0.0053,0 -0.0049,0.0011 -0.03164,0.004 -0.07997,0.0085 -0.219805,0.0444 -0.367738,0.09886 -0.295851,0.108941 -0.641556,0.313181 -0.719663,0.407281 -0.08602,0.103657 -0.195915,0.179476 -0.312381,0.225389 -0.116472,0.04588 -0.246265,0.06697 -0.379602,0.01579 0.0024,9.32e-4 -0.0038,-0.0057 -0.06327,0.03954 -0.05938,0.04529 -0.143095,0.138823 -0.221434,0.268883 -0.15666,0.260112 -0.29993,0.654264 -0.363785,1.067631 l -0.146293,0.95280098 -2.771886,-0.83828598 c -1.410607,-0.425072 -3.3171279,-1.111471 -4.2705319,-1.542134 -1.263421,-0.570703 -2.646834,-1.29272 -3.760432,-1.937551 -0.556794,-0.322417 -1.04378,-0.623495 -1.419551,-0.881784 -0.375772,-0.258289 -0.630856,-0.445278 -0.763158,-0.644534 -0.140038,-0.210915 -0.239467,-0.364754 -0.229345,-0.565447 0.01012,-0.200693 0.128194,-0.34069 0.288656,-0.517999 0.153521,-0.169617 0.206702,-0.327359 0.173989,-0.569403 -0.03272,-0.242045 -0.170183,-0.566047 -0.434961,-0.984593 -0.115237,-0.182148 -0.19223,-0.322034 -0.213527,-0.474502 -0.01073,-0.07622 -0.0032,-0.167207 0.04349,-0.24516 0.04675,-0.07794 0.125967,-0.126352 0.197717,-0.150262 0.05912,-0.01964 0.05831,-0.02172 0.06721,-0.04745 0.0089,-0.02573 0.01336,-0.10556 -0.02373,-0.241206 -0.0742,-0.2713032 -0.302236,-0.7398152 -0.703845,-1.4274622 -0.323751,-0.554336 -0.562621,-0.964618 -0.759204,-1.23766 -0.196583,-0.273032 -0.34151,-0.389929 -0.462641,-0.419143 -0.12112804,-0.02921 -0.28484504,0.0085 -0.55753904,0.166073 -0.272694,0.157631 -0.632714,0.424828 -1.12299,0.78293 l -1.83078696,1.336514 -0.711754,-0.838286 c -0.430305,-0.506525 -1.095135,-1.467774 -1.65285,-2.340879 -0.278859,-0.436554 -0.528993,-0.849529 -0.707801,-1.170439 -0.0894,-0.160445 -0.16006,-0.296721 -0.20957,-0.407282 -0.02476,-0.05529 -0.04515,-0.102948 -0.05932,-0.150261 -0.01417,-0.04729 -0.0397,-0.08554 -0.004,-0.193749 -0.02545,0.07701 -0.0095,0.0024 -0.0514,-0.07908 -0.04181,-0.08153 -0.110965,-0.185306 -0.193755,-0.276794 -0.13937,-0.153986 -0.23857,-0.281741 -0.26888,-0.446822 -0.0303,-0.16508 0.0506,-0.33134 0.16213,-0.44287 0.0464,-0.0464 0.0521,-0.0296 0.0198,-0.13048 -0.0324,-0.10092 -0.14245,-0.28566 -0.34006,-0.54963 -0.38815,-0.51849 -1.16113,-1.4339 -1.89801,-2.26575 -0.73689,-0.83185 -1.46509,-1.60038 -1.6844901,-1.77939 -0.2167,-0.17682 -0.37787,-0.36014 -0.43496,-0.62871 -0.057,-0.26857 -0.0334,-0.59102 0.0198,-1.15067 0.18972,-1.99663 0.5040801,-4.49883 0.8343401,-6.64303 0.1901,-1.23427 0.23462,-2.70285 0.16607,-3.81184 -0.0343,-0.55449 -0.0982,-1.02185 -0.17794,-1.30884 -0.0386,-0.13912 -0.0816,-0.23269 -0.1028,-0.26097 -0.047,0.01 -0.0936,0.0282 -0.13049,0.0158 -0.0581,-0.0194 -0.0932,-0.05 -0.1225801,-0.0791 -0.0588,-0.0582 -0.0979,-0.12287 -0.1384,-0.20166 -0.081,-0.15759 -0.15909,-0.36991 -0.22143,-0.61686 -0.11558,-0.45765 -0.42168,-1.47663 -0.67617,-2.24202 -0.25901,-0.77898 -0.57255,-1.90184 -0.70384,-2.52277 -0.0627,-0.29665 -0.13921,-0.59873 -0.21353,-0.8462 -0.0743,-0.24747 -0.16225,-0.45498 -0.18189,-0.48636 -0.0241,-0.0384 -0.0321,-0.0506 -0.0474,-0.0712 z m -12.49128,31.352745 c 0.11251,0.01458 0.18286,0.07661 0.24516,0.138397 0.12457,0.123558 0.22467,0.295673 0.31634,0.498227 0.18332,0.405109 0.33167,0.8971302 0.2333,1.2890652 -0.0194,0.07764 -0.0292,0.279278 -0.0158,0.502182 0.0134,0.222904 0.0457,0.476906 0.0949,0.695937 0.0542,0.241496 0.0882,0.460766 0.0949,0.63267 0.003,0.08594 -2.2e-4,0.156396 -0.0158,0.229342 -0.008,0.03648 -0.016,0.07614 -0.0475,0.122586 -0.0315,0.04644 -0.1088,0.102807 -0.19375,0.102807 -0.17727,0 -0.27055,-0.11459 -0.34797,-0.225389 -0.0774,-0.110803 -0.14686,-0.251039 -0.21353,-0.415189 -0.13333,-0.32831 -0.256,-0.753062 -0.35587,-1.198119 -0.0999,-0.445058 -0.17298,-0.907099 -0.20167,-1.2969732 -0.0144,-0.194944 -0.0209,-0.372223 -0.008,-0.525908 0.013,-0.153683 0.036,-0.284485 0.11468,-0.403326 0.058,-0.08762 0.18799,-0.16089 0.30051,-0.146313 z m 43.30626,7.7976572 c 0,0.02668 0.01255,0.06837 0.03559,0.09489 0.01336,0.01539 0.0211,0.01802 0.03164,0.02373 -0.02859,-0.03944 -0.06721,-0.07041 -0.06721,-0.118618 z M -19.173244,21.73983 c -0.12873,0.02762 -0.27097,0.06327 -0.36774,0.06327 -0.22485,0 -0.60207,0.08861 -0.73944,0.162125 -0.16826,0.09005 -0.40563,0.136009 -0.74338,0.193749 -0.33776,0.05774 -0.75135,0.107787 -1.16253,0.142346 -0.40179,0.03377 -0.78917,0.07695 -1.08345,0.118618 -0.14715,0.02083 -0.27009,0.0411 -0.35983,0.05932 -0.0449,0.0091 -0.0792,0.01701 -0.10281,0.02373 -0.0237,0.0067 -0.0412,0.01964 -0.0158,0.004 -0.0707,0.04361 -0.11141,0.04401 -0.17002,0.05535 -0.0586,0.01134 -0.1282,0.02272 -0.20957,0.03164 -0.16278,0.01761 -0.37262,0.03114 -0.62081,0.04349 -0.49639,0.02486 -1.13803,0.03883 -1.80311,0.04349 -1.33017,0.0091 -2.72846,-0.01741 -3.28198,-0.106755 -0.034,-0.0055 -0.0783,-0.0065 -0.11467,-0.01194 0.29043,0.03296 0.45953,0.18146 0.76316,0.205616 2.4321,0.193385 5.26083,0.107544 6.33461,-0.166073 0.51095,-0.130198 1.47738,-0.313106 2.1748,-0.411235 0.45066,-0.06341 1.01464,-0.331086 1.50259,-0.450777 z" id="path3811-3" />
         <path style="display:inline;fill:#ffffff;stroke-width:0.14007553" d="m -13.820004,10.126437 c -0.5163,-0.3616338 -0.59535,-1.0585768 -0.59535,-5.2487058 0,-4.11926002 0.0746,-4.81467102 0.56383,-5.25744102 0.27547,-0.24931 0.33312,-0.246891 1.99529,0.08406 1.47788,0.294252 2.1037501,0.340778 4.5831701,0.340778 2.488624,0 3.102595,-0.0459799989 4.604181,-0.344869 l 1.73262696,-0.344869 0.333487,0.3877 0.333483,0.387698 v 4.76112202 4.761125 l -0.343824,0.34382 -0.34382,0.3438248 H -7.2355239 c -5.4080701,0 -6.3210101,-0.02956 -6.5844801,-0.214254 z m 7.9049251,-2.4604538 c 0.111047,-0.111046 0.05717,-0.516257 -0.195385,-1.469788 l -0.34874,-1.316454 0.36349,-0.431977 c 0.976439,-1.160434 -0.22052,-2.849124 -1.67845,-2.367965 -0.99127,0.327146 -1.34658,1.571311 -0.67624,2.367965 l 0.36349,0.431977 -0.34874,1.316454 c -0.25259,0.953531 -0.30645,1.358726 -0.19538,1.469788 0.0873,0.08728 0.6722,0.153339 1.35798,0.153339 0.68578,0 1.2707,-0.06606 1.357986,-0.153339 z m -5.5356051,-8.980552 -0.74577,-0.135786 0.0454,-1.913704 c 0.041,-1.730279 0.0814,-1.990505 0.42095,-2.714984 0.46393,-0.989838 1.41024,-1.929186 2.4655101,-2.447392 0.71559,-0.3514 0.9501,-0.393286 2.20165,-0.393264 1.245473,2.5e-5 1.487902,0.04286 2.186831,0.386222 0.941334,0.462471 2.122602,1.664823 2.544831,2.590248 0.249966,0.547886 0.312818,0.990371 0.355688,2.5043 l 0.05207,1.83883 -0.748727,0.165284 c -1.553839,0.342988 -1.379066,0.48452398 -1.379066,-1.116799 0,-1.950376 -0.180326,-2.569626 -0.981732,-3.371015 -0.50728,-0.507282 -0.810785,-0.686555 -1.362695,-0.804922 -1.41126,-0.302659 -2.79507,0.398813 -3.4127,1.729956 -0.2059501,0.443898 -0.2605901,0.902232 -0.2630401,2.20619 -0.004,1.87407198 0.1136501,1.748613 -1.37919,1.476836 z" id="path3848-6" />
      </g>
   </g>
   <g class="item badge-trigger" id="starme">
      <path style="opacity:1;vector-effect:none;fill:#ffff00;fill-opacity:0.73333333;stroke:#ffcc00;stroke-width:1;stroke-linecap:round;stroke-linejoin:miter;stroke-miterlimit:4;stroke-dasharray:none;stroke-dashoffset:0;stroke-opacity:1;paint-order:markers fill stroke" id="path2276" d="m 48,103.70133 c 0.160294,0 3.892576,4.66829 4.022256,4.76251 0.129681,0.0942 5.722823,2.20125 5.772357,2.3537 0.04953,0.15245 -3.236932,5.14464 -3.286465,5.29709 -0.04953,0.15244 -0.325064,6.12295 -0.454745,6.21717 -0.12968,0.0942 -5.893109,-1.48873 -6.053403,-1.48873 -0.160294,0 -5.923723,1.58294 -6.053404,1.48872 -0.12968,-0.0942 -0.40521,-6.06472 -0.454744,-6.21716 -0.04953,-0.15245 -3.335998,-5.14464 -3.286464,-5.29709 0.04953,-0.15245 5.642675,-2.25948 5.772355,-2.3537 0.129681,-0.0942 3.861963,-4.76251 4.022257,-4.76251 z" />
      <path d="m 114.5,40.451335 c 0.16029,0 3.89258,4.668285 4.02226,4.762504 0.12968,0.09422 5.72282,2.20125 5.77235,2.353699 0.0495,0.152449 -3.23693,5.144639 -3.28646,5.297087 -0.0495,0.152449 -0.32507,6.122952 -0.45475,6.21717 -0.12968,0.09422 -5.89311,-1.488724 -6.0534,-1.488724 -0.16029,0 -5.92372,1.582942 -6.0534,1.488724 -0.12968,-0.09422 -0.40521,-6.064721 -0.45475,-6.21717 -0.0495,-0.152448 -3.336,-5.144639 -3.28646,-5.297088 0.0495,-0.152449 5.64267,-2.25948 5.77235,-2.353698 0.12968,-0.09422 3.86197,-4.762504 4.02226,-4.762504 z" id="path2278" style="opacity:1;vector-effect:none;fill:#ffff00;fill-opacity:0.73333333;stroke:#ffcc00;stroke-width:1;stroke-linecap:round;stroke-linejoin:miter;stroke-miterlimit:4;stroke-dasharray:none;stroke-dashoffset:0;stroke-opacity:1;paint-order:markers fill stroke" />
   </g>

</svg>
