<?xml version="1.0" encoding="UTF-8" standalone="no"?>
<svg xmlns="http://www.w3.org/2000/svg"
   xmlns:xlink="http://www.w3.org/1999/xlink" viewBox="0 0 100 100" height="25" width="25">

   <g id="badges-bosco">
      <g class="item" id="bosco">
         <image y="0" x="-17" id="image19967" xlink:href="~/badges/copertina-alice.jpg" preserveAspectRatio="none" height="100" width="134.73685" />
         <path id="path3776-7-36" d="m 50.336988,59.766313 c -1.03274,-0.0034 -1.311711,0.02925 -1.912499,0.226073 -0.388227,0.127176 -0.856553,0.332954 -1.000918,0.430263 -0.119024,0.08023 -0.348367,0.30591 -0.577943,0.567004 -0.229577,0.261099 -0.465885,0.561467 -0.618053,0.796726 -0.491589,0.760015 -0.918067,1.454185 -1.228813,1.996363 -0.475526,0.829685 -0.77682,1.330531 -1.000918,1.631733 -0.112048,0.150605 -0.204315,0.25152 -0.295353,0.319055 -0.09104,0.06753 -0.185296,0.09895 -0.275298,0.100273 -0.142558,0.002 -0.212026,0.05768 -0.216956,0.06382 0.0087,0.01004 0.03736,0.03283 0.09481,0.05105 0.05059,0.01607 0.100889,0.02778 0.144031,0.07657 0.02157,0.0244 0.03577,0.05939 0.03829,0.09298 0.0025,0.03356 -0.004,0.06465 -0.01459,0.0948 -0.04216,0.1206 -0.150813,0.268467 -0.35734,0.55789 -0.719351,1.008081 -0.777981,1.965065 -0.191433,3.263463 0.499624,1.10598 1.757692,2.08165 2.935295,2.277133 l 0.432091,0.0711 0.06746,2.204207 c 0.03529,1.170234 0.106783,3.186144 0.160438,4.477692 0.05371,1.292907 0.101866,2.843409 0.105745,3.451251 0.0033,0.532003 0.0042,0.813965 -0.03828,1.041027 -0.04248,0.227062 -0.129312,0.386612 -0.282591,0.654517 -0.162901,0.284719 -0.308092,0.48372 -0.581589,0.70374 -0.273498,0.220021 -0.672803,0.465427 -1.363728,0.869651 -0.33176,0.194095 -1.145411,0.601126 -1.821341,0.913405 -0.672451,0.310673 -1.365976,0.650894 -1.509581,0.736559 -0.182075,0.108613 -0.573739,0.257363 -0.904289,0.350048 -0.321098,0.09003 -1.071954,0.313616 -1.664549,0.495901 -0.595582,0.183201 -1.297545,0.37435 -1.578862,0.428443 -0.26649,0.05125 -0.75667,0.157501 -1.086605,0.235188 l -0.782139,0.18414 0.215134,-0.514132 c 0.04295,-0.102823 0.06474,-0.189841 0.0711,-0.253421 0.0063,-0.06358 -0.0061,-0.100791 -0.01094,-0.107567 -0.0048,-0.0068 0.0072,-0.0062 -0.02005,0 -0.0273,0.0062 -0.08367,0.03358 -0.151323,0.0948 -0.04845,0.04385 -0.08407,0.07869 -0.116683,0.10392 -0.03261,0.02523 -0.05529,0.05685 -0.12762,0.0474 -0.03617,-0.0048 -0.07246,-0.03428 -0.0857,-0.05834 -0.0087,-0.01575 -0.0084,-0.02749 -0.01094,-0.04012 4.46e-4,0.0048 -4.68e-4,0.0043 0,0.0092 l 0.0711,0.743842 -0.43209,-0.381042 c -0.140633,-0.124395 -0.384919,-0.346956 -0.545126,-0.495901 -0.143223,-0.133155 -0.244696,-0.199877 -0.291707,-0.220603 6.86e-4,-0.002 0.0089,0.03828 0.0237,0.0948 0.01575,0.05986 0.03714,0.13945 0.06563,0.231542 0.05698,0.184184 0.135302,0.420927 0.21878,0.661808 0.166954,0.481764 0.361472,0.994536 0.437559,1.143125 l 0.11486,0.226072 0.689156,-0.05834 c 0.413213,-0.03469 1.257887,-0.1027 1.87786,-0.151322 0.615323,-0.04826 1.716798,-0.178484 2.441218,-0.289884 0.364647,-0.05607 0.730484,-0.109054 1.024619,-0.145853 0.294133,-0.03681 0.508152,-0.05877 0.607113,-0.05834 0.564169,0.0022 1.118191,0.413927 1.454886,1.050143 0.592446,1.119488 1.596124,1.822011 2.773033,1.94167 0.330717,0.03362 0.759242,0.12746 0.984508,0.222426 l 0.512318,0.216926 -0.579767,0.495901 c -0.468905,0.402851 -2.610027,1.936276 -3.341861,2.395639 -0.07732,0.04853 -0.137018,0.08596 -0.185964,0.113036 -0.04894,0.02707 -0.08167,0.04495 -0.127621,0.05287 -0.02297,0.0039 -0.05945,0.0051 -0.0948,-0.02188 -0.03535,-0.02704 -0.04232,-0.06862 -0.04193,-0.09298 7.84e-4,-0.04872 0.01416,-0.07789 0.03099,-0.118506 0.09531,-0.230036 0.161408,-0.455221 0.18961,-0.630816 0.01411,-0.0878 0.01844,-0.163456 0.01459,-0.216955 -0.0038,-0.05288 -0.02003,-0.07814 -0.01824,-0.07657 -0.0076,0.0087 -0.03442,0.03505 -0.06746,0.107567 -0.07198,0.157973 -0.16751,0.265464 -0.291707,0.289883 -0.0621,0.01221 -0.136509,-0.01048 -0.17867,-0.06381 -0.02248,-0.02843 -0.0213,-0.07158 -0.02917,-0.107566 -0.0084,0.07426 -0.01551,0.152882 -0.01276,0.249773 l 0.02005,0.711035 -0.937107,-0.929814 c -0.210171,-0.208939 -0.40754,-0.391918 -0.556064,-0.515956 -0.04381,-0.03658 -0.07209,-0.0549 -0.105744,-0.08022 0.005,0.02263 0.0058,0.03728 0.01276,0.06381 0.03553,0.13652 0.0965,0.319205 0.169554,0.51231 0.148287,0.391963 0.349741,0.933026 0.448499,1.203289 0.09672,0.264693 0.311638,0.783562 0.474022,1.144948 0.170096,0.378542 0.315934,0.567045 0.421152,0.60529 0.05261,0.01912 0.101075,0.01553 0.176847,-0.0237 0.07577,-0.03923 0.17013,-0.116062 0.280768,-0.231542 0.163339,-0.170491 0.396653,-0.331893 0.577942,-0.377394 0.02237,-0.0056 0.09755,-0.03144 0.196902,-0.0711 0.09935,-0.03967 0.228322,-0.09513 0.375573,-0.158616 0.2945,-0.126968 0.664514,-0.293438 1.041026,-0.468554 0.756265,-0.351736 1.844942,-0.82915 2.424809,-1.064728 0.574773,-0.233508 1.443475,-0.610185 1.923439,-0.833186 l 0.906114,-0.419328 0.72015,0.162262 c 1.103969,0.251092 1.867086,0.209142 2.594363,-0.134914 1.474936,-0.697755 3.393236,-2.793535 3.990908,-4.36648 0.09575,-0.252005 0.22671,-0.797089 0.284414,-1.185057 0.11412,-0.767292 -0.0016,-1.387024 -0.415682,-2.198737 -0.09854,-0.193163 -0.156115,-0.33576 -0.167731,-0.72015 -0.01162,-0.38439 0.01513,-1.023777 0.06928,-2.268018 0.133948,-3.077543 0.209218,-7.280893 0.222427,-10.867885 0.0066,-1.793495 -0.0014,-3.434274 -0.02735,-4.701943 -0.02598,-1.267659 -0.07233,-2.175795 -0.127626,-2.459441 -0.299782,-1.537692 -1.091626,-2.995022 -2.198733,-4.051074 -1.075618,-1.026012 -1.585798,-1.359849 -2.76574,-1.810402 -0.465414,-0.177714 -0.740038,-0.211849 -1.759355,-0.215132 z" style="display:inline;fill:#f2f2f2;stroke-width:0.09798989" />
         <path style="display:inline;fill:#f2f2f2;stroke-width:0.09331803" d="m 78.952523,58.25683 c -0.01302,0.01125 -0.02879,0.02417 -0.05166,0.04797 -0.0099,0.01026 -0.04577,0.06209 -0.08672,0.132838 -0.04092,0.07075 -0.09035,0.16333 -0.145753,0.273058 -0.110811,0.219465 -0.245203,0.504118 -0.381914,0.809949 -0.273426,0.611667 -0.559605,1.310381 -0.701093,1.739821 l -0.31549,0.957545 -0.492612,-1.023964 c -0.216755,-0.450409 -0.531446,-1.162253 -0.701094,-1.588534 -0.08313,-0.208883 -0.166181,-0.393555 -0.232469,-0.520285 -0.01437,-0.02748 -0.02263,-0.03938 -0.03504,-0.06088 -9.33e-4,0.0023 -9.33e-4,0.0033 -0.0019,0.0056 -0.02683,0.08394 -0.05772,0.203074 -0.09225,0.345011 -0.06908,0.283873 -0.147886,0.658792 -0.219554,1.035036 -0.07167,0.376245 -0.13651,0.754117 -0.177117,1.046105 -0.0203,0.145996 -0.03434,0.269768 -0.04059,0.359773 -0.0033,0.04503 -0.0047,0.08301 -0.0037,0.107008 9.33e-4,0.02403 0.014,0.03966 -0.0037,0.01106 0.01386,0.02244 0.02944,0.05513 0.01661,0.101474 -0.01283,0.04633 -0.05963,0.07514 -0.08856,0.08118 -0.05274,0.01106 -0.08903,-0.0037 -0.132838,-0.0203 -0.0019,0.01638 -0.0019,0.03019 -0.0019,0.05904 9.33e-4,0.169643 0.04069,0.54228 0.123613,1.252743 0.09655,0.827283 0.424685,1.85882 0.990757,3.097729 0.252827,0.553334 0.387219,0.835191 0.392981,1.066401 0.0028,0.115607 -0.03518,0.217995 -0.103317,0.302579 -0.06816,0.08458 -0.160964,0.15697 -0.278592,0.24907 -0.572006,0.447843 -1.196751,1.185354 -1.562703,1.844986 -0.17002,0.306461 -0.419921,0.923185 -0.623607,1.507352 -0.101838,0.292083 -0.192785,0.577325 -0.258294,0.811793 -0.06551,0.234467 -0.104031,0.425761 -0.105165,0.49999 l -0.0092,0.605156 -0.311804,-0.573791 c -0.07218,-0.13305 -0.143957,-0.199779 -0.186342,-0.217708 -0.04241,-0.01793 -0.05702,-0.01493 -0.09963,0.03136 -0.08522,0.09257 -0.177057,0.39403 -0.167893,0.826553 0.0062,0.288771 0.08001,0.654808 0.175275,0.940942 0.04763,0.143068 0.100863,0.266453 0.149444,0.348702 0.02431,0.04112 0.04806,0.07265 0.06458,0.08856 0.01652,0.01589 0.02212,0.01107 0.0092,0.01107 0.03859,0 0.06042,0.01709 0.07564,0.02952 0.01521,0.01242 0.0251,0.0236 0.03504,0.0369 0.01992,0.02659 0.03737,0.05927 0.05535,0.09594 0.03597,0.07334 0.07353,0.167466 0.105165,0.273058 0.04818,0.160793 0.161066,0.341233 0.287816,0.474161 0.126749,0.132924 0.271821,0.210328 0.337634,0.210328 0.0433,0 0.07083,0.0115 0.10885,0.02583 0.03803,0.01434 0.08187,0.03362 0.129152,0.0572 0.09455,0.04715 0.206,0.110329 0.313647,0.180808 l 0.531353,0.348703 -0.750907,0.298887 c -0.384657,0.152364 -0.580886,0.242345 -0.664191,0.324717 -0.04167,0.04119 -0.0606,0.07873 -0.0738,0.138374 -0.0132,0.05964 -0.01661,0.141885 -0.01661,0.254607 0,0.426299 0.139968,0.925194 0.343168,1.326544 0.2032,0.401351 0.478847,0.696083 0.680797,0.745374 0.170002,0.0415 0.40052,0.169075 0.55903,0.300732 0.134355,0.111598 0.246225,0.172659 0.317338,0.188189 0.07111,0.01552 0.08921,0.0079 0.11808,-0.03875 0.03989,-0.06441 0.09632,-0.08663 0.158757,-0.107047 0.06244,-0.02041 0.13344,-0.03136 0.206639,-0.03136 0.09118,0 0.170408,0.01525 0.234317,0.06457 0.0639,0.04933 0.09533,0.12857 0.101474,0.210328 0.0077,0.102321 0.01899,0.235828 0.02398,0.295198 0.0037,0.04582 -0.01292,0.06643 -0.02585,0.08672 -0.01292,0.02029 -0.02823,0.03827 -0.04614,0.0572 -0.03579,0.03787 -0.08225,0.07933 -0.14022,0.12546 -0.115952,0.09225 -0.275316,0.201667 -0.450175,0.308112 -0.343541,0.209125 -0.972617,0.595741 -1.398497,0.857918 -0.548911,0.33791 -1.190141,0.6911 -1.767499,0.981531 -0.577354,0.290433 -1.086763,0.516867 -1.387424,0.60331 -0.04335,0.01245 -0.08469,0.03701 -0.110699,0.06088 -0.02604,0.02387 -0.02953,0.04503 -0.02953,0.04059 0,0.04025 -0.01199,0.09691 -0.0572,0.132839 -0.04521,0.03589 -0.09671,0.03693 -0.14391,0.03136 -0.09441,-0.01109 -0.212868,-0.05603 -0.407739,-0.132839 -0.448501,-0.176784 -0.447894,-0.17534 -0.911423,-0.04059 -0.368592,0.107159 -0.594842,0.124397 -0.800725,0.04613 -0.158766,-0.06036 -0.425558,-0.0894 -0.693712,-0.08118 -0.268154,0.0082 -0.541039,0.05318 -0.714009,0.125459 -0.117697,0.04918 -0.2113,0.08015 -0.293354,0.08856 -0.04101,0.0042 -0.07941,0.0031 -0.118075,-0.0093 -0.03868,-0.01237 -0.07733,-0.03956 -0.09963,-0.07565 0.0023,0.0041 -0.0023,-0.0043 -0.02216,-0.0074 -0.01974,-0.003 -0.04957,-1.42e-4 -0.07564,0.01107 -0.100551,0.04322 -0.250769,0.08046 -0.367156,0.09225 -0.149924,0.0152 -0.342971,0.07472 -0.490764,0.143909 -0.0739,0.03458 -0.137396,0.07226 -0.177117,0.103319 -0.03971,0.03105 -0.04059,0.06075 -0.04059,0.03136 0,0.07318 -0.02953,0.125335 -0.06641,0.195569 -0.03686,0.07023 -0.08504,0.147559 -0.14022,0.217708 -0.127448,0.162138 -0.166352,0.32647 -0.166016,0.771283 2.05e-4,0.27155 0.0089,0.416032 0.0461,0.523976 0.03723,0.107944 0.105641,0.195727 0.254609,0.357927 0.09119,0.09929 0.174341,0.198013 0.23616,0.276748 0.03089,0.03936 0.05627,0.07392 0.07564,0.103319 0.0097,0.0147 0.01876,0.02678 0.02585,0.04059 0.0033,0.0061 0.0063,0.01884 0.0092,0.02583 1.91e-4,2.46e-4 0.0033,0.0062 0.0092,0.01292 0.01208,0.01341 0.03369,0.0345 0.06088,0.05904 0.05443,0.04907 0.132857,0.114067 0.22324,0.184499 0.180762,0.140855 0.409036,0.30344 0.592243,0.418811 0.04363,0.02748 0.0876,0.0594 0.125457,0.08856 0.03789,0.02916 0.06714,0.05247 0.09225,0.08302 -0.01152,-0.01403 -0.0051,-0.0063 0.0037,0 0.0088,0.0063 0.02333,0.01672 0.04059,0.02768 0.03453,0.02192 0.08173,0.05104 0.140219,0.08487 0.116984,0.06765 0.27324,0.153908 0.439103,0.241693 0.131266,0.06948 0.32072,0.06065 0.455714,0.121769 -0.11787,-0.05716 -0.233477,-0.109849 -0.357926,-0.175274 -0.193247,-0.101587 -0.379034,-0.205556 -0.520285,-0.291508 -0.07063,-0.04297 -0.131112,-0.08166 -0.175274,-0.114388 -0.02207,-0.01636 -0.03901,-0.03167 -0.05535,-0.04797 -0.0082,-0.0081 -0.01586,-0.0154 -0.02398,-0.02768 -0.0042,-0.0061 -0.0091,-0.01415 -0.01292,-0.02398 -0.0019,-0.0044 -0.0042,-0.009 -0.0055,-0.01476 0,0 0,-0.0019 0,-0.0019 -0.0071,-0.0035 -0.0202,-0.0074 -0.03873,-0.0074 -0.05188,0 -0.08575,-0.01896 -0.125462,-0.04059 -0.03971,-0.02162 -0.08173,-0.04957 -0.129147,-0.08487 -0.09484,-0.07056 -0.207462,-0.168246 -0.326559,-0.280382 -0.238199,-0.224274 -0.50277,-0.50958 -0.697403,-0.765669 -0.114781,-0.151019 -0.188559,-0.26345 -0.223245,-0.396671 -0.03467,-0.133222 -0.0279,-0.273894 -0.0074,-0.483387 0.04891,-0.499098 0.255369,-0.956784 0.560874,-1.154959 0.06266,-0.04064 0.139296,-0.06204 0.234312,-0.08118 0.09503,-0.01915 0.203452,-0.03123 0.30627,-0.03321 0.086,-0.0017 0.152006,-0.0023 0.210329,0.0037 0.05832,0.0059 0.116069,0.01966 0.160512,0.06273 0.04447,0.04308 0.061,0.100809 0.06827,0.158669 0.0073,0.05786 0.0074,0.123409 0.0074,0.208483 0,0.193362 0.08169,0.366816 0.258295,0.531355 0.176604,0.164538 0.450077,0.314901 0.815483,0.439106 0.177551,0.06035 0.319604,0.122102 0.426192,0.188189 0.106593,0.06609 0.184439,0.135303 0.21033,0.234313 0.0088,0.03352 0.01694,0.04628 0.02212,0.05166 0.0052,0.0054 0.01465,0.0134 0.0535,0.02029 0.0777,0.01387 0.249098,0.0099 0.555345,-0.01107 1.234965,-0.08472 1.680956,-0.192709 1.975976,-0.440951 0.183346,-0.154276 0.297778,-0.247909 0.435417,-0.260142 0.06881,-0.0061 0.137061,0.01779 0.191876,0.0572 0.05482,0.03941 0.101506,0.09263 0.154978,0.158669 0.06674,0.08243 0.09475,0.104326 0.138376,0.112545 0.04363,0.0082 0.131677,-0.0024 0.29335,-0.04427 0.215933,-0.05596 0.652088,-0.124385 0.990757,-0.156824 0.324761,-0.03111 0.95603,-0.139221 1.387429,-0.238003 0.436393,-0.09992 1.066504,-0.243941 1.400344,-0.319181 0.33266,-0.07499 0.977096,-0.225256 1.429861,-0.333943 0.228013,-0.05474 0.439019,-0.09983 0.597776,-0.129149 0.07938,-0.01466 0.145399,-0.0255 0.195567,-0.03136 0.0251,-0.003 0.0469,-0.0053 0.06642,-0.0056 0.0098,-9.5e-5 0.01722,5e-5 0.02953,0.0019 0.0062,9.33e-4 0.01442,0.0022 0.02398,0.0056 0.0048,0.0017 0.0161,0.0071 0.01661,0.0074 4.66e-4,2.83e-4 0.02184,0.01627 0.02216,0.01661 4.66e-4,6.53e-4 0.02366,0.0413 0.02398,0.04243 3.78e-4,10e-4 0.0056,0.02314 0.0056,0.03136 -9.8e-5,0.01652 -0.0028,0.02732 -0.0056,0.0369 -0.0053,0.01915 -0.01344,0.03554 -0.02212,0.0535 -0.01731,0.03594 -0.04199,0.07813 -0.07381,0.12915 -0.06358,0.102045 -0.153098,0.233611 -0.2583,0.374531 -0.362909,0.486133 -0.604089,0.836947 -0.734301,1.068245 -0.06511,0.11565 -0.10299,0.202858 -0.114389,0.252763 -0.0057,0.02496 -0.0042,0.03918 -0.0037,0.04059 0.03588,0.02733 0.06008,0.06082 0.07749,0.09963 0.01974,0.04403 0.03527,0.09532 0.04797,0.154978 0.02538,0.119327 0.04148,0.272172 0.04615,0.452021 0.0072,0.279287 0.01712,0.420346 -0.03322,0.538736 -0.0252,0.05919 -0.07531,0.106083 -0.129152,0.130993 -0.05385,0.02491 -0.109127,0.03816 -0.178961,0.0535 -0.147783,0.03246 -0.344395,0.09593 -0.40221,0.125459 -0.172377,0.08803 -0.419506,0.182059 -0.654966,0.265678 0.325941,-0.105185 0.618035,-0.1407 0.957545,-0.289663 0.09489,-0.04163 0.186309,-0.07922 0.2583,-0.107008 0.03602,-0.0139 0.06702,-0.0248 0.09225,-0.03321 0.01265,-0.0042 0.02445,-0.0082 0.03504,-0.01107 0.01064,-0.0028 0.0167,-0.0056 0.04059,-0.0056 9.34e-4,0 0.01922,0.002 0.0258,0.0037 0.0066,0.0017 0.01227,0.0019 0.01661,0.0037 0.0087,0.0036 0.01414,0.0074 0.0203,0.01107 0.01232,0.0073 0.02417,0.01629 0.03691,0.02583 0.02548,0.01907 0.05547,0.04323 0.0904,0.0738 0.06985,0.06115 0.15795,0.145039 0.249071,0.236158 0.238357,0.238366 0.359708,0.298889 0.577479,0.298889 0.124412,0 0.219494,-0.01054 0.287816,-0.03137 0.06833,-0.02082 0.110181,-0.04771 0.145754,-0.09594 0.07114,-0.09644 0.112513,-0.30431 0.127304,-0.669729 l 0.02954,-0.734304 0.499994,-0.05535 c 0.158836,-0.01765 0.256643,-0.04031 0.29335,-0.05904 0.01829,-0.0094 0.02053,-0.01341 0.0203,-0.01291 -2.84e-4,5.13e-4 9.33e-4,-0.0028 -0.0019,-0.02029 -0.01013,-0.06164 0.01302,-0.111116 0.04241,-0.158669 0.02944,-0.04755 0.07088,-0.09515 0.123614,-0.147599 0.08959,-0.08911 0.230411,-0.196295 0.387447,-0.309957 -0.106276,0.07333 -0.216428,0.16288 -0.297041,0.204793 -0.06116,0.0318 -0.10272,0.05447 -0.147601,0.06642 -0.01125,0.003 -0.02202,0.0059 -0.04059,0.0056 -0.0092,-1.89e-4 -0.02109,-6.07e-4 -0.03504,-0.0056 -0.007,-0.0025 -0.0216,-0.01071 -0.02216,-0.01107 -4.67e-4,-3.59e-4 -0.02174,-0.01982 -0.02216,-0.02029 -4.06e-4,-4.66e-4 -0.01633,-0.02523 -0.01661,-0.02583 -2.8e-4,-6.07e-4 -0.0047,-0.01614 -0.0056,-0.02398 -0.0023,-0.01566 -0.0019,-0.02904 0,-0.03875 0.0037,-0.01942 0.01073,-0.02993 0.01661,-0.04059 0.02347,-0.04265 0.05561,-0.07975 0.110699,-0.14022 0.05509,-0.06048 0.130944,-0.139493 0.228778,-0.239847 0.149281,-0.153124 0.279054,-0.268487 0.38929,-0.345012 0.05512,-0.03826 0.10587,-0.06669 0.154978,-0.08487 0.04911,-0.01816 0.101236,-0.02871 0.156826,-0.0074 0.03784,0.01453 0.07964,0.03601 0.103317,0.08672 0.0237,0.05071 0.01031,0.106853 -0.01106,0.145754 -0.0377,0.06855 -0.113932,0.137347 -0.214021,0.223242 l 0.378223,-0.265677 0.380066,0.223243 c 0.09225,0.05443 0.175119,0.110424 0.238003,0.156824 0.03144,0.0232 0.05812,0.04284 0.07933,0.06273 0.01061,0.0099 0.01999,0.0189 0.02952,0.03136 0.0047,0.0062 0.0097,0.01374 0.01476,0.02398 0.0026,0.0051 0.0052,0.0108 0.0074,0.01845 0.0022,0.0077 0.0037,0.02869 0.0037,0.02952 -1e-6,4.06e-4 -7e-4,0.015 -0.0019,0.02029 -0.0011,0.0053 -0.0025,0.0095 -0.0037,0.01292 -0.0024,0.0069 -0.0053,0.01226 -0.0074,0.01661 -0.0042,0.0086 -0.0083,0.01477 -0.01291,0.02214 -0.0093,0.01477 -0.02066,0.03203 -0.03505,0.05166 -0.0288,0.03925 -0.06883,0.09016 -0.118079,0.151288 -0.0985,0.122269 -0.233423,0.282876 -0.381911,0.453866 -0.787431,0.906737 -1.474723,1.989498 -2.060849,3.250863 -0.109504,0.235648 -0.289477,0.549966 -0.41512,0.717698 -0.110638,0.147694 -0.345758,0.519768 -0.511061,0.811793 -0.313339,0.55353 -0.807392,0.978295 -1.411416,1.214 -0.08921,0.03481 -0.293192,0.09411 -0.568256,0.171583 -0.275059,0.07747 -0.615941,0.169141 -0.955702,0.256454 -0.768227,0.197418 -1.227668,0.339177 -1.479674,0.474161 -0.126002,0.06749 -0.198585,0.131578 -0.23985,0.195568 -0.04125,0.06399 -0.05534,0.132786 -0.05534,0.228777 0,0.132376 0.01,0.188058 0.05166,0.241694 0.04167,0.05363 0.134732,0.117414 0.317337,0.215863 0.194941,0.105096 0.297964,0.151432 0.450175,0.169739 0.152211,0.0183 0.363591,0.0055 0.756441,-0.02952 0.470197,-0.0419 1.560973,-0.07825 2.437229,-0.08118 l 1.560855,-0.0037 0.627294,-0.415122 c 0.615483,-0.405901 1.169046,-0.843167 2.741649,-2.167857 0.388936,-0.327622 1.040665,-0.838461 1.630966,-1.287798 0.295151,-0.224669 0.575086,-0.433446 0.798877,-0.59593 0.223794,-0.162486 0.383166,-0.275289 0.468627,-0.321028 0.03305,-0.01768 0.135898,-0.08955 0.254609,-0.180808 0.118708,-0.09127 0.260479,-0.204236 0.39298,-0.317338 0.14031,-0.119764 0.279009,-0.220232 0.396672,-0.289662 0.05883,-0.03471 0.111865,-0.06155 0.160514,-0.07933 0.04865,-0.01773 0.0908,-0.03754 0.154978,-0.01291 -0.0106,-0.0041 0.02086,-4.41e-4 0.06642,-0.02768 0.04556,-0.02724 0.101863,-0.07419 0.149444,-0.134684 0.05979,-0.07601 0.133375,-0.143705 0.208483,-0.193723 0.07511,-0.05003 0.148481,-0.08672 0.232468,-0.08672 0.0336,0 0.07245,-0.0094 0.103319,-0.02214 0.03086,-0.01278 0.05095,-0.03316 0.04981,-0.03136 0.02,-0.03235 0.04082,-0.04934 0.07011,-0.07564 0.02929,-0.02631 0.0656,-0.05687 0.107008,-0.08856 0.08281,-0.06338 0.187848,-0.13518 0.295198,-0.202947 0.198581,-0.125358 0.576154,-0.425927 0.821018,-0.65497 l 0.520285,-0.487076 0.6439,0.619914 c 0.314602,0.302547 0.76739,0.682576 0.987067,0.832089 0.327506,0.222899 0.869133,0.505268 1.387428,0.737994 0.518296,0.232725 1.024727,0.41638 1.245365,0.446485 0.118005,0.0161 0.285151,0.05222 0.389291,0.08487 0.603168,0.189068 1.286164,0.213166 4.254533,0.136528 0.68683,-0.01768 1.040637,-0.02481 1.278574,0.0019 0.237942,0.02666 0.360272,0.09746 0.533202,0.212174 0.12316,0.08169 0.27571,0.236866 0.45203,0.446486 0.17632,0.20962 0.37247,0.472436 0.56456,0.756444 0.7087,1.047808 1.07841,1.400892 2.15863,2.068227 0.48266,0.298149 0.8064,0.438178 0.99445,0.439106 0.094,4.63e-4 0.15217,-0.02547 0.20848,-0.08302 0.0563,-0.05756 0.10797,-0.154088 0.15129,-0.295198 0.0732,-0.238369 0.0428,-0.490129 -0.15313,-0.870832 -0.19582,-0.380697 -0.55935,-0.878914 -1.13454,-1.575609 -1.29343,-1.566643 -1.64871,-2.438151 -1.65126,-4.044205 -6.1e-4,-0.377857 -0.008,-0.597709 -0.035,-0.737994 -0.0272,-0.140288 -0.0674,-0.202289 -0.15683,-0.306268 -0.14857,-0.172725 -0.35219,-0.266996 -0.62729,-0.280438 -0.2751,-0.01344 -0.62043,0.05784 -1.02212,0.219553 l -0.675274,0.273058 -0.920648,-0.162359 c -0.499063,-0.08843 -1.117237,-0.261095 -1.407722,-0.398516 -0.283525,-0.134129 -0.637888,-0.404827 -0.948322,-0.69187 -0.310434,-0.287041 -0.57256,-0.576506 -0.660505,-0.802568 -0.02997,-0.07705 -0.08221,-0.2685 -0.154979,-0.535044 -0.07276,-0.266547 -0.162021,-0.599906 -0.247227,-0.929873 -0.08521,-0.329967 -0.16768,-0.655895 -0.228779,-0.907733 -0.03055,-0.125918 -0.05602,-0.233258 -0.0738,-0.313647 -0.0089,-0.04019 -0.01529,-0.07326 -0.02029,-0.09963 -0.005,-0.02637 -0.0093,-0.03828 -0.0093,-0.06642 0,-0.04149 0.01996,-0.06451 0.03321,-0.07933 0.01326,-0.01483 0.02491,-0.02377 0.03875,-0.03321 0.02768,-0.01884 0.06126,-0.03646 0.09963,-0.0535 0.07674,-0.03408 0.177008,-0.06795 0.287817,-0.09778 0.207184,-0.05579 0.562896,-0.294654 0.822863,-0.531355 0.129984,-0.118351 0.238097,-0.23664 0.297043,-0.324717 0.02879,-0.04303 0.0427,-0.07901 0.04613,-0.0941 -0.05302,-0.03988 -0.100294,-0.09552 -0.103319,-0.166048 -0.0033,-0.07874 0.02998,-0.145471 0.07749,-0.234314 -0.01141,0.0028 -0.02277,0.0079 -0.03505,0.0093 -0.01812,0.0019 -0.03866,0.002 -0.06273,-0.0056 -0.02407,-0.0076 -0.04942,-0.02496 -0.06458,-0.04797 -0.0303,-0.04603 -0.0253,-0.08641 -0.02029,-0.121769 0.005,-0.03537 0.01575,-0.0725 0.02952,-0.118079 0.149309,-0.493938 0.149338,-0.935937 0.0093,-1.317318 -0.08554,-0.232832 -0.195195,-0.552802 -0.245383,-0.7177 -0.03195,-0.104961 -0.06782,-0.167638 -0.142063,-0.232468 -0.07424,-0.06483 -0.192172,-0.129858 -0.381912,-0.212173 -0.618647,-0.268398 -1.186892,-0.316307 -1.656797,-0.153133 -0.113312,0.03935 -0.216125,0.06522 -0.297042,0.07749 -0.04045,0.0061 -0.07324,0.0096 -0.108854,0.0056 -0.01781,-0.002 -0.0383,-0.0038 -0.06273,-0.01845 -0.0082,-0.0049 -0.01042,-0.02162 -0.01845,-0.03136 -0.0025,0 -0.0023,5.13e-4 -0.01476,0.0019 -0.03731,0.004 -0.102559,0.02072 -0.171583,0.04613 -0.138041,0.05083 -0.299344,0.146127 -0.335788,0.190033 -0.04014,0.04837 -0.09141,0.08374 -0.145754,0.105165 -0.05434,0.02141 -0.114905,0.03125 -0.177118,0.0074 0.0011,4.35e-4 -0.0018,-0.0027 -0.02952,0.01845 -0.02771,0.02113 -0.06677,0.06477 -0.103319,0.125458 -0.0731,0.121366 -0.139945,0.305273 -0.169739,0.498146 l -0.06826,0.444568 -1.293334,-0.391136 c -0.658175,-0.198335 -1.547739,-0.518601 -1.992588,-0.719545 -0.5895,-0.266284 -1.234986,-0.60317 -1.75458,-0.904042 -0.259795,-0.150436 -0.487017,-0.290916 -0.662348,-0.411431 -0.175332,-0.120515 -0.294352,-0.207763 -0.356082,-0.300733 -0.06534,-0.09841 -0.111733,-0.170191 -0.107011,-0.263832 0.0047,-0.09364 0.05982,-0.158963 0.134684,-0.241694 0.07163,-0.07914 0.09645,-0.152742 0.08118,-0.265677 -0.01527,-0.112936 -0.07941,-0.264112 -0.202948,-0.459402 -0.05377,-0.08499 -0.08969,-0.150257 -0.09963,-0.221398 -0.005,-0.03556 -0.0015,-0.07802 0.02029,-0.114389 0.02181,-0.03637 0.05878,-0.05895 0.09225,-0.07011 0.02758,-0.0092 0.02721,-0.01014 0.03136,-0.02214 0.0042,-0.01201 0.0062,-0.04925 -0.01107,-0.112545 -0.03462,-0.126587 -0.14102,-0.34519 -0.328407,-0.666039 -0.151059,-0.258648 -0.262513,-0.450081 -0.354237,-0.57748 -0.09172,-0.127394 -0.159345,-0.181937 -0.215864,-0.195568 -0.05652,-0.01363 -0.132906,0.004 -0.260142,0.07749 -0.127236,0.07355 -0.295218,0.198221 -0.523976,0.365307 l -0.854227,0.623605 -0.332097,-0.391136 c -0.200776,-0.23634 -0.510979,-0.684849 -0.771204,-1.092231 -0.130112,-0.203692 -0.246822,-0.396382 -0.330252,-0.546115 -0.04171,-0.07486 -0.07468,-0.138448 -0.09778,-0.190034 -0.01155,-0.0258 -0.02107,-0.04804 -0.02768,-0.07011 -0.0066,-0.02207 -0.01852,-0.03991 -0.0019,-0.0904 -0.01187,0.03593 -0.0044,0.0011 -0.02398,-0.0369 -0.01951,-0.03804 -0.05177,-0.08646 -0.0904,-0.129149 -0.06503,-0.07185 -0.111315,-0.131458 -0.125457,-0.208483 -0.01414,-0.07703 0.02361,-0.1546 0.07565,-0.206639 0.02165,-0.02165 0.02431,-0.01381 0.0092,-0.06088 -0.01512,-0.04709 -0.06647,-0.133286 -0.158669,-0.256452 -0.180985,-0.242124 -0.541649,-0.669246 -0.88547,-1.057379 -0.343826,-0.388133 -0.683597,-0.746721 -0.785967,-0.830245 -0.10111,-0.0825 -0.17631,-0.168038 -0.202948,-0.29335 -0.0266,-0.125312 -0.01558,-0.275764 0.0092,-0.536891 0.08852,-0.931608 0.235199,-2.09911 0.389295,-3.099572 0.0887,-0.575898 0.109471,-1.261123 0.07749,-1.778567 -0.016,-0.258719 -0.04582,-0.476785 -0.08303,-0.610691 -0.01801,-0.06491 -0.03807,-0.108571 -0.04796,-0.121766 -0.02193,0.0047 -0.04367,0.01316 -0.06089,0.0074 -0.02711,-0.009 -0.04349,-0.02333 -0.05719,-0.03691 -0.02744,-0.02716 -0.04568,-0.05733 -0.06458,-0.09409 -0.03779,-0.07353 -0.07423,-0.172597 -0.103317,-0.287821 -0.05389,-0.213534 -0.196713,-0.68898 -0.315456,-1.046103 -0.120851,-0.363465 -0.267146,-0.88738 -0.328404,-1.1771 -0.02926,-0.138413 -0.06495,-0.279361 -0.09963,-0.394828 -0.03467,-0.115467 -0.0757,-0.212289 -0.08487,-0.226931 -0.01125,-0.01792 -0.01498,-0.02361 -0.02212,-0.03322 z m -5.828307,14.628879 c 0.0525,0.0068 0.08532,0.03575 0.114389,0.06458 0.05812,0.05765 0.104829,0.137958 0.147601,0.232468 0.08553,0.18902 0.154754,0.418592 0.108855,0.601465 -0.0091,0.03623 -0.01363,0.130308 -0.0074,0.234313 0.0063,0.104005 0.02132,0.22252 0.04428,0.324717 0.02529,0.11268 0.04115,0.214989 0.04428,0.295198 0.0014,0.0401 -1.02e-4,0.07297 -0.0074,0.107009 -0.0037,0.01702 -0.0075,0.03553 -0.02216,0.0572 -0.0147,0.02167 -0.05076,0.04797 -0.0904,0.04797 -0.08271,0 -0.126236,-0.05347 -0.162359,-0.105165 -0.03611,-0.0517 -0.06852,-0.117132 -0.09963,-0.193723 -0.06221,-0.153186 -0.119447,-0.351371 -0.166045,-0.55903 -0.04661,-0.20766 -0.08071,-0.423243 -0.0941,-0.605155 -0.0067,-0.09096 -0.0098,-0.173675 -0.0037,-0.245383 0.0061,-0.07171 0.0168,-0.132738 0.05351,-0.188188 0.02706,-0.04088 0.08771,-0.07507 0.140214,-0.06827 z m 20.20627,3.63831 c 0,0.01245 0.0059,0.0319 0.01661,0.04427 0.0062,0.0072 0.0098,0.0084 0.01476,0.01107 -0.01334,-0.0184 -0.03136,-0.03285 -0.03136,-0.05535 z M 75.707197,88.259964 c -0.06006,0.01289 -0.126432,0.02952 -0.171583,0.02952 -0.104913,0 -0.28092,0.04134 -0.345016,0.07565 -0.07851,0.04202 -0.189263,0.06346 -0.346853,0.0904 -0.157596,0.02694 -0.350573,0.05029 -0.542425,0.06642 -0.187472,0.01576 -0.368219,0.0359 -0.505527,0.05535 -0.06866,0.0097 -0.126022,0.01918 -0.167893,0.02768 -0.02095,0.0042 -0.03695,0.0079 -0.04797,0.01107 -0.01106,0.0031 -0.01922,0.0092 -0.0074,0.0019 -0.03299,0.02035 -0.05198,0.02053 -0.07933,0.02583 -0.02734,0.0053 -0.05982,0.0106 -0.09778,0.01476 -0.07595,0.0082 -0.173861,0.01453 -0.289664,0.02029 -0.231611,0.0116 -0.530994,0.01812 -0.841313,0.02029 -0.620645,0.0042 -1.273073,-0.0081 -1.53134,-0.04981 -0.01586,-0.0026 -0.03653,-0.003 -0.0535,-0.0056 0.135512,0.01538 0.214412,0.08467 0.356083,0.09594 1.134794,0.09023 2.454651,0.05018 2.955666,-0.07749 0.238404,-0.06075 0.689331,-0.146092 1.01474,-0.191878 0.210274,-0.02959 0.473421,-0.154482 0.701094,-0.210328 z" id="path3811-3-7" />
      </g>
      <g id="badge-bianconiglio" transform="matrix(0.46659006,0,0,0.46659006,84.653242,78.116376)">
         <clipPath id="clipPath2684" clipPathUnits="userSpaceOnUse">
            <path style="display:inline;fill:#ff8080;stroke-width:0.20000003" d="m -12.217892,-42.563256 c -0.0279,0.02409 -0.0617,0.0518 -0.110718,0.102789 -0.02122,0.02199 -0.0981,0.133072 -0.185859,0.284699 -0.0877,0.151632 -0.193639,0.350051 -0.312379,0.585221 -0.237492,0.470361 -0.525522,1.08043 -0.81852,1.73589 -0.586011,1.31093 -1.19935,2.80842 -1.502591,3.7288 l -0.676161,2.052221 -1.055768,-2.194571 c -0.464551,-0.965319 -1.139,-2.490949 -1.502591,-3.404561 -0.178165,-0.447679 -0.356161,-0.843468 -0.49823,-1.115079 -0.0308,-0.05889 -0.0485,-0.0844 -0.0751,-0.130479 -0.002,0.0049 -0.002,0.0071 -0.0041,0.012 -0.0575,0.179901 -0.123706,0.43523 -0.197711,0.739431 -0.148053,0.608399 -0.31695,1.411929 -0.47055,2.218298 -0.153604,0.806372 -0.292569,1.616231 -0.379599,2.242022 -0.04351,0.3129 -0.0736,0.578169 -0.08699,0.771069 -0.0071,0.09651 -0.01007,0.177908 -0.0079,0.22934 0.002,0.0515 0.03001,0.085 -0.0079,0.0237 0.0297,0.04809 0.0631,0.118155 0.0356,0.21748 -0.0275,0.09929 -0.127799,0.161041 -0.189802,0.173986 -0.113033,0.0237 -0.19081,-0.0079 -0.2847,-0.04351 -0.0041,0.03511 -0.0041,0.0647 -0.0041,0.126535 0.002,0.36358 0.08721,1.162219 0.264931,2.68489 0.206927,1.77304 0.910188,3.98384 2.123399,6.639078 0.541861,1.185911 0.829891,1.789991 0.84224,2.28552 0.006,0.24777 -0.0754,0.467211 -0.221429,0.64849 -0.146082,0.181273 -0.34498,0.336422 -0.597081,0.533812 -1.225929,0.959819 -2.56489,2.540459 -3.349199,3.95419 -0.364391,0.65681 -0.899981,1.978579 -1.336521,3.230568 -0.21826,0.626002 -0.41318,1.237331 -0.55358,1.73984 -0.140401,0.502512 -0.22296,0.912501 -0.22539,1.071592 l -0.01972,1.296969 -0.668261,-1.229749 c -0.154697,-0.285161 -0.30853,-0.428171 -0.39937,-0.466601 -0.09089,-0.03841 -0.122206,-0.032 -0.213528,0.06721 -0.182644,0.198397 -0.37947,0.844489 -0.359829,1.7714805 0.01329,0.6188987 0.171478,1.4033882 0.37565,2.0166396 0.102082,0.3066203 0.216171,0.5710601 0.32029,0.7473391 0.0521,0.088107 0.103003,0.1557041 0.138409,0.1898026 0.03541,0.034098 0.04741,0.023704 0.01972,0.023704 0.08271,0 0.129493,0.036606 0.162112,0.063289 0.0326,0.026597 0.0538,0.050601 0.0751,0.079106 0.04269,0.057009 0.08009,0.127028 0.118626,0.2056194 0.07709,0.157183 0.15759,0.3589104 0.225391,0.5852204 0.10326,0.3446087 0.345198,0.7313293 0.61685,1.0162197 0.271649,0.2848903 0.582569,0.450779 0.72362,0.450779 0.0928,0 0.151803,0.024604 0.233288,0.055402 0.08151,0.030691 0.175465,0.072098 0.2768,0.1225916 0.20264,0.1010523 0.441501,0.2364602 0.672211,0.3875093 l 1.1388,0.7473391 -1.60935,0.6405816 c -0.824401,0.32655 -1.24496,0.5194003 -1.4235,0.6959385 -0.08931,0.0883 -0.129879,0.1687349 -0.158191,0.2965601 -0.02829,0.127821 -0.0356,0.3040914 -0.0356,0.5456803 0,0.91365 0.29998,1.98287981 0.73548,2.843061 0.4355,0.8601791 1.02627,1.4918492 1.459091,1.5974901 0.364349,0.0889 0.8584,0.3623588 1.19812,0.6445294 0.287949,0.23918 0.527709,0.3700507 0.680119,0.4033305 0.152404,0.033305 0.191196,0.016931 0.253071,-0.083092 0.08549,-0.1380441 0.206433,-0.1856662 0.340249,-0.2294198 0.133822,-0.043807 0.28599,-0.067211 0.442871,-0.067211 0.195417,0 0.365219,0.032705 0.50219,0.138387 0.136951,0.1057245 0.204312,0.2755588 0.21748,0.450779 0.0165,0.219291 0.0407,0.5054309 0.05139,0.632671 0.0079,0.098202 -0.02769,0.1423734 -0.0554,0.1858591 -0.02769,0.043507 -0.0605,0.081999 -0.09889,0.1225916 -0.07671,0.081206 -0.176279,0.1700207 -0.30052,0.2688891 -0.24851,0.197711 -0.59006,0.4322102 -0.96482,0.6603506 -0.73628,0.4481985 -2.08453,1.2767888 -2.997279,1.8386889 -1.176431,0.7242203 -2.550721,1.4811803 -3.788122,2.1036307 -1.237388,0.622461 -2.32916,1.10775 -2.97354,1.293022 -0.09291,0.0267 -0.181508,0.0793 -0.237249,0.130478 -0.05581,0.0512 -0.06329,0.09651 -0.06329,0.08699 0,0.08631 -0.0257,0.207698 -0.12257,0.2847 -0.09689,0.0769 -0.20727,0.07919 -0.308429,0.06721 -0.20234,-0.02381 -0.456221,-0.120084 -0.873872,-0.284702 -0.961229,-0.378879 -0.959928,-0.37579 -1.95337,-0.08699 -0.78997,0.22966 -1.274869,0.266611 -1.716119,0.09891 -0.340271,-0.129364 -0.91206,-0.191603 -1.48677,-0.173986 -0.57471,0.01758 -1.159559,0.113976 -1.53027,0.268881 -0.252249,0.105403 -0.45286,0.171778 -0.628719,0.189802 -0.08789,0.009 -0.170214,0.0071 -0.253062,-0.01993 -0.0829,-0.02651 -0.165734,-0.08481 -0.213528,-0.162134 0.0049,0.009 -0.0049,-0.009 -0.04749,-0.01586 -0.04231,-0.006 -0.106239,-3e-4 -0.162134,0.0237 -0.215499,0.09261 -0.53745,0.172443 -0.78689,0.197711 -0.32132,0.0326 -0.73506,0.160141 -1.051809,0.308429 -0.158384,0.07409 -0.294471,0.154869 -0.379601,0.22143 -0.08511,0.0665 -0.08699,0.1302 -0.08699,0.06721 0,0.15684 -0.06331,0.268621 -0.142331,0.41915 -0.079,0.150517 -0.182237,0.31625 -0.30052,0.466591 -0.273142,0.3475 -0.356521,0.699689 -0.355801,1.653019 4.39e-4,0.58199 0.01908,0.891641 0.0988,1.12299 0.07979,0.231351 0.226411,0.419479 0.54568,0.76711 0.195439,0.212799 0.373649,0.42439 0.50614,0.593131 0.0662,0.0844 0.120599,0.158426 0.162113,0.221439 0.02079,0.0315 0.04021,0.05739 0.0554,0.08699 0.0071,0.01307 0.0135,0.0404 0.01972,0.0554 4.1e-4,5.19e-4 0.0071,0.01329 0.01972,0.02769 0.02589,0.0287 0.0722,0.0739 0.130478,0.126535 0.116655,0.105167 0.284741,0.244469 0.47845,0.39542 0.387411,0.301879 0.87665,0.650339 1.269301,0.897599 0.09351,0.05889 0.187745,0.127307 0.268878,0.189803 0.08121,0.0625 0.143895,0.112454 0.197711,0.177929 -0.02471,-0.03009 -0.01093,-0.0135 0.0079,0 0.01886,0.0135 0.05,0.03579 0.08699,0.0593 0.074,0.047 0.175164,0.10939 0.300521,0.181895 0.250719,0.144988 0.58561,0.329861 0.941089,0.518 0.281331,0.148911 0.68737,0.129986 0.976691,0.260981 -0.25262,-0.122506 -0.50039,-0.235431 -0.767111,-0.375651 -0.414171,-0.21772 -0.812351,-0.440549 -1.115079,-0.62476 -0.151375,-0.09209 -0.281001,-0.175015 -0.375651,-0.24516 -0.0473,-0.03511 -0.08361,-0.0679 -0.118627,-0.10281 -0.01757,-0.01736 -0.03399,-0.03301 -0.05139,-0.0593 -0.009,-0.01307 -0.0195,-0.0303 -0.02769,-0.05139 -0.0041,-0.009 -0.009,-0.01929 -0.012,-0.03159 0,0 0,-0.0041 0,-0.0041 -0.01522,-0.0079 -0.04329,-0.01586 -0.08301,-0.01586 -0.111189,0 -0.18378,-0.04059 -0.268891,-0.08699 -0.08511,-0.04629 -0.175164,-0.106239 -0.276789,-0.181894 -0.20324,-0.151225 -0.44463,-0.360591 -0.69988,-0.600922 -0.51051,-0.480668 -1.077541,-1.092138 -1.49468,-1.640988 -0.246,-0.323661 -0.404121,-0.564631 -0.478461,-0.850151 -0.07431,-0.285521 -0.0598,-0.58701 -0.01586,-1.036 0.104825,-1.069671 0.54731,-2.050579 1.202071,-2.475309 0.134293,-0.0871 0.29854,-0.132965 0.502179,-0.173986 0.203669,-0.041 0.43604,-0.06689 0.656401,-0.0712 0.184316,-0.0041 0.325778,-0.0049 0.450779,0.0079 0.124992,0.01264 0.24876,0.04209 0.344011,0.134444 0.09531,0.09231 0.130735,0.21605 0.146316,0.340061 0.01565,0.124006 0.01586,0.264489 0.01586,0.44682 0,0.41442 0.175079,0.786159 0.55358,1.138809 0.378502,0.352631 0.964612,0.67489 1.747751,0.94109 0.380531,0.129342 0.68498,0.26169 0.913421,0.40333 0.228448,0.141645 0.395289,0.289981 0.450778,0.50218 0.01886,0.0718 0.03631,0.09921 0.04741,0.110718 0.01115,0.01157 0.0314,0.0287 0.114662,0.04351 0.166527,0.0297 0.533869,0.02122 1.190218,-0.0237 2.64679,-0.181573 3.60264,-0.41302 4.234932,-0.94505 0.392949,-0.33065 0.638198,-0.531321 0.933189,-0.557541 0.147475,-0.01307 0.293751,0.03811 0.411231,0.122592 0.117491,0.08451 0.217548,0.198525 0.33215,0.340061 0.143038,0.176664 0.203069,0.223601 0.296569,0.241209 0.09351,0.01757 0.282211,-0.0049 0.62871,-0.0949 0.46279,-0.119934 1.397561,-0.266581 2.123399,-0.336111 0.696031,-0.0667 2.04897,-0.29838 2.973551,-0.51009 0.935281,-0.21415 2.285741,-0.52281 3.001229,-0.68407 0.71296,-0.160719 2.094121,-0.48277 3.064491,-0.715709 0.48868,-0.117319 0.94091,-0.213957 1.281159,-0.276791 0.170128,-0.0314 0.311621,-0.05461 0.419141,-0.06719 0.05379,-0.006 0.100517,-0.01136 0.142352,-0.012 0.021,-2.1e-4 0.03691,9.9e-5 0.06329,0.0041 0.01329,0.002 0.0309,0.0049 0.05139,0.012 0.01029,0.0041 0.03451,0.01522 0.0356,0.01586 10e-4,6.09e-4 0.04681,0.03489 0.04749,0.0356 10e-4,0.001 0.05071,0.08849 0.0514,0.09089 8.1e-4,0.002 0.012,0.04959 0.012,0.06719 -2.1e-4,0.03541 -0.006,0.05851 -0.012,0.07911 -0.01136,0.041 -0.02881,0.07619 -0.04741,0.114662 -0.0371,0.07701 -0.08999,0.167449 -0.15819,0.2768 -0.136266,0.218699 -0.328121,0.500679 -0.553591,0.8027 -0.77779,1.041881 -1.294689,1.79375 -1.573761,2.28947 -0.139544,0.24786 -0.220729,0.43477 -0.245159,0.54172 -0.01222,0.05349 -0.009,0.08399 -0.0079,0.08699 0.0769,0.0586 0.128764,0.13035 0.166077,0.213528 0.04231,0.09441 0.07559,0.20429 0.10281,0.33215 0.05439,0.255751 0.0889,0.58333 0.09891,0.96878 0.01543,0.59857 0.03669,0.900891 -0.0712,1.154621 -0.05401,0.126857 -0.161405,0.227361 -0.276799,0.28075 -0.115412,0.05341 -0.233882,0.08181 -0.383551,0.114662 -0.31673,0.06959 -0.73811,0.205598 -0.86202,0.26888 -0.36944,0.188667 -0.899089,0.390199 -1.403729,0.56941 0.69856,-0.22544 1.324578,-0.301549 2.052219,-0.62081 0.203369,-0.0892 0.399299,-0.169785 0.553591,-0.229341 0.0772,-0.02979 0.143638,-0.05319 0.197711,-0.0712 0.02709,-0.009 0.0524,-0.01757 0.0751,-0.0237 0.0228,-0.006 0.03579,-0.012 0.08699,-0.012 0.002,0 0.04119,0.0041 0.05529,0.0079 0.01415,0.0041 0.0263,0.0041 0.0356,0.0079 0.01865,0.0079 0.03031,0.01586 0.04351,0.0237 0.02641,0.01564 0.0518,0.03489 0.07911,0.0554 0.05461,0.04089 0.118884,0.09261 0.193746,0.158168 0.149703,0.131058 0.33852,0.310851 0.533809,0.506141 0.510851,0.510859 0.770932,0.640579 1.237661,0.640579 0.266641,0 0.470419,-0.02261 0.616849,-0.06721 0.146446,-0.0446 0.236141,-0.102252 0.312382,-0.205619 0.152468,-0.206692 0.241139,-0.6522 0.272839,-1.435361 l 0.06331,-1.573769 1.07159,-0.118627 c 0.340421,-0.03781 0.5500414,-0.08639 0.62871,-0.126535 0.039199,-0.02015 0.044,-0.0287 0.043507,-0.02771 -6.108e-4,0.001 0.002,-0.006 -0.00407,-0.04351 -0.021711,-0.132107 0.027905,-0.23814 0.090893,-0.34006 0.063096,-0.10191 0.1519106,-0.203927 0.2649285,-0.31633 0.1920101,-0.190981 0.493821,-0.420711 0.8303799,-0.664311 -0.2277696,0.157162 -0.4638483,0.34909 -0.6366188,0.438921 -0.1310787,0.0682 -0.2201505,0.116741 -0.3163398,0.142352 -0.024111,0.006 -0.047194,0.01265 -0.086993,0.012 -0.019717,-4.01e-4 -0.0452,-10e-4 -0.075098,-0.012 -0.015003,-0.0049 -0.046293,-0.02289 -0.047494,-0.0237 -9.988e-4,-7.72e-4 -0.046593,-0.0425 -0.047493,-0.04351 -8.702e-4,-10e-4 -0.034999,-0.0541 -0.035599,-0.0554 -6.001e-4,-0.001 -0.010073,-0.03459 -0.012002,-0.05139 -0.00493,-0.03361 -0.00407,-0.0622 0,-0.08309 0.00793,-0.0416 0.022997,-0.0641 0.035599,-0.08699 0.050301,-0.09141 0.1191838,-0.170921 0.2372511,-0.300519 0.1180694,-0.129621 0.2806403,-0.29896 0.490319,-0.51404 0.3199404,-0.328181 0.5980711,-0.575422 0.8343299,-0.739431 0.1181336,-0.082 0.2269015,-0.14293 0.3321502,-0.181894 0.105253,-0.0389 0.2169699,-0.06149 0.3361109,-0.01586 0.081099,0.0311 0.1706852,0.0772 0.2214299,0.185859 0.050794,0.108683 0.022096,0.229011 -0.023704,0.31238 -0.080799,0.146917 -0.2441801,0.294369 -0.4586917,0.47846 l 0.8106109,-0.569399 0.8145609,0.47845 c 0.197711,0.116655 0.3753102,0.23666 0.5100901,0.336109 0.067404,0.0497 0.1245633,0.09179 0.1700208,0.134443 0.022697,0.02122 0.0428,0.04051 0.063289,0.06719 0.010073,0.01329 0.020789,0.02941 0.031612,0.05139 0.006,0.01093 0.011145,0.02319 0.01586,0.0395 0.00493,0.0165 0.00793,0.06151 0.00793,0.06331 0,8.68e-4 -0.001,0.03219 -0.00407,0.04351 -0.002,0.01136 -0.00493,0.02036 -0.00793,0.02771 -0.00493,0.01479 -0.011359,0.0263 -0.01586,0.0356 -0.009,0.01843 -0.017789,0.0317 -0.02769,0.04741 -0.019932,0.0317 -0.0443,0.0686 -0.075098,0.110718 -0.061703,0.0841 -0.1475171,0.193232 -0.2530701,0.32424 -0.2111061,0.26205 -0.50027,0.606269 -0.8185108,0.97273 -1.6876292,1.943329 -3.1606396,4.26391 -4.4168299,6.96728 -0.23469,0.505043 -0.62041,1.178693 -0.889689,1.538179 -0.237121,0.316537 -0.741041,1.11397 -1.095311,1.739842 -0.671551,1.186329 -1.73041,2.096689 -3.024959,2.601854 -0.191196,0.0746 -0.628381,0.201697 -1.217892,0.36774 -0.589509,0.166035 -1.32009,0.362503 -2.048269,0.549633 -1.646471,0.423108 -2.631151,0.726927 -3.17125,1.016226 -0.270051,0.144645 -0.425609,0.281999 -0.514049,0.419143 -0.08841,0.137144 -0.118605,0.284588 -0.118605,0.490317 0,0.283711 0.02143,0.403047 0.110718,0.518001 0.08931,0.11494 0.288761,0.251644 0.680119,0.462639 0.417802,0.225243 0.638602,0.324551 0.964822,0.363788 0.32622,0.03922 0.779249,0.01179 1.621209,-0.06327 1.00773,-0.0898 3.345491,-0.167706 5.223491,-0.173986 l 3.345238,-0.0079 1.3444205,-0.889693 c 1.3191108,-0.869931 2.505512,-1.807083 5.875931,-4.64617 0.833569,-0.702163 2.2303604,-1.796998 3.49550093,-2.760021 0.63256813,-0.481512 1.23252947,-0.928965 1.71215817,-1.277202 0.4796309,-0.348242 0.8212006,-0.590002 1.0043613,-0.68803 0.07079,-0.03789 0.29126,-0.191925 0.5456803,-0.38751 0.2544204,-0.19561 0.5582588,-0.43772 0.8422383,-0.680119 0.3007115,-0.256679 0.597981,-0.472001 0.850151,-0.620811 0.126085,-0.07439 0.23975,-0.131914 0.3440193,-0.17002 0.1042671,-0.038 0.1946034,-0.08039 0.3321502,-0.02769 -0.022696,-0.009 0.044707,-9.49e-4 0.142352,-0.0593 0.097602,-0.0584 0.2183115,-0.159005 0.3202897,-0.28865 0.1281425,-0.162905 0.2858505,-0.30799 0.4468205,-0.415191 0.1609764,-0.107224 0.3182301,-0.185859 0.4982296,-0.185859 0.072012,0 0.1552755,-0.02015 0.22143,-0.04749 0.066097,-0.02739 0.1091965,-0.07109 0.1067532,-0.06721 0.042907,-0.06929 0.087507,-0.105746 0.1502604,-0.162113 0.062796,-0.05641 0.1405945,-0.121884 0.2293405,-0.189802 0.1774791,-0.135837 0.4025996,-0.289721 0.632671,-0.43496 0.4255984,-0.268671 1.2348184,-0.912851 1.7596088,-1.403731 l 1.1150793,-1.04391 1.38001,1.328601 c 0.67426,0.64843 1.644681,1.462909 2.115491,1.783349 0.70192,0.47771 1.86274,1.08289 2.97355,1.581671 1.110819,0.498778 2.196211,0.892389 2.66908,0.956908 0.252909,0.03451 0.61114,0.111919 0.83433,0.181895 1.292719,0.405205 2.75652,0.456852 9.118359,0.292601 1.47202,-0.03789 2.230301,-0.05317 2.740252,0.0041 0.509957,0.05714 0.772114,0.208877 1.142761,0.454733 0.263936,0.175079 0.590882,0.507654 0.968773,0.956913 0.377891,0.44926 0.798281,1.012529 1.209991,1.621218 1.518893,2.245671 2.311258,3.002404 4.626396,4.432642 1.034419,0.638996 1.728262,0.939107 2.131314,0.941096 0.201461,9.93e-4 0.326132,-0.05459 0.446816,-0.177929 0.120663,-0.123363 0.231402,-0.330243 0.324246,-0.632671 0.156883,-0.510874 0.09173,-1.050449 -0.328211,-1.866375 -0.419662,-0.815913 -1.198782,-1.883696 -2.431556,-3.376859 -2.772091,-3.35765 -3.53353,-5.225469 -3.538995,-8.667579 -0.001,-0.80983 -0.01715,-1.281019 -0.07501,-1.581679 -0.0583,-0.30066 -0.144452,-0.433552 -0.336098,-0.65639 -0.318416,-0.37019 -0.754838,-0.572231 -1.344435,-0.601042 -0.589597,-0.0288 -1.32969,0.123963 -2.190617,0.47055 l -1.447238,0.585221 -1.973139,-0.34797 c -1.06959,-0.189524 -2.39447,-0.559581 -3.01704,-0.854111 -0.607651,-0.287458 -1.367129,-0.867618 -2.03245,-1.48282 -0.665329,-0.615189 -1.22712,-1.235569 -1.4156,-1.720069 -0.06421,-0.165134 -0.176194,-0.575449 -0.332161,-1.146711 -0.15594,-0.57127 -0.347239,-1.28572 -0.529849,-1.9929102 C 22.32474,8.6283707 22.147984,7.929841 22.017034,7.3901017 21.951537,7.120231 21.896971,6.8901811 21.858865,6.7178906 c -0.01908,-0.086093 -0.03279,-0.1570114 -0.04351,-0.2135279 -0.01072,-0.056495 -0.01993,-0.081999 -0.01993,-0.1423519 0,-0.0889 0.0428,-0.1382584 0.0712,-0.1700208 0.0284,-0.031805 0.05341,-0.050901 0.08309,-0.071197 0.0593,-0.040399 0.131293,-0.078098 0.213528,-0.1146617 0.16447,-0.072998 0.37937,-0.145631 0.61685,-0.2095629 0.444039,-0.1195697 1.20641,-0.6314987 1.76357,-1.1387984 0.27858,-0.2536509 0.510289,-0.5071711 0.636629,-0.6959407 0.0617,-0.092201 0.09149,-0.1693349 0.09891,-0.2016759 -0.113633,-0.085493 -0.214951,-0.2047194 -0.22143,-0.3558799 -0.0071,-0.1687563 0.0643,-0.3117704 0.166078,-0.5021817 -0.0245,0.006 -0.0488,0.016931 -0.0751,0.019932 -0.03879,0.00407 -0.0829,0.00407 -0.134443,-0.012002 -0.05161,-0.016288 -0.105917,-0.053494 -0.138408,-0.1028098 -0.0649,-0.098695 -0.0542,-0.1851946 -0.04351,-0.2609785 0.01072,-0.075805 0.03369,-0.1553827 0.06331,-0.2530701 0.32,-1.0586102 0.32006,-2.00591075 0.01993,-2.82328135 -0.18333,-0.49900975 -0.41835,-1.18477025 -0.525912,-1.53818965 -0.0685,-0.2249491 -0.145352,-0.359279 -0.30447,-0.4982189 -0.159112,-0.1389443 -0.411869,-0.2783214 -0.81852,-0.4547311 -1.32589,-0.5752394 -2.543759,-0.6779206 -3.55086,-0.3282003 -0.242849,0.084292 -0.463199,0.1397801 -0.636619,0.1660773 -0.08669,0.013073 -0.156968,0.020575 -0.233301,0.012002 -0.03819,-0.00407 -0.08211,-0.00793 -0.134443,-0.039499 -0.01758,-0.010502 -0.02229,-0.046293 -0.03961,-0.067211 -0.0049,0 -0.0049,10e-4 -0.03159,0.00407 -0.08001,0.009 -0.219811,0.044407 -0.36774,0.098909 -0.295851,0.1089394 -0.64155,0.3131786 -0.71966,0.4072783 -0.08601,0.103667 -0.19591,0.1794723 -0.312381,0.2254013 -0.116462,0.045908 -0.24627,0.066997 -0.379599,0.01586 0.002,9.387e-4 -0.0041,-0.006 -0.06331,0.039499 -0.05941,0.045307 -0.143102,0.1388156 -0.221438,0.2688806 -0.156669,0.2601084 -0.299932,0.6542595 -0.36378,1.0676288 L 16.066107,-0.19776032 13.294229,-1.0360401 C 11.883618,-1.4611199 9.9770985,-2.1475104 9.0236984,-2.5781797 7.7602682,-3.1488798 6.3768589,-3.870899 5.2632583,-4.5157306 4.7064676,-4.8381506 4.2194791,-5.1392201 3.8437081,-5.397511 3.4679393,-5.6557999 3.2128588,-5.8427906 3.0805586,-6.042049 2.9405213,-6.2529622 2.8410892,-6.4067996 2.8512073,-6.6074897 2.8612804,-6.8081798 2.9794141,-6.9481806 3.139859,-7.1254904 3.2933771,-7.295104 3.3465715,-7.4528506 3.3138447,-7.6948896 3.2811393,-7.9369393 3.1436525,-8.2609389 2.8788847,-8.6794905 2.7636444,-8.8616418 2.6866603,-9.0015205 2.6653568,-9.1539906 c -0.010716,-0.076191 -0.003,-0.1672131 0.043507,-0.2451595 0.046701,-0.077906 0.1259778,-0.1263421 0.197711,-0.1502604 0.059088,-0.019717 0.058295,-0.021711 0.06719,-0.047408 0.009,-0.025697 0.013288,-0.1055531 -0.023704,-0.2412096 -0.074198,-0.2712999 -0.302231,-0.7398099 -0.7038405,-1.4274609 -0.323751,-0.554338 -0.5626203,-0.964619 -0.7591997,-1.23766 -0.1965751,-0.27303 -0.3415117,-0.389929 -0.4626502,-0.419139 -0.12113417,-0.02921 -0.28484104,0.009 -0.55753009,0.166078 -0.27269977,0.157633 -0.6327203,0.424831 -1.12299006,0.782931 l -1.83079125,1.33652 -0.711749,-0.83829 c -0.4303092,-0.50652 -1.095139,-1.467771 -1.6528599,-2.34088 -0.2788508,-0.43655 -0.5289911,-0.849531 -0.7078012,-1.17044 -0.089393,-0.160441 -0.1600548,-0.296721 -0.209563,-0.407281 -0.024711,-0.0553 -0.0452,-0.10296 -0.059302,-0.15026 -0.014145,-0.0473 -0.039692,-0.08549 -0.00407,-0.193746 -0.025397,0.077 -0.009,0.002 -0.051394,-0.07911 -0.041793,-0.08151 -0.1109539,-0.185302 -0.1937461,-0.276791 -0.1393729,-0.15399 -0.2385799,-0.28174 -0.2688805,-0.446819 -0.030305,-0.165091 0.050601,-0.33134 0.1621337,-0.442881 0.0464,-0.0464 0.052101,-0.0296 0.019717,-0.130478 -0.032405,-0.100924 -0.1424591,-0.28566 -0.3400586,-0.549631 -0.3878909,-0.518928 -1.1608713,-1.434338 -1.8977516,-2.266188 -0.7368888,-0.83185 -1.4650891,-1.600381 -1.6844898,-1.779391 -0.2167,-0.176815 -0.377869,-0.36014 -0.43496,-0.62871 -0.05701,-0.26857 -0.03339,-0.59102 0.01972,-1.15067 0.189716,-1.99663 0.5040785,-4.498829 0.8343405,-6.64303 0.1901027,-1.23427 0.2346193,-2.70285 0.1660773,-3.811841 -0.034291,-0.554489 -0.098202,-1.02185 -0.1779507,-1.308838 -0.038599,-0.139116 -0.081592,-0.232691 -0.1027883,-0.26097 -0.047001,0.01007 -0.093594,0.0282 -0.1304999,0.01586 -0.058102,-0.0195 -0.093209,-0.05 -0.1225709,-0.07911 -0.05879,-0.05821 -0.0979,-0.12287 -0.138408,-0.201654 -0.08099,-0.15759 -0.159091,-0.369909 -0.22143,-0.616861 -0.115498,-0.45765 -0.421591,-1.47663 -0.676082,-2.242019 -0.259009,-0.778979 -0.572549,-1.901841 -0.703838,-2.522769 -0.06271,-0.29665 -0.139202,-0.598731 -0.213528,-0.846201 -0.0743,-0.24747 -0.162262,-0.45498 -0.181894,-0.486361 -0.02411,-0.03841 -0.0321,-0.0506 -0.04741,-0.0712 z m -12.491282,31.352749 c 0.112518,0.01457 0.182859,0.0766 0.245162,0.138409 0.124563,0.123556 0.224668,0.295681 0.316339,0.498232 0.183309,0.405109 0.331671,0.8971275 0.233299,1.289069 -0.0195,0.077691 -0.02919,0.2792687 -0.01586,0.5021796 0.0135,0.2229001 0.04569,0.476909 0.0949,0.6959406 0.0542,0.2414882 0.08819,0.46076 0.0949,0.6326689 0.003,0.0859 -2.2e-4,0.1563899 -0.01586,0.2293405 -0.0079,0.036499 -0.01608,0.076105 -0.04749,0.1225915 -0.0315,0.0464 -0.108789,0.1028098 -0.193746,0.1028098 -0.177265,0 -0.27055,-0.1145974 -0.347969,-0.2253906 -0.07739,-0.1108039 -0.146853,-0.2510383 -0.213528,-0.4151889 -0.133329,-0.3283096 -0.256,-0.7530593 -0.355872,-1.1981202 -0.09989,-0.4450609 -0.172978,-0.9071004 -0.201675,-1.2969692 -0.01436,-0.194946 -0.021,-0.37222 -0.0079,-0.525909 0.01307,-0.15369 0.03601,-0.284481 0.114683,-0.403322 0.05799,-0.08759 0.187981,-0.160891 0.30051,-0.146317 z m 43.306261,7.797661 c 0,0.026704 0.01265,0.06839 0.0356,0.094901 0.01329,0.015431 0.021,0.018003 0.03159,0.023704 -0.02861,-0.039392 -0.06721,-0.070404 -0.06721,-0.1186266 z m -37.770391,25.15258 c -0.128721,0.02761 -0.27097,0.06331 -0.367738,0.06331 -0.224851,0 -0.60207,0.0886 -0.739441,0.162134 -0.168264,0.0901 -0.405631,0.136008 -0.743379,0.193746 -0.337761,0.05769 -0.751351,0.107782 -1.16253,0.142352 -0.401792,0.0338 -0.78917,0.0769 -1.08345,0.118626 -0.147153,0.02079 -0.270092,0.04111 -0.359832,0.0593 -0.0449,0.009 -0.07919,0.01693 -0.10281,0.0237 -0.0237,0.0071 -0.04119,0.01972 -0.01586,0.0041 -0.07071,0.04359 -0.111404,0.044 -0.170021,0.0553 -0.0586,0.01136 -0.128207,0.0227 -0.209563,0.03159 -0.162777,0.01757 -0.372619,0.0311 -0.620809,0.04351 -0.49639,0.0249 -1.138031,0.03879 -1.803111,0.04351 -1.33017,0.009 -2.72846,-0.01736 -3.28198,-0.106753 -0.03399,-0.006 -0.07829,-0.006 -0.114661,-0.012 0.29043,0.033 0.459529,0.181465 0.76316,0.205619 2.432101,0.193382 5.26083,0.107546 6.33461,-0.166077 0.510949,-0.1302 1.47738,-0.31311 2.1748,-0.411239 0.450661,-0.0634 1.01464,-0.331089 1.502591,-0.450781 z" id="path2686" />
         </clipPath>
         <image clip-path="url(#clipPath2684)" width="100" height="100" preserveAspectRatio="none" xlink:href="~/badges/bianconiglio.png" id="image2284" x="-50" y="-50" />
         <g class="shadow" id="g9278">
            <path style="display:inline;fill:#000000;stroke-width:0.20000003" d="m -12.217834,-42.563156 c -0.0279,0.0241 -0.0617,0.0518 -0.11072,0.1028 -0.0212,0.022 -0.0981,0.13308 -0.18585,0.2847 -0.0877,0.15164 -0.19365,0.35005 -0.31238,0.58522 -0.23749,0.47036 -0.52552,1.08043 -0.81852,1.73589 -0.58601,1.31093 -1.19935,2.80842 -1.50259,3.7288 l -0.67617,2.05222 -1.05577,-2.19457 c -0.46455,-0.96532 -1.139,-2.49095 -1.50259,-3.40456 -0.17816,-0.44768 -0.35616,-0.84347 -0.49823,-1.11508 -0.0308,-0.0589 -0.0485,-0.0844 -0.0751,-0.13048 -0.002,0.005 -0.002,0.007 -0.004,0.0119 -0.0575,0.1799 -0.1237,0.43523 -0.19771,0.73943 -0.14806,0.6084 -0.31695,1.41193 -0.47055,2.2183 -0.1536,0.80637 -0.29257,1.61623 -0.3796,2.24202 -0.0435,0.3129 -0.0736,0.57817 -0.087,0.77107 -0.007,0.0965 -0.01,0.1779 -0.008,0.22934 0.002,0.0515 0.03,0.085 -0.008,0.0237 0.0297,0.0481 0.0631,0.11815 0.0356,0.21748 -0.0275,0.0993 -0.1278,0.16103 -0.1898,0.17399 -0.11303,0.0237 -0.19081,-0.008 -0.2847,-0.0435 -0.004,0.0351 -0.004,0.0647 -0.004,0.12654 0.002,0.36358 0.0872,1.16222 0.26493,2.68489 0.20693,1.77304 0.91019,3.98384 2.1234,6.63908 0.54186,1.18591 0.82989,1.78999 0.84224,2.28552 0.006,0.24777 -0.0754,0.46721 -0.22143,0.64849 -0.14607,0.18127 -0.34498,0.33642 -0.59708,0.53381 -1.22593,0.95982 -2.56489,2.54046 -3.3492,3.95419 -0.36439,0.65681 -0.89998,1.978578 -1.33652,3.23057 -0.21826,0.625995 -0.41318,1.237328 -0.55358,1.739842 -0.1404,0.502512 -0.22296,0.912495 -0.22539,1.071583 l -0.0198,1.296976 -0.66826,-1.229753 c -0.15469,-0.285155 -0.30853,-0.428169 -0.39937,-0.466594 -0.0909,-0.03843 -0.1222,-0.03199 -0.21353,0.06721 -0.18265,0.198406 -0.37947,0.84449 -0.35983,1.7714762 0.0132,0.618897 0.17148,1.40339 0.37565,2.016636 0.10208,0.306623 0.21617,0.571063 0.32029,0.74734 0.0521,0.08813 0.10301,0.155708 0.1384,0.189801 0.0354,0.03405 0.0474,0.02373 0.0198,0.02373 0.0827,0 0.12949,0.03662 0.16212,0.06327 0.0326,0.02662 0.0538,0.05057 0.0751,0.07908 0.0427,0.05699 0.0801,0.127019 0.11862,0.205616 0.0771,0.157186 0.15759,0.358915 0.22539,0.585221 0.10325,0.344614 0.3452,0.731334 0.61685,1.016226 0.27165,0.284885 0.58257,0.450777 0.72362,0.450777 0.0928,0 0.1518,0.02464 0.23329,0.05535 0.0815,0.03073 0.17547,0.07205 0.2768,0.122586 0.20265,0.101045 0.4415,0.236458 0.67221,0.38751 l 1.1388,0.747342 -1.60935,0.640577 c -0.8244,0.326549 -1.24496,0.519397 -1.4235,0.695937 -0.0893,0.08827 -0.12988,0.168726 -0.15818,0.296564 -0.0283,0.127829 -0.0356,0.30409 -0.0356,0.545677 0,0.91364798 0.29998,1.98288298 0.73548,2.843061 0.4355,0.860178 1.02627,1.491851 1.45909,1.597492 0.36435,0.08894 0.8584,0.362363 1.19812,0.644532 0.28795,0.239177 0.52771,0.370044 0.68012,0.403327 0.15241,0.03326 0.1912,0.01701 0.25307,-0.08305 0.0855,-0.138054 0.20643,-0.185671 0.34025,-0.229426 0.13383,-0.04375 0.28599,-0.06721 0.44287,-0.06721 0.19541,0 0.36522,0.03268 0.50219,0.138398 0.13696,0.105722 0.20432,0.275553 0.21748,0.450777 0.0164,0.219295 0.0407,0.505429 0.0514,0.63267 0.008,0.09821 -0.0277,0.142366 -0.0554,0.185853 -0.0277,0.04349 -0.0605,0.08201 -0.0989,0.122586 -0.0767,0.08116 -0.17628,0.170021 -0.30052,0.268886 -0.24851,0.197717 -0.59006,0.432214 -0.96482,0.660349 -0.73628,0.448198 -2.08452,1.276797 -2.99727,1.838697 -1.17643,0.724212 -2.55072,1.481171 -3.78812,2.1036268 -1.23739,0.622458 -2.32916,1.107753 -2.97354,1.293019 -0.0929,0.02668 -0.1815,0.07932 -0.23725,0.130482 -0.0558,0.05116 -0.0633,0.09651 -0.0633,0.087 0,0.08626 -0.0257,0.207708 -0.12259,0.284701 -0.0969,0.07693 -0.20726,0.07916 -0.30843,0.06721 -0.20233,-0.02377 -0.45622,-0.120076 -0.87387,-0.284702 -0.96123,-0.378885 -0.95993,-0.375791 -1.95337,-0.08699 -0.78997,0.229664 -1.27487,0.266608 -1.71612,0.09886 -0.34027,-0.129368 -0.91206,-0.191603 -1.48677,-0.173989 -0.57471,0.01761 -1.15956,0.113982 -1.53027,0.268886 -0.25225,0.105397 -0.45286,0.171782 -0.62872,0.189801 -0.0879,0.0089 -0.1702,0.0067 -0.25306,-0.01984 -0.0829,-0.02652 -0.16573,-0.08479 -0.21353,-0.162125 0.005,0.0087 -0.005,-0.0093 -0.0475,-0.01579 -0.0423,-0.0065 -0.10624,-3.05e-4 -0.16212,0.02373 -0.2155,0.09264 -0.53745,0.17243 -0.78689,0.197717 -0.32132,0.03257 -0.73506,0.160141 -1.05181,0.308427 -0.15838,0.07412 -0.29447,0.154877 -0.3796,0.221434 -0.0851,0.06655 -0.087,0.130199 -0.087,0.06722 0,0.156842 -0.0633,0.268619 -0.14234,0.419144 -0.079,0.150524 -0.18225,0.316251 -0.30052,0.466594 -0.27321,0.347325 -0.35659,0.699522 -0.35587,1.65285 4.4e-4,0.581987 0.019,0.891643 0.0988,1.12299 0.0798,0.231347 0.22641,0.419483 0.54568,0.767112 0.19543,0.212791 0.37365,0.424383 0.50614,0.593128 0.0662,0.08436 0.1206,0.158421 0.16212,0.221435 0.0207,0.0315 0.0402,0.0574 0.0554,0.08699 0.007,0.01316 0.0134,0.04037 0.0198,0.05535 4.1e-4,5.27e-4 0.007,0.01336 0.0198,0.02768 0.0259,0.02875 0.0722,0.07394 0.13049,0.126534 0.11665,0.105175 0.28474,0.24447 0.47845,0.39542 0.38741,0.301881 0.87665,0.650336 1.2693,0.897599 0.0935,0.05889 0.18775,0.127304 0.26888,0.189801 0.0812,0.0625 0.14389,0.112443 0.19772,0.177937 -0.0247,-0.03006 -0.0109,-0.01356 0.008,0 0.0188,0.01356 0.05,0.03583 0.087,0.05932 0.074,0.04697 0.17516,0.109386 0.30052,0.181885 0.25072,0.144997 0.58561,0.329858 0.94109,0.517999 0.28133,0.148905 0.68737,0.129976 0.97669,0.260976 -0.25262,-0.122505 -0.50039,-0.235428 -0.76711,-0.375648 -0.41417,-0.217723 -0.81235,-0.440549 -1.11508,-0.624762 -0.15138,-0.0921 -0.281,-0.175022 -0.37565,-0.245158 -0.0473,-0.03506 -0.0836,-0.06788 -0.11862,-0.102806 -0.0176,-0.01741 -0.034,-0.033 -0.0514,-0.05932 -0.009,-0.01316 -0.0194,-0.03033 -0.0277,-0.0514 -0.004,-0.0095 -0.009,-0.01923 -0.0119,-0.03164 0,0 0,-0.004 0,-0.004 -0.0152,-0.0075 -0.0433,-0.01579 -0.083,-0.01579 -0.11119,0 -0.18377,-0.04063 -0.26889,-0.08699 -0.0851,-0.04634 -0.17516,-0.106228 -0.27679,-0.181885 -0.20326,-0.151335 -0.44464,-0.360705 -0.69989,-0.601037 -0.51051,-0.480665 -1.07754,-1.092136 -1.49468,-1.640988 -0.246,-0.323666 -0.40412,-0.564629 -0.47846,-0.85015 -0.0743,-0.285522 -0.0598,-0.587011 -0.0158,-1.035998 0.10483,-1.069671 0.54731,-2.050589 1.20207,-2.47532 0.13429,-0.0871 0.29854,-0.132972 0.50218,-0.17399 0.20366,-0.04104 0.43604,-0.06693 0.6564,-0.07118 0.18431,-0.0036 0.32578,-0.0049 0.45078,0.0079 0.12499,0.01275 0.24876,0.04213 0.34401,0.13445 0.0953,0.09232 0.13073,0.216055 0.14632,0.340061 0.0156,0.124003 0.0158,0.264492 0.0158,0.446823 0,0.414416 0.17508,0.786164 0.55358,1.138805 0.3785,0.35264 0.96461,0.674898 1.74775,0.941095 0.38053,0.129349 0.68498,0.261691 0.91342,0.403328 0.22845,0.141637 0.39529,0.289984 0.45078,0.502182 0.0188,0.07185 0.0363,0.09918 0.0474,0.110722 0.0111,0.01154 0.0314,0.02871 0.11467,0.04349 0.16652,0.02972 0.53387,0.0213 1.19022,-0.02373 2.64679,-0.181581 3.60264,-0.413017 4.23493,-0.945051 0.39295,-0.330646 0.6382,-0.531321 0.93319,-0.557539 0.14748,-0.01316 0.29375,0.03812 0.41123,0.122586 0.11749,0.08446 0.21755,0.198527 0.33215,0.340061 0.14304,0.176661 0.20307,0.223592 0.29657,0.241206 0.0935,0.01761 0.28221,-0.0051 0.62871,-0.09489 0.46279,-0.119934 1.39756,-0.266583 2.1234,-0.336106 0.69603,-0.06667 2.04897,-0.29838 2.97355,-0.51009 0.93528,-0.214158 2.28574,-0.522818 3.00123,-0.684073 0.71296,-0.160709 2.09412,-0.482769 3.06449,-0.715709 0.48868,-0.117322 0.94091,-0.213952 1.28116,-0.276793 0.17012,-0.03142 0.31162,-0.05466 0.41914,-0.06721 0.0538,-0.0065 0.10052,-0.01134 0.14235,-0.01195 0.0209,-2.03e-4 0.0369,1.07e-4 0.0633,0.004 0.0132,0.002 0.0309,0.0047 0.0514,0.01194 0.0103,0.0036 0.0345,0.01518 0.0356,0.01579 10e-4,6.08e-4 0.0468,0.03488 0.0475,0.03559 0.001,0.0014 0.0507,0.08851 0.0514,0.09094 8.1e-4,0.0022 0.0119,0.0496 0.0119,0.06722 -2.1e-4,0.03541 -0.006,0.05855 -0.0119,0.07908 -0.0113,0.04104 -0.0288,0.07616 -0.0474,0.11467 -0.0371,0.07703 -0.09,0.16745 -0.15818,0.276794 -0.13627,0.218705 -0.32812,0.500679 -0.55359,0.802699 -0.77779,1.041885 -1.29469,1.793752 -1.57376,2.289473 -0.13954,0.247861 -0.22073,0.434767 -0.24516,0.541724 -0.0122,0.05349 -0.009,0.08396 -0.008,0.08699 0.0769,0.05857 0.12876,0.130361 0.16608,0.213527 0.0423,0.09436 0.0756,0.204282 0.1028,0.332151 0.0544,0.255742 0.0889,0.583321 0.0989,0.968776 0.0154,0.598571 0.0367,0.900888 -0.0712,1.154624 -0.054,0.126858 -0.1614,0.227358 -0.2768,0.280745 -0.1154,0.05339 -0.23388,0.08179 -0.38355,0.11467 -0.31673,0.06956 -0.73811,0.205599 -0.86202,0.268886 -0.36944,0.188667 -0.89909,0.39019 -1.40373,0.569403 0.69856,-0.225435 1.32458,-0.30155 2.05222,-0.620808 0.20336,-0.08922 0.3993,-0.169778 0.55359,-0.229342 0.0772,-0.02978 0.14364,-0.05316 0.19771,-0.07118 0.0271,-0.0089 0.0524,-0.01761 0.0751,-0.02373 0.0228,-0.0061 0.0358,-0.01195 0.087,-0.01195 0.002,0 0.0412,0.0043 0.0553,0.0079 0.0142,0.0036 0.0263,0.004 0.0356,0.0079 0.0186,0.0077 0.0303,0.01579 0.0435,0.02373 0.0264,0.01559 0.0518,0.03492 0.0791,0.05535 0.0546,0.04086 0.11888,0.09266 0.19375,0.158178 0.14971,0.131049 0.33852,0.310848 0.53381,0.506136 0.51085,0.510867 0.77093,0.64058 1.23766,0.64058 0.26664,0 0.47042,-0.02259 0.61685,-0.06722 0.14644,-0.04462 0.23614,-0.10226 0.31238,-0.205617 0.15247,-0.206692 0.24114,-0.652199 0.27284,-1.435369 l 0.0633,-1.573767 1.07159,-0.118618 c 0.34042,-0.03782 0.5500401,-0.08639 0.6287101,-0.126534 0.0392,-0.02004 0.044,-0.02875 0.0435,-0.02768 -6.1e-4,0.0011 0.002,-0.0059 -0.004,-0.04349 -0.0217,-0.132101 0.0279,-0.238145 0.0909,-0.34006 0.0631,-0.101916 0.15192,-0.203933 0.26493,-0.316335 0.19201,-0.190975 0.49382,-0.420702 0.83038,-0.664304 -0.22777,0.157166 -0.46385,0.349086 -0.63662,0.438915 -0.13109,0.06815 -0.22015,0.116736 -0.31634,0.142346 -0.0241,0.0065 -0.0472,0.01275 -0.087,0.01194 -0.0198,-4.05e-4 -0.0452,-0.0013 -0.0751,-0.01194 -0.015,-0.0053 -0.0463,-0.02296 -0.0475,-0.02373 -0.001,-7.69e-4 -0.0466,-0.04247 -0.0475,-0.04349 -8.7e-4,-0.001 -0.035,-0.05407 -0.0356,-0.05535 -6e-4,-0.0013 -0.01,-0.0346 -0.0119,-0.0514 -0.005,-0.03357 -0.004,-0.06223 0,-0.08305 0.008,-0.04162 0.023,-0.06414 0.0356,-0.08699 0.0503,-0.09141 0.11918,-0.170912 0.23725,-0.30052 0.11807,-0.129611 0.28064,-0.298964 0.49032,-0.514043 0.31994,-0.328177 0.59807,-0.575424 0.83433,-0.739433 0.11813,-0.08199 0.2269,-0.142932 0.33215,-0.181885 0.10526,-0.03893 0.21697,-0.06153 0.33611,-0.01579 0.0811,0.03114 0.17069,0.07718 0.22143,0.185853 0.0508,0.108677 0.0221,0.22901 -0.0237,0.312381 -0.0808,0.146921 -0.24418,0.294365 -0.45869,0.478456 l 0.81061,-0.569403 0.81456,0.478457 c 0.197719,0.116654 0.375318,0.236661 0.510092,0.336106 0.06738,0.04972 0.12457,0.09181 0.170021,0.13445 0.02274,0.02132 0.04284,0.04051 0.06327,0.06722 0.01012,0.01336 0.02089,0.02944 0.03164,0.0514 0.0055,0.01093 0.01113,0.02314 0.01579,0.03954 0.0047,0.0164 0.0079,0.06149 0.0079,0.06327 -2e-6,8.7e-4 -0.0015,0.03215 -0.004,0.04349 -0.0024,0.01134 -0.0053,0.02039 -0.0079,0.02768 -0.0051,0.01478 -0.01134,0.02628 -0.01579,0.03559 -0.0091,0.01842 -0.01782,0.03166 -0.02768,0.04745 -0.02004,0.03166 -0.04428,0.06865 -0.07513,0.110723 -0.06173,0.08412 -0.147509,0.193222 -0.253068,0.324242 -0.211106,0.262049 -0.500275,0.606262 -0.818515,0.972729 -1.68763,1.943327 -3.16064,4.26391 -4.4168301,6.967279 -0.23469,0.505043 -0.62041,1.178693 -0.88969,1.538177 -0.23712,0.31654 -0.74103,1.113971 -1.09531,1.739843 -0.67155,1.18633 -1.73041,2.09669 -3.02496,2.601856 -0.19119,0.0746 -0.62837,0.201706 -1.21789,0.367738 -0.58951,0.166033 -1.32009,0.362505 -2.04827,0.549634 -1.64647,0.423107 -2.63115,0.726928 -3.17125,1.016225 -0.27005,0.144654 -0.42561,0.282001 -0.51405,0.419144 -0.0884,0.137142 -0.11861,0.284588 -0.11861,0.490318 0,0.283709 0.0214,0.403046 0.11072,0.518 0.0893,0.114933 0.28876,0.251642 0.68012,0.46264 0.4178,0.225243 0.6386,0.324549 0.96482,0.363785 0.32622,0.03923 0.77925,0.01174 1.62121,-0.06327 1.00773,-0.08981 3.34549,-0.167714 5.22349,-0.17399 l 3.34524,-0.0079 1.3444201,-0.889692 c 1.31911,-0.869931 2.50551,-1.807084 5.875927,-4.64617 0.833572,-0.702163 2.230363,-1.796999 3.49550096,-2.760022 0.63257,-0.481512 1.23253,-0.928964 1.71216204,-1.277202 0.479637,-0.34824 0.821204,-0.590001 1.004364,-0.688029 0.07084,-0.0379 0.291259,-0.191927 0.54568,-0.38751 0.254416,-0.195611 0.558262,-0.43772 0.84224,-0.680121 0.300712,-0.25668 0.597974,-0.472004 0.850151,-0.620806 0.126088,-0.07438 0.23975,-0.131919 0.344014,-0.170021 0.104264,-0.038 0.194599,-0.08046 0.332151,-0.02768 -0.02272,-0.0087 0.0447,-9.45e-4 0.142346,-0.05932 0.09764,-0.05837 0.218312,-0.159008 0.320289,-0.288655 0.128133,-0.162915 0.285851,-0.30799 0.446822,-0.41519 0.160972,-0.10722 0.318226,-0.185853 0.498228,-0.185853 0.07201,0 0.155283,-0.02004 0.221435,-0.04745 0.06614,-0.02739 0.109184,-0.07106 0.106754,-0.06721 0.04286,-0.06934 0.08748,-0.105742 0.150262,-0.162125 0.06278,-0.05638 0.140604,-0.121878 0.229342,-0.189801 0.177472,-0.135827 0.402597,-0.289719 0.63267,-0.434959 0.4256,-0.268668 1.234818,-0.912849 1.759614,-1.403738 l 1.1150799,-1.043905 1.380012,1.328606 c 0.674258,0.648421 1.644677,1.462903 2.115491,1.78334 0.701913,0.477719 1.862732,1.082896 2.973548,1.581675 1.110815,0.498778 2.196203,0.89239 2.669076,0.956912 0.25291,0.0345 0.611139,0.111917 0.834332,0.181886 1.292716,0.405214 2.75652,0.45686 9.118357,0.292609 1.472018,-0.0379 2.230302,-0.05318 2.74025,0.004 0.509949,0.05713 0.772117,0.208886 1.14276,0.454733 0.263946,0.175082 0.590886,0.507652 0.968777,0.956912 0.377891,0.449259 0.79829,1.012529 1.20998,1.621217 1.51889,2.245672 2.311262,3.002406 4.626401,4.432643 1.034426,0.638997 1.728274,0.939107 2.131306,0.941097 0.201523,9.92e-4 0.32614,-0.05458 0.446823,-0.177937 0.120683,-0.123356 0.231397,-0.330242 0.324243,-0.63267 0.156821,-0.510875 0.09173,-1.050449 -0.328197,-1.866376 -0.41967,-0.815912 -1.198795,-1.883695 -2.43156,-3.376858 -2.772085,-3.357645 -3.533532,-5.225467 -3.538998,-8.667578 -0.0013,-0.809826 -0.0168,-1.281014 -0.07513,-1.581675 -0.05831,-0.300665 -0.144431,-0.433548 -0.336106,-0.656396 -0.318419,-0.370185 -0.754829,-0.572227 -1.344423,-0.601036 -0.589596,-0.02881 -1.3297,0.123963 -2.190621,0.470548 l -1.447231,0.585219 -1.973141,-0.347968 c -1.069596,-0.189518 -2.394472,-0.559582 -3.017043,-0.854105 -0.607653,-0.287465 -1.367128,-0.867628 -2.032452,-1.48282 -0.665324,-0.61519 -1.227115,-1.235573 -1.4156,-1.720071 -0.06424,-0.165142 -0.176196,-0.575452 -0.332152,-1.146713 -0.155951,-0.571264 -0.347246,-1.285723 -0.52986,-1.9929108 -0.182614,-0.707189 -0.359373,-1.405721 -0.49032,-1.945461 -0.06547,-0.269869 -0.120055,-0.499922 -0.158178,-0.672211 -0.01903,-0.08614 -0.03276,-0.157024 -0.04349,-0.213527 -0.01073,-0.05651 -0.01984,-0.08205 -0.01984,-0.142345 0,-0.08892 0.04278,-0.138256 0.07118,-0.170021 0.02842,-0.03179 0.05339,-0.05094 0.08305,-0.07118 0.05932,-0.04039 0.131292,-0.07815 0.213527,-0.114671 0.164474,-0.07304 0.379365,-0.145625 0.616852,-0.20957 0.444039,-0.11957 1.206404,-0.631506 1.763568,-1.138806 0.278583,-0.253651 0.510292,-0.507168 0.636624,-0.695937 0.06171,-0.09222 0.09151,-0.169333 0.09886,-0.201665 -0.113637,-0.08548 -0.214951,-0.204713 -0.221434,-0.355876 -0.0071,-0.168746 0.06426,-0.311774 0.166073,-0.502182 -0.02446,0.0059 -0.04881,0.01701 -0.07513,0.01984 -0.03883,0.004 -0.08286,0.0043 -0.13445,-0.01194 -0.05159,-0.0162 -0.105924,-0.05349 -0.138397,-0.102807 -0.06495,-0.09866 -0.05422,-0.185185 -0.04349,-0.260975 0.01073,-0.0758 0.03375,-0.155384 0.06327,-0.253068 0.32,-1.058614 0.320061,-2.00591002 0.01984,-2.82328902 -0.183322,-0.49900798 -0.418344,-1.18476998 -0.525908,-1.53817998 -0.06847,-0.224953 -0.145362,-0.359284 -0.304471,-0.498228 -0.159109,-0.138944 -0.411865,-0.278312 -0.818517,-0.454731 -1.32589,-0.575233 -2.543758,-0.677912 -3.550861,-0.328197 -0.242852,0.08434 -0.463202,0.139775 -0.636624,0.166074 -0.08669,0.01316 -0.156963,0.02057 -0.233296,0.01194 -0.03818,-0.0043 -0.08208,-0.0081 -0.13445,-0.03954 -0.01761,-0.01053 -0.02233,-0.04634 -0.03954,-0.06721 -0.0053,0 -0.0049,0.0011 -0.03164,0.004 -0.07997,0.0085 -0.219805,0.0444 -0.367738,0.09886 -0.295851,0.108941 -0.641556,0.313181 -0.719663,0.407281 -0.08602,0.103657 -0.195915,0.179476 -0.312381,0.225389 -0.116472,0.04588 -0.246265,0.06697 -0.379602,0.01579 0.0024,9.32e-4 -0.0038,-0.0057 -0.06327,0.03954 -0.05938,0.04529 -0.143095,0.138823 -0.221434,0.268883 -0.15666,0.260112 -0.29993,0.654264 -0.363785,1.067631 l -0.146293,0.95280098 -2.771886,-0.83828598 c -1.410607,-0.425072 -3.3171279,-1.111471 -4.2705319,-1.542134 -1.263421,-0.570703 -2.646834,-1.29272 -3.760432,-1.937551 -0.556794,-0.322417 -1.04378,-0.623495 -1.419551,-0.881784 -0.375772,-0.258289 -0.630856,-0.445278 -0.763158,-0.644534 -0.140038,-0.210915 -0.239467,-0.364754 -0.229345,-0.565447 0.01012,-0.200693 0.128194,-0.34069 0.288656,-0.517999 0.153521,-0.169617 0.206702,-0.327359 0.173989,-0.569403 -0.03272,-0.242045 -0.170183,-0.566047 -0.434961,-0.984593 -0.115237,-0.182148 -0.19223,-0.322034 -0.213527,-0.474502 -0.01073,-0.07622 -0.0032,-0.167207 0.04349,-0.24516 0.04675,-0.07794 0.125967,-0.126352 0.197717,-0.150262 0.05912,-0.01964 0.05831,-0.02172 0.06721,-0.04745 0.0089,-0.02573 0.01336,-0.10556 -0.02373,-0.241206 -0.0742,-0.2713032 -0.302236,-0.7398152 -0.703845,-1.4274622 -0.323751,-0.554336 -0.562621,-0.964618 -0.759204,-1.23766 -0.196583,-0.273032 -0.34151,-0.389929 -0.462641,-0.419143 -0.12112804,-0.02921 -0.28484504,0.0085 -0.55753904,0.166073 -0.272694,0.157631 -0.632714,0.424828 -1.12299,0.78293 l -1.83078696,1.336514 -0.711754,-0.838286 c -0.430305,-0.506525 -1.095135,-1.467774 -1.65285,-2.340879 -0.278859,-0.436554 -0.528993,-0.849529 -0.707801,-1.170439 -0.0894,-0.160445 -0.16006,-0.296721 -0.20957,-0.407282 -0.02476,-0.05529 -0.04515,-0.102948 -0.05932,-0.150261 -0.01417,-0.04729 -0.0397,-0.08554 -0.004,-0.193749 -0.02545,0.07701 -0.0095,0.0024 -0.0514,-0.07908 -0.04181,-0.08153 -0.110965,-0.185306 -0.193755,-0.276794 -0.13937,-0.153986 -0.23857,-0.281741 -0.26888,-0.446822 -0.0303,-0.16508 0.0506,-0.33134 0.16213,-0.44287 0.0464,-0.0464 0.0521,-0.0296 0.0198,-0.13048 -0.0324,-0.10092 -0.14245,-0.28566 -0.34006,-0.54963 -0.38815,-0.51849 -1.16113,-1.4339 -1.89801,-2.26575 -0.73689,-0.83185 -1.46509,-1.60038 -1.6844901,-1.77939 -0.2167,-0.17682 -0.37787,-0.36014 -0.43496,-0.62871 -0.057,-0.26857 -0.0334,-0.59102 0.0198,-1.15067 0.18972,-1.99663 0.5040801,-4.49883 0.8343401,-6.64303 0.1901,-1.23427 0.23462,-2.70285 0.16607,-3.81184 -0.0343,-0.55449 -0.0982,-1.02185 -0.17794,-1.30884 -0.0386,-0.13912 -0.0816,-0.23269 -0.1028,-0.26097 -0.047,0.01 -0.0936,0.0282 -0.13049,0.0158 -0.0581,-0.0194 -0.0932,-0.05 -0.1225801,-0.0791 -0.0588,-0.0582 -0.0979,-0.12287 -0.1384,-0.20166 -0.081,-0.15759 -0.15909,-0.36991 -0.22143,-0.61686 -0.11558,-0.45765 -0.42168,-1.47663 -0.67617,-2.24202 -0.25901,-0.77898 -0.57255,-1.90184 -0.70384,-2.52277 -0.0627,-0.29665 -0.13921,-0.59873 -0.21353,-0.8462 -0.0743,-0.24747 -0.16225,-0.45498 -0.18189,-0.48636 -0.0241,-0.0384 -0.0321,-0.0506 -0.0474,-0.0712 z m -12.49128,31.352745 c 0.11251,0.01458 0.18286,0.07661 0.24516,0.138397 0.12457,0.123558 0.22467,0.295673 0.31634,0.498227 0.18332,0.405109 0.33167,0.8971302 0.2333,1.2890652 -0.0194,0.07764 -0.0292,0.279278 -0.0158,0.502182 0.0134,0.222904 0.0457,0.476906 0.0949,0.695937 0.0542,0.241496 0.0882,0.460766 0.0949,0.63267 0.003,0.08594 -2.2e-4,0.156396 -0.0158,0.229342 -0.008,0.03648 -0.016,0.07614 -0.0475,0.122586 -0.0315,0.04644 -0.1088,0.102807 -0.19375,0.102807 -0.17727,0 -0.27055,-0.11459 -0.34797,-0.225389 -0.0774,-0.110803 -0.14686,-0.251039 -0.21353,-0.415189 -0.13333,-0.32831 -0.256,-0.753062 -0.35587,-1.198119 -0.0999,-0.445058 -0.17298,-0.907099 -0.20167,-1.2969732 -0.0144,-0.194944 -0.0209,-0.372223 -0.008,-0.525908 0.013,-0.153683 0.036,-0.284485 0.11468,-0.403326 0.058,-0.08762 0.18799,-0.16089 0.30051,-0.146313 z m 43.30626,7.7976572 c 0,0.02668 0.01255,0.06837 0.03559,0.09489 0.01336,0.01539 0.0211,0.01802 0.03164,0.02373 -0.02859,-0.03944 -0.06721,-0.07041 -0.06721,-0.118618 z M -19.173244,21.73983 c -0.12873,0.02762 -0.27097,0.06327 -0.36774,0.06327 -0.22485,0 -0.60207,0.08861 -0.73944,0.162125 -0.16826,0.09005 -0.40563,0.136009 -0.74338,0.193749 -0.33776,0.05774 -0.75135,0.107787 -1.16253,0.142346 -0.40179,0.03377 -0.78917,0.07695 -1.08345,0.118618 -0.14715,0.02083 -0.27009,0.0411 -0.35983,0.05932 -0.0449,0.0091 -0.0792,0.01701 -0.10281,0.02373 -0.0237,0.0067 -0.0412,0.01964 -0.0158,0.004 -0.0707,0.04361 -0.11141,0.04401 -0.17002,0.05535 -0.0586,0.01134 -0.1282,0.02272 -0.20957,0.03164 -0.16278,0.01761 -0.37262,0.03114 -0.62081,0.04349 -0.49639,0.02486 -1.13803,0.03883 -1.80311,0.04349 -1.33017,0.0091 -2.72846,-0.01741 -3.28198,-0.106755 -0.034,-0.0055 -0.0783,-0.0065 -0.11467,-0.01194 0.29043,0.03296 0.45953,0.18146 0.76316,0.205616 2.4321,0.193385 5.26083,0.107544 6.33461,-0.166073 0.51095,-0.130198 1.47738,-0.313106 2.1748,-0.411235 0.45066,-0.06341 1.01464,-0.331086 1.50259,-0.450777 z" id="path3811-3" />
            <path id="path2514-7-5-6-1" d="m -15.660079,10.366799 c -0.54656,-0.3828303 -0.63025,-1.1206303 -0.63025,-5.5563503 0,-4.36070978 0.079,-5.09687978 0.59689,-5.56559978 0.29161,-0.26392002 0.35264,-0.26136002 2.11224,0.089 1.5645,0.3115 2.22706,0.36076 4.8518003,0.36076 2.63449,0 3.28445,-0.0487 4.87405,-0.36509 l 1.83418,-0.36508002 0.35303,0.41043002 0.35303,0.41042 v 5.04017978 5.0402 l -0.36398,0.3639703 -0.36397,0.36397 h -6.6466 c -5.7250503,0 -6.6915103,-0.0313 -6.9704203,-0.22681 z m 8.3682603,-2.6046703 c 0.11755,-0.11756 0.0605,-0.54652 -0.20684,-1.55594 l -0.3691701,-1.39362 0.3847901,-0.4572898 c 1.03367,-1.22845 -0.2334501,-3.01612 -1.77683,-2.50676 -1.0493703,0.34632 -1.4255103,1.66341 -0.71588,2.50676 l 0.38479,0.4572898 -0.36917,1.39362 c -0.2674003,1.00942 -0.3244203,1.43836 -0.2068403,1.55594 0.0924,0.0924 0.7116003,0.16232 1.4375803,0.16232 0.7259799,0 1.34518,-0.0699 1.43758,-0.16232 z m -5.8600703,-9.5069398 -0.78948,-0.14374 0.0481,-2.02587 c 0.0435,-1.8317 0.0862,-2.10718 0.44563,-2.87412 0.49112,-1.04786 1.49289,-2.04226 2.61002,-2.59084 0.75753,-0.372 1.0057803,-0.41634 2.3307003,-0.41632 1.31847,3e-5 1.57511,0.0454 2.315,0.40886 0.99651,0.48958 2.24702,1.76241 2.69399,2.74207 0.26462,0.58 0.33116,1.04842 0.37654,2.65109 l 0.0551,1.94661 -0.79261,0.17497 c -1.64491,0.36309 -1.4599,0.51292 -1.4599,-1.18226 0,-2.06469 -0.19089,-2.72024 -1.03927,-3.5686 -0.53701,-0.53701 -0.85831,-0.7268 -1.4425701,-0.8521 -1.4939799,-0.3204 -2.9589002,0.42219 -3.6127302,1.83135 -0.21802,0.46992 -0.27587,0.95512 -0.27846,2.33551 -0.004,1.98391 0.12032,1.8511 -1.46002,1.56339 z" style="display:inline;fill:#ffffff;stroke-width:0.14828582" />
         </g>
      </g>
      <g id="badge-alice" transform="matrix(0.48994943,0,0,0.48994943,47.496002,78.434144)">
         <image clip-path="url(#clipPath2699)" width="100" height="100" preserveAspectRatio="none" xlink:href="~/badges/alice.png" id="image2273" x="-50" y="-50" />
         <g class="shadow" id="g9300">
            <path id="path3776-7" d="m 5.7985306,-38.101547 c -2.107851,-0.007 -2.677238,0.0597 -3.903463,0.46142 -0.792382,0.25957 -1.74824695,0.67957 -2.04289995,0.87818 -0.242931,0.16375 -0.711026,0.62437 -1.17959705,1.15727 -0.468574,0.53291 -0.950885,1.14597 -1.261463,1.62614 -1.003346,1.55121 -1.8738,2.96803 -2.508041,4.07463 -0.970562,1.69341 -1.585511,2.71565 -2.0429,3.33041 -0.228694,0.30739 -0.417012,0.51336 -0.602823,0.6512 -0.185815,0.13784 -0.378195,0.20196 -0.561891,0.20466 -0.290966,0.004 -0.432752,0.11773 -0.442813,0.13025 0.0178,0.0205 0.07625,0.067 0.193499,0.1042 0.103257,0.0328 0.205916,0.0567 0.29397,0.15629 0.04403,0.0498 0.07301,0.12121 0.07814,0.18978 0.0051,0.0685 -0.0081,0.13195 -0.02977,0.1935 -0.08604,0.24615 -0.307811,0.54795 -0.72934,1.13867 -1.4682136,2.05752 -1.5878786,4.01075 -0.390718,6.660816 1.019745,2.257334 3.587496,4.248704 5.991016,4.647689 l 0.881909,0.145114 0.137689,4.4988448 c 0.07203,2.38848 0.217947,6.503007 0.327459,9.13909 0.109621,2.638859 0.207911,5.803475 0.215828,7.044098 0.0068,1.085832 0.0085,1.661323 -0.07814,2.1247632 -0.0867,0.46344 -0.263929,0.789085 -0.576776,1.335887 -0.332485,0.58112 -0.628824,0.987285 -1.187039,1.436353 -0.558218,0.449069 -1.37321,0.949949 -2.783407,1.77498 -0.677131,0.396154 -2.337813,1.226914 -3.7174056,1.864284 -1.37249,0.634092 -2.787993,1.328492 -3.081094,1.503337 -0.37162,0.221682 -1.171017,0.525285 -1.84568,0.714458 -0.65537,0.18375 -2.187887,0.640099 -3.397389,1.012147 -1.215598,0.373919 -2.648323,0.764059 -3.2225,0.874463 -0.543912,0.104602 -1.544384,0.321464 -2.21779,0.480025 l -1.596366,0.375836 0.439093,-1.049358 c 0.08767,-0.209865 0.132141,-0.38747 0.145114,-0.517239 0.01288,-0.129773 -0.0125,-0.205716 -0.02233,-0.219546 -0.0097,-0.01383 0.01477,-0.01269 -0.04093,0 -0.05572,0.01269 -0.170776,0.06854 -0.308854,0.193499 -0.09888,0.08949 -0.171591,0.160606 -0.238152,0.212104 -0.06655,0.0515 -0.112841,0.116042 -0.260477,0.09674 -0.07383,-0.0097 -0.147898,-0.06996 -0.174906,-0.119072 -0.0178,-0.03214 -0.01705,-0.0561 -0.02233,-0.08188 9.11e-4,0.0097 -9.54e-4,0.0087 0,0.01875 l 0.145114,1.518219 -0.881908,-0.777717 c -0.287036,-0.253894 -0.78563,-0.708146 -1.112617,-1.012147 -0.292322,-0.271773 -0.49943,-0.407955 -0.595381,-0.450256 0.0014,-0.004 0.01818,0.07814 0.04837,0.193498 0.03214,0.122179 0.07581,0.284622 0.133959,0.472584 0.116288,0.375925 0.276155,0.859123 0.446536,1.350769 0.340758,0.983293 0.737774,2.029874 0.893069,2.333149 l 0.234432,0.461419 1.406587,-0.119072 c 0.843378,-0.07081 2.567382,-0.209614 3.832762,-0.308853 1.255892,-0.0985 3.504033,-0.36429 4.982592,-0.59166 0.744254,-0.114451 1.490939,-0.222582 2.091275,-0.29769 0.600334,-0.07513 1.037153,-0.119943 1.239134,-0.119072 1.151484,0.0045 2.282258,0.844836 2.969462,2.14337 1.2091976,2.284906 3.2577326,3.718774 5.6598356,3.963001 0.675003,0.06862 1.549633,0.26015 2.009408,0.453978 l 1.045653,0.442752 -1.18332,1.012147 c -0.957047,0.822229 -5.327135,3.951992 -6.820828,4.889563 -0.157803,0.09905 -0.279656,0.175455 -0.379556,0.230711 -0.09989,0.05525 -0.166685,0.09174 -0.2604786,0.107916 -0.04689,0.008 -0.121345,0.01042 -0.193498,-0.04466 -0.07216,-0.05519 -0.08638,-0.140057 -0.08559,-0.189778 0.0016,-0.09943 0.0289,-0.158978 0.06326,-0.241874 0.19454,-0.46951 0.3294376,-0.929118 0.3869986,-1.287513 0.02879,-0.179204 0.03763,-0.333617 0.02977,-0.442811 -0.0078,-0.107936 -0.04089,-0.159489 -0.03722,-0.156288 -0.01553,0.0178 -0.07025,0.07155 -0.1376886,0.219548 -0.146913,0.322428 -0.341893,0.54182 -0.595382,0.59166 -0.126742,0.02492 -0.278619,-0.0214 -0.364669,-0.130247 -0.04589,-0.05803 -0.04347,-0.146098 -0.05954,-0.219546 -0.01705,0.151573 -0.03165,0.312037 -0.02604,0.509795 l 0.04093,1.45124 -1.912659,-1.897775 c -0.428967,-0.426451 -0.831802,-0.799916 -1.134943,-1.053081 -0.08941,-0.07466 -0.14714,-0.112045 -0.215826,-0.163731 0.01023,0.04619 0.01193,0.07608 0.02604,0.130246 0.07252,0.278641 0.196958,0.651505 0.346065,1.045638 0.302657,0.800007 0.71383,1.90433 0.915398,2.455946 0.197414,0.540245 0.636062,1.599271 0.967492,2.336868 0.347169,0.772615 0.64483,1.157354 0.859581,1.235415 0.107386,0.03903 0.206297,0.0317 0.360951,-0.04837 0.15464,-0.08006 0.347239,-0.236884 0.573054,-0.472582 0.3333806,-0.347977 0.8095796,-0.677404 1.1795956,-0.770273 0.04566,-0.01136 0.199104,-0.06417 0.401883,-0.145114 0.202777,-0.08097 0.46601,-0.194167 0.766554,-0.323739 0.601082,-0.259146 1.356291,-0.598916 2.124762,-0.956331 1.543557,-0.717904 3.765576,-1.692318 4.94910005,-2.173139 1.173127,-0.476597 2.94617095,-1.245405 3.92579095,-1.700555 l 1.849402,-0.855861 1.469846,0.331181 c 2.253232,0.512487 3.8107744,0.426866 5.2951644,-0.275362 3.010386,-1.424138 6.925688,-5.70168 8.145551,-8.912104 0.195438,-0.514349 0.462722,-1.626879 0.580497,-2.418734 0.232922,-1.566062 -0.0032,-2.830952 -0.848418,-4.487681 -0.201131,-0.394251 -0.318635,-0.685295 -0.342343,-1.469845 -0.02371,-0.78455 0.03087,-2.089557 0.141402,-4.629085 0.273392,-6.2813502 0.427019,-14.8604992 0.453979,-22.181648 0.01345,-3.660572 -0.0028,-7.009445 -0.05583,-9.596792 -0.05301,-2.58734 -0.147614,-4.44087 -0.260479,-5.0198 -0.611863,-3.13847 -2.228039,-6.11292 -4.487674,-8.26835 -2.195366,-2.09412 -3.236657,-2.77549 -5.6449504,-3.69508 -0.949922,-0.36272 -1.510436,-0.43239 -3.590891,-0.43909 z" style="display:inline;fill:#000000;stroke-width:0.2" />
            <path id="path2514-7-5-6" d="m 1.3712464,21.959356 c -0.52050304,-0.36458 -0.60020104,-1.06719 -0.60020104,-5.29144 0,-4.1528 0.07519,-4.85387 0.56842604,-5.30024 0.27771,-0.25134 0.335827,-0.24891 2.011534,0.0847 1.489915,0.29665 2.12088,0.34355 4.620483,0.34355 2.5088856,0 3.1278556,-0.0463 4.6416686,-0.34768 l 1.746733,-0.34767 0.336202,0.39085 0.336198,0.39086 v 4.79988 4.79989 l -0.346625,0.34662 -0.34662,0.34663 H 8.0093314 c -5.452093,0 -6.372476,-0.0298 -6.638085,-0.216 z m 7.969283,-2.48049 c 0.111951,-0.11195 0.05764,-0.52046 -0.196979,-1.48175 l -0.351569,-1.32717 0.366444,-0.4355 c 0.9843886,-1.16988 -0.222319,-2.87232 -1.692118,-2.38724 -0.999337,0.32981 -1.35754,1.5841 -0.681745,2.38724 l 0.366446,0.4355 -0.351571,1.32717 c -0.254653,0.96129 -0.308955,1.36979 -0.19698,1.48175 0.08799,0.088 0.677678,0.15459 1.369041,0.15459 0.691366,0 1.281043,-0.0666 1.369044,-0.15459 z m -5.580676,-9.05366 -0.75184,-0.1369 0.04576,-1.9292802 c 0.04137,-1.74437 0.08207,-2.00671 0.424377,-2.73709 0.467709,-0.99789 1.421718,-1.94489 2.485587,-2.46732 0.721415,-0.35426 0.957829,-0.39649 2.219576,-0.39646 1.255609,2e-5 1.500012,0.0432 2.2046316,0.38936 0.948998,0.46624 2.139884,1.67838 2.56555,2.61134 0.252002,0.55235 0.315365,0.99843 0.358584,2.52469 l 0.05249,1.8538002 -0.754823,0.16663 c -1.566488,0.34578 -1.390294,0.48847 -1.390294,-1.1258902 0,-1.96626 -0.181794,-2.59055 -0.989725,-3.39846 -0.5114066,-0.51141 -0.8173856,-0.69215 -1.3737876,-0.81148 -1.422753,-0.30512 -2.817832,0.40206 -3.440484,1.74404 -0.20763,0.44751 -0.262719,0.90958 -0.265189,2.22416 -0.0037,1.8893302 0.114584,1.7628402 -1.390413,1.4888602 z" style="display:inline;fill:#ffffff;stroke-width:0.14121598" />
         </g>
         <clipPath id="clipPath2699" clipPathUnits="userSpaceOnUse">
            <path id="path2701" d="m 5.798525,-38.101547 c -2.1078502,-0.0069 -2.6772376,0.0597 -3.9034621,0.461422 -0.7923818,0.259569 -1.74824775,0.67957 -2.04290061,0.87818 -0.24293119,0.163752 -0.71102644,0.624369 -1.17959729,1.157268 -0.4685728,0.532911 -0.9508838,1.145972 -1.2614628,1.626142 -1.0033464,1.551209 -1.8737995,2.968028 -2.5080405,4.074628 -0.9705614,1.693412 -1.5855105,2.71565 -2.0429006,3.330411 -0.228693,0.307389 -0.4170124,0.51336 -0.6028234,0.6512 -0.1858151,0.137831 -0.3781942,0.20196 -0.5618907,0.20466 -0.2909647,0.0041 -0.4327508,0.117727 -0.442811,0.130259 0.017757,0.02049 0.076253,0.06701 0.1934894,0.104194 0.1032555,0.0328 0.2059171,0.0567 0.2939711,0.156281 0.044025,0.0498 0.073008,0.121217 0.078131,0.189775 0.0051,0.0685 -0.00816,0.131952 -0.029779,0.19351 -0.08605,0.24615 -0.3078114,0.547948 -0.7293406,1.138668 -1.4682149,2.057521 -1.5878799,4.010751 -0.3907179,6.66082 1.019744,2.257331 3.5874947,4.2487 5.9910142,4.64769 l 0.8819094,0.145117 0.1376877,4.4988504 c 0.072028,2.3884791 0.217947,6.5029997 0.3274583,9.1390901 0.1096235,2.6388601 0.2079112,5.8034683 0.2158284,7.0440984 0.00674,1.0858304 0.00857,1.6613204 -0.078131,2.1247621 -0.086703,0.46344 -0.2639272,0.78909 -0.5767758,1.335889 -0.3324833,0.581119 -0.6288241,0.987279 -1.1870388,1.43635 -0.5582148,0.449071 -1.3732091,0.949949 -2.7834036,1.774979 -0.6771311,0.396151 -2.3378148,1.226911 -3.7174078,1.86428 -1.372489,0.634101 -2.787992,1.328501 -3.081093,1.503341 -0.37162,0.22168 -1.171017,0.525289 -1.845681,0.71446 -0.655369,0.183753 -2.187887,0.640101 -3.397389,1.012149 -1.215597,0.37391 -2.648322,0.76405 -3.2225,0.874462 -0.543911,0.104602 -1.544384,0.32146 -2.21779,0.480019 l -1.596365,0.375841 0.439092,-1.049362 c 0.08766,-0.209858 0.132136,-0.387468 0.145117,-0.517239 0.01286,-0.129768 -0.01245,-0.205711 -0.02233,-0.219541 -0.0098,-0.01388 0.01469,-0.01265 -0.04092,0 -0.05572,0.01265 -0.170773,0.0685 -0.308852,0.193489 -0.09889,0.0895 -0.171589,0.160609 -0.238154,0.2121 -0.06656,0.05149 -0.112848,0.116032 -0.260477,0.0967 -0.07382,-0.01 -0.147893,-0.07001 -0.174916,-0.119074 -0.01776,-0.03221 -0.01694,-0.05611 -0.02233,-0.08191 9.1e-4,0.01 -9.55e-4,0.009 0,0.01878 l 0.145117,1.5182 -0.881908,-0.777709 c -0.287035,-0.2539 -0.78563,-0.708151 -1.112616,-1.012151 -0.292322,-0.271769 -0.499432,-0.407959 -0.595382,-0.450259 0.0014,-0.0041 0.01817,0.07809 0.04837,0.193489 0.03215,0.122176 0.0758,0.284621 0.133953,0.47258 0.116297,0.37593 0.276155,0.859131 0.446536,1.35077 0.340757,0.983297 0.737774,2.029876 0.893069,2.333153 l 0.234433,0.461419 1.406586,-0.119074 c 0.843378,-0.0708 2.567381,-0.209613 3.832762,-0.308852 1.255891,-0.0985 3.504034,-0.364291 4.982592,-0.591661 0.744253,-0.114441 1.490938,-0.222582 2.091275,-0.29769 0.600334,-0.07513 1.037152,-0.119951 1.239134,-0.119074 1.151484,0.0045 2.282258,0.844837 2.969462,2.143371 1.2091977,2.284905 3.2577316,3.718773 5.6598346,3.963 0.6750023,0.06862 1.5496334,0.26015 2.0094074,0.453978 l 1.0456548,0.442752 -1.1833201,1.012147 c -0.9570477,0.82223 -5.3271355,3.951992 -6.8208284,4.889564 -0.1578122,0.09905 -0.2796554,0.175447 -0.3795555,0.230709 -0.099888,0.05525 -0.1666907,0.09175 -0.2604798,0.107909 -0.04688,0.008 -0.121339,0.01041 -0.193489,-0.04466 -0.07215,-0.05519 -0.08638,-0.140055 -0.08558,-0.189775 0.0016,-0.09944 0.0289,-0.158975 0.06325,-0.241874 0.19453,-0.469509 0.3294357,-0.929118 0.3869968,-1.287512 0.028799,-0.179202 0.037636,-0.333618 0.029778,-0.442811 -0.00776,-0.10793 -0.040882,-0.159486 -0.037228,-0.156282 -0.015512,0.01776 -0.070252,0.07154 -0.1376878,0.219547 -0.146913,0.322428 -0.341895,0.54182 -0.595384,0.591659 -0.126748,0.02492 -0.278619,-0.02139 -0.364668,-0.130237 -0.04588,-0.05803 -0.04347,-0.146097 -0.05954,-0.219546 -0.01694,0.151567 -0.03166,0.312037 -0.02604,0.509794 l 0.04092,1.451241 -1.912659,-1.897775 c -0.428966,-0.42645 -0.831802,-0.799915 -1.134943,-1.05308 -0.08942,-0.07466 -0.147138,-0.112052 -0.215825,-0.163731 0.0102,0.04619 0.01204,0.07609 0.02604,0.130238 0.07252,0.278641 0.196959,0.651506 0.346064,1.045638 0.302658,0.800007 0.713831,1.904331 0.915399,2.455945 0.197408,0.540246 0.636061,1.599272 0.967491,2.33687 0.347169,0.772615 0.64483,1.157354 0.859581,1.235413 0.107378,0.03903 0.206297,0.0317 0.360951,-0.04837 0.154649,-0.08007 0.34724,-0.236886 0.573055,-0.472583 0.3333802,-0.347977 0.8095804,-0.677403 1.1795961,-0.770272 0.045658,-0.01143 0.1991022,-0.06417 0.4018823,-0.145117 0.202776,-0.08097 0.4660114,-0.194163 0.7665546,-0.323739 0.6010825,-0.259145 1.356291,-0.598915 2.1247622,-0.956332 1.5435572,-0.717902 3.7655763,-1.692317 4.94910052,-2.173138 C 0.34054391,35.040678 2.1135881,34.27187 3.0932076,33.816719 l 1.8494031,-0.85586 1.4698456,0.331181 c 2.2532305,0.512486 3.8107727,0.426865 5.2951647,-0.275363 3.010384,-1.424137 6.925686,-5.70168 8.145551,-8.912103 0.195428,-0.514349 0.462721,-1.626881 0.580496,-2.41873 0.232922,-1.566069 -0.0033,-2.830961 -0.848418,-4.487681 -0.201123,-0.394249 -0.318635,-0.685299 -0.342343,-1.46985 -0.02372,-0.78455 0.03088,-2.08956 0.141402,-4.62908 0.273391,-6.2813499 0.427019,-14.8605006 0.453979,-22.18165 0.01347,-3.66057 -0.0029,-7.00945 -0.05582,-9.596788 -0.05303,-2.587331 -0.147627,-4.440861 -0.260488,-5.019792 -0.611863,-3.138469 -2.228038,-6.112919 -4.487673,-8.268349 -2.195365,-2.09412 -3.236657,-2.775491 -5.6449497,-3.69508 -0.9499225,-0.362721 -1.5104375,-0.432391 -3.590891,-0.43909 z" style="display:inline;fill:#ff5555;stroke-width:0.2" />
         </clipPath>
      </g>
   </g>

</svg>
