<?xml version="1.0" encoding="UTF-8" standalone="no"?>
<svg xmlns="http://www.w3.org/2000/svg" viewBox="0 0 100 100" height="25" width="25">

    <g id="pietro-leopoldo">
        <g id="pietro-leopoldo-bg">
            <circle style="opacity:1;fill:#ffffff" cx="50" cy="50" r="55" />
            <path style="opacity:1;vector-effect:none;fill:#000000;fill-opacity:1;stroke:none;stroke-width:1.02949238;stroke-linecap:round;stroke-linejoin:round;stroke-miterlimit:4;stroke-dasharray:none;stroke-dashoffset:0;stroke-opacity:1;paint-order:markers fill stroke" d="m 26.166016,8.265625 c -0.865693,0 -1.5625,0.6968072 -1.5625,1.5625 v 3.216797 c 0,0.865693 0.696807,1.5625 1.5625,1.5625 0.865692,0 1.5625,-0.696807 1.5625,-1.5625 V 9.828125 c 0,-0.8656928 -0.696808,-1.5625 -1.5625,-1.5625 z m 4.779296,0 c -0.865692,0 -1.5625,0.6968072 -1.5625,1.5625 v 3.216797 c 10e-7,0.865693 0.696808,1.5625 1.5625,1.5625 0.865693,0 1.5625,-0.696807 1.5625,-1.5625 V 9.828125 c 0,-0.8656928 -0.696807,-1.5625 -1.5625,-1.5625 z m 8.273438,0 c -0.865693,0 -1.5625,0.6968072 -1.5625,1.5625 v 3.216797 c 0,0.865693 0.696807,1.5625 1.5625,1.5625 0.865693,0 1.5625,-0.696807 1.5625,-1.5625 V 9.828125 c 0,-0.8656928 -0.696807,-1.5625 -1.5625,-1.5625 z m 4.884766,0 c -0.865693,0 -1.5625,0.6968072 -1.5625,1.5625 v 3.216797 c 0,0.865693 0.696807,1.5625 1.5625,1.5625 0.865692,0 1.5625,-0.696807 1.5625,-1.5625 V 9.828125 c 0,-0.8656928 -0.696808,-1.5625 -1.5625,-1.5625 z m 4.884765,0 c -0.865693,0 -1.5625,0.6968072 -1.5625,1.5625 v 3.216797 c 0,0.865693 0.696807,1.5625 1.5625,1.5625 0.865693,0 1.5625,-0.696807 1.5625,-1.5625 V 9.828125 c 0,-0.8656928 -0.696807,-1.5625 -1.5625,-1.5625 z m 4.884766,0 c -0.865693,0 -1.5625,0.6968072 -1.5625,1.5625 v 3.216797 c 0,0.865693 0.696807,1.5625 1.5625,1.5625 0.865693,0 1.5625,-0.696807 1.5625,-1.5625 V 9.828125 c 0,-0.8656928 -0.696807,-1.5625 -1.5625,-1.5625 z m 4.884765,0 c -0.865692,0 -1.5625,0.6968072 -1.5625,1.5625 v 3.216797 c 0,0.865693 0.696808,1.5625 1.5625,1.5625 0.865693,0 1.5625,-0.696807 1.5625,-1.5625 V 9.828125 c 0,-0.8656928 -0.696807,-1.5625 -1.5625,-1.5625 z m 4.884766,0 c -0.865693,0 -1.5625,0.6968072 -1.5625,1.5625 v 3.216797 c 0,0.865693 0.696807,1.5625 1.5625,1.5625 0.865693,0 1.5625,-0.696807 1.5625,-1.5625 V 9.828125 c 0,-0.8656928 -0.696807,-1.5625 -1.5625,-1.5625 z m 4.884766,0 c -0.865693,0 -1.5625,0.6968072 -1.5625,1.5625 v 3.216797 c 0,0.865693 0.696807,1.5625 1.5625,1.5625 0.865693,0 1.5625,-0.696807 1.5625,-1.5625 V 9.828125 c 0,-0.8656928 -0.696807,-1.5625 -1.5625,-1.5625 z m 4.884765,0 c -0.865692,0 -1.5625,0.6968072 -1.5625,1.5625 v 3.216797 c 0,0.865693 0.696808,1.5625 1.5625,1.5625 0.865693,0 1.5625,-0.696807 1.5625,-1.5625 V 9.828125 c 0,-0.8656928 -0.696807,-1.5625 -1.5625,-1.5625 z M 14.177734,19.824219 c -0.865692,0 -1.564453,0.696807 -1.564453,1.5625 v 3.216797 c 0,0.865692 0.698761,1.5625 1.564453,1.5625 0.865693,0 1.5625,-0.696808 1.5625,-1.5625 v -3.216797 c 0,-0.865693 -0.696807,-1.5625 -1.5625,-1.5625 z m 4.884766,0 c -0.865693,0 -1.5625,0.696807 -1.5625,1.5625 v 3.216797 c 0,0.865692 0.696807,1.5625 1.5625,1.5625 0.865693,0 1.5625,-0.696808 1.5625,-1.5625 v -3.216797 c 0,-0.865693 -0.696807,-1.5625 -1.5625,-1.5625 z m 4.884766,0 c -0.865693,0 -1.5625,0.696807 -1.5625,1.5625 v 3.216797 c 0,0.865692 0.696807,1.5625 1.5625,1.5625 0.865692,0 1.5625,-0.696808 1.5625,-1.5625 v -3.216797 c 0,-0.865693 -0.696808,-1.5625 -1.5625,-1.5625 z m 4.884765,0 c -0.865693,0 -1.5625,0.696807 -1.5625,1.5625 v 3.216797 c 0,0.865692 0.696807,1.5625 1.5625,1.5625 0.865693,0 1.5625,-0.696808 1.5625,-1.5625 v -3.216797 c 0,-0.865693 -0.696807,-1.5625 -1.5625,-1.5625 z m 4.884766,0 c -0.865693,0 -1.5625,0.696807 -1.5625,1.5625 v 3.216797 c 0,0.865692 0.696807,1.5625 1.5625,1.5625 0.865693,0 1.5625,-0.696808 1.5625,-1.5625 v -3.216797 c 0,-0.865693 -0.696807,-1.5625 -1.5625,-1.5625 z m 4.884765,0 c -0.865692,0 -1.5625,0.696807 -1.5625,1.5625 v 3.216797 c 0,0.865692 0.696808,1.5625 1.5625,1.5625 0.865693,0 1.5625,-0.696808 1.5625,-1.5625 v -3.216797 c 0,-0.865693 -0.696807,-1.5625 -1.5625,-1.5625 z m 8.53711,0 c -0.865693,0 -1.5625,0.696807 -1.5625,1.5625 v 3.216797 c 0,0.865692 0.696807,1.5625 1.5625,1.5625 0.865693,0 1.564453,-0.696808 1.564453,-1.5625 v -3.216797 c 0,-0.865693 -0.69876,-1.5625 -1.564453,-1.5625 z m 4.886719,0 c -0.865693,0 -1.564453,0.696807 -1.564453,1.5625 v 3.216797 c 0,0.865692 0.69876,1.5625 1.564453,1.5625 0.865692,0 1.5625,-0.696808 1.5625,-1.5625 v -3.216797 c 0,-0.865693 -0.696808,-1.5625 -1.5625,-1.5625 z m 4.884765,0 c -0.865693,0 -1.564453,0.696807 -1.564453,1.5625 v 3.216797 c 0,0.865692 0.69876,1.5625 1.564453,1.5625 0.865693,0 1.5625,-0.696808 1.5625,-1.5625 v -3.216797 c 0,-0.865693 -0.696807,-1.5625 -1.5625,-1.5625 z m 4.884766,0 c -0.865693,0 -1.5625,0.696807 -1.5625,1.5625 v 3.216797 c 0,0.865692 0.696807,1.5625 1.5625,1.5625 0.865693,0 1.5625,-0.696808 1.5625,-1.5625 v -3.216797 c 0,-0.865693 -0.696807,-1.5625 -1.5625,-1.5625 z m 4.884766,0 c -0.865693,0 -1.5625,0.696807 -1.5625,1.5625 v 3.216797 c 0,0.865692 0.696807,1.5625 1.5625,1.5625 0.865692,0 1.5625,-0.696808 1.5625,-1.5625 v -3.216797 c 0,-0.865693 -0.696808,-1.5625 -1.5625,-1.5625 z m 4.884765,0 c -0.865693,0 -1.5625,0.696807 -1.5625,1.5625 v 3.216797 c 0,0.865692 0.696807,1.5625 1.5625,1.5625 0.865693,0 1.5625,-0.696808 1.5625,-1.5625 v -3.216797 c 0,-0.865693 -0.696807,-1.5625 -1.5625,-1.5625 z m 4.884766,0 c -0.865693,0 -1.5625,0.696807 -1.5625,1.5625 v 3.216797 c 0,0.865692 0.696807,1.5625 1.5625,1.5625 0.865693,0 1.5625,-0.696808 1.5625,-1.5625 v -3.216797 c 0,-0.865693 -0.696807,-1.5625 -1.5625,-1.5625 z m 8.951172,0 c -0.865693,0 -1.5625,0.696807 -1.5625,1.5625 v 3.216797 c 0,0.865692 0.696807,1.5625 1.5625,1.5625 0.865692,0 1.5625,-0.696808 1.5625,-1.5625 v -3.216797 c 0,-0.865693 -0.696808,-1.5625 -1.5625,-1.5625 z m -67.09375,11.558593 c -0.865693,0 -1.5625,0.696808 -1.5625,1.5625 v 3.216797 c 0,0.865693 0.696807,1.5625 1.5625,1.5625 0.865692,0 1.5625,-0.696807 1.5625,-1.5625 v -3.216797 c 0,-0.865692 -0.696808,-1.5625 -1.5625,-1.5625 z m 4.884765,0 c -0.865693,0 -1.5625,0.696808 -1.5625,1.5625 v 3.216797 c 0,0.865693 0.696807,1.5625 1.5625,1.5625 0.865693,0 1.5625,-0.696807 1.5625,-1.5625 v -3.216797 c 0,-0.865692 -0.696807,-1.5625 -1.5625,-1.5625 z m 4.884766,0 c -0.865693,0 -1.5625,0.696808 -1.5625,1.5625 v 3.216797 c 0,0.865693 0.696807,1.5625 1.5625,1.5625 0.865693,0 1.5625,-0.696807 1.5625,-1.5625 v -3.216797 c 0,-0.865692 -0.696807,-1.5625 -1.5625,-1.5625 z m 4.884766,0 c -0.865693,0 -1.5625,0.696808 -1.5625,1.5625 v 3.216797 c 0,0.865693 0.696807,1.5625 1.5625,1.5625 0.865692,0 1.5625,-0.696807 1.5625,-1.5625 v -3.216797 c 0,-0.865692 -0.696808,-1.5625 -1.5625,-1.5625 z m 4.884765,0 c -0.865693,0 -1.5625,0.696808 -1.5625,1.5625 v 3.216797 c 0,0.865693 0.696807,1.5625 1.5625,1.5625 0.865693,0 1.5625,-0.696807 1.5625,-1.5625 v -3.216797 c 0,-0.865692 -0.696807,-1.5625 -1.5625,-1.5625 z m 4.884766,0 c -0.865693,0 -1.5625,0.696808 -1.5625,1.5625 v 3.216797 c 0,0.865693 0.696807,1.5625 1.5625,1.5625 0.865693,0 1.5625,-0.696807 1.5625,-1.5625 v -3.216797 c 0,-0.865692 -0.696807,-1.5625 -1.5625,-1.5625 z m 4.884765,0 c -0.865692,0 -1.5625,0.696808 -1.5625,1.5625 v 3.216797 c 0,0.865693 0.696808,1.5625 1.5625,1.5625 0.865693,0 1.5625,-0.696807 1.5625,-1.5625 v -3.216797 c 0,-0.865692 -0.696807,-1.5625 -1.5625,-1.5625 z m 4.884766,0 c -0.865693,0 -1.5625,0.696808 -1.5625,1.5625 v 3.216797 c 0,0.865693 0.696807,1.5625 1.5625,1.5625 0.865693,0 1.5625,-0.696807 1.5625,-1.5625 v -3.216797 c 0,-0.865692 -0.696807,-1.5625 -1.5625,-1.5625 z m 14.117188,0 c -0.865693,0 -1.5625,0.696808 -1.5625,1.5625 v 3.216797 c 0,0.865693 0.696807,1.5625 1.5625,1.5625 0.865692,0 1.5625,-0.696807 1.5625,-1.5625 v -3.216797 c 0,-0.865692 -0.696808,-1.5625 -1.5625,-1.5625 z m 4.884765,0 c -0.865693,0 -1.5625,0.696808 -1.5625,1.5625 v 3.216797 c 0,0.865693 0.696807,1.5625 1.5625,1.5625 0.865693,0 1.5625,-0.696807 1.5625,-1.5625 v -3.216797 c 0,-0.865692 -0.696807,-1.5625 -1.5625,-1.5625 z m 4.884766,0 c -0.865693,0 -1.5625,0.696808 -1.5625,1.5625 v 3.216797 c 0,0.865693 0.696807,1.5625 1.5625,1.5625 0.865693,0 1.5625,-0.696807 1.5625,-1.5625 v -3.216797 c 0,-0.865692 -0.696807,-1.5625 -1.5625,-1.5625 z m 4.884765,0 c -0.865692,0 -1.5625,0.696808 -1.5625,1.5625 v 3.216797 c 0,0.865693 0.696808,1.5625 1.5625,1.5625 0.865693,0 1.5625,-0.696807 1.5625,-1.5625 v -3.216797 c 0,-0.865692 -0.696807,-1.5625 -1.5625,-1.5625 z M 42.460938,42.941406 c -0.865693,0 -1.5625,0.696807 -1.5625,1.5625 v 3.216797 c 0,0.865693 0.696807,1.5625 1.5625,1.5625 0.865692,0 1.5625,-0.696807 1.5625,-1.5625 v -3.216797 c 0,-0.865693 -0.696808,-1.5625 -1.5625,-1.5625 z m 4.884765,0 c -0.865693,0 -1.5625,0.696807 -1.5625,1.5625 v 3.216797 c 0,0.865693 0.696807,1.5625 1.5625,1.5625 0.865693,0 1.5625,-0.696807 1.5625,-1.5625 v -3.216797 c 0,-0.865693 -0.696807,-1.5625 -1.5625,-1.5625 z m 4.884766,0 c -0.865693,0 -1.5625,0.696807 -1.5625,1.5625 v 3.216797 c 0,0.865693 0.696807,1.5625 1.5625,1.5625 0.865693,0 1.5625,-0.696807 1.5625,-1.5625 v -3.216797 c 0,-0.865693 -0.696807,-1.5625 -1.5625,-1.5625 z m 4.884765,0 c -0.865692,0 -1.5625,0.696807 -1.5625,1.5625 v 3.216797 c 0,0.865693 0.696808,1.5625 1.5625,1.5625 0.865693,0 1.564454,-0.696807 1.564454,-1.5625 v -3.216797 c 0,-0.865693 -0.698761,-1.5625 -1.564454,-1.5625 z M 22.876953,54.5 c -0.865693,0 -1.5625,0.696807 -1.5625,1.5625 v 3.216797 c 0,0.865693 0.696807,1.5625 1.5625,1.5625 0.865693,0 1.5625,-0.696807 1.5625,-1.5625 V 56.0625 c 0,-0.865693 -0.696807,-1.5625 -1.5625,-1.5625 z m 4.884766,0 c -0.865693,0 -1.5625,0.696807 -1.5625,1.5625 v 3.216797 c 0,0.865693 0.696807,1.5625 1.5625,1.5625 0.865693,0 1.5625,-0.696807 1.5625,-1.5625 V 56.0625 c 0,-0.865693 -0.696807,-1.5625 -1.5625,-1.5625 z m 9.388672,0 c -0.865693,0 -1.5625,0.696807 -1.5625,1.5625 v 3.216797 c 0,0.865693 0.696807,1.5625 1.5625,1.5625 0.865692,0 1.5625,-0.696807 1.5625,-1.5625 V 56.0625 c 0,-0.865693 -0.696808,-1.5625 -1.5625,-1.5625 z m 4.884765,0 c -0.865693,0 -1.5625,0.696807 -1.5625,1.5625 v 3.216797 c 0,0.865693 0.696807,1.5625 1.5625,1.5625 0.865693,0 1.5625,-0.696807 1.5625,-1.5625 V 56.0625 c 0,-0.865693 -0.696807,-1.5625 -1.5625,-1.5625 z m 4.884766,0 c -0.865693,0 -1.5625,0.696807 -1.5625,1.5625 v 3.216797 c 0,0.865693 0.696807,1.5625 1.5625,1.5625 0.865693,0 1.5625,-0.696807 1.5625,-1.5625 V 56.0625 c 0,-0.865693 -0.696807,-1.5625 -1.5625,-1.5625 z m 10.242187,0 c -0.865692,0 -1.5625,0.696807 -1.5625,1.5625 v 3.216797 c 0,0.865693 0.696808,1.5625 1.5625,1.5625 0.865693,0 1.5625,-0.696807 1.5625,-1.5625 V 56.0625 c 0,-0.865693 -0.696807,-1.5625 -1.5625,-1.5625 z m 4.884766,0 c -0.865693,0 -1.5625,0.696807 -1.5625,1.5625 v 3.216797 c 0,0.865693 0.696807,1.5625 1.5625,1.5625 0.865693,0 1.5625,-0.696807 1.5625,-1.5625 V 56.0625 c 0,-0.865693 -0.696807,-1.5625 -1.5625,-1.5625 z m 4.884766,0 c -0.865693,0 -1.5625,0.696807 -1.5625,1.5625 v 3.216797 c 0,0.865693 0.696807,1.5625 1.5625,1.5625 0.865692,0 1.5625,-0.696807 1.5625,-1.5625 V 56.0625 c 0,-0.865693 -0.696808,-1.5625 -1.5625,-1.5625 z m 4.884765,0 c -0.865693,0 -1.5625,0.696807 -1.5625,1.5625 v 3.216797 c 0,0.865693 0.696807,1.5625 1.5625,1.5625 0.865693,0 1.5625,-0.696807 1.5625,-1.5625 V 56.0625 c 0,-0.865693 -0.696807,-1.5625 -1.5625,-1.5625 z m 4.884766,0 c -0.865693,0 -1.5625,0.696807 -1.5625,1.5625 v 3.216797 c 0,0.865693 0.696807,1.5625 1.5625,1.5625 0.865693,0 1.5625,-0.696807 1.5625,-1.5625 V 56.0625 c 0,-0.865693 -0.696807,-1.5625 -1.5625,-1.5625 z" id="rect1869" />
            <path style="fill:none;stroke:#000000;stroke-width:1px;stroke-linecap:butt;stroke-linejoin:miter;stroke-opacity:1" d="M 11.607143,80 C 11.576654,68.255112 25.503874,62.172689 43.928571,66.964286 62.353268,71.755883 72.218109,65.039295 71.964286,57.857143" id="path2216" />
            <path id="path2218" d="M 28.75,79.285714 C 28.719511,67.540826 14.432446,66.636975 6.2499995,50.357143 -1.9324464,34.077312 24.360966,29.146438 24.107143,21.964286" style="fill:none;stroke:#000000;stroke-width:1px;stroke-linecap:butt;stroke-linejoin:miter;stroke-opacity:1" />
            <path id="path2218-6" d="M 43.464253,81.347467 C 43.433763,69.602577 50.753845,58.520152 55.785684,53.311751 60.817523,48.103349 71.575221,44.065332 76.499969,35.097467" style="display:inline;fill:none;stroke:#000000;stroke-width:1px;stroke-linecap:butt;stroke-linejoin:miter;stroke-opacity:1" />
            <path style="display:inline;fill:none;stroke:#000000;stroke-width:1px;stroke-linecap:butt;stroke-linejoin:miter;stroke-opacity:1" d="M 60.999967,76.526038 C 91.683763,57.281148 98.11099,37.270152 94.214255,23.668893 90.317523,10.067635 61.253792,24.601046 58.321398,11.168895" id="path2235" />
            <path id="path2237" d="M 77.214252,78.311752 C 107.89805,59.066862 87.718129,44.948722 62.392826,50.097464 37.067523,55.246206 31.039506,48.351046 28.107112,34.918895" style="display:inline;fill:none;stroke:#000000;stroke-width:1px;stroke-linecap:butt;stroke-linejoin:miter;stroke-opacity:1" />
        </g>
        <g id="done">
            <circle style="opacity:1;vector-effect:none;fill:#ffffff;fill-opacity:1;stroke:#000000;stroke-width:1;stroke-linecap:round;stroke-linejoin:round;stroke-miterlimit:4;stroke-dasharray:none;stroke-dashoffset:0;stroke-opacity:1;paint-order:markers fill stroke" id="circle8551-5-6" cx="91.023964" cy="81.197296" r="5" />
            <path style="display:inline;fill:#000000;stroke:none;stroke-width:0.68732953px;stroke-linecap:butt;stroke-linejoin:miter;stroke-opacity:1" d="m 87.646268,80.092183 2.994201,0.954673 6.335558,-7.029866 -5.901614,10.067463 z" id="path8659-7" />
        </g>
        <g id="lettera1">
            <circle style="opacity:1;vector-effect:none;fill:#000000;fill-opacity:1;stroke:none;stroke-width:2;stroke-linecap:round;stroke-linejoin:round;stroke-miterlimit:4;stroke-dasharray:none;stroke-dashoffset:0;stroke-opacity:1;paint-order:markers fill stroke" id="circle2137" cx="58.750004" cy="79.821426" r="7.8571429" />
            <text class="identikit-option identikit-option-1" id="text2198" y="84.64286" x="58.750004" style="font-style:normal;font-variant:normal;font-weight:normal;font-stretch:normal;font-size:15.86386681px;line-height:1.25;font-family:'AR JULIAN';-inkscape-font-specification:'AR JULIAN, Normal';font-variant-ligatures:normal;font-variant-caps:normal;font-variant-numeric:normal;font-feature-settings:normal;text-align:center;letter-spacing:0px;word-spacing:0px;writing-mode:lr-tb;text-anchor:middle;fill:#ffffff;fill-opacity:1;stroke:none;stroke-width:0.59489501" 
            xml:space="preserve"><tspan style="fill:#ffffff;stroke-width:0.59489501" y="84.64286" x="58.750004" id="tspan2196">?</tspan></text>
            <text  class="identikit-option identikit-option-2" id="text2198" y="84.64286" x="58.750004" style="font-style:normal;font-variant:normal;font-weight:normal;font-stretch:normal;font-size:15.86386681px;line-height:1.25;font-family:'AR JULIAN';-inkscape-font-specification:'AR JULIAN, Normal';font-variant-ligatures:normal;font-variant-caps:normal;font-variant-numeric:normal;font-feature-settings:normal;text-align:center;letter-spacing:0px;word-spacing:0px;writing-mode:lr-tb;text-anchor:middle;fill:#ffffff;fill-opacity:1;stroke:none;stroke-width:0.59489501" 
            xml:space="preserve"><tspan style="fill:#ffffff;stroke-width:0.59489501" y="84.64286" x="58.750004" id="tspan2196">U</tspan></text>
            <text  class="identikit-option identikit-option-3" id="text2198" y="84.64286" x="58.750004" style="font-style:normal;font-variant:normal;font-weight:normal;font-stretch:normal;font-size:15.86386681px;line-height:1.25;font-family:'AR JULIAN';-inkscape-font-specification:'AR JULIAN, Normal';font-variant-ligatures:normal;font-variant-caps:normal;font-variant-numeric:normal;font-feature-settings:normal;text-align:center;letter-spacing:0px;word-spacing:0px;writing-mode:lr-tb;text-anchor:middle;fill:#ffffff;fill-opacity:1;stroke:none;stroke-width:0.59489501" 
            xml:space="preserve"><tspan style="fill:#ffffff;stroke-width:0.59489501" y="84.64286" x="58.750004" id="tspan2196">D</tspan></text>
            <text  class="identikit-option identikit-option-4" id="text2198" y="84.64286" x="58.750004" style="font-style:normal;font-variant:normal;font-weight:normal;font-stretch:normal;font-size:15.86386681px;line-height:1.25;font-family:'AR JULIAN';-inkscape-font-specification:'AR JULIAN, Normal';font-variant-ligatures:normal;font-variant-caps:normal;font-variant-numeric:normal;font-feature-settings:normal;text-align:center;letter-spacing:0px;word-spacing:0px;writing-mode:lr-tb;text-anchor:middle;fill:#ffffff;fill-opacity:1;stroke:none;stroke-width:0.59489501" 
            xml:space="preserve"><tspan style="fill:#ffffff;stroke-width:0.59489501" y="84.64286" x="58.750004" id="tspan2196">N</tspan></text>
            <text  class="identikit-option identikit-option-5" id="text2198" y="84.64286" x="58.750004" style="font-style:normal;font-variant:normal;font-weight:normal;font-stretch:normal;font-size:15.86386681px;line-height:1.25;font-family:'AR JULIAN';-inkscape-font-specification:'AR JULIAN, Normal';font-variant-ligatures:normal;font-variant-caps:normal;font-variant-numeric:normal;font-feature-settings:normal;text-align:center;letter-spacing:0px;word-spacing:0px;writing-mode:lr-tb;text-anchor:middle;fill:#ffffff;fill-opacity:1;stroke:none;stroke-width:0.59489501" 
            xml:space="preserve"><tspan style="fill:#ffffff;stroke-width:0.59489501" y="84.64286" x="58.750004" id="tspan2196">A</tspan></text>
            <g id="switch-button-7" style="display:inline" transform="translate(-29.717988,79.025738)">
                <circle r="5" cy="11.152834" cx="94.137627" id="circle8551-9" style="opacity:1;vector-effect:none;fill:#ffffff;fill-opacity:1;stroke:#000000;stroke-width:1;stroke-linecap:round;stroke-linejoin:round;stroke-miterlimit:4;stroke-dasharray:none;stroke-dashoffset:0;stroke-opacity:1;paint-order:markers fill stroke" />
                <path style="fill:#000000;stroke-width:0.01428598" d="m 93.680476,14.091438 c -0.667172,-0.103041 -1.206761,-0.366448 -1.669389,-0.814931 -0.294109,-0.285117 -0.555221,-0.670372 -0.687829,-1.014854 -0.01815,-0.04714 -0.03782,-0.09122 -0.04371,-0.09794 -0.0088,-0.01001 -0.275729,0.08634 -0.731773,0.264128 -0.0639,0.02491 -0.06753,0.02502 -0.05577,0.0017 0.0069,-0.01374 0.188392,-0.41913 0.403265,-0.900859 0.353983,-0.793605 0.393436,-0.875155 0.420058,-0.868236 0.01616,0.0042 0.424415,0.184261 0.907234,0.400137 0.826765,0.36966 0.875403,0.393412 0.83573,0.408135 -0.02317,0.0086 -0.214031,0.08119 -0.424142,0.161318 -0.345946,0.131927 -0.381218,0.148393 -0.373533,0.174381 0.02233,0.07552 0.142753,0.309935 0.214964,0.418462 0.04435,0.06665 0.140546,0.183604 0.213773,0.259896 0.403903,0.420809 0.967998,0.6349 1.540858,0.584804 0.459801,-0.04021 0.844438,-0.21488 1.176904,-0.534452 0.177425,-0.170546 0.286247,-0.319377 0.391706,-0.535724 0.04788,-0.09822 0.08873,-0.180931 0.09079,-0.183811 0.0032,-0.0045 0.963449,0.337883 0.972829,0.346837 0.0066,0.0063 -0.09821,0.243476 -0.163031,0.368971 -0.234365,0.453774 -0.63017,0.875414 -1.078721,1.149131 -0.318375,0.19428 -0.663338,0.324577 -1.054496,0.398295 -0.165681,0.03122 -0.719145,0.04038 -0.88573,0.01465 z m 2.396473,-2.832129 c -0.485187,-0.216979 -0.882027,-0.398436 -0.881868,-0.403238 1.08e-4,-0.0048 0.186555,-0.07932 0.414211,-0.165597 0.376432,-0.14266 0.413147,-0.159481 0.405385,-0.185718 -0.02239,-0.07568 -0.142742,-0.309998 -0.215013,-0.418615 C 95.755316,10.01949 95.659118,9.9025368 95.585892,9.8262452 95.182145,9.4055981 94.618115,9.191456 94.045367,9.2413628 93.585829,9.281405 93.200594,9.4563223 92.868131,9.7758927 92.690704,9.9464383 92.581882,10.09527 92.476423,10.311617 c -0.04787,0.09822 -0.08873,0.180931 -0.09079,0.183811 -0.0032,0.0045 -0.96345,-0.337883 -0.97283,-0.346837 -0.0066,-0.0063 0.09822,-0.2434765 0.16303,-0.3689714 0.234365,-0.4537734 0.630171,-0.8754135 1.078723,-1.149131 0.321626,-0.1962644 0.669879,-0.3271308 1.061637,-0.3989411 0.167484,-0.0307 0.645096,-0.043096 0.815734,-0.021172 0.682311,0.087667 1.255024,0.3594679 1.732242,0.8220966 0.294111,0.2851177 0.555222,0.6703726 0.687829,1.0148539 0.01815,0.04714 0.03782,0.09122 0.04371,0.09794 0.0088,0.01001 0.275728,-0.08634 0.731771,-0.2641275 0.0639,-0.024911 0.06754,-0.025019 0.05577,-0.00166 -0.0069,0.013743 -0.188221,0.4187445 -0.402882,0.9000025 -0.214663,0.481261 -0.39726,0.874863 -0.405773,0.874677 -0.0085,-1.85e-4 -0.412449,-0.17787 -0.897637,-0.394849 z" id="path8564-6" />
            </g>
        </g>
        <g id="lettera2">
            <g id="g4913">
                <circle style="opacity:1;vector-effect:none;fill:#000000;fill-opacity:1;stroke:none;stroke-width:2;stroke-linecap:round;stroke-linejoin:round;stroke-miterlimit:4;stroke-dasharray:none;stroke-dashoffset:0;stroke-opacity:1;paint-order:markers fill stroke" id="circle2139" cx="74.464287" cy="79.821426" r="7.8571429" />
                <text class="identikit-option identikit-option-1" y="84.64286" x="74.464287" style="font-style:normal;font-variant:normal;font-weight:normal;font-stretch:normal;font-size:15.86386681px;line-height:1.25;font-family:'AR JULIAN';-inkscape-font-specification:'AR JULIAN, Normal';font-variant-ligatures:normal;font-variant-caps:normal;font-variant-numeric:normal;font-feature-settings:normal;text-align:center;letter-spacing:0px;word-spacing:0px;writing-mode:lr-tb;text-anchor:middle;fill:#ffffff;fill-opacity:1;stroke:none;stroke-width:0.59489501" 
                xml:space="preserve"><tspan style="fill:#ffffff;stroke-width:0.59489501" y="84.64286" x="74.464287">?</tspan></text>
                <text class="identikit-option identikit-option-2" y="84.64286" x="74.464287" style="font-style:normal;font-variant:normal;font-weight:normal;font-stretch:normal;font-size:15.86386681px;line-height:1.25;font-family:'AR JULIAN';-inkscape-font-specification:'AR JULIAN, Normal';font-variant-ligatures:normal;font-variant-caps:normal;font-variant-numeric:normal;font-feature-settings:normal;text-align:center;letter-spacing:0px;word-spacing:0px;writing-mode:lr-tb;text-anchor:middle;fill:#ffffff;fill-opacity:1;stroke:none;stroke-width:0.59489501" 
                xml:space="preserve"><tspan style="fill:#ffffff;stroke-width:0.59489501" y="84.64286" x="74.464287">T</tspan></text>
                <text class="identikit-option identikit-option-3" y="84.64286" x="74.464287" style="font-style:normal;font-variant:normal;font-weight:normal;font-stretch:normal;font-size:15.86386681px;line-height:1.25;font-family:'AR JULIAN';-inkscape-font-specification:'AR JULIAN, Normal';font-variant-ligatures:normal;font-variant-caps:normal;font-variant-numeric:normal;font-feature-settings:normal;text-align:center;letter-spacing:0px;word-spacing:0px;writing-mode:lr-tb;text-anchor:middle;fill:#ffffff;fill-opacity:1;stroke:none;stroke-width:0.59489501" 
                xml:space="preserve"><tspan style="fill:#ffffff;stroke-width:0.59489501" y="84.64286" x="74.464287">U</tspan></text>
                <text class="identikit-option identikit-option-4" y="84.64286" x="74.464287" style="font-style:normal;font-variant:normal;font-weight:normal;font-stretch:normal;font-size:15.86386681px;line-height:1.25;font-family:'AR JULIAN';-inkscape-font-specification:'AR JULIAN, Normal';font-variant-ligatures:normal;font-variant-caps:normal;font-variant-numeric:normal;font-feature-settings:normal;text-align:center;letter-spacing:0px;word-spacing:0px;writing-mode:lr-tb;text-anchor:middle;fill:#ffffff;fill-opacity:1;stroke:none;stroke-width:0.59489501" 
                xml:space="preserve"><tspan style="fill:#ffffff;stroke-width:0.59489501" y="84.64286" x="74.464287">R</tspan></text>
                <text class="identikit-option identikit-option-5" y="84.64286" x="74.464287" style="font-style:normal;font-variant:normal;font-weight:normal;font-stretch:normal;font-size:15.86386681px;line-height:1.25;font-family:'AR JULIAN';-inkscape-font-specification:'AR JULIAN, Normal';font-variant-ligatures:normal;font-variant-caps:normal;font-variant-numeric:normal;font-feature-settings:normal;text-align:center;letter-spacing:0px;word-spacing:0px;writing-mode:lr-tb;text-anchor:middle;fill:#ffffff;fill-opacity:1;stroke:none;stroke-width:0.59489501" 
                xml:space="preserve"><tspan style="fill:#ffffff;stroke-width:0.59489501" y="84.64286" x="74.464287">A</tspan></text>
                <g id="g4725" style="display:inline" transform="translate(-13.780484,79.025738)">
                    <circle r="5" cy="11.152834" cx="94.137627" id="circle4721" style="opacity:1;vector-effect:none;fill:#ffffff;fill-opacity:1;stroke:#000000;stroke-width:1;stroke-linecap:round;stroke-linejoin:round;stroke-miterlimit:4;stroke-dasharray:none;stroke-dashoffset:0;stroke-opacity:1;paint-order:markers fill stroke" />
                    <path style="fill:#000000;stroke-width:0.01428598" d="m 93.680476,14.091438 c -0.667172,-0.103041 -1.206761,-0.366448 -1.669389,-0.814931 -0.294109,-0.285117 -0.555221,-0.670372 -0.687829,-1.014854 -0.01815,-0.04714 -0.03782,-0.09122 -0.04371,-0.09794 -0.0088,-0.01001 -0.275729,0.08634 -0.731773,0.264128 -0.0639,0.02491 -0.06753,0.02502 -0.05577,0.0017 0.0069,-0.01374 0.188392,-0.41913 0.403265,-0.900859 0.353983,-0.793605 0.393436,-0.875155 0.420058,-0.868236 0.01616,0.0042 0.424415,0.184261 0.907234,0.400137 0.826765,0.36966 0.875403,0.393412 0.83573,0.408135 -0.02317,0.0086 -0.214031,0.08119 -0.424142,0.161318 -0.345946,0.131927 -0.381218,0.148393 -0.373533,0.174381 0.02233,0.07552 0.142753,0.309935 0.214964,0.418462 0.04435,0.06665 0.140546,0.183604 0.213773,0.259896 0.403903,0.420809 0.967998,0.6349 1.540858,0.584804 0.459801,-0.04021 0.844438,-0.21488 1.176904,-0.534452 0.177425,-0.170546 0.286247,-0.319377 0.391706,-0.535724 0.04788,-0.09822 0.08873,-0.180931 0.09079,-0.183811 0.0032,-0.0045 0.963449,0.337883 0.972829,0.346837 0.0066,0.0063 -0.09821,0.243476 -0.163031,0.368971 -0.234365,0.453774 -0.63017,0.875414 -1.078721,1.149131 -0.318375,0.19428 -0.663338,0.324577 -1.054496,0.398295 -0.165681,0.03122 -0.719145,0.04038 -0.88573,0.01465 z m 2.396473,-2.832129 c -0.485187,-0.216979 -0.882027,-0.398436 -0.881868,-0.403238 1.08e-4,-0.0048 0.186555,-0.07932 0.414211,-0.165597 0.376432,-0.14266 0.413147,-0.159481 0.405385,-0.185718 -0.02239,-0.07568 -0.142742,-0.309998 -0.215013,-0.418615 C 95.755316,10.01949 95.659118,9.9025368 95.585892,9.8262452 95.182145,9.4055981 94.618115,9.191456 94.045367,9.2413628 93.585829,9.281405 93.200594,9.4563223 92.868131,9.7758927 92.690704,9.9464383 92.581882,10.09527 92.476423,10.311617 c -0.04787,0.09822 -0.08873,0.180931 -0.09079,0.183811 -0.0032,0.0045 -0.96345,-0.337883 -0.97283,-0.346837 -0.0066,-0.0063 0.09822,-0.2434765 0.16303,-0.3689714 0.234365,-0.4537734 0.630171,-0.8754135 1.078723,-1.149131 0.321626,-0.1962644 0.669879,-0.3271308 1.061637,-0.3989411 0.167484,-0.0307 0.645096,-0.043096 0.815734,-0.021172 0.682311,0.087667 1.255024,0.3594679 1.732242,0.8220966 0.294111,0.2851177 0.555222,0.6703726 0.687829,1.0148539 0.01815,0.04714 0.03782,0.09122 0.04371,0.09794 0.0088,0.01001 0.275728,-0.08634 0.731771,-0.2641275 0.0639,-0.024911 0.06754,-0.025019 0.05577,-0.00166 -0.0069,0.013743 -0.188221,0.4187445 -0.402882,0.9000025 -0.214663,0.481261 -0.39726,0.874863 -0.405773,0.874677 -0.0085,-1.85e-4 -0.412449,-0.17787 -0.897637,-0.394849 z" id="path4723" />
                </g>
            </g>
        </g>
        <g id="lettera3">
            <circle r="7.8571429" cy="79.821426" cx="43.035717" id="circle2135" style="opacity:1;vector-effect:none;fill:#000000;fill-opacity:1;stroke:none;stroke-width:2;stroke-linecap:round;stroke-linejoin:round;stroke-miterlimit:4;stroke-dasharray:none;stroke-dashoffset:0;stroke-opacity:1;paint-order:markers fill stroke" />
            <text class="identikit-option identikit-option-1" style="font-style:normal;font-variant:normal;font-weight:normal;font-stretch:normal;font-size:15.86386681px;line-height:1.25;font-family:'AR JULIAN';-inkscape-font-specification:'AR JULIAN, Normal';font-variant-ligatures:normal;font-variant-caps:normal;font-variant-numeric:normal;font-feature-settings:normal;text-align:center;letter-spacing:0px;word-spacing:0px;writing-mode:lr-tb;text-anchor:middle;fill:#ffffff;fill-opacity:1;stroke:none;stroke-width:0.59489501" x="43.035717" y="84.64286" 
            xml:space="preserve"><tspan x="43.035717" y="84.64286" style="fill:#ffffff;stroke-width:0.59489501">?</tspan></text>
            <text class="identikit-option identikit-option-2" style="font-style:normal;font-variant:normal;font-weight:normal;font-stretch:normal;font-size:15.86386681px;line-height:1.25;font-family:'AR JULIAN';-inkscape-font-specification:'AR JULIAN, Normal';font-variant-ligatures:normal;font-variant-caps:normal;font-variant-numeric:normal;font-feature-settings:normal;text-align:center;letter-spacing:0px;word-spacing:0px;writing-mode:lr-tb;text-anchor:middle;fill:#ffffff;fill-opacity:1;stroke:none;stroke-width:0.59489501" x="43.035717" y="84.64286" 
            xml:space="preserve"><tspan x="43.035717" y="84.64286" style="fill:#ffffff;stroke-width:0.59489501">N</tspan></text>
            <text class="identikit-option identikit-option-3" style="font-style:normal;font-variant:normal;font-weight:normal;font-stretch:normal;font-size:15.86386681px;line-height:1.25;font-family:'AR JULIAN';-inkscape-font-specification:'AR JULIAN, Normal';font-variant-ligatures:normal;font-variant-caps:normal;font-variant-numeric:normal;font-feature-settings:normal;text-align:center;letter-spacing:0px;word-spacing:0px;writing-mode:lr-tb;text-anchor:middle;fill:#ffffff;fill-opacity:1;stroke:none;stroke-width:0.59489501" x="43.035717" y="84.64286" 
            xml:space="preserve"><tspan x="43.035717" y="84.64286" style="fill:#ffffff;stroke-width:0.59489501">I</tspan></text>
            <text class="identikit-option identikit-option-4" style="font-style:normal;font-variant:normal;font-weight:normal;font-stretch:normal;font-size:15.86386681px;line-height:1.25;font-family:'AR JULIAN';-inkscape-font-specification:'AR JULIAN, Normal';font-variant-ligatures:normal;font-variant-caps:normal;font-variant-numeric:normal;font-feature-settings:normal;text-align:center;letter-spacing:0px;word-spacing:0px;writing-mode:lr-tb;text-anchor:middle;fill:#ffffff;fill-opacity:1;stroke:none;stroke-width:0.59489501" x="43.035717" y="84.64286" 
            xml:space="preserve"><tspan x="43.035717" y="84.64286" style="fill:#ffffff;stroke-width:0.59489501">T</tspan></text>
            <text class="identikit-option identikit-option-5" style="font-style:normal;font-variant:normal;font-weight:normal;font-stretch:normal;font-size:15.86386681px;line-height:1.25;font-family:'AR JULIAN';-inkscape-font-specification:'AR JULIAN, Normal';font-variant-ligatures:normal;font-variant-caps:normal;font-variant-numeric:normal;font-feature-settings:normal;text-align:center;letter-spacing:0px;word-spacing:0px;writing-mode:lr-tb;text-anchor:middle;fill:#ffffff;fill-opacity:1;stroke:none;stroke-width:0.59489501" x="43.035717" y="84.64286" 
            xml:space="preserve"><tspan x="43.035717" y="84.64286" style="fill:#ffffff;stroke-width:0.59489501">R</tspan></text>
            <g transform="translate(-45.655488,79.025738)" style="display:inline" id="g4731">
                <circle style="opacity:1;vector-effect:none;fill:#ffffff;fill-opacity:1;stroke:#000000;stroke-width:1;stroke-linecap:round;stroke-linejoin:round;stroke-miterlimit:4;stroke-dasharray:none;stroke-dashoffset:0;stroke-opacity:1;paint-order:markers fill stroke" id="circle4727" cx="94.137627" cy="11.152834" r="5" />
                <path id="path4729" d="m 93.680476,14.091438 c -0.667172,-0.103041 -1.206761,-0.366448 -1.669389,-0.814931 -0.294109,-0.285117 -0.555221,-0.670372 -0.687829,-1.014854 -0.01815,-0.04714 -0.03782,-0.09122 -0.04371,-0.09794 -0.0088,-0.01001 -0.275729,0.08634 -0.731773,0.264128 -0.0639,0.02491 -0.06753,0.02502 -0.05577,0.0017 0.0069,-0.01374 0.188392,-0.41913 0.403265,-0.900859 0.353983,-0.793605 0.393436,-0.875155 0.420058,-0.868236 0.01616,0.0042 0.424415,0.184261 0.907234,0.400137 0.826765,0.36966 0.875403,0.393412 0.83573,0.408135 -0.02317,0.0086 -0.214031,0.08119 -0.424142,0.161318 -0.345946,0.131927 -0.381218,0.148393 -0.373533,0.174381 0.02233,0.07552 0.142753,0.309935 0.214964,0.418462 0.04435,0.06665 0.140546,0.183604 0.213773,0.259896 0.403903,0.420809 0.967998,0.6349 1.540858,0.584804 0.459801,-0.04021 0.844438,-0.21488 1.176904,-0.534452 0.177425,-0.170546 0.286247,-0.319377 0.391706,-0.535724 0.04788,-0.09822 0.08873,-0.180931 0.09079,-0.183811 0.0032,-0.0045 0.963449,0.337883 0.972829,0.346837 0.0066,0.0063 -0.09821,0.243476 -0.163031,0.368971 -0.234365,0.453774 -0.63017,0.875414 -1.078721,1.149131 -0.318375,0.19428 -0.663338,0.324577 -1.054496,0.398295 -0.165681,0.03122 -0.719145,0.04038 -0.88573,0.01465 z m 2.396473,-2.832129 c -0.485187,-0.216979 -0.882027,-0.398436 -0.881868,-0.403238 1.08e-4,-0.0048 0.186555,-0.07932 0.414211,-0.165597 0.376432,-0.14266 0.413147,-0.159481 0.405385,-0.185718 -0.02239,-0.07568 -0.142742,-0.309998 -0.215013,-0.418615 C 95.755316,10.01949 95.659118,9.9025368 95.585892,9.8262452 95.182145,9.4055981 94.618115,9.191456 94.045367,9.2413628 93.585829,9.281405 93.200594,9.4563223 92.868131,9.7758927 92.690704,9.9464383 92.581882,10.09527 92.476423,10.311617 c -0.04787,0.09822 -0.08873,0.180931 -0.09079,0.183811 -0.0032,0.0045 -0.96345,-0.337883 -0.97283,-0.346837 -0.0066,-0.0063 0.09822,-0.2434765 0.16303,-0.3689714 0.234365,-0.4537734 0.630171,-0.8754135 1.078723,-1.149131 0.321626,-0.1962644 0.669879,-0.3271308 1.061637,-0.3989411 0.167484,-0.0307 0.645096,-0.043096 0.815734,-0.021172 0.682311,0.087667 1.255024,0.3594679 1.732242,0.8220966 0.294111,0.2851177 0.555222,0.6703726 0.687829,1.0148539 0.01815,0.04714 0.03782,0.09122 0.04371,0.09794 0.0088,0.01001 0.275728,-0.08634 0.731771,-0.2641275 0.0639,-0.024911 0.06754,-0.025019 0.05577,-0.00166 -0.0069,0.013743 -0.188221,0.4187445 -0.402882,0.9000025 -0.214663,0.481261 -0.39726,0.874863 -0.405773,0.874677 -0.0085,-1.85e-4 -0.412449,-0.17787 -0.897637,-0.394849 z" style="fill:#000000;stroke-width:0.01428598" />
            </g>
        </g>
        <g id="lettera4">
            <circle style="opacity:1;vector-effect:none;fill:#000000;fill-opacity:1;stroke:none;stroke-width:2;stroke-linecap:round;stroke-linejoin:round;stroke-miterlimit:4;stroke-dasharray:none;stroke-dashoffset:0;stroke-opacity:1;paint-order:markers fill stroke" id="circle2133" cx="27.321426" cy="79.821426" r="7.8571429" />
            <text class="identikit-option identikit-option-1" y="84.64286" x="27.321428" style="font-style:normal;font-variant:normal;font-weight:normal;font-stretch:normal;font-size:15.86386681px;line-height:1.25;font-family:'AR JULIAN';-inkscape-font-specification:'AR JULIAN, Normal';font-variant-ligatures:normal;font-variant-caps:normal;font-variant-numeric:normal;font-feature-settings:normal;text-align:center;letter-spacing:0px;word-spacing:0px;writing-mode:lr-tb;text-anchor:middle;fill:#ffffff;fill-opacity:1;stroke:none;stroke-width:0.59489501" 
            xml:space="preserve"><tspan style="fill:#ffffff;stroke-width:0.59489501" y="84.64286" x="27.321428" id="tspan2208">?</tspan></text>
            <text class="identikit-option identikit-option-2" y="84.64286" x="27.321428" style="font-style:normal;font-variant:normal;font-weight:normal;font-stretch:normal;font-size:15.86386681px;line-height:1.25;font-family:'AR JULIAN';-inkscape-font-specification:'AR JULIAN, Normal';font-variant-ligatures:normal;font-variant-caps:normal;font-variant-numeric:normal;font-feature-settings:normal;text-align:center;letter-spacing:0px;word-spacing:0px;writing-mode:lr-tb;text-anchor:middle;fill:#ffffff;fill-opacity:1;stroke:none;stroke-width:0.59489501" 
            xml:space="preserve"><tspan style="fill:#ffffff;stroke-width:0.59489501" y="84.64286" x="27.321428" id="tspan2208">T</tspan></text>
            <text class="identikit-option identikit-option-3" y="84.64286" x="27.321428" style="font-style:normal;font-variant:normal;font-weight:normal;font-stretch:normal;font-size:15.86386681px;line-height:1.25;font-family:'AR JULIAN';-inkscape-font-specification:'AR JULIAN, Normal';font-variant-ligatures:normal;font-variant-caps:normal;font-variant-numeric:normal;font-feature-settings:normal;text-align:center;letter-spacing:0px;word-spacing:0px;writing-mode:lr-tb;text-anchor:middle;fill:#ffffff;fill-opacity:1;stroke:none;stroke-width:0.59489501" 
            xml:space="preserve"><tspan style="fill:#ffffff;stroke-width:0.59489501" y="84.64286" x="27.321428" id="tspan2208">I</tspan></text>
            <text class="identikit-option identikit-option-4" y="84.64286" x="27.321428" style="font-style:normal;font-variant:normal;font-weight:normal;font-stretch:normal;font-size:15.86386681px;line-height:1.25;font-family:'AR JULIAN';-inkscape-font-specification:'AR JULIAN, Normal';font-variant-ligatures:normal;font-variant-caps:normal;font-variant-numeric:normal;font-feature-settings:normal;text-align:center;letter-spacing:0px;word-spacing:0px;writing-mode:lr-tb;text-anchor:middle;fill:#ffffff;fill-opacity:1;stroke:none;stroke-width:0.59489501" 
            xml:space="preserve"><tspan style="fill:#ffffff;stroke-width:0.59489501" y="84.64286" x="27.321428" id="tspan2208">E</tspan></text>
            <text class="identikit-option identikit-option-5" y="84.64286" x="27.321428" style="font-style:normal;font-variant:normal;font-weight:normal;font-stretch:normal;font-size:15.86386681px;line-height:1.25;font-family:'AR JULIAN';-inkscape-font-specification:'AR JULIAN, Normal';font-variant-ligatures:normal;font-variant-caps:normal;font-variant-numeric:normal;font-feature-settings:normal;text-align:center;letter-spacing:0px;word-spacing:0px;writing-mode:lr-tb;text-anchor:middle;fill:#ffffff;fill-opacity:1;stroke:none;stroke-width:0.59489501" 
            xml:space="preserve"><tspan style="fill:#ffffff;stroke-width:0.59489501" y="84.64286" x="27.321428" id="tspan2208">P</tspan></text>
            <g id="g4737" style="display:inline" transform="translate(-61.592984,79.025738)">
                <circle r="5" cy="11.152834" cx="94.137627" id="circle4733" style="opacity:1;vector-effect:none;fill:#ffffff;fill-opacity:1;stroke:#000000;stroke-width:1;stroke-linecap:round;stroke-linejoin:round;stroke-miterlimit:4;stroke-dasharray:none;stroke-dashoffset:0;stroke-opacity:1;paint-order:markers fill stroke" />
                <path style="fill:#000000;stroke-width:0.01428598" d="m 93.680476,14.091438 c -0.667172,-0.103041 -1.206761,-0.366448 -1.669389,-0.814931 -0.294109,-0.285117 -0.555221,-0.670372 -0.687829,-1.014854 -0.01815,-0.04714 -0.03782,-0.09122 -0.04371,-0.09794 -0.0088,-0.01001 -0.275729,0.08634 -0.731773,0.264128 -0.0639,0.02491 -0.06753,0.02502 -0.05577,0.0017 0.0069,-0.01374 0.188392,-0.41913 0.403265,-0.900859 0.353983,-0.793605 0.393436,-0.875155 0.420058,-0.868236 0.01616,0.0042 0.424415,0.184261 0.907234,0.400137 0.826765,0.36966 0.875403,0.393412 0.83573,0.408135 -0.02317,0.0086 -0.214031,0.08119 -0.424142,0.161318 -0.345946,0.131927 -0.381218,0.148393 -0.373533,0.174381 0.02233,0.07552 0.142753,0.309935 0.214964,0.418462 0.04435,0.06665 0.140546,0.183604 0.213773,0.259896 0.403903,0.420809 0.967998,0.6349 1.540858,0.584804 0.459801,-0.04021 0.844438,-0.21488 1.176904,-0.534452 0.177425,-0.170546 0.286247,-0.319377 0.391706,-0.535724 0.04788,-0.09822 0.08873,-0.180931 0.09079,-0.183811 0.0032,-0.0045 0.963449,0.337883 0.972829,0.346837 0.0066,0.0063 -0.09821,0.243476 -0.163031,0.368971 -0.234365,0.453774 -0.63017,0.875414 -1.078721,1.149131 -0.318375,0.19428 -0.663338,0.324577 -1.054496,0.398295 -0.165681,0.03122 -0.719145,0.04038 -0.88573,0.01465 z m 2.396473,-2.832129 c -0.485187,-0.216979 -0.882027,-0.398436 -0.881868,-0.403238 1.08e-4,-0.0048 0.186555,-0.07932 0.414211,-0.165597 0.376432,-0.14266 0.413147,-0.159481 0.405385,-0.185718 -0.02239,-0.07568 -0.142742,-0.309998 -0.215013,-0.418615 C 95.755316,10.01949 95.659118,9.9025368 95.585892,9.8262452 95.182145,9.4055981 94.618115,9.191456 94.045367,9.2413628 93.585829,9.281405 93.200594,9.4563223 92.868131,9.7758927 92.690704,9.9464383 92.581882,10.09527 92.476423,10.311617 c -0.04787,0.09822 -0.08873,0.180931 -0.09079,0.183811 -0.0032,0.0045 -0.96345,-0.337883 -0.97283,-0.346837 -0.0066,-0.0063 0.09822,-0.2434765 0.16303,-0.3689714 0.234365,-0.4537734 0.630171,-0.8754135 1.078723,-1.149131 0.321626,-0.1962644 0.669879,-0.3271308 1.061637,-0.3989411 0.167484,-0.0307 0.645096,-0.043096 0.815734,-0.021172 0.682311,0.087667 1.255024,0.3594679 1.732242,0.8220966 0.294111,0.2851177 0.555222,0.6703726 0.687829,1.0148539 0.01815,0.04714 0.03782,0.09122 0.04371,0.09794 0.0088,0.01001 0.275728,-0.08634 0.731771,-0.2641275 0.0639,-0.024911 0.06754,-0.025019 0.05577,-0.00166 -0.0069,0.013743 -0.188221,0.4187445 -0.402882,0.9000025 -0.214663,0.481261 -0.39726,0.874863 -0.405773,0.874677 -0.0085,-1.85e-4 -0.412449,-0.17787 -0.897637,-0.394849 z" id="path4735" />
            </g>
        </g>
        <g id="lettera5">
            <circle r="7.8571429" cy="79.821426" cx="11.607142" id="path2131" style="opacity:1;vector-effect:none;fill:#000000;fill-opacity:1;stroke:none;stroke-width:2;stroke-linecap:round;stroke-linejoin:round;stroke-miterlimit:4;stroke-dasharray:none;stroke-dashoffset:0;stroke-opacity:1;paint-order:markers fill stroke" />
            <text class="identikit-option identikit-option-1" style="font-style:normal;font-variant:normal;font-weight:normal;font-stretch:normal;font-size:15.86386681px;line-height:1.25;font-family:'AR JULIAN';-inkscape-font-specification:'AR JULIAN, Normal';font-variant-ligatures:normal;font-variant-caps:normal;font-variant-numeric:normal;font-feature-settings:normal;text-align:center;letter-spacing:0px;word-spacing:0px;writing-mode:lr-tb;text-anchor:middle;fill:#ffffff;fill-opacity:1;stroke:none;stroke-width:0.59489501" x="11.607142" y="84.64286" 
                xml:space="preserve"><tspan x="11.607142" y="84.64286" style="fill:#ffffff;stroke-width:0.59489501">?</tspan></text>
            <text class="identikit-option identikit-option-2" style="font-style:normal;font-variant:normal;font-weight:normal;font-stretch:normal;font-size:15.86386681px;line-height:1.25;font-family:'AR JULIAN';-inkscape-font-specification:'AR JULIAN, Normal';font-variant-ligatures:normal;font-variant-caps:normal;font-variant-numeric:normal;font-feature-settings:normal;text-align:center;letter-spacing:0px;word-spacing:0px;writing-mode:lr-tb;text-anchor:middle;fill:#ffffff;fill-opacity:1;stroke:none;stroke-width:0.59489501" x="11.607142" y="84.64286" 
                xml:space="preserve"><tspan x="11.607142" y="84.64286" style="fill:#ffffff;stroke-width:0.59489501">E</tspan></text>
            <text class="identikit-option identikit-option-3" style="font-style:normal;font-variant:normal;font-weight:normal;font-stretch:normal;font-size:15.86386681px;line-height:1.25;font-family:'AR JULIAN';-inkscape-font-specification:'AR JULIAN, Normal';font-variant-ligatures:normal;font-variant-caps:normal;font-variant-numeric:normal;font-feature-settings:normal;text-align:center;letter-spacing:0px;word-spacing:0px;writing-mode:lr-tb;text-anchor:middle;fill:#ffffff;fill-opacity:1;stroke:none;stroke-width:0.59489501" x="11.607142" y="84.64286" 
                xml:space="preserve"><tspan x="11.607142" y="84.64286" style="fill:#ffffff;stroke-width:0.59489501">T</tspan></text>
            <text class="identikit-option identikit-option-4" style="font-style:normal;font-variant:normal;font-weight:normal;font-stretch:normal;font-size:15.86386681px;line-height:1.25;font-family:'AR JULIAN';-inkscape-font-specification:'AR JULIAN, Normal';font-variant-ligatures:normal;font-variant-caps:normal;font-variant-numeric:normal;font-feature-settings:normal;text-align:center;letter-spacing:0px;word-spacing:0px;writing-mode:lr-tb;text-anchor:middle;fill:#ffffff;fill-opacity:1;stroke:none;stroke-width:0.59489501" x="11.607142" y="84.64286" 
                xml:space="preserve"><tspan x="11.607142" y="84.64286" style="fill:#ffffff;stroke-width:0.59489501">R</tspan></text>
            <text class="identikit-option identikit-option-5" style="font-style:normal;font-variant:normal;font-weight:normal;font-stretch:normal;font-size:15.86386681px;line-height:1.25;font-family:'AR JULIAN';-inkscape-font-specification:'AR JULIAN, Normal';font-variant-ligatures:normal;font-variant-caps:normal;font-variant-numeric:normal;font-feature-settings:normal;text-align:center;letter-spacing:0px;word-spacing:0px;writing-mode:lr-tb;text-anchor:middle;fill:#ffffff;fill-opacity:1;stroke:none;stroke-width:0.59489501" x="11.607142" y="84.64286" 
                xml:space="preserve"><tspan x="11.607142" y="84.64286" style="fill:#ffffff;stroke-width:0.59489501">O</tspan></text>
            <g transform="translate(-77.530484,79.025738)" style="display:inline" id="g4743">
                <circle style="opacity:1;vector-effect:none;fill:#ffffff;fill-opacity:1;stroke:#000000;stroke-width:1;stroke-linecap:round;stroke-linejoin:round;stroke-miterlimit:4;stroke-dasharray:none;stroke-dashoffset:0;stroke-opacity:1;paint-order:markers fill stroke" id="circle4739" cx="94.137627" cy="11.152834" r="5" />
                <path id="path4741" d="m 93.680476,14.091438 c -0.667172,-0.103041 -1.206761,-0.366448 -1.669389,-0.814931 -0.294109,-0.285117 -0.555221,-0.670372 -0.687829,-1.014854 -0.01815,-0.04714 -0.03782,-0.09122 -0.04371,-0.09794 -0.0088,-0.01001 -0.275729,0.08634 -0.731773,0.264128 -0.0639,0.02491 -0.06753,0.02502 -0.05577,0.0017 0.0069,-0.01374 0.188392,-0.41913 0.403265,-0.900859 0.353983,-0.793605 0.393436,-0.875155 0.420058,-0.868236 0.01616,0.0042 0.424415,0.184261 0.907234,0.400137 0.826765,0.36966 0.875403,0.393412 0.83573,0.408135 -0.02317,0.0086 -0.214031,0.08119 -0.424142,0.161318 -0.345946,0.131927 -0.381218,0.148393 -0.373533,0.174381 0.02233,0.07552 0.142753,0.309935 0.214964,0.418462 0.04435,0.06665 0.140546,0.183604 0.213773,0.259896 0.403903,0.420809 0.967998,0.6349 1.540858,0.584804 0.459801,-0.04021 0.844438,-0.21488 1.176904,-0.534452 0.177425,-0.170546 0.286247,-0.319377 0.391706,-0.535724 0.04788,-0.09822 0.08873,-0.180931 0.09079,-0.183811 0.0032,-0.0045 0.963449,0.337883 0.972829,0.346837 0.0066,0.0063 -0.09821,0.243476 -0.163031,0.368971 -0.234365,0.453774 -0.63017,0.875414 -1.078721,1.149131 -0.318375,0.19428 -0.663338,0.324577 -1.054496,0.398295 -0.165681,0.03122 -0.719145,0.04038 -0.88573,0.01465 z m 2.396473,-2.832129 c -0.485187,-0.216979 -0.882027,-0.398436 -0.881868,-0.403238 1.08e-4,-0.0048 0.186555,-0.07932 0.414211,-0.165597 0.376432,-0.14266 0.413147,-0.159481 0.405385,-0.185718 -0.02239,-0.07568 -0.142742,-0.309998 -0.215013,-0.418615 C 95.755316,10.01949 95.659118,9.9025368 95.585892,9.8262452 95.182145,9.4055981 94.618115,9.191456 94.045367,9.2413628 93.585829,9.281405 93.200594,9.4563223 92.868131,9.7758927 92.690704,9.9464383 92.581882,10.09527 92.476423,10.311617 c -0.04787,0.09822 -0.08873,0.180931 -0.09079,0.183811 -0.0032,0.0045 -0.96345,-0.337883 -0.97283,-0.346837 -0.0066,-0.0063 0.09822,-0.2434765 0.16303,-0.3689714 0.234365,-0.4537734 0.630171,-0.8754135 1.078723,-1.149131 0.321626,-0.1962644 0.669879,-0.3271308 1.061637,-0.3989411 0.167484,-0.0307 0.645096,-0.043096 0.815734,-0.021172 0.682311,0.087667 1.255024,0.3594679 1.732242,0.8220966 0.294111,0.2851177 0.555222,0.6703726 0.687829,1.0148539 0.01815,0.04714 0.03782,0.09122 0.04371,0.09794 0.0088,0.01001 0.275728,-0.08634 0.731771,-0.2641275 0.0639,-0.024911 0.06754,-0.025019 0.05577,-0.00166 -0.0069,0.013743 -0.188221,0.4187445 -0.402882,0.9000025 -0.214663,0.481261 -0.39726,0.874863 -0.405773,0.874677 -0.0085,-1.85e-4 -0.412449,-0.17787 -0.897637,-0.394849 z" style="fill:#000000;stroke-width:0.01428598" />
            </g>
        </g>
    </g>

</svg>