<?xml version="1.0" encoding="UTF-8" standalone="no"?>
<svg
   xmlns:dc="http://purl.org/dc/elements/1.1/"
   xmlns:cc="http://creativecommons.org/ns#"
   xmlns:rdf="http://www.w3.org/1999/02/22-rdf-syntax-ns#"
   xmlns:svg="http://www.w3.org/2000/svg"
   xmlns="http://www.w3.org/2000/svg"
   id="svg8"
   version="1.1"
   viewBox="0 0 100 100"
   height="100"
   width="100">
  <defs
     id="defs2" />
  <metadata
     id="metadata5">
    <rdf:RDF>
      <cc:Work
         rdf:about="">
        <dc:format>image/svg+xml</dc:format>
        <dc:type
           rdf:resource="http://purl.org/dc/dcmitype/StillImage" />
        <dc:title></dc:title>
      </cc:Work>
    </rdf:RDF>
  </metadata>
  <g
     id="layer1">
    <g
       class="svg-root"
       id="g848">
      <circle
         style="opacity:1;vector-effect:none;fill:#aad400;fill-opacity:1;stroke:none;stroke-width:1;stroke-linecap:round;stroke-linejoin:round;stroke-miterlimit:4;stroke-dasharray:none;stroke-dashoffset:0;stroke-opacity:1;paint-order:markers fill stroke"
         id="path817"
         cx="67.410713"
         cy="68.125"
         r="14.910714" />
      <g
         id="g842">
        <path
           d="m 14.562409,29.61946 c 0.08375,-0.312543 11.135952,-5.150842 11.387412,-5.35447 0.25146,-0.203628 7.281911,-10.008378 7.605036,-10.025312 0.323125,-0.01694 8.33994,8.999222 8.611308,9.17545 0.271367,0.176228 11.768767,3.83275 11.884724,4.134827 0.115956,0.302078 -5.981586,10.712667 -6.065332,11.02521 -0.08375,0.312544 -0.0084,12.377148 -0.259872,12.580776 -0.25146,0.203629 -12.036764,-2.37843 -12.359889,-2.361495 -0.323125,0.01693 -11.773966,3.816748 -12.045334,3.64052 C 23.049095,52.258738 21.862919,40.252348 21.746962,39.950271 21.631006,39.648194 14.478663,29.932003 14.562409,29.61946 Z"
           id="path815"
           style="opacity:1;vector-effect:none;fill:#ffcc00;fill-opacity:1;stroke:none;stroke-width:1;stroke-linecap:round;stroke-linejoin:round;stroke-miterlimit:4;stroke-dasharray:none;stroke-dashoffset:0;stroke-opacity:1;paint-order:markers fill stroke" />
        <circle
           class="clickable"
           style="opacity:1;vector-effect:none;fill:#aa0000;fill-opacity:1;stroke:none;stroke-width:0.61676645;stroke-linecap:round;stroke-linejoin:round;stroke-miterlimit:4;stroke-dasharray:none;stroke-dashoffset:0;stroke-opacity:1;paint-order:markers fill stroke"
           id="circle819"
           cx="34.910713"
           cy="35.267857"
           r="9.1964283" />
      </g>
    </g>
  </g>
</svg>
