<?xml version="1.0" encoding="UTF-8" standalone="no"?>
<svg xmlns="http://www.w3.org/2000/svg" viewBox="0 0 100 100" height="25" width="25">

    <g id="done">
        <circle r="5" cy="11.152854" cx="11.869292" id="circle8551-5" style="opacity:1;vector-effect:none;fill:#ffffff;fill-opacity:1;stroke:#000000;stroke-width:1;stroke-linecap:round;stroke-linejoin:round;stroke-miterlimit:4;stroke-dasharray:none;stroke-dashoffset:0;stroke-opacity:1;paint-order:markers fill stroke" />
        <path id="path8659" d="m 8.491597,10.047742 2.994201,0.954673 6.335558,-7.0298663 -5.901614,10.0674633 z" style="display:inline;fill:#000000;stroke:none;stroke-width:0.68732953px;stroke-linecap:butt;stroke-linejoin:miter;stroke-opacity:1" />
    </g>

    <g id="palazzo-pretorio">
        <path style="opacity:1;vector-effect:none;fill:#e9ddaf;fill-opacity:1;stroke:#c8ab37;stroke-width:1;stroke-linecap:round;stroke-linejoin:round;stroke-miterlimit:4;stroke-dasharray:none;stroke-dashoffset:0;stroke-opacity:1;paint-order:markers fill stroke" d="m 68.205421,35.564544 c 0,0 9.857708,5.515133 9.857708,5.515133 0,0 0,-20.863035 0,-20.863035 0,0 -9.857708,-8.548396 -9.857708,-8.548396 0,0 0,23.896298 0,23.896298" id="path10258" />
        <path id="path10260" d="m 68.205421,0.499975 c 0,0 9.857708,9.966034 9.857708,9.966034 0,0 0,9.750633 0,9.750633 0,0 -9.857708,-8.548396 -9.857708,-8.548396 0,0 0,-11.168271 0,-11.168271" style="opacity:1;vector-effect:none;fill:#e3dedb;fill-opacity:1;stroke:#916f6f;stroke-width:1;stroke-linecap:round;stroke-linejoin:round;stroke-miterlimit:4;stroke-dasharray:none;stroke-dashoffset:0;stroke-opacity:1;paint-order:markers fill stroke" />
        <path style="opacity:1;vector-effect:none;fill:#c8b7b7;fill-opacity:1;stroke:#916f6f;stroke-width:1;stroke-linecap:round;stroke-linejoin:round;stroke-miterlimit:4;stroke-dasharray:none;stroke-dashoffset:0;stroke-opacity:1;paint-order:markers fill stroke" d="m 91.186392,48.421802 c 0,0 -13.123263,-7.342125 -13.123263,-7.342125 0,0 0,55.316438 0,55.316438 0,0 13.123263,-3.364503 13.123263,-3.364503 0,0 0,-44.60981 0,-44.60981" id="path10262" />
        <path id="path10264" d="m 68.205421,35.564544 c 0,0 9.857708,5.515133 9.857708,5.515133 0,0 0,55.316438 0,55.316438 0,0 -9.857708,2.527289 -9.857708,2.527289 0,0 0,-63.35886 0,-63.35886" style="opacity:1;vector-effect:none;fill:#c8b7b7;fill-opacity:1;stroke:#916f6f;stroke-width:1;stroke-linecap:round;stroke-linejoin:round;stroke-miterlimit:4;stroke-dasharray:none;stroke-dashoffset:0;stroke-opacity:1;paint-order:markers fill stroke" />
        <path id="path12647" d="m 57.241628,38.523423 c 0,0 -56.7164268,15.306471 -56.7164268,15.306471 0,0 0,37.498102 0,37.498102 0,0 56.7164268,6.364997 56.7164268,6.364997 0,0 0,-59.16957 0,-59.16957" style="opacity:1;vector-effect:none;fill:#c8b7b7;fill-opacity:1;stroke:#916f6f;stroke-width:1;stroke-linecap:round;stroke-linejoin:round;stroke-miterlimit:4;stroke-dasharray:none;stroke-dashoffset:0;stroke-opacity:1;paint-order:markers fill stroke" />
        <path id="path12695" d="m 57.241628,38.523423 c 0,0 10.963792,-2.958878 10.963792,-2.958878 0,0 0,-23.896299 0,-23.896299 0,0 -10.963792,4.538902 -10.963792,4.538902 0,0 0,22.316275 0,22.316275" style="opacity:1;vector-effect:none;fill:#e9ddaf;fill-opacity:1;stroke:#c8ab37;stroke-width:1;stroke-linecap:round;stroke-linejoin:round;stroke-miterlimit:4;stroke-dasharray:none;stroke-dashoffset:0;stroke-opacity:1;paint-order:markers fill stroke" />
        <path id="path12649" d="m 57.241628,38.523423 c 0,0 10.963792,-2.958878 10.963792,-2.958878 0,0 0,63.358859 0,63.358859 0,0 -10.963792,-1.230411 -10.963792,-1.230411 0,0 0,-59.16957 0,-59.16957" style="opacity:1;vector-effect:none;fill:#c8b7b7;fill-opacity:1;stroke:#916f6f;stroke-width:1;stroke-linecap:round;stroke-linejoin:round;stroke-miterlimit:4;stroke-dasharray:none;stroke-dashoffset:0;stroke-opacity:1;paint-order:markers fill stroke" />
        <path style="opacity:1;vector-effect:none;fill:#e3dedb;fill-opacity:1;stroke:#916f6f;stroke-width:1;stroke-linecap:round;stroke-linejoin:round;stroke-miterlimit:4;stroke-dasharray:none;stroke-dashoffset:0;stroke-opacity:1;paint-order:markers fill stroke" d="m 57.241628,5.7773233 c 0,0 10.963792,-5.2773479 10.963792,-5.2773479 0,0 0,11.1682706 0,11.1682706 0,0 -10.963792,4.538902 -10.963792,4.538902 0,0 0,-10.4298247 0,-10.4298247" id="path12697" />
        <path id="path10266" d="m 64.630302,45.601562 -4.408204,0.94336 v 5.914062 l 4.408204,-0.779296 z m 6.669922,0.597657 v 5.964843 l 3.972656,1.429688 v -5.646484 z m -17.28711,1.673828 -3.857422,0.826172 v 5.535156 l 3.857422,-0.679687 z m -9.005859,1.927734 -3.417969,0.730469 v 5.214844 l 3.417969,-0.601563 z m 35.103515,0.275391 v 5.259766 l 3.109375,1.11914 v -5.009766 z m -43.099609,1.435547 -3.048828,0.652343 v 4.929688 l 3.048828,-0.539062 z m 49.583984,1.417969 v 4.742187 l 2.53711,0.914063 v -4.539063 z m -56.730468,0.111328 -2.738282,0.585937 v 4.671875 l 2.738282,-0.482422 z m -6.427735,1.375 -2.470703,0.527343 v 4.44336 l 2.470703,-0.435547 z m -5.808594,1.242187 -2.242187,0.480469 v 4.232422 l 2.242187,-0.394532 z m -5.277343,1.128906 -2.042969,0.4375 v 4.042969 l 2.042969,-0.359375 z m -4.816407,1.03125 -1.86914,0.400391 v 3.869141 l 1.86914,-0.330079 z m -4.4101558,0.94336 -1.71875,0.367187 v 3.710938 l 1.71875,-0.304688 z m 61.4785158,3.792969 -4.353516,0.476562 v 9.921875 L 64.602958,72.75 Z m 6.722656,0.283203 v 10.003906 l 3.923828,0.324219 v -9.476563 z m -17.335937,0.878906 -3.810547,0.417969 v 9.289062 l 3.810547,-0.177734 z m -9.003907,0.986328 -3.375,0.369141 v 8.75 l 3.375,-0.15625 z m 35.144532,0.04492 v 8.822265 l 3.070312,0.253907 V 65.41406 Z m -43.138672,0.830078 -3.011719,0.330078 v 8.269531 L 36.99163,74.03906 Z m 49.61914,0.576172 v 7.953125 l 2.507813,0.207031 v -7.615234 z m -56.763672,0.205078 -2.703124,0.296875 v 7.841797 l 2.703124,-0.126953 z m -6.425781,0.705078 -2.439453,0.265625 v 7.455078 l 2.439453,-0.113281 z m -5.80664,0.634766 -2.214844,0.242187 v 7.103516 l 2.214844,-0.103516 z m -5.277344,0.578125 -2.017578,0.220703 v 6.783203 l 2.017578,-0.09375 z M 7.52288,68.804686 5.677177,69.005857 v 6.492188 L 7.52288,75.412105 Z M 3.1127235,69.287109 1.417411,69.472656 v 6.22461 l 1.6953125,-0.08008 z" style="opacity:1;vector-effect:none;fill:#668000;fill-opacity:1;stroke:#445500;stroke-width:1;stroke-linecap:round;stroke-linejoin:round;stroke-miterlimit:4;stroke-dasharray:none;stroke-dashoffset:0;stroke-opacity:1;paint-order:markers fill stroke" />
    </g>

    <g id="porticati">
        <path class="identikit-option identikit-option-2" id="path10282" d="m 62.569755,77.705078 c -1.442832,0.03555 -2.853955,1.477846 -3.109375,4.242188 l 6.292968,0.06641 C 65.515793,79.098161 64.040833,77.66885 62.569755,77.705082 Z m 10.927734,0.002 c -1.326896,-0.01201 -2.696894,1.411387 -2.953125,4.240235 l 5.642578,-0.220704 c -0.190274,-2.656629 -1.407989,-4.00797 -2.689453,-4.019578 z m 8.326172,0.150391 c -1.036896,-0.0082 -2.101919,1.248651 -2.300781,3.740234 l 4.417968,-0.171875 c -0.150239,-2.361041 -1.111632,-3.560471 -2.117187,-3.568406 z m -29.611328,0.01563 c -1.263002,0.03185 -2.498658,1.381975 -2.722656,3.970703 l 5.503906,0.05664 c -0.207313,-2.723593 -1.495039,-4.059764 -2.78125,-4.027343 z m 35.779297,0.0957 c -0.845496,-0.0057 -1.711711,1.127225 -1.873047,3.371094 l 3.605469,-0.140625 C 89.600593,79.058752 88.814097,77.97435 87.99163,77.96875 Z m -44.578125,0.04687 c -1.119558,0.02885 -2.21715,1.301027 -2.416016,3.740234 l 4.876953,0.05078 c -0.183291,-2.560971 -1.321944,-3.8204 -2.460937,-3.791058 z m -7.824219,0.128862 c -0.999233,0.02631 -1.978511,1.227189 -2.15625,3.533203 l 4.349609,0.04492 c -0.163059,-2.41658 -1.177682,-3.604853 -2.193359,-3.578123 z m -7.001953,0.113281 c -0.8973,0.02412 -1.777696,1.161058 -1.9375,3.347657 l 3.90625,0.04102 c -0.146264,-2.287653 -1.057409,-3.413162 -1.96875,-3.388672 z m -6.300781,0.103516 c -0.810215,0.02223 -1.605544,1.102685 -1.75,3.181641 l 3.52539,0.03711 c -0.131823,-2.171786 -0.953084,-3.241305 -1.77539,-3.218751 z m -5.701172,0.0918 c -0.73522,0.02058 -1.458626,1.049836 -1.589844,3.03125 l 3.197266,0.0332 C 18.073495,79.450501 17.331088,78.432256 16.58538,78.453125 Z m -5.185547,0.08398 c -0.670175,0.01914 -1.329403,1.003881 -1.4492193,2.896485 l 2.9140633,0.0293 C 12.75609,79.490879 12.079168,78.51772 11.399833,78.537108 Z m -4.7343753,0.07813 c -0.613388,0.01786 -1.216506,0.958108 -1.326172,2.769532 l 2.666016,0.02734 c -0.09934,-1.885307 -0.718407,-2.814957 -1.339844,-2.796875 z m -4.3398439,0.07031 c -0.5635303,0.01672 -1.1179196,0.919329 -1.21875,2.65625 l 2.4492188,0.02539 C 3.4650186,79.561294 2.8962582,78.668626 2.3256138,78.685547 Z m -1.2402343,5.117187 v 7.603516 l 2.4882812,0.279297 v -7.794922 z m 4.2304682,0.148438 v 7.929687 l 2.708985,0.304688 v -8.138672 z m 4.609376,0.164062 v 8.283204 l 2.9609373,0.333984 V 84.21875 Z m 79.8242183,0.07227 -3.666015,0.337891 v 9.833984 l 3.666015,-0.941406 z m -74.78125,0.105469 v 8.671875 l 3.248047,0.365234 v -8.921875 z m 5.53711,0.195312 v 9.09961 l 3.582031,0.402343 v -9.375 z m 6.111328,0.216797 v 9.56836 l 3.96875,0.447265 v -9.875 z m 57.353515,0.01563 -4.490234,0.414063 v 10.919922 l 4.490234,-1.154297 z m -50.576171,0.222656 v 10.091797 l 4.421874,0.498047 V 85.099609 Z m 7.560546,0.267579 v 10.673828 l 4.957032,0.558593 v -11.05664 z m 35.269532,0.224609 -5.736328,0.527344 v 12.398437 l 5.736328,-1.472656 z m -26.783204,0.07617 v 11.328125 l 5.59375,0.626953 V 85.708984 Z m 9.964844,0.351562 v 12.095703 l 6.394532,0.71875 v -12.58789 z" style="opacity:1;vector-effect:none;fill:#483737;fill-opacity:1;stroke:#916f6f;stroke-width:1;stroke-linecap:round;stroke-linejoin:round;stroke-miterlimit:4;stroke-dasharray:none;stroke-dashoffset:0;stroke-opacity:1;paint-order:markers fill stroke" />
        <path class="identikit-option identikit-option-1" id="path5682" d="m 65.800224,77.644531 -3.230469,0.05273 -3.164063,0.05273 v 5.005859 10.197266 5.005859 l 3.164063,0.355469 3.230469,0.363281 V 93.46875 82.853516 Z m 4.6875,0.002 v 5.13086 10.453125 5.130859 l 3.009765,-0.771484 2.726563,-0.701172 V 92.148438 82.492188 77.75 l -2.726563,-0.04883 z m 8.992187,0.164063 v 4.517578 9.207031 4.517578 l 2.34375,-0.601562 2.146484,-0.550781 V 90.6875 82.103516 77.890625 l -2.146484,-0.03906 z m -24.445313,0.0098 -2.822265,0.04688 -2.771485,0.04492 v 4.6875 9.550782 4.689453 l 2.771485,0.310547 2.822265,0.316406 V 92.601562 82.6875 Z m 31.048829,0.109376 v 4.068359 8.291015 4.070313 l 1.908203,-0.490234 1.757812,-0.451172 v -3.820313 -7.78125 -3.820312 l -1.757812,-0.03125 z m -40.171875,0.04102 -2.498047,0.03906 -2.458985,0.04102 v 4.417969 9 4.416016 l 2.458985,0.277343 2.498047,0.279297 v -4.574218 -9.322266 z m -8.095704,0.130859 -2.226562,0.03711 -2.195312,0.03516 v 4.177734 8.507813 4.175781 l 2.195312,0.248047 2.226562,0.25 v -4.318359 -8.794922 z m -7.230468,0.119141 -1.998047,0.03125 -1.970703,0.0332 v 3.960938 8.068359 3.958985 l 1.970703,0.222656 1.998047,0.224609 v -4.087891 -8.326171 z m -6.498047,0.105469 -1.800781,0.0293 -1.78125,0.0293 v 3.765625 7.671875 3.765625 l 1.78125,0.199218 1.800781,0.203125 v -3.880859 -7.902344 z m -5.871094,0.0957 -1.630859,0.02734 -1.617188,0.02539 v 3.589844 7.3125 3.587891 l 1.617188,0.18164 1.630859,0.183594 v -3.691406 -7.523438 z m -5.330078,0.08789 -1.486328,0.02344 -1.4746093,0.02539 v 3.427734 6.984375 3.427735 l 1.4746093,0.166015 1.486328,0.166016 v -3.52157 -7.177734 z m -4.8613283,0.07813 -1.359375,0.02344 -1.34961,0.02148 v 3.28125 6.685547 3.28125 l 1.34961,0.152344 1.359375,0.152344 v -3.367188 -6.861328 z m -4.451172,0.07422 -1.2480469,0.01953 -1.2402343,0.02148 v 3.144531 6.410156 3.146485 l 1.2402343,0.140625 1.2480469,0.140625 v -3.226563 -6.572265 z" style="opacity:1;vector-effect:none;fill:#483737;fill-opacity:1;stroke:#916f6f;stroke-width:1;stroke-linecap:round;stroke-linejoin:round;stroke-miterlimit:4;stroke-dasharray:none;stroke-dashoffset:0;stroke-opacity:1;paint-order:markers fill stroke" />
        <path class="identikit-option identikit-option-3" id="path1217" d="m 62.569755,77.697266 c -1.579527,0.03896 -3.138058,1.747003 -3.164063,5.058593 v 15.203125 l 6.394532,0.71875 V 82.855469 c 0.0143,-3.50064 -1.619163,-5.19796 -3.230469,-5.158203 z m 10.927734,0.0039 c -1.456413,-0.01332 -2.983503,1.683765 -3.009765,5.078125 v 15.582031 l 5.736328,-1.472656 V 82.492188 c 0.01138,-3.185334 -1.326502,-4.778217 -2.726563,-4.791016 z m 8.326172,0.15039 c -1.137873,-0.0091 -2.32338,1.489076 -2.34375,4.478516 v 13.722656 l 4.490234,-1.152343 V 82.105469 c 0.009,-2.831057 -1.04766,-4.245145 -2.146484,-4.253907 z m -29.611328,0.01563 c -1.382735,0.0349 -2.748671,1.632973 -2.771485,4.734374 v 14.238282 l 5.59375,0.626953 V 82.689453 c 0.01248,-3.270003 -1.413528,-4.857837 -2.822265,-4.822265 z m 35.779297,0.09766 C 87.063934,77.958444 86.099953,79.307923 86.083427,82 v 12.359375 l 3.666015,-0.941406 V 81.816406 c 0.0074,-2.566723 -0.858933,-3.845367 -1.757812,-3.851562 z m -44.578125,0.04492 c -1.22575,0.03162 -2.438729,1.538515 -2.458985,4.460937 v 13.414063 l 4.957032,0.55664 V 82.546875 c 0.01103,-3.074547 -1.250611,-4.569301 -2.498047,-4.537109 z m -7.824219,0.128906 c -1.094058,0.02883 -2.177206,1.449918 -2.195312,4.21289 v 12.683594 l 4.421874,0.498047 V 82.421875 c 0.0098,-2.901116 -1.114231,-4.312526 -2.226562,-4.283203 z m -7.001953,0.113281 c -0.982489,0.02644 -1.954422,1.374137 -1.970703,3.994141 v 12.027344 l 3.96875,0.447265 V 82.308594 c 0.0088,-2.746227 -1.000018,-4.083507 -1.998047,-4.056641 z m -6.300781,0.103516 c -0.887166,0.02437 -1.766531,1.305756 -1.78125,3.796875 v 11.435547 l 3.582031,0.402343 V 82.207031 c 0.0079,-2.607038 -0.900288,-3.876303 -1.800781,-3.851562 z m -5.701172,0.09375 c -0.805073,0.02256 -1.603817,1.242866 -1.617188,3.617187 v 10.898438 l 3.248047,0.365234 V 82.115234 c 0.0072,-2.481261 -0.814272,-3.688904 -1.630859,-3.666015 z m -5.185547,0.08398 c -0.733869,0.02097 -1.4624103,1.185154 -1.4746093,3.453125 v 10.41211 l 2.9609373,0.332031 V 82.033203 c 0.0065,-2.367077 -0.742444,-3.521265 -1.486328,-3.5 z m -4.7343753,0.07813 c -0.671701,0.01957 -1.338433,1.133936 -1.34961,3.304688 v 9.964843 l 2.708985,0.304688 V 81.957031 c 0.006,-2.26294 -0.678908,-3.365534 -1.359375,-3.345702 z m -4.3398439,0.07031 c -0.6171181,0.01832 -1.2299579,1.086445 -1.2402343,3.16797 v 9.554688 l 2.4882812,0.28125 v -9.796875 c 0.00548,-2.167567 -0.6232119,-3.225587 -1.2480469,-3.207031 z" style="opacity:1;vector-effect:none;fill:#483737;fill-opacity:1;stroke:#916f6f;stroke-width:1;stroke-linecap:round;stroke-linejoin:round;stroke-miterlimit:4;stroke-dasharray:none;stroke-dashoffset:0;stroke-opacity:1;paint-order:markers fill stroke" />
        <path d="M 1.0853795,91.406251 0.52520091,76.052142 68.205421,73.112479 91.186392,74.858614 v 18.172998 l -22.980971,5.891792 z" style="fill:#ffffff;stroke:none;stroke-width:1px;stroke-linecap:butt;stroke-linejoin:miter;opacity:0" />
        <use transform="translate(2.5168349e-6,75.462645)" height="100%" width="100%" id="use8609-6" href="#switch-button" y="0" x="0" />
    </g>
    <g id="altana">
        <path class="identikit-option identikit-option-2" id="path5702" d="m 64.839286,5.8183594 c -1.062628,0.1532757 -2.28483,1.8995429 -2.302734,4.5429686 v 3.646484 l 3.851562,-1.595703 V 8.6796875 c 0.0074,-2.1352919 -0.72234,-2.9805426 -1.548828,-2.8613281 z m 5.931641,1.390625 c -0.476548,0.1036489 -0.828088,0.7853764 -0.837891,2.2578125 v 3.6933591 l 3.535156,3.064453 v -3.519531 c 0.01,-3.1478655 -1.648861,-5.7241213 -2.697265,-5.4960936 z m -9.871094,0.4375 c -1.013855,0.1388475 -2.180166,1.8314778 -2.197266,4.4140626 v 3.5625 l 3.675781,-1.521485 v -3.646484 c 0.0071,-2.0850641 -0.689961,-2.9165861 -1.478515,-2.8085936 z m 13.761719,2.9257816 c -0.566845,-0.11169 -1.024465,0.510124 -1.035157,2.195312 v 3.519531 l 3.220703,2.792969 v -3.363281 c 0.0083,-2.734784 -1.240806,-4.958381 -2.185546,-5.144531 z" style="opacity:1;vector-effect:none;fill:#ffffff;fill-opacity:1;stroke:#916f6f;stroke-width:1;stroke-linecap:round;stroke-linejoin:round;stroke-miterlimit:4;stroke-dasharray:none;stroke-dashoffset:0;stroke-opacity:1;paint-order:markers fill stroke" />
        <path class="identikit-option identikit-option-3" id="path10306" d="m 66.122489,5.3222656 c -0.888981,0.078351 -1.91074,1.7197457 -1.925781,4.3378906 V 13.273438 L 67.419364,11.9375 V 8.2519531 c 0.0062,-2.1068357 -0.605445,-2.9906273 -1.296875,-2.9296875 z m 3.8125,0.84375 C 69.406306,6.1092343 68.98006,6.8066606 68.970145,8.5625 v 3.664062 l 3.003907,2.607422 V 11.3125 c 0.0077,-2.8644226 -1.157924,-5.0518488 -2.039063,-5.1464844 z m -7.080078,0.625 c -0.854908,0.069231 -1.837089,1.6704377 -1.851563,4.2382814 v 3.544922 l 3.09961,-1.285157 V 9.6757812 C 64.108897,7.6101613 63.51984,6.737169 62.854911,6.7910156 Z m -3.146484,1.4296875 c -0.822759,0.060741 -1.767317,1.6231399 -1.78125,4.1425779 v 3.478516 l 2.980468,-1.236328 V 11.060547 C 60.913345,9.0345611 60.34835,8.1734601 59.708427,8.2207031 Z m 13.236328,0.8515625 c -0.488901,-0.036223 -0.883421,0.6483841 -0.892578,2.3359374 v 3.521485 l 2.777343,2.410156 v -3.388672 c 0.0072,-2.756918 -1.069931,-4.8185345 -1.884765,-4.8789064 z m 2.792969,2.6796874 c -0.453447,-0.01849 -0.819647,0.654917 -0.828126,2.279297 v 3.388672 l 2.576172,2.236328 v -3.265625 c 0.0067,-2.657189 -0.992303,-4.607852 -1.748046,-4.638672 z" style="opacity:1;vector-effect:none;fill:#ffffff;fill-opacity:1;stroke:#916f6f;stroke-width:1;stroke-linecap:round;stroke-linejoin:round;stroke-miterlimit:4;stroke-dasharray:none;stroke-dashoffset:0;stroke-opacity:1;paint-order:markers fill stroke" />
        <path class="identikit-option identikit-option-1" id="path1246" d="m 63.384208,6.7148438 c -1.268615,-0.145261 -2.969775,1.737979 -2.992188,4.5839842 v 3.53125 l 4.351563,-1.802734 V 9.3984375 c 0.0072,-1.7790794 -0.598206,-2.5964372 -1.359375,-2.6835937 z m 9.005859,2.0996093 c -0.526,0.034889 -0.912943,0.6438032 -0.923828,2.0585939 v 3.550781 l 3.902344,3.386719 v -3.365235 c 0.01092,-3.007578 -1.821315,-5.7076139 -2.978516,-5.6308589 z" style="opacity:1;vector-effect:none;fill:#ffffff;fill-opacity:1;stroke:#916f6f;stroke-width:1;stroke-linecap:round;stroke-linejoin:round;stroke-miterlimit:4;stroke-dasharray:none;stroke-dashoffset:0;stroke-opacity:1;paint-order:markers fill stroke" />
        <path d="M 57.241628,16.207148 V 5.7773233 L 68.20542,0.49997538 78.063129,10.466009 v 9.750633 l -9.857708,-8.548396 z" style="fill:#ffffff;stroke:none;stroke-width:1px;stroke-linecap:butt;stroke-linejoin:miter;opacity:0" />
        <g id="switch-button">
            <circle r="5" cy="11.152834" cx="94.137627" id="circle8551" style="opacity:1;vector-effect:none;fill:#ffffff;fill-opacity:1;stroke:#000000;stroke-width:1;stroke-linecap:round;stroke-linejoin:round;stroke-miterlimit:4;stroke-dasharray:none;stroke-dashoffset:0;stroke-opacity:1;paint-order:markers fill stroke" />
            <path style="fill:#000000;stroke-width:0.01428598" d="m 93.680476,14.091438 c -0.667172,-0.103041 -1.206761,-0.366448 -1.669389,-0.814931 -0.294109,-0.285117 -0.555221,-0.670372 -0.687829,-1.014854 -0.01815,-0.04714 -0.03782,-0.09122 -0.04371,-0.09794 -0.0088,-0.01001 -0.275729,0.08634 -0.731773,0.264128 -0.0639,0.02491 -0.06753,0.02502 -0.05577,0.0017 0.0069,-0.01374 0.188392,-0.41913 0.403265,-0.900859 0.353983,-0.793605 0.393436,-0.875155 0.420058,-0.868236 0.01616,0.0042 0.424415,0.184261 0.907234,0.400137 0.826765,0.36966 0.875403,0.393412 0.83573,0.408135 -0.02317,0.0086 -0.214031,0.08119 -0.424142,0.161318 -0.345946,0.131927 -0.381218,0.148393 -0.373533,0.174381 0.02233,0.07552 0.142753,0.309935 0.214964,0.418462 0.04435,0.06665 0.140546,0.183604 0.213773,0.259896 0.403903,0.420809 0.967998,0.6349 1.540858,0.584804 0.459801,-0.04021 0.844438,-0.21488 1.176904,-0.534452 0.177425,-0.170546 0.286247,-0.319377 0.391706,-0.535724 0.04788,-0.09822 0.08873,-0.180931 0.09079,-0.183811 0.0032,-0.0045 0.963449,0.337883 0.972829,0.346837 0.0066,0.0063 -0.09821,0.243476 -0.163031,0.368971 -0.234365,0.453774 -0.63017,0.875414 -1.078721,1.149131 -0.318375,0.19428 -0.663338,0.324577 -1.054496,0.398295 -0.165681,0.03122 -0.719145,0.04038 -0.88573,0.01465 z m 2.396473,-2.832129 c -0.485187,-0.216979 -0.882027,-0.398436 -0.881868,-0.403238 1.08e-4,-0.0048 0.186555,-0.07932 0.414211,-0.165597 0.376432,-0.14266 0.413147,-0.159481 0.405385,-0.185718 -0.02239,-0.07568 -0.142742,-0.309998 -0.215013,-0.418615 C 95.755316,10.01949 95.659118,9.9025368 95.585892,9.8262452 95.182145,9.4055981 94.618115,9.191456 94.045367,9.2413628 93.585829,9.281405 93.200594,9.4563223 92.868131,9.7758927 92.690704,9.9464383 92.581882,10.09527 92.476423,10.311617 c -0.04787,0.09822 -0.08873,0.180931 -0.09079,0.183811 -0.0032,0.0045 -0.96345,-0.337883 -0.97283,-0.346837 -0.0066,-0.0063 0.09822,-0.2434765 0.16303,-0.3689714 0.234365,-0.4537734 0.630171,-0.8754135 1.078723,-1.149131 0.321626,-0.1962644 0.669879,-0.3271308 1.061637,-0.3989411 0.167484,-0.0307 0.645096,-0.043096 0.815734,-0.021172 0.682311,0.087667 1.255024,0.3594679 1.732242,0.8220966 0.294111,0.2851177 0.555222,0.6703726 0.687829,1.0148539 0.01815,0.04714 0.03782,0.09122 0.04371,0.09794 0.0088,0.01001 0.275728,-0.08634 0.731771,-0.2641275 0.0639,-0.024911 0.06754,-0.025019 0.05577,-0.00166 -0.0069,0.013743 -0.188221,0.4187445 -0.402882,0.9000025 -0.214663,0.481261 -0.39726,0.874863 -0.405773,0.874677 -0.0085,-1.85e-4 -0.412449,-0.17787 -0.897637,-0.394849 z" id="path8564" />
        </g>
    </g>
    <g id="orologio">
        <path class="identikit-option identikit-option-2" id="path5706" d="m 65.915458,14.515625 -6.621094,2.664063 v 8.044921 l 6.621094,-2.324218 z m 4.460937,0.90625 V 23.6875 l 5.939453,4.353516 v -7.615235 z" style="opacity:1;vector-effect:none;fill:#f9f9f9;fill-opacity:1;stroke:#000000;stroke-width:1;stroke-linecap:round;stroke-linejoin:round;stroke-miterlimit:4;stroke-dasharray:none;stroke-dashoffset:0;stroke-opacity:1;paint-order:markers fill stroke" />
        <path class="identikit-option identikit-option-1" id="path10302" d="m 66.792411,14.113281 -2.568359,1.035157 2.568359,2.117187 z m 2.681641,0.501953 v 3.126954 l 2.392578,-1.111329 z m -8.746094,1.941407 -2.382813,0.958984 v 2.990234 z m 3.003906,0.25 -2.529297,0.996093 -1.742187,2.863282 v 3.080078 l 1.742187,1.576172 2.529297,-0.875 1.837891,-2.902344 v -3.197266 z m 8.583984,1.625 -1.693359,0.833984 v 3.148437 l 1.693359,3.455079 2.267579,1.638671 1.523437,-0.966796 v -2.919922 l -1.523437,-3.320313 z m 2.685547,0.841797 2.064453,4.558593 v -2.816406 z m -8.208984,2.447265 -2.568359,4.021485 2.568359,-0.867188 z m 2.681641,0.439453 v 3.13086 l 2.392578,1.68164 z m -11.128907,2.570313 v 2.99414 l 2.382813,-0.804687 z m 18.720703,3.080078 -2.064453,1.367187 2.064453,1.453125 z" style="opacity:1;vector-effect:none;fill:#f9f9f9;fill-opacity:1;stroke:#000000;stroke-width:1;stroke-linecap:round;stroke-linejoin:round;stroke-miterlimit:4;stroke-dasharray:none;stroke-dashoffset:0;stroke-opacity:1;paint-order:markers fill stroke" />
        <path class="identikit-option identikit-option-3" id="path1244" d="m 63.780692,15.863281 c -0.386129,-0.04811 -0.809467,0.0099 -1.251953,0.1875 -0.836275,0.335598 -1.63067,1.064587 -2.210937,2.023438 -0.576035,0.951856 -0.896485,2.057099 -0.896485,3.080078 0,1.022979 0.32045,1.888422 0.896485,2.40625 0.580267,0.521634 1.374662,0.651937 2.210937,0.357422 1.769942,-0.62333 3.234375,-2.936068 3.234375,-5.152344 0,-1.662207 -0.824035,-2.75801 -1.982422,-2.902344 z m 8.066406,1.623047 c -0.160443,0.0069 -0.311323,0.04297 -0.451171,0.109375 -0.567926,0.269651 -0.890625,1.01232 -0.890625,2.060547 0,1.048227 0.322699,2.298599 0.890625,3.462891 0.559393,1.1468 1.305011,2.10429 2.066406,2.664062 1.535743,1.129068 2.732422,0.373458 2.732422,-1.644531 0,-2.017988 -1.196679,-4.661017 -2.732422,-5.951172 -0.571046,-0.479729 -1.133904,-0.72198 -1.615235,-0.701172 z" style="opacity:1;vector-effect:none;fill:#f9f9f9;fill-opacity:1;stroke:#000000;stroke-width:1;stroke-linecap:round;stroke-linejoin:round;stroke-miterlimit:4;stroke-dasharray:none;stroke-dashoffset:0;stroke-opacity:1;paint-order:markers fill stroke" />
        <path d="M 57.241628,38.523423 V 16.207148 l 10.963793,-4.538902 9.857708,8.548396 v 20.863035 z" style="fill:#ffffff;stroke:none;stroke-width:1px;stroke-linecap:butt;stroke-linejoin:miter;opacity:0" />
        <use transform="translate(2.5168349e-6,25.154215)" height="100%" width="100%" id="use8609" href="#switch-button" y="0" x="0" />
    </g>
    <g id="balcone">
        <path id="path10278" d="m 91.186392,71.947121 c 0,0 -13.123263,-1.695905 -13.123263,-1.695905 0,0 0,3.61027 0,3.61027 0,0 13.123263,0.997128 13.123263,0.997128 0,0 0,-2.911493 0,-2.911493" style="opacity:1;vector-effect:none;fill:#e3dedb;fill-opacity:1;stroke:#916f6f;stroke-width:1;stroke-linecap:round;stroke-linejoin:round;stroke-miterlimit:4;stroke-dasharray:none;stroke-dashoffset:0;stroke-opacity:1;paint-order:markers fill stroke" />
        <path style="opacity:1;vector-effect:none;fill:#e3dedb;fill-opacity:1;stroke:#916f6f;stroke-width:1;stroke-linecap:round;stroke-linejoin:round;stroke-miterlimit:4;stroke-dasharray:none;stroke-dashoffset:0;stroke-opacity:1;paint-order:markers fill stroke" d="m 68.205421,68.977315 c 0,0 9.857708,1.273901 9.857708,1.273901 0,0 0,3.61027 0,3.61027 0,0 -9.857708,-0.749007 -9.857708,-0.749007 0,0 0,-4.135164 0,-4.135164" id="path10280" />
        <path style="opacity:1;vector-effect:none;fill:#e3dedb;fill-opacity:1;stroke:#916f6f;stroke-width:1;stroke-linecap:round;stroke-linejoin:round;stroke-miterlimit:4;stroke-dasharray:none;stroke-dashoffset:0;stroke-opacity:1;paint-order:markers fill stroke" d="m 57.241628,69.72694 c 0,0 -56.7164268,3.87786 -56.7164268,3.87786 0,0 0,2.447342 0,2.447342 0,0 56.7164268,-2.463455 56.7164268,-2.463455 0,0 0,-3.861747 0,-3.861747" id="path12691" />
        <path style="opacity:1;vector-effect:none;fill:#e3dedb;fill-opacity:1;stroke:#916f6f;stroke-width:1;stroke-linecap:round;stroke-linejoin:round;stroke-miterlimit:4;stroke-dasharray:none;stroke-dashoffset:0;stroke-opacity:1;paint-order:markers fill stroke" d="m 57.241628,69.72694 c 0,0 10.963792,-0.749625 10.963792,-0.749625 0,0 0,4.135165 0,4.135165 0,0 -10.963792,0.476207 -10.963792,0.476207 0,0 0,-3.861747 0,-3.861747" id="path12693" />
    </g>
    <g id="fregi">
        <path class="identikit-option identikit-option-2" id="option-1" d="m 62.347098,41.199219 c -0.228336,0.05572 -0.446795,0.221719 -0.607421,0.460937 -0.160302,0.238737 -0.250091,0.530049 -0.25,0.8125 3.12e-4,0.150308 0.0265,0.29261 0.07617,0.417969 -0.09522,0.0489 -0.188694,0.102158 -0.277343,0.158203 -0.677789,0.425386 -1.092011,1.01361 -1.091797,1.544922 l 2.199219,-0.498047 2.261718,-0.511719 c 2.27e-4,-0.546435 -0.435683,-0.95095 -1.138671,-1.058593 -0.119911,-0.01768 -0.245081,-0.02558 -0.375,-0.02539 0.04583,-0.143584 0.07009,-0.293048 0.07031,-0.4375 9.4e-5,-0.285557 -0.09277,-0.536995 -0.255859,-0.699219 -0.162764,-0.161896 -0.382337,-0.220175 -0.611329,-0.164062 z m 10.650391,1.068359 c -0.09425,0.0043 -0.181933,0.0369 -0.255859,0.09766 -0.148453,0.122005 -0.232507,0.346878 -0.232422,0.625 2.91e-4,0.148185 0.0241,0.305631 0.07031,0.462891 -0.08866,-0.01691 -0.174694,-0.02775 -0.257812,-0.0332 -0.644909,-0.04539 -1.047085,0.25661 -1.046875,0.792969 l 2.066406,0.96289 1.955078,0.91211 c 1.88e-4,-0.507264 -0.365067,-1.149996 -0.964843,-1.695313 -0.103848,-0.09377 -0.212616,-0.183531 -0.326172,-0.267578 0.04012,-0.107169 0.06035,-0.233543 0.06055,-0.371094 8.3e-5,-0.272141 -0.07922,-0.573323 -0.222656,-0.83789 -0.144013,-0.265624 -0.341107,-0.472295 -0.546875,-0.576172 v -0.002 c -0.10347,-0.05235 -0.204578,-0.07466 -0.298828,-0.07031 z M 52.01702,43.724609 c -0.199818,0.04875 -0.39064,0.200409 -0.53125,0.421875 -0.140346,0.221048 -0.21883,0.493509 -0.21875,0.757813 2.74e-4,0.140655 0.02292,0.274572 0.06641,0.392578 -0.08338,0.04441 -0.164555,0.09333 -0.242188,0.144531 -0.593747,0.388645 -0.957219,0.932251 -0.957031,1.429688 l 1.925781,-0.435547 1.978516,-0.447266 c 1.98e-4,-0.510668 -0.381723,-0.895223 -0.996094,-1.005859 -0.104829,-0.01824 -0.214522,-0.02762 -0.328125,-0.0293 0.04008,-0.133613 0.06035,-0.271177 0.06055,-0.40625 8.2e-5,-0.267022 -0.08002,-0.504104 -0.222656,-0.658203 -0.14236,-0.153807 -0.334805,-0.213165 -0.535157,-0.164063 z m -8.777343,2.146485 c -0.177075,0.0432 -0.346061,0.183997 -0.470703,0.390625 -0.124423,0.206262 -0.195384,0.462062 -0.195313,0.710937 2.43e-4,0.132446 0.02199,0.257463 0.06055,0.369141 -0.07393,0.04074 -0.146004,0.0856 -0.214844,0.132812 -0.526634,0.358416 -0.849776,0.867334 -0.849609,1.335938 l 1.708984,-0.386719 1.75,-0.396484 c 1.75e-4,-0.480329 -0.337022,-0.846904 -0.880859,-0.958985 -0.09282,-0.01853 -0.19041,-0.0282 -0.291016,-0.03125 0.03549,-0.125215 0.05451,-0.255703 0.05469,-0.382812 7.3e-5,-0.251283 -0.07094,-0.47611 -0.197266,-0.623047 -0.126103,-0.146675 -0.297087,-0.203669 -0.474609,-0.160156 z m 38.193359,0.65039 c -0.07369,0.0087 -0.141453,0.04209 -0.199219,0.09961 -0.115945,0.115447 -0.181706,0.318726 -0.18164,0.564453 2.27e-4,0.130912 0.02056,0.269605 0.05664,0.40625 -0.06922,-0.01052 -0.136317,-0.01692 -0.201172,-0.01758 -0.502626,-0.0079 -0.81657,0.278997 -0.816406,0.751953 l 1.611328,0.751953 1.535157,0.714844 c 1.47e-4,-0.450186 -0.286434,-1.002691 -0.757813,-1.457031 -0.08152,-0.07801 -0.168728,-0.15184 -0.257813,-0.220704 0.03147,-0.09689 0.04868,-0.21019 0.04883,-0.332031 6.4e-5,-0.241046 -0.0633,-0.503462 -0.175782,-0.730469 -0.112874,-0.227811 -0.266649,-0.401112 -0.427734,-0.482422 -0.08095,-0.04096 -0.160683,-0.05753 -0.234375,-0.04883 z m -45.998047,1.257813 c -0.158006,0.03854 -0.308674,0.169654 -0.419922,0.363281 -0.111061,0.193304 -0.173891,0.432823 -0.173828,0.667969 2.16e-4,0.125143 0.01831,0.245573 0.05273,0.351562 -0.06599,0.03759 -0.129946,0.07928 -0.191407,0.123047 -0.47029,0.332303 -0.757961,0.807069 -0.757812,1.25 l 1.52539,-0.34375 1.560547,-0.353515 c 1.56e-4,-0.453392 -0.300369,-0.803493 -0.785156,-0.916016 -0.08276,-0.01864 -0.170048,-0.02907 -0.259766,-0.0332 0.03165,-0.117809 0.04867,-0.241296 0.04883,-0.361328 6.5e-5,-0.237295 -0.06312,-0.449473 -0.175781,-0.589844 -0.112478,-0.140134 -0.265446,-0.19703 -0.423828,-0.158203 z m -6.984375,1.708984 c -0.141859,0.0346 -0.279005,0.155745 -0.378906,0.337891 -0.09974,0.181856 -0.154354,0.409958 -0.154297,0.632812 1.94e-4,0.118603 0.01595,0.231184 0.04687,0.332032 -0.05927,0.03485 -0.116668,0.07252 -0.171875,0.113281 -0.422527,0.309546 -0.681775,0.757808 -0.681641,1.177734 l 1.369141,-0.308593 1.400391,-0.31836 c 1.4e-4,-0.429316 -0.268267,-0.762754 -0.703125,-0.875 -0.07425,-0.01863 -0.151915,-0.0302 -0.232422,-0.03516 0.02841,-0.111226 0.04283,-0.228095 0.04297,-0.341797 5.6e-5,-0.224783 -0.05709,-0.426211 -0.158204,-0.560547 -0.100948,-0.134123 -0.236727,-0.189156 -0.378906,-0.154297 z m 59.220703,0.179688 c -0.06011,0.0111 -0.115008,0.04318 -0.162109,0.09766 -0.09451,0.109313 -0.146538,0.295773 -0.146484,0.517578 1.85e-4,0.11816 0.01552,0.241471 0.04492,0.363281 -0.0564,-0.0065 -0.111236,-0.0081 -0.164062,-0.0059 -0.409049,0.01427 -0.664196,0.286596 -0.664063,0.712891 l 1.3125,0.611328 1.25586,0.585937 c 1.21e-4,-0.407709 -0.235092,-0.897476 -0.621094,-1.289062 -0.0667,-0.06715 -0.138086,-0.13092 -0.210938,-0.189453 0.02574,-0.08894 0.04089,-0.190593 0.04102,-0.300782 5.2e-5,-0.217985 -0.05258,-0.451966 -0.144531,-0.652343 -0.09224,-0.201019 -0.218084,-0.351589 -0.349609,-0.417969 -0.06606,-0.03343 -0.131292,-0.04431 -0.191407,-0.0332 z m -65.509765,1.357422 c -0.128067,0.03123 -0.249637,0.146426 -0.339844,0.318359 -0.09007,0.171674 -0.140676,0.385873 -0.140625,0.597656 1.76e-4,0.112712 0.01311,0.220226 0.04102,0.316406 -0.05353,0.03247 -0.104435,0.06929 -0.154296,0.107422 -0.381688,0.289555 -0.615356,0.712137 -0.615235,1.111328 l 1.236328,-0.279296 1.263672,-0.28711 c 1.26e-4,-0.407668 -0.242502,-0.726434 -0.634765,-0.83789 -0.067,-0.01853 -0.136341,-0.03149 -0.208985,-0.03711 0.02563,-0.105338 0.03699,-0.216213 0.03711,-0.324218 5.2e-5,-0.213524 -0.04939,-0.404427 -0.140625,-0.533204 -0.0911,-0.128582 -0.215409,-0.183815 -0.34375,-0.152343 z m -5.691407,1.392578 c -0.116192,0.02833 -0.226736,0.134082 -0.308593,0.296875 -0.08174,0.162558 -0.127001,0.368552 -0.126954,0.570312 1.6e-4,0.107379 0.01372,0.210811 0.03906,0.302735 -0.04858,0.03036 -0.09732,0.06186 -0.142578,0.09766 -0.346495,0.271871 -0.558704,0.674278 -0.558594,1.054687 l 1.123047,-0.253906 1.146484,-0.259766 c 1.14e-4,-0.388098 -0.220539,-0.696341 -0.576172,-0.80664 -0.06075,-0.01836 -0.123573,-0.03098 -0.189453,-0.03711 0.02325,-0.100039 0.03505,-0.203787 0.03516,-0.30664 4.7e-5,-0.203338 -0.04615,-0.388078 -0.128907,-0.511719 -0.08263,-0.123463 -0.19607,-0.175038 -0.3125,-0.146484 z m -5.173828,1.263672 c -0.105896,0.02582 -0.206633,0.128637 -0.28125,0.283203 -0.07451,0.154353 -0.11723,0.348373 -0.117187,0.541015 1.45e-4,0.102529 0.01206,0.201037 0.03516,0.289063 -0.04429,0.0285 -0.08765,0.06002 -0.128906,0.09375 -0.315954,0.256128 -0.507913,0.636686 -0.507813,1 l 1.023438,-0.230469 1.042969,-0.236328 c 9.9e-5,-0.370322 -0.199528,-0.666506 -0.523438,-0.775391 -0.0553,-0.01814 -0.113808,-0.0306 -0.173828,-0.03711 0.0212,-0.09525 0.03115,-0.1948 0.03125,-0.292969 4e-5,-0.194081 -0.04175,-0.369395 -0.117188,-0.488281 -0.0753,-0.118723 -0.1771,-0.172509 -0.283203,-0.146484 z m -4.7246093,1.15625 c -0.0969,0.02362 -0.191466,0.120456 -0.259766,0.267578 -0.0682,0.146928 -0.105508,0.333266 -0.105468,0.517578 1.3e-4,0.0981 0.012,0.190946 0.0332,0.275391 -0.0405,0.02683 -0.08133,0.05602 -0.119141,0.08789 -0.28928,0.242029 -0.466887,0.605436 -0.466797,0.953125 l 0.9375,-0.212891 0.955078,-0.214843 c 9e-5,-0.354103 -0.182275,-0.638803 -0.478515,-0.746094 -0.0506,-0.01789 -0.105257,-0.03028 -0.160157,-0.03711 0.0194,-0.09089 0.0292,-0.187356 0.0293,-0.28125 4e-5,-0.18563 -0.03841,-0.354278 -0.107422,-0.46875 -0.0689,-0.114322 -0.160722,-0.164443 -0.257812,-0.140624 z m -4.3339845,1.060547 c -0.089021,0.0217 -0.1735839,0.111598 -0.2363281,0.251953 -0.062665,0.140179 -0.097692,0.319419 -0.097656,0.496093 1.222e-4,0.09403 0.00987,0.184483 0.029297,0.265625 -0.03725,0.02534 -0.072714,0.05183 -0.1074219,0.08203 -0.265847,0.229339 -0.4297719,0.576803 -0.4296875,0.910156 L 2.2572549,57.708982 3.134208,57.509764 c 8.73e-5,-0.339244 -0.1674797,-0.613172 -0.4394531,-0.71875 -0.04648,-0.01762 -0.096065,-0.03005 -0.1464844,-0.03711 0.017791,-0.08692 0.027258,-0.177603 0.027344,-0.267578 3.62e-5,-0.177885 -0.036264,-0.340806 -0.099609,-0.451172 C 2.4127415,55.924927 2.326904,55.876555 2.2377242,55.898436 Z m 60.1093748,2.52539 c -0.228336,0.03113 -0.446795,0.17261 -0.607421,0.394531 -0.160302,0.221475 -0.250091,0.504649 -0.25,0.78711 3.12e-4,0.150342 0.0265,0.297026 0.07617,0.427734 -0.09522,0.03865 -0.188694,0.08046 -0.277343,0.126953 -0.677789,0.352397 -1.092011,0.8964 -1.091797,1.427735 l 2.199219,-0.261719 2.261718,-0.267578 c 2.27e-4,-0.54641 -0.435683,-0.998296 -1.138671,-1.181641 -0.119911,-0.03059 -0.245081,-0.05261 -0.375,-0.06641 0.04583,-0.138649 0.07009,-0.28526 0.07031,-0.429688 9.4e-5,-0.285547 -0.09277,-0.546775 -0.255859,-0.726562 C 62.79566,58.47487 62.576087,58.39237 62.347095,58.423824 Z m 10.650391,0.597656 c -0.09425,0.02602 -0.181933,0.07852 -0.255859,0.15625 -0.148453,0.156139 -0.232507,0.399633 -0.232422,0.677735 2.91e-4,0.148119 0.0241,0.300629 0.07031,0.447265 -0.08866,0.0035 -0.174694,0.01173 -0.257812,0.02539 -0.644909,0.10289 -1.047085,0.498845 -1.046875,1.035156 l 2.066406,0.488281 1.955078,0.462891 c 1.88e-4,-0.507307 -0.365067,-1.067196 -0.964843,-1.474609 -0.103848,-0.06989 -0.212616,-0.135422 -0.326172,-0.19336 0.04012,-0.116394 0.06035,-0.247169 0.06055,-0.384765 8.3e-5,-0.272159 -0.07922,-0.55357 -0.222656,-0.785157 -0.144013,-0.232511 -0.341107,-0.396558 -0.546875,-0.453124 -0.10347,-0.02855 -0.204578,-0.02797 -0.298828,-0.002 z M 52.01702,59.837891 c -0.199818,0.02724 -0.39064,0.15891 -0.53125,0.365234 -0.140346,0.205935 -0.21883,0.470062 -0.21875,0.734375 2.74e-4,0.140684 0.02292,0.275749 0.06641,0.398438 -0.08338,0.03543 -0.164555,0.07436 -0.242188,0.117187 -0.593747,0.324708 -0.957219,0.830668 -0.957031,1.328125 l 1.925781,-0.228516 1.978516,-0.234375 c 1.98e-4,-0.510647 -0.381723,-0.934533 -0.996094,-1.111328 -0.104829,-0.02953 -0.214522,-0.05251 -0.328125,-0.06641 0.04008,-0.129297 0.06035,-0.265339 0.06055,-0.400391 8.2e-5,-0.267013 -0.08002,-0.512181 -0.222656,-0.68164 -0.14236,-0.169137 -0.334805,-0.24823 -0.535157,-0.220703 z m -8.777343,1.201171 c -0.177075,0.02413 -0.346061,0.146638 -0.470703,0.339844 -0.124423,0.192864 -0.195384,0.440571 -0.195313,0.689453 2.43e-4,0.132472 0.02199,0.261123 0.06055,0.376953 -0.07393,0.03278 -0.146004,0.06957 -0.214844,0.109376 -0.526634,0.301704 -0.849776,0.773565 -0.849609,1.242187 l 1.708984,-0.201172 1.75,-0.208984 c 1.75e-4,-0.48031 -0.337022,-0.88209 -0.880859,-1.052735 -0.09282,-0.02853 -0.19041,-0.04861 -0.291016,-0.0625 0.03549,-0.121393 0.05451,-0.249862 0.05469,-0.376953 6.8e-5,-0.251274 -0.07095,-0.48399 -0.197271,-0.644531 -0.126103,-0.160254 -0.297087,-0.235334 -0.474609,-0.210938 z m 38.427734,0.291016 c -0.161897,-0.04469 -0.318063,0.0088 -0.433594,0.150391 -0.115945,0.142105 -0.181706,0.361711 -0.18164,0.607422 2.27e-4,0.13086 0.02056,0.264228 0.05664,0.392578 -0.06922,0.0054 -0.136317,0.01505 -0.201172,0.0293 -0.502626,0.107662 -0.81657,0.466535 -0.816406,0.939453 l 1.611328,0.380859 1.535157,0.363281 c 1.47e-4,-0.450221 -0.286434,-0.937243 -0.757813,-1.283203 -0.08152,-0.05926 -0.168728,-0.113728 -0.257813,-0.162109 0.03147,-0.104128 0.04868,-0.221873 0.04883,-0.34375 6.4e-5,-0.241061 -0.0633,-0.488307 -0.175782,-0.689453 -0.112874,-0.201859 -0.266649,-0.340494 -0.427734,-0.384766 z m -46.232422,0.777344 c -0.158006,0.02153 -0.308674,0.134758 -0.419922,0.316406 -0.111061,0.181344 -0.173891,0.415238 -0.173828,0.650391 2.16e-4,0.125167 0.01831,0.247726 0.05273,0.357422 -0.06599,0.03048 -0.129946,0.06441 -0.191407,0.101562 -0.47029,0.28166 -0.757961,0.726975 -0.757812,1.169922 l 1.52539,-0.181641 1.560547,-0.185546 c 1.56e-4,-0.453376 -0.300369,-0.835273 -0.785156,-1 -0.08276,-0.02756 -0.170048,-0.04676 -0.259766,-0.06055 0.03165,-0.1144 0.04867,-0.235453 0.04883,-0.355469 6.5e-5,-0.237288 -0.06312,-0.456872 -0.175781,-0.609375 -0.112478,-0.152247 -0.265446,-0.224896 -0.423828,-0.203125 z m 52.427735,0.929687 c -0.132125,-0.03648 -0.259314,0.01586 -0.353516,0.146485 -0.09451,0.131042 -0.146538,0.328989 -0.146484,0.550781 1.85e-4,0.118118 0.01552,0.238465 0.04492,0.353516 -0.0564,0.0064 -0.111236,0.01694 -0.164062,0.03125 -0.409049,0.10832 -0.664196,0.438969 -0.664063,0.865234 l 1.3125,0.310547 1.25586,0.296875 c 1.21e-4,-0.407737 -0.235092,-0.84365 -0.621094,-1.146485 -0.0667,-0.05181 -0.138086,-0.09884 -0.210938,-0.140624 0.02574,-0.09486 0.04089,-0.200329 0.04102,-0.310547 5.2e-5,-0.217997 -0.05258,-0.439905 -0.144531,-0.619141 -0.09224,-0.17981 -0.218084,-0.301752 -0.349609,-0.337891 z m -59.41211,0.02539 c -0.141859,0.01932 -0.279005,0.12744 -0.378906,0.298828 -0.09974,0.171116 -0.154354,0.392375 -0.154297,0.615234 1.94e-4,0.118625 0.01595,0.233713 0.04687,0.337891 -0.05927,0.02847 -0.116668,0.05893 -0.171875,0.09375 -0.422527,0.264046 -0.681775,0.685529 -0.681641,1.105469 l 1.369141,-0.16211 1.400391,-0.166015 c 1.4e-4,-0.429301 -0.268267,-0.794051 -0.703125,-0.953125 -0.07425,-0.02663 -0.151915,-0.04691 -0.232422,-0.06055 0.02841,-0.108167 0.04283,-0.22225 0.04297,-0.335937 5.6e-5,-0.224776 -0.05709,-0.4329 -0.158204,-0.578126 -0.100944,-0.144988 -0.236723,-0.214857 -0.378902,-0.195309 z m -6.289062,0.861328 c -0.128067,0.01744 -0.249637,0.117077 -0.339844,0.279297 -0.09007,0.161974 -0.140676,0.372196 -0.140625,0.583984 1.76e-4,0.112732 0.01311,0.223079 0.04102,0.322266 -0.05353,0.0267 -0.104435,0.05708 -0.154296,0.08984 -0.381688,0.248453 -0.615356,0.645717 -0.615235,1.044922 l 1.236328,-0.146485 1.263672,-0.15039 c 1.26e-4,-0.407655 -0.242502,-0.754507 -0.634765,-0.908204 -0.067,-0.02574 -0.136341,-0.04515 -0.208985,-0.05859 0.02563,-0.102578 0.03699,-0.210368 0.03711,-0.31836 5.2e-5,-0.213518 -0.04939,-0.412179 -0.140625,-0.550781 -0.0911,-0.138392 -0.215409,-0.205151 -0.34375,-0.1875 z m -5.691407,0.777344 c -0.116192,0.01582 -0.226736,0.111647 -0.308593,0.265625 -0.08174,0.153757 -0.127001,0.354877 -0.126954,0.556641 1.6e-4,0.107397 0.01372,0.211988 0.03906,0.30664 -0.04858,0.02513 -0.09732,0.05305 -0.142578,0.08398 -0.346495,0.234559 -0.558704,0.611768 -0.558594,0.992188 l 1.123047,-0.132812 1.146484,-0.136719 c 1.14e-4,-0.388087 -0.220539,-0.718592 -0.576172,-0.867188 -0.06075,-0.0249 -0.123573,-0.04342 -0.189453,-0.05664 0.02325,-0.09754 0.03505,-0.201847 0.03516,-0.304688 4.7e-5,-0.203334 -0.04615,-0.390884 -0.128907,-0.523437 -0.08263,-0.132361 -0.19607,-0.197658 -0.3125,-0.181641 z m -5.173828,0.708984 c -0.105896,0.01441 -0.206633,0.105423 -0.28125,0.251953 -0.07451,0.146329 -0.11723,0.336651 -0.117187,0.529297 1.45e-4,0.102544 0.01206,0.202455 0.03516,0.292969 -0.04429,0.02373 -0.08765,0.0508 -0.128906,0.08008 -0.315954,0.222103 -0.507913,0.581989 -0.507813,0.945313 l 1.023438,-0.123047 1.042969,-0.123047 c 9.9e-5,-0.370311 -0.199528,-0.688267 -0.523438,-0.832031 -0.0553,-0.0241 -0.113808,-0.0417 -0.173828,-0.05469 0.0212,-0.09297 0.03115,-0.190904 0.03125,-0.289062 4e-5,-0.194077 -0.04175,-0.374949 -0.117188,-0.501953 -0.0753,-0.12683 -0.1771,-0.190381 -0.283203,-0.175782 z M 6.5717077,66.05664 c -0.0969,0.01319 -0.191466,0.100471 -0.259766,0.240234 -0.0682,0.139584 -0.105508,0.319589 -0.105468,0.503906 1.3e-4,0.09811 0.012,0.194529 0.0332,0.28125 -0.0405,0.02247 -0.08133,0.04836 -0.119141,0.07617 -0.28928,0.210878 -0.466887,0.554645 -0.466797,0.902344 l 0.9375,-0.111328 0.955078,-0.113281 c 9e-5,-0.354092 -0.182275,-0.659638 -0.478515,-0.798829 -0.0506,-0.02334 -0.105257,-0.03999 -0.160157,-0.05273 0.0194,-0.08881 0.0292,-0.183461 0.0293,-0.277344 4e-5,-0.185626 -0.03841,-0.358568 -0.107422,-0.480469 -0.0689,-0.121739 -0.160722,-0.183284 -0.257812,-0.169921 z m -4.3339845,0.59375 c -0.089021,0.01211 -0.1735839,0.09296 -0.2363281,0.226562 -0.062665,0.133431 -0.097692,0.307697 -0.097656,0.484375 1.222e-4,0.09404 0.00987,0.186298 0.029297,0.269531 -0.03725,0.02133 -0.072714,0.04581 -0.1074219,0.07227 -0.265847,0.200712 -0.4297719,0.527966 -0.4296875,0.861328 L 2.2572549,68.462894 3.134208,68.359378 c 8.73e-5,-0.339235 -0.1674797,-0.632713 -0.4394531,-0.767578 -0.04648,-0.02263 -0.096065,-0.04026 -0.1464844,-0.05273 0.017791,-0.085 0.027258,-0.175658 0.027344,-0.265624 3.62e-5,-0.177881 -0.036264,-0.343751 -0.099609,-0.460938 C 2.4127415,66.695469 2.326904,66.638122 2.2377242,66.650399 Z" style="opacity:1;vector-effect:none;fill:#c8b7b7;fill-opacity:1;stroke:#916f6f;stroke-width:1;stroke-linecap:round;stroke-linejoin:round;stroke-miterlimit:4;stroke-dasharray:none;stroke-dashoffset:0;stroke-opacity:1;paint-order:markers fill stroke" />
        <path class="identikit-option identikit-option-1" id="option-2" d="m 64.628348,40.794922 -2.179687,0.53125 -0.05273,0.01172 -2.171875,0.529297 c 9.29e-4,0.473207 0.09985,0.914044 0.289062,1.279296 -0.189462,0.4548 -0.288389,0.943761 -0.289062,1.417969 l 2.171875,-0.492187 0.05273,-0.01172 2.179687,-0.494141 c -7.1e-4,-0.487123 -0.105501,-0.940098 -0.304687,-1.314453 0.198925,-0.467376 0.303706,-0.97015 0.304687,-1.457031 z m 6.671876,0.6875 c 9.08e-4,0.477997 0.09945,0.994473 0.283203,1.496094 -0.183995,0.323766 -0.282546,0.746746 -0.283203,1.224609 l 2.041015,0.951172 0.04687,0.02148 1.882813,0.88086 c -5.9e-4,-0.452991 -0.08734,-0.939267 -0.253907,-1.41211 0.166355,-0.31082 0.253092,-0.71235 0.253907,-1.164062 l -1.882813,-0.949219 -0.04687,-0.02344 z m -17.289063,1.898437 -1.904297,0.464844 h -0.002 l -0.04492,0.0098 -1.902344,0.464843 c 8.15e-4,0.443042 0.08808,0.856568 0.253907,1.201172 -0.16604,0.423113 -0.253317,0.880263 -0.253907,1.324219 l 1.902344,-0.431641 0.04492,-0.0098 h 0.002 l 1.904297,-0.431641 c -2.11e-4,-0.455188 -0.09014,-0.881361 -0.263672,-1.234375 0.173302,-0.434018 0.263224,-0.902677 0.263672,-1.357421 z m -9.003906,2.19336 -1.689453,0.412109 -0.03906,0.0098 -1.6875,0.410156 c 7.23e-4,0.417367 0.07748,0.809972 0.224609,1.136719 -0.147326,0.396436 -0.224086,0.823976 -0.224609,1.242187 l 1.6875,-0.382812 0.03906,-0.0078 1.689453,-0.382812 c -5.5e-4,-0.428223 -0.08237,-0.82999 -0.236328,-1.164063 0.153763,-0.405917 0.235569,-0.845468 0.236328,-1.273437 z m 35.103515,0.341797 c 7.07e-4,0.421474 0.07772,0.871523 0.220704,1.304687 -0.143171,0.294827 -0.220192,0.672315 -0.220704,1.09375 l 1.591797,0.744141 0.03711,0.01758 1.478515,0.689453 c -1.58e-4,-0.401683 -0.06847,-0.828801 -0.199218,-1.240234 0.130579,-0.284201 0.198883,-0.644008 0.199218,-1.044922 L 81.739677,46.73633 81.702567,46.7168 Z m -43.099609,1.605468 -1.505859,0.367188 -0.03711,0.0098 -1.505859,0.365234 c 4.67e-4,0.395069 0.07152,0.767087 0.203125,1.078125 -0.131436,0.372413 -0.20248,0.777065 -0.203125,1.171875 l 1.505859,-0.341797 0.03711,-0.0078 1.505859,-0.341796 c -4.89e-4,-0.404222 -0.07374,-0.784297 -0.210937,-1.101563 0.137022,-0.381262 0.210261,-0.795254 0.210937,-1.199219 z m 49.583984,1.658204 c 5.75e-4,0.379879 0.06347,0.783624 0.179688,1.167968 -0.116377,0.271939 -0.179272,0.614245 -0.179688,0.994141 l 1.296875,0.605469 0.0293,0.01367 v 0.002 l 1.210938,0.564453 c -1.29e-4,-0.363759 -0.05688,-0.748115 -0.164063,-1.115235 0.107048,-0.262778 0.163789,-0.591994 0.164063,-0.955078 l -1.210938,-0.609375 -0.0293,-0.01563 z m -56.732421,0.08398 -1.34961,0.328125 -0.0332,0.0078 -1.353516,0.330079 c 5.81e-4,0.374017 0.06352,0.727433 0.181641,1.023437 -0.118275,0.351995 -0.18122,0.732676 -0.181641,1.107422 l 1.353516,-0.306641 0.0332,-0.0059 1.34961,-0.306641 c -1.5e-4,-0.382697 -0.0648,-0.74265 -0.1875,-1.044922 0.12254,-0.35948 0.187183,-0.750509 0.1875,-1.132812 z m -6.425782,1.564453 -1.21875,0.296875 -0.0293,0.0078 -1.220703,0.296876 c 5.24e-4,0.355553 0.05538,0.691925 0.16211,0.974609 -0.106871,0.333297 -0.161731,0.696498 -0.16211,1.052734 l 1.220703,-0.277343 0.0293,-0.0059 1.21875,-0.277344 c -3.96e-4,-0.363475 -0.05897,-0.705929 -0.169922,-0.99414 0.110807,-0.339922 0.169375,-0.711001 0.169922,-1.074219 z m -5.810547,1.416016 -1.103515,0.269531 -0.02734,0.0059 -1.109375,0.269531 c 4.76e-4,0.338828 0.05348,0.659186 0.150391,0.929688 -0.09704,0.316477 -0.150046,0.662485 -0.150391,1.001953 l 1.109375,-0.251953 0.02734,-0.0059 1.103515,-0.25 c -3.58e-4,-0.346035 -0.05178,-0.673643 -0.152343,-0.949219 0.100435,-0.322427 0.151848,-0.673751 0.152343,-1.019531 z m -5.277343,1.285156 -1.00586,0.246094 -0.02344,0.0059 -1.011719,0.246094 c 4.34e-4,0.323602 0.04638,0.629356 0.134766,0.888672 -0.08851,0.301266 -0.134451,0.630873 -0.134766,0.955078 l 1.011719,-0.228516 0.02344,-0.0059 1.00586,-0.228516 c -1.11e-4,-0.330122 -0.04734,-0.642075 -0.138672,-0.90625 0.09121,-0.306704 0.138437,-0.642886 0.138672,-0.972656 z m -4.8144543,1.173828 -0.919921,0.222656 -0.02344,0.0059 -0.925781,0.226562 c 3.98e-4,0.309688 0.04406,0.602549 0.125,0.851563 -0.08105,0.287445 -0.124711,0.601851 -0.125,0.912109 l 0.925781,-0.208984 0.02344,-0.0059 L 7.5345977,56.5 c -2.99e-4,-0.315734 -0.04517,-0.615804 -0.128906,-0.869141 0.08363,-0.292316 0.128495,-0.612248 0.128906,-0.927734 z m -4.4121089,1.074219 -0.84375,0.205078 -0.021484,0.0059 -0.8496094,0.207031 c 3.657e-4,0.296921 0.03888,0.578865 0.1132812,0.81836 -0.074499,0.274833 -0.1130163,0.575586 -0.1132812,0.873047 l 0.8496094,-0.19336 0.021484,-0.0039 0.84375,-0.191406 c -2.741e-4,-0.302534 -0.040325,-0.590524 -0.1171875,-0.834028 0.076762,-0.279268 0.1168091,-0.584471 0.1171875,-0.886718 z m 61.5058592,2.492187 -2.179687,0.296875 -0.05273,0.0059 -2.171875,0.296875 c 9.29e-4,0.473307 0.09985,0.924913 0.289062,1.310547 -0.189462,0.434392 -0.288389,0.912582 -0.289062,1.386718 l 2.171875,-0.259765 0.05273,-0.0059 2.179687,-0.257812 c -7.1e-4,-0.487199 -0.105501,-0.953801 -0.304687,-1.34961 0.198925,-0.44595 0.303706,-0.937052 0.304687,-1.423828 z m 6.671876,0.361328 c 9.08e-4,0.477788 0.09945,0.970327 0.283203,1.429688 -0.183995,0.366081 -0.282546,0.813002 -0.283203,1.291015 l 2.041015,0.482422 0.04687,0.01172 1.882813,0.445313 c -5.9e-4,-0.452855 -0.08734,-0.918981 -0.253907,-1.353516 0.166355,-0.349079 0.253092,-0.770757 0.253907,-1.222656 l -1.882813,-0.513672 -0.04687,-0.01367 z m -17.289063,1.082032 -1.904297,0.257812 h -0.002 l -0.04492,0.0059 -1.902344,0.259766 c 8.15e-4,0.443128 0.08808,0.866051 0.253907,1.228516 -0.16604,0.405228 -0.253317,0.852983 -0.253907,1.296875 l 1.902344,-0.226563 0.04492,-0.0059 h 0.002 l 1.904297,-0.226563 c -2.11e-4,-0.455211 -0.09014,-0.890013 -0.263672,-1.261718 0.173302,-0.415352 0.263224,-0.873428 0.263672,-1.328125 z m -9.003906,1.222656 -1.689453,0.230469 -0.03906,0.0039 -1.6875,0.230469 c 7.23e-4,0.417445 0.07748,0.817561 0.224609,1.160156 -0.147326,0.380567 -0.224086,0.800595 -0.224609,1.21875 l 1.6875,-0.201172 0.03906,-0.0039 1.689453,-0.201172 c -5.5e-4,-0.428283 -0.08237,-0.838796 -0.236328,-1.189453 0.153763,-0.389355 0.235569,-0.820161 0.236328,-1.248047 z m 35.103515,0.103515 c 7.07e-4,0.421312 0.07772,0.853627 0.220704,1.253907 -0.143171,0.327754 -0.220192,0.722978 -0.220704,1.144531 l 1.591797,0.376953 0.03711,0.0078 v 0.002 l 1.478515,0.349609 c -1.58e-4,-0.401646 -0.06847,-0.813949 -0.199218,-1.195312 0.130579,-0.314232 0.198883,-0.688853 0.199218,-1.089844 l -1.478515,-0.404297 v -0.002 l -0.03711,-0.0098 z m -43.099609,0.982422 -1.505859,0.205078 -0.03711,0.0059 -1.505859,0.203125 c 4.67e-4,0.39512 0.07152,0.774395 0.203125,1.099609 -0.131436,0.358256 -0.20248,0.755651 -0.203125,1.150391 l 1.505859,-0.179688 0.03711,-0.0039 1.505859,-0.179687 c -4.89e-4,-0.404275 -0.07374,-0.791003 -0.210937,-1.123047 0.137022,-0.366503 0.210261,-0.773843 0.210937,-1.177735 z m 49.583984,0.789063 c 5.75e-4,0.379747 0.06347,0.769339 0.179688,1.126953 -0.116377,0.298704 -0.179272,0.657117 -0.179688,1.037109 l 1.296875,0.306641 0.0293,0.0059 1.210938,0.28711 c -1.29e-4,-0.36373 -0.05688,-0.735656 -0.164063,-1.078125 0.107048,-0.287397 0.163789,-0.629042 0.164063,-0.992188 l -1.210938,-0.330078 -0.0293,-0.0078 z m -56.732421,0.183594 -1.34961,0.183593 -0.0332,0.0039 -1.353516,0.183593 c 5.81e-4,0.374079 0.06352,0.734242 0.181641,1.042969 -0.118275,0.339256 -0.18122,0.71319 -0.181641,1.087891 l 1.353516,-0.160156 0.0332,-0.0039 1.34961,-0.160156 c -1.5e-4,-0.382713 -0.0648,-0.750918 -0.1875,-1.066406 0.12254,-0.346281 0.187183,-0.729059 0.1875,-1.111328 z m -6.425782,0.873047 -1.21875,0.166015 -0.0293,0.0039 -1.220703,0.166016 c 5.24e-4,0.35561 0.05538,0.696053 0.16211,0.990234 -0.106871,0.321786 -0.161731,0.678963 -0.16211,1.035157 l 1.220703,-0.144532 0.0293,-0.0039 1.21875,-0.144531 c -3.96e-4,-0.363517 -0.05897,-0.713509 -0.169922,-1.013672 0.110807,-0.327987 0.169375,-0.691529 0.169922,-1.054687 z m -5.810547,0.789062 -1.103515,0.150391 -0.02734,0.0039 -1.109375,0.150391 c 4.76e-4,0.338879 0.05348,0.664372 0.150391,0.945312 -0.09704,0.306025 -0.150046,0.646898 -0.150391,0.986328 l 1.109375,-0.132812 0.02734,-0.0039 1.103515,-0.130859 c -3.58e-4,-0.346073 -0.05178,-0.678435 -0.152343,-0.964844 0.100435,-0.311609 0.151848,-0.658179 0.152343,-1.003907 z m -5.277343,0.716797 -1.00586,0.136719 -0.02344,0.0039 -1.011719,0.136719 c 4.34e-4,0.323649 0.04638,0.635458 0.134766,0.904297 -0.08851,0.291731 -0.134451,0.615282 -0.134766,0.939453 l 1.011719,-0.119141 0.02344,-0.0039 1.00586,-0.119141 c -1.11e-4,-0.330134 -0.04734,-0.647863 -0.138672,-0.921875 0.09121,-0.29688 0.138437,-0.627287 0.138672,-0.957031 z m -4.8144543,0.654297 -0.919921,0.125 -0.02344,0.0039 -0.925781,0.125 c 3.98e-4,0.30973 0.04406,0.609455 0.125,0.867188 -0.08105,0.278715 -0.124711,0.58821 -0.125,0.898437 l 0.925781,-0.111328 0.02344,-0.002 0.919921,-0.109375 c -2.99e-4,-0.315766 -0.04517,-0.620456 -0.128906,-0.882813 0.08363,-0.283308 0.128495,-0.59862 0.128906,-0.914062 z m -4.4121089,0.599609 -0.84375,0.115235 -0.021484,0.002 -0.8496094,0.115234 c 3.657e-4,0.29696 0.03888,0.584522 0.1132812,0.832031 -0.074499,0.266808 -0.1130163,0.563895 -0.1132812,0.861328 l 0.8496094,-0.101562 0.021484,-0.002 0.84375,-0.101563 c -2.741e-4,-0.302521 -0.040325,-0.59392 -0.1171875,-0.845703 0.076762,-0.271001 0.1168091,-0.572794 0.1171875,-0.875 z" style="opacity:1;vector-effect:none;fill:#c8b7b7;fill-opacity:1;stroke:#916f6f;stroke-width:1;stroke-linecap:round;stroke-linejoin:round;stroke-miterlimit:4;stroke-dasharray:none;stroke-dashoffset:0;stroke-opacity:1;paint-order:markers fill stroke" />
        <path class="identikit-option identikit-option-3" id="option-3" d="m 62.966239,41.291016 c -0.557977,-0.04847 -1.157831,0.190082 -1.664062,0.677734 -0.66929,0.644725 -1.078125,1.631758 -1.078125,2.595703 l 2.171875,-0.492187 2.232421,-0.50586 c 10e-7,-0.990851 -0.42919,-1.802225 -1.123046,-2.128906 -0.171983,-0.08097 -0.35307,-0.130329 -0.539063,-0.146484 z m 9.609375,1.033203 c -0.08172,0.0037 -0.16204,0.01667 -0.240234,0.03711 -0.636382,0.166354 -1.033203,0.869477 -1.033203,1.841797 l 2.039062,0.951172 1.929688,0.902344 c 10e-7,-0.920545 -0.358786,-1.949129 -0.951172,-2.707032 -0.527065,-0.674331 -1.172086,-1.051306 -1.744141,-1.025391 z m -20.017578,1.496093 c -0.488079,-0.05351 -1.011866,0.160483 -1.455078,0.609376 -0.586291,0.593805 -0.945313,1.513546 -0.945313,2.416015 l 1.902344,-0.431641 1.953125,-0.441406 c 0,-0.926011 -0.376026,-1.69228 -0.982422,-2.007812 -0.150388,-0.07825 -0.309963,-0.126694 -0.472656,-0.144532 z m -8.839844,2.148438 c -0.432375,-0.05691 -0.896133,0.135994 -1.289062,0.552734 -0.520016,0.551529 -0.837892,1.413523 -0.837891,2.263672 l 1.6875,-0.380859 1.728516,-0.392578 c 0,-0.871008 -0.334308,-1.597384 -0.871094,-1.902344 -0.133187,-0.07567 -0.273844,-0.121655 -0.417969,-0.140625 z m 37.580078,0.625 c -0.131574,-0.01335 -0.258723,7.32e-4 -0.380859,0.04492 -0.496007,0.179458 -0.806642,0.820299 -0.806641,1.677734 l 1.591797,0.742188 1.515625,0.707031 c 10e-7,-0.816917 -0.282501,-1.711152 -0.748047,-2.353516 -0.354363,-0.488954 -0.77715,-0.778304 -1.171875,-0.818359 z m -45.435546,1.285156 c -0.385692,-0.05924 -0.799649,0.117102 -1.150391,0.50586 -0.464375,0.514705 -0.75,1.325343 -0.75,2.128906 l 1.507812,-0.341797 1.541016,-0.349609 c 10e-7,-0.822174 -0.296884,-1.509972 -0.775391,-1.804688 -0.118777,-0.07316 -0.244483,-0.118924 -0.373046,-0.138672 z m -7.029297,1.707032 c -0.34618,-0.06078 -0.718201,0.102602 -1.033203,0.466796 -0.417209,0.482363 -0.671876,1.245996 -0.671876,2.007813 l 1.351563,-0.304688 1.382813,-0.314453 c 0,-0.778525 -0.266084,-1.433874 -0.695313,-1.71875 -0.106586,-0.07074 -0.218591,-0.116458 -0.333984,-0.136718 z m 58.728515,0.152343 c -0.107334,-0.0063 -0.210998,0.01332 -0.310547,0.05859 -0.403679,0.183581 -0.65625,0.773995 -0.65625,1.546875 l 1.296875,0.603516 1.240235,0.580078 c 0,-0.739804 -0.23207,-1.538173 -0.613281,-2.09961 -0.289761,-0.426751 -0.635029,-0.670547 -0.957032,-0.689453 z m -65.054687,1.384766 c -0.312443,-0.06173 -0.647182,0.08917 -0.931641,0.431641 -0.376879,0.453744 -0.607423,1.178149 -0.607422,1.902343 l 1.220703,-0.277343 1.248047,-0.283204 c 0,-0.739276 -0.239764,-1.365149 -0.626953,-1.640625 -0.09618,-0.06843 -0.198587,-0.112237 -0.302734,-0.132812 z m -5.722657,1.390625 c -0.283406,-0.06222 -0.587551,0.07725 -0.845703,0.40039 -0.342127,0.428255 -0.552734,1.116528 -0.552734,1.806641 l 1.109375,-0.251953 1.130859,-0.255859 c 0,-0.703795 -0.217323,-1.301833 -0.568359,-1.56836 -0.08723,-0.06623 -0.178969,-0.11012 -0.273438,-0.130859 z m -5.464843,1.265625 c -0.176228,0.04267 -0.350925,0.169168 -0.507813,0.373047 -0.311969,0.405411 -0.503906,1.059655 -0.503906,1.71875 l 1.011719,-0.228516 1.029297,-0.234375 c 0,-0.671564 -0.19786,-1.243925 -0.517578,-1.501953 -0.158932,-0.128265 -0.335491,-0.169626 -0.511719,-0.126953 z m -4.7265633,1.152344 c -0.161263,0.03905 -0.323191,0.158081 -0.466797,0.351562 -0.285631,0.384831 -0.460937,1.007926 -0.460937,1.638672 L 6.5912387,56.712891 7.5345977,56.5 c 0,-0.642155 -0.180241,-1.193395 -0.472656,-1.443359 -0.145394,-0.124288 -0.307486,-0.16405 -0.46875,-0.125 z m -4.3339841,1.054687 c -0.1481274,0.03587 -0.2957924,0.14796 -0.4277344,0.332031 -0.2624911,0.366198 -0.4238283,0.963626 -0.4238281,1.56836 l 0.8496094,-0.191407 0.8652343,-0.197265 c 2e-7,-0.615215 -0.1651303,-1.1444 -0.4335937,-1.386719 -0.133517,-0.120514 -0.2815602,-0.160868 -0.4296875,-0.125 z m 60.1406254,2.585938 c -0.380246,0.05112 -0.760169,0.224923 -1.097656,0.513672 -0.66929,0.572633 -1.078125,1.516523 -1.078125,2.480468 l 2.171875,-0.257812 2.232421,-0.265625 c 10e-7,-0.990851 -0.42919,-1.850533 -1.123046,-2.251953 -0.343965,-0.198996 -0.725224,-0.269867 -1.105469,-0.21875 z m 10.423828,0.564453 c -0.168277,0.01385 -0.331893,0.05792 -0.488281,0.134765 -0.636382,0.312716 -1.033203,1.107759 -1.033203,2.080078 l 2.039062,0.482422 1.929688,0.458985 c 10e-7,-0.920544 -0.358786,-1.866621 -0.951172,-2.488281 -0.45177,-0.474097 -0.991263,-0.709532 -1.496094,-0.667969 z m -20.761719,0.839843 c -0.332705,0.04473 -0.663509,0.205222 -0.958984,0.472657 -0.586291,0.530652 -0.945313,1.410031 -0.945313,2.3125 l 1.902344,-0.22461 1.953125,-0.232421 c 0,-0.926012 -0.376026,-1.732432 -0.982422,-2.113282 -0.300776,-0.188904 -0.636044,-0.259569 -0.96875,-0.214844 z m -8.78125,1.19336 c -0.294805,0.03963 -0.589609,0.187889 -0.851562,0.4375 -0.520016,0.495515 -0.837892,1.321726 -0.837891,2.171875 l 1.6875,-0.199219 1.728516,-0.205078 c 0,-0.871008 -0.334308,-1.633314 -0.871094,-1.996094 -0.266374,-0.180026 -0.560663,-0.248615 -0.855469,-0.208984 z m 38.017578,0.273437 c -0.131574,0.01691 -0.258723,0.06053 -0.380859,0.132813 -0.496007,0.293536 -0.806642,1.005846 -0.806641,1.863281 l 1.591797,0.375 1.515625,0.359375 c 10e-7,-0.816917 -0.282501,-1.644394 -0.748047,-2.179687 -0.354363,-0.407454 -0.77715,-0.601509 -1.171875,-0.550782 z m -45.828125,0.789063 c -0.263031,0.03536 -0.523984,0.172265 -0.757812,0.40625 -0.464375,0.464685 -0.75,1.243313 -0.75,2.046875 l 1.507812,-0.177735 1.541016,-0.183593 c 10e-7,-0.822174 -0.296884,-1.544366 -0.775391,-1.890625 -0.237555,-0.171901 -0.502594,-0.236532 -0.765625,-0.201172 z m 52.091797,0.914062 c -0.107334,0.01838 -0.210998,0.06269 -0.310547,0.13086 -0.403679,0.276424 -0.65625,0.924386 -0.65625,1.697265 l 1.296875,0.306641 1.240235,0.292969 c 0,-0.739805 -0.23207,-1.483269 -0.613281,-1.957031 -0.289761,-0.360109 -0.635029,-0.525855 -0.957032,-0.470704 z m -59.080078,0.03516 c -0.23613,0.03174 -0.471639,0.158729 -0.68164,0.378906 -0.417209,0.437423 -0.671876,1.175683 -0.671876,1.9375 l 1.351563,-0.160156 1.382813,-0.166016 c 0,-0.778524 -0.266084,-1.461858 -0.695313,-1.792969 C 28.95424,63.214468 28.717994,63.1499 28.481864,63.181644 Z m -6.291016,0.855468 c -0.213154,0.02866 -0.425595,0.14758 -0.615234,0.355469 -0.376879,0.413149 -0.607423,1.111743 -0.607422,1.835938 l 1.220703,-0.144532 1.248047,-0.148437 c 0,-0.739276 -0.239764,-1.389849 -0.626953,-1.707031 -0.192357,-0.157578 -0.405986,-0.220061 -0.619141,-0.191407 z m -5.693359,0.773438 c -0.193376,0.02599 -0.386493,0.13905 -0.558594,0.335937 -0.342127,0.391401 -0.552734,1.055981 -0.552734,1.746094 l 1.109375,-0.132812 1.130859,-0.132813 c 0,-0.703795 -0.217323,-1.326519 -0.568359,-1.630859 -0.17445,-0.151244 -0.367171,-0.211543 -0.560547,-0.185547 z m -5.177734,0.703125 c -0.176228,0.02369 -0.350925,0.129427 -0.507813,0.316406 -0.311969,0.371807 -0.503906,1.006921 -0.503906,1.666016 L 11.319755,67.375 12.349052,67.253906 c 0,-0.671564 -0.19786,-1.266127 -0.517578,-1.558594 -0.158932,-0.145384 -0.335491,-0.205331 -0.511719,-0.18164 z m -4.7265633,0.642578 c -0.161263,0.02168 -0.323191,0.122769 -0.466797,0.300781 -0.285631,0.354064 -0.460937,0.959099 -0.460937,1.589844 l 0.925781,-0.109375 0.943359,-0.113281 c 0,-0.642155 -0.180241,-1.210726 -0.472656,-1.492188 -0.145394,-0.139949 -0.307486,-0.19746 -0.46875,-0.175781 z M 2.2592076,66.744141 C 2.1110802,66.764053 1.9634152,66.861391 1.8314732,67.03125 1.5689821,67.369174 1.4076449,67.948 1.4076451,68.552734 L 2.2572545,68.451172 3.1224888,68.349609 C 3.122489,67.734394 2.9573585,67.187253 2.6888951,66.916016 2.5553781,66.78112 2.4073349,66.724228 2.2592076,66.744141 Z" style="opacity:1;vector-effect:none;fill:#c8b7b7;fill-opacity:1;stroke:#916f6f;stroke-width:1;stroke-linecap:round;stroke-linejoin:round;stroke-miterlimit:4;stroke-dasharray:none;stroke-dashoffset:0;stroke-opacity:1;paint-order:markers fill stroke" />
        <path d="M 0.52520091,76.052142 V 53.829894 L 57.241628,38.523423 l 20.821501,2.556254 13.123263,7.342125 v 26.436812 z" style="fill:#ffffff;stroke:none;stroke-width:1px;stroke-linecap:butt;stroke-linejoin:miter;opacity:0" />
        <use transform="translate(2.5168349e-6,50.308433)" height="100%" width="100%" id="use8609-3" href="#switch-button" y="0" x="0" />
    </g>
    <g id="switch-done">
        <circle r="5" cy="11.152854" cx="11.869292" id="circle8551-5" style="opacity:1;vector-effect:none;fill:#ffffff;fill-opacity:1;stroke:#000000;stroke-width:1;stroke-linecap:round;stroke-linejoin:round;stroke-miterlimit:4;stroke-dasharray:none;stroke-dashoffset:0;stroke-opacity:1;paint-order:markers fill stroke" />
        <path id="path8659" d="m 8.491597,10.047742 2.994201,0.954673 6.335558,-7.0298663 -5.901614,10.0674633 z" style="fill:#000000;stroke:none;stroke-width:0.68732953px;stroke-linecap:butt;stroke-linejoin:miter;stroke-opacity:1" />
    </g>

</svg>