<?xml version="1.0" encoding="UTF-8" standalone="no"?>
<svg xmlns="http://www.w3.org/2000/svg" viewBox="0 0 100 100" height="25" width="25">

    <g id="piazza-gambacorti">

        <g transform="translate(-17.321423,-64.285714)" style="display:inline" id="done">
            <circle r="5" cy="81.197296" cx="91.023964" id="circle8551-5-6-2" style="opacity:1;vector-effect:none;fill:#ffffff;fill-opacity:1;stroke:#000000;stroke-width:1;stroke-linecap:round;stroke-linejoin:round;stroke-miterlimit:4;stroke-dasharray:none;stroke-dashoffset:0;stroke-opacity:1;paint-order:markers fill stroke" />
            <path id="path8659-7-3" d="m 87.646268,80.092183 2.994201,0.954673 6.335558,-7.029866 -5.901614,10.067463 z" style="display:inline;fill:#000000;stroke:none;stroke-width:0.68732953px;stroke-linecap:butt;stroke-linejoin:miter;stroke-opacity:1" />
        </g>
        <g id="gambacorti-bg">
            <path style="opacity:1;vector-effect:none;fill:#ffcc00;fill-opacity:1;stroke:none;stroke-width:1;stroke-linecap:round;stroke-linejoin:round;stroke-miterlimit:4;stroke-dasharray:none;stroke-dashoffset:0;stroke-opacity:1;paint-order:markers fill stroke" d="m 125.71429,65.446426 c 0,20.168255 -33.058979,36.517854 -73.83929,36.517854 -40.78031,0 -73.839288,-16.3496 -73.839287,-36.517854 3e-6,-52.240599 32.301361,-72.6308097 73.081673,-72.6308097 40.780312,-8e-7 74.596904,29.4815837 74.596904,72.6308097 z" id="ellipse4659" />
            <ellipse ry="36.517857" rx="73.839287" cy="65.446426" cx="51.875" id="path2110" style="opacity:1;vector-effect:none;fill:#d45500;fill-opacity:1;stroke:none;stroke-width:1;stroke-linecap:round;stroke-linejoin:round;stroke-miterlimit:4;stroke-dasharray:none;stroke-dashoffset:0;stroke-opacity:1;paint-order:markers fill stroke" />
        </g>

        <g id="piruli">
            <g id="switch-button-2" style="display:inline" transform="translate(-11.101912,75.097166)">
                <circle r="5" cy="11.152834" cx="94.137627" id="circle8551-7" style="opacity:1;vector-effect:none;fill:#ffffff;fill-opacity:1;stroke:#000000;stroke-width:1;stroke-linecap:round;stroke-linejoin:round;stroke-miterlimit:4;stroke-dasharray:none;stroke-dashoffset:0;stroke-opacity:1;paint-order:markers fill stroke" />
                <path style="fill:#000000;stroke-width:0.01428598" d="m 93.680476,14.091438 c -0.667172,-0.103041 -1.206761,-0.366448 -1.669389,-0.814931 -0.294109,-0.285117 -0.555221,-0.670372 -0.687829,-1.014854 -0.01815,-0.04714 -0.03782,-0.09122 -0.04371,-0.09794 -0.0088,-0.01001 -0.275729,0.08634 -0.731773,0.264128 -0.0639,0.02491 -0.06753,0.02502 -0.05577,0.0017 0.0069,-0.01374 0.188392,-0.41913 0.403265,-0.900859 0.353983,-0.793605 0.393436,-0.875155 0.420058,-0.868236 0.01616,0.0042 0.424415,0.184261 0.907234,0.400137 0.826765,0.36966 0.875403,0.393412 0.83573,0.408135 -0.02317,0.0086 -0.214031,0.08119 -0.424142,0.161318 -0.345946,0.131927 -0.381218,0.148393 -0.373533,0.174381 0.02233,0.07552 0.142753,0.309935 0.214964,0.418462 0.04435,0.06665 0.140546,0.183604 0.213773,0.259896 0.403903,0.420809 0.967998,0.6349 1.540858,0.584804 0.459801,-0.04021 0.844438,-0.21488 1.176904,-0.534452 0.177425,-0.170546 0.286247,-0.319377 0.391706,-0.535724 0.04788,-0.09822 0.08873,-0.180931 0.09079,-0.183811 0.0032,-0.0045 0.963449,0.337883 0.972829,0.346837 0.0066,0.0063 -0.09821,0.243476 -0.163031,0.368971 -0.234365,0.453774 -0.63017,0.875414 -1.078721,1.149131 -0.318375,0.19428 -0.663338,0.324577 -1.054496,0.398295 -0.165681,0.03122 -0.719145,0.04038 -0.88573,0.01465 z m 2.396473,-2.832129 c -0.485187,-0.216979 -0.882027,-0.398436 -0.881868,-0.403238 1.08e-4,-0.0048 0.186555,-0.07932 0.414211,-0.165597 0.376432,-0.14266 0.413147,-0.159481 0.405385,-0.185718 -0.02239,-0.07568 -0.142742,-0.309998 -0.215013,-0.418615 C 95.755316,10.01949 95.659118,9.9025368 95.585892,9.8262452 95.182145,9.4055981 94.618115,9.191456 94.045367,9.2413628 93.585829,9.281405 93.200594,9.4563223 92.868131,9.7758927 92.690704,9.9464383 92.581882,10.09527 92.476423,10.311617 c -0.04787,0.09822 -0.08873,0.180931 -0.09079,0.183811 -0.0032,0.0045 -0.96345,-0.337883 -0.97283,-0.346837 -0.0066,-0.0063 0.09822,-0.2434765 0.16303,-0.3689714 0.234365,-0.4537734 0.630171,-0.8754135 1.078723,-1.149131 0.321626,-0.1962644 0.669879,-0.3271308 1.061637,-0.3989411 0.167484,-0.0307 0.645096,-0.043096 0.815734,-0.021172 0.682311,0.087667 1.255024,0.3594679 1.732242,0.8220966 0.294111,0.2851177 0.555222,0.6703726 0.687829,1.0148539 0.01815,0.04714 0.03782,0.09122 0.04371,0.09794 0.0088,0.01001 0.275728,-0.08634 0.731771,-0.2641275 0.0639,-0.024911 0.06754,-0.025019 0.05577,-0.00166 -0.0069,0.013743 -0.188221,0.4187445 -0.402882,0.9000025 -0.214663,0.481261 -0.39726,0.874863 -0.405773,0.874677 -0.0085,-1.85e-4 -0.412449,-0.17787 -0.897637,-0.394849 z" id="path8564-4" />
            </g>
            <path class="identikit-option identikit-option-1" id="rect2040" d="m 48.252049,78.392126 v 2.184215 h 4.243703 v -2.184215 z m 23.010729,0 v 2.184215 h 4.243703 v -2.184215 z m -23.010729,2.819731 v 5.808736 h 4.243703 v -5.808736 z m 23.012214,0 v 5.808736 h 4.242218 v -5.808736 z" style="opacity:1;vector-effect:none;fill:#ffffff;fill-opacity:1;stroke:#000000;stroke-width:1;stroke-linecap:round;stroke-linejoin:round;stroke-miterlimit:4;stroke-dasharray:none;stroke-dashoffset:0;stroke-opacity:1;paint-order:markers fill stroke" />
            <path class="identikit-option identikit-option-2" id="rect2031" d="m 50.373901,79.103369 c -1.060643,-0.0044 -2.121852,0.693622 -2.121852,2.108488 v 5.808736 h 4.243703 v -5.808736 c 0,-1.397221 -1.061209,-2.104076 -2.121851,-2.108488 z m 23.010728,0 c -1.060642,-0.0044 -2.120366,0.693622 -2.120366,2.108488 v 5.808736 h 4.242218 v -5.808736 c 0,-1.397221 -1.061209,-2.104076 -2.121852,-2.108488 z" style="opacity:1;vector-effect:none;fill:#ffffff;fill-opacity:1;stroke:#000000;stroke-width:1;stroke-linecap:round;stroke-linejoin:round;stroke-miterlimit:4;stroke-dasharray:none;stroke-dashoffset:0;stroke-opacity:1;paint-order:markers fill stroke" />
            <path class="identikit-option identikit-option-3" id="rect2016" d="m 50.373901,77.60664 a 2.1341783,1.7608444 0 0 0 -2.133731,1.759548 2.1341783,1.7608444 0 0 0 2.133731,1.761033 2.1341783,1.7608444 0 0 0 2.13373,-1.761033 2.1341783,1.7608444 0 0 0 -2.13373,-1.759548 z m 23.010728,0 a 2.1341783,1.7608444 0 0 0 -2.133729,1.759548 2.1341783,1.7608444 0 0 0 2.133729,1.761033 2.1341783,1.7608444 0 0 0 2.133731,-1.761033 2.1341783,1.7608444 0 0 0 -2.133731,-1.759548 z m -25.000428,3.605217 c -0.07292,0 -0.132152,0.05923 -0.132152,0.132152 v 5.544432 c 0,0.07292 0.05923,0.132152 0.132152,0.132152 h 3.9794 c 0.07292,0 0.132151,-0.05923 0.132151,-0.132152 v -5.544432 c 0,-0.07292 -0.05923,-0.132152 -0.132151,-0.132152 z m 23.010729,0 c -0.07292,0 -0.130667,0.05923 -0.130667,0.132152 v 5.544432 c 0,0.07292 0.05775,0.132152 0.130667,0.132152 h 3.979399 c 0.07292,0 0.132152,-0.05923 0.132152,-0.132152 v -5.544432 c 0,-0.07292 -0.05923,-0.132152 -0.132152,-0.132152 z" style="opacity:1;vector-effect:none;fill:#ffffff;fill-opacity:1;stroke:#000000;stroke-width:1;stroke-linecap:round;stroke-linejoin:round;stroke-miterlimit:4;stroke-dasharray:none;stroke-dashoffset:0;stroke-opacity:1;paint-order:markers fill stroke" />
            <path id="path2024" d="m 52.359146,81.566737 1.204213,0.461788 0.0075,0.003 0.0074,0.003 0.218273,0.07276 0.243516,-0.720152 -0.20491,-0.0683 -0.01485,-0.0059 -1.189365,-0.455848 z m 17.748418,-0.268758 0.301425,0.69788 1.005243,-0.435062 -0.301424,-0.69788 z m -2.390609,0.819637 -0.436546,0.108394 0.182637,0.737971 0.457333,-0.112849 0.01039,-0.003 0.01039,-0.003 1.003759,-0.308849 -0.224213,-0.727577 z m -12.457896,0.460304 0.730547,0.210849 0.0074,0.003 0.0089,0.0015 0.739455,0.178182 0.178182,-0.739455 -0.723122,-0.173728 -0.01039,-0.003 -0.0059,-0.0015 -0.712728,-0.206395 z m 2.993458,0.703819 0.151455,0.02821 0.0089,0.003 h 0.01039 l 1.183425,0.166304 0.0089,0.0015 0.01039,0.0015 0.169273,0.01485 0.06682,-0.757274 -0.149971,-0.01336 -1.165607,-0.163334 -0.01039,-0.0015 -0.0074,-0.0015 -0.133637,-0.02524 z m 7.198556,-0.671153 -0.0045,0.0015 -1.113638,0.145515 0.09949,0.754303 1.13294,-0.148484 0.01188,-0.0015 0.01039,-0.003 0.369727,-0.06979 -0.141061,-0.74688 z m -4.118976,0.993365 0.669668,0.02376 h 0.01039 0.01039 l 0.850819,-0.01633 -0.01485,-0.760244 -0.830032,0.01633 h -0.0074 -0.01337 l -0.64888,-0.02228 z" style="color:#000000;font-style:normal;font-variant:normal;font-weight:normal;font-stretch:normal;font-size:medium;line-height:normal;font-family:sans-serif;font-variant-ligatures:normal;font-variant-position:normal;font-variant-caps:normal;font-variant-numeric:normal;font-variant-alternates:normal;font-feature-settings:normal;text-indent:0;text-align:start;text-decoration:none;text-decoration-line:none;text-decoration-style:solid;text-decoration-color:#000000;letter-spacing:normal;word-spacing:normal;text-transform:none;writing-mode:lr-tb;direction:ltr;text-orientation:mixed;dominant-baseline:auto;baseline-shift:baseline;text-anchor:start;white-space:normal;shape-padding:0;clip-rule:nonzero;display:inline;overflow:visible;visibility:visible;opacity:1;isolation:auto;mix-blend-mode:normal;color-interpolation:sRGB;color-interpolation-filters:linearRGB;solid-color:#000000;solid-opacity:1;vector-effect:none;fill:#000000;fill-opacity:1;fill-rule:nonzero;stroke:none;stroke-width:0.76024348;stroke-linecap:butt;stroke-linejoin:miter;stroke-miterlimit:4;stroke-dasharray:1.52048694, 1.52048694;stroke-dashoffset:0;stroke-opacity:1;color-rendering:auto;image-rendering:auto;shape-rendering:auto;text-rendering:auto;enable-background:accumulate" />
        </g>
        <g id="panchina">
            <g transform="translate(-5.2090548,45.811451)" style="display:inline" id="g2075">
                <circle style="opacity:1;vector-effect:none;fill:#ffffff;fill-opacity:1;stroke:#000000;stroke-width:1;stroke-linecap:round;stroke-linejoin:round;stroke-miterlimit:4;stroke-dasharray:none;stroke-dashoffset:0;stroke-opacity:1;paint-order:markers fill stroke" id="circle2071" cx="94.137627" cy="11.152834" r="5" />
                <path id="path2073" d="m 93.680476,14.091438 c -0.667172,-0.103041 -1.206761,-0.366448 -1.669389,-0.814931 -0.294109,-0.285117 -0.555221,-0.670372 -0.687829,-1.014854 -0.01815,-0.04714 -0.03782,-0.09122 -0.04371,-0.09794 -0.0088,-0.01001 -0.275729,0.08634 -0.731773,0.264128 -0.0639,0.02491 -0.06753,0.02502 -0.05577,0.0017 0.0069,-0.01374 0.188392,-0.41913 0.403265,-0.900859 0.353983,-0.793605 0.393436,-0.875155 0.420058,-0.868236 0.01616,0.0042 0.424415,0.184261 0.907234,0.400137 0.826765,0.36966 0.875403,0.393412 0.83573,0.408135 -0.02317,0.0086 -0.214031,0.08119 -0.424142,0.161318 -0.345946,0.131927 -0.381218,0.148393 -0.373533,0.174381 0.02233,0.07552 0.142753,0.309935 0.214964,0.418462 0.04435,0.06665 0.140546,0.183604 0.213773,0.259896 0.403903,0.420809 0.967998,0.6349 1.540858,0.584804 0.459801,-0.04021 0.844438,-0.21488 1.176904,-0.534452 0.177425,-0.170546 0.286247,-0.319377 0.391706,-0.535724 0.04788,-0.09822 0.08873,-0.180931 0.09079,-0.183811 0.0032,-0.0045 0.963449,0.337883 0.972829,0.346837 0.0066,0.0063 -0.09821,0.243476 -0.163031,0.368971 -0.234365,0.453774 -0.63017,0.875414 -1.078721,1.149131 -0.318375,0.19428 -0.663338,0.324577 -1.054496,0.398295 -0.165681,0.03122 -0.719145,0.04038 -0.88573,0.01465 z m 2.396473,-2.832129 c -0.485187,-0.216979 -0.882027,-0.398436 -0.881868,-0.403238 1.08e-4,-0.0048 0.186555,-0.07932 0.414211,-0.165597 0.376432,-0.14266 0.413147,-0.159481 0.405385,-0.185718 -0.02239,-0.07568 -0.142742,-0.309998 -0.215013,-0.418615 C 95.755316,10.01949 95.659118,9.9025368 95.585892,9.8262452 95.182145,9.4055981 94.618115,9.191456 94.045367,9.2413628 93.585829,9.281405 93.200594,9.4563223 92.868131,9.7758927 92.690704,9.9464383 92.581882,10.09527 92.476423,10.311617 c -0.04787,0.09822 -0.08873,0.180931 -0.09079,0.183811 -0.0032,0.0045 -0.96345,-0.337883 -0.97283,-0.346837 -0.0066,-0.0063 0.09822,-0.2434765 0.16303,-0.3689714 0.234365,-0.4537734 0.630171,-0.8754135 1.078723,-1.149131 0.321626,-0.1962644 0.669879,-0.3271308 1.061637,-0.3989411 0.167484,-0.0307 0.645096,-0.043096 0.815734,-0.021172 0.682311,0.087667 1.255024,0.3594679 1.732242,0.8220966 0.294111,0.2851177 0.555222,0.6703726 0.687829,1.0148539 0.01815,0.04714 0.03782,0.09122 0.04371,0.09794 0.0088,0.01001 0.275728,-0.08634 0.731771,-0.2641275 0.0639,-0.024911 0.06754,-0.025019 0.05577,-0.00166 -0.0069,0.013743 -0.188221,0.4187445 -0.402882,0.9000025 -0.214663,0.481261 -0.39726,0.874863 -0.405773,0.874677 -0.0085,-1.85e-4 -0.412449,-0.17787 -0.897637,-0.394849 z" style="fill:#000000;stroke-width:0.01428598" />
            </g>
            <path id="seduta" d="m 63.154573,45.444109 h 22.678569 c 0.775048,0 1.399004,0.623956 1.399004,1.399004 v 0.957211 H 61.755569 v -0.957211 c 0,-0.775048 0.623956,-1.399004 1.399004,-1.399004 z" style="opacity:1;vector-effect:none;fill:#ffffff;fill-opacity:1;stroke:#000000;stroke-width:1;stroke-linecap:round;stroke-linejoin:round;stroke-miterlimit:4;stroke-dasharray:none;stroke-dashoffset:0;stroke-opacity:1;paint-order:markers fill stroke" />
            <path class="identikit-option identikit-option-2 identikit-option-4" id="schienale" d="m 63.154572,39.553571 h 22.67857 c 0.775048,0 1.399004,0.623956 1.399004,1.399004 v 1.914423 c 0,0.775048 -0.623956,1.399004 -1.399004,1.399004 h -22.67857 c -0.775048,0 -1.399004,-0.623956 -1.399004,-1.399004 v -1.914423 c 0,-0.775048 0.623956,-1.399004 1.399004,-1.399004 z" style="opacity:1;vector-effect:none;fill:#ffffff;fill-opacity:1;stroke:#000000;stroke-width:1;stroke-linecap:round;stroke-linejoin:round;stroke-miterlimit:4;stroke-dasharray:none;stroke-dashoffset:0;stroke-opacity:1;paint-order:markers fill stroke" />
            <path class="identikit-option identikit-option-3 identikit-option-4" id="gamberettangolari" d="m 64.479353,47.799944 v 3.09375 h 4.859375 v -3.09375 z m 14.800781,0 v 3.09375 h 4.859376 v -3.09375 z" style="opacity:1;vector-effect:none;fill:#ffffff;fill-opacity:1;stroke:#000000;stroke-width:1;stroke-linecap:round;stroke-linejoin:round;stroke-miterlimit:4;stroke-dasharray:none;stroke-dashoffset:0;stroke-opacity:1;paint-order:markers fill stroke" />
            <path class="identikit-option identikit-option-1 identikit-option-2" id="gambetonde" d="m 66.909041,48.214006 a 1.3394568,1.3394568 0 0 0 -1.337891,1.339844 1.3394568,1.3394568 0 0 0 1.337891,1.339844 1.3394568,1.3394568 0 0 0 1.339843,-1.339844 1.3394568,1.3394568 0 0 0 -1.339843,-1.339844 z m 14.800781,0 a 1.3394568,1.3394568 0 0 0 -1.339844,1.339844 1.3394568,1.3394568 0 0 0 1.339844,1.339844 1.3394568,1.3394568 0 0 0 1.339844,-1.339844 1.3394568,1.3394568 0 0 0 -1.339844,-1.339844 z" style="opacity:1;vector-effect:none;fill:#ffffff;fill-opacity:1;stroke:#000000;stroke-width:1;stroke-linecap:round;stroke-linejoin:round;stroke-miterlimit:4;stroke-dasharray:none;stroke-dashoffset:0;stroke-opacity:1;paint-order:markers fill stroke" />
            <g id="omino">
                <circle r="1.3394568" cy="36.885826" cx="74.23024" id="path3411" style="opacity:1;vector-effect:none;fill:#ffcc00;fill-opacity:1;stroke:#ffcc00;stroke-width:1;stroke-linecap:round;stroke-linejoin:round;stroke-miterlimit:4;stroke-dasharray:none;stroke-dashoffset:0;stroke-opacity:1;paint-order:markers fill stroke" />
                <path id="path3413" d="m 73.980874,38.425354 -0.766588,6.663931 3.928571,0.714286 -0.714285,4.910714 1.428571,0.357143" style="fill:#000000;fill-opacity:0;stroke:#ffcc00;stroke-width:1px;stroke-linecap:round;stroke-linejoin:round;stroke-opacity:1" />
                <path id="path3415" d="m 74.037663,51.99941 -1.019126,-1.313135 1.62432,-3.543418 -1.428571,-2.053572 v 0" style="fill:#000000;fill-opacity:0;stroke:#ffcc00;stroke-width:1px;stroke-linecap:round;stroke-linejoin:round;stroke-opacity:1" />
                <path id="path3417" d="m 74.684343,42.324039 -2.925852,0.424765 2.092957,-3.636966 2.433467,2.962293 0.936955,-0.646121" style="fill:#000000;fill-opacity:0;stroke:#ffcc00;stroke-width:1px;stroke-linecap:round;stroke-linejoin:round;stroke-opacity:1" />
            </g>
        </g>
        <g id="fontana">
            <g id="g2081" style="display:inline" transform="translate(-82.173341,75.275738)">
                <circle r="5" cy="11.152834" cx="94.137627" id="circle2077" style="opacity:1;vector-effect:none;fill:#ffffff;fill-opacity:1;stroke:#000000;stroke-width:1;stroke-linecap:round;stroke-linejoin:round;stroke-miterlimit:4;stroke-dasharray:none;stroke-dashoffset:0;stroke-opacity:1;paint-order:markers fill stroke" />
                <path style="fill:#000000;stroke-width:0.01428598" d="m 93.680476,14.091438 c -0.667172,-0.103041 -1.206761,-0.366448 -1.669389,-0.814931 -0.294109,-0.285117 -0.555221,-0.670372 -0.687829,-1.014854 -0.01815,-0.04714 -0.03782,-0.09122 -0.04371,-0.09794 -0.0088,-0.01001 -0.275729,0.08634 -0.731773,0.264128 -0.0639,0.02491 -0.06753,0.02502 -0.05577,0.0017 0.0069,-0.01374 0.188392,-0.41913 0.403265,-0.900859 0.353983,-0.793605 0.393436,-0.875155 0.420058,-0.868236 0.01616,0.0042 0.424415,0.184261 0.907234,0.400137 0.826765,0.36966 0.875403,0.393412 0.83573,0.408135 -0.02317,0.0086 -0.214031,0.08119 -0.424142,0.161318 -0.345946,0.131927 -0.381218,0.148393 -0.373533,0.174381 0.02233,0.07552 0.142753,0.309935 0.214964,0.418462 0.04435,0.06665 0.140546,0.183604 0.213773,0.259896 0.403903,0.420809 0.967998,0.6349 1.540858,0.584804 0.459801,-0.04021 0.844438,-0.21488 1.176904,-0.534452 0.177425,-0.170546 0.286247,-0.319377 0.391706,-0.535724 0.04788,-0.09822 0.08873,-0.180931 0.09079,-0.183811 0.0032,-0.0045 0.963449,0.337883 0.972829,0.346837 0.0066,0.0063 -0.09821,0.243476 -0.163031,0.368971 -0.234365,0.453774 -0.63017,0.875414 -1.078721,1.149131 -0.318375,0.19428 -0.663338,0.324577 -1.054496,0.398295 -0.165681,0.03122 -0.719145,0.04038 -0.88573,0.01465 z m 2.396473,-2.832129 c -0.485187,-0.216979 -0.882027,-0.398436 -0.881868,-0.403238 1.08e-4,-0.0048 0.186555,-0.07932 0.414211,-0.165597 0.376432,-0.14266 0.413147,-0.159481 0.405385,-0.185718 -0.02239,-0.07568 -0.142742,-0.309998 -0.215013,-0.418615 C 95.755316,10.01949 95.659118,9.9025368 95.585892,9.8262452 95.182145,9.4055981 94.618115,9.191456 94.045367,9.2413628 93.585829,9.281405 93.200594,9.4563223 92.868131,9.7758927 92.690704,9.9464383 92.581882,10.09527 92.476423,10.311617 c -0.04787,0.09822 -0.08873,0.180931 -0.09079,0.183811 -0.0032,0.0045 -0.96345,-0.337883 -0.97283,-0.346837 -0.0066,-0.0063 0.09822,-0.2434765 0.16303,-0.3689714 0.234365,-0.4537734 0.630171,-0.8754135 1.078723,-1.149131 0.321626,-0.1962644 0.669879,-0.3271308 1.061637,-0.3989411 0.167484,-0.0307 0.645096,-0.043096 0.815734,-0.021172 0.682311,0.087667 1.255024,0.3594679 1.732242,0.8220966 0.294111,0.2851177 0.555222,0.6703726 0.687829,1.0148539 0.01815,0.04714 0.03782,0.09122 0.04371,0.09794 0.0088,0.01001 0.275728,-0.08634 0.731771,-0.2641275 0.0639,-0.024911 0.06754,-0.025019 0.05577,-0.00166 -0.0069,0.013743 -0.188221,0.4187445 -0.402882,0.9000025 -0.214663,0.481261 -0.39726,0.874863 -0.405773,0.874677 -0.0085,-1.85e-4 -0.412449,-0.17787 -0.897637,-0.394849 z" id="path2079" />
            </g>
            <g class="identikit-option identikit-option-2" transform="translate(-12.500638,0.37880721)" id="g2000">
                <rect style="opacity:1;vector-effect:none;fill:#aaeeff;fill-opacity:1;stroke:none;stroke-width:1;stroke-linecap:round;stroke-linejoin:round;stroke-miterlimit:4;stroke-dasharray:none;stroke-dashoffset:0;stroke-opacity:1;paint-order:markers fill stroke" id="rect1964" width="0.35610941" height="8.7601013" x="32.473846" y="68.037956" ry="0.17805471" />
                <path style="fill:#ffcc00;fill-opacity:1;stroke:none;stroke-width:1px;stroke-linecap:butt;stroke-linejoin:miter;stroke-opacity:1" d="m 30.535714,67.053571 h 2.991072 v 0.580357 h -0.625 v 0.625 h -0.491072 v -0.625 h -2.321428 z" id="path1962" />
                <path style="fill:#000000;stroke:none;stroke-width:1px;stroke-linecap:butt;stroke-linejoin:miter;stroke-opacity:1" d="m 28.660156,61.955078 a 0.7897259,0.7897259 0 0 0 -0.789062,0.791016 0.7897259,0.7897259 0 0 0 0.417968,0.697265 l -2.216796,0.470703 V 65 l 0.892578,1.072266 -1.072266,9.910156 v 1.785156 l 9.087891,-0.05664 V 76.191406 L 31.148438,75.976562 30.447266,66.072266 31.427734,65 v -1.085938 l -2.349609,-0.498046 a 0.7897259,0.7897259 0 0 0 0.373047,-0.669922 0.7897259,0.7897259 0 0 0 -0.791016,-0.791016 z" id="path1960" />
            </g>
            <g class="identikit-option identikit-option-1" transform="translate(-31.791835,0.68459121)" id="g2007">
                <path style="fill:none;stroke:#aaeeff;stroke-width:1;stroke-linecap:butt;stroke-linejoin:miter;stroke-miterlimit:4;stroke-dasharray:none;stroke-opacity:1" d="m 48.431832,60.635737 c 2.42047,-16.059838 5.62384,-0.806903 5.369658,5.15487" id="path1976" />
                <path id="path1978" d="m 48.431832,60.635737 c -2.42047,-16.059838 -5.62384,-0.806903 -5.369658,5.15487" style="fill:none;stroke:#aaeeff;stroke-width:1;stroke-linecap:butt;stroke-linejoin:miter;stroke-miterlimit:4;stroke-dasharray:none;stroke-opacity:1" />
                <path id="path1974" d="m 47.608818,63.257645 0.412279,-3.597601 c 0.324126,-0.208786 0.628041,-0.204724 0.912902,0 l 0.323933,3.576925 z" style="fill:#ffcc00;fill-opacity:1;stroke:none;stroke-width:1;stroke-linecap:butt;stroke-linejoin:miter;stroke-miterlimit:4;stroke-dasharray:none;stroke-opacity:1" />
                <path style="fill:#ffffff;stroke:#000000;stroke-width:1;stroke-linecap:butt;stroke-linejoin:miter;stroke-miterlimit:4;stroke-dasharray:none;stroke-opacity:1" d="m 46.430291,75.742373 1.002336,-12.457606 c 0.788018,-0.722972 1.5269,-0.708908 2.219459,0 l 0.787549,12.386011 z" id="path1972" />
                <path style="opacity:1;vector-effect:none;fill:#ffffff;fill-opacity:1;stroke:#000000;stroke-width:1;stroke-linecap:round;stroke-linejoin:round;stroke-miterlimit:4;stroke-dasharray:none;stroke-dashoffset:0;stroke-opacity:1;paint-order:markers fill stroke" d="m 40.556641,65.361328 c 0,2.451546 3.525483,4.439453 7.875,4.439453 4.349517,0 7.875,-1.987907 7.875,-4.439453 z m 7.875,9.306641 c -4.349517,0 -7.875,1.47408 -7.875,3.292969 h 15.75 c 0,-1.818889 -3.525483,-3.292969 -7.875,-3.292969 z" id="path1967" />
            </g>
            <g class="identikit-option identikit-option-3" transform="translate(-56.668842,1.0029692)" id="g2014">
                <path style="opacity:1;vector-effect:none;fill:#aaeeff;fill-opacity:1;stroke:none;stroke-width:1;stroke-linecap:round;stroke-linejoin:round;stroke-miterlimit:4;stroke-dasharray:none;stroke-dashoffset:0;stroke-opacity:1;paint-order:markers fill stroke" d="m 69.673828,68.037109 c -0.09864,0 -0.177734,0.08105 -0.177734,0.179688 v 8.402344 c 0,0.09864 0.07909,0.179687 0.177734,0.179687 0.09864,0 0.177734,-0.08105 0.177734,-0.179687 v -8.402344 c 0,-0.09864 -0.07909,-0.179688 -0.177734,-0.179688 z m 7.164063,0 c -0.09864,0 -0.177735,0.08105 -0.177735,0.179688 v 8.402344 c 0,0.09864 0.07909,0.179687 0.177735,0.179687 0.09864,0 0.177734,-0.08105 0.177734,-0.179687 v -8.402344 c 0,-0.09864 -0.07909,-0.179688 -0.177734,-0.179688 z" id="rect1992" />
                <rect style="opacity:1;vector-effect:none;fill:#ffffff;fill-opacity:1;stroke:#000000;stroke-width:1;stroke-linecap:round;stroke-linejoin:round;stroke-miterlimit:4;stroke-dasharray:none;stroke-dashoffset:0;stroke-opacity:1;paint-order:markers fill stroke" id="rect1985" width="18.877226" height="1.767767" x="63.765881" y="75.502144" ry="0.178055" />
                <path style="fill:#ffcc00;fill-opacity:1;stroke:none;stroke-width:1px;stroke-linecap:butt;stroke-linejoin:miter;stroke-opacity:1" d="m 68.809386,67.052734 v 0.582032 h 0.625 v 0.625 h 0.492188 v -0.625 h 2.320312 l -0.445312,-0.582032 z m 5.894532,0 -0.447266,0.582032 h 2.322266 v 0.625 h 0.490234 v -0.625 h 0.625 v -0.582032 z" id="path1987" />
                <path id="path1981" d="m 71.25172,77.26023 1.002336,-13.975463 c 0.788018,-0.722972 1.5269,-0.708908 2.219459,0 l 0.787549,13.903868 z" style="fill:#ffffff;stroke:#000000;stroke-width:1;stroke-linecap:butt;stroke-linejoin:miter;stroke-miterlimit:4;stroke-dasharray:none;stroke-opacity:1" />
            </g>
        </g>
        <g id="lampione">
            <g transform="translate(-73.601912,21.704309)" style="display:inline" id="g2087">
                <circle style="opacity:1;vector-effect:none;fill:#ffffff;fill-opacity:1;stroke:#000000;stroke-width:1;stroke-linecap:round;stroke-linejoin:round;stroke-miterlimit:4;stroke-dasharray:none;stroke-dashoffset:0;stroke-opacity:1;paint-order:markers fill stroke" id="circle2083" cx="94.137627" cy="11.152834" r="5" />
                <path id="path2085" d="m 93.680476,14.091438 c -0.667172,-0.103041 -1.206761,-0.366448 -1.669389,-0.814931 -0.294109,-0.285117 -0.555221,-0.670372 -0.687829,-1.014854 -0.01815,-0.04714 -0.03782,-0.09122 -0.04371,-0.09794 -0.0088,-0.01001 -0.275729,0.08634 -0.731773,0.264128 -0.0639,0.02491 -0.06753,0.02502 -0.05577,0.0017 0.0069,-0.01374 0.188392,-0.41913 0.403265,-0.900859 0.353983,-0.793605 0.393436,-0.875155 0.420058,-0.868236 0.01616,0.0042 0.424415,0.184261 0.907234,0.400137 0.826765,0.36966 0.875403,0.393412 0.83573,0.408135 -0.02317,0.0086 -0.214031,0.08119 -0.424142,0.161318 -0.345946,0.131927 -0.381218,0.148393 -0.373533,0.174381 0.02233,0.07552 0.142753,0.309935 0.214964,0.418462 0.04435,0.06665 0.140546,0.183604 0.213773,0.259896 0.403903,0.420809 0.967998,0.6349 1.540858,0.584804 0.459801,-0.04021 0.844438,-0.21488 1.176904,-0.534452 0.177425,-0.170546 0.286247,-0.319377 0.391706,-0.535724 0.04788,-0.09822 0.08873,-0.180931 0.09079,-0.183811 0.0032,-0.0045 0.963449,0.337883 0.972829,0.346837 0.0066,0.0063 -0.09821,0.243476 -0.163031,0.368971 -0.234365,0.453774 -0.63017,0.875414 -1.078721,1.149131 -0.318375,0.19428 -0.663338,0.324577 -1.054496,0.398295 -0.165681,0.03122 -0.719145,0.04038 -0.88573,0.01465 z m 2.396473,-2.832129 c -0.485187,-0.216979 -0.882027,-0.398436 -0.881868,-0.403238 1.08e-4,-0.0048 0.186555,-0.07932 0.414211,-0.165597 0.376432,-0.14266 0.413147,-0.159481 0.405385,-0.185718 -0.02239,-0.07568 -0.142742,-0.309998 -0.215013,-0.418615 C 95.755316,10.01949 95.659118,9.9025368 95.585892,9.8262452 95.182145,9.4055981 94.618115,9.191456 94.045367,9.2413628 93.585829,9.281405 93.200594,9.4563223 92.868131,9.7758927 92.690704,9.9464383 92.581882,10.09527 92.476423,10.311617 c -0.04787,0.09822 -0.08873,0.180931 -0.09079,0.183811 -0.0032,0.0045 -0.96345,-0.337883 -0.97283,-0.346837 -0.0066,-0.0063 0.09822,-0.2434765 0.16303,-0.3689714 0.234365,-0.4537734 0.630171,-0.8754135 1.078723,-1.149131 0.321626,-0.1962644 0.669879,-0.3271308 1.061637,-0.3989411 0.167484,-0.0307 0.645096,-0.043096 0.815734,-0.021172 0.682311,0.087667 1.255024,0.3594679 1.732242,0.8220966 0.294111,0.2851177 0.555222,0.6703726 0.687829,1.0148539 0.01815,0.04714 0.03782,0.09122 0.04371,0.09794 0.0088,0.01001 0.275728,-0.08634 0.731771,-0.2641275 0.0639,-0.024911 0.06754,-0.025019 0.05577,-0.00166 -0.0069,0.013743 -0.188221,0.4187445 -0.402882,0.9000025 -0.214663,0.481261 -0.39726,0.874863 -0.405773,0.874677 -0.0085,-1.85e-4 -0.412449,-0.17787 -0.897637,-0.394849 z" style="fill:#000000;stroke-width:0.01428598" />
            </g>
            <g class="identikit-option identikit-option-1" transform="translate(8.3928572,0.17857143)" id="g3386">
                <path style="fill:#aaeeff;stroke:none;stroke-width:1;stroke-linecap:butt;stroke-linejoin:miter;stroke-miterlimit:4;stroke-dasharray:none;stroke-opacity:1" d="m 15.553847,14.581474 0.751954,3.513671 h 2.322265 l 0.753906,-3.451171 z m 12.992188,0 -3.828125,0.0625 0.753906,3.451171 h 2.322266 z" id="path3352" />
                <path style="color:#000000;font-style:normal;font-variant:normal;font-weight:normal;font-stretch:normal;font-size:medium;line-height:normal;font-family:sans-serif;font-variant-ligatures:normal;font-variant-position:normal;font-variant-caps:normal;font-variant-numeric:normal;font-variant-alternates:normal;font-feature-settings:normal;text-indent:0;text-align:start;text-decoration:none;text-decoration-line:none;text-decoration-style:solid;text-decoration-color:#000000;letter-spacing:normal;word-spacing:normal;text-transform:none;writing-mode:lr-tb;direction:ltr;text-orientation:mixed;dominant-baseline:auto;baseline-shift:baseline;text-anchor:start;white-space:normal;shape-padding:0;clip-rule:nonzero;display:inline;overflow:visible;visibility:visible;opacity:1;isolation:auto;mix-blend-mode:normal;color-interpolation:sRGB;color-interpolation-filters:linearRGB;solid-color:#000000;solid-opacity:1;vector-effect:none;fill:#000000;fill-opacity:1;fill-rule:nonzero;stroke:none;stroke-width:1.11324584px;stroke-linecap:round;stroke-linejoin:miter;stroke-miterlimit:4;stroke-dasharray:none;stroke-dashoffset:0;stroke-opacity:1;color-rendering:auto;image-rendering:auto;shape-rendering:auto;text-rendering:auto;enable-background:accumulate" d="m 22.046035,11.399833 a 0.55667858,0.55667858 0 0 0 -0.548828,0.564453 v 25.892578 a 0.55667858,0.55667858 0 0 0 0.06445,0.267578 h -0.736328 l -0.982422,4.91211 v 1.517578 h 4.234375 l 0.04102,-1.421875 -0.792969,-5.007813 h -0.78125 a 0.55667858,0.55667858 0 0 0 0.06641,-0.267578 V 11.964286 A 0.55667858,0.55667858 0 0 0 22.04604,11.399833 Z m -1.742188,1.041015 v 6.244141 c -0.02306,0.781908 -0.223232,1.328727 -0.46289,1.65625 -0.240781,0.329056 -0.501183,0.445322 -0.740235,0.445313 -0.239051,-10e-6 -0.497864,-0.115077 -0.736328,-0.44336 -0.238463,-0.328282 -0.435816,-0.876364 -0.453125,-1.664062 v -0.08398 h 1.119141 l 0.96875,-4.441406 -5.066406,-0.08398 0.130859,0.615234 0.837891,3.910156 h 1.009765 v 0.09961 0.0059 c 0.02072,0.942764 0.254464,1.69348 0.644532,2.230469 0.390067,0.536988 0.957072,0.855446 1.544921,0.855469 0.58785,2.2e-5 1.156475,-0.317317 1.548829,-0.853516 0.392352,-0.536199 0.628566,-1.285724 0.654296,-2.228516 v -0.0078 -6.25586 z m 2.492188,0 v 6.25586 0.0078 c 0.02573,0.942792 0.261944,1.692317 0.654297,2.228516 0.392353,0.536199 0.960979,0.853538 1.548828,0.853516 0.587849,-2.3e-5 1.154855,-0.318481 1.544922,-0.855469 0.390067,-0.536989 0.623815,-1.287705 0.644531,-2.230469 v -0.0059 -0.09961 h 1.009766 l 0.96875,-4.52539 -0.628907,0.01172 -4.4375,0.07226 0.96875,4.441406 h 1.119141 v 0.08398 c -0.01731,0.787698 -0.214661,1.33578 -0.453125,1.664062 -0.238464,0.328283 -0.497277,0.44335 -0.736328,0.44336 -0.239052,9e-6 -0.499454,-0.116257 -0.740235,-0.445313 -0.24078,-0.329056 -0.44139,-0.876264 -0.46289,-1.664062 v -6.236329 z m -6.623047,2.648438 2.589844,0.04492 -0.53711,2.460937 h -1.515625 z m 11.753906,0 -0.537109,2.505859 H 25.87416 l -0.535156,-2.460937 z" id="path3332" />
            </g>
            <g class="identikit-option identikit-option-2" transform="translate(8.3928572,0.17857143)" id="g3392">
                <path style="fill:#aaeeff;stroke:none;stroke-width:1;stroke-linecap:butt;stroke-linejoin:miter;stroke-miterlimit:4;stroke-dasharray:none;stroke-opacity:1" d="m 15.551898,17.884208 0.753906,3.513672 h 2.322266 l 0.751953,-3.451172 z m 12.99414,0 -3.828125,0.0625 0.751954,3.451172 h 2.322265 z" id="path3170" />
                <path style="color:#000000;font-style:normal;font-variant:normal;font-weight:normal;font-stretch:normal;font-size:medium;line-height:normal;font-family:sans-serif;font-variant-ligatures:normal;font-variant-position:normal;font-variant-caps:normal;font-variant-numeric:normal;font-variant-alternates:normal;font-feature-settings:normal;text-indent:0;text-align:start;text-decoration:none;text-decoration-line:none;text-decoration-style:solid;text-decoration-color:#000000;letter-spacing:normal;word-spacing:normal;text-transform:none;writing-mode:lr-tb;direction:ltr;text-orientation:mixed;dominant-baseline:auto;baseline-shift:baseline;text-anchor:start;white-space:normal;shape-padding:0;clip-rule:nonzero;display:inline;overflow:visible;visibility:visible;opacity:1;isolation:auto;mix-blend-mode:normal;color-interpolation:sRGB;color-interpolation-filters:linearRGB;solid-color:#000000;solid-opacity:1;vector-effect:none;fill:#000000;fill-opacity:1;fill-rule:nonzero;stroke:none;stroke-width:1.11324584px;stroke-linecap:round;stroke-linejoin:miter;stroke-miterlimit:4;stroke-dasharray:none;stroke-dashoffset:0;stroke-opacity:1;color-rendering:auto;image-rendering:auto;shape-rendering:auto;text-rendering:auto;enable-background:accumulate" d="m 22.046038,11.399833 a 0.55667858,0.55667858 0 0 0 -0.548828,0.564453 v 25.892578 a 0.55667858,0.55667858 0 0 0 0.06445,0.267578 h -0.738281 l -0.980469,4.91211 v 1.517578 h 4.232422 l 0.04102,-1.421875 -0.792969,-5.007813 h -0.779297 a 0.55667858,0.55667858 0 0 0 0.06641,-0.267578 V 11.964286 a 0.55667858,0.55667858 0 0 0 -0.564453,-0.564453 z m -2.945312,2.558594 c -0.587849,2.2e-5 -1.154855,0.316527 -1.544922,0.853515 -0.390067,0.536989 -0.623816,1.287705 -0.644531,2.230469 v 0.0059 0.357422 l -1.980469,-0.03125 0.132813,0.615235 0.83789,3.908203 h 3.128906 l 0.96875,-4.441406 -2.08789,-0.0332 V 17.06394 c 0.01731,-0.787698 0.214661,-1.33578 0.453125,-1.664062 0.238463,-0.328283 0.497276,-0.441397 0.736328,-0.441406 0.239051,-10e-6 0.499454,0.114303 0.740234,0.443359 0.240781,0.329056 0.441391,0.878217 0.462891,1.666016 v 6.236328 h 1 v -6.257813 -0.0059 c -0.02573,-0.942792 -0.263897,-1.692317 -0.65625,-2.228516 -0.392353,-0.536199 -0.959026,-0.853538 -1.546875,-0.853515 z m 5.896484,0 c -0.587849,-2.3e-5 -1.154522,0.317316 -1.546875,0.853515 -0.392353,0.536199 -0.63052,1.285724 -0.65625,2.228516 v 0.0059 6.257813 h 1 v -6.236328 c 0.0215,-0.787799 0.22211,-1.33696 0.462891,-1.666016 0.24078,-0.329056 0.501183,-0.443369 0.740234,-0.443359 0.239052,9e-6 0.497865,0.113123 0.736328,0.441406 0.238464,0.328282 0.435817,0.876364 0.453125,1.664062 v 0.359375 l -2.08789,0.0332 0.96875,4.441406 h 3.128906 l 0.970703,-4.523438 -0.628906,0.0098 -1.351563,0.02148 v -0.357422 -0.0059 c -0.02072,-0.942764 -0.254464,-1.69348 -0.644531,-2.230469 -0.390067,-0.536988 -0.957073,-0.853493 -1.544922,-0.853515 z m -8.824219,4.435547 2.587891,0.04297 -0.537109,2.460938 h -1.513672 z m 11.751954,0 -0.53711,2.503906 h -1.513672 l -0.537109,-2.460938 z" id="path3164" />
            </g>
            <g class="identikit-option identikit-option-3" transform="translate(8.3928572,0.17857143)" id="g3398">
                <path style="fill:#aaeeff;stroke:none;stroke-width:1;stroke-linecap:butt;stroke-linejoin:miter;stroke-miterlimit:4;stroke-dasharray:none;stroke-opacity:1" d="m 23.966431,10.939316 -0.753094,3.514441 h -2.322042 l -0.753094,-3.451683 z" id="path3325" />
                <path style="color:#000000;font-style:normal;font-variant:normal;font-weight:normal;font-stretch:normal;font-size:medium;line-height:normal;font-family:sans-serif;font-variant-ligatures:normal;font-variant-position:normal;font-variant-caps:normal;font-variant-numeric:normal;font-variant-alternates:normal;font-feature-settings:normal;text-indent:0;text-align:start;text-decoration:none;text-decoration-line:none;text-decoration-style:solid;text-decoration-color:#000000;letter-spacing:normal;word-spacing:normal;text-transform:none;writing-mode:lr-tb;direction:ltr;text-orientation:mixed;dominant-baseline:auto;baseline-shift:baseline;text-anchor:start;white-space:normal;shape-padding:0;clip-rule:nonzero;display:inline;overflow:visible;visibility:visible;opacity:1;isolation:auto;mix-blend-mode:normal;color-interpolation:sRGB;color-interpolation-filters:linearRGB;solid-color:#000000;solid-opacity:1;vector-effect:none;fill:#000000;fill-opacity:1;fill-rule:nonzero;stroke:none;stroke-width:1.05660248px;stroke-linecap:round;stroke-linejoin:miter;stroke-miterlimit:4;stroke-dasharray:none;stroke-dashoffset:0;stroke-opacity:1;color-rendering:auto;image-rendering:auto;shape-rendering:auto;text-rendering:auto;enable-background:accumulate" d="m 22.020642,8.7279583 a 1.0417198,1.0417198 0 0 0 -1.042969,1.0410157 1.0417198,1.0417198 0 0 0 0.285156,0.714844 l -1.74414,0.0293 0.970703,4.441405 h 1.001953 v 22.902341 a 0.52835407,0.52835407 0 0 0 0.07031,0.267578 h -0.771484 l -0.982422,4.91211 v 1.517578 h 4.234375 l 0.04102,-1.421875 -0.792969,-5.007813 h -0.8125 a 0.52835407,0.52835407 0 0 0 0.07031,-0.267578 V 14.95452 h 1.070312 l 0.96875,-4.52539 -0.628906,0.0098 -1.15625,0.01953 A 1.0417198,1.0417198 0 0 0 23.061657,9.768974 1.0417198,1.0417198 0 0 0 22.020642,8.7279583 Z m 1.326172,2.7207027 -0.53711,2.505859 H 21.294079 L 20.75697,11.49163 Z" id="path3305" />
            </g>
        </g>

    </g>

</svg>