<?xml version="1.0" encoding="UTF-8" standalone="no"?>
<svg xmlns="http://www.w3.org/2000/svg" viewBox="0 0 100 100" height="25" width="25">

    <g id="pietro-leopoldo">
        <g id="pietro-leopoldo-bg">
            <circle style="opacity:1;fill:#ffffff" cx="50" cy="50" r="55" />
            <path id="rect1869" d="M 26.166016 8.265625 C 25.300323 8.265625 24.603516 8.9624322 24.603516 9.828125 L 24.603516 13.044922 C 24.603516 13.910615 25.300323 14.607422 26.166016 14.607422 C 27.031708 14.607422 27.728516 13.910615 27.728516 13.044922 L 27.728516 9.828125 C 27.728516 8.9624322 27.031708 8.265625 26.166016 8.265625 z M 30.945312 8.265625 C 30.07962 8.265625 29.382812 8.9624322 29.382812 9.828125 L 29.382812 13.044922 C 29.382813 13.910615 30.07962 14.607422 30.945312 14.607422 C 31.811005 14.607422 32.507812 13.910615 32.507812 13.044922 L 32.507812 9.828125 C 32.507812 8.9624322 31.811005 8.265625 30.945312 8.265625 z M 39.21875 8.265625 C 38.353057 8.265625 37.65625 8.9624322 37.65625 9.828125 L 37.65625 13.044922 C 37.65625 13.910615 38.353057 14.607422 39.21875 14.607422 C 40.084443 14.607422 40.78125 13.910615 40.78125 13.044922 L 40.78125 9.828125 C 40.78125 8.9624322 40.084443 8.265625 39.21875 8.265625 z M 44.103516 8.265625 C 43.237823 8.265625 42.541016 8.9624322 42.541016 9.828125 L 42.541016 13.044922 C 42.541016 13.910615 43.237823 14.607422 44.103516 14.607422 C 44.969208 14.607422 45.666016 13.910615 45.666016 13.044922 L 45.666016 9.828125 C 45.666016 8.9624322 44.969208 8.265625 44.103516 8.265625 z M 48.988281 8.265625 C 48.122588 8.265625 47.425781 8.9624322 47.425781 9.828125 L 47.425781 13.044922 C 47.425781 13.910615 48.122588 14.607422 48.988281 14.607422 C 49.853974 14.607422 50.550781 13.910615 50.550781 13.044922 L 50.550781 9.828125 C 50.550781 8.9624322 49.853974 8.265625 48.988281 8.265625 z M 53.873047 8.265625 C 53.007354 8.265625 52.310547 8.9624322 52.310547 9.828125 L 52.310547 13.044922 C 52.310547 13.910615 53.007354 14.607422 53.873047 14.607422 C 54.73874 14.607422 55.435547 13.910615 55.435547 13.044922 L 55.435547 9.828125 C 55.435547 8.9624322 54.73874 8.265625 53.873047 8.265625 z M 58.757812 8.265625 C 57.89212 8.265625 57.195312 8.9624322 57.195312 9.828125 L 57.195312 13.044922 C 57.195312 13.910615 57.89212 14.607422 58.757812 14.607422 C 59.623505 14.607422 60.320312 13.910615 60.320312 13.044922 L 60.320312 9.828125 C 60.320312 8.9624322 59.623505 8.265625 58.757812 8.265625 z M 63.642578 8.265625 C 62.776885 8.265625 62.080078 8.9624322 62.080078 9.828125 L 62.080078 13.044922 C 62.080078 13.910615 62.776885 14.607422 63.642578 14.607422 C 64.508271 14.607422 65.205078 13.910615 65.205078 13.044922 L 65.205078 9.828125 C 65.205078 8.9624322 64.508271 8.265625 63.642578 8.265625 z M 68.527344 8.265625 C 67.661651 8.265625 66.964844 8.9624322 66.964844 9.828125 L 66.964844 13.044922 C 66.964844 13.910615 67.661651 14.607422 68.527344 14.607422 C 69.393037 14.607422 70.089844 13.910615 70.089844 13.044922 L 70.089844 9.828125 C 70.089844 8.9624322 69.393037 8.265625 68.527344 8.265625 z M 73.412109 8.265625 C 72.546417 8.265625 71.849609 8.9624322 71.849609 9.828125 L 71.849609 13.044922 C 71.849609 13.910615 72.546417 14.607422 73.412109 14.607422 C 74.277802 14.607422 74.974609 13.910615 74.974609 13.044922 L 74.974609 9.828125 C 74.974609 8.9624322 74.277802 8.265625 73.412109 8.265625 z M 14.177734 19.824219 C 13.312042 19.824219 12.613281 20.521026 12.613281 21.386719 L 12.613281 24.603516 C 12.613281 25.469208 13.312042 26.166016 14.177734 26.166016 C 15.043427 26.166016 15.740234 25.469208 15.740234 24.603516 L 15.740234 21.386719 C 15.740234 20.521026 15.043427 19.824219 14.177734 19.824219 z M 19.0625 19.824219 C 18.196807 19.824219 17.5 20.521026 17.5 21.386719 L 17.5 24.603516 C 17.5 25.469208 18.196807 26.166016 19.0625 26.166016 C 19.928193 26.166016 20.625 25.469208 20.625 24.603516 L 20.625 21.386719 C 20.625 20.521026 19.928193 19.824219 19.0625 19.824219 z M 23.947266 19.824219 C 23.081573 19.824219 22.384766 20.521026 22.384766 21.386719 L 22.384766 24.603516 C 22.384766 25.469208 23.081573 26.166016 23.947266 26.166016 C 24.812958 26.166016 25.509766 25.469208 25.509766 24.603516 L 25.509766 21.386719 C 25.509766 20.521026 24.812958 19.824219 23.947266 19.824219 z M 28.832031 19.824219 C 27.966338 19.824219 27.269531 20.521026 27.269531 21.386719 L 27.269531 24.603516 C 27.269531 25.469208 27.966338 26.166016 28.832031 26.166016 C 29.697724 26.166016 30.394531 25.469208 30.394531 24.603516 L 30.394531 21.386719 C 30.394531 20.521026 29.697724 19.824219 28.832031 19.824219 z M 33.716797 19.824219 C 32.851104 19.824219 32.154297 20.521026 32.154297 21.386719 L 32.154297 24.603516 C 32.154297 25.469208 32.851104 26.166016 33.716797 26.166016 C 34.58249 26.166016 35.279297 25.469208 35.279297 24.603516 L 35.279297 21.386719 C 35.279297 20.521026 34.58249 19.824219 33.716797 19.824219 z M 38.601562 19.824219 C 37.73587 19.824219 37.039062 20.521026 37.039062 21.386719 L 37.039062 24.603516 C 37.039062 25.469208 37.73587 26.166016 38.601562 26.166016 C 39.467255 26.166016 40.164062 25.469208 40.164062 24.603516 L 40.164062 21.386719 C 40.164062 20.521026 39.467255 19.824219 38.601562 19.824219 z M 47.138672 19.824219 C 46.272979 19.824219 45.576172 20.521026 45.576172 21.386719 L 45.576172 24.603516 C 45.576172 25.469208 46.272979 26.166016 47.138672 26.166016 C 48.004365 26.166016 48.703125 25.469208 48.703125 24.603516 L 48.703125 21.386719 C 48.703125 20.521026 48.004365 19.824219 47.138672 19.824219 z M 52.025391 19.824219 C 51.159698 19.824219 50.460938 20.521026 50.460938 21.386719 L 50.460938 24.603516 C 50.460938 25.469208 51.159698 26.166016 52.025391 26.166016 C 52.891083 26.166016 53.587891 25.469208 53.587891 24.603516 L 53.587891 21.386719 C 53.587891 20.521026 52.891083 19.824219 52.025391 19.824219 z M 56.910156 19.824219 C 56.044463 19.824219 55.345703 20.521026 55.345703 21.386719 L 55.345703 24.603516 C 55.345703 25.469208 56.044463 26.166016 56.910156 26.166016 C 57.775849 26.166016 58.472656 25.469208 58.472656 24.603516 L 58.472656 21.386719 C 58.472656 20.521026 57.775849 19.824219 56.910156 19.824219 z M 61.794922 19.824219 C 60.929229 19.824219 60.232422 20.521026 60.232422 21.386719 L 60.232422 24.603516 C 60.232422 25.469208 60.929229 26.166016 61.794922 26.166016 C 62.660615 26.166016 63.357422 25.469208 63.357422 24.603516 L 63.357422 21.386719 C 63.357422 20.521026 62.660615 19.824219 61.794922 19.824219 z M 66.679688 19.824219 C 65.813995 19.824219 65.117188 20.521026 65.117188 21.386719 L 65.117188 24.603516 C 65.117188 25.469208 65.813995 26.166016 66.679688 26.166016 C 67.54538 26.166016 68.242188 25.469208 68.242188 24.603516 L 68.242188 21.386719 C 68.242188 20.521026 67.54538 19.824219 66.679688 19.824219 z M 71.564453 19.824219 C 70.69876 19.824219 70.001953 20.521026 70.001953 21.386719 L 70.001953 24.603516 C 70.001953 25.469208 70.69876 26.166016 71.564453 26.166016 C 72.430146 26.166016 73.126953 25.469208 73.126953 24.603516 L 73.126953 21.386719 C 73.126953 20.521026 72.430146 19.824219 71.564453 19.824219 z M 76.449219 19.824219 C 75.583526 19.824219 74.886719 20.521026 74.886719 21.386719 L 74.886719 24.603516 C 74.886719 25.469208 75.583526 26.166016 76.449219 26.166016 C 77.314912 26.166016 78.011719 25.469208 78.011719 24.603516 L 78.011719 21.386719 C 78.011719 20.521026 77.314912 19.824219 76.449219 19.824219 z M 85.400391 19.824219 C 84.534698 19.824219 83.837891 20.521026 83.837891 21.386719 L 83.837891 24.603516 C 83.837891 25.469208 84.534698 26.166016 85.400391 26.166016 C 86.266083 26.166016 86.962891 25.469208 86.962891 24.603516 L 86.962891 21.386719 C 86.962891 20.521026 86.266083 19.824219 85.400391 19.824219 z M 18.306641 31.382812 C 17.440948 31.382812 16.744141 32.07962 16.744141 32.945312 L 16.744141 36.162109 C 16.744141 37.027802 17.440948 37.724609 18.306641 37.724609 C 19.172333 37.724609 19.869141 37.027802 19.869141 36.162109 L 19.869141 32.945312 C 19.869141 32.07962 19.172333 31.382812 18.306641 31.382812 z M 23.191406 31.382812 C 22.325713 31.382812 21.628906 32.07962 21.628906 32.945312 L 21.628906 36.162109 C 21.628906 37.027802 22.325713 37.724609 23.191406 37.724609 C 24.057099 37.724609 24.753906 37.027802 24.753906 36.162109 L 24.753906 32.945312 C 24.753906 32.07962 24.057099 31.382812 23.191406 31.382812 z M 28.076172 31.382812 C 27.210479 31.382812 26.513672 32.07962 26.513672 32.945312 L 26.513672 36.162109 C 26.513672 37.027802 27.210479 37.724609 28.076172 37.724609 C 28.941865 37.724609 29.638672 37.027802 29.638672 36.162109 L 29.638672 32.945312 C 29.638672 32.07962 28.941865 31.382812 28.076172 31.382812 z M 32.960938 31.382812 C 32.095245 31.382812 31.398438 32.07962 31.398438 32.945312 L 31.398438 36.162109 C 31.398438 37.027802 32.095245 37.724609 32.960938 37.724609 C 33.82663 37.724609 34.523438 37.027802 34.523438 36.162109 L 34.523438 32.945312 C 34.523438 32.07962 33.82663 31.382812 32.960938 31.382812 z M 37.845703 31.382812 C 36.98001 31.382812 36.283203 32.07962 36.283203 32.945312 L 36.283203 36.162109 C 36.283203 37.027802 36.98001 37.724609 37.845703 37.724609 C 38.711396 37.724609 39.408203 37.027802 39.408203 36.162109 L 39.408203 32.945312 C 39.408203 32.07962 38.711396 31.382812 37.845703 31.382812 z M 42.730469 31.382812 C 41.864776 31.382812 41.167969 32.07962 41.167969 32.945312 L 41.167969 36.162109 C 41.167969 37.027802 41.864776 37.724609 42.730469 37.724609 C 43.596162 37.724609 44.292969 37.027802 44.292969 36.162109 L 44.292969 32.945312 C 44.292969 32.07962 43.596162 31.382812 42.730469 31.382812 z M 47.615234 31.382812 C 46.749542 31.382812 46.052734 32.07962 46.052734 32.945312 L 46.052734 36.162109 C 46.052734 37.027802 46.749542 37.724609 47.615234 37.724609 C 48.480927 37.724609 49.177734 37.027802 49.177734 36.162109 L 49.177734 32.945312 C 49.177734 32.07962 48.480927 31.382812 47.615234 31.382812 z M 52.5 31.382812 C 51.634307 31.382812 50.9375 32.07962 50.9375 32.945312 L 50.9375 36.162109 C 50.9375 37.027802 51.634307 37.724609 52.5 37.724609 C 53.365693 37.724609 54.0625 37.027802 54.0625 36.162109 L 54.0625 32.945312 C 54.0625 32.07962 53.365693 31.382812 52.5 31.382812 z M 66.617188 31.382812 C 65.751495 31.382812 65.054688 32.07962 65.054688 32.945312 L 65.054688 36.162109 C 65.054688 37.027802 65.751495 37.724609 66.617188 37.724609 C 67.48288 37.724609 68.179688 37.027802 68.179688 36.162109 L 68.179688 32.945312 C 68.179688 32.07962 67.48288 31.382812 66.617188 31.382812 z M 71.501953 31.382812 C 70.63626 31.382812 69.939453 32.07962 69.939453 32.945312 L 69.939453 36.162109 C 69.939453 37.027802 70.63626 37.724609 71.501953 37.724609 C 72.367646 37.724609 73.064453 37.027802 73.064453 36.162109 L 73.064453 32.945312 C 73.064453 32.07962 72.367646 31.382812 71.501953 31.382812 z M 76.386719 31.382812 C 75.521026 31.382812 74.824219 32.07962 74.824219 32.945312 L 74.824219 36.162109 C 74.824219 37.027802 75.521026 37.724609 76.386719 37.724609 C 77.252412 37.724609 77.949219 37.027802 77.949219 36.162109 L 77.949219 32.945312 C 77.949219 32.07962 77.252412 31.382812 76.386719 31.382812 z M 81.271484 31.382812 C 80.405792 31.382812 79.708984 32.07962 79.708984 32.945312 L 79.708984 36.162109 C 79.708984 37.027802 80.405792 37.724609 81.271484 37.724609 C 82.137177 37.724609 82.833984 37.027802 82.833984 36.162109 L 82.833984 32.945312 C 82.833984 32.07962 82.137177 31.382812 81.271484 31.382812 z M 42.460938 42.941406 C 41.595245 42.941406 40.898438 43.638213 40.898438 44.503906 L 40.898438 47.720703 C 40.898438 48.586396 41.595245 49.283203 42.460938 49.283203 C 43.32663 49.283203 44.023438 48.586396 44.023438 47.720703 L 44.023438 44.503906 C 44.023438 43.638213 43.32663 42.941406 42.460938 42.941406 z M 47.345703 42.941406 C 46.48001 42.941406 45.783203 43.638213 45.783203 44.503906 L 45.783203 47.720703 C 45.783203 48.586396 46.48001 49.283203 47.345703 49.283203 C 48.211396 49.283203 48.908203 48.586396 48.908203 47.720703 L 48.908203 44.503906 C 48.908203 43.638213 48.211396 42.941406 47.345703 42.941406 z M 52.230469 42.941406 C 51.364776 42.941406 50.667969 43.638213 50.667969 44.503906 L 50.667969 47.720703 C 50.667969 48.586396 51.364776 49.283203 52.230469 49.283203 C 53.096162 49.283203 53.792969 48.586396 53.792969 47.720703 L 53.792969 44.503906 C 53.792969 43.638213 53.096162 42.941406 52.230469 42.941406 z M 57.115234 42.941406 C 56.249542 42.941406 55.552734 43.638213 55.552734 44.503906 L 55.552734 47.720703 C 55.552734 48.586396 56.249542 49.283203 57.115234 49.283203 C 57.980927 49.283203 58.679688 48.586396 58.679688 47.720703 L 58.679688 44.503906 C 58.679688 43.638213 57.980927 42.941406 57.115234 42.941406 z M 22.876953 54.5 C 22.01126 54.5 21.314453 55.196807 21.314453 56.0625 L 21.314453 59.279297 C 21.314453 60.14499 22.01126 60.841797 22.876953 60.841797 C 23.742646 60.841797 24.439453 60.14499 24.439453 59.279297 L 24.439453 56.0625 C 24.439453 55.196807 23.742646 54.5 22.876953 54.5 z M 27.761719 54.5 C 26.896026 54.5 26.199219 55.196807 26.199219 56.0625 L 26.199219 59.279297 C 26.199219 60.14499 26.896026 60.841797 27.761719 60.841797 C 28.627412 60.841797 29.324219 60.14499 29.324219 59.279297 L 29.324219 56.0625 C 29.324219 55.196807 28.627412 54.5 27.761719 54.5 z M 37.150391 54.5 C 36.284698 54.5 35.587891 55.196807 35.587891 56.0625 L 35.587891 59.279297 C 35.587891 60.14499 36.284698 60.841797 37.150391 60.841797 C 38.016083 60.841797 38.712891 60.14499 38.712891 59.279297 L 38.712891 56.0625 C 38.712891 55.196807 38.016083 54.5 37.150391 54.5 z M 42.035156 54.5 C 41.169463 54.5 40.472656 55.196807 40.472656 56.0625 L 40.472656 59.279297 C 40.472656 60.14499 41.169463 60.841797 42.035156 60.841797 C 42.900849 60.841797 43.597656 60.14499 43.597656 59.279297 L 43.597656 56.0625 C 43.597656 55.196807 42.900849 54.5 42.035156 54.5 z M 46.919922 54.5 C 46.054229 54.5 45.357422 55.196807 45.357422 56.0625 L 45.357422 59.279297 C 45.357422 60.14499 46.054229 60.841797 46.919922 60.841797 C 47.785615 60.841797 48.482422 60.14499 48.482422 59.279297 L 48.482422 56.0625 C 48.482422 55.196807 47.785615 54.5 46.919922 54.5 z M 57.162109 54.5 C 56.296417 54.5 55.599609 55.196807 55.599609 56.0625 L 55.599609 59.279297 C 55.599609 60.14499 56.296417 60.841797 57.162109 60.841797 C 58.027802 60.841797 58.724609 60.14499 58.724609 59.279297 L 58.724609 56.0625 C 58.724609 55.196807 58.027802 54.5 57.162109 54.5 z M 62.046875 54.5 C 61.181182 54.5 60.484375 55.196807 60.484375 56.0625 L 60.484375 59.279297 C 60.484375 60.14499 61.181182 60.841797 62.046875 60.841797 C 62.912568 60.841797 63.609375 60.14499 63.609375 59.279297 L 63.609375 56.0625 C 63.609375 55.196807 62.912568 54.5 62.046875 54.5 z M 66.931641 54.5 C 66.065948 54.5 65.369141 55.196807 65.369141 56.0625 L 65.369141 59.279297 C 65.369141 60.14499 66.065948 60.841797 66.931641 60.841797 C 67.797333 60.841797 68.494141 60.14499 68.494141 59.279297 L 68.494141 56.0625 C 68.494141 55.196807 67.797333 54.5 66.931641 54.5 z M 71.816406 54.5 C 70.950713 54.5 70.253906 55.196807 70.253906 56.0625 L 70.253906 59.279297 C 70.253906 60.14499 70.950713 60.841797 71.816406 60.841797 C 72.682099 60.841797 73.378906 60.14499 73.378906 59.279297 L 73.378906 56.0625 C 73.378906 55.196807 72.682099 54.5 71.816406 54.5 z M 76.701172 54.5 C 75.835479 54.5 75.138672 55.196807 75.138672 56.0625 L 75.138672 59.279297 C 75.138672 60.14499 75.835479 60.841797 76.701172 60.841797 C 77.566865 60.841797 78.263672 60.14499 78.263672 59.279297 L 78.263672 56.0625 C 78.263672 55.196807 77.566865 54.5 76.701172 54.5 z " style="opacity:1;vector-effect:none;fill:#000000;fill-opacity:1;stroke:none;stroke-width:1.02949238;stroke-linecap:round;stroke-linejoin:round;stroke-miterlimit:4;stroke-dasharray:none;stroke-dashoffset:0;stroke-opacity:1;paint-order:markers fill stroke" />
            <path id="path2216" d="M 11.607143,80 C 11.576654,68.255112 25.503874,62.172689 43.928571,66.964286 62.353268,71.755883 72.218109,65.039295 71.964286,57.857143" style="fill:none;stroke:#000000;stroke-width:1px;stroke-linecap:butt;stroke-linejoin:miter;stroke-opacity:1" />
            <path style="fill:none;stroke:#000000;stroke-width:1px;stroke-linecap:butt;stroke-linejoin:miter;stroke-opacity:1" d="M 28.75,79.285714 C 28.719511,67.540826 14.432446,66.636975 6.2499995,50.357143 -1.9324464,34.077312 24.360966,29.146438 24.107143,21.964286" id="path2218" />
            <path style="display:inline;fill:none;stroke:#000000;stroke-width:1px;stroke-linecap:butt;stroke-linejoin:miter;stroke-opacity:1" d="m 43.464253,81.347467 c -0.03049,-11.74489 6.932448,-11.755885 8.571431,-18.392859 1.638982,-6.636973 0.789537,-10.139276 0.535714,-17.321427" id="path2218-6" />
            <path id="path2235" d="M 61.499967,76.347467 C 92.183763,57.102577 98.610988,37.091581 94.714255,23.490322 90.817523,9.8890637 61.753792,24.422475 58.821398,10.990324" style="display:inline;fill:none;stroke:#000000;stroke-width:1px;stroke-linecap:butt;stroke-linejoin:miter;stroke-opacity:1" />
            <path style="display:inline;fill:none;stroke:#000000;stroke-width:1px;stroke-linecap:butt;stroke-linejoin:miter;stroke-opacity:1" d="M 77.214252,78.311752 C 107.89805,59.066862 80.575272,43.520151 62.392826,50.097464 44.21038,56.674777 31.039506,48.351046 28.107112,34.918895" id="path2237" />
        </g>
        <g id="done">
            <circle style="opacity:1;vector-effect:none;fill:#ffffff;fill-opacity:1;stroke:#000000;stroke-width:1;stroke-linecap:round;stroke-linejoin:round;stroke-miterlimit:4;stroke-dasharray:none;stroke-dashoffset:0;stroke-opacity:1;paint-order:markers fill stroke" id="circle8551-5-6" cx="91.023964" cy="81.197296" r="5" />
            <path style="display:inline;fill:#000000;stroke:none;stroke-width:0.68732953px;stroke-linecap:butt;stroke-linejoin:miter;stroke-opacity:1" d="m 87.646268,80.092183 2.994201,0.954673 6.335558,-7.029866 -5.901614,10.067463 z" id="path8659-7" />
        </g>
        <g id="lettera1">
            <circle style="opacity:1;vector-effect:none;fill:#000000;fill-opacity:1;stroke:none;stroke-width:2;stroke-linecap:round;stroke-linejoin:round;stroke-miterlimit:4;stroke-dasharray:none;stroke-dashoffset:0;stroke-opacity:1;paint-order:markers fill stroke" id="circle2137" cx="58.750004" cy="79.821426" r="7.8571429" />
            <text class="identikit-option identikit-option-1" id="text2198" y="84.64286" x="58.750004" style="font-style:normal;font-variant:normal;font-weight:normal;font-stretch:normal;font-size:15.86386681px;line-height:1.25;font-family:'AR JULIAN';-inkscape-font-specification:'AR JULIAN, Normal';font-variant-ligatures:normal;font-variant-caps:normal;font-variant-numeric:normal;font-feature-settings:normal;text-align:center;letter-spacing:0px;word-spacing:0px;writing-mode:lr-tb;text-anchor:middle;fill:#ffffff;fill-opacity:1;stroke:none;stroke-width:0.59489501" 
            xml:space="preserve"><tspan style="fill:#ffffff;stroke-width:0.59489501" y="84.64286" x="58.750004" id="tspan2196">?</tspan></text>
            <text  class="identikit-option identikit-option-2" id="text2198" y="84.64286" x="58.750004" style="font-style:normal;font-variant:normal;font-weight:normal;font-stretch:normal;font-size:15.86386681px;line-height:1.25;font-family:'AR JULIAN';-inkscape-font-specification:'AR JULIAN, Normal';font-variant-ligatures:normal;font-variant-caps:normal;font-variant-numeric:normal;font-feature-settings:normal;text-align:center;letter-spacing:0px;word-spacing:0px;writing-mode:lr-tb;text-anchor:middle;fill:#ffffff;fill-opacity:1;stroke:none;stroke-width:0.59489501" 
            xml:space="preserve"><tspan style="fill:#ffffff;stroke-width:0.59489501" y="84.64286" x="58.750004" id="tspan2196">U</tspan></text>
            <text  class="identikit-option identikit-option-3" id="text2198" y="84.64286" x="58.750004" style="font-style:normal;font-variant:normal;font-weight:normal;font-stretch:normal;font-size:15.86386681px;line-height:1.25;font-family:'AR JULIAN';-inkscape-font-specification:'AR JULIAN, Normal';font-variant-ligatures:normal;font-variant-caps:normal;font-variant-numeric:normal;font-feature-settings:normal;text-align:center;letter-spacing:0px;word-spacing:0px;writing-mode:lr-tb;text-anchor:middle;fill:#ffffff;fill-opacity:1;stroke:none;stroke-width:0.59489501" 
            xml:space="preserve"><tspan style="fill:#ffffff;stroke-width:0.59489501" y="84.64286" x="58.750004" id="tspan2196">D</tspan></text>
            <text  class="identikit-option identikit-option-4" id="text2198" y="84.64286" x="58.750004" style="font-style:normal;font-variant:normal;font-weight:normal;font-stretch:normal;font-size:15.86386681px;line-height:1.25;font-family:'AR JULIAN';-inkscape-font-specification:'AR JULIAN, Normal';font-variant-ligatures:normal;font-variant-caps:normal;font-variant-numeric:normal;font-feature-settings:normal;text-align:center;letter-spacing:0px;word-spacing:0px;writing-mode:lr-tb;text-anchor:middle;fill:#ffffff;fill-opacity:1;stroke:none;stroke-width:0.59489501" 
            xml:space="preserve"><tspan style="fill:#ffffff;stroke-width:0.59489501" y="84.64286" x="58.750004" id="tspan2196">N</tspan></text>
            <text  class="identikit-option identikit-option-5" id="text2198" y="84.64286" x="58.750004" style="font-style:normal;font-variant:normal;font-weight:normal;font-stretch:normal;font-size:15.86386681px;line-height:1.25;font-family:'AR JULIAN';-inkscape-font-specification:'AR JULIAN, Normal';font-variant-ligatures:normal;font-variant-caps:normal;font-variant-numeric:normal;font-feature-settings:normal;text-align:center;letter-spacing:0px;word-spacing:0px;writing-mode:lr-tb;text-anchor:middle;fill:#ffffff;fill-opacity:1;stroke:none;stroke-width:0.59489501" 
            xml:space="preserve"><tspan style="fill:#ffffff;stroke-width:0.59489501" y="84.64286" x="58.750004" id="tspan2196">A</tspan></text>
            <g id="switch-button-7" style="display:inline" transform="translate(-29.717988,79.025738)">
                <circle r="5" cy="11.152834" cx="94.137627" id="circle8551-9" style="opacity:1;vector-effect:none;fill:#ffffff;fill-opacity:1;stroke:#000000;stroke-width:1;stroke-linecap:round;stroke-linejoin:round;stroke-miterlimit:4;stroke-dasharray:none;stroke-dashoffset:0;stroke-opacity:1;paint-order:markers fill stroke" />
                <path style="fill:#000000;stroke-width:0.01428598" d="m 93.680476,14.091438 c -0.667172,-0.103041 -1.206761,-0.366448 -1.669389,-0.814931 -0.294109,-0.285117 -0.555221,-0.670372 -0.687829,-1.014854 -0.01815,-0.04714 -0.03782,-0.09122 -0.04371,-0.09794 -0.0088,-0.01001 -0.275729,0.08634 -0.731773,0.264128 -0.0639,0.02491 -0.06753,0.02502 -0.05577,0.0017 0.0069,-0.01374 0.188392,-0.41913 0.403265,-0.900859 0.353983,-0.793605 0.393436,-0.875155 0.420058,-0.868236 0.01616,0.0042 0.424415,0.184261 0.907234,0.400137 0.826765,0.36966 0.875403,0.393412 0.83573,0.408135 -0.02317,0.0086 -0.214031,0.08119 -0.424142,0.161318 -0.345946,0.131927 -0.381218,0.148393 -0.373533,0.174381 0.02233,0.07552 0.142753,0.309935 0.214964,0.418462 0.04435,0.06665 0.140546,0.183604 0.213773,0.259896 0.403903,0.420809 0.967998,0.6349 1.540858,0.584804 0.459801,-0.04021 0.844438,-0.21488 1.176904,-0.534452 0.177425,-0.170546 0.286247,-0.319377 0.391706,-0.535724 0.04788,-0.09822 0.08873,-0.180931 0.09079,-0.183811 0.0032,-0.0045 0.963449,0.337883 0.972829,0.346837 0.0066,0.0063 -0.09821,0.243476 -0.163031,0.368971 -0.234365,0.453774 -0.63017,0.875414 -1.078721,1.149131 -0.318375,0.19428 -0.663338,0.324577 -1.054496,0.398295 -0.165681,0.03122 -0.719145,0.04038 -0.88573,0.01465 z m 2.396473,-2.832129 c -0.485187,-0.216979 -0.882027,-0.398436 -0.881868,-0.403238 1.08e-4,-0.0048 0.186555,-0.07932 0.414211,-0.165597 0.376432,-0.14266 0.413147,-0.159481 0.405385,-0.185718 -0.02239,-0.07568 -0.142742,-0.309998 -0.215013,-0.418615 C 95.755316,10.01949 95.659118,9.9025368 95.585892,9.8262452 95.182145,9.4055981 94.618115,9.191456 94.045367,9.2413628 93.585829,9.281405 93.200594,9.4563223 92.868131,9.7758927 92.690704,9.9464383 92.581882,10.09527 92.476423,10.311617 c -0.04787,0.09822 -0.08873,0.180931 -0.09079,0.183811 -0.0032,0.0045 -0.96345,-0.337883 -0.97283,-0.346837 -0.0066,-0.0063 0.09822,-0.2434765 0.16303,-0.3689714 0.234365,-0.4537734 0.630171,-0.8754135 1.078723,-1.149131 0.321626,-0.1962644 0.669879,-0.3271308 1.061637,-0.3989411 0.167484,-0.0307 0.645096,-0.043096 0.815734,-0.021172 0.682311,0.087667 1.255024,0.3594679 1.732242,0.8220966 0.294111,0.2851177 0.555222,0.6703726 0.687829,1.0148539 0.01815,0.04714 0.03782,0.09122 0.04371,0.09794 0.0088,0.01001 0.275728,-0.08634 0.731771,-0.2641275 0.0639,-0.024911 0.06754,-0.025019 0.05577,-0.00166 -0.0069,0.013743 -0.188221,0.4187445 -0.402882,0.9000025 -0.214663,0.481261 -0.39726,0.874863 -0.405773,0.874677 -0.0085,-1.85e-4 -0.412449,-0.17787 -0.897637,-0.394849 z" id="path8564-6" />
            </g>
        </g>
        <g id="lettera2">
            <g id="g4913">
                <circle style="opacity:1;vector-effect:none;fill:#000000;fill-opacity:1;stroke:none;stroke-width:2;stroke-linecap:round;stroke-linejoin:round;stroke-miterlimit:4;stroke-dasharray:none;stroke-dashoffset:0;stroke-opacity:1;paint-order:markers fill stroke" id="circle2139" cx="74.464287" cy="79.821426" r="7.8571429" />
                <text class="identikit-option identikit-option-1" y="84.64286" x="74.464287" style="font-style:normal;font-variant:normal;font-weight:normal;font-stretch:normal;font-size:15.86386681px;line-height:1.25;font-family:'AR JULIAN';-inkscape-font-specification:'AR JULIAN, Normal';font-variant-ligatures:normal;font-variant-caps:normal;font-variant-numeric:normal;font-feature-settings:normal;text-align:center;letter-spacing:0px;word-spacing:0px;writing-mode:lr-tb;text-anchor:middle;fill:#ffffff;fill-opacity:1;stroke:none;stroke-width:0.59489501" 
                xml:space="preserve"><tspan style="fill:#ffffff;stroke-width:0.59489501" y="84.64286" x="74.464287">?</tspan></text>
                <text class="identikit-option identikit-option-2" y="84.64286" x="74.464287" style="font-style:normal;font-variant:normal;font-weight:normal;font-stretch:normal;font-size:15.86386681px;line-height:1.25;font-family:'AR JULIAN';-inkscape-font-specification:'AR JULIAN, Normal';font-variant-ligatures:normal;font-variant-caps:normal;font-variant-numeric:normal;font-feature-settings:normal;text-align:center;letter-spacing:0px;word-spacing:0px;writing-mode:lr-tb;text-anchor:middle;fill:#ffffff;fill-opacity:1;stroke:none;stroke-width:0.59489501" 
                xml:space="preserve"><tspan style="fill:#ffffff;stroke-width:0.59489501" y="84.64286" x="74.464287">T</tspan></text>
                <text class="identikit-option identikit-option-3" y="84.64286" x="74.464287" style="font-style:normal;font-variant:normal;font-weight:normal;font-stretch:normal;font-size:15.86386681px;line-height:1.25;font-family:'AR JULIAN';-inkscape-font-specification:'AR JULIAN, Normal';font-variant-ligatures:normal;font-variant-caps:normal;font-variant-numeric:normal;font-feature-settings:normal;text-align:center;letter-spacing:0px;word-spacing:0px;writing-mode:lr-tb;text-anchor:middle;fill:#ffffff;fill-opacity:1;stroke:none;stroke-width:0.59489501" 
                xml:space="preserve"><tspan style="fill:#ffffff;stroke-width:0.59489501" y="84.64286" x="74.464287">U</tspan></text>
                <text class="identikit-option identikit-option-4" y="84.64286" x="74.464287" style="font-style:normal;font-variant:normal;font-weight:normal;font-stretch:normal;font-size:15.86386681px;line-height:1.25;font-family:'AR JULIAN';-inkscape-font-specification:'AR JULIAN, Normal';font-variant-ligatures:normal;font-variant-caps:normal;font-variant-numeric:normal;font-feature-settings:normal;text-align:center;letter-spacing:0px;word-spacing:0px;writing-mode:lr-tb;text-anchor:middle;fill:#ffffff;fill-opacity:1;stroke:none;stroke-width:0.59489501" 
                xml:space="preserve"><tspan style="fill:#ffffff;stroke-width:0.59489501" y="84.64286" x="74.464287">R</tspan></text>
                <text class="identikit-option identikit-option-5" y="84.64286" x="74.464287" style="font-style:normal;font-variant:normal;font-weight:normal;font-stretch:normal;font-size:15.86386681px;line-height:1.25;font-family:'AR JULIAN';-inkscape-font-specification:'AR JULIAN, Normal';font-variant-ligatures:normal;font-variant-caps:normal;font-variant-numeric:normal;font-feature-settings:normal;text-align:center;letter-spacing:0px;word-spacing:0px;writing-mode:lr-tb;text-anchor:middle;fill:#ffffff;fill-opacity:1;stroke:none;stroke-width:0.59489501" 
                xml:space="preserve"><tspan style="fill:#ffffff;stroke-width:0.59489501" y="84.64286" x="74.464287">A</tspan></text>
                <g id="g4725" style="display:inline" transform="translate(-13.780484,79.025738)">
                    <circle r="5" cy="11.152834" cx="94.137627" id="circle4721" style="opacity:1;vector-effect:none;fill:#ffffff;fill-opacity:1;stroke:#000000;stroke-width:1;stroke-linecap:round;stroke-linejoin:round;stroke-miterlimit:4;stroke-dasharray:none;stroke-dashoffset:0;stroke-opacity:1;paint-order:markers fill stroke" />
                    <path style="fill:#000000;stroke-width:0.01428598" d="m 93.680476,14.091438 c -0.667172,-0.103041 -1.206761,-0.366448 -1.669389,-0.814931 -0.294109,-0.285117 -0.555221,-0.670372 -0.687829,-1.014854 -0.01815,-0.04714 -0.03782,-0.09122 -0.04371,-0.09794 -0.0088,-0.01001 -0.275729,0.08634 -0.731773,0.264128 -0.0639,0.02491 -0.06753,0.02502 -0.05577,0.0017 0.0069,-0.01374 0.188392,-0.41913 0.403265,-0.900859 0.353983,-0.793605 0.393436,-0.875155 0.420058,-0.868236 0.01616,0.0042 0.424415,0.184261 0.907234,0.400137 0.826765,0.36966 0.875403,0.393412 0.83573,0.408135 -0.02317,0.0086 -0.214031,0.08119 -0.424142,0.161318 -0.345946,0.131927 -0.381218,0.148393 -0.373533,0.174381 0.02233,0.07552 0.142753,0.309935 0.214964,0.418462 0.04435,0.06665 0.140546,0.183604 0.213773,0.259896 0.403903,0.420809 0.967998,0.6349 1.540858,0.584804 0.459801,-0.04021 0.844438,-0.21488 1.176904,-0.534452 0.177425,-0.170546 0.286247,-0.319377 0.391706,-0.535724 0.04788,-0.09822 0.08873,-0.180931 0.09079,-0.183811 0.0032,-0.0045 0.963449,0.337883 0.972829,0.346837 0.0066,0.0063 -0.09821,0.243476 -0.163031,0.368971 -0.234365,0.453774 -0.63017,0.875414 -1.078721,1.149131 -0.318375,0.19428 -0.663338,0.324577 -1.054496,0.398295 -0.165681,0.03122 -0.719145,0.04038 -0.88573,0.01465 z m 2.396473,-2.832129 c -0.485187,-0.216979 -0.882027,-0.398436 -0.881868,-0.403238 1.08e-4,-0.0048 0.186555,-0.07932 0.414211,-0.165597 0.376432,-0.14266 0.413147,-0.159481 0.405385,-0.185718 -0.02239,-0.07568 -0.142742,-0.309998 -0.215013,-0.418615 C 95.755316,10.01949 95.659118,9.9025368 95.585892,9.8262452 95.182145,9.4055981 94.618115,9.191456 94.045367,9.2413628 93.585829,9.281405 93.200594,9.4563223 92.868131,9.7758927 92.690704,9.9464383 92.581882,10.09527 92.476423,10.311617 c -0.04787,0.09822 -0.08873,0.180931 -0.09079,0.183811 -0.0032,0.0045 -0.96345,-0.337883 -0.97283,-0.346837 -0.0066,-0.0063 0.09822,-0.2434765 0.16303,-0.3689714 0.234365,-0.4537734 0.630171,-0.8754135 1.078723,-1.149131 0.321626,-0.1962644 0.669879,-0.3271308 1.061637,-0.3989411 0.167484,-0.0307 0.645096,-0.043096 0.815734,-0.021172 0.682311,0.087667 1.255024,0.3594679 1.732242,0.8220966 0.294111,0.2851177 0.555222,0.6703726 0.687829,1.0148539 0.01815,0.04714 0.03782,0.09122 0.04371,0.09794 0.0088,0.01001 0.275728,-0.08634 0.731771,-0.2641275 0.0639,-0.024911 0.06754,-0.025019 0.05577,-0.00166 -0.0069,0.013743 -0.188221,0.4187445 -0.402882,0.9000025 -0.214663,0.481261 -0.39726,0.874863 -0.405773,0.874677 -0.0085,-1.85e-4 -0.412449,-0.17787 -0.897637,-0.394849 z" id="path4723" />
                </g>
            </g>
        </g>
        <g id="lettera3">
            <circle r="7.8571429" cy="79.821426" cx="43.035717" id="circle2135" style="opacity:1;vector-effect:none;fill:#000000;fill-opacity:1;stroke:none;stroke-width:2;stroke-linecap:round;stroke-linejoin:round;stroke-miterlimit:4;stroke-dasharray:none;stroke-dashoffset:0;stroke-opacity:1;paint-order:markers fill stroke" />
            <text class="identikit-option identikit-option-1" style="font-style:normal;font-variant:normal;font-weight:normal;font-stretch:normal;font-size:15.86386681px;line-height:1.25;font-family:'AR JULIAN';-inkscape-font-specification:'AR JULIAN, Normal';font-variant-ligatures:normal;font-variant-caps:normal;font-variant-numeric:normal;font-feature-settings:normal;text-align:center;letter-spacing:0px;word-spacing:0px;writing-mode:lr-tb;text-anchor:middle;fill:#ffffff;fill-opacity:1;stroke:none;stroke-width:0.59489501" x="43.035717" y="84.64286" 
            xml:space="preserve"><tspan x="43.035717" y="84.64286" style="fill:#ffffff;stroke-width:0.59489501">?</tspan></text>
            <text class="identikit-option identikit-option-2" style="font-style:normal;font-variant:normal;font-weight:normal;font-stretch:normal;font-size:15.86386681px;line-height:1.25;font-family:'AR JULIAN';-inkscape-font-specification:'AR JULIAN, Normal';font-variant-ligatures:normal;font-variant-caps:normal;font-variant-numeric:normal;font-feature-settings:normal;text-align:center;letter-spacing:0px;word-spacing:0px;writing-mode:lr-tb;text-anchor:middle;fill:#ffffff;fill-opacity:1;stroke:none;stroke-width:0.59489501" x="43.035717" y="84.64286" 
            xml:space="preserve"><tspan x="43.035717" y="84.64286" style="fill:#ffffff;stroke-width:0.59489501">N</tspan></text>
            <text class="identikit-option identikit-option-3" style="font-style:normal;font-variant:normal;font-weight:normal;font-stretch:normal;font-size:15.86386681px;line-height:1.25;font-family:'AR JULIAN';-inkscape-font-specification:'AR JULIAN, Normal';font-variant-ligatures:normal;font-variant-caps:normal;font-variant-numeric:normal;font-feature-settings:normal;text-align:center;letter-spacing:0px;word-spacing:0px;writing-mode:lr-tb;text-anchor:middle;fill:#ffffff;fill-opacity:1;stroke:none;stroke-width:0.59489501" x="43.035717" y="84.64286" 
            xml:space="preserve"><tspan x="43.035717" y="84.64286" style="fill:#ffffff;stroke-width:0.59489501">I</tspan></text>
            <text class="identikit-option identikit-option-4" style="font-style:normal;font-variant:normal;font-weight:normal;font-stretch:normal;font-size:15.86386681px;line-height:1.25;font-family:'AR JULIAN';-inkscape-font-specification:'AR JULIAN, Normal';font-variant-ligatures:normal;font-variant-caps:normal;font-variant-numeric:normal;font-feature-settings:normal;text-align:center;letter-spacing:0px;word-spacing:0px;writing-mode:lr-tb;text-anchor:middle;fill:#ffffff;fill-opacity:1;stroke:none;stroke-width:0.59489501" x="43.035717" y="84.64286" 
            xml:space="preserve"><tspan x="43.035717" y="84.64286" style="fill:#ffffff;stroke-width:0.59489501">T</tspan></text>
            <text class="identikit-option identikit-option-5" style="font-style:normal;font-variant:normal;font-weight:normal;font-stretch:normal;font-size:15.86386681px;line-height:1.25;font-family:'AR JULIAN';-inkscape-font-specification:'AR JULIAN, Normal';font-variant-ligatures:normal;font-variant-caps:normal;font-variant-numeric:normal;font-feature-settings:normal;text-align:center;letter-spacing:0px;word-spacing:0px;writing-mode:lr-tb;text-anchor:middle;fill:#ffffff;fill-opacity:1;stroke:none;stroke-width:0.59489501" x="43.035717" y="84.64286" 
            xml:space="preserve"><tspan x="43.035717" y="84.64286" style="fill:#ffffff;stroke-width:0.59489501">R</tspan></text>
            <g transform="translate(-45.655488,79.025738)" style="display:inline" id="g4731">
                <circle style="opacity:1;vector-effect:none;fill:#ffffff;fill-opacity:1;stroke:#000000;stroke-width:1;stroke-linecap:round;stroke-linejoin:round;stroke-miterlimit:4;stroke-dasharray:none;stroke-dashoffset:0;stroke-opacity:1;paint-order:markers fill stroke" id="circle4727" cx="94.137627" cy="11.152834" r="5" />
                <path id="path4729" d="m 93.680476,14.091438 c -0.667172,-0.103041 -1.206761,-0.366448 -1.669389,-0.814931 -0.294109,-0.285117 -0.555221,-0.670372 -0.687829,-1.014854 -0.01815,-0.04714 -0.03782,-0.09122 -0.04371,-0.09794 -0.0088,-0.01001 -0.275729,0.08634 -0.731773,0.264128 -0.0639,0.02491 -0.06753,0.02502 -0.05577,0.0017 0.0069,-0.01374 0.188392,-0.41913 0.403265,-0.900859 0.353983,-0.793605 0.393436,-0.875155 0.420058,-0.868236 0.01616,0.0042 0.424415,0.184261 0.907234,0.400137 0.826765,0.36966 0.875403,0.393412 0.83573,0.408135 -0.02317,0.0086 -0.214031,0.08119 -0.424142,0.161318 -0.345946,0.131927 -0.381218,0.148393 -0.373533,0.174381 0.02233,0.07552 0.142753,0.309935 0.214964,0.418462 0.04435,0.06665 0.140546,0.183604 0.213773,0.259896 0.403903,0.420809 0.967998,0.6349 1.540858,0.584804 0.459801,-0.04021 0.844438,-0.21488 1.176904,-0.534452 0.177425,-0.170546 0.286247,-0.319377 0.391706,-0.535724 0.04788,-0.09822 0.08873,-0.180931 0.09079,-0.183811 0.0032,-0.0045 0.963449,0.337883 0.972829,0.346837 0.0066,0.0063 -0.09821,0.243476 -0.163031,0.368971 -0.234365,0.453774 -0.63017,0.875414 -1.078721,1.149131 -0.318375,0.19428 -0.663338,0.324577 -1.054496,0.398295 -0.165681,0.03122 -0.719145,0.04038 -0.88573,0.01465 z m 2.396473,-2.832129 c -0.485187,-0.216979 -0.882027,-0.398436 -0.881868,-0.403238 1.08e-4,-0.0048 0.186555,-0.07932 0.414211,-0.165597 0.376432,-0.14266 0.413147,-0.159481 0.405385,-0.185718 -0.02239,-0.07568 -0.142742,-0.309998 -0.215013,-0.418615 C 95.755316,10.01949 95.659118,9.9025368 95.585892,9.8262452 95.182145,9.4055981 94.618115,9.191456 94.045367,9.2413628 93.585829,9.281405 93.200594,9.4563223 92.868131,9.7758927 92.690704,9.9464383 92.581882,10.09527 92.476423,10.311617 c -0.04787,0.09822 -0.08873,0.180931 -0.09079,0.183811 -0.0032,0.0045 -0.96345,-0.337883 -0.97283,-0.346837 -0.0066,-0.0063 0.09822,-0.2434765 0.16303,-0.3689714 0.234365,-0.4537734 0.630171,-0.8754135 1.078723,-1.149131 0.321626,-0.1962644 0.669879,-0.3271308 1.061637,-0.3989411 0.167484,-0.0307 0.645096,-0.043096 0.815734,-0.021172 0.682311,0.087667 1.255024,0.3594679 1.732242,0.8220966 0.294111,0.2851177 0.555222,0.6703726 0.687829,1.0148539 0.01815,0.04714 0.03782,0.09122 0.04371,0.09794 0.0088,0.01001 0.275728,-0.08634 0.731771,-0.2641275 0.0639,-0.024911 0.06754,-0.025019 0.05577,-0.00166 -0.0069,0.013743 -0.188221,0.4187445 -0.402882,0.9000025 -0.214663,0.481261 -0.39726,0.874863 -0.405773,0.874677 -0.0085,-1.85e-4 -0.412449,-0.17787 -0.897637,-0.394849 z" style="fill:#000000;stroke-width:0.01428598" />
            </g>
        </g>
        <g id="lettera4">
            <circle style="opacity:1;vector-effect:none;fill:#000000;fill-opacity:1;stroke:none;stroke-width:2;stroke-linecap:round;stroke-linejoin:round;stroke-miterlimit:4;stroke-dasharray:none;stroke-dashoffset:0;stroke-opacity:1;paint-order:markers fill stroke" id="circle2133" cx="27.321426" cy="79.821426" r="7.8571429" />
            <text class="identikit-option identikit-option-1" y="84.64286" x="27.321428" style="font-style:normal;font-variant:normal;font-weight:normal;font-stretch:normal;font-size:15.86386681px;line-height:1.25;font-family:'AR JULIAN';-inkscape-font-specification:'AR JULIAN, Normal';font-variant-ligatures:normal;font-variant-caps:normal;font-variant-numeric:normal;font-feature-settings:normal;text-align:center;letter-spacing:0px;word-spacing:0px;writing-mode:lr-tb;text-anchor:middle;fill:#ffffff;fill-opacity:1;stroke:none;stroke-width:0.59489501" 
            xml:space="preserve"><tspan style="fill:#ffffff;stroke-width:0.59489501" y="84.64286" x="27.321428" id="tspan2208">?</tspan></text>
            <text class="identikit-option identikit-option-2" y="84.64286" x="27.321428" style="font-style:normal;font-variant:normal;font-weight:normal;font-stretch:normal;font-size:15.86386681px;line-height:1.25;font-family:'AR JULIAN';-inkscape-font-specification:'AR JULIAN, Normal';font-variant-ligatures:normal;font-variant-caps:normal;font-variant-numeric:normal;font-feature-settings:normal;text-align:center;letter-spacing:0px;word-spacing:0px;writing-mode:lr-tb;text-anchor:middle;fill:#ffffff;fill-opacity:1;stroke:none;stroke-width:0.59489501" 
            xml:space="preserve"><tspan style="fill:#ffffff;stroke-width:0.59489501" y="84.64286" x="27.321428" id="tspan2208">T</tspan></text>
            <text class="identikit-option identikit-option-3" y="84.64286" x="27.321428" style="font-style:normal;font-variant:normal;font-weight:normal;font-stretch:normal;font-size:15.86386681px;line-height:1.25;font-family:'AR JULIAN';-inkscape-font-specification:'AR JULIAN, Normal';font-variant-ligatures:normal;font-variant-caps:normal;font-variant-numeric:normal;font-feature-settings:normal;text-align:center;letter-spacing:0px;word-spacing:0px;writing-mode:lr-tb;text-anchor:middle;fill:#ffffff;fill-opacity:1;stroke:none;stroke-width:0.59489501" 
            xml:space="preserve"><tspan style="fill:#ffffff;stroke-width:0.59489501" y="84.64286" x="27.321428" id="tspan2208">I</tspan></text>
            <text class="identikit-option identikit-option-4" y="84.64286" x="27.321428" style="font-style:normal;font-variant:normal;font-weight:normal;font-stretch:normal;font-size:15.86386681px;line-height:1.25;font-family:'AR JULIAN';-inkscape-font-specification:'AR JULIAN, Normal';font-variant-ligatures:normal;font-variant-caps:normal;font-variant-numeric:normal;font-feature-settings:normal;text-align:center;letter-spacing:0px;word-spacing:0px;writing-mode:lr-tb;text-anchor:middle;fill:#ffffff;fill-opacity:1;stroke:none;stroke-width:0.59489501" 
            xml:space="preserve"><tspan style="fill:#ffffff;stroke-width:0.59489501" y="84.64286" x="27.321428" id="tspan2208">E</tspan></text>
            <text class="identikit-option identikit-option-5" y="84.64286" x="27.321428" style="font-style:normal;font-variant:normal;font-weight:normal;font-stretch:normal;font-size:15.86386681px;line-height:1.25;font-family:'AR JULIAN';-inkscape-font-specification:'AR JULIAN, Normal';font-variant-ligatures:normal;font-variant-caps:normal;font-variant-numeric:normal;font-feature-settings:normal;text-align:center;letter-spacing:0px;word-spacing:0px;writing-mode:lr-tb;text-anchor:middle;fill:#ffffff;fill-opacity:1;stroke:none;stroke-width:0.59489501" 
            xml:space="preserve"><tspan style="fill:#ffffff;stroke-width:0.59489501" y="84.64286" x="27.321428" id="tspan2208">P</tspan></text>
            <g id="g4737" style="display:inline" transform="translate(-61.592984,79.025738)">
                <circle r="5" cy="11.152834" cx="94.137627" id="circle4733" style="opacity:1;vector-effect:none;fill:#ffffff;fill-opacity:1;stroke:#000000;stroke-width:1;stroke-linecap:round;stroke-linejoin:round;stroke-miterlimit:4;stroke-dasharray:none;stroke-dashoffset:0;stroke-opacity:1;paint-order:markers fill stroke" />
                <path style="fill:#000000;stroke-width:0.01428598" d="m 93.680476,14.091438 c -0.667172,-0.103041 -1.206761,-0.366448 -1.669389,-0.814931 -0.294109,-0.285117 -0.555221,-0.670372 -0.687829,-1.014854 -0.01815,-0.04714 -0.03782,-0.09122 -0.04371,-0.09794 -0.0088,-0.01001 -0.275729,0.08634 -0.731773,0.264128 -0.0639,0.02491 -0.06753,0.02502 -0.05577,0.0017 0.0069,-0.01374 0.188392,-0.41913 0.403265,-0.900859 0.353983,-0.793605 0.393436,-0.875155 0.420058,-0.868236 0.01616,0.0042 0.424415,0.184261 0.907234,0.400137 0.826765,0.36966 0.875403,0.393412 0.83573,0.408135 -0.02317,0.0086 -0.214031,0.08119 -0.424142,0.161318 -0.345946,0.131927 -0.381218,0.148393 -0.373533,0.174381 0.02233,0.07552 0.142753,0.309935 0.214964,0.418462 0.04435,0.06665 0.140546,0.183604 0.213773,0.259896 0.403903,0.420809 0.967998,0.6349 1.540858,0.584804 0.459801,-0.04021 0.844438,-0.21488 1.176904,-0.534452 0.177425,-0.170546 0.286247,-0.319377 0.391706,-0.535724 0.04788,-0.09822 0.08873,-0.180931 0.09079,-0.183811 0.0032,-0.0045 0.963449,0.337883 0.972829,0.346837 0.0066,0.0063 -0.09821,0.243476 -0.163031,0.368971 -0.234365,0.453774 -0.63017,0.875414 -1.078721,1.149131 -0.318375,0.19428 -0.663338,0.324577 -1.054496,0.398295 -0.165681,0.03122 -0.719145,0.04038 -0.88573,0.01465 z m 2.396473,-2.832129 c -0.485187,-0.216979 -0.882027,-0.398436 -0.881868,-0.403238 1.08e-4,-0.0048 0.186555,-0.07932 0.414211,-0.165597 0.376432,-0.14266 0.413147,-0.159481 0.405385,-0.185718 -0.02239,-0.07568 -0.142742,-0.309998 -0.215013,-0.418615 C 95.755316,10.01949 95.659118,9.9025368 95.585892,9.8262452 95.182145,9.4055981 94.618115,9.191456 94.045367,9.2413628 93.585829,9.281405 93.200594,9.4563223 92.868131,9.7758927 92.690704,9.9464383 92.581882,10.09527 92.476423,10.311617 c -0.04787,0.09822 -0.08873,0.180931 -0.09079,0.183811 -0.0032,0.0045 -0.96345,-0.337883 -0.97283,-0.346837 -0.0066,-0.0063 0.09822,-0.2434765 0.16303,-0.3689714 0.234365,-0.4537734 0.630171,-0.8754135 1.078723,-1.149131 0.321626,-0.1962644 0.669879,-0.3271308 1.061637,-0.3989411 0.167484,-0.0307 0.645096,-0.043096 0.815734,-0.021172 0.682311,0.087667 1.255024,0.3594679 1.732242,0.8220966 0.294111,0.2851177 0.555222,0.6703726 0.687829,1.0148539 0.01815,0.04714 0.03782,0.09122 0.04371,0.09794 0.0088,0.01001 0.275728,-0.08634 0.731771,-0.2641275 0.0639,-0.024911 0.06754,-0.025019 0.05577,-0.00166 -0.0069,0.013743 -0.188221,0.4187445 -0.402882,0.9000025 -0.214663,0.481261 -0.39726,0.874863 -0.405773,0.874677 -0.0085,-1.85e-4 -0.412449,-0.17787 -0.897637,-0.394849 z" id="path4735" />
            </g>
        </g>
        <g id="lettera5">
            <circle r="7.8571429" cy="79.821426" cx="11.607142" id="path2131" style="opacity:1;vector-effect:none;fill:#000000;fill-opacity:1;stroke:none;stroke-width:2;stroke-linecap:round;stroke-linejoin:round;stroke-miterlimit:4;stroke-dasharray:none;stroke-dashoffset:0;stroke-opacity:1;paint-order:markers fill stroke" />
            <text class="identikit-option identikit-option-1" style="font-style:normal;font-variant:normal;font-weight:normal;font-stretch:normal;font-size:15.86386681px;line-height:1.25;font-family:'AR JULIAN';-inkscape-font-specification:'AR JULIAN, Normal';font-variant-ligatures:normal;font-variant-caps:normal;font-variant-numeric:normal;font-feature-settings:normal;text-align:center;letter-spacing:0px;word-spacing:0px;writing-mode:lr-tb;text-anchor:middle;fill:#ffffff;fill-opacity:1;stroke:none;stroke-width:0.59489501" x="11.607142" y="84.64286" 
                xml:space="preserve"><tspan x="11.607142" y="84.64286" style="fill:#ffffff;stroke-width:0.59489501">?</tspan></text>
            <text class="identikit-option identikit-option-2" style="font-style:normal;font-variant:normal;font-weight:normal;font-stretch:normal;font-size:15.86386681px;line-height:1.25;font-family:'AR JULIAN';-inkscape-font-specification:'AR JULIAN, Normal';font-variant-ligatures:normal;font-variant-caps:normal;font-variant-numeric:normal;font-feature-settings:normal;text-align:center;letter-spacing:0px;word-spacing:0px;writing-mode:lr-tb;text-anchor:middle;fill:#ffffff;fill-opacity:1;stroke:none;stroke-width:0.59489501" x="11.607142" y="84.64286" 
                xml:space="preserve"><tspan x="11.607142" y="84.64286" style="fill:#ffffff;stroke-width:0.59489501">M</tspan></text>
            <text class="identikit-option identikit-option-3" style="font-style:normal;font-variant:normal;font-weight:normal;font-stretch:normal;font-size:15.86386681px;line-height:1.25;font-family:'AR JULIAN';-inkscape-font-specification:'AR JULIAN, Normal';font-variant-ligatures:normal;font-variant-caps:normal;font-variant-numeric:normal;font-feature-settings:normal;text-align:center;letter-spacing:0px;word-spacing:0px;writing-mode:lr-tb;text-anchor:middle;fill:#ffffff;fill-opacity:1;stroke:none;stroke-width:0.59489501" x="11.607142" y="84.64286" 
                xml:space="preserve"><tspan x="11.607142" y="84.64286" style="fill:#ffffff;stroke-width:0.59489501">T</tspan></text>
            <text class="identikit-option identikit-option-4" style="font-style:normal;font-variant:normal;font-weight:normal;font-stretch:normal;font-size:15.86386681px;line-height:1.25;font-family:'AR JULIAN';-inkscape-font-specification:'AR JULIAN, Normal';font-variant-ligatures:normal;font-variant-caps:normal;font-variant-numeric:normal;font-feature-settings:normal;text-align:center;letter-spacing:0px;word-spacing:0px;writing-mode:lr-tb;text-anchor:middle;fill:#ffffff;fill-opacity:1;stroke:none;stroke-width:0.59489501" x="11.607142" y="84.64286" 
                xml:space="preserve"><tspan x="11.607142" y="84.64286" style="fill:#ffffff;stroke-width:0.59489501">R</tspan></text>
            <text class="identikit-option identikit-option-5" style="font-style:normal;font-variant:normal;font-weight:normal;font-stretch:normal;font-size:15.86386681px;line-height:1.25;font-family:'AR JULIAN';-inkscape-font-specification:'AR JULIAN, Normal';font-variant-ligatures:normal;font-variant-caps:normal;font-variant-numeric:normal;font-feature-settings:normal;text-align:center;letter-spacing:0px;word-spacing:0px;writing-mode:lr-tb;text-anchor:middle;fill:#ffffff;fill-opacity:1;stroke:none;stroke-width:0.59489501" x="11.607142" y="84.64286" 
                xml:space="preserve"><tspan x="11.607142" y="84.64286" style="fill:#ffffff;stroke-width:0.59489501">O</tspan></text>
            <g transform="translate(-77.530484,79.025738)" style="display:inline" id="g4743">
                <circle style="opacity:1;vector-effect:none;fill:#ffffff;fill-opacity:1;stroke:#000000;stroke-width:1;stroke-linecap:round;stroke-linejoin:round;stroke-miterlimit:4;stroke-dasharray:none;stroke-dashoffset:0;stroke-opacity:1;paint-order:markers fill stroke" id="circle4739" cx="94.137627" cy="11.152834" r="5" />
                <path id="path4741" d="m 93.680476,14.091438 c -0.667172,-0.103041 -1.206761,-0.366448 -1.669389,-0.814931 -0.294109,-0.285117 -0.555221,-0.670372 -0.687829,-1.014854 -0.01815,-0.04714 -0.03782,-0.09122 -0.04371,-0.09794 -0.0088,-0.01001 -0.275729,0.08634 -0.731773,0.264128 -0.0639,0.02491 -0.06753,0.02502 -0.05577,0.0017 0.0069,-0.01374 0.188392,-0.41913 0.403265,-0.900859 0.353983,-0.793605 0.393436,-0.875155 0.420058,-0.868236 0.01616,0.0042 0.424415,0.184261 0.907234,0.400137 0.826765,0.36966 0.875403,0.393412 0.83573,0.408135 -0.02317,0.0086 -0.214031,0.08119 -0.424142,0.161318 -0.345946,0.131927 -0.381218,0.148393 -0.373533,0.174381 0.02233,0.07552 0.142753,0.309935 0.214964,0.418462 0.04435,0.06665 0.140546,0.183604 0.213773,0.259896 0.403903,0.420809 0.967998,0.6349 1.540858,0.584804 0.459801,-0.04021 0.844438,-0.21488 1.176904,-0.534452 0.177425,-0.170546 0.286247,-0.319377 0.391706,-0.535724 0.04788,-0.09822 0.08873,-0.180931 0.09079,-0.183811 0.0032,-0.0045 0.963449,0.337883 0.972829,0.346837 0.0066,0.0063 -0.09821,0.243476 -0.163031,0.368971 -0.234365,0.453774 -0.63017,0.875414 -1.078721,1.149131 -0.318375,0.19428 -0.663338,0.324577 -1.054496,0.398295 -0.165681,0.03122 -0.719145,0.04038 -0.88573,0.01465 z m 2.396473,-2.832129 c -0.485187,-0.216979 -0.882027,-0.398436 -0.881868,-0.403238 1.08e-4,-0.0048 0.186555,-0.07932 0.414211,-0.165597 0.376432,-0.14266 0.413147,-0.159481 0.405385,-0.185718 -0.02239,-0.07568 -0.142742,-0.309998 -0.215013,-0.418615 C 95.755316,10.01949 95.659118,9.9025368 95.585892,9.8262452 95.182145,9.4055981 94.618115,9.191456 94.045367,9.2413628 93.585829,9.281405 93.200594,9.4563223 92.868131,9.7758927 92.690704,9.9464383 92.581882,10.09527 92.476423,10.311617 c -0.04787,0.09822 -0.08873,0.180931 -0.09079,0.183811 -0.0032,0.0045 -0.96345,-0.337883 -0.97283,-0.346837 -0.0066,-0.0063 0.09822,-0.2434765 0.16303,-0.3689714 0.234365,-0.4537734 0.630171,-0.8754135 1.078723,-1.149131 0.321626,-0.1962644 0.669879,-0.3271308 1.061637,-0.3989411 0.167484,-0.0307 0.645096,-0.043096 0.815734,-0.021172 0.682311,0.087667 1.255024,0.3594679 1.732242,0.8220966 0.294111,0.2851177 0.555222,0.6703726 0.687829,1.0148539 0.01815,0.04714 0.03782,0.09122 0.04371,0.09794 0.0088,0.01001 0.275728,-0.08634 0.731771,-0.2641275 0.0639,-0.024911 0.06754,-0.025019 0.05577,-0.00166 -0.0069,0.013743 -0.188221,0.4187445 -0.402882,0.9000025 -0.214663,0.481261 -0.39726,0.874863 -0.405773,0.874677 -0.0085,-1.85e-4 -0.412449,-0.17787 -0.897637,-0.394849 z" style="fill:#000000;stroke-width:0.01428598" />
            </g>
        </g>
    </g>

</svg>