<?xml version="1.0" encoding="UTF-8" standalone="no"?>
<svg xmlns="http://www.w3.org/2000/svg"
   xmlns:xlink="http://www.w3.org/1999/xlink" viewBox="0 0 100 100" height="25" width="25">

   <g id="icona-biblio">
      <path style="display:inline;fill:#ffffff;stroke:none;stroke-width:0.19165203px;stroke-linecap:butt;stroke-linejoin:miter;stroke-opacity:1" d="m 68.233815,33.885574 c -5.391436,0.01911 -10.427406,1.566452 -14.912176,4.641572 l -1.341565,0.920079 -3.83e-4,0.206251 -2.606766,0.006 c -0.02828,-0.126249 -0.05998,-0.194358 -0.0962,-0.23058 -1.132595,-1.132595 -4.619895,-3.039417 -7.305237,-3.994373 -7.690963,-2.735044 -16.158608,-1.838591 -25.233686,2.67115 -0.9606,0.477357 -2.02687,1.040419 -2.369448,1.251353 l -0.622869,0.383678 -3.242737,5.904529 -1.2764308,41.293152 82.4949668,-0.182293 0.09096,-39.014289 -1.789251,-3.049589 -2.491477,-5.119955 -2.251911,-1.158147 c -5.907461,-3.038279 -11.654364,-4.547638 -17.0458,-4.528527 z" id="path5507" />
      <path style="display:inline;fill:#ff196c;fill-opacity:1;stroke-width:0.19165203" d="m 47.938476,90.709666 c -0.325574,-0.198532 -0.775288,-0.594041 -0.999362,-0.878905 -0.224073,-0.284863 -0.73056,-0.682687 -1.125524,-0.88405 -0.69223,-0.35292 -1.386771,-0.366117 -19.267838,-0.366117 H 7.9960282 V 66.636437 44.69228 h 1.724868 1.7248688 l 0.0029,19.788072 c 0.0015,10.883439 0.0663,19.882964 0.143739,19.998946 0.07744,0.11598 0.329204,0.31004 0.559472,0.431244 0.502083,0.264275 0.875796,0.138459 2.456113,-0.826884 3.681413,-2.248805 9.395212,-4.324661 13.798946,-5.013236 2.51421,-0.393126 6.591421,-0.39434 8.941709,-0.0027 4.263689,0.710546 8.437404,2.486491 11.592054,4.9325 1.700971,1.318877 1.773492,1.314729 3.806045,-0.21769 1.82791,-1.378129 5.498887,-3.221339 7.763417,-3.898037 3.84073,-1.147706 8.573101,-1.450886 12.551698,-0.804126 4.665592,0.758438 9.995345,2.729307 14.15093,5.232821 1.29882,0.782467 1.973949,0.849724 2.463302,0.245399 0.329837,-0.40733 0.346972,-1.40231 0.346972,-20.147418 V 44.69228 h 1.724868 1.724869 V 66.636437 88.580594 H 74.874948 c -18.035814,0 -18.619933,0.01125 -19.327578,0.372263 -0.401334,0.204746 -0.876923,0.596958 -1.056865,0.871586 -0.669688,1.022072 -1.345202,1.246194 -3.756077,1.246194 -1.82125,0 -2.306798,-0.06269 -2.795954,-0.360971 z" id="path5455" />
      <path style="display:inline;fill:#000000;stroke-width:0.19165203" d="M 13.745589,60.710855 V 39.740589 l 0.622869,-0.383515 c 0.342578,-0.210934 1.408815,-0.77408 2.369415,-1.251438 9.075078,-4.50974 17.542782,-5.406053 25.233745,-2.67101 2.685342,0.954956 6.172422,2.861603 7.305017,3.994197 0.278934,0.278932 0.307883,2.249828 0.307883,20.96067 0,11.359034 -0.04817,20.700955 -0.107036,20.759824 -0.05887,0.05887 -0.597891,-0.191105 -1.197825,-0.555499 -1.765079,-1.072088 -4.405162,-2.272198 -6.407441,-2.912643 -7.872962,-2.518237 -17.082805,-1.466485 -25.87949,2.955404 -1.142879,0.574498 -2.116026,1.044542 -2.16255,1.044542 -0.04652,0 -0.08459,-9.43662 -0.08459,-20.970266 z" id="path5453" />
      <path style="display:inline;fill:#000000;stroke-width:0.19165203" d="m 85.806751,80.8114 c -3.859346,-2.017584 -9.010405,-3.665253 -13.158554,-4.209027 -6.812285,-0.893012 -13.816185,0.507684 -19.230594,3.845891 -0.757863,0.467255 -1.413263,0.849553 -1.456445,0.849553 -0.04318,0 -0.05657,-9.416391 -0.02975,-20.925316 l 0.04876,-20.925316 1.341565,-0.919884 c 8.969541,-6.150238 20.143051,-6.189847 31.957975,-0.113287 L 87.53162,39.5722 v 21.05446 c 0,11.579953 -0.02156,21.05039 -0.04791,21.045415 -0.02635,-0.005 -0.780982,-0.392279 -1.676956,-0.860675 z" id="path5449" />
      <path style="display:inline;fill:#ffffff;stroke-width:0.19165203" d="m 32.978077,36.17604 c -4.744682,-0.0106 -9.796079,1.295339 -15.216872,3.989131 -0.723784,0.359675 -1.32854,0.690992 -1.715886,0.902488 v 19.64321 c 0,5.764293 0.0098,11.004832 0.02508,14.801 0.0044,1.081885 0.0098,1.73529 0.01497,2.560726 8.911168,-4.189205 18.286575,-5.20525 26.487658,-2.582062 1.474745,0.471713 3.128875,1.16868 4.661786,1.928874 0.0062,-0.793593 0.01307,-1.402358 0.01834,-2.424473 0.01937,-3.756754 0.03144,-8.92934 0.03144,-14.605608 0,-9.354234 -0.0075,-14.528651 -0.04903,-17.358357 -0.01832,-1.24745 -0.04683,-1.894615 -0.07524,-2.340252 -0.462659,-0.341106 -1.156894,-0.815577 -2.057262,-1.307875 -1.250493,-0.683738 -2.718409,-1.360515 -3.901914,-1.78139 -2.639777,-0.938752 -5.376261,-1.41905 -8.22307,-1.425412 z m 14.101396,4.007099 c -0.02363,-0.0053 -0.01119,0.08673 0.07225,0.243308 -5.75e-4,-0.0078 -9.58e-4,-0.04229 -0.0015,-0.04978 -0.0081,-0.09979 -0.03551,-0.161923 -0.05839,-0.185289 -0.0047,-0.0048 -0.009,-0.0075 -0.01236,-0.0082 z" id="path5457" />
      <path style="display:inline;fill:#ffffff;stroke-width:0.19165203" d="m 68.282101,36.146468 c -4.960694,0.01069 -9.540365,1.45319 -13.659699,4.277734 l -0.345123,0.23657 -0.04604,19.716952 c -0.0134,5.752108 -0.01662,10.981582 -0.01123,14.769932 0.0013,0.941159 0.0047,1.47904 0.0071,2.227954 5.560552,-2.821687 12.204413,-3.907842 18.720137,-3.053704 3.930559,0.51525 8.414683,1.898786 12.261987,3.679943 0.0029,-0.816388 0.0062,-1.451868 0.0086,-2.513187 0.0087,-3.811832 0.01386,-9.073466 0.01386,-14.862017 V 40.975576 L 84.227776,40.459014 C 78.584345,37.556528 73.242798,36.135774 68.282101,36.146468 Z" id="path5459" />
      <path id="path3389-9-9" d="m 69.874048,11.963723 c -2.640797,0 -5.044853,1.077924 -6.773708,2.81182 -1.732049,1.732123 -2.806499,4.140017 -2.805788,6.785776 -6.18e-4,2.645405 1.073739,5.053296 2.805788,6.785777 1.728861,1.733538 4.132911,2.810613 6.773708,2.810613 h 0.0025 c 2.641853,6.79e-4 5.046553,-1.076367 6.776124,-2.810613 1.732043,-1.732124 2.807704,-4.140014 2.806993,-6.785777 6.18e-4,-2.645409 -1.07495,-5.053299 -2.806993,-6.785776 -1.728187,-1.73363 -4.132177,-2.811489 -6.772504,-2.81182 h -0.0012 -0.0025 z" style="display:inline;fill:#ffffff;fill-opacity:1;fill-rule:nonzero;stroke:none;stroke-width:0.35345018" />
      <path id="path3393-2-7" d="m 69.876458,6.6369542 c -3.953234,-6.8e-4 -7.545738,1.60807 -10.134615,4.2032468 -2.5917,2.593054 -4.19913,6.191222 -4.198419,10.150307 0.0012,1.048046 0.168346,2.22687 0.447719,3.533479 0.489871,2.28179 1.336608,4.944719 2.380992,7.688456 0.5372,1.410604 1.127229,2.840894 1.747434,4.245485 h 0.0012 c 0.423474,0.959976 0.861233,1.908507 1.306957,2.829921 0.804209,1.662798 1.633213,3.239791 2.44978,4.64614 0.967742,1.664923 1.911628,3.087077 2.815438,4.163424 0.454553,0.538349 0.896026,0.993469 1.372118,1.358844 0.23876,0.182515 0.487443,0.343747 0.76752,0.474269 0.279372,0.129105 0.595762,0.230793 0.960606,0.253425 0.04344,0.0025 0.08659,0.0036 0.127919,0.0036 0.288202,0 0.551312,-0.05611 0.784412,-0.136367 0.451729,-0.158819 0.811889,-0.398285 1.157313,-0.677009 0.64033,-0.525615 1.238261,-1.222469 1.872937,-2.078091 1.10231,-1.495137 2.280532,-3.47982 3.453829,-5.73225 0.382151,-0.733599 0.762565,-1.49572 1.138005,-2.276005 0.44361,-0.921773 0.880918,-1.869953 1.303329,-2.829922 h -0.0012 c 0.865676,-1.968402 1.672258,-3.986014 2.36169,-5.928956 0.654813,-1.846723 1.202542,-3.623337 1.591754,-5.236259 0.387804,-1.615749 0.624556,-3.056442 0.626323,-4.302205 6.18e-4,-3.959071 -1.606713,-7.556043 -4.19842,-10.149099 C 77.421857,8.2465982 73.831063,6.6369792 69.878874,6.6369792 Z m 0.0012,8.1566908 c 1.870849,6.79e-4 3.5507,0.756084 4.777679,1.982754 1.224507,1.229499 1.978427,2.91202 1.979131,4.78492 -6.17e-4,1.873258 -0.754618,3.556128 -1.979131,4.78492 -1.227331,1.227028 -2.907188,1.980841 -4.777679,1.981549 -1.870132,-6.8e-4 -3.550693,-0.754521 -4.777677,-1.981549 -1.225211,-1.229146 -1.978433,-2.911662 -1.979138,-4.78492 6.18e-4,-1.8729 0.753921,-3.555771 1.979138,-4.78492 1.227336,-1.22667 2.907539,-1.982047 4.777677,-1.982754 z" style="display:inline;fill:#ff196c;fill-opacity:1;fill-rule:nonzero;stroke:none;stroke-width:0.35345018" />
   </g>
   
</svg>
