<?xml version="1.0" encoding="UTF-8" standalone="no"?>
<svg xmlns="http://www.w3.org/2000/svg"
   xmlns:xlink="http://www.w3.org/1999/xlink" viewBox="0 0 100 100" height="25" width="25">

   <g id="icona-gps">
      <path style="display:inline;fill:#ffffff;stroke:#000000;stroke-width:0.61787617px;stroke-linecap:butt;stroke-linejoin:miter;stroke-opacity:1" d="M 20.237723,47.174545 H 81.070242 L 95.323275,87.435683 H 6.1316277 Z" id="path3397-8" />
      <path id="path2886-2-0-7" style="display:inline;fill:#000000;fill-opacity:1;fill-rule:nonzero;stroke:none;stroke-width:0.35345018" d="m 44.203256,46.274381 c 0.112305,0.241581 0.224975,0.481047 0.338708,0.719445 -0.04276,-0.273773 -0.163528,-0.521371 -0.338708,-0.719445 m 37.440901,-0.475746 c 0,0 -9.63324,0 -21.249993,0 -0.422065,0.959976 -0.858959,1.908275 -1.302563,2.829689 9.934158,0 18.654053,0 21.541729,0 l 0.455961,1.339506 c 0.141982,-0.632433 0.705664,-1.103576 1.378142,-1.103576 0.0031,0 0.0064,0 0.0088,0 0.780198,0.0049 1.408523,0.642337 1.403932,1.423685 -0.0095,1.580731 -0.202021,3.039444 -0.562984,4.37824 -0.07099,0.264927 -0.213322,0.492015 -0.400161,0.666034 L 93.409965,86.121702 H 11.395846 c -0.0579,0.07216 -0.112317,0.145027 -0.163527,0.219302 -0.267719,0.389788 -0.447843,0.80859 -0.545677,1.311208 -0.129618,0.677359 -0.7215681,1.148502 -1.385915,1.148502 -0.088301,0 -0.1780101,-0.0082 -0.2677196,-0.02546 -0.7664198,-0.147496 -1.2686605,-0.889232 -1.1210251,-1.65643 0.065693,-0.344163 0.1578735,-0.677365 0.2751341,-0.997116 H 7.9398856 L 21.532031,48.628324 c 0.23593,0 0.511071,0 0.824346,0 3.373308,0 11.068245,0 19.835117,0 -0.445723,-0.921414 -0.884384,-1.869717 -1.307864,-2.829692 -5.230384,0 -10.009385,0 -13.619339,0 -2.062625,0 -3.7431,0 -4.907914,0 -1.16482,0 -1.812923,0 -1.814338,0 -0.593359,0 -1.125968,0.373877 -1.327989,0.932029 L 4.5958903,87.053737 c -0.1578735,0.435769 -0.095357,0.915408 0.1702435,1.294945 0.2662984,0.379524 0.6947214,0.602726 1.1573994,0.602726 H 95.38463 c 0.458087,0 0.882265,-0.218246 1.148582,-0.591765 0.267015,-0.37316 0.335878,-0.846076 0.188242,-1.280073 L 82.980264,46.756499 c -0.195316,-0.574087 -0.730391,-0.957864 -1.336107,-0.957864" />
      <path style="display:inline;fill:#ffffff;fill-opacity:1;fill-rule:nonzero;stroke:none;stroke-width:0.35345018" d="m 50.637615,21.304376 c -2.640797,0 -5.044854,1.077924 -6.773709,2.811819 -1.732049,1.732123 -2.806499,4.140018 -2.805788,6.785777 -6.18e-4,2.645405 1.073739,5.053296 2.805788,6.785777 1.728861,1.733538 4.132912,2.810613 6.773709,2.810613 h 0.0025 c 2.641853,6.79e-4 5.046553,-1.076367 6.776124,-2.810613 1.732043,-1.732124 2.807704,-4.140014 2.806993,-6.785777 6.18e-4,-2.645409 -1.07495,-5.0533 -2.806993,-6.785777 -1.728187,-1.733629 -4.132177,-2.811488 -6.772504,-2.811819 h -0.0012 -0.0025 z" id="path3389-9" />
      <path style="display:inline;fill:#ff196c;fill-opacity:1;fill-rule:nonzero;stroke:none;stroke-width:0.35345018" d="m 50.640025,15.977607 c -3.953234,-6.8e-4 -7.545739,1.60807 -10.134616,4.203247 -2.5917,2.593054 -4.19913,6.191222 -4.198419,10.150307 0.0012,1.048046 0.168346,2.22687 0.447719,3.533479 0.489871,2.28179 1.336608,4.944719 2.380992,7.688456 0.5372,1.410604 1.127229,2.840894 1.747434,4.245485 h 0.0012 c 0.423474,0.959976 0.861233,1.908507 1.306957,2.829921 0.804209,1.662798 1.633213,3.239791 2.44978,4.64614 0.967742,1.664923 1.911629,3.087077 2.815439,4.163424 0.454553,0.538349 0.896026,0.993469 1.372118,1.358844 0.23876,0.182515 0.487443,0.343747 0.76752,0.474269 0.279372,0.129105 0.595762,0.230793 0.960606,0.253425 0.04344,0.0025 0.08659,0.0036 0.127919,0.0036 0.288202,0 0.551312,-0.05611 0.784412,-0.136367 0.451729,-0.158819 0.811889,-0.398285 1.157313,-0.677009 0.64033,-0.525615 1.238261,-1.222469 1.872937,-2.078091 1.10231,-1.495137 2.280532,-3.47982 3.453829,-5.73225 0.382151,-0.733599 0.762565,-1.49572 1.138005,-2.276005 0.44361,-0.921773 0.880918,-1.869953 1.303329,-2.829922 h -0.0012 c 0.865676,-1.968402 1.672258,-3.986014 2.36169,-5.928956 0.654813,-1.846723 1.202542,-3.623337 1.591754,-5.236259 0.387804,-1.615749 0.624556,-3.056442 0.626323,-4.302205 6.18e-4,-3.959071 -1.606713,-7.556043 -4.19842,-10.149099 -2.589222,-2.59479 -6.180016,-4.204409 -10.132205,-4.204409 z m 0.0012,8.15669 c 1.870849,6.79e-4 3.5507,0.756084 4.777679,1.982755 1.224507,1.229499 1.978427,2.91202 1.979131,4.78492 -6.17e-4,1.873258 -0.754618,3.556128 -1.979131,4.78492 -1.227331,1.227028 -2.907188,1.980841 -4.777679,1.981549 -1.870132,-6.8e-4 -3.550693,-0.754521 -4.777678,-1.981549 -1.225211,-1.229146 -1.978433,-2.911662 -1.979138,-4.78492 6.18e-4,-1.8729 0.753921,-3.555771 1.979138,-4.78492 1.227337,-1.226671 2.90754,-1.982048 4.777678,-1.982755 z" id="path3393-2" />
      <path style="display:inline;fill:#ff196c;fill-opacity:1;fill-rule:nonzero;stroke:none;stroke-width:0.35345018" d="m 43.206202,45.804615 c 0.08357,0.0037 0.166975,0.01011 0.246186,0.02775 -0.07944,-0.01758 -0.162371,-0.0242 -0.246186,-0.02775 z" id="path3385-0" />
      <path style="display:inline;fill:#ff196c;fill-opacity:1;fill-rule:nonzero;stroke:none;stroke-width:0.35345018" d="m 57.451146,46.213717 c -0.127283,0.127773 -0.230425,0.280187 -0.301697,0.448926 -0.07149,0.169266 -0.111026,0.354959 -0.111026,0.550295 0,0.488009 0.246131,0.919872 0.621497,1.174206 -0.375798,-0.254267 -0.622702,-0.684655 -0.622702,-1.172999 0,-0.195919 0.04035,-0.381832 0.112231,-0.551502 0.07147,-0.168663 0.174248,-0.321287 0.301697,-0.448926 z" id="path2888-9-6-2" />
      <path id="path2892-2-6-3" style="display:inline;fill:#ff196c;fill-opacity:1;fill-rule:nonzero;stroke:none;stroke-width:0.35345018" d="m 11.511692,82.690703 c -0.283611,0 -0.56899,0.08488 -0.817283,0.261399 -0.692602,0.492719 -1.3050353,1.082 -1.7874916,1.781294 -0.2938495,0.424802 -0.5368417,0.890643 -0.7194427,1.388306 h 3.2083713 c 0.246175,-0.30525 0.555212,-0.592457 0.934538,-0.862698 0.636098,-0.45239 0.785846,-1.335613 0.333765,-1.972644 -0.275487,-0.388384 -0.710972,-0.595657 -1.152457,-0.595657 m 7.707653,-2.340509 c -0.05159,0 -0.104192,0.0031 -0.157169,0.0085 h 6.18e-4 c -1.479511,0.163774 -2.89792,0.404295 -4.211432,0.757646 -0.754062,0.202676 -1.200138,0.979074 -0.998111,1.733538 0.169533,0.631377 0.740284,1.047696 1.363665,1.047696 0.1215,0 0.24476,-0.01557 0.367668,-0.04881 1.12915,-0.304187 2.414407,-0.525968 3.787958,-0.677706 0.775249,-0.0856 1.334705,-0.784882 1.249234,-1.561632 -0.08018,-0.723336 -0.692256,-1.259213 -1.402523,-1.259213 M 31.407114,80.1914 c -0.754056,0 -1.379557,0.596362 -1.410636,1.357554 -0.03176,0.780637 0.574637,1.43925 1.354125,1.470725 1.442426,0.0587 2.815983,0.124156 4.068042,0.170132 0.01804,6.18e-4 0.03602,0.0012 0.05369,0.0012 0.756175,0 1.382381,-0.599186 1.410636,-1.362491 0.02898,-0.780996 -0.580291,-1.437119 -1.359779,-1.46648 -1.230512,-0.04566 -2.603359,-0.110711 -4.058149,-0.169786 -0.0194,-3.53e-4 -0.03886,-6.18e-4 -0.05789,-6.18e-4 m -5.84281,-0.140783 c -0.77596,0 -1.555448,0.0096 -2.330345,0.03256 -0.780198,0.02261 -1.393335,0.674535 -1.370727,1.455518 0.02224,0.767205 0.649869,1.373459 1.411346,1.373459 0.01378,0 0.02756,0 0.04202,-3.52e-4 0.743107,-0.02193 1.494692,-0.03151 2.247339,-0.03151 0.585592,0 1.171883,0.0062 1.755708,0.01594 0.0081,0 0.01662,0 0.02471,0 0.768539,0 1.398272,-0.617586 1.412051,-1.390438 0.01304,-0.781353 -0.608546,-1.425459 -1.388745,-1.438897 -0.596893,-0.01063 -1.199434,-0.01625 -1.803383,-0.01625 m 17.878798,-0.691855 c -0.211209,0 -0.425593,0.04776 -0.628325,0.148562 -0.789021,0.396152 -1.804439,0.69681 -2.664109,0.817073 -0.188952,0.02688 -0.425593,0.04955 -0.698255,0.06579 -0.778784,0.04634 -1.373558,0.715902 -1.327285,1.495841 0.04486,0.75164 0.667177,1.331375 1.409227,1.331375 0.02824,0 0.05654,-6.18e-4 0.08477,-0.0025 0.330588,-0.01983 0.638216,-0.04776 0.929242,-0.08914 1.164462,-0.168372 2.407332,-0.530565 3.525534,-1.084824 0.698256,-0.348056 0.98293,-1.197661 0.634682,-1.89696 -0.246884,-0.497681 -0.746295,-0.785247 -1.265478,-0.785247 m -0.939839,-5.634267 c -0.569694,0 -1.106542,0.347345 -1.320933,0.912572 -0.276543,0.73006 0.08971,1.547492 0.818692,1.825153 0.26489,0.100096 0.488462,0.207273 0.664347,0.314098 0.542854,0.327888 0.922174,0.631376 1.160934,0.877211 0.240879,0.246885 0.334475,0.42728 0.366264,0.520653 0.203436,0.582917 0.749818,0.94794 1.333284,0.94794 0.154698,0 0.312572,-0.02546 0.466923,-0.07994 0.736045,-0.257858 1.124554,-1.065373 0.866374,-1.80287 -0.202002,-0.576837 -0.553067,-1.092195 -1.00974,-1.561213 -0.458087,-0.469728 -1.026372,-0.902312 -1.723213,-1.324649 -0.359548,-0.216466 -0.73463,-0.389781 -1.12173,-0.536934 -0.164225,-0.06259 -0.334116,-0.0923 -0.501171,-0.0923 m -7.889192,-1.937269 c -0.552035,0 -1.076167,0.325423 -1.302915,0.86694 -0.301975,0.72016 0.03602,1.549615 0.755471,1.852387 1.361193,0.56877 2.836465,0.848204 4.225204,1.104635 0.08547,0.01594 0.170942,0.02299 0.255362,0.02299 0.66929,0 1.263711,-0.478211 1.388028,-1.16088 0.139862,-0.768972 -0.368378,-1.505746 -1.136213,-1.645819 -1.357653,-0.245117 -2.667631,-0.517482 -3.638197,-0.929902 -0.179066,-0.07463 -0.36485,-0.110352 -0.54674,-0.110352 m -0.555569,-6.076758 c -0.283612,0 -0.569695,0.08524 -0.817988,0.262456 -0.644927,0.462301 -1.278899,1.016561 -1.79561,1.699228 -0.257482,0.342044 -0.484934,0.718392 -0.654819,1.140723 -0.169527,0.420557 -0.278669,0.8917 -0.278669,1.391148 0,0.106466 0.0049,0.213643 0.0152,0.321524 0.06887,0.732536 0.684483,1.281846 1.405347,1.281846 0.04412,0 0.089,-0.0019 0.134561,-0.0067 0.776664,-0.07358 1.346711,-0.763664 1.273245,-1.541477 l -0.0031,-0.05518 c 0,-0.08665 0.01798,-0.194186 0.07452,-0.335667 0.08265,-0.210819 0.261368,-0.488487 0.521667,-0.770034 0.258532,-0.282617 0.592648,-0.567711 0.946543,-0.819897 0.635387,-0.453108 0.783726,-1.336324 0.331293,-1.973003 -0.275487,-0.38802 -0.710972,-0.594941 -1.152457,-0.594941 M 54.0248,64.28569 c -0.762187,0 -1.39016,0.608027 -1.411347,1.375584 -0.02156,0.781347 0.593359,1.432176 1.373558,1.4534 0.953259,0.02651 1.935472,0.04282 2.937117,0.04282 0.392395,0 0.787613,-0.0025 1.185655,-0.0078 0.780199,-0.01026 1.404637,-0.652243 1.394047,-1.433591 -0.01026,-0.774631 -0.640689,-1.395745 -1.412058,-1.395745 -0.007,0 -0.0131,0 -0.0194,0 -0.384974,0.0056 -0.767829,0.0074 -1.14857,0.0074 -0.971271,0 -1.92736,-0.01594 -2.85942,-0.04177 -0.01273,-3.52e-4 -0.02651,-3.52e-4 -0.03954,-3.52e-4 m -8.121575,-0.400402 c -0.747704,0 -1.372142,0.587513 -1.409938,1.344103 -0.03917,0.780285 0.560865,1.444916 1.340359,1.483823 0.935947,0.04739 1.86307,0.106114 2.764761,0.157757 0.416764,0.02373 0.846954,0.04813 1.289848,0.0718 0.02546,0.0012 0.05122,0.0019 0.07664,0.0019 0.745579,0 1.368608,-0.584684 1.409228,-1.339148 0.04134,-0.780285 -0.556627,-1.446677 -1.33541,-1.488415 -0.437253,-0.02298 -0.864261,-0.04739 -1.278899,-0.0711 -0.889334,-0.05091 -1.823872,-0.110711 -2.784898,-0.158819 -0.02404,-0.0012 -0.04801,-0.0019 -0.07169,-0.0019 m -4.062381,-0.07852 c -0.01168,0 -0.02329,3.52e-4 -0.03534,6.18e-4 -1.431477,0.03503 -2.871079,0.15209 -4.273596,0.420205 -0.76642,0.146789 -1.268655,0.888173 -1.12173,1.655723 0.12892,0.677711 0.721568,1.149207 1.385915,1.149207 0.0883,0 0.1773,-0.0082 0.267009,-0.02546 1.199082,-0.229913 2.488218,-0.338857 3.811271,-0.371048 0.779488,-0.01909 1.396863,-0.667807 1.377437,-1.448796 -0.01798,-0.769324 -0.646329,-1.380533 -1.410988,-1.380533 m 24.360529,-0.08772 c -0.06957,0 -0.139862,0.0056 -0.211202,0.01594 -1.287728,0.193482 -2.607599,0.331077 -3.933468,0.424456 -0.778079,0.05481 -1.364376,0.731121 -1.309984,1.510695 0.05227,0.74527 0.672478,1.315453 1.407818,1.315453 0.03318,0 0.06676,-0.0012 0.100659,-0.0037 1.388034,-0.09798 2.779961,-0.242999 4.15421,-0.449221 0.771363,-0.115661 1.302915,-0.83582 1.18707,-1.609024 -0.104539,-0.701055 -0.707438,-1.204741 -1.395103,-1.204741 m 7.817852,-2.149517 c -0.193192,0 -0.389207,0.03961 -0.576757,0.124149 -1.121025,0.50263 -2.337753,0.920006 -3.620903,1.260987 -0.754062,0.200198 -1.202961,0.975181 -1.003054,1.73035 0.167766,0.633854 0.73958,1.052645 1.364376,1.052645 0.120078,0 0.242288,-0.01557 0.363429,-0.04813 1.406391,-0.373877 2.766176,-0.837235 4.050722,-1.413429 0.712028,-0.319046 1.031322,-1.156281 0.712028,-1.869366 C 75.074578,61.880856 74.55927,61.56923 74.019246,61.56923 m 6.271938,-5.002536 c -0.453849,0 -0.900283,0.218592 -1.172594,0.624302 -0.671056,0.996758 -1.500339,1.859461 -2.471616,2.613221 -0.616665,0.478922 -0.728982,1.367088 -0.251821,1.98502 0.278662,0.36008 0.696136,0.548606 1.118189,0.548606 0.301981,0 0.607131,-0.09656 0.864248,-0.296408 1.182479,-0.917175 2.230749,-2.001301 3.083351,-3.268645 0.435837,-0.647998 0.264889,-1.527322 -0.382157,-1.964154 -0.241917,-0.163416 -0.516705,-0.241942 -0.7876,-0.241942 m 0.797857,-6.599184 c -0.02156,0.09727 -0.03392,0.198777 -0.03392,0.30242 h -6.17e-4 c -0.0081,1.362497 -0.173061,2.574665 -0.464804,3.658785 -0.20343,0.754464 0.242992,1.530862 0.995998,1.734249 0.122908,0.03361 0.246885,0.04955 0.368378,0.04955 0.361315,0 0.704966,-0.140072 0.963145,-0.380599 L 81.089106,49.96757" />
      <path id="path2894-7-1-7" style="display:inline;fill:#ff196c;fill-opacity:1;fill-rule:nonzero;stroke:none;stroke-width:0.35345018" d="M 11.395846,86.121702 H 8.1874747 c -0.1172605,0.319757 -0.2097998,0.653305 -0.275134,0.997116 -0.1476354,0.767198 0.3545991,1.508928 1.1210189,1.656433 0.089709,0.0173 0.1794251,0.02546 0.2677196,0.02546 0.6643527,0 1.2562968,-0.471143 1.3859208,-1.148502 0.09783,-0.502624 0.277958,-0.921421 0.545678,-1.311208 0.05085,-0.07428 0.105243,-0.147141 0.163168,-0.219303 M 82.467792,48.864247 c -0.672466,0 -1.23616,0.47115 -1.378148,1.103577 l 1.82811,5.364382 c 0.186833,-0.174024 0.329173,-0.401106 0.400161,-0.666033 0.360605,-1.338802 0.553098,-2.797503 0.562978,-4.37824 0.0049,-0.781348 -0.623727,-1.419082 -1.403926,-1.423686 -0.0031,0 -0.0064,0 -0.0092,0" />
   </g>
   
</svg>
