<?xml version="1.0" encoding="UTF-8" standalone="no"?>
<svg
   xmlns:dc="http://purl.org/dc/elements/1.1/"
   xmlns:cc="http://creativecommons.org/ns#"
   xmlns:rdf="http://www.w3.org/1999/02/22-rdf-syntax-ns#"
   xmlns:svg="http://www.w3.org/2000/svg"
   xmlns="http://www.w3.org/2000/svg"
   xmlns:xlink="http://www.w3.org/1999/xlink"
   id="svg821"
   version="1.1"
   viewBox="0 0 100 100"
   height="100"
   width="100">
  <defs
     id="defs815">
    <clipPath
       id="clipPath889"
       clipPathUnits="userSpaceOnUse">
      <path
         id="path891"
         d="m -1.5152288,16.662415 -8.0812203,-0.505076 -0.8838839,-3.661803 0.8838839,-2.6516503 -8.7125659,2.0203053 -5.555839,-4.0406102 -2.525382,-8.08122026 0.12627,-6.81852964 7.828683,-6.5659919 5.934645,-5.3033 13.00571427,0.378807 7.07106783,-0.757614 4.7982249,2.146574 0.808561,3.370743 3.105779,1.806288 6.81853,4.4194176 3.030458,8.20748942 -1.515229,4.67195548 -2.584537,0.1707136 -0.445921,3.4910891 -10.606601,3.1567268 -7.323606,4.166879 -0.1262691,3.661803 -4.5456865,0.378808 z"
         style="fill:none;stroke:#000000;stroke-width:1px;stroke-linecap:butt;stroke-linejoin:miter;stroke-opacity:1" />
    </clipPath>
  </defs>
  <metadata
     id="metadata818">
    <rdf:RDF>
      <cc:Work
         rdf:about="">
        <dc:format>image/svg+xml</dc:format>
        <dc:type
           rdf:resource="http://purl.org/dc/dcmitype/StillImage" />
        <dc:title></dc:title>
      </cc:Work>
    </rdf:RDF>
  </metadata>
  <g
     style="display:none"
     id="layer1">
    <rect
       ry="0"
       y="0"
       x="0"
       height="100"
       width="100"
       id="rect812"
       style="opacity:1;vector-effect:none;fill:#ffe680;fill-opacity:1;stroke:none;stroke-width:7.88732386;stroke-linecap:round;stroke-linejoin:round;stroke-miterlimit:4;stroke-dasharray:none;stroke-dashoffset:0;stroke-opacity:1;paint-order:markers fill stroke" />
    <rect
       style="opacity:1;vector-effect:none;fill:#ffeeaa;fill-opacity:1;stroke:none;stroke-width:7.23943663;stroke-linecap:round;stroke-linejoin:round;stroke-miterlimit:4;stroke-dasharray:none;stroke-dashoffset:0;stroke-opacity:1;paint-order:markers fill stroke"
       id="rect814"
       width="91.785713"
       height="91.785713"
       x="4.1071429"
       y="4.1071429"
       ry="13.75" />
    <path
       id="path827"
       d="m 9.0708858,87.285347 v -0.39322 H 9.8573254 10.643765 V 84.363854 81.83558 l -0.568104,0.562174 c -0.6987996,0.691509 -1.0047752,0.749782 -1.0047752,0.191363 0,-0.333794 0.081165,-0.451559 0.813069,-1.17966 C 10.6107,80.68649 10.735944,80.600615 11.063614,80.600615 h 0.366591 v 3.145758 3.145754 h 0.78644 0.786438 v 0.39322 0.39322 H 11.036985 9.0708858 Z M 20.081035,87.034704 c 0,-0.369474 0.05997,-0.756989 0.140728,-0.909321 0.0774,-0.146001 0.785194,-0.906322 1.572875,-1.689605 l 1.432156,-1.424149 v -0.570996 c 0,-0.475164 -0.0405,-0.611485 -0.241298,-0.812286 -0.210816,-0.210816 -0.329334,-0.241293 -0.938362,-0.241293 -0.609028,0 -0.72755,0.03046 -0.938366,0.241293 -0.132711,0.132711 -0.241293,0.30966 -0.241293,0.39322 0,0.111712 -0.104087,0.151927 -0.39322,0.151927 -0.356584,0 -0.39322,-0.02351 -0.39322,-0.252228 0,-0.32403 0.145478,-0.602724 0.522603,-1.001161 l 0.302405,-0.31949 h 1.141091 1.141092 l 0.3024,0.31949 c 0.166323,0.175721 0.351949,0.416116 0.412507,0.534216 0.161928,0.315801 0.140322,1.85157 -0.0306,2.174049 -0.07738,0.146002 -0.740938,0.862049 -1.474577,1.591211 -0.733634,0.729161 -1.333884,1.403779 -1.333884,1.49915 0,0.157953 0.131329,0.173396 1.474572,0.173396 h 1.474577 v 0.39322 0.39322 h -1.966099 -1.9661 z m 6.098918,0.386392 c -0.363557,-0.305914 -0.59384,-0.718812 -0.59384,-1.06476 0,-0.226885 0.03729,-0.250648 0.39322,-0.250648 0.289132,0 0.393219,0.04024 0.393219,0.151927 0,0.08356 0.108582,0.260508 0.241293,0.393219 0.210816,0.210821 0.329339,0.241293 0.938367,0.241293 0.609028,0 0.727546,-0.03046 0.938362,-0.241293 0.21082,-0.210816 0.241297,-0.329338 0.241297,-0.938366 0,-0.609024 -0.03046,-0.727546 -0.241297,-0.938362 -0.222482,-0.222487 -0.314441,-0.241293 -1.179659,-0.241293 h -0.938363 v -0.39322 -0.39322 h 0.938363 c 0.865218,0 0.957177,-0.0188 1.179659,-0.241297 0.21082,-0.210816 0.241297,-0.329334 0.241297,-0.938362 0,-0.609028 -0.03046,-0.727551 -0.241297,-0.938367 -0.210816,-0.210816 -0.329334,-0.241293 -0.938362,-0.241293 -0.609028,0 -0.727551,0.03046 -0.938367,0.241293 -0.132711,0.132711 -0.241293,0.30966 -0.241293,0.39322 0,0.111712 -0.104087,0.151927 -0.393219,0.151927 -0.355942,0 -0.39322,-0.02377 -0.39322,-0.250644 0,-0.345952 0.230283,-0.75885 0.59384,-1.064764 0.288939,-0.243129 0.365397,-0.257471 1.372259,-0.257471 1.006861,0 1.083316,0.01435 1.372254,0.257471 0.476282,0.400765 0.593845,0.719864 0.593845,1.611901 0,0.817973 -0.07146,1.06285 -0.42264,1.448418 l -0.201461,0.221188 0.201461,0.221183 c 0.351182,0.385573 0.42264,0.63045 0.42264,1.448419 0,0.892037 -0.117563,1.211135 -0.593845,1.611901 -0.288938,0.243128 -0.365393,0.257471 -1.372254,0.257471 -1.006862,0 -1.08332,-0.01435 -1.372259,-0.257471 z m 8.056992,-1.315408 v -1.572875 h -1.57288 -1.572875 v -1.966099 -1.966099 h 0.393216 0.39322 v 1.572879 1.572879 h 1.179659 1.17966 v -1.572879 -1.572879 h 0.393219 0.39322 v 3.538978 3.538974 h -0.39322 -0.393219 z m 2.359318,1.179659 v -0.39322 h 1.331587 c 1.282708,0 1.340439,-0.0088 1.572879,-0.241293 0.210816,-0.210816 0.241293,-0.329338 0.241293,-0.938366 0,-0.609024 -0.03046,-0.727546 -0.241293,-0.938362 -0.23244,-0.232436 -0.290171,-0.241293 -1.572879,-0.241293 h -1.331587 v -1.966099 -1.966099 h 1.9661 1.966099 v 0.393219 0.39322 h -1.57288 -1.572879 v 1.17966 1.179659 h 1.122963 c 1.068026,0 1.137934,0.01259 1.428955,0.257471 0.489036,0.411499 0.593841,0.713045 0.593841,1.708624 0,0.995583 -0.104805,1.29713 -0.593841,1.708628 -0.301155,0.253403 -0.329945,0.257471 -1.822175,0.257471 h -1.516183 z m 6.098918,0.135749 c -0.577059,-0.485562 -0.59384,-0.578305 -0.59384,-3.281503 0,-2.703198 0.01677,-2.795945 0.59384,-3.281507 0.288939,-0.243129 0.365393,-0.257471 1.372259,-0.257471 1.006862,0 1.083316,0.01435 1.372255,0.257471 0.363561,0.305914 0.59384,0.718812 0.59384,1.064764 0,0.22688 -0.03729,0.250644 -0.39322,0.250644 -0.289132,0 -0.39322,-0.04024 -0.39322,-0.151927 0,-0.08356 -0.108582,-0.260509 -0.241293,-0.39322 -0.210816,-0.210816 -0.329338,-0.241293 -0.938362,-0.241293 -0.609028,0 -0.72755,0.03046 -0.938366,0.241293 -0.222487,0.222482 -0.241293,0.314446 -0.241293,1.17966 v 0.938366 h 1.122962 c 1.068027,0 1.137935,0.01259 1.428952,0.257471 0.491597,0.413651 0.593884,0.711531 0.593474,1.72832 -3.91e-4,1.037519 -0.151341,1.408828 -0.711446,1.750326 -0.264128,0.161039 -0.496005,0.195408 -1.320471,0.195712 -0.93573,3.91e-4 -1.019773,-0.0162 -1.306071,-0.257106 z m 2.310621,-0.770262 c 0.210821,-0.210816 0.241293,-0.329338 0.241293,-0.938366 0,-0.609024 -0.03046,-0.727546 -0.241293,-0.938362 -0.222482,-0.222487 -0.314441,-0.241293 -1.179659,-0.241293 h -0.938362 v 0.938362 c 0,0.865218 0.0188,0.957177 0.241293,1.179659 0.210816,0.210821 0.329338,0.241293 0.938366,0.241293 0.609024,0 0.727546,-0.03046 0.938362,-0.241293 z m 3.387052,0.486271 c 0,-0.495348 0.100473,-0.742272 1.179659,-2.899209 0.64881,-1.29676 1.179658,-2.468694 1.179658,-2.604292 v -0.24655 h -1.572878 -1.572879 v -0.39322 -0.393219 h 1.966099 1.966098 v 0.836379 0.836379 l -1.179659,2.357743 c -0.835088,1.66906 -1.179659,2.458475 -1.179659,2.702599 0,0.336791 -0.0092,0.344852 -0.393219,0.344852 h -0.39322 z m 9.244675,0.283991 c -0.489229,-0.411661 -0.59384,-0.712931 -0.59384,-1.710209 0,-0.913366 0.0661,-1.15527 0.42264,-1.546721 l 0.201461,-0.221183 -0.201461,-0.221188 c -0.346213,-0.380105 -0.422654,-0.628076 -0.422275,-1.369807 3.92e-4,-0.826945 0.187453,-1.235814 0.711442,-1.555296 0.464449,-0.283176 2.044125,-0.283176 2.508574,0 0.523994,0.319482 0.711024,0.728351 0.711447,1.555296 3.92e-4,0.741731 -0.07607,0.989702 -0.422275,1.369807 l -0.201461,0.221188 0.201461,0.221183 c 0.35654,0.391451 0.42264,0.633355 0.42264,1.546721 0,0.997278 -0.104611,1.298548 -0.59384,1.710209 -0.288939,0.243128 -0.365393,0.257471 -1.372259,0.257471 -1.006861,0 -1.083315,-0.01435 -1.372254,-0.257471 z m 2.310621,-0.770262 c 0.210816,-0.210816 0.241293,-0.329338 0.241293,-0.938366 0,-0.609024 -0.03046,-0.727546 -0.241293,-0.938362 -0.210816,-0.210821 -0.329339,-0.241293 -0.938367,-0.241293 -0.609028,0 -0.727546,0.03046 -0.938362,0.241293 -0.21082,0.210816 -0.241297,0.329338 -0.241297,0.938362 0,0.609028 0.03046,0.72755 0.241297,0.938366 0.210816,0.210821 0.329334,0.241293 0.938362,0.241293 0.609028,0 0.727551,-0.03046 0.938367,-0.241293 z m -0.09294,-3.238699 c 0.307591,-0.307596 0.334234,-0.38239 0.334234,-0.938366 0,-0.510347 -0.03746,-0.641583 -0.241293,-0.845422 -0.210816,-0.210816 -0.329339,-0.241293 -0.938367,-0.241293 -0.609028,0 -0.727546,0.03046 -0.938362,0.241293 -0.203838,0.203839 -0.241297,0.335075 -0.241297,0.845422 0,0.555976 0.02663,0.63077 0.334238,0.938366 0.294411,0.294411 0.395148,0.334238 0.845421,0.334238 0.450278,0 0.551015,-0.03984 0.845426,-0.334238 z m 3.287393,4.008961 c -0.363557,-0.305914 -0.59384,-0.718812 -0.59384,-1.06476 0,-0.226885 0.03729,-0.250648 0.39322,-0.250648 0.289132,0 0.393219,0.04024 0.393219,0.151927 0,0.08356 0.108582,0.260508 0.241293,0.393219 0.210821,0.210821 0.329339,0.241293 0.938367,0.241293 0.609028,0 0.727546,-0.03046 0.938366,-0.241293 0.222482,-0.222482 0.241293,-0.314441 0.241293,-1.179659 v -0.938362 h -1.122962 c -1.068027,0 -1.137935,-0.01259 -1.428956,-0.257476 -0.491593,-0.413646 -0.59388,-0.71153 -0.59347,-1.728319 3.91e-4,-1.037519 0.151336,-1.408824 0.711442,-1.750326 0.264128,-0.16104 0.496004,-0.195408 1.320471,-0.195712 0.935729,-3.92e-4 1.019773,0.0162 1.306075,0.257106 0.577054,0.485562 0.59384,0.578309 0.59384,3.281507 0,2.703198 -0.01677,2.795941 -0.59384,3.281503 -0.288943,0.243128 -0.365398,0.257471 -1.372259,0.257471 -1.006862,0 -1.083316,-0.01435 -1.372259,-0.257471 z m 2.551918,-4.613089 c 0,-0.865214 -0.0188,-0.957178 -0.241293,-1.17966 -0.21082,-0.210816 -0.329338,-0.241293 -0.938366,-0.241293 -0.609028,0 -0.727546,0.03046 -0.938367,0.241293 -0.210816,0.210816 -0.241293,0.329339 -0.241293,0.938367 0,0.609028 0.03046,0.727546 0.241293,0.938362 0.222487,0.222486 0.314446,0.241297 1.17966,0.241297 h 0.938366 z m 2.953159,4.613089 c -0.577058,-0.485562 -0.59384,-0.578305 -0.59384,-3.281503 0,-2.703198 0.01677,-2.795945 0.59384,-3.281507 0.288939,-0.243129 0.365394,-0.257471 1.372259,-0.257471 1.006862,0 1.083316,0.01435 1.372255,0.257471 0.577059,0.485562 0.59384,0.578309 0.59384,3.281507 0,2.703198 -0.01677,2.795941 -0.59384,3.281503 -0.288939,0.243128 -0.365393,0.257471 -1.372255,0.257471 -1.006865,0 -1.08332,-0.01435 -1.372259,-0.257471 z m 2.31062,-0.770262 0.241293,-0.241293 V 84.139593 81.86964 L 70.9583,81.628347 c -0.210816,-0.210816 -0.329338,-0.241293 -0.938362,-0.241293 -0.609028,0 -0.72755,0.03046 -0.938366,0.241293 l -0.241293,0.241293 v 2.269953 2.269948 l 0.241293,0.241293 c 0.210816,0.210821 0.329338,0.241293 0.938366,0.241293 0.609024,0 0.727546,-0.03046 0.938362,-0.241293 z m 2.600612,0.634513 v -0.39322 h 0.78644 0.78644 V 84.363854 81.83558 l -0.568105,0.562174 c -0.698799,0.691509 -1.004775,0.749782 -1.004775,0.191363 0,-0.333794 0.08117,-0.451559 0.813069,-1.17966 0.726745,-0.722967 0.85199,-0.808842 1.17966,-0.808842 h 0.36659 v 3.145758 3.145754 h 0.78644 0.78644 v 0.39322 0.39322 h -1.966099 -1.9661 z m 5.505078,-0.250643 c 0,-0.369474 0.05997,-0.756989 0.140723,-0.909321 0.0774,-0.146001 0.785198,-0.906322 1.572879,-1.689605 l 1.432157,-1.424149 v -0.570996 c 0,-0.475164 -0.0405,-0.611485 -0.241298,-0.812286 -0.210816,-0.210816 -0.329334,-0.241293 -0.938362,-0.241293 -0.609028,0 -0.72755,0.03046 -0.938366,0.241293 -0.132711,0.132711 -0.241293,0.30966 -0.241293,0.39322 0,0.111712 -0.104088,0.151927 -0.39322,0.151927 -0.356584,0 -0.39322,-0.02351 -0.39322,-0.252228 0,-0.32403 0.145477,-0.602724 0.522603,-1.001161 l 0.302405,-0.31949 h 1.141091 1.141091 l 0.302401,0.31949 c 0.166322,0.175721 0.351949,0.416116 0.412506,0.534216 0.161929,0.315801 0.140323,1.85157 -0.0306,2.174049 -0.07738,0.146002 -0.740938,0.862049 -1.474577,1.591211 -0.733634,0.729161 -1.333884,1.403779 -1.333884,1.49915 0,0.157953 0.131328,0.173396 1.474572,0.173396 h 1.474576 v 0.39322 0.39322 H 81.03008 79.063981 Z m 6.098918,0.386392 c -0.489234,-0.411661 -0.593845,-0.712931 -0.593845,-1.710209 0,-0.913366 0.0661,-1.15527 0.42264,-1.546721 l 0.201461,-0.221183 -0.201461,-0.221188 c -0.346208,-0.380105 -0.422649,-0.628076 -0.42227,-1.369807 3.92e-4,-0.826945 0.187453,-1.235814 0.711442,-1.555296 0.464449,-0.283176 2.044125,-0.283176 2.508574,0 0.523994,0.319482 0.711024,0.728351 0.711447,1.555296 3.92e-4,0.741731 -0.07607,0.989702 -0.422275,1.369807 l -0.201461,0.221188 0.201461,0.221183 c 0.35654,0.391451 0.42264,0.633355 0.42264,1.546721 0,0.997278 -0.104611,1.298548 -0.59384,1.710209 -0.288939,0.243128 -0.365393,0.257471 -1.372259,0.257471 -1.006861,0 -1.083316,-0.01435 -1.372254,-0.257471 z m 2.310621,-0.770262 c 0.210816,-0.210816 0.241293,-0.329338 0.241293,-0.938366 0,-0.609024 -0.03046,-0.727546 -0.241293,-0.938362 -0.210816,-0.210821 -0.329339,-0.241293 -0.938367,-0.241293 -0.609028,0 -0.727546,0.03046 -0.938362,0.241293 -0.21082,0.210816 -0.241297,0.329338 -0.241297,0.938362 0,0.609028 0.03046,0.72755 0.241297,0.938366 0.210816,0.210821 0.329334,0.241293 0.938362,0.241293 0.609028,0 0.727551,-0.03046 0.938367,-0.241293 z m -0.09294,-3.238699 c 0.307591,-0.307596 0.334234,-0.38239 0.334234,-0.938366 0,-0.510347 -0.03746,-0.641583 -0.241293,-0.845422 -0.210816,-0.210816 -0.329339,-0.241293 -0.938367,-0.241293 -0.609028,0 -0.727546,0.03046 -0.938362,0.241293 -0.203838,0.203839 -0.241297,0.335075 -0.241297,0.845422 0,0.555976 0.02663,0.63077 0.334238,0.938366 0.294411,0.294411 0.395148,0.334238 0.845421,0.334238 0.450278,0 0.551015,-0.03984 0.845426,-0.334238 z M 16.935277,62.463356 v -9.666265 h 0.393219 0.39322 v 9.666265 21.283017 h -0.39322 -0.393219 z m 1.572879,0 v -9.666265 h 0.39322 0.39322 v 9.666265 21.283017 h -0.39322 -0.39322 z m 34.603334,0 v -9.666265 h 0.39322 0.39322 v 9.666265 21.283017 h -0.39322 -0.39322 z m 1.57288,0 v -9.666265 h 0.393219 0.39322 v 9.666265 21.283017 h -0.39322 -0.393219 z m 34.603331,0 v -9.666265 h 0.39322 0.39322 v 9.666265 21.283017 h -0.39322 -0.39322 z m 1.572879,0 v -9.666265 h 0.39322 0.39322 v 9.666265 21.283017 H 91.2538 90.86058 Z M 20.867475,60.497257 v -7.700166 h 0.39322 0.39322 v 7.700166 19.316918 h -0.39322 -0.39322 z m 2.359319,0 v -7.700166 h 0.786439 0.78644 v 7.700166 19.316918 h -0.78644 -0.786439 z m 2.359319,0 v -7.700166 h 1.572879 1.572879 v 7.700166 19.316918 h -1.572879 -1.572879 z m 3.932198,0 v -7.700166 h 0.39322 0.39322 v 7.700166 19.316918 h -0.39322 -0.39322 z m 2.359315,0 v -7.700166 h 1.179659 1.17966 v 7.700166 19.316918 h -1.17966 -1.179659 z m 3.145758,0 v -7.700166 h 0.39322 0.39322 v 7.700166 19.316918 h -0.39322 -0.39322 z m 1.572879,0 v -7.700166 h 0.78644 0.78644 v 7.700166 19.316918 h -0.78644 -0.78644 z m 3.932199,0 v -7.700166 h 0.39322 0.393219 v 7.700166 19.316918 h -0.393219 -0.39322 z m 3.932194,0 v -7.700166 h 0.393219 0.39322 v 7.700166 19.316918 h -0.39322 -0.393219 z m 1.572879,0 v -7.700166 h 0.39322 0.393219 v 7.700166 19.316918 h -0.393219 -0.39322 z m 2.359319,0 v -7.700166 h 0.39322 0.393219 v 7.700166 19.316918 h -0.393219 -0.39322 z m 3.145757,0 v -7.700166 h 0.39322 0.39322 v 7.700166 19.316918 h -0.39322 -0.39322 z m 4.718638,0 v -7.700166 h 0.39322 0.39322 v 7.700166 19.316918 h -0.39322 -0.39322 z m 2.359314,0 v -7.700166 h 0.39322 0.39322 v 7.700166 19.316918 h -0.39322 -0.39322 z m 3.145759,0 v -7.700166 h 1.17966 1.179659 v 7.700166 19.316918 h -1.179659 -1.17966 z m 3.145759,0 v -7.700166 h 0.393219 0.39322 v 7.700166 19.316918 H 65.3013 64.908081 Z m 2.359319,0 v -7.700166 h 1.179659 1.17966 v 7.700166 19.316918 H 68.447059 67.2674 Z m 3.932193,0 v -7.700166 h 0.39322 0.39322 v 7.700166 19.316918 h -0.39322 -0.39322 z m 1.57288,0 v -7.700166 h 0.786439 0.78644 v 7.700166 19.316918 h -0.78644 -0.786439 z m 3.145758,0 v -7.700166 h 0.78644 0.78644 v 7.700166 19.316918 h -0.78644 -0.78644 z m 2.359319,0 v -7.700166 h 0.78644 0.78644 v 7.700166 19.316918 h -0.78644 -0.78644 z m 2.359319,0 v -7.700166 h 0.78644 0.78644 v 7.700166 19.316918 h -0.78644 -0.78644 z m 3.145754,0 v -7.700166 h 0.39322 0.39322 v 7.700166 19.316918 h -0.39322 -0.39322 z m 2.359319,0 v -7.700166 h 0.39322 0.39322 v 7.700166 19.316918 h -0.39322 -0.39322 z"
       style="fill:#000000;stroke-width:0.09830493" />
    <path
       id="rect829"
       d="m 11.505859,11.542969 v 8 8 h 5.347657 v 21.339843 h 0.08203 v 3.66211 h 74.642578 v -8 -8 h -8 v 8 H 78.25 v -8 h -8 v 8 h -5.328125 v -8 h -8 v 8 h -5.330078 v -8 h -8 v 8 H 40.814453 V 27.542969 h 5.347656 v -8 -8 h -8 v 8 h -5.328125 v -8 h -8 v 8 h -5.328125 v -8 z"
       style="opacity:1;vector-effect:none;fill:#000000;fill-opacity:1;stroke:none;stroke-width:1.35337067;stroke-linecap:round;stroke-linejoin:round;stroke-miterlimit:4;stroke-dasharray:none;stroke-dashoffset:0;stroke-opacity:1;paint-order:markers fill stroke" />
  </g>
  <g
     style="display:none"
     id="layer2">
    <path
       id="path31"
       d="M 12.295827,92.989568 C 8.0113666,91.500662 4.3712474,88.22393 2.2778266,83.97166 -0.00592503,79.332781 0.00418377,79.460473 2.6065892e-5,55.201166 -0.00211033,42.691574 0.12729797,32.817225 0.30796747,31.705261 0.79418317,28.712811 2.5332593,25.532308 4.8623579,23.375967 8.5465846,19.965026 11.538194,19.078211 19.360555,19.078211 h 5.487694 l 0.140886,-3.756151 c 0.09803,-2.613343 0.298232,-4.055234 0.658053,-4.739186 0.755564,-1.4361913 2.887991,-3.2392583 4.292075,-3.6291519 0.79728,-0.2213911 7.77857,-0.3397813 20.105024,-0.3409445 21.36934,-0.00214 20.860786,-0.054253 23.097768,2.3725857 1.501186,1.6285917 1.973527,3.3976227 1.973527,7.3913697 v 2.701478 h 5.520772 c 7.929102,0 11.009252,0.944463 14.81936,4.54406 2.11443,1.997612 3.83217,5.373606 4.28861,8.428738 0.22132,1.481335 0.301136,9.933937 0.23092,24.454921 -0.0986,20.387063 -0.15438,22.334076 -0.68641,23.949338 -1.73958,5.281405 -5.14197,9.417875 -9.598623,11.669555 l -2.52783,1.277167 -36.632008,0.07225 C 16.421084,93.5415 13.788002,93.50811 12.295827,92.989573 Z M 56.734432,81.997255 c 5.543769,-1.266041 11.514756,-5.061146 15.08902,-9.59045 4.442893,-5.630011 6.418967,-11.76001 6.061688,-18.804001 C 77.65725,49.109712 77.121783,47.030766 75.126887,42.893786 66.838605,25.705745 44.317269,21.679921 30.588407,34.932269 26.533895,38.846049 23.62637,44.18 22.506801,49.758239 c -0.72242,3.599447 -0.491008,9.439175 0.498839,12.58814 2.662545,8.470294 7.78786,14.451558 15.50748,18.09729 1.781148,0.841177 6.510877,2.072448 9.11066,2.371735 1.992807,0.229415 6.163608,-0.14513 9.110652,-0.818149 z M 44.601068,76.105536 C 38.410374,74.608492 32.523087,69.542053 30.019001,63.556609 27.598499,57.770948 27.563417,52.337481 29.909296,46.56424 c 2.034497,-5.006927 6.622412,-9.602486 11.803827,-11.823503 1.800122,-0.771618 6.097658,-1.596951 8.315394,-1.596951 1.975934,0 5.770086,0.692492 7.814767,1.426314 2.504404,0.89882 5.969415,3.309907 8.165457,5.681836 3.479575,3.758261 5.915248,9.751344 5.907709,14.536162 -0.0063,3.947902 -1.492886,8.814487 -3.739408,12.240939 -2.712475,4.137127 -8.160152,7.978203 -12.899606,9.095305 -2.581693,0.608516 -8.122595,0.598757 -10.676363,-0.0188 z m 10.535003,-9.894701 c 2.673495,-1.302033 5.293634,-3.971289 6.259424,-6.376782 0.623143,-1.552058 0.769539,-2.492109 0.771252,-4.95256 0.0021,-2.753004 -0.09308,-3.237839 -1.016252,-5.186608 -2.799443,-5.909488 -9.431764,-8.610945 -15.514821,-6.319445 -9.252332,3.485375 -10.748962,16.161361 -2.572355,21.787017 2.429163,1.671305 4.361991,2.214828 7.437508,2.091476 2.211181,-0.0887 3.074414,-0.282952 4.635244,-1.043098 z"
       style="fill:#808080;stroke-width:0.31967217" />
  </g>
  <g
     id="layer3">
    <circle
       r="18.893665"
       cy="21.965715"
       cx="73.488602"
       id="path828"
       style="opacity:1;vector-effect:none;fill:#00aad4;fill-opacity:1;stroke:#ffffff;stroke-width:0.29339254;stroke-linecap:round;stroke-linejoin:round;stroke-miterlimit:4;stroke-dasharray:none;stroke-dashoffset:0;stroke-opacity:1;paint-order:markers fill stroke" />
    <rect
       transform="rotate(15)"
       ry="2.2868907"
       y="29.397738"
       x="65.93853"
       height="41.016094"
       width="41.016094"
       id="rect832"
       style="opacity:1;vector-effect:none;fill:#000080;fill-opacity:1;stroke:#ffffff;stroke-width:0.11684565;stroke-linecap:round;stroke-linejoin:round;stroke-miterlimit:4;stroke-dasharray:none;stroke-dashoffset:0;stroke-opacity:1;paint-order:markers fill stroke" />
    <path
       transform="rotate(60,36.257063,75.636414)"
       d="M 8.420691,76.348347 C 8.1140941,76.654944 -7.1555373,70.970791 -7.5837925,71.03862 c -0.4282552,0.06783 -13.1940375,10.192355 -13.5803725,9.995508 -0.386334,-0.196847 0.301041,-16.47563 0.104193,-16.861964 -0.196847,-0.386335 -13.770687,-9.398665 -13.702858,-9.82692 0.06783,-0.428255 15.762281,-4.804943 16.068878,-5.11154 0.306597,-0.306597 4.683285,-16.001049 5.11154,-16.068878 0.428255,-0.06783 9.4405851,13.506011 9.8269197,13.702859 0.3863346,0.196847 16.6651163,-0.490528 16.8619643,-0.104194 0.196847,0.386335 -9.9276791,13.152118 -9.9955081,13.580373 -0.067829,0.428255 5.6163239,15.697886 5.3097271,16.004483 z"
       id="path834"
       style="opacity:1;vector-effect:none;fill:#ffcc00;fill-opacity:1;stroke:#ffffff;stroke-width:0.2;stroke-linecap:round;stroke-linejoin:round;stroke-miterlimit:4;stroke-dasharray:none;stroke-dashoffset:0;stroke-opacity:1;paint-order:markers fill stroke" />
    <image
       clip-path="url(#clipPath889)"
       width="53.473"
       height="40"
       preserveAspectRatio="none"
       xlink:href="file:///home/daniele/hack/git/barot/pwa-barot/src/assets/tree.png"
       id="image849"
       x="-27"
       y="-20" />
    <use
       height="100%"
       width="100%"
       transform="translate(-2.3991123,36.61803)"
       id="use929"
       xlink:href="#image849"
       y="0"
       x="0" />
    <text
       id="text912"
       y="133.58757"
       x="-17.425131"
       style="font-style:normal;font-variant:normal;font-weight:normal;font-stretch:normal;font-size:40px;line-height:1.25;font-family:'Alice in Wonderland';-inkscape-font-specification:'Alice in Wonderland, Normal';font-variant-ligatures:normal;font-variant-caps:normal;font-variant-numeric:normal;font-feature-settings:normal;text-align:start;letter-spacing:0px;word-spacing:0px;writing-mode:lr-tb;text-anchor:start;fill:#000000;fill-opacity:1;stroke:none"
       xml:space="preserve"><tspan
         y="133.58757"
         x="-17.425131"
         id="tspan910">Alice a Lucca</tspan></text>
  </g>
</svg>
