<?xml version="1.0" encoding="UTF-8" standalone="no"?>
<svg
   xmlns:dc="http://purl.org/dc/elements/1.1/"
   xmlns:cc="http://creativecommons.org/ns#"
   xmlns:rdf="http://www.w3.org/1999/02/22-rdf-syntax-ns#"
   xmlns:svg="http://www.w3.org/2000/svg"
   xmlns="http://www.w3.org/2000/svg"
   xmlns:xlink="http://www.w3.org/1999/xlink"
   id="svg821"
   version="1.1"
   viewBox="0 0 100 100"
   height="100"
   width="100">
  <defs
     id="defs815">
    <clipPath
       id="clipPath889"
       clipPathUnits="userSpaceOnUse">
      <path
         id="path891"
         d="m -1.5152288,16.662415 -8.0812203,-0.505076 -0.8838839,-3.661803 0.8838839,-2.6516503 -8.7125659,2.0203053 -5.555839,-4.0406102 -2.525382,-8.08122026 0.12627,-6.81852964 7.828683,-6.5659919 5.934645,-5.3033 13.00571427,0.378807 7.07106783,-0.757614 4.7982249,2.146574 0.808561,3.370743 3.105779,1.806288 6.81853,4.4194176 3.030458,8.20748942 -1.515229,4.67195548 -2.584537,0.1707136 -0.445921,3.4910891 -10.606601,3.1567268 -7.323606,4.166879 -0.1262691,3.661803 -4.5456865,0.378808 z"
         style="fill:none;stroke:#000000;stroke-width:1px;stroke-linecap:butt;stroke-linejoin:miter;stroke-opacity:1" />
    </clipPath>
  </defs>
  <metadata
     id="metadata818">
    <rdf:RDF>
      <cc:Work
         rdf:about="">
        <dc:format>image/svg+xml</dc:format>
        <dc:type
           rdf:resource="http://purl.org/dc/dcmitype/StillImage" />
        <dc:title></dc:title>
      </cc:Work>
    </rdf:RDF>
  </metadata>
  <g
     style="display:none"
     id="layer1">
    <rect
       ry="0"
       y="0"
       x="0"
       height="100"
       width="100"
       id="rect812"
       style="opacity:1;vector-effect:none;fill:#ffe680;fill-opacity:1;stroke:none;stroke-width:7.88732386;stroke-linecap:round;stroke-linejoin:round;stroke-miterlimit:4;stroke-dasharray:none;stroke-dashoffset:0;stroke-opacity:1;paint-order:markers fill stroke" />
    <rect
       style="opacity:1;vector-effect:none;fill:#ffeeaa;fill-opacity:1;stroke:none;stroke-width:7.23943663;stroke-linecap:round;stroke-linejoin:round;stroke-miterlimit:4;stroke-dasharray:none;stroke-dashoffset:0;stroke-opacity:1;paint-order:markers fill stroke"
       id="rect814"
       width="91.785713"
       height="91.785713"
       x="4.1071429"
       y="4.1071429"
       ry="13.75" />
    <path
       id="path827"
       d="m 9.0708858,87.285347 v -0.39322 H 9.8573254 10.643765 V 84.363854 81.83558 l -0.568104,0.562174 c -0.6987996,0.691509 -1.0047752,0.749782 -1.0047752,0.191363 0,-0.333794 0.081165,-0.451559 0.813069,-1.17966 C 10.6107,80.68649 10.735944,80.600615 11.063614,80.600615 h 0.366591 v 3.145758 3.145754 h 0.78644 0.786438 v 0.39322 0.39322 H 11.036985 9.0708858 Z M 20.081035,87.034704 c 0,-0.369474 0.05997,-0.756989 0.140728,-0.909321 0.0774,-0.146001 0.785194,-0.906322 1.572875,-1.689605 l 1.432156,-1.424149 v -0.570996 c 0,-0.475164 -0.0405,-0.611485 -0.241298,-0.812286 -0.210816,-0.210816 -0.329334,-0.241293 -0.938362,-0.241293 -0.609028,0 -0.72755,0.03046 -0.938366,0.241293 -0.132711,0.132711 -0.241293,0.30966 -0.241293,0.39322 0,0.111712 -0.104087,0.151927 -0.39322,0.151927 -0.356584,0 -0.39322,-0.02351 -0.39322,-0.252228 0,-0.32403 0.145478,-0.602724 0.522603,-1.001161 l 0.302405,-0.31949 h 1.141091 1.141092 l 0.3024,0.31949 c 0.166323,0.175721 0.351949,0.416116 0.412507,0.534216 0.161928,0.315801 0.140322,1.85157 -0.0306,2.174049 -0.07738,0.146002 -0.740938,0.862049 -1.474577,1.591211 -0.733634,0.729161 -1.333884,1.403779 -1.333884,1.49915 0,0.157953 0.131329,0.173396 1.474572,0.173396 h 1.474577 v 0.39322 0.39322 h -1.966099 -1.9661 z m 6.098918,0.386392 c -0.363557,-0.305914 -0.59384,-0.718812 -0.59384,-1.06476 0,-0.226885 0.03729,-0.250648 0.39322,-0.250648 0.289132,0 0.393219,0.04024 0.393219,0.151927 0,0.08356 0.108582,0.260508 0.241293,0.393219 0.210816,0.210821 0.329339,0.241293 0.938367,0.241293 0.609028,0 0.727546,-0.03046 0.938362,-0.241293 0.21082,-0.210816 0.241297,-0.329338 0.241297,-0.938366 0,-0.609024 -0.03046,-0.727546 -0.241297,-0.938362 -0.222482,-0.222487 -0.314441,-0.241293 -1.179659,-0.241293 h -0.938363 v -0.39322 -0.39322 h 0.938363 c 0.865218,0 0.957177,-0.0188 1.179659,-0.241297 0.21082,-0.210816 0.241297,-0.329334 0.241297,-0.938362 0,-0.609028 -0.03046,-0.727551 -0.241297,-0.938367 -0.210816,-0.210816 -0.329334,-0.241293 -0.938362,-0.241293 -0.609028,0 -0.727551,0.03046 -0.938367,0.241293 -0.132711,0.132711 -0.241293,0.30966 -0.241293,0.39322 0,0.111712 -0.104087,0.151927 -0.393219,0.151927 -0.355942,0 -0.39322,-0.02377 -0.39322,-0.250644 0,-0.345952 0.230283,-0.75885 0.59384,-1.064764 0.288939,-0.243129 0.365397,-0.257471 1.372259,-0.257471 1.006861,0 1.083316,0.01435 1.372254,0.257471 0.476282,0.400765 0.593845,0.719864 0.593845,1.611901 0,0.817973 -0.07146,1.06285 -0.42264,1.448418 l -0.201461,0.221188 0.201461,0.221183 c 0.351182,0.385573 0.42264,0.63045 0.42264,1.448419 0,0.892037 -0.117563,1.211135 -0.593845,1.611901 -0.288938,0.243128 -0.365393,0.257471 -1.372254,0.257471 -1.006862,0 -1.08332,-0.01435 -1.372259,-0.257471 z m 8.056992,-1.315408 v -1.572875 h -1.57288 -1.572875 v -1.966099 -1.966099 h 0.393216 0.39322 v 1.572879 1.572879 h 1.179659 1.17966 v -1.572879 -1.572879 h 0.393219 0.39322 v 3.538978 3.538974 h -0.39322 -0.393219 z m 2.359318,1.179659 v -0.39322 h 1.331587 c 1.282708,0 1.340439,-0.0088 1.572879,-0.241293 0.210816,-0.210816 0.241293,-0.329338 0.241293,-0.938366 0,-0.609024 -0.03046,-0.727546 -0.241293,-0.938362 -0.23244,-0.232436 -0.290171,-0.241293 -1.572879,-0.241293 h -1.331587 v -1.966099 -1.966099 h 1.9661 1.966099 v 0.393219 0.39322 h -1.57288 -1.572879 v 1.17966 1.179659 h 1.122963 c 1.068026,0 1.137934,0.01259 1.428955,0.257471 0.489036,0.411499 0.593841,0.713045 0.593841,1.708624 0,0.995583 -0.104805,1.29713 -0.593841,1.708628 -0.301155,0.253403 -0.329945,0.257471 -1.822175,0.257471 h -1.516183 z m 6.098918,0.135749 c -0.577059,-0.485562 -0.59384,-0.578305 -0.59384,-3.281503 0,-2.703198 0.01677,-2.795945 0.59384,-3.281507 0.288939,-0.243129 0.365393,-0.257471 1.372259,-0.257471 1.006862,0 1.083316,0.01435 1.372255,0.257471 0.363561,0.305914 0.59384,0.718812 0.59384,1.064764 0,0.22688 -0.03729,0.250644 -0.39322,0.250644 -0.289132,0 -0.39322,-0.04024 -0.39322,-0.151927 0,-0.08356 -0.108582,-0.260509 -0.241293,-0.39322 -0.210816,-0.210816 -0.329338,-0.241293 -0.938362,-0.241293 -0.609028,0 -0.72755,0.03046 -0.938366,0.241293 -0.222487,0.222482 -0.241293,0.314446 -0.241293,1.17966 v 0.938366 h 1.122962 c 1.068027,0 1.137935,0.01259 1.428952,0.257471 0.491597,0.413651 0.593884,0.711531 0.593474,1.72832 -3.91e-4,1.037519 -0.151341,1.408828 -0.711446,1.750326 -0.264128,0.161039 -0.496005,0.195408 -1.320471,0.195712 -0.93573,3.91e-4 -1.019773,-0.0162 -1.306071,-0.257106 z m 2.310621,-0.770262 c 0.210821,-0.210816 0.241293,-0.329338 0.241293,-0.938366 0,-0.609024 -0.03046,-0.727546 -0.241293,-0.938362 -0.222482,-0.222487 -0.314441,-0.241293 -1.179659,-0.241293 h -0.938362 v 0.938362 c 0,0.865218 0.0188,0.957177 0.241293,1.179659 0.210816,0.210821 0.329338,0.241293 0.938366,0.241293 0.609024,0 0.727546,-0.03046 0.938362,-0.241293 z m 3.387052,0.486271 c 0,-0.495348 0.100473,-0.742272 1.179659,-2.899209 0.64881,-1.29676 1.179658,-2.468694 1.179658,-2.604292 v -0.24655 h -1.572878 -1.572879 v -0.39322 -0.393219 h 1.966099 1.966098 v 0.836379 0.836379 l -1.179659,2.357743 c -0.835088,1.66906 -1.179659,2.458475 -1.179659,2.702599 0,0.336791 -0.0092,0.344852 -0.393219,0.344852 h -0.39322 z m 9.244675,0.283991 c -0.489229,-0.411661 -0.59384,-0.712931 -0.59384,-1.710209 0,-0.913366 0.0661,-1.15527 0.42264,-1.546721 l 0.201461,-0.221183 -0.201461,-0.221188 c -0.346213,-0.380105 -0.422654,-0.628076 -0.422275,-1.369807 3.92e-4,-0.826945 0.187453,-1.235814 0.711442,-1.555296 0.464449,-0.283176 2.044125,-0.283176 2.508574,0 0.523994,0.319482 0.711024,0.728351 0.711447,1.555296 3.92e-4,0.741731 -0.07607,0.989702 -0.422275,1.369807 l -0.201461,0.221188 0.201461,0.221183 c 0.35654,0.391451 0.42264,0.633355 0.42264,1.546721 0,0.997278 -0.104611,1.298548 -0.59384,1.710209 -0.288939,0.243128 -0.365393,0.257471 -1.372259,0.257471 -1.006861,0 -1.083315,-0.01435 -1.372254,-0.257471 z m 2.310621,-0.770262 c 0.210816,-0.210816 0.241293,-0.329338 0.241293,-0.938366 0,-0.609024 -0.03046,-0.727546 -0.241293,-0.938362 -0.210816,-0.210821 -0.329339,-0.241293 -0.938367,-0.241293 -0.609028,0 -0.727546,0.03046 -0.938362,0.241293 -0.21082,0.210816 -0.241297,0.329338 -0.241297,0.938362 0,0.609028 0.03046,0.72755 0.241297,0.938366 0.210816,0.210821 0.329334,0.241293 0.938362,0.241293 0.609028,0 0.727551,-0.03046 0.938367,-0.241293 z m -0.09294,-3.238699 c 0.307591,-0.307596 0.334234,-0.38239 0.334234,-0.938366 0,-0.510347 -0.03746,-0.641583 -0.241293,-0.845422 -0.210816,-0.210816 -0.329339,-0.241293 -0.938367,-0.241293 -0.609028,0 -0.727546,0.03046 -0.938362,0.241293 -0.203838,0.203839 -0.241297,0.335075 -0.241297,0.845422 0,0.555976 0.02663,0.63077 0.334238,0.938366 0.294411,0.294411 0.395148,0.334238 0.845421,0.334238 0.450278,0 0.551015,-0.03984 0.845426,-0.334238 z m 3.287393,4.008961 c -0.363557,-0.305914 -0.59384,-0.718812 -0.59384,-1.06476 0,-0.226885 0.03729,-0.250648 0.39322,-0.250648 0.289132,0 0.393219,0.04024 0.393219,0.151927 0,0.08356 0.108582,0.260508 0.241293,0.393219 0.210821,0.210821 0.329339,0.241293 0.938367,0.241293 0.609028,0 0.727546,-0.03046 0.938366,-0.241293 0.222482,-0.222482 0.241293,-0.314441 0.241293,-1.179659 v -0.938362 h -1.122962 c -1.068027,0 -1.137935,-0.01259 -1.428956,-0.257476 -0.491593,-0.413646 -0.59388,-0.71153 -0.59347,-1.728319 3.91e-4,-1.037519 0.151336,-1.408824 0.711442,-1.750326 0.264128,-0.16104 0.496004,-0.195408 1.320471,-0.195712 0.935729,-3.92e-4 1.019773,0.0162 1.306075,0.257106 0.577054,0.485562 0.59384,0.578309 0.59384,3.281507 0,2.703198 -0.01677,2.795941 -0.59384,3.281503 -0.288943,0.243128 -0.365398,0.257471 -1.372259,0.257471 -1.006862,0 -1.083316,-0.01435 -1.372259,-0.257471 z m 2.551918,-4.613089 c 0,-0.865214 -0.0188,-0.957178 -0.241293,-1.17966 -0.21082,-0.210816 -0.329338,-0.241293 -0.938366,-0.241293 -0.609028,0 -0.727546,0.03046 -0.938367,0.241293 -0.210816,0.210816 -0.241293,0.329339 -0.241293,0.938367 0,0.609028 0.03046,0.727546 0.241293,0.938362 0.222487,0.222486 0.314446,0.241297 1.17966,0.241297 h 0.938366 z m 2.953159,4.613089 c -0.577058,-0.485562 -0.59384,-0.578305 -0.59384,-3.281503 0,-2.703198 0.01677,-2.795945 0.59384,-3.281507 0.288939,-0.243129 0.365394,-0.257471 1.372259,-0.257471 1.006862,0 1.083316,0.01435 1.372255,0.257471 0.577059,0.485562 0.59384,0.578309 0.59384,3.281507 0,2.703198 -0.01677,2.795941 -0.59384,3.281503 -0.288939,0.243128 -0.365393,0.257471 -1.372255,0.257471 -1.006865,0 -1.08332,-0.01435 -1.372259,-0.257471 z m 2.31062,-0.770262 0.241293,-0.241293 V 84.139593 81.86964 L 70.9583,81.628347 c -0.210816,-0.210816 -0.329338,-0.241293 -0.938362,-0.241293 -0.609028,0 -0.72755,0.03046 -0.938366,0.241293 l -0.241293,0.241293 v 2.269953 2.269948 l 0.241293,0.241293 c 0.210816,0.210821 0.329338,0.241293 0.938366,0.241293 0.609024,0 0.727546,-0.03046 0.938362,-0.241293 z m 2.600612,0.634513 v -0.39322 h 0.78644 0.78644 V 84.363854 81.83558 l -0.568105,0.562174 c -0.698799,0.691509 -1.004775,0.749782 -1.004775,0.191363 0,-0.333794 0.08117,-0.451559 0.813069,-1.17966 0.726745,-0.722967 0.85199,-0.808842 1.17966,-0.808842 h 0.36659 v 3.145758 3.145754 h 0.78644 0.78644 v 0.39322 0.39322 h -1.966099 -1.9661 z m 5.505078,-0.250643 c 0,-0.369474 0.05997,-0.756989 0.140723,-0.909321 0.0774,-0.146001 0.785198,-0.906322 1.572879,-1.689605 l 1.432157,-1.424149 v -0.570996 c 0,-0.475164 -0.0405,-0.611485 -0.241298,-0.812286 -0.210816,-0.210816 -0.329334,-0.241293 -0.938362,-0.241293 -0.609028,0 -0.72755,0.03046 -0.938366,0.241293 -0.132711,0.132711 -0.241293,0.30966 -0.241293,0.39322 0,0.111712 -0.104088,0.151927 -0.39322,0.151927 -0.356584,0 -0.39322,-0.02351 -0.39322,-0.252228 0,-0.32403 0.145477,-0.602724 0.522603,-1.001161 l 0.302405,-0.31949 h 1.141091 1.141091 l 0.302401,0.31949 c 0.166322,0.175721 0.351949,0.416116 0.412506,0.534216 0.161929,0.315801 0.140323,1.85157 -0.0306,2.174049 -0.07738,0.146002 -0.740938,0.862049 -1.474577,1.591211 -0.733634,0.729161 -1.333884,1.403779 -1.333884,1.49915 0,0.157953 0.131328,0.173396 1.474572,0.173396 h 1.474576 v 0.39322 0.39322 H 81.03008 79.063981 Z m 6.098918,0.386392 c -0.489234,-0.411661 -0.593845,-0.712931 -0.593845,-1.710209 0,-0.913366 0.0661,-1.15527 0.42264,-1.546721 l 0.201461,-0.221183 -0.201461,-0.221188 c -0.346208,-0.380105 -0.422649,-0.628076 -0.42227,-1.369807 3.92e-4,-0.826945 0.187453,-1.235814 0.711442,-1.555296 0.464449,-0.283176 2.044125,-0.283176 2.508574,0 0.523994,0.319482 0.711024,0.728351 0.711447,1.555296 3.92e-4,0.741731 -0.07607,0.989702 -0.422275,1.369807 l -0.201461,0.221188 0.201461,0.221183 c 0.35654,0.391451 0.42264,0.633355 0.42264,1.546721 0,0.997278 -0.104611,1.298548 -0.59384,1.710209 -0.288939,0.243128 -0.365393,0.257471 -1.372259,0.257471 -1.006861,0 -1.083316,-0.01435 -1.372254,-0.257471 z m 2.310621,-0.770262 c 0.210816,-0.210816 0.241293,-0.329338 0.241293,-0.938366 0,-0.609024 -0.03046,-0.727546 -0.241293,-0.938362 -0.210816,-0.210821 -0.329339,-0.241293 -0.938367,-0.241293 -0.609028,0 -0.727546,0.03046 -0.938362,0.241293 -0.21082,0.210816 -0.241297,0.329338 -0.241297,0.938362 0,0.609028 0.03046,0.72755 0.241297,0.938366 0.210816,0.210821 0.329334,0.241293 0.938362,0.241293 0.609028,0 0.727551,-0.03046 0.938367,-0.241293 z m -0.09294,-3.238699 c 0.307591,-0.307596 0.334234,-0.38239 0.334234,-0.938366 0,-0.510347 -0.03746,-0.641583 -0.241293,-0.845422 -0.210816,-0.210816 -0.329339,-0.241293 -0.938367,-0.241293 -0.609028,0 -0.727546,0.03046 -0.938362,0.241293 -0.203838,0.203839 -0.241297,0.335075 -0.241297,0.845422 0,0.555976 0.02663,0.63077 0.334238,0.938366 0.294411,0.294411 0.395148,0.334238 0.845421,0.334238 0.450278,0 0.551015,-0.03984 0.845426,-0.334238 z M 16.935277,62.463356 v -9.666265 h 0.393219 0.39322 v 9.666265 21.283017 h -0.39322 -0.393219 z m 1.572879,0 v -9.666265 h 0.39322 0.39322 v 9.666265 21.283017 h -0.39322 -0.39322 z m 34.603334,0 v -9.666265 h 0.39322 0.39322 v 9.666265 21.283017 h -0.39322 -0.39322 z m 1.57288,0 v -9.666265 h 0.393219 0.39322 v 9.666265 21.283017 h -0.39322 -0.393219 z m 34.603331,0 v -9.666265 h 0.39322 0.39322 v 9.666265 21.283017 h -0.39322 -0.39322 z m 1.572879,0 v -9.666265 h 0.39322 0.39322 v 9.666265 21.283017 H 91.2538 90.86058 Z M 20.867475,60.497257 v -7.700166 h 0.39322 0.39322 v 7.700166 19.316918 h -0.39322 -0.39322 z m 2.359319,0 v -7.700166 h 0.786439 0.78644 v 7.700166 19.316918 h -0.78644 -0.786439 z m 2.359319,0 v -7.700166 h 1.572879 1.572879 v 7.700166 19.316918 h -1.572879 -1.572879 z m 3.932198,0 v -7.700166 h 0.39322 0.39322 v 7.700166 19.316918 h -0.39322 -0.39322 z m 2.359315,0 v -7.700166 h 1.179659 1.17966 v 7.700166 19.316918 h -1.17966 -1.179659 z m 3.145758,0 v -7.700166 h 0.39322 0.39322 v 7.700166 19.316918 h -0.39322 -0.39322 z m 1.572879,0 v -7.700166 h 0.78644 0.78644 v 7.700166 19.316918 h -0.78644 -0.78644 z m 3.932199,0 v -7.700166 h 0.39322 0.393219 v 7.700166 19.316918 h -0.393219 -0.39322 z m 3.932194,0 v -7.700166 h 0.393219 0.39322 v 7.700166 19.316918 h -0.39322 -0.393219 z m 1.572879,0 v -7.700166 h 0.39322 0.393219 v 7.700166 19.316918 h -0.393219 -0.39322 z m 2.359319,0 v -7.700166 h 0.39322 0.393219 v 7.700166 19.316918 h -0.393219 -0.39322 z m 3.145757,0 v -7.700166 h 0.39322 0.39322 v 7.700166 19.316918 h -0.39322 -0.39322 z m 4.718638,0 v -7.700166 h 0.39322 0.39322 v 7.700166 19.316918 h -0.39322 -0.39322 z m 2.359314,0 v -7.700166 h 0.39322 0.39322 v 7.700166 19.316918 h -0.39322 -0.39322 z m 3.145759,0 v -7.700166 h 1.17966 1.179659 v 7.700166 19.316918 h -1.179659 -1.17966 z m 3.145759,0 v -7.700166 h 0.393219 0.39322 v 7.700166 19.316918 H 65.3013 64.908081 Z m 2.359319,0 v -7.700166 h 1.179659 1.17966 v 7.700166 19.316918 H 68.447059 67.2674 Z m 3.932193,0 v -7.700166 h 0.39322 0.39322 v 7.700166 19.316918 h -0.39322 -0.39322 z m 1.57288,0 v -7.700166 h 0.786439 0.78644 v 7.700166 19.316918 h -0.78644 -0.786439 z m 3.145758,0 v -7.700166 h 0.78644 0.78644 v 7.700166 19.316918 h -0.78644 -0.78644 z m 2.359319,0 v -7.700166 h 0.78644 0.78644 v 7.700166 19.316918 h -0.78644 -0.78644 z m 2.359319,0 v -7.700166 h 0.78644 0.78644 v 7.700166 19.316918 h -0.78644 -0.78644 z m 3.145754,0 v -7.700166 h 0.39322 0.39322 v 7.700166 19.316918 h -0.39322 -0.39322 z m 2.359319,0 v -7.700166 h 0.39322 0.39322 v 7.700166 19.316918 h -0.39322 -0.39322 z"
       style="fill:#000000;stroke-width:0.09830493" />
    <path
       id="rect829"
       d="m 11.505859,11.542969 v 8 8 h 5.347657 v 21.339843 h 0.08203 v 3.66211 h 74.642578 v -8 -8 h -8 v 8 H 78.25 v -8 h -8 v 8 h -5.328125 v -8 h -8 v 8 h -5.330078 v -8 h -8 v 8 H 40.814453 V 27.542969 h 5.347656 v -8 -8 h -8 v 8 h -5.328125 v -8 h -8 v 8 h -5.328125 v -8 z"
       style="opacity:1;vector-effect:none;fill:#000000;fill-opacity:1;stroke:none;stroke-width:1.35337067;stroke-linecap:round;stroke-linejoin:round;stroke-miterlimit:4;stroke-dasharray:none;stroke-dashoffset:0;stroke-opacity:1;paint-order:markers fill stroke" />
    <text
       id="text912"
       y="133.58757"
       x="-17.425131"
       style="font-style:normal;font-variant:normal;font-weight:normal;font-stretch:normal;font-size:40px;line-height:1.25;font-family:'Alice in Wonderland';-inkscape-font-specification:'Alice in Wonderland, Normal';font-variant-ligatures:normal;font-variant-caps:normal;font-variant-numeric:normal;font-feature-settings:normal;text-align:start;letter-spacing:0px;word-spacing:0px;writing-mode:lr-tb;text-anchor:start;display:inline;fill:#000000;fill-opacity:1;stroke:none"
       xml:space="preserve"><tspan
         y="133.58757"
         x="-17.425131"
         id="tspan910">Alice a Lucca</tspan></text>
  </g>
  <g
     style="display:none"
     id="layer2">
    <path
       id="path31"
       d="M 12.295827,92.989568 C 8.0113666,91.500662 4.3712474,88.22393 2.2778266,83.97166 -0.00592503,79.332781 0.00418377,79.460473 2.6065892e-5,55.201166 -0.00211033,42.691574 0.12729797,32.817225 0.30796747,31.705261 0.79418317,28.712811 2.5332593,25.532308 4.8623579,23.375967 8.5465846,19.965026 11.538194,19.078211 19.360555,19.078211 h 5.487694 l 0.140886,-3.756151 c 0.09803,-2.613343 0.298232,-4.055234 0.658053,-4.739186 0.755564,-1.4361913 2.887991,-3.2392583 4.292075,-3.6291519 0.79728,-0.2213911 7.77857,-0.3397813 20.105024,-0.3409445 21.36934,-0.00214 20.860786,-0.054253 23.097768,2.3725857 1.501186,1.6285917 1.973527,3.3976227 1.973527,7.3913697 v 2.701478 h 5.520772 c 7.929102,0 11.009252,0.944463 14.81936,4.54406 2.11443,1.997612 3.83217,5.373606 4.28861,8.428738 0.22132,1.481335 0.301136,9.933937 0.23092,24.454921 -0.0986,20.387063 -0.15438,22.334076 -0.68641,23.949338 -1.73958,5.281405 -5.14197,9.417875 -9.598623,11.669555 l -2.52783,1.277167 -36.632008,0.07225 C 16.421084,93.5415 13.788002,93.50811 12.295827,92.989573 Z M 56.734432,81.997255 c 5.543769,-1.266041 11.514756,-5.061146 15.08902,-9.59045 4.442893,-5.630011 6.418967,-11.76001 6.061688,-18.804001 C 77.65725,49.109712 77.121783,47.030766 75.126887,42.893786 66.838605,25.705745 44.317269,21.679921 30.588407,34.932269 26.533895,38.846049 23.62637,44.18 22.506801,49.758239 c -0.72242,3.599447 -0.491008,9.439175 0.498839,12.58814 2.662545,8.470294 7.78786,14.451558 15.50748,18.09729 1.781148,0.841177 6.510877,2.072448 9.11066,2.371735 1.992807,0.229415 6.163608,-0.14513 9.110652,-0.818149 z M 44.601068,76.105536 C 38.410374,74.608492 32.523087,69.542053 30.019001,63.556609 27.598499,57.770948 27.563417,52.337481 29.909296,46.56424 c 2.034497,-5.006927 6.622412,-9.602486 11.803827,-11.823503 1.800122,-0.771618 6.097658,-1.596951 8.315394,-1.596951 1.975934,0 5.770086,0.692492 7.814767,1.426314 2.504404,0.89882 5.969415,3.309907 8.165457,5.681836 3.479575,3.758261 5.915248,9.751344 5.907709,14.536162 -0.0063,3.947902 -1.492886,8.814487 -3.739408,12.240939 -2.712475,4.137127 -8.160152,7.978203 -12.899606,9.095305 -2.581693,0.608516 -8.122595,0.598757 -10.676363,-0.0188 z m 10.535003,-9.894701 c 2.673495,-1.302033 5.293634,-3.971289 6.259424,-6.376782 0.623143,-1.552058 0.769539,-2.492109 0.771252,-4.95256 0.0021,-2.753004 -0.09308,-3.237839 -1.016252,-5.186608 -2.799443,-5.909488 -9.431764,-8.610945 -15.514821,-6.319445 -9.252332,3.485375 -10.748962,16.161361 -2.572355,21.787017 2.429163,1.671305 4.361991,2.214828 7.437508,2.091476 2.211181,-0.0887 3.074414,-0.282952 4.635244,-1.043098 z"
       style="fill:#808080;stroke-width:0.31967217" />
  </g>
  <g
     style="display:none"
     id="layer4">
    <path
       id="diary"
       d="M 6.3648607,89.526423 5.7793608,89.06586 V 85.273396 81.480931 L 4.6127351,81.63196 C 1.1172918,82.084477 1.1928891,82.087492 0.57634708,81.47095 L 0.00178898,80.896392 V 47.492489 c 0,-36.842258 -0.1097278,-34.111042 1.38952732,-34.586408 1.1630469,-0.368766 6.4517113,-1.095299 10.0545097,-1.381245 5.628645,-0.446732 14.715798,0.03468 18.460897,0.978014 1.334481,0.336135 1.986545,1.124758 1.764796,2.134386 -0.08466,0.385441 -0.406881,0.866548 -0.71605,1.069123 -0.523661,0.343116 -0.739054,0.342666 -3.147246,-0.0066 -4.675901,-0.678085 -8.190297,-0.880281 -12.80697,-0.736837 -4.278946,0.132951 -5.9550564,0.275191 -9.7064453,0.823715 l -1.737592,0.254069 V 47.11816 c 0,24.763846 0.056398,31.058411 0.2777689,30.983682 0.7314391,-0.246959 6.3135864,-0.818303 9.6534004,-0.988047 11.947843,-0.60723 23.851667,1.778496 32.673404,6.548324 1.008738,0.545411 1.88501,0.991658 1.94728,0.991658 0.0623,0 0.11322,-6.130924 0.11322,-13.624271 0,-13.37911 0.0081,-13.63298 0.450575,-14.107916 0.833009,-0.894126 2.065066,-0.824935 2.820018,0.158365 0.205823,0.268082 0.272394,3.614448 0.277769,13.963205 0.004,7.485836 0.05156,13.610617 0.10589,13.610617 0.05435,0 1.129315,-0.540785 2.388802,-1.20175 5.4082,-2.838163 12.330704,-4.938738 19.458204,-5.904417 3.099981,-0.42001 8.864941,-0.612619 12.773555,-0.42677 3.400189,0.161673 8.60578,0.705738 9.556808,0.998836 0.369073,0.113744 0.388875,-1.463494 0.388875,-30.978119 v -31.09791 l -1.722163,-0.260842 c -4.619018,-0.699607 -8.660284,-0.946831 -13.499514,-0.825825 -5.582663,0.139594 -9.345205,0.625288 -14.057423,1.814621 -1.679191,0.42382 -3.328068,0.771241 -3.664163,0.77205 -0.852924,0.002 -1.499952,-0.716226 -1.499952,-1.665137 0,-1.392044 0.556612,-1.679298 5.572276,-2.875742 7.936871,-1.893271 17.83717,-2.172143 27.315438,-0.769422 1.64994,0.24418 3.324571,0.546909 3.721401,0.672731 1.499245,0.475366 1.38953,-2.25585 1.38953,34.586408 v 33.403903 l -0.57456,0.574558 c -0.61654,0.616542 -0.54095,0.613527 -4.036389,0.16101 L 94.22064,81.480931 v 3.792465 3.792464 l -0.5855,0.460563 -0.585507,0.460555 H 50.000002 6.9503666 Z M 43.211354,86.240779 C 42.407015,85.513932 35.980089,83.238457 32.064808,82.29431 26.53405,80.960597 18.07784,80.323027 11.692096,80.758287 l -2.3573094,0.160671 v 2.756297 2.75629 H 26.378627 c 9.505215,0 16.95046,-0.08438 16.832727,-0.190766 z m 47.453859,-2.565524 v -2.756297 l -2.374241,-0.161825 c -3.464905,-0.23617 -12.003505,0.02299 -14.736261,0.447322 -3.330603,0.517126 -6.934322,1.346423 -9.815633,2.258806 -2.469926,0.782112 -6.543884,2.410134 -6.950428,2.777518 -0.117733,0.106394 7.327513,0.190766 16.832724,0.190766 H 90.665213 Z M 21.334356,64.876766 c -0.289572,-0.289572 -0.444425,-0.740714 -0.444425,-1.294748 0,-0.950936 0.942598,-4.462125 2.001781,-7.456655 0.468722,-1.32519 0.650004,-2.165001 0.551609,-2.555465 -0.404091,-1.60358 -0.775676,-5.021063 -0.775676,-7.133952 0,-9.990841 5.679905,-19.967518 15.568057,-27.345065 1.175685,-0.877179 1.382794,-0.953463 2.431302,-0.895498 0.449707,0.02486 0.625448,-0.137584 0.922543,-0.852752 0.283236,-0.681809 0.714374,-1.105334 1.88882,-1.855491 4.554952,-2.909388 9.794926,-5.38699 16.841581,-7.9631548 2.102556,-0.7686688 2.333966,-0.7824748 3.094049,-0.1845921 0.444809,0.349888 0.585506,0.6589265 0.585506,1.2860857 0,0.7008633 -0.171388,0.9920529 -1.134914,1.9282472 -0.624203,0.606494 -1.816854,1.978056 -2.65034,3.047914 -3.872098,4.970206 -6.088285,10.674611 -6.653631,17.126271 -0.330389,3.770317 -0.674749,5.95489 -1.0285,6.524579 -0.196757,0.316869 -0.863408,0.661416 -1.916879,0.990708 -0.88836,0.277684 -1.655759,0.532933 -1.705324,0.56722 -0.04957,0.03429 0.425418,0.607446 1.05552,1.273684 1.429966,1.511984 1.464767,2.046185 0.291308,4.471812 -4.340301,8.971732 -11.68073,13.314477 -20.83853,12.32849 -1.316919,-0.141789 -2.476666,-0.30864 -2.577208,-0.370781 -0.264415,-0.163415 -0.70617,1.006674 -1.830552,4.848668 -0.598377,2.044643 -1.147242,3.51003 -1.377837,3.678646 -0.5867,0.42901 -1.791114,0.342973 -2.29826,-0.164171 z M 35.889395,52.988512 c 2.375812,-0.6022 4.893772,-2.005911 6.721448,-3.747066 1.842992,-1.755751 2.649923,-2.826792 3.873377,-5.14116 l 0.822001,-1.554943 -1.875214,-1.916318 c -1.507446,-1.540483 -1.87522,-2.04673 -1.87522,-2.581273 0,-0.650574 0.900546,-1.836629 1.394511,-1.836629 0.122558,0 1.197654,-0.300819 2.389099,-0.668485 l 2.16627,-0.668486 0.133957,-0.942569 c 0.07368,-0.518412 0.239073,-2.091913 0.367536,-3.49667 0.527305,-5.766047 2.203655,-11.090164 4.863087,-15.445255 0.597058,-0.977743 1.058402,-1.806436 1.025207,-1.841539 -0.225208,-0.238162 -5.979008,2.613962 -9.339772,4.629671 l -1.777714,1.06623 -0.776743,1.945391 c -1.006451,2.520714 -1.37054,2.977711 -2.372339,2.977711 -0.580907,0 -0.941735,-0.169309 -1.39506,-0.654596 l -0.611486,-0.654599 -1.977579,1.727254 c -7.192547,6.282096 -11.073572,13.405626 -11.545925,21.192281 -0.08712,1.43606 -0.105711,2.611018 -0.04135,2.611018 0.06435,0 0.71385,-1.074961 1.443247,-2.388804 0.729399,-1.313841 1.606054,-2.888786 1.948121,-3.499875 0.998386,-1.783569 3.088622,-4.818461 4.773321,-6.930573 1.860687,-2.332739 6.305553,-6.872534 7.165078,-7.318105 1.170688,-0.606871 2.479608,0.218124 2.479608,1.562869 0,0.644097 -0.319608,1.052189 -2.558275,3.266607 -3.956518,3.913659 -6.704634,7.545609 -9.712297,12.835895 -1.735417,3.052492 -3.713626,7.31668 -3.495489,7.534815 0.544954,0.54495 5.550078,0.504598 7.788565,-0.06279 z"
       style="fill:#000000;stroke-width:0.22221428" />
  </g>
  <g
     id="layer5">
    <path
       id="map"
       d="M 49.6783,82.507519 33.633948,74.472447 17.907777,78.416905 c -8.6493948,2.169451 -16.0348721,3.944448 -16.4121737,3.944448 -0.5084681,0 -0.7907617,-0.133179 -1.0908028,-0.514613 L 0,81.332118 V 49.507682 17.683243 L 0.5371099,17.16116 c 0.4795446,-0.466129 2.300781,-0.961514 16.9931211,-4.622212 l 16.456011,-4.1001328 16.19042,8.0932838 16.190424,8.093285 15.725653,-3.944326 c 8.64911,-2.169379 16.034354,-3.944325 16.411659,-3.944325 0.50846,0 0.79076,0.133181 1.0908,0.514618 l 0.4048,0.514618 V 49.564493 81.36301 l -0.43949,0.510932 c -0.39916,0.464057 -1.935771,0.885648 -16.748039,4.595016 -8.969706,2.24624 -16.484345,4.081724 -16.699192,4.078854 -0.214837,-0.0031 -7.61058,-3.621005 -16.434977,-8.040293 z m 31.278304,1.306907 c 7.949449,-1.993764 14.783143,-3.711011 15.185978,-3.816104 l 0.732416,-0.191076 V 49.956306 20.105361 l -14.599605,3.650111 -14.599615,3.650112 -0.0497,22.082217 c -0.04378,19.458794 -0.01477,22.111187 0.244149,22.326051 0.374583,0.310879 0.371339,1.54189 -0.0052,2.039959 -0.230641,0.304936 -0.28676,1.16854 -0.28676,4.41306 0,3.599813 -0.03681,4.065534 -0.341798,4.327493 -0.530525,0.455635 -0.982585,0.554844 -1.548276,0.339769 -0.980786,-0.372897 -1.026726,-0.581858 -1.033401,-4.70037 -0.0073,-4.316325 0.09067,-4.066469 -1.591197,-4.072822 -1.039885,-0.0042 -1.735332,-0.624729 -1.735332,-1.549058 0,-1.118287 0.496878,-1.461029 2.055809,-1.418077 l 1.264502,0.03485 -0.0052,-22.021377 -0.0053,-22.021381 L 49.994812,19.809684 35.351552,12.43348 V 39.496185 66.55889 l -0.479404,0.4794 c -0.585877,0.585875 -1.252995,0.611586 -1.935662,0.07461 L 32.421865,66.708102 V 46.387108 26.066122 l -0.439454,0.121644 c -0.241699,0.0669 -1.022258,0.20719 -1.734574,0.311744 -0.712316,0.104556 -1.531027,0.279793 -1.819355,0.389416 -1.434578,0.54542 -2.804654,-0.213983 -2.570822,-1.424954 0.06604,-0.341998 0.292781,-0.76547 0.503874,-0.941045 0.569895,-0.474007 3.031192,-1.023276 4.644229,-1.036416 l 1.415929,-0.01154 8.7e-5,-5.712858 c 6.6e-5,-4.352507 -0.05642,-5.71285 -0.23723,-5.71285 -0.182153,0 -24.6727332,6.09534 -28.3271379,7.050203 L 3.1249894,19.290838 V 49.142025 78.99321 L 18.212881,75.214248 c 8.298339,-2.078435 15.351561,-3.779803 15.673827,-3.780825 0.386383,-0.0011 5.973894,2.7213 16.40625,7.993991 8.701172,4.397712 15.908007,7.99949 16.015191,8.00394 0.107184,0.0042 6.698986,-1.623165 14.648445,-3.616928 z m -9.18814,-10.916793 c -0.580893,-0.58089 -0.632624,-1.515806 -0.112643,-2.035783 0.488703,-0.488701 2.837534,-1.258882 3.346535,-1.09733 0.576214,0.18288 1.169523,0.881407 1.169523,1.37692 0,0.778679 -0.727976,1.422196 -2.081931,1.840386 -1.620741,0.500597 -1.741048,0.49623 -2.321484,-0.08423 z m 5.685883,-2.827908 c -2.719172,-2.727621 -2.723228,-2.758898 -0.630774,-4.863693 l 1.498064,-1.506885 -1.291213,-1.264538 c -1.489953,-1.459167 -1.876016,-2.163114 -1.607993,-2.931972 0.100238,-0.287634 1.088189,-1.414401 2.195375,-2.503924 2.591763,-2.550414 2.644305,-2.555664 4.815608,-0.481217 l 1.569769,1.499735 1.508587,-1.499735 c 2.068215,-2.056072 2.067935,-2.056106 4.759375,0.596087 1.169762,1.152702 2.174848,2.287087 2.233515,2.520856 0.153342,0.610956 -0.192647,1.168378 -1.646872,2.653278 l -1.285826,1.31296 1.393354,1.436963 c 0.766344,0.790333 1.449889,1.662195 1.518974,1.937472 0.191337,0.76235 -0.267243,1.439508 -2.319144,3.424519 -1.662469,1.608286 -1.944457,1.80553 -2.581157,1.80553 -0.625003,0 -0.902384,-0.182559 -2.208321,-1.453417 l -1.49354,-1.453418 -1.48674,1.453418 c -2.121527,2.073965 -2.205076,2.062434 -4.941041,-0.682019 z m 4.279343,-2.937883 c 0.922692,-0.916396 1.578858,-1.403789 2.00434,-1.48881 0.587652,-0.117427 0.741171,-0.02071 2.162465,1.362408 0.84144,0.818845 1.617008,1.488808 1.723475,1.488808 0.106466,0 0.44789,-0.265446 0.758722,-0.589881 l 0.565141,-0.58988 -1.505166,-1.514038 c -2.030054,-2.042021 -2.032352,-2.278045 -0.04211,-4.323229 l 1.463084,-1.503451 -0.633768,-0.614273 -0.633768,-0.61427 -1.561742,1.447517 c -2.074185,1.922486 -2.212511,1.92133 -4.223173,-0.03532 l -1.54236,-1.500933 -0.684438,0.663383 -0.684439,0.663383 1.441269,1.472312 c 0.792704,0.80977 1.494778,1.626882 1.560162,1.815799 0.202327,0.584601 -0.217592,1.309898 -1.568553,2.709243 l -1.299895,1.346452 0.559119,0.583594 c 0.307516,0.320979 0.606536,0.583596 0.664474,0.583596 0.05792,0 0.722652,-0.613082 1.477132,-1.362406 z m -26.293737,3.924985 c -2.460203,-1.862413 -3.230572,-3.29259 -2.307344,-4.283554 0.708268,-0.760232 1.461641,-0.574606 2.823112,0.69559 0.662056,0.617673 1.526455,1.396381 1.920884,1.730465 0.534471,0.452698 0.717145,0.758127 0.717145,1.199057 0,0.755975 -0.521763,1.383798 -1.269808,1.527927 -0.490725,0.09455 -0.797615,-0.04708 -1.883989,-0.869485 z m -5.030557,-7.396536 c -0.757945,-0.62405 -1.328879,-4.919997 -0.788146,-5.930358 0.29225,-0.546068 1.045322,-0.792987 1.681192,-0.551231 0.710288,0.270049 1.025708,0.737555 1.045743,1.549978 0.0093,0.375975 0.131694,1.430654 0.272049,2.343736 0.211166,1.37373 0.210575,1.748728 -0.0034,2.173585 -0.416545,0.826982 -1.46678,1.024091 -2.207416,0.41429 z m 0.04282,-9.815759 c -0.775283,-0.312367 -0.897298,-0.852128 -0.74548,-3.297786 0.08018,-1.291561 0.259137,-2.497145 0.415866,-2.801501 0.501316,-0.973529 1.992597,-0.962498 2.499888,0.0185 0.23396,0.452426 0.254865,0.963601 0.115168,2.815946 -0.177918,2.359099 -0.347259,2.927665 -0.971486,3.261737 -0.440512,0.235754 -0.734819,0.236452 -1.313956,0.0031 z M 12.567787,49.634587 c -0.459154,-0.459151 -0.489711,-0.591949 -0.370764,-1.611318 0.259145,-2.220875 0.624173,-2.771074 1.838461,-2.771074 0.404744,0 0.714243,0.164812 1.005983,0.535695 0.360701,0.458555 0.403349,0.690586 0.296162,1.61132 -0.173414,1.489615 -0.461135,2.313879 -0.887305,2.541957 -0.625906,0.334974 -1.360635,0.215319 -1.882537,-0.30658 z M 50.404703,43.50847 c -0.215338,-0.215336 -0.42722,-0.779753 -0.494908,-1.318352 -0.0651,-0.517993 -0.213895,-1.622169 -0.330655,-2.453726 -0.183685,-1.308211 -0.169302,-1.577525 0.106756,-1.99884 0.602059,-0.918853 2.053214,-0.892037 2.53337,0.04681 0.283097,0.553537 0.710422,3.281479 0.710422,4.535169 0,1.339184 -1.614511,2.099405 -2.524985,1.188936 z M 14.381808,41.917726 c -0.703726,-0.553548 -0.670343,-1.289594 0.16509,-3.639946 0.662459,-1.863722 1.313291,-2.791154 1.95871,-2.791154 0.519458,0 1.226009,0.435815 1.481995,0.91413 0.228228,0.426444 0.170353,0.736223 -0.515651,2.76008 -0.425003,1.253845 -0.966492,2.478163 -1.203309,2.720704 -0.536714,0.549691 -1.21742,0.562746 -1.886835,0.03619 z m 33.558299,-7.752442 c -0.112431,-0.07892 -0.608626,-0.670834 -1.102654,-1.315362 -0.494027,-0.644527 -1.17108,-1.43001 -1.504562,-1.745515 -1.146107,-1.084334 -0.616706,-2.648991 0.896288,-2.648991 0.614442,0 0.867948,0.151992 1.710249,1.025386 1.317588,1.366224 2.255885,2.8221 2.255885,3.50026 0,0.74516 -0.627042,1.334423 -1.416016,1.330706 -0.349121,-0.0016 -0.726756,-0.06757 -0.83919,-0.146484 z M 18.457563,32.752855 c -0.430284,-0.475457 -0.430238,-1.422958 1.02e-4,-2.079736 0.175381,-0.267665 0.939313,-1.139818 1.697624,-1.938116 1.151795,-1.212536 1.481121,-1.451455 2.000682,-1.451455 0.844251,0 1.476841,0.620163 1.476841,1.44783 0,0.54361 -0.280107,0.962394 -1.693169,2.53144 -1.556686,1.728524 -1.751044,1.880072 -2.411135,1.880072 -0.46956,0 -0.840091,-0.134947 -1.070945,-0.390035 z M 38.59822,27.495114 c -2.227486,-0.753397 -2.856032,-1.215016 -2.856032,-2.097539 0,-0.604199 0.81897,-1.43432 1.415054,-1.43432 0.590812,0 4.017139,1.107373 4.5997,1.486603 1.023815,0.666473 0.979253,2.106923 -0.08012,2.5896 -0.631397,0.287682 -0.604686,0.292405 -3.078608,-0.544344 z"
       style="fill:#000000;stroke-width:0.19531193" />
  </g>
  <g
     style="display:none"
     id="layer3">
    <circle
       r="18.893665"
       cy="21.965715"
       cx="73.488602"
       id="path828"
       style="opacity:1;vector-effect:none;fill:#00aad4;fill-opacity:1;stroke:#ffffff;stroke-width:0.29339254;stroke-linecap:round;stroke-linejoin:round;stroke-miterlimit:4;stroke-dasharray:none;stroke-dashoffset:0;stroke-opacity:1;paint-order:markers fill stroke" />
    <rect
       transform="rotate(15)"
       ry="2.2868907"
       y="29.397738"
       x="65.93853"
       height="41.016094"
       width="41.016094"
       id="rect832"
       style="opacity:1;vector-effect:none;fill:#000080;fill-opacity:1;stroke:#ffffff;stroke-width:0.11684565;stroke-linecap:round;stroke-linejoin:round;stroke-miterlimit:4;stroke-dasharray:none;stroke-dashoffset:0;stroke-opacity:1;paint-order:markers fill stroke" />
    <path
       transform="rotate(60,36.257063,75.636414)"
       d="M 8.420691,76.348347 C 8.1140941,76.654944 -7.1555373,70.970791 -7.5837925,71.03862 c -0.4282552,0.06783 -13.1940375,10.192355 -13.5803725,9.995508 -0.386334,-0.196847 0.301041,-16.47563 0.104193,-16.861964 -0.196847,-0.386335 -13.770687,-9.398665 -13.702858,-9.82692 0.06783,-0.428255 15.762281,-4.804943 16.068878,-5.11154 0.306597,-0.306597 4.683285,-16.001049 5.11154,-16.068878 0.428255,-0.06783 9.4405851,13.506011 9.8269197,13.702859 0.3863346,0.196847 16.6651163,-0.490528 16.8619643,-0.104194 0.196847,0.386335 -9.9276791,13.152118 -9.9955081,13.580373 -0.067829,0.428255 5.6163239,15.697886 5.3097271,16.004483 z"
       id="path834"
       style="opacity:1;vector-effect:none;fill:#ffcc00;fill-opacity:1;stroke:#ffffff;stroke-width:0.2;stroke-linecap:round;stroke-linejoin:round;stroke-miterlimit:4;stroke-dasharray:none;stroke-dashoffset:0;stroke-opacity:1;paint-order:markers fill stroke" />
    <image
       clip-path="url(#clipPath889)"
       width="53.473"
       height="40"
       preserveAspectRatio="none"
       xlink:href="file:///home/daniele/hack/git/barot/pwa-barot/src/assets/tree.png"
       id="image849"
       x="-27"
       y="-20" />
    <use
       height="100%"
       width="100%"
       transform="translate(-2.3991123,36.61803)"
       id="use929"
       xlink:href="#image849"
       y="0"
       x="0" />
  </g>
</svg>
