<?xml version="1.0" encoding="UTF-8" standalone="no"?>
<!-- Created with Inkscape (http://www.inkscape.org/) -->

<svg
   xmlns:dc="http://purl.org/dc/elements/1.1/"
   xmlns:cc="http://creativecommons.org/ns#"
   xmlns:rdf="http://www.w3.org/1999/02/22-rdf-syntax-ns#"
   xmlns:svg="http://www.w3.org/2000/svg"
   xmlns="http://www.w3.org/2000/svg"
   xmlns:xlink="http://www.w3.org/1999/xlink"
   xmlns:sodipodi="http://sodipodi.sourceforge.net/DTD/sodipodi-0.dtd"
   xmlns:inkscape="http://www.inkscape.org/namespaces/inkscape"
   width="100"
   height="100"
   viewBox="0 0 100 100"
   version="1.1"
   id="svg8"
   inkscape:version="0.92.3 (2405546, 2018-03-11)"
   sodipodi:docname="dante.svg">
  <defs
     id="defs2" />
  <sodipodi:namedview
     id="base"
     pagecolor="#ffffff"
     bordercolor="#666666"
     borderopacity="1.0"
     inkscape:pageopacity="0.0"
     inkscape:pageshadow="2"
     inkscape:zoom="2.8"
     inkscape:cx="74.372205"
     inkscape:cy="20.054686"
     inkscape:document-units="px"
     inkscape:current-layer="main-dante"
     showgrid="false"
     units="px"
     inkscape:window-width="1853"
     inkscape:window-height="1025"
     inkscape:window-x="67"
     inkscape:window-y="27"
     inkscape:window-maximized="1" />
  <metadata
     id="metadata5">
    <rdf:RDF>
      <cc:Work
         rdf:about="">
        <dc:format>image/svg+xml</dc:format>
        <dc:type
           rdf:resource="http://purl.org/dc/dcmitype/StillImage" />
        <dc:title />
      </cc:Work>
    </rdf:RDF>
  </metadata>
  <g
     inkscape:label="welcome"
     inkscape:groupmode="layer"
     id="layer1"
     transform="translate(0,-1022.5196)"
     style="display:none" />
  <g
     inkscape:groupmode="layer"
     id="layer2"
     inkscape:label="main screen"
     style="display:none">
    <clipPath
       clipPathUnits="userSpaceOnUse"
       id="clipPath879">
      <circle
         style="display:inline;opacity:1;vector-effect:none;fill:#ff0000;fill-opacity:1;stroke:none;stroke-width:2.99984694;stroke-linecap:round;stroke-linejoin:miter;stroke-miterlimit:4;stroke-dasharray:none;stroke-dashoffset:0;stroke-opacity:1;paint-order:markers fill stroke"
         id="circle881"
         cx="0"
         cy="0"
         r="50" />
    </clipPath>
    <image
       transform="translate(0,-1022.5196)"
       style="display:inline"
       sodipodi:absref="/home/daniele/hack/git/alice/alice-pwa/src/assets/pbf2021/badges/dante-1120x1120.jpg"
       y="972.51959"
       x="-50"
       id="image842"
       xlink:href="file:///home/daniele/hack/git/alice/alice-pwa/src/assets/pbf2021/badges/dante-1120x1120.jpg"
       preserveAspectRatio="none"
       height="200"
       width="200" />
    <g
       inkscape:label="#g893"
       id="badge-paradiso"
       transform="matrix(0.25,0,0,0.25,86.496225,55.935284)"
       class="item badge">
      <g
         id="g918">
        <image
           clip-path="url(#clipPath879)"
           width="100"
           height="100"
           preserveAspectRatio="none"
           xlink:href="file:///home/daniele/hack/git/alice/alice-pwa/src/assets/pbf2021/badges/caronte.jpg"
           id="image914"
           x="-50"
           y="-50"
           sodipodi:absref="/home/daniele/hack/git/alice/alice-pwa/src/assets/pbf2021/badges/caronte.jpg" />
        <circle
           r="48"
           cy="0"
           cx="0"
           id="circle916"
           style="display:inline;opacity:1;vector-effect:none;fill:none;fill-opacity:1;stroke:#ff0000;stroke-width:4;stroke-linecap:round;stroke-linejoin:miter;stroke-miterlimit:4;stroke-dasharray:none;stroke-dashoffset:0;stroke-opacity:1;paint-order:markers fill stroke" />
      </g>
      <g
         id="g926"
         class="shadow">
        <circle
           style="display:inline;opacity:1;vector-effect:none;fill:#ff0000;fill-opacity:1;stroke:none;stroke-width:2.99984694;stroke-linecap:round;stroke-linejoin:miter;stroke-miterlimit:4;stroke-dasharray:none;stroke-dashoffset:0;stroke-opacity:1;paint-order:markers fill stroke"
           id="circle920"
           cx="0"
           cy="0"
           r="50" />
        <g
           id="g924"
           style="font-style:normal;font-variant:normal;font-weight:normal;font-stretch:normal;font-size:106.88019562px;line-height:1.25;font-family:'Abyssinica SIL';-inkscape-font-specification:'Abyssinica SIL, Normal';font-variant-ligatures:normal;font-variant-caps:normal;font-variant-numeric:normal;font-feature-settings:normal;text-align:start;letter-spacing:0px;word-spacing:0px;writing-mode:lr-tb;text-anchor:start;fill:#ffffff;fill-opacity:1;stroke:none;stroke-width:2.67200494"
           aria-label="?">
          <path
             id="path922"
             style="fill:#ffffff;stroke-width:2.67200494"
             d="m 17.091433,-18.552685 q 0,3.340006 -1.095939,6.105949 -1.043752,2.7137549 -2.661568,5.1665718 -1.617815,2.4006294 -3.4965686,4.5925085 -1.8787535,2.19187896 -3.4965689,4.383758 -1.6178155,2.1396914 -2.713755,4.383758 -1.0437519,2.2440666 -1.0437519,4.7490707 0,0.313126 0.052188,0.782814 0.052188,0.417501 0.1565628,0.835002 l 0.2087503,1.043752 -6.5234494,-0.104375 Q -4.4620438,11.455183 -5.088295,9.3676788 -5.6623585,7.2279874 -5.6623585,4.0967317 q 0,-2.0875039 0.6262511,-4.12282008 0.6262512,-2.08750382 1.5656279,-4.01844482 0.9393767,-1.9831287 2.0353162,-3.8096945 1.09593953,-1.8265658 2.03531625,-3.4443813 0.93937675,-1.670003 1.56562785,-3.131256 0.6262512,-1.461252 0.6262512,-2.713755 0,-2.765942 -1.82656588,-4.592508 -1.82656584,-1.826566 -5.11438432,-1.826566 -1.5656279,0 -2.713755,0.417501 -1.0959395,0.365313 -1.8787534,0.991564 -0.7306264,0.626251 -1.2003147,1.409065 -0.4696887,0.730627 -0.7306267,1.461253 h -3.861882 q -1.200314,-1.043752 -1.878753,-2.60938 -0.678439,-1.565628 -0.678439,-2.765942 0,-1.565628 0.887189,-3.340007 0.939377,-1.826565 2.870318,-3.340006 1.983129,-1.51344 5.0621967,-2.505004 3.0790681,-1.043752 7.41063858,-1.043752 4.33157042,0 7.67157652,1.409065 3.3921942,1.356877 5.6362602,3.653132 2.296254,2.296254 3.444381,5.270947 1.200315,2.922505 1.200315,6.001573 z M 7.5932907,26.641773 q 0,1.722191 -0.6262511,3.235631 -0.6262511,1.51344 -1.7221906,2.60938 -1.0959396,1.095939 -2.6093798,1.774378 -1.4612527,0.626251 -3.13125576,0.626251 -1.72219064,0 -3.23563094,-0.626251 -1.5134402,-0.678439 -2.6093798,-1.774378 -1.0959395,-1.09594 -1.7743782,-2.60938 -0.6262511,-1.51344 -0.6262511,-3.235631 0,-1.670003 0.6262511,-3.131256 0.6784387,-1.51344 1.7743782,-2.60938 1.0959396,-1.095939 2.6093798,-1.72219 1.5134403,-0.626251 3.23563094,-0.626251 1.67000306,0 3.13125576,0.626251 1.5134402,0.626251 2.6093798,1.72219 1.0959395,1.09594 1.7221906,2.60938 0.6262511,1.461253 0.6262511,3.131256 z"
             inkscape:connector-curvature="0" />
        </g>
      </g>
    </g>
    <g
       id="badge-inferno"
       inkscape:label="#g893"
       transform="matrix(0.25,0,0,0.25,41.291899,13.761414)"
       class="item badge">
      <g
         id="g912">
        <image
           sodipodi:absref="/home/daniele/hack/git/alice/alice-pwa/src/assets/pbf2021/badges/caronte.jpg"
           y="-50"
           x="-50"
           id="image874"
           xlink:href="file:///home/daniele/hack/git/alice/alice-pwa/src/assets/pbf2021/badges/caronte.jpg"
           preserveAspectRatio="none"
           height="100"
           width="100"
           clip-path="url(#clipPath879)" />
        <circle
           style="display:inline;opacity:1;vector-effect:none;fill:none;fill-opacity:1;stroke:#ff0000;stroke-width:4;stroke-linecap:round;stroke-linejoin:miter;stroke-miterlimit:4;stroke-dasharray:none;stroke-dashoffset:0;stroke-opacity:1;paint-order:markers fill stroke"
           id="circle849-3"
           cx="0"
           cy="0"
           r="48" />
      </g>
      <g
         id="g886"
         class="shadow">
        <circle
           r="50"
           cy="0"
           cx="0"
           id="circle857"
           style="display:inline;opacity:1;vector-effect:none;fill:#ff0000;fill-opacity:1;stroke:none;stroke-width:2.99984694;stroke-linecap:round;stroke-linejoin:miter;stroke-miterlimit:4;stroke-dasharray:none;stroke-dashoffset:0;stroke-opacity:1;paint-order:markers fill stroke" />
        <g
           aria-label="?"
           style="font-style:normal;font-variant:normal;font-weight:normal;font-stretch:normal;font-size:106.88019562px;line-height:1.25;font-family:'Abyssinica SIL';-inkscape-font-specification:'Abyssinica SIL, Normal';font-variant-ligatures:normal;font-variant-caps:normal;font-variant-numeric:normal;font-feature-settings:normal;text-align:start;letter-spacing:0px;word-spacing:0px;writing-mode:lr-tb;text-anchor:start;fill:#ffffff;fill-opacity:1;stroke:none;stroke-width:2.67200494"
           id="text861">
          <path
             d="m 17.091433,-18.552685 q 0,3.340006 -1.095939,6.105949 -1.043752,2.7137549 -2.661568,5.1665718 -1.617815,2.4006294 -3.4965686,4.5925085 -1.8787535,2.19187896 -3.4965689,4.383758 -1.6178155,2.1396914 -2.713755,4.383758 -1.0437519,2.2440666 -1.0437519,4.7490707 0,0.313126 0.052188,0.782814 0.052188,0.417501 0.1565628,0.835002 l 0.2087503,1.043752 -6.5234494,-0.104375 Q -4.4620438,11.455183 -5.088295,9.3676788 -5.6623585,7.2279874 -5.6623585,4.0967317 q 0,-2.0875039 0.6262511,-4.12282008 0.6262512,-2.08750382 1.5656279,-4.01844482 0.9393767,-1.9831287 2.0353162,-3.8096945 1.09593953,-1.8265658 2.03531625,-3.4443813 0.93937675,-1.670003 1.56562785,-3.131256 0.6262512,-1.461252 0.6262512,-2.713755 0,-2.765942 -1.82656588,-4.592508 -1.82656584,-1.826566 -5.11438432,-1.826566 -1.5656279,0 -2.713755,0.417501 -1.0959395,0.365313 -1.8787534,0.991564 -0.7306264,0.626251 -1.2003147,1.409065 -0.4696887,0.730627 -0.7306267,1.461253 h -3.861882 q -1.200314,-1.043752 -1.878753,-2.60938 -0.678439,-1.565628 -0.678439,-2.765942 0,-1.565628 0.887189,-3.340007 0.939377,-1.826565 2.870318,-3.340006 1.983129,-1.51344 5.0621967,-2.505004 3.0790681,-1.043752 7.41063858,-1.043752 4.33157042,0 7.67157652,1.409065 3.3921942,1.356877 5.6362602,3.653132 2.296254,2.296254 3.444381,5.270947 1.200315,2.922505 1.200315,6.001573 z M 7.5932907,26.641773 q 0,1.722191 -0.6262511,3.235631 -0.6262511,1.51344 -1.7221906,2.60938 -1.0959396,1.095939 -2.6093798,1.774378 -1.4612527,0.626251 -3.13125576,0.626251 -1.72219064,0 -3.23563094,-0.626251 -1.5134402,-0.678439 -2.6093798,-1.774378 -1.0959395,-1.09594 -1.7743782,-2.60938 -0.6262511,-1.51344 -0.6262511,-3.235631 0,-1.670003 0.6262511,-3.131256 0.6784387,-1.51344 1.7743782,-2.60938 1.0959396,-1.095939 2.6093798,-1.72219 1.5134403,-0.626251 3.23563094,-0.626251 1.67000306,0 3.13125576,0.626251 1.5134402,0.626251 2.6093798,1.72219 1.0959395,1.09594 1.7221906,2.60938 0.6262511,1.461253 0.6262511,3.131256 z"
             style="fill:#ffffff;stroke-width:2.67200494"
             id="path863"
             inkscape:connector-curvature="0" />
        </g>
      </g>
    </g>
    <g
       id="badge-purgatorio"
       inkscape:label="#g893"
       transform="matrix(0.25,0,0,0.25,76.647237,22.095174)"
       class="item badge">
      <g
         id="g934">
        <image
           sodipodi:absref="/home/daniele/hack/git/alice/alice-pwa/src/assets/pbf2021/badges/caronte.jpg"
           y="-50"
           x="-50"
           id="image930"
           xlink:href="file:///home/daniele/hack/git/alice/alice-pwa/src/assets/pbf2021/badges/caronte.jpg"
           preserveAspectRatio="none"
           height="100"
           width="100"
           clip-path="url(#clipPath879)" />
        <circle
           style="display:inline;opacity:1;vector-effect:none;fill:none;fill-opacity:1;stroke:#ff0000;stroke-width:4;stroke-linecap:round;stroke-linejoin:miter;stroke-miterlimit:4;stroke-dasharray:none;stroke-dashoffset:0;stroke-opacity:1;paint-order:markers fill stroke"
           id="circle932"
           cx="0"
           cy="0"
           r="48" />
      </g>
      <g
         id="g942"
         class="shadow">
        <circle
           r="50"
           cy="0"
           cx="0"
           id="circle936"
           style="display:inline;opacity:1;vector-effect:none;fill:#ff0000;fill-opacity:1;stroke:none;stroke-width:2.99984694;stroke-linecap:round;stroke-linejoin:miter;stroke-miterlimit:4;stroke-dasharray:none;stroke-dashoffset:0;stroke-opacity:1;paint-order:markers fill stroke" />
        <g
           aria-label="?"
           style="font-style:normal;font-variant:normal;font-weight:normal;font-stretch:normal;font-size:106.88019562px;line-height:1.25;font-family:'Abyssinica SIL';-inkscape-font-specification:'Abyssinica SIL, Normal';font-variant-ligatures:normal;font-variant-caps:normal;font-variant-numeric:normal;font-feature-settings:normal;text-align:start;letter-spacing:0px;word-spacing:0px;writing-mode:lr-tb;text-anchor:start;fill:#ffffff;fill-opacity:1;stroke:none;stroke-width:2.67200494"
           id="g940">
          <path
             d="m 17.091433,-18.552685 q 0,3.340006 -1.095939,6.105949 -1.043752,2.7137549 -2.661568,5.1665718 -1.617815,2.4006294 -3.4965686,4.5925085 -1.8787535,2.19187896 -3.4965689,4.383758 -1.6178155,2.1396914 -2.713755,4.383758 -1.0437519,2.2440666 -1.0437519,4.7490707 0,0.313126 0.052188,0.782814 0.052188,0.417501 0.1565628,0.835002 l 0.2087503,1.043752 -6.5234494,-0.104375 Q -4.4620438,11.455183 -5.088295,9.3676788 -5.6623585,7.2279874 -5.6623585,4.0967317 q 0,-2.0875039 0.6262511,-4.12282008 0.6262512,-2.08750382 1.5656279,-4.01844482 0.9393767,-1.9831287 2.0353162,-3.8096945 1.09593953,-1.8265658 2.03531625,-3.4443813 0.93937675,-1.670003 1.56562785,-3.131256 0.6262512,-1.461252 0.6262512,-2.713755 0,-2.765942 -1.82656588,-4.592508 -1.82656584,-1.826566 -5.11438432,-1.826566 -1.5656279,0 -2.713755,0.417501 -1.0959395,0.365313 -1.8787534,0.991564 -0.7306264,0.626251 -1.2003147,1.409065 -0.4696887,0.730627 -0.7306267,1.461253 h -3.861882 q -1.200314,-1.043752 -1.878753,-2.60938 -0.678439,-1.565628 -0.678439,-2.765942 0,-1.565628 0.887189,-3.340007 0.939377,-1.826565 2.870318,-3.340006 1.983129,-1.51344 5.0621967,-2.505004 3.0790681,-1.043752 7.41063858,-1.043752 4.33157042,0 7.67157652,1.409065 3.3921942,1.356877 5.6362602,3.653132 2.296254,2.296254 3.444381,5.270947 1.200315,2.922505 1.200315,6.001573 z M 7.5932907,26.641773 q 0,1.722191 -0.6262511,3.235631 -0.6262511,1.51344 -1.7221906,2.60938 -1.0959396,1.095939 -2.6093798,1.774378 -1.4612527,0.626251 -3.13125576,0.626251 -1.72219064,0 -3.23563094,-0.626251 -1.5134402,-0.678439 -2.6093798,-1.774378 -1.0959395,-1.09594 -1.7743782,-2.60938 -0.6262511,-1.51344 -0.6262511,-3.235631 0,-1.670003 0.6262511,-3.131256 0.6784387,-1.51344 1.7743782,-2.60938 1.0959396,-1.095939 2.6093798,-1.72219 1.5134403,-0.626251 3.23563094,-0.626251 1.67000306,0 3.13125576,0.626251 1.5134402,0.626251 2.6093798,1.72219 1.0959395,1.09594 1.7221906,2.60938 0.6262511,1.461253 0.6262511,3.131256 z"
             style="fill:#ffffff;stroke-width:2.67200494"
             id="path938"
             inkscape:connector-curvature="0" />
        </g>
      </g>
    </g>
  </g>
  <g
     inkscape:groupmode="layer"
     id="layer3"
     inkscape:label="main screen dante">
    <g
       id="main-dante"
       inkscape:label="#g1082">
      <g
         id="g867"
         class="item background">
        <image
           sodipodi:absref="/home/daniele/Pictures/Dante/dante-portrait.png"
           y="5"
           x="21.758247"
           id="image857"
           xlink:href="file:///home/daniele/Pictures/Dante/dante-portrait.png"
           preserveAspectRatio="none"
           height="160"
           width="100.11429" />
      </g>
      <g
         inkscape:label="#g1150"
         transform="matrix(0.25,0,0,0.25,17.5,17.5)"
         class="badge item"
         name="inferno"
         id="g850">
        <circle
           style="opacity:1;vector-effect:none;fill:#60271a;fill-opacity:1;stroke:none;stroke-width:3.90127897;stroke-linecap:round;stroke-linejoin:miter;stroke-miterlimit:4;stroke-dasharray:none;stroke-dashoffset:0;stroke-opacity:1;paint-order:markers fill stroke"
           id="path882"
           cx="0"
           cy="0"
           r="50" />
        <path
           sodipodi:nodetypes="ssscccsscsccsssssscssscsscsss"
           inkscape:connector-curvature="0"
           id="path875"
           d="m -0.73769963,-25.756763 c -2.64153297,0 -3.85980097,0.31068 -6.86326597,1.75 -4.3464694,2.082965 -5.2118024,2.141733 -7.3642704,0.500001 -1.962333,-1.496737 -1.915833,-1.490469 -2.814733,-2.417001 -0.33168,1.044864 0.26768,5.042765 1.979769,7.611334 0.939332,1.409165 1.129732,2.378133 1.1338,5.749998 0.0068,6.255066 2.573497,11.012167 7.2451024,13.4326 4.275897,2.215401 8.657031,2.269201 12.969732,0.15932 2.863365,-1.400936 5.3155656,-4.108369 6.8378976,-7.549834 0.760336,-1.718801 0.963536,-3.149569 0.874036,-6.167966 -0.109,-3.675737 -0.0132,-4.086937 1.475565,-6.335934 1.4795,-2.233601 1.757068,-5.670002 1.2715,-6.959102 -0.38912,0.749232 -1.0851,1.4187 -2.017564,2.237432 -2.182401,1.916169 -3.436169,1.875201 -7.8769666,-0.26068 -2.995437,-1.440768 -4.206501,-1.75 -6.85060203,-1.75 z M 10.442968,1.447337 c -0.8925686,0.0168 -1.7521326,0.37628 -3.6279336,1.263665 -2.8289,1.338268 -3.776833,1.5309 -7.53613403,1.531236 -3.62743297,3.32e-4 -4.66836497,-0.19468 -6.65136597,-1.249 -3.0877014,-1.641769 -5.0728694,-1.577401 -8.6230354,0.28132 -6.274669,3.285001 -9.600402,8.494498 -10.052735,15.745133 -0.246,3.944501 -0.19868,4.192869 1.037101,5.428701 1.552532,1.552533 4.516401,1.723901 8.839834,0.511732 1.886001,-0.5288 6.127534,-0.861664 13.5000014,-1.0596 9.647166,-0.259 11.319799,-0.18 16.2969006,0.776368 6.061833,1.164665 9.265366,1.336133 10.696267,0.570332 2.351265,-1.258364 2.478101,-7.894566 0.246,-12.867199 C 22.207499,7.121391 17.528966,3.062826 12.312,1.749157 c -0.786232,-0.198 -1.333564,-0.31168 -1.869132,-0.30168 z"
           style="fill:#a72525;stroke-width:0.36813259" />
      </g>
      <g
         inkscape:label="#g1156"
         transform="matrix(0.25,0,0,0.25,17.5,50)"
         class="badge item"
         name="purgatorio"
         id="g856">
        <circle
           style="opacity:1;vector-effect:none;fill:#60271a;fill-opacity:1;stroke:none;stroke-width:2.53282833;stroke-linecap:round;stroke-linejoin:miter;stroke-miterlimit:4;stroke-dasharray:none;stroke-dashoffset:0;stroke-opacity:1;paint-order:markers fill stroke"
           id="circle924"
           cx="0"
           cy="0"
           r="50" />
        <path
           inkscape:connector-curvature="0"
           id="circle978"
           d="m 0.069431,-37.433823 c -0.941968,-0.05168 -2.844601,2.003401 -8.900166,9.488599 -2.542801,3.143069 -4.12727,5.597702 -4.49187,6.960102 -0.5288,1.976133 -1.303964,2.983365 -7.425198,9.653667 -0.9571,1.042933 -3.019869,2.9666332 -4.584101,4.2743336 -3.337201,2.7899328 -3.320065,2.7440328 -6.5688,17.4915654 -2.4957,11.329267 -3.008267,14.387168 -2.540134,15.144669 0.228668,0.37004 10.631866,0.5321 34.106337,0.5321 h 33.776166 v -3.025637 c 0,-3.462765 -1.3026,-14.733601 -2.0129,-17.416798 C 30.819297,3.366442 29.438,1.625377 26.755363,-0.220323 24.832131,-1.543524 24.441531,-2.178424 22.86263,-6.5570573 c -0.965064,-2.6763328 -2.029764,-5.7614977 -2.366332,-6.8552337 -1.139965,-3.704497 -2.361401,-5.461466 -5.703634,-8.202999 -1.833401,-1.5039 -5.677966,-5.601134 -8.542831,-9.105067 -2.864869,-3.503901 -5.567002,-6.507634 -6.00467,-6.675602 -0.055,-0.02 -0.113,-0.0344 -0.17568,-0.038 z"
           style="opacity:1;vector-effect:none;fill:#58544e;fill-opacity:1;stroke:none;stroke-width:2.26844049;stroke-linecap:round;stroke-linejoin:miter;stroke-miterlimit:4;stroke-dasharray:none;stroke-dashoffset:0;stroke-opacity:1;paint-order:markers fill stroke" />
        <path
           inkscape:connector-curvature="0"
           id="circle960"
           d="m 0.069431,-37.433823 c -0.15032,-0.01 -0.15068,0.18968 0.01,0.612701 0.721001,1.878864 3.831565,12.142667 3.831565,12.642399 0,0.30168 -2.257764,3.586834 -5.017133,7.298967 l -5.016198,6.749434 -3.092601,9.320598 c -2.370336,7.145335 -3.798869,10.5389 -6.120233,14.540701 -2.911933,5.019965 -3.091069,5.218102 -4.691834,5.181234 -0.915536,-0.02 -2.740001,-0.350641 -4.053933,-0.732101 -2.100701,-0.609932 -2.655637,-0.597732 -4.598669,0.101 -1.215301,0.437032 -2.209966,0.588132 -2.209966,0.335 0,-0.612 0.661567,-1.8952 7.081499,-13.7309 4.546601,-8.3820663 5.713802,-10.9883991 6.900866,-15.411668 2.072701,-7.723431 1.858037,-8.292099 -1.467164,-3.887898 -1.112101,1.472965 -3.714969,4.078434 -5.784234,5.7900661 -4.417833,3.6543011 -4.035665,2.6821648 -7.719434,19.6209659 -2.500133,11.496068 -2.769733,13.226536 -2.1595,13.836736 0.182333,0.18232 15.2902,0.332 33.573237,0.332 29.003001,0 33.277434,-0.095 33.525634,-0.741836 0.26232,-0.683364 -1.4956,-16.303333 -2.154636,-19.144198 -0.579832,-2.4994 -1.728933,-4.026669 -4.330666,-5.754133 l -2.659564,-1.765269 -2.784801,-8.047634 -2.785801,-8.047631 -4.718102,-4.474369 c -2.595064,-2.460897 -6.426934,-6.599698 -8.51563,-9.197299 -2.795769,-3.476933 -4.59387,-5.397602 -5.044334,-5.426902 z m 4.290834,15.937965 c 0.617232,-0.0011 1.700568,1.434569 3.921865,5.06957 l 2.541101,4.158797 -2.698401,8.1515345 C 6.640665,0.367477 5.421765,4.66871 5.415733,5.442542 c -0.0068,0.773801 0.660464,3.310769 1.481764,5.637602 0.821269,2.326833 1.376869,4.420133 1.234133,4.651102 -0.514864,0.833032 -8.206631,3.467665 -10.044031,3.440233 -1.034169,-0.0168 -2.663833,-0.295 -3.620833,-0.621437 -1.294101,-0.4413 -1.777533,-0.916432 -1.886669,-1.851696 -0.08068,-0.691636 0.5401,-6.690502 1.3798,-13.331804 l 1.527401,-12.0753319 4.088865,-6.0444661 c 2.248737,-3.324569 4.238669,-6.259966 4.422901,-6.522202 0.101001,-0.144 0.218681,-0.22 0.361201,-0.22032 z m 8.014634,14.9660007 c 0.9784,0.1056801 2.427001,3.276233 4.173333,9.1497033 l 1.796333,6.041565 -1.271033,4.025734 c -0.699468,2.214264 -1.485768,4.026733 -1.7468,4.026733 -0.261,0 -1.143632,-1.062668 -1.961433,-2.361469 -0.8178,-1.2988 -2.201768,-3.726965 -3.075169,-5.394866 L 8.702566,5.925111 10.160998,-0.197991 c 0.802033,-3.3679653 1.712901,-6.2087302 2.024533,-6.3124662 0.061,-0.02 0.124,-0.0268 0.18932,-0.02 z"
           style="opacity:1;vector-effect:none;fill:#93734f;fill-opacity:1;stroke:none;stroke-width:2.26844049;stroke-linecap:round;stroke-linejoin:miter;stroke-miterlimit:4;stroke-dasharray:none;stroke-dashoffset:0;stroke-opacity:1;paint-order:markers fill stroke" />
        <path
           inkscape:connector-curvature="0"
           id="circle942"
           d="m 0.670463,-35.99189 c -0.13,0.0268 -0.129,0.24368 0.0068,0.6554 0.987701,2.992533 3.244101,10.785231 3.244101,11.204367 0,0.29132 -2.261532,3.570766 -5.024901,7.288335 l -5.023966,6.759098 -2.981933,9.062334 c -2.076236,6.310598 -3.795569,10.506368 -5.663837,13.817301 -1.475565,2.615 -2.682865,5.030965 -2.682865,5.369597 0,0.860801 8.492903,0.214 9.229335,-0.703 0.291,-0.36224 1.243264,-6.386666 2.1168,-13.3881 l 1.588533,-12.7307639 4.096633,-6.0571021 c 2.253433,-3.331501 4.248401,-6.271598 4.432633,-6.533834 0.539333,-0.767664 1.548201,0.37532 4.282102,4.84917 l 2.541101,4.158765 -2.698401,8.1515345 C 6.648429,0.394677 5.429397,4.73391 5.423497,5.55421 c -0.01,1.416033 1.056132,4.768766 2.794533,8.785567 0.674532,1.558633 1.235732,1.987833 3.839333,2.939233 1.6771,0.612832 3.322133,1.323032 3.654833,1.577868 0.35892,0.275001 3.396901,0.319681 7.471834,0.109681 6.065302,-0.312321 6.947802,-0.257681 7.552435,0.470936 1.312264,1.5812 1.627164,0.059 1.0341,-5.002602 C 31.012597,7.965791 30.305297,4.353826 29.485796,2.756726 29.117116,2.038161 27.625232,0.659261 26.169863,-0.306775 l -2.645965,-1.756565 -2.664432,-7.8738023 -2.664437,-7.8747987 -4.468534,-4.225801 c -2.457864,-2.324165 -6.240397,-6.407034 -8.40493,-9.072999 -2.686337,-3.308601 -4.260733,-4.958301 -4.651102,-4.881201 z m -16.337033,19.389866 c -0.39012,-0.06068 -1.332636,0.8973 -2.620732,2.706168 -1.047001,1.470265 -3.515101,3.9555337 -5.48517,5.5220662 -4.244365,3.375001 -4.101165,3.0285649 -7.333932,17.7508018 -2.9778,13.560964 -2.936067,15.017064 0.250668,8.716666 0.860434,-1.701268 4.031967,-7.632834 7.0475,-13.1813 4.565001,-8.3993663 5.721102,-10.9792671 6.910598,-15.411668 0.785768,-2.927965 1.429069,-5.491798 1.429301,-5.696866 2.68e-4,-0.25268 -0.068,-0.38568 -0.198001,-0.405868 z m 28.052133,10.0983668 c 0.9753,0.107 2.426601,3.281769 4.167533,9.1371032 l 1.791469,6.027965 -1.329301,4.287898 c -0.7311,2.358336 -1.494664,4.287937 -1.6973,4.287937 -0.20268,0 -1.730833,-2.403501 -3.396533,-5.341434 C 10.25573,8.957875 8.906998,6.105479 8.92493,5.55711 8.99225,3.500342 11.656631,-6.3040572 12.197199,-6.4842212 c 0.06068,-0.02 0.12332,-0.0268 0.18832,-0.02 z"
           style="opacity:1;vector-effect:none;fill:#8f8677;fill-opacity:1;stroke:none;stroke-width:2.26844049;stroke-linecap:round;stroke-linejoin:miter;stroke-miterlimit:4;stroke-dasharray:none;stroke-dashoffset:0;stroke-opacity:1;paint-order:markers fill stroke" />
      </g>
      <g
         inkscape:label="#g1161"
         transform="matrix(0.25,0,0,0.25,17.5,82.5)"
         class="badge item"
         name="paradiso"
         id="g861">
        <circle
           r="50"
           cy="0"
           cx="0"
           id="circle1002"
           style="opacity:1;vector-effect:none;fill:#60271a;fill-opacity:1;stroke:none;stroke-width:2.53282833;stroke-linecap:round;stroke-linejoin:miter;stroke-miterlimit:4;stroke-dasharray:none;stroke-dashoffset:0;stroke-opacity:1;paint-order:markers fill stroke" />
        <g
           transform="matrix(0.49999999,0,0,0.49999999,-49.08602,15.113601)"
           id="g995">
          <path
             inkscape:connector-curvature="0"
             id="path999"
             d="m 64.13891,-94.150277 c -0.86783,0.127569 -2.12309,2.432056 -3.5332,6.503906 -6.21879,17.957419 -18.20167,29.698333 -37.12305,36.376953 -4.14309,1.462372 -7.53125,3.193197 -7.53125,3.847657 0,0.65446 3.84421,2.636817 8.54297,4.404296 18.22734,6.856391 24.45808,14.08648 31.4668,36.50586 1.57546,5.03957 3.41112,9.138668 4.09179,9.138668 0.67889,0 2.22222,-3.03749599 3.42969,-6.749996 6.4103,-19.70926 15.19174,-28.5859 35.431641,-35.8125 4.969949,-1.77451 9.037109,-3.7571 9.037109,-4.40625 0,-0.64915 -3.24007,-2.440069 -7.19922,-3.980469 -10.126329,-3.93987 -15.634946,-7.394354 -19.623046,-12.306641 -4.433154,-5.460479 -9.321954,-15.138064 -12.751954,-25.24414 -1.49336,-4.4 -3.32453,-8.122961 -4.07031,-8.273438 -0.05434,-0.01096 -0.11011,-0.01241 -0.16797,-0.0039 z m 88.73828,14.503906 c -0.31075,-0.05186 -0.57022,0.208503 -0.85742,0.689453 -5.39746,9.038797 -6.58345,10.345296 -11.91797,13.132813 -3.10584,1.622938 -5.64714,3.282381 -5.64844,3.6875 -0.001,0.405119 1.67939,1.438243 3.73438,2.296875 6.22379,2.600462 7.91536,4.672297 11.21094,13.716797 1.30452,3.58018 2.60127,3.482148 3.91796,-0.294922 1.85883,-5.332243 5.03039,-8.758282 10.65821,-11.511719 3.01173,-1.473502 5.47424,-2.96259 5.47265,-3.310547 -0.002,-0.347958 -2.1391,-1.757812 -4.75,-3.132812 -4.04074,-2.128002 -5.25775,-3.532269 -8.17773,-9.4375 -2.02645,-4.098196 -2.95893,-5.721843 -3.64258,-5.835938 z m -25.1289,56.539063 c -0.4898,-0.16327 -1.71326,1.990929 -2.71875,4.787109 -2.95062,8.20541 -8.42062,14.228513 -16.66211,18.35156201 C 104.41495,2.008713 100.5296,3.627063 99.73266,3.627063 c -3.00671,0 -0.479974,2.39295 4.54102,4.30078 2.86929,1.09025 7.17239,3.7028 9.5625,5.80665 4.16799,3.66882 4.85398,4.97934 9.75781,18.64257 1.23786,3.44897 2.48863,2.71266 4.39258,-2.58203 3.67299,-10.21423 9.94306,-16.40711 20.26562,-20.01953 2.91588,-1.02042 5.33828,-2.25888 5.38281,-2.75195 0.0445,-0.49308 -2.83644,-2.31809 -6.40234,-4.05469 -7.98075,-3.88664899 -11.90214,-8.456736 -15.70898,-18.310546 -1.58698,-4.10782 -3.2856,-7.602365 -3.77539,-7.765625 z"
             style="fill:#e9d66d;stroke-width:0.85604036" />
        </g>
      </g>
    </g>
  </g>
</svg>
