<?xml version="1.0" standalone="no"?>
<!DOCTYPE svg PUBLIC "-//W3C//DTD SVG 20010904//EN"
 "http://www.w3.org/TR/2001/REC-SVG-20010904/DTD/svg10.dtd">
<svg version="1.0" xmlns="http://www.w3.org/2000/svg"
 width="640.000000pt" height="640.000000pt" viewBox="0 0 640.000000 640.000000"
 preserveAspectRatio="xMidYMid meet">

<g transform="translate(0.000000,640.000000) scale(0.100000,-0.100000)"
fill="#000000" stroke="none">
<path d="M3000 6074 c-19 -2 -80 -9 -135 -15 -766 -82 -1502 -505 -1971 -1136
-359 -481 -551 -1031 -571 -1633 -37 -1120 582 -2160 1587 -2665 807 -405
1772 -405 2582 1 793 398 1366 1151 1532 2014 42 217 50 306 51 550 0 248 -10
360 -51 570 -131 674 -512 1291 -1058 1714 -410 318 -868 509 -1390 581 -105
15 -501 28 -576 19z m495 -104 c205 -23 412 -69 601 -133 119 -40 364 -146
364 -157 0 -4 -38 -5 -85 -2 -68 4 -85 2 -85 -9 0 -7 43 -173 96 -367 53 -194
95 -354 93 -356 -4 -3 -538 -177 -771 -252 -83 -27 -88 -27 -125 -12 -237 100
-322 133 -431 169 -152 49 -422 118 -584 149 l-118 23 -1 41 c0 22 -6 149 -13
281 -8 152 -10 244 -4 252 13 17 145 101 243 155 125 69 279 138 410 185 110
38 129 42 220 42 55 1 141 -4 190 -9z m-1171 -452 c3 -24 10 -154 17 -289 l11
-246 -87 -104 c-193 -230 -438 -575 -574 -806 l-54 -91 -161 -31 c-89 -17
-251 -49 -361 -70 -110 -22 -200 -39 -201 -38 -1 1 -34 162 -74 357 l-73 354
28 51 c42 75 170 260 239 345 152 186 452 465 526 488 158 51 537 114 722 121
36 1 37 0 42 -41z m2456 -844 c358 -283 445 -352 573 -453 97 -77 117 -97 117
-119 0 -42 -41 -1017 -43 -1018 -1 0 -60 -32 -132 -71 -258 -142 -678 -323
-746 -323 -11 0 -70 44 -132 98 -62 53 -136 117 -165 142 -30 25 -169 144
-309 265 l-256 220 4 105 c7 177 4 859 -3 962 l-7 97 422 139 c232 77 427 140
432 141 6 0 116 -83 245 -185z m1018 -468 c144 -365 212 -811 183 -1191 -16
-205 -59 -454 -101 -581 l-12 -36 -72 7 c-39 4 -72 8 -74 10 -1 1 -7 31 -13
66 -24 151 -96 397 -160 546 -18 43 -18 55 1 521 11 262 20 500 20 527 0 49 2
52 86 143 47 50 89 92 94 92 4 0 26 -47 48 -104z m-4052 -443 c180 -217 360
-471 493 -698 l53 -89 -113 -610 c-63 -335 -119 -615 -126 -621 -31 -31 -380
-46 -594 -25 -167 17 -146 3 -254 173 -53 84 -193 303 -311 487 l-215 335 6
70 c8 97 59 373 101 540 47 186 115 406 129 411 11 5 701 141 721 143 6 1 56
-52 110 -116z m2032 -561 c81 -70 270 -232 420 -361 149 -129 272 -240 272
-248 0 -7 -13 -75 -29 -151 -56 -263 -159 -581 -265 -821 l-42 -94 -109 -38
c-61 -20 -229 -78 -375 -129 -146 -50 -290 -100 -320 -110 -30 -10 -147 -50
-259 -90 -113 -39 -210 -69 -217 -68 -6 2 -165 143 -353 313 l-342 310 7 35
c3 19 12 67 19 105 71 389 198 1054 204 1070 9 22 -23 11 641 222 234 74 457
145 495 158 39 13 78 24 88 24 10 1 84 -56 165 -127z m-3233 -511 c24 -11 50
-33 66 -57 39 -59 95 -146 341 -534 314 -495 308 -486 308 -498 0 -37 164
-407 254 -570 25 -45 40 -80 33 -76 -7 4 -57 44 -112 90 -123 101 -310 289
-406 409 -148 185 -312 458 -394 655 -68 164 -150 437 -170 569 -7 42 -6 43
16 36 13 -4 42 -15 64 -24z m5270 -453 c-53 -141 -70 -179 -139 -313 -135
-263 -301 -488 -517 -704 -67 -67 -123 -120 -126 -117 -3 2 -13 39 -24 80
l-20 76 73 88 c40 48 76 89 79 92 3 3 44 55 91 116 164 210 331 468 431 661
l42 83 67 0 67 0 -24 -62z m-925 -1018 c4 -8 19 -55 31 -103 l23 -89 -34 -29
c-162 -136 -526 -336 -775 -424 -441 -158 -918 -201 -1386 -125 -160 27 -202
38 -196 54 9 22 289 450 306 467 9 9 203 80 431 159 228 78 522 179 654 224
l238 83 350 -101 c215 -62 353 -107 358 -116z"/>
</g>
</svg>
