<?xml version="1.0" encoding="UTF-8" standalone="no"?>
<svg xmlns="http://www.w3.org/2000/svg" viewBox="0 0 100 100" height="50" width="50">

    <path
       id="library"
       d="M 0.55723,97.466149 C 0.03956,96.948489 0,96.746999 0,94.628409 v -2.2805 h 10.10234 10.10234 v 2.2805 c 0,2.11859 -0.0396,2.32008 -0.55723,2.83774 l -0.55723,0.55723 H 10.10234 1.11446 Z m 26.10717,0 c -0.51767,-0.51766 -0.55723,-0.71915 -0.55723,-2.83774 v -2.2805 h 7.28527 7.28526 l -0.0774,2.40415 c -0.11203,3.47903 0.34921,3.27132 -7.26398,3.27132 h -6.11468 z m 20.36807,0.0318 c -0.4401,-0.46847 -0.4936,-0.77607 -0.4936,-2.83773 v -2.31231 h 8.62671 8.62672 v 2.34412 c 0,3.58225 0.65211,3.33135 -8.65853,3.33135 h -7.60768 z m 34.31027,0.0692 c -0.27366,-0.11023 -0.64775,-0.43577 -0.83131,-0.72342 -0.31434,-0.49259 -1.17982,-4.22118 -1.0169,-4.38097 0.0416,-0.0408 4.46839,-1.03766 9.83739,-2.21531 6.59082,-1.44564 9.80602,-2.06065 9.89789,-1.89327 0.0748,0.13635 0.31458,1.09678 0.53275,2.13431 0.44154,2.09985 0.28645,2.94499 -0.62705,3.41702 -0.38481,0.19885 -17.01431,3.93764 -17.24173,3.87645 -0.0294,-0.008 -0.27738,-0.10458 -0.55104,-0.21481 z M 0,87.921029 v -1.47562 h 10.10234 10.10234 v 1.47562 1.47562 H 10.10234 0 Z m 46.53887,0 v -1.47562 h 8.62671 8.62672 v 1.47562 1.47562 h -8.62672 -8.62671 z m 31.14194,-3.23502 c -0.2499,-1.09253 -3.18425,-14.43527 -6.52078,-29.65053 -4.3154,-19.67915 -5.99122,-27.71059 -5.8059,-27.82512 0.37987,-0.23478 19.36797,-4.36184 19.493,-4.23681 0.17721,0.17721 13.00394,58.79482 12.94187,59.14382 -0.0419,0.23584 -2.69171,0.90703 -9.59246,2.42978 -5.24398,1.15716 -9.65305,2.10873 -9.79794,2.1146 -0.14791,0.006 -0.46269,-0.86044 -0.71779,-1.97574 z M 26.10717,53.073629 v -33.37177 h 7.2646 7.26461 v 33.37177 33.37178 h -7.26461 -7.2646 z M 0,50.122389 v -33.37177 h 10.10234 10.10234 v 33.37177 33.37177 H 10.10234 0 Z m 46.53887,11.69147 v -21.6803 h 8.62671 8.62672 v 21.6803 21.6803 h -8.62672 -8.62671 z m 0,-26.10717 v -1.47562 h 8.62671 8.62672 v 1.47562 1.47562 h -8.62672 -8.62671 z m 0,-6.77099 c 0,-3.58225 -0.65212,-3.33135 8.65853,-3.33135 h 7.60768 l 0.49361,0.52543 c 0.4401,0.46846 0.49361,0.77607 0.49361,2.83773 v 2.31231 h -8.62672 -8.62671 z m 16.79545,-9.59167 c -0.54552,-2.39462 -0.46517,-2.96519 0.50439,-3.58197 0.28663,-0.18233 4.28013,-1.15394 8.87445,-2.15912 8.85627,-1.93765 9.09793,-1.95971 9.77357,-0.89204 0.34537,0.54577 1.19828,4.20034 1.02153,4.37709 -0.0562,0.0562 -4.33647,1.02832 -9.51177,2.16033 -5.17529,1.132 -9.57912,2.10971 -9.78628,2.17269 -0.31149,0.0947 -0.46303,-0.26467 -0.87589,-2.07698 z M 0,12.437259 v -1.36211 h 10.10234 10.10234 v 1.36211 1.36211 H 10.10234 0 Z m 26.10717,-0.9184 c 0,-2.1185903 0.0396,-2.3200703 0.55723,-2.8377303 l 0.55722,-0.55723 h 6.00776 c 3.30426,0 6.17312,0.0635 6.37524,0.14102 0.71442,0.27415 1.03176,1.34447 1.03176,3.4800103 v 2.05444 h -7.26461 -7.2646 z M 0.00722,5.7969587 c 0.007,-2.41679 0.13665,-2.82169 1.0562,-3.31145 0.3517,-0.18732 2.97851,-0.2641 9.03527,-0.2641 8.96715,0 9.59395,0.0649 9.96497,1.03175 0.0776,0.20213 0.14102,1.38073 0.14102,2.61912 v 2.25162 H 10.10234 0 Z"
       style="fill:#000000;stroke-width:0.22701886" />

</svg>
