<?xml version="1.0" encoding="UTF-8" standalone="no"?>
<svg xmlns="http://www.w3.org/2000/svg" viewBox="0 0 100 100" height="25" width="25">

    <path id="library"
       d="M 0.55723,97.466149 C 0.03956,96.948489 0,96.746999 0,94.628409 v -2.2805 h 10.10234 10.10234 v 2.2805 c 0,2.11859 -0.0396,2.32008 -0.55723,2.83774 l -0.55723,0.55723 H 10.10234 1.11446 Z m 26.10717,0 c -0.51767,-0.51766 -0.55723,-0.71915 -0.55723,-2.83774 v -2.2805 h 7.28527 7.28526 l -0.0774,2.40415 c -0.11203,3.47903 0.34921,3.27132 -7.26398,3.27132 h -6.11468 z m 20.36807,0.0318 c -0.4401,-0.46847 -0.4936,-0.77607 -0.4936,-2.83773 v -2.31231 h 8.62671 8.62672 v 2.34412 c 0,3.58225 0.65211,3.33135 -8.65853,3.33135 h -7.60768 z m 34.31027,0.0692 c -0.27366,-0.11023 -0.64775,-0.43577 -0.83131,-0.72342 -0.31434,-0.49259 -1.17982,-4.22118 -1.0169,-4.38097 0.0416,-0.0408 4.46839,-1.03766 9.83739,-2.21531 6.59082,-1.44564 9.80602,-2.06065 9.89789,-1.89327 0.0748,0.13635 0.31458,1.09678 0.53275,2.13431 0.44154,2.09985 0.28645,2.94499 -0.62705,3.41702 -0.38481,0.19885 -17.01431,3.93764 -17.24173,3.87645 -0.0294,-0.008 -0.27738,-0.10458 -0.55104,-0.21481 z M 0,87.921029 v -1.47562 h 10.10234 10.10234 v 1.47562 1.47562 H 10.10234 0 Z m 46.53887,0 v -1.47562 h 8.62671 8.62672 v 1.47562 1.47562 h -8.62672 -8.62671 z m 31.14194,-3.23502 c -0.2499,-1.09253 -3.18425,-14.43527 -6.52078,-29.65053 -4.3154,-19.67915 -5.99122,-27.71059 -5.8059,-27.82512 0.37987,-0.23478 19.36797,-4.36184 19.493,-4.23681 0.17721,0.17721 13.00394,58.79482 12.94187,59.14382 -0.0419,0.23584 -2.69171,0.90703 -9.59246,2.42978 -5.24398,1.15716 -9.65305,2.10873 -9.79794,2.1146 -0.14791,0.006 -0.46269,-0.86044 -0.71779,-1.97574 z M 26.10717,53.073629 v -33.37177 h 7.2646 7.26461 v 33.37177 33.37178 h -7.26461 -7.2646 z M 0,50.122389 v -33.37177 h 10.10234 10.10234 v 33.37177 33.37177 H 10.10234 0 Z m 46.53887,11.69147 v -21.6803 h 8.62671 8.62672 v 21.6803 21.6803 h -8.62672 -8.62671 z m 0,-26.10717 v -1.47562 h 8.62671 8.62672 v 1.47562 1.47562 h -8.62672 -8.62671 z m 0,-6.77099 c 0,-3.58225 -0.65212,-3.33135 8.65853,-3.33135 h 7.60768 l 0.49361,0.52543 c 0.4401,0.46846 0.49361,0.77607 0.49361,2.83773 v 2.31231 h -8.62672 -8.62671 z m 16.79545,-9.59167 c -0.54552,-2.39462 -0.46517,-2.96519 0.50439,-3.58197 0.28663,-0.18233 4.28013,-1.15394 8.87445,-2.15912 8.85627,-1.93765 9.09793,-1.95971 9.77357,-0.89204 0.34537,0.54577 1.19828,4.20034 1.02153,4.37709 -0.0562,0.0562 -4.33647,1.02832 -9.51177,2.16033 -5.17529,1.132 -9.57912,2.10971 -9.78628,2.17269 -0.31149,0.0947 -0.46303,-0.26467 -0.87589,-2.07698 z M 0,12.437259 v -1.36211 h 10.10234 10.10234 v 1.36211 1.36211 H 10.10234 0 Z m 26.10717,-0.9184 c 0,-2.1185903 0.0396,-2.3200703 0.55723,-2.8377303 l 0.55722,-0.55723 h 6.00776 c 3.30426,0 6.17312,0.0635 6.37524,0.14102 0.71442,0.27415 1.03176,1.34447 1.03176,3.4800103 v 2.05444 h -7.26461 -7.2646 z M 0.00722,5.7969587 c 0.007,-2.41679 0.13665,-2.82169 1.0562,-3.31145 0.3517,-0.18732 2.97851,-0.2641 9.03527,-0.2641 8.96715,0 9.59395,0.0649 9.96497,1.03175 0.0776,0.20213 0.14102,1.38073 0.14102,2.61912 v 2.25162 H 10.10234 0 Z"
       style="fill:#000000;stroke-width:0.22701886" />
    <g
       id="star">
      <path
         style="opacity:1;vector-effect:none;fill:#008000;fill-opacity:1;stroke:none;stroke-width:1.45021093;stroke-linecap:round;stroke-linejoin:round;stroke-miterlimit:4;stroke-dasharray:none;stroke-dashoffset:0;stroke-opacity:1;paint-order:markers fill stroke"
         id="path46"
         d="m 48.660804,44.22002 c 0.355745,0.205389 2.657284,15.348135 2.824363,15.723401 0.167079,0.375266 9.880304,12.218116 9.794898,12.619919 -0.08541,0.401803 -13.775799,7.270063 -14.081067,7.544928 -0.305269,0.274865 -8.566938,13.172332 -8.975467,13.215271 -0.408529,0.04294 -11.171196,-10.85499 -11.526942,-11.06038 -0.355745,-0.20539 -15.174962,-4.077167 -15.342041,-4.452433 -0.167079,-0.375266 6.87162,-13.978815 6.957025,-14.380618 0.08541,-0.401803 -0.811704,-15.692161 -0.506435,-15.967026 0.305268,-0.274865 15.41809,2.215607 15.826619,2.172669 0.408529,-0.04294 14.673301,-5.621121 15.029047,-5.415731 z" />
      <path
         d="m 45.457628,49.767672 c 0.269395,0.155535 2.012278,11.622658 2.138801,11.906834 0.126524,0.284177 7.482041,9.252393 7.417366,9.556666 -0.06468,0.304272 -10.431976,5.505388 -10.663146,5.713534 -0.23117,0.208147 -6.487471,9.974991 -6.796837,10.007507 -0.309366,0.03252 -8.459593,-8.220141 -8.728988,-8.375676 -0.269394,-0.155535 -11.491518,-3.08751 -11.618042,-3.371686 -0.126523,-0.284177 5.203661,-10.585715 5.268336,-10.889987 0.06468,-0.304273 -0.614679,-11.883177 -0.383509,-12.091323 0.231171,-0.208147 11.675632,1.677809 11.984998,1.645294 0.309367,-0.03252 11.111627,-4.256698 11.381021,-4.101163 z"
         id="path48"
         style="opacity:1;vector-effect:none;fill:#00ff00;fill-opacity:1;stroke:none;stroke-width:1.09819877;stroke-linecap:round;stroke-linejoin:round;stroke-miterlimit:4;stroke-dasharray:none;stroke-dashoffset:0;stroke-opacity:1;paint-order:markers fill stroke" />
    </g>
    <g
       id="circle">
      <circle
         style="opacity:1;vector-effect:none;fill:#ff0000;fill-opacity:1;stroke:none;stroke-width:2;stroke-linecap:round;stroke-linejoin:round;stroke-miterlimit:4;stroke-dasharray:none;stroke-dashoffset:0;stroke-opacity:1;paint-order:markers fill stroke"
         id="path44"
         cx="71.25"
         cy="38.75"
         r="19.107143" />
      <circle
         r="15.535715"
         cy="38.75"
         cx="71.25"
         id="circle50"
         style="opacity:1;vector-effect:none;fill:#ffcc00;fill-opacity:1;stroke:none;stroke-width:1.62616825;stroke-linecap:round;stroke-linejoin:round;stroke-miterlimit:4;stroke-dasharray:none;stroke-dashoffset:0;stroke-opacity:1;paint-order:markers fill stroke" />
    </g>
   <g id="challenge-01">
      <circle style="fill:#ff0000;"
         cx="40"
         cy="70"
         r="20" />
   </g>

</svg>
