<?xml version="1.0" encoding="UTF-8" standalone="no"?>
<svg xmlns="http://www.w3.org/2000/svg" viewBox="0 0 100 100" height="25" width="25">

   <g id="done">
      <circle style="fill:#00ff00;"
         cx="60"
         cy="60"
         r="20" />
   </g>

    <g
       id="identikit-01">
      <path
         class="identikit-option identikit-option-3"
         style="vector-effect:none;fill:#ffff00;stroke:#008000;stroke-width:4;stroke-linecap:round;stroke-linejoin:round;stroke-miterlimit:4;stroke-dasharray:none;stroke-dashoffset:0;stroke-paint-order:markers fill stroke"
         id="path1208"
         d="m 32.678574,9.0710678 c 0.247927,0 6.020642,7.2204312 6.221219,7.3661582 0.200577,0.145728 8.851482,3.404671 8.928095,3.640464 0.07661,0.235792 -5.006557,7.957206 -5.08317,8.192998 -0.07661,0.235793 -0.502776,9.470361 -0.703353,9.616089 -0.200577,0.145728 -9.114865,-2.302607 -9.362791,-2.302607 -0.247927,0 -9.162215,2.448334 -9.362792,2.302607 -0.200577,-0.145728 -0.626739,-9.380296 -0.703353,-9.616088 -0.07661,-0.235793 -5.159784,-7.957208 -5.08317,-8.193 0.07661,-0.235792 8.727518,-3.494735 8.928095,-3.640463 0.200577,-0.145727 5.973293,-7.3661582 6.22122,-7.3661582 z" />
      <circle
         class="identikit-option identikit-option-2"
         style="vector-effect:none;fill:#ffff00;stroke:#008000;stroke-width:4;stroke-linecap:round;stroke-linejoin:round;stroke-miterlimit:4;stroke-dasharray:none;stroke-dashoffset:0;stroke-paint-order:markers fill stroke"
         id="path1210"
         cx="32.857143"
         cy="24.642859"
         r="14.107142" />
      <rect
         class="identikit-option identikit-option-1"
         style="vector-effect:none;fill:#ffff00;stroke:#008000;stroke-width:4;stroke-linecap:round;stroke-linejoin:round;stroke-miterlimit:4;stroke-dasharray:none;stroke-dashoffset:0;stroke-paint-order:markers fill stroke"
         id="rect1212"
         width="24.107143"
         height="24.107143"
         x="20.803572"
         y="12.589287" />
    </g>
    <g
       id="identikit-02">
      <path
         class="identikit-option identikit-option-3"
         style="display:inline;vector-effect:none;fill:#ff6600;stroke:#800000;stroke-width:4;stroke-linecap:round;stroke-linejoin:round;stroke-miterlimit:4;stroke-dasharray:none;stroke-dashoffset:0;stroke-paint-order:markers fill stroke"
         id="path1208-3"
         d="m 77.85714,22.839108 c 0.247927,0 6.020642,7.22043 6.221219,7.366158 0.200577,0.145728 8.851482,3.404671 8.928095,3.640463 0.07661,0.235793 -5.006557,7.957207 -5.08317,8.192999 -0.07661,0.235792 -0.502776,9.470361 -0.703353,9.616089 -0.200577,0.145727 -9.114865,-2.302607 -9.362791,-2.302607 -0.247927,0 -9.162215,2.448334 -9.362792,2.302606 -0.200577,-0.145727 -0.626739,-9.380295 -0.703353,-9.616088 -0.07661,-0.235792 -5.159784,-7.957207 -5.08317,-8.192999 0.07661,-0.235793 8.727518,-3.494735 8.928095,-3.640463 0.200577,-0.145728 5.973293,-7.366158 6.22122,-7.366158 z" />
      <circle
         class="identikit-option identikit-option-2"
         style="display:inline;vector-effect:none;fill:#ff6600;stroke:#800000;stroke-width:4;stroke-linecap:round;stroke-linejoin:round;stroke-miterlimit:4;stroke-dasharray:none;stroke-dashoffset:0;stroke-paint-order:markers fill stroke"
         id="path1210-6"
         cx="78.035713"
         cy="38.410892"
         r="14.107142" />
      <rect
         class="identikit-option identikit-option-1"
         style="display:inline;vector-effect:none;fill:#ff6600;stroke:#800000;stroke-width:4;stroke-linecap:round;stroke-linejoin:round;stroke-miterlimit:4;stroke-dasharray:none;stroke-dashoffset:0;stroke-paint-order:markers fill stroke"
         id="rect1212-7"
         width="24.107143"
         height="24.107143"
         x="65.98214"
         y="26.357325" />
    </g>
    <g 
       id="identikit-03">
      <path
         class="identikit-option identikit-option-3"
         style="display:inline;vector-effect:none;fill:#0066ff;stroke:#003380;stroke-width:4;stroke-linecap:round;stroke-linejoin:round;stroke-miterlimit:4;stroke-dasharray:none;stroke-dashoffset:0;stroke-paint-order:markers fill stroke"
         id="path1208-5"
         d="m 41.964287,56.767677 c 0.247927,0 6.020642,7.220431 6.221219,7.366159 0.200577,0.145727 8.851482,3.404671 8.928096,3.640463 0.07661,0.235792 -5.006557,7.957207 -5.083171,8.192999 -0.07661,0.235792 -0.502776,9.470361 -0.703353,9.616089 -0.200577,0.145727 -9.114864,-2.302607 -9.362791,-2.302607 -0.247927,0 -9.162215,2.448334 -9.362792,2.302606 -0.200577,-0.145728 -0.626739,-9.380296 -0.703352,-9.616088 -0.07661,-0.235792 -5.159784,-7.957207 -5.083171,-8.193 0.07661,-0.235792 8.727519,-3.494734 8.928096,-3.640462 0.200576,-0.145728 5.973293,-7.366159 6.221219,-7.366159 z" />
      <circle
         class="identikit-option identikit-option-2"
         style="display:inline;vector-effect:none;fill:#0066ff;stroke:#003380;stroke-width:4;stroke-linecap:round;stroke-linejoin:round;stroke-miterlimit:4;stroke-dasharray:none;stroke-dashoffset:0;stroke-paint-order:markers fill stroke"
         id="path1210-3"
         cx="42.142857"
         cy="72.33947"
         r="14.107142" />
      <rect
         class="identikit-option identikit-option-1"
         style="display:inline;vector-effect:none;fill:#0066ff;stroke:#003380;stroke-width:4;stroke-linecap:round;stroke-linejoin:round;stroke-miterlimit:4;stroke-dasharray:none;stroke-dashoffset:0;stroke-paint-order:markers fill stroke"
         id="rect1212-5"
         width="24.107143"
         height="24.107143"
         x="30.089285"
         y="60.285896" />
    </g>


</svg>
