<?xml version="1.0" encoding="UTF-8" standalone="no"?>
<svg xmlns="http://www.w3.org/2000/svg" viewBox="0 0 100 100" height="25" width="25">

    <path
       d="m 34.218917,27.647823 c -0.121849,0.182775 -8.281997,0.889833 -8.488008,0.966079 -0.206011,0.07625 -6.860256,4.852119 -7.071739,4.792713 -0.211483,-0.05941 -3.405559,-7.601674 -3.541735,-7.77404 C 14.98126,25.460208 8.3828603,20.60747 8.3740065,20.38798 c -0.00885,-0.219489 6.1772455,-5.587925 6.2990955,-5.7707 0.12185,-0.182775 2.698061,-7.9578041 2.904072,-8.0340506 0.206011,-0.076246 7.223307,4.1481456 7.43479,4.2075516 0.211483,0.05941 8.402068,0.106911 8.538243,0.279278 0.136176,0.172367 -1.712996,8.151621 -1.704143,8.37111 0.0089,0.21949 2.494703,8.023879 2.372853,8.206654 z"
       id="done"
       style="opacity:1;vector-effect:none;fill:#ff0000;fill-opacity:1;stroke:none;stroke-width:0.5;stroke-linecap:round;stroke-linejoin:round;stroke-miterlimit:4;stroke-dasharray:none;stroke-dashoffset:0;stroke-opacity:1;paint-order:markers fill stroke" />
    <path
       d="m 75.130093,33.203664 c -0.157226,0.06092 -5.592397,-3.099425 -5.755406,-3.14255 -0.163009,-0.04313 -6.44993,0.01603 -6.556459,-0.114673 -0.106528,-0.130703 1.219582,-6.27646 1.210225,-6.444817 -0.0094,-0.168358 -2.008385,-6.129295 -1.916998,-6.270999 0.09139,-0.141704 6.34614,-0.779641 6.503366,-0.840566 0.157226,-0.06093 5.20868,-3.804144 5.371689,-3.761018 0.16301,0.04312 2.702548,5.794615 2.809077,5.925319 0.106528,0.130704 5.227526,3.778204 5.236884,3.946562 0.0094,0.168357 -4.675873,4.36091 -4.767261,4.502614 -0.09139,0.141705 -1.977891,6.139203 -2.135117,6.200128 z"
       id="feature-02"
       style="opacity:1;vector-effect:none;fill:#ff6600;fill-opacity:1;stroke:none;stroke-width:0.5;stroke-linecap:round;stroke-linejoin:round;stroke-miterlimit:4;stroke-dasharray:none;stroke-dashoffset:0;stroke-opacity:1;paint-order:markers fill stroke" />
    <path
       d="m 75.761437,62.954 c 0.161921,0 3.932095,4.715681 4.063092,4.810856 0.130997,0.09518 5.780924,2.223599 5.830961,2.377595 0.05004,0.153997 -3.269795,5.19687 -3.319831,5.350867 -0.05004,0.153996 -0.328364,6.185115 -0.459362,6.28029 -0.130997,0.09517 -5.952939,-1.503838 -6.114861,-1.503838 -0.161921,0 -5.983864,1.599013 -6.114861,1.503838 -0.130997,-0.09518 -0.409324,-6.126294 -0.459361,-6.28029 -0.05004,-0.153997 -3.369867,-5.196871 -3.319831,-5.350867 0.05004,-0.153997 5.699963,-2.28242 5.830961,-2.377595 0.130997,-0.09517 3.901171,-4.810856 4.063093,-4.810856 z"
       id="feature-04"
       style="opacity:1;vector-effect:none;fill:#008000;fill-opacity:1;stroke:none;stroke-width:0.5;stroke-linecap:round;stroke-linejoin:round;stroke-miterlimit:4;stroke-dasharray:none;stroke-dashoffset:0;stroke-opacity:1;paint-order:markers fill stroke" />
    <path
       d="m 43.39979,60.225246 c 0,0.168446 -4.905675,4.090521 -5.004685,4.226796 -0.09901,0.136276 -2.313188,6.013838 -2.473389,6.06589 -0.160201,0.05205 -5.406254,-3.401534 -5.566455,-3.453586 -0.160201,-0.05205 -6.434314,-0.341595 -6.533323,-0.47787 -0.09901,-0.136275 1.564426,-6.192784 1.564426,-6.36123 0,-0.168445 -1.663436,-6.224954 -1.564426,-6.361229 0.09901,-0.136276 6.373122,-0.425818 6.533323,-0.47787 0.160201,-0.05205 5.406254,-3.505639 5.566455,-3.453587 0.160201,0.05205 2.374379,5.929615 2.473389,6.06589 0.09901,0.136276 5.004685,4.058351 5.004685,4.226796 z"
       id="feature-03"
       style="opacity:1;vector-effect:none;fill:#ffcc00;fill-opacity:1;stroke:none;stroke-width:0.5;stroke-linecap:round;stroke-linejoin:round;stroke-miterlimit:4;stroke-dasharray:none;stroke-dashoffset:0;stroke-opacity:1;paint-order:markers fill stroke" />

</svg>
