<?xml version="1.0" encoding="UTF-8" standalone="no"?>
<svg xmlns="http://www.w3.org/2000/svg"
   xmlns:xlink="http://www.w3.org/1999/xlink" viewBox="0 0 100 100" height="25" width="25">

      <g
         id="alice-welcome" class="item">
        <g
           aria-label="play_me!"
           transform="rotate(-15,-31.730304,-5.7380053)"
           style="font-style:normal;font-variant:normal;font-weight:normal;font-stretch:normal;font-size:15.51064301px;line-height:1.25;font-family:Blackout;-inkscape-font-specification:'Blackout, Normal';font-variant-ligatures:normal;font-variant-caps:normal;font-variant-numeric:normal;font-feature-settings:normal;text-align:start;letter-spacing:0px;word-spacing:0px;writing-mode:lr-tb;text-anchor:start;display:inline;fill:#ff196c;fill-opacity:1;stroke:none;stroke-width:0.38776606"
           id="text2759-3">
          <path
             d="M -3.4150051,51.103728 V 64.117157 H -10.456837 V 51.103728 Z m -3.5054053,7.600215 q 0.6204257,0 1.1632982,-0.23266 0.5428725,-0.23266 0.9461492,-0.635936 0.4187874,-0.403277 0.651447,-0.94615 0.2326597,-0.542872 0.2326597,-1.163298 0,-0.620426 -0.2326597,-1.163298 -0.2326596,-0.542873 -0.651447,-0.946149 -0.4032767,-0.418788 -0.9461492,-0.651447 -0.5428725,-0.23266 -1.1632982,-0.23266 h -0.015511 -2.9160009 v 9.616599 h 2.1714901 v -3.645001 h 0.7445108 z"
             style="stroke-width:0.38776606"
             id="path2681-8" />
          <path
             d="M -3.6420905,51.103728 H 2.9964647 V 64.117157 H -3.6420905 Z M 2.376039,62.348944 v -2.17149 H -0.69506834 V 52.732345 H -2.8665584 v 9.616599 z"
             style="stroke-width:0.38776606"
             id="path2683-0" />
          <path
             d="M 2.6894029,51.103728 H 12.523151 V 64.117157 H 2.6894029 Z M 9.7002135,62.348944 H 12.042321 L 8.7075323,52.732345 H 6.334404 l -3.3347883,9.616599 h 2.3265965 l 1.302894,-3.722555 h 1.7837239 z"
             style="stroke-width:0.38776606"
             id="path2685-3" />
          <path
             d="m 12.246141,51.103728 h 8.499832 v 13.013429 h -8.499832 z m 5.32015,6.452427 2.590277,-4.82381 h -2.17149 l -1.504532,2.791916 -1.504532,-2.791916 h -2.17149 l 2.590277,4.808299 v 4.8083 h 2.17149 z"
             style="stroke-width:0.38776606"
             id="path2687-3" />
          <path
             d="m 28.553157,51.088217 v 13.02894 h -8.112066 v -13.02894 z"
             style="stroke-width:0.38776606"
             id="path2689-6" />
          <path
             d="M 28.28802,51.103728 H 38.64913 V 64.117157 H 28.28802 Z m 9.585578,1.644128 0.01551,-0.01551 h -2.187 v 0.01551 l -2.249043,6.483448 -2.249044,-6.498959 H 29.00151 v 9.616599 H 31.173 V 58.89007 l 1.19432,3.458874 h 2.17149 l 1.163298,-3.350299 v 3.350299 h 2.17149 z"
             style="stroke-width:0.38776606"
             id="path2691-2" />
          <path
             d="m 38.436588,51.103728 h 7.103874 v 13.013429 h -7.103874 z m 6.467938,3.800107 v -2.17149 h -5.894045 v 9.616599 h 5.894045 v -2.17149 h -3.722555 v -1.551065 h 2.745384 v -2.17149 h -2.745384 v -1.551064 z"
             style="stroke-width:0.38776606"
             id="path2693-1" />
          <path
             d="m 45.283084,51.088217 h 3.458874 v 13.02894 h -3.458874 z m 0.666958,1.737192 v 6.452427 h 2.093937 v -6.452427 z m 2.093937,9.290875 v -2.093937 h -2.078427 v 2.093937 z"
             style="stroke-width:0.38776606"
             id="path2695-4" />
        </g>
        <text
           xml:space="preserve"
           style="font-style:normal;font-variant:normal;font-weight:500;font-stretch:normal;font-size:19.59389305px;line-height:1.25;font-family:MomsDiner;-inkscape-font-specification:'MomsDiner, Medium';font-variant-ligatures:normal;font-variant-caps:normal;font-variant-numeric:normal;font-feature-settings:normal;text-align:start;letter-spacing:0px;word-spacing:0px;writing-mode:lr-tb;text-anchor:start;display:inline;fill:#0277c1;fill-opacity:1;stroke:none;stroke-width:0.4898473"
           x="1.4126718"
           y="15.275007"
           id="text2735-1"><tspan
             id="tspan2733-9"
             x="1.4126718"
             y="15.275007"
             style="fill:#0277c1;fill-opacity:1;stroke-width:0.4898473">A.L.I.C.E</tspan></text>
        <text
           id="text2757-1"
           y="21.787466"
           x="1.5400674"
           style="font-style:normal;font-variant:normal;font-weight:500;font-stretch:normal;font-size:5.23923492px;line-height:1.25;font-family:MomsDiner;-inkscape-font-specification:'MomsDiner, Medium';font-variant-ligatures:normal;font-variant-caps:normal;font-variant-numeric:normal;font-feature-settings:normal;text-align:start;letter-spacing:0px;word-spacing:0px;writing-mode:lr-tb;text-anchor:start;display:inline;fill:#0277c1;fill-opacity:1;stroke:none;stroke-width:0.13098086"
           xml:space="preserve"><tspan
             style="fill:#0277c1;fill-opacity:1;stroke-width:0.13098086"
             y="21.787466"
             x="1.5400674"
             id="tspan2755-2">Alice's Lucca Interactive Creative Experience</tspan></text>
        <image
           style="display:inline"
           y="20.030226"
           x="61.521095"
           id="image2789-6"
           xlink:href="~/welcome/books-tall-sml.png"
           preserveAspectRatio="none"
           height="78.570747"
           width="55.58881" />
        <image
           style="display:inline"
           y="28.181393"
           x="86.160873"
           id="image2778-8"
           xlink:href="~/welcome/books-short-sml.png"
           preserveAspectRatio="none"
           height="78.570747"
           width="55.58881" />
        <image
           style="display:inline"
           y="58.517078"
           x="54.500854"
           id="image2767-2"
           xlink:href="~/welcome/alice.png"
           preserveAspectRatio="none"
           height="44.841919"
           width="44.841919" />
        <image
           style="display:inline"
           y="75.947289"
           x="20.499243"
           id="image6613-1"
           xlink:href="~/welcome/citta-che-legge.png"
           preserveAspectRatio="none"
           height="15.613344"
           width="15.613344" />
        <image
           style="display:inline"
           y="89.151276"
           x="2.4772825"
           id="image6624-8"
           xlink:href="~/welcome/logo-agora.jpg"
           preserveAspectRatio="none"
           height="9.0049295"
           width="7.2420831" />
        <image
           style="display:inline"
           y="73.987839"
           x="-2.8530233"
           id="image6635-2"
           xlink:href="~/welcome/logo-cepell.png"
           preserveAspectRatio="none"
           height="21.002403"
           width="29.730396" />
        <image
           style="display:inline"
           y="90.087502"
           x="12.426187"
           id="image6646-4"
           xlink:href="~/welcome/lucca-creative-hub.png"
           preserveAspectRatio="none"
           height="8.5338545"
           width="7.4137864" />
        <image
           style="display:inline"
           y="89.151276"
           x="23.230339"
           id="image4616-0"
           xlink:href="~/welcome/viva-voce-sml.jpg"
           preserveAspectRatio="none"
           height="9.0217133"
           width="7.0299058" />
        <image
           width="55.58881"
           height="78.570747"
           preserveAspectRatio="none"
           xlink:href="~/welcome/books-short-sml.png"
           id="image10612"
           x="31.411251"
           y="47.832062"
           style="display:inline" />
      </g>


</svg>
