<?xml version="1.0" encoding="UTF-8" standalone="no"?>
<svg xmlns="http://www.w3.org/2000/svg" viewBox="0 0 100 100" height="25" width="25">

    <g id="foro-boario-logo-bg">
        <circle style="opacity:1;fill:#ffffff" cx="50" cy="50" r="55" />
        <path id="path2235-0" d="m 11.536719,75.91296 c 10.683796,-20.673461 3.00388,-19.434457 -0.892855,-33.035716 -3.8967318,-13.601258 23.825251,1.110724 25,-16.607141" style="display:inline;fill:none;stroke:#3eb19e;stroke-width:1px;stroke-linecap:butt;stroke-linejoin:miter;stroke-opacity:1" />
        <path style="display:inline;fill:none;stroke:#3eb19e;stroke-width:1px;stroke-linecap:butt;stroke-linejoin:miter;stroke-opacity:1" d="M 26.893862,75.020102 C 16.149086,60.060927 65.254881,57.014216 69.215292,52.162958 73.175703,47.3117 69.111972,38.273682 74.572435,30.198674" id="path2449" />
        <path id="path2451" d="m 22.429577,41.995996 c -0.923347,9.959175 11.039591,11.398743 17.142859,13.392858 6.103268,1.994115 12.218108,7.282134 3.392857,19.999999" style="display:inline;fill:none;stroke:#3eb19e;stroke-width:1px;stroke-linecap:butt;stroke-linejoin:miter;stroke-opacity:1" />
        <path style="display:inline;fill:none;stroke:#3eb19e;stroke-width:1px;stroke-linecap:butt;stroke-linejoin:miter;stroke-opacity:1" d="m 58.501005,13.067425 c 2.290939,17.816318 4.968162,23.898743 -8.928569,23.035715 -13.896732,-0.863028 3.82525,28.710705 9.285714,40.892856" id="path2453" />
        <path style="display:inline;fill:none;stroke:#3eb19e;stroke-width:1px;stroke-linecap:butt;stroke-linejoin:miter;stroke-opacity:1" d="M 82.251005,42.710282 C 82.041944,52.669457 59.36202,72.501882 54.215293,56.460283 49.068566,40.418684 90.004835,50.885275 76.358146,76.281711" id="path2455" />
        <path style="opacity:1;vector-effect:none;fill:#3eb19e;fill-opacity:1;stroke:none;stroke-width:0.79722494;stroke-linecap:round;stroke-linejoin:round;stroke-miterlimit:4;stroke-dasharray:none;stroke-dashoffset:0;stroke-opacity:1;paint-order:markers fill stroke" d="M 5.1283843,3.3564088 A 2.9192806,2.9192806 0 0 0 2.2088669,6.2759342 2.9192806,2.9192806 0 0 0 5.1283843,9.1954594 2.9192806,2.9192806 0 0 0 8.0479094,6.2759342 2.9192806,2.9192806 0 0 0 5.1283843,3.3564088 Z m 90.2561427,0 A 2.9192806,2.9192806 0 0 0 92.466556,6.2759342 2.9192806,2.9192806 0 0 0 95.384527,9.1954594 2.9192806,2.9192806 0 0 0 98.304044,6.2759342 2.9192806,2.9192806 0 0 0 95.384527,3.3564088 Z M 5.1283843,14.603196 a 2.9192806,2.9192806 0 0 0 -2.9195174,2.919525 2.9192806,2.9192806 0 0 0 2.9195174,2.91797 2.9192806,2.9192806 0 0 0 2.9195251,-2.91797 2.9192806,2.9192806 0 0 0 -2.9195251,-2.919525 z m 90.2561427,0 a 2.9192806,2.9192806 0 0 0 -2.917971,2.919525 2.9192806,2.9192806 0 0 0 2.917971,2.91797 2.9192806,2.9192806 0 0 0 2.919517,-2.91797 2.9192806,2.9192806 0 0 0 -2.919517,-2.919525 z M 5.1283843,25.849985 a 2.9192806,2.9192806 0 0 0 -2.9195174,2.917967 2.9192806,2.9192806 0 0 0 2.9195174,2.919526 2.9192806,2.9192806 0 0 0 2.9195251,-2.919526 2.9192806,2.9192806 0 0 0 -2.9195251,-2.917967 z m 90.2561427,0 a 2.9192806,2.9192806 0 0 0 -2.917971,2.917967 2.9192806,2.9192806 0 0 0 2.917971,2.919526 2.9192806,2.9192806 0 0 0 2.919517,-2.919526 2.9192806,2.9192806 0 0 0 -2.919517,-2.917967 z" id="path2168" />
        <path style="opacity:1;vector-effect:none;fill:#000000;fill-opacity:1;stroke:none;stroke-width:0.72484654;stroke-linecap:round;stroke-linejoin:round;stroke-miterlimit:4;stroke-dasharray:none;stroke-dashoffset:0;stroke-opacity:1;paint-order:markers fill stroke" d="m 16.33236,1.9192243 c -1.728823,0 -3.120394,1.5511606 -3.120394,3.4785156 v 7.5378251 c 0,1.927356 1.391571,3.478515 3.120394,3.478515 1.728814,0 3.120385,-1.551159 3.120385,-3.478515 V 5.3977391 c 0,-1.9273551 -1.391571,-3.4785148 -3.120385,-3.4785148 z m 8.479851,0 c -1.728815,0 -3.120387,1.5511606 -3.120387,3.4785156 v 7.5378251 c 0,1.927356 1.391572,3.478515 3.120387,3.478515 1.728821,0 3.121948,-1.551159 3.121948,-3.478515 V 5.3977391 c 0,-1.9273551 -1.393127,-3.4785148 -3.121948,-3.4785148 z m 8.48142,0 c -1.728822,0 -3.120394,1.5511606 -3.120394,3.4785156 v 7.5378251 c 0,1.927356 1.391572,3.478515 3.120394,3.478515 1.728814,0 3.120386,-1.551159 3.120386,-3.478515 V 5.3977391 c 0,-1.9273551 -1.391572,-3.4785148 -3.120386,-3.4785148 z m 8.481413,0 c -1.728822,0 -3.120386,1.5511606 -3.120386,3.4785156 v 7.5378251 c 0,1.927356 1.391564,3.478515 3.120386,3.478515 1.728814,0 3.120386,-1.551159 3.120386,-3.478515 V 5.3977391 c 0,-1.9273551 -1.391572,-3.4785148 -3.120386,-3.4785148 z m 8.481413,0 c -1.728814,0 -3.120387,1.5511606 -3.120387,3.4785156 v 7.5378251 c 0,1.927356 1.391573,3.478515 3.120387,3.478515 1.728815,0 3.120386,-1.551159 3.120386,-3.478515 V 5.3977391 c 0,-1.9273551 -1.391571,-3.4785148 -3.120386,-3.4785148 z m 8.479859,0 c -1.728823,0 -3.120387,1.5511606 -3.120387,3.4785156 v 7.5378251 c 0,1.927356 1.391564,3.478515 3.120387,3.478515 1.728814,0 3.121941,-1.551159 3.121941,-3.478515 V 5.3977391 c 0,-1.9273551 -1.393127,-3.4785148 -3.121941,-3.4785148 z m 8.481413,0 c -1.728815,0 -3.120387,1.5511606 -3.120387,3.4785156 v 7.5378251 c 0,1.927356 1.391572,3.478515 3.120387,3.478515 1.728822,0 3.120386,-1.551159 3.120386,-3.478515 V 5.3977391 c 0,-1.9273551 -1.391564,-3.4785148 -3.120386,-3.4785148 z m 8.481413,0 c -1.728815,0 -3.120387,1.5511606 -3.120387,3.4785156 v 7.5378251 c 0,1.927356 1.391572,3.478515 3.120387,3.478515 1.728821,0 3.120386,-1.551159 3.120386,-3.478515 V 5.3977391 c 0,-1.9273551 -1.391565,-3.4785148 -3.120386,-3.4785148 z m 8.481409,0 c -1.728815,0 -3.120387,1.5511606 -3.120387,3.4785156 v 7.5378251 c 0,1.927356 1.391572,3.478515 3.120387,3.478515 1.728821,0 3.120393,-1.551159 3.120393,-3.478515 V 5.3977391 c 0,-1.9273551 -1.391572,-3.4785148 -3.120393,-3.4785148 z M 16.33236,18.628246 c -1.728823,0 -3.120394,1.552723 -3.120394,3.480077 v 7.537822 c 0,1.927353 1.391571,3.478516 3.120394,3.478516 1.728814,0 3.120385,-1.551163 3.120385,-3.478516 v -7.537822 c 0,-1.927354 -1.391571,-3.480077 -3.120385,-3.480077 z m 9.69282,0 c -1.728822,0 -3.121949,1.552723 -3.121949,3.480077 v 7.537822 c 0,1.927353 1.393127,3.478516 3.121949,3.478516 1.728814,0 3.120386,-1.551163 3.120386,-3.478516 v -7.537822 c 0,-1.927354 -1.391572,-3.480077 -3.120386,-3.480077 z m 9.691265,0 c -1.728821,0 -3.120385,1.552723 -3.120385,3.480077 v 7.537822 c 0,1.927353 1.391564,3.478516 3.120385,3.478516 1.728815,0 3.121941,-1.551163 3.121941,-3.478516 v -7.537822 c 0,-1.927354 -1.393126,-3.480077 -3.121941,-3.480077 z m 9.692821,0 c -1.728814,0 -3.120387,1.552723 -3.120387,3.480077 v 7.537822 c 0,1.927353 1.391573,3.478516 3.120387,3.478516 1.728822,0 3.120386,-1.551163 3.120386,-3.478516 v -7.537822 c 0,-1.927354 -1.391564,-3.480077 -3.120386,-3.480077 z m 9.69282,0 c -1.728815,0 -3.120387,1.552723 -3.120387,3.480077 v 7.537822 c 0,1.927353 1.391572,3.478516 3.120387,3.478516 1.728822,0 3.120394,-1.551163 3.120394,-3.478516 v -7.537822 c 0,-1.927354 -1.391572,-3.480077 -3.120394,-3.480077 z m 9.692828,0 c -1.728822,0 -3.120386,1.552723 -3.120386,3.480077 v 7.537822 c 0,1.927353 1.391564,3.478516 3.120386,3.478516 1.728815,0 3.120387,-1.551163 3.120387,-3.478516 v -7.537822 c 0,-1.927354 -1.391572,-3.480077 -3.120387,-3.480077 z m 9.692821,0 c -1.728815,0 -3.120387,1.552723 -3.120387,3.480077 v 7.537822 c 0,1.927353 1.391572,3.478516 3.120387,3.478516 1.728821,0 3.120386,-1.551163 3.120386,-3.478516 v -7.537822 c 0,-1.927354 -1.391565,-3.480077 -3.120386,-3.480077 z m 9.692816,0 c -1.728815,0 -3.120387,1.552723 -3.120387,3.480077 v 7.537822 c 0,1.927353 1.391572,3.478516 3.120387,3.478516 1.728821,0 3.120393,-1.551163 3.120393,-3.478516 v -7.537822 c 0,-1.927354 -1.391572,-3.480077 -3.120393,-3.480077 z" id="rect2181" />
        <path style="opacity:1;vector-effect:none;fill:#e06292;fill-opacity:1;stroke:none;stroke-width:0.33069476;stroke-linecap:round;stroke-linejoin:round;stroke-miterlimit:4;stroke-dasharray:none;stroke-dashoffset:0;stroke-opacity:1;paint-order:markers fill stroke" d="m 3.4996618,38.127999 c -0.7887346,0 -1.4226081,0.707731 -1.4226161,1.587041 v 3.438346 c 0,0.879311 0.6338815,1.587042 1.4226161,1.587042 0.7887344,0 1.4240748,-0.707731 1.4240748,-1.587042 V 39.71504 c 0,-0.87931 -0.6353324,-1.587041 -1.4240748,-1.587041 z m 3.695265,0 c -0.7887265,0 -1.4240749,0.707731 -1.4240749,1.587041 v 3.438346 c 0,0.879311 0.6353404,1.587042 1.4240749,1.587042 0.7887422,0 1.4226155,-0.707731 1.4226155,-1.587042 V 39.71504 c 0,-0.87931 -0.6338652,-1.587041 -1.4226155,-1.587041 z m 7.6753542,0 c -0.788735,0 -1.422616,0.707731 -1.422616,1.587041 v 3.438346 c 0,0.879311 0.633881,1.587042 1.422616,1.587042 0.788735,0 1.424075,-0.707731 1.424075,-1.587042 V 39.71504 c 0,-0.87931 -0.63534,-1.587041 -1.424075,-1.587041 z m 3.695265,0 c -0.788743,0 -1.424083,0.707731 -1.424083,1.587041 v 3.438346 c 0,0.879311 0.63534,1.587042 1.424083,1.587042 0.788727,0 1.424076,-0.707731 1.424076,-1.587042 V 39.71504 c 0,-0.87931 -0.635349,-1.587041 -1.424076,-1.587041 z m 3.693799,0 c -0.788743,0 -1.422609,0.707731 -1.422609,1.587041 v 3.438346 c 0,0.879311 0.633866,1.587042 1.422609,1.587042 0.788726,0 1.424083,-0.707731 1.424083,-1.587042 V 39.71504 c 0,-0.87931 -0.635357,-1.587041 -1.424083,-1.587041 z m 3.695265,0 c -0.788727,0 -1.424076,0.707731 -1.424076,1.587041 v 3.438346 c 0,0.879311 0.635349,1.587042 1.424076,1.587042 0.788742,0 1.424083,-0.707731 1.424083,-1.587042 V 39.71504 c 0,-0.87931 -0.635341,-1.587041 -1.424083,-1.587041 z m 3.693798,0 c -0.788735,0 -1.424075,0.707731 -1.424075,1.587041 v 3.438346 c 0,0.879311 0.63534,1.587042 1.424075,1.587042 0.788727,0 1.424082,-0.707731 1.424082,-1.587042 V 39.71504 c 0,-0.87931 -0.635355,-1.587041 -1.424082,-1.587041 z m 7.675354,0 c -0.788733,0 -1.422615,0.707731 -1.422615,1.587041 v 3.438346 c 0,0.879311 0.633882,1.587042 1.422615,1.587042 0.788735,0 1.424076,-0.707731 1.424076,-1.587042 V 39.71504 c 0,-0.87931 -0.635341,-1.587041 -1.424076,-1.587041 z m 3.695266,0 c -0.788734,0 -1.424083,0.707731 -1.424083,1.587041 v 3.438346 c 0,0.879311 0.635349,1.587042 1.424083,1.587042 0.788742,0 1.422608,-0.707731 1.422608,-1.587042 V 39.71504 c 0,-0.87931 -0.633866,-1.587041 -1.422608,-1.587041 z m 7.676822,0 c -0.788735,0 -1.424083,0.707731 -1.424091,1.587041 v 3.438346 c 0,0.879311 0.635356,1.587042 1.424091,1.587042 0.788726,0 1.424074,-0.707731 1.424074,-1.587042 V 39.71504 c 0,-0.87931 -0.635348,-1.587041 -1.424074,-1.587041 z m 3.693798,0 c -0.788743,0 -1.422616,0.707731 -1.422616,1.587041 v 3.438346 c 0,0.879311 0.633873,1.587042 1.422616,1.587042 0.788726,0 1.424075,-0.707731 1.424075,-1.587042 V 39.71504 c 0,-0.87931 -0.635349,-1.587041 -1.424075,-1.587041 z m 3.695257,0 c -0.788726,0 -1.424075,0.707731 -1.424075,1.587041 v 3.438346 c 0,0.879311 0.635349,1.587042 1.424075,1.587042 0.788742,0 1.424091,-0.707731 1.424091,-1.587042 V 39.71504 c 0,-0.87931 -0.635349,-1.587041 -1.424091,-1.587041 z m 3.693806,0 c -0.788734,0 -1.422608,0.707731 -1.422608,1.587041 v 3.438346 c 0,0.879311 0.633874,1.587042 1.422608,1.587042 0.788734,0 1.424083,-0.707731 1.424083,-1.587042 V 39.71504 c 0,-0.87931 -0.635349,-1.587041 -1.424083,-1.587041 z m 3.695265,0 c -0.788726,0 -1.424083,0.707731 -1.424083,1.587041 v 3.438346 c 0,0.879311 0.635357,1.587042 1.424083,1.587042 0.788735,0 1.424075,-0.707731 1.424075,-1.587042 V 39.71504 c 0,-0.87931 -0.63534,-1.587041 -1.424075,-1.587041 z m 3.693806,0 c -0.788742,0 -1.422615,0.707731 -1.422615,1.587041 v 3.438346 c 0,0.879311 0.633873,1.587042 1.422615,1.587042 0.788727,0 1.424075,-0.707731 1.424075,-1.587042 V 39.71504 c 0,-0.87931 -0.63534,-1.587041 -1.424075,-1.587041 z m 7.678281,0 c -0.788735,0 -1.424075,0.707731 -1.424075,1.587041 v 3.438346 c 0,0.879311 0.63534,1.587042 1.424075,1.587042 0.788734,0 1.424083,-0.707731 1.424083,-1.587042 V 39.71504 c 0,-0.87931 -0.635349,-1.587041 -1.424083,-1.587041 z m 3.693799,0 c -0.788735,0 -1.422617,0.707731 -1.422617,1.587041 v 3.438346 c 0,0.879311 0.633882,1.587042 1.422617,1.587042 0.78873,0 1.424079,-0.707731 1.424079,-1.587042 V 39.71504 c 0,-0.87931 -0.635349,-1.587041 -1.424079,-1.587041 z m 3.695269,0 c -0.788743,0 -1.424084,0.707731 -1.424084,1.587041 v 3.438346 c 0,0.879311 0.635341,1.587042 1.424084,1.587042 0.788726,0 1.424074,-0.707731 1.424074,-1.587042 V 39.71504 c 0,-0.87931 -0.635348,-1.587041 -1.424074,-1.587041 z m 3.693798,0 c -0.788743,0 -1.424083,0.707731 -1.424083,1.587041 v 3.438346 c 0,0.879311 0.63534,1.587042 1.424083,1.587042 0.788726,0 1.424074,-0.707731 1.424074,-1.587042 V 39.71504 c 0,-0.87931 -0.635348,-1.587041 -1.424074,-1.587041 z m 3.695265,0 c -0.788727,0 -1.424083,0.707731 -1.424083,1.587041 v 3.438346 c 0,0.879311 0.635356,1.587042 1.424083,1.587042 0.788742,0 1.422608,-0.707731 1.422608,-1.587042 V 39.71504 c 0,-0.87931 -0.633866,-1.587041 -1.422608,-1.587041 z m 3.693798,0 c -0.788735,0 -1.424075,0.707731 -1.424075,1.587041 v 3.438346 c 0,0.879311 0.63534,1.587042 1.424075,1.587042 0.788726,0 1.424083,-0.707731 1.424083,-1.587042 V 39.71504 c 0,-0.87931 -0.635357,-1.587041 -1.424083,-1.587041 z m 3.695265,0 c -0.788734,0 -1.424083,0.707731 -1.424083,1.587041 v 3.438346 c 0,0.879311 0.635349,1.587042 1.424083,1.587042 0.788734,0 1.422608,-0.707731 1.422608,-1.587042 V 39.71504 c 0,-0.87931 -0.633874,-1.587041 -1.422608,-1.587041 z" id="rect2240" />
    </g>

    <g id="done">
        <circle style="opacity:1;vector-effect:none;fill:#ffffff;fill-opacity:1;stroke:#000000;stroke-width:1;stroke-linecap:round;stroke-linejoin:round;stroke-miterlimit:4;stroke-dasharray:none;stroke-dashoffset:0;stroke-opacity:1;paint-order:markers fill stroke" id="circle8551-5-6" cx="91.023964" cy="81.197296" r="5" />
        <path style="display:inline;fill:#000000;stroke:none;stroke-width:0.68732953px;stroke-linecap:butt;stroke-linejoin:miter;stroke-opacity:1" d="m 87.646268,80.092183 2.994201,0.954673 6.335558,-7.029866 -5.901614,10.067463 z" id="path8659-7" />
    </g>
    <g id="lettera1">
        <circle style="opacity:1;vector-effect:none;fill:#000000;fill-opacity:1;stroke:none;stroke-width:2;stroke-linecap:round;stroke-linejoin:round;stroke-miterlimit:4;stroke-dasharray:none;stroke-dashoffset:0;stroke-opacity:1;paint-order:markers fill stroke" id="circle2137" cx="58.750004" cy="79.821426" r="7.8571429" />
        <text class="identikit-option identikit-option-1" id="text2198" y="84.64286" x="58.750004" style="font-style:normal;font-variant:normal;font-weight:normal;font-stretch:normal;font-size:15.86386681px;line-height:1.25;font-family:'AR JULIAN';-inkscape-font-specification:'AR JULIAN, Normal';font-variant-ligatures:normal;font-variant-caps:normal;font-variant-numeric:normal;font-feature-settings:normal;text-align:center;letter-spacing:0px;word-spacing:0px;writing-mode:lr-tb;text-anchor:middle;fill:#ffffff;fill-opacity:1;stroke:none;stroke-width:0.59489501" 
        xml:space="preserve"><tspan style="fill:#ffffff;stroke-width:0.59489501" y="84.64286" x="58.750004" id="tspan2196">?</tspan></text>
        <text  class="identikit-option identikit-option-2" id="text2198" y="84.64286" x="58.750004" style="font-style:normal;font-variant:normal;font-weight:normal;font-stretch:normal;font-size:15.86386681px;line-height:1.25;font-family:'AR JULIAN';-inkscape-font-specification:'AR JULIAN, Normal';font-variant-ligatures:normal;font-variant-caps:normal;font-variant-numeric:normal;font-feature-settings:normal;text-align:center;letter-spacing:0px;word-spacing:0px;writing-mode:lr-tb;text-anchor:middle;fill:#ffffff;fill-opacity:1;stroke:none;stroke-width:0.59489501" 
        xml:space="preserve"><tspan style="fill:#ffffff;stroke-width:0.59489501" y="84.64286" x="58.750004" id="tspan2196">U</tspan></text>
        <text  class="identikit-option identikit-option-3" id="text2198" y="84.64286" x="58.750004" style="font-style:normal;font-variant:normal;font-weight:normal;font-stretch:normal;font-size:15.86386681px;line-height:1.25;font-family:'AR JULIAN';-inkscape-font-specification:'AR JULIAN, Normal';font-variant-ligatures:normal;font-variant-caps:normal;font-variant-numeric:normal;font-feature-settings:normal;text-align:center;letter-spacing:0px;word-spacing:0px;writing-mode:lr-tb;text-anchor:middle;fill:#ffffff;fill-opacity:1;stroke:none;stroke-width:0.59489501" 
        xml:space="preserve"><tspan style="fill:#ffffff;stroke-width:0.59489501" y="84.64286" x="58.750004" id="tspan2196">T</tspan></text>
        <text  class="identikit-option identikit-option-4" id="text2198" y="84.64286" x="58.750004" style="font-style:normal;font-variant:normal;font-weight:normal;font-stretch:normal;font-size:15.86386681px;line-height:1.25;font-family:'AR JULIAN';-inkscape-font-specification:'AR JULIAN, Normal';font-variant-ligatures:normal;font-variant-caps:normal;font-variant-numeric:normal;font-feature-settings:normal;text-align:center;letter-spacing:0px;word-spacing:0px;writing-mode:lr-tb;text-anchor:middle;fill:#ffffff;fill-opacity:1;stroke:none;stroke-width:0.59489501" 
        xml:space="preserve"><tspan style="fill:#ffffff;stroke-width:0.59489501" y="84.64286" x="58.750004" id="tspan2196">N</tspan></text>
        <text  class="identikit-option identikit-option-5" id="text2198" y="84.64286" x="58.750004" style="font-style:normal;font-variant:normal;font-weight:normal;font-stretch:normal;font-size:15.86386681px;line-height:1.25;font-family:'AR JULIAN';-inkscape-font-specification:'AR JULIAN, Normal';font-variant-ligatures:normal;font-variant-caps:normal;font-variant-numeric:normal;font-feature-settings:normal;text-align:center;letter-spacing:0px;word-spacing:0px;writing-mode:lr-tb;text-anchor:middle;fill:#ffffff;fill-opacity:1;stroke:none;stroke-width:0.59489501" 
        xml:space="preserve"><tspan style="fill:#ffffff;stroke-width:0.59489501" y="84.64286" x="58.750004" id="tspan2196">A</tspan></text>
        <g id="switch-button-7" style="display:inline" transform="translate(-29.717988,79.025738)">
            <circle r="5" cy="11.152834" cx="94.137627" id="circle8551-9" style="opacity:1;vector-effect:none;fill:#ffffff;fill-opacity:1;stroke:#000000;stroke-width:1;stroke-linecap:round;stroke-linejoin:round;stroke-miterlimit:4;stroke-dasharray:none;stroke-dashoffset:0;stroke-opacity:1;paint-order:markers fill stroke" />
            <path style="fill:#000000;stroke-width:0.01428598" d="m 93.680476,14.091438 c -0.667172,-0.103041 -1.206761,-0.366448 -1.669389,-0.814931 -0.294109,-0.285117 -0.555221,-0.670372 -0.687829,-1.014854 -0.01815,-0.04714 -0.03782,-0.09122 -0.04371,-0.09794 -0.0088,-0.01001 -0.275729,0.08634 -0.731773,0.264128 -0.0639,0.02491 -0.06753,0.02502 -0.05577,0.0017 0.0069,-0.01374 0.188392,-0.41913 0.403265,-0.900859 0.353983,-0.793605 0.393436,-0.875155 0.420058,-0.868236 0.01616,0.0042 0.424415,0.184261 0.907234,0.400137 0.826765,0.36966 0.875403,0.393412 0.83573,0.408135 -0.02317,0.0086 -0.214031,0.08119 -0.424142,0.161318 -0.345946,0.131927 -0.381218,0.148393 -0.373533,0.174381 0.02233,0.07552 0.142753,0.309935 0.214964,0.418462 0.04435,0.06665 0.140546,0.183604 0.213773,0.259896 0.403903,0.420809 0.967998,0.6349 1.540858,0.584804 0.459801,-0.04021 0.844438,-0.21488 1.176904,-0.534452 0.177425,-0.170546 0.286247,-0.319377 0.391706,-0.535724 0.04788,-0.09822 0.08873,-0.180931 0.09079,-0.183811 0.0032,-0.0045 0.963449,0.337883 0.972829,0.346837 0.0066,0.0063 -0.09821,0.243476 -0.163031,0.368971 -0.234365,0.453774 -0.63017,0.875414 -1.078721,1.149131 -0.318375,0.19428 -0.663338,0.324577 -1.054496,0.398295 -0.165681,0.03122 -0.719145,0.04038 -0.88573,0.01465 z m 2.396473,-2.832129 c -0.485187,-0.216979 -0.882027,-0.398436 -0.881868,-0.403238 1.08e-4,-0.0048 0.186555,-0.07932 0.414211,-0.165597 0.376432,-0.14266 0.413147,-0.159481 0.405385,-0.185718 -0.02239,-0.07568 -0.142742,-0.309998 -0.215013,-0.418615 C 95.755316,10.01949 95.659118,9.9025368 95.585892,9.8262452 95.182145,9.4055981 94.618115,9.191456 94.045367,9.2413628 93.585829,9.281405 93.200594,9.4563223 92.868131,9.7758927 92.690704,9.9464383 92.581882,10.09527 92.476423,10.311617 c -0.04787,0.09822 -0.08873,0.180931 -0.09079,0.183811 -0.0032,0.0045 -0.96345,-0.337883 -0.97283,-0.346837 -0.0066,-0.0063 0.09822,-0.2434765 0.16303,-0.3689714 0.234365,-0.4537734 0.630171,-0.8754135 1.078723,-1.149131 0.321626,-0.1962644 0.669879,-0.3271308 1.061637,-0.3989411 0.167484,-0.0307 0.645096,-0.043096 0.815734,-0.021172 0.682311,0.087667 1.255024,0.3594679 1.732242,0.8220966 0.294111,0.2851177 0.555222,0.6703726 0.687829,1.0148539 0.01815,0.04714 0.03782,0.09122 0.04371,0.09794 0.0088,0.01001 0.275728,-0.08634 0.731771,-0.2641275 0.0639,-0.024911 0.06754,-0.025019 0.05577,-0.00166 -0.0069,0.013743 -0.188221,0.4187445 -0.402882,0.9000025 -0.214663,0.481261 -0.39726,0.874863 -0.405773,0.874677 -0.0085,-1.85e-4 -0.412449,-0.17787 -0.897637,-0.394849 z" id="path8564-6" />
        </g>
    </g>
    <g id="lettera2">
        <g id="g4913">
            <circle style="opacity:1;vector-effect:none;fill:#000000;fill-opacity:1;stroke:none;stroke-width:2;stroke-linecap:round;stroke-linejoin:round;stroke-miterlimit:4;stroke-dasharray:none;stroke-dashoffset:0;stroke-opacity:1;paint-order:markers fill stroke" id="circle2139" cx="74.464287" cy="79.821426" r="7.8571429" />
            <text class="identikit-option identikit-option-1" y="84.64286" x="74.464287" style="font-style:normal;font-variant:normal;font-weight:normal;font-stretch:normal;font-size:15.86386681px;line-height:1.25;font-family:'AR JULIAN';-inkscape-font-specification:'AR JULIAN, Normal';font-variant-ligatures:normal;font-variant-caps:normal;font-variant-numeric:normal;font-feature-settings:normal;text-align:center;letter-spacing:0px;word-spacing:0px;writing-mode:lr-tb;text-anchor:middle;fill:#ffffff;fill-opacity:1;stroke:none;stroke-width:0.59489501" 
            xml:space="preserve"><tspan style="fill:#ffffff;stroke-width:0.59489501" y="84.64286" x="74.464287">?</tspan></text>
            <text class="identikit-option identikit-option-2" y="84.64286" x="74.464287" style="font-style:normal;font-variant:normal;font-weight:normal;font-stretch:normal;font-size:15.86386681px;line-height:1.25;font-family:'AR JULIAN';-inkscape-font-specification:'AR JULIAN, Normal';font-variant-ligatures:normal;font-variant-caps:normal;font-variant-numeric:normal;font-feature-settings:normal;text-align:center;letter-spacing:0px;word-spacing:0px;writing-mode:lr-tb;text-anchor:middle;fill:#ffffff;fill-opacity:1;stroke:none;stroke-width:0.59489501" 
            xml:space="preserve"><tspan style="fill:#ffffff;stroke-width:0.59489501" y="84.64286" x="74.464287">T</tspan></text>
            <text class="identikit-option identikit-option-3" y="84.64286" x="74.464287" style="font-style:normal;font-variant:normal;font-weight:normal;font-stretch:normal;font-size:15.86386681px;line-height:1.25;font-family:'AR JULIAN';-inkscape-font-specification:'AR JULIAN, Normal';font-variant-ligatures:normal;font-variant-caps:normal;font-variant-numeric:normal;font-feature-settings:normal;text-align:center;letter-spacing:0px;word-spacing:0px;writing-mode:lr-tb;text-anchor:middle;fill:#ffffff;fill-opacity:1;stroke:none;stroke-width:0.59489501" 
            xml:space="preserve"><tspan style="fill:#ffffff;stroke-width:0.59489501" y="84.64286" x="74.464287">U</tspan></text>
            <text class="identikit-option identikit-option-4" y="84.64286" x="74.464287" style="font-style:normal;font-variant:normal;font-weight:normal;font-stretch:normal;font-size:15.86386681px;line-height:1.25;font-family:'AR JULIAN';-inkscape-font-specification:'AR JULIAN, Normal';font-variant-ligatures:normal;font-variant-caps:normal;font-variant-numeric:normal;font-feature-settings:normal;text-align:center;letter-spacing:0px;word-spacing:0px;writing-mode:lr-tb;text-anchor:middle;fill:#ffffff;fill-opacity:1;stroke:none;stroke-width:0.59489501" 
            xml:space="preserve"><tspan style="fill:#ffffff;stroke-width:0.59489501" y="84.64286" x="74.464287">R</tspan></text>
            <text class="identikit-option identikit-option-5" y="84.64286" x="74.464287" style="font-style:normal;font-variant:normal;font-weight:normal;font-stretch:normal;font-size:15.86386681px;line-height:1.25;font-family:'AR JULIAN';-inkscape-font-specification:'AR JULIAN, Normal';font-variant-ligatures:normal;font-variant-caps:normal;font-variant-numeric:normal;font-feature-settings:normal;text-align:center;letter-spacing:0px;word-spacing:0px;writing-mode:lr-tb;text-anchor:middle;fill:#ffffff;fill-opacity:1;stroke:none;stroke-width:0.59489501" 
            xml:space="preserve"><tspan style="fill:#ffffff;stroke-width:0.59489501" y="84.64286" x="74.464287">O</tspan></text>
            <g id="g4725" style="display:inline" transform="translate(-13.780484,79.025738)">
                <circle r="5" cy="11.152834" cx="94.137627" id="circle4721" style="opacity:1;vector-effect:none;fill:#ffffff;fill-opacity:1;stroke:#000000;stroke-width:1;stroke-linecap:round;stroke-linejoin:round;stroke-miterlimit:4;stroke-dasharray:none;stroke-dashoffset:0;stroke-opacity:1;paint-order:markers fill stroke" />
                <path style="fill:#000000;stroke-width:0.01428598" d="m 93.680476,14.091438 c -0.667172,-0.103041 -1.206761,-0.366448 -1.669389,-0.814931 -0.294109,-0.285117 -0.555221,-0.670372 -0.687829,-1.014854 -0.01815,-0.04714 -0.03782,-0.09122 -0.04371,-0.09794 -0.0088,-0.01001 -0.275729,0.08634 -0.731773,0.264128 -0.0639,0.02491 -0.06753,0.02502 -0.05577,0.0017 0.0069,-0.01374 0.188392,-0.41913 0.403265,-0.900859 0.353983,-0.793605 0.393436,-0.875155 0.420058,-0.868236 0.01616,0.0042 0.424415,0.184261 0.907234,0.400137 0.826765,0.36966 0.875403,0.393412 0.83573,0.408135 -0.02317,0.0086 -0.214031,0.08119 -0.424142,0.161318 -0.345946,0.131927 -0.381218,0.148393 -0.373533,0.174381 0.02233,0.07552 0.142753,0.309935 0.214964,0.418462 0.04435,0.06665 0.140546,0.183604 0.213773,0.259896 0.403903,0.420809 0.967998,0.6349 1.540858,0.584804 0.459801,-0.04021 0.844438,-0.21488 1.176904,-0.534452 0.177425,-0.170546 0.286247,-0.319377 0.391706,-0.535724 0.04788,-0.09822 0.08873,-0.180931 0.09079,-0.183811 0.0032,-0.0045 0.963449,0.337883 0.972829,0.346837 0.0066,0.0063 -0.09821,0.243476 -0.163031,0.368971 -0.234365,0.453774 -0.63017,0.875414 -1.078721,1.149131 -0.318375,0.19428 -0.663338,0.324577 -1.054496,0.398295 -0.165681,0.03122 -0.719145,0.04038 -0.88573,0.01465 z m 2.396473,-2.832129 c -0.485187,-0.216979 -0.882027,-0.398436 -0.881868,-0.403238 1.08e-4,-0.0048 0.186555,-0.07932 0.414211,-0.165597 0.376432,-0.14266 0.413147,-0.159481 0.405385,-0.185718 -0.02239,-0.07568 -0.142742,-0.309998 -0.215013,-0.418615 C 95.755316,10.01949 95.659118,9.9025368 95.585892,9.8262452 95.182145,9.4055981 94.618115,9.191456 94.045367,9.2413628 93.585829,9.281405 93.200594,9.4563223 92.868131,9.7758927 92.690704,9.9464383 92.581882,10.09527 92.476423,10.311617 c -0.04787,0.09822 -0.08873,0.180931 -0.09079,0.183811 -0.0032,0.0045 -0.96345,-0.337883 -0.97283,-0.346837 -0.0066,-0.0063 0.09822,-0.2434765 0.16303,-0.3689714 0.234365,-0.4537734 0.630171,-0.8754135 1.078723,-1.149131 0.321626,-0.1962644 0.669879,-0.3271308 1.061637,-0.3989411 0.167484,-0.0307 0.645096,-0.043096 0.815734,-0.021172 0.682311,0.087667 1.255024,0.3594679 1.732242,0.8220966 0.294111,0.2851177 0.555222,0.6703726 0.687829,1.0148539 0.01815,0.04714 0.03782,0.09122 0.04371,0.09794 0.0088,0.01001 0.275728,-0.08634 0.731771,-0.2641275 0.0639,-0.024911 0.06754,-0.025019 0.05577,-0.00166 -0.0069,0.013743 -0.188221,0.4187445 -0.402882,0.9000025 -0.214663,0.481261 -0.39726,0.874863 -0.405773,0.874677 -0.0085,-1.85e-4 -0.412449,-0.17787 -0.897637,-0.394849 z" id="path4723" />
            </g>
        </g>
    </g>
    <g id="lettera3">
        <circle r="7.8571429" cy="79.821426" cx="43.035717" id="circle2135" style="opacity:1;vector-effect:none;fill:#000000;fill-opacity:1;stroke:none;stroke-width:2;stroke-linecap:round;stroke-linejoin:round;stroke-miterlimit:4;stroke-dasharray:none;stroke-dashoffset:0;stroke-opacity:1;paint-order:markers fill stroke" />
        <text class="identikit-option identikit-option-1" style="font-style:normal;font-variant:normal;font-weight:normal;font-stretch:normal;font-size:15.86386681px;line-height:1.25;font-family:'AR JULIAN';-inkscape-font-specification:'AR JULIAN, Normal';font-variant-ligatures:normal;font-variant-caps:normal;font-variant-numeric:normal;font-feature-settings:normal;text-align:center;letter-spacing:0px;word-spacing:0px;writing-mode:lr-tb;text-anchor:middle;fill:#ffffff;fill-opacity:1;stroke:none;stroke-width:0.59489501" x="43.035717" y="84.64286" 
        xml:space="preserve"><tspan x="43.035717" y="84.64286" style="fill:#ffffff;stroke-width:0.59489501">?</tspan></text>
        <text class="identikit-option identikit-option-2" style="font-style:normal;font-variant:normal;font-weight:normal;font-stretch:normal;font-size:15.86386681px;line-height:1.25;font-family:'AR JULIAN';-inkscape-font-specification:'AR JULIAN, Normal';font-variant-ligatures:normal;font-variant-caps:normal;font-variant-numeric:normal;font-feature-settings:normal;text-align:center;letter-spacing:0px;word-spacing:0px;writing-mode:lr-tb;text-anchor:middle;fill:#ffffff;fill-opacity:1;stroke:none;stroke-width:0.59489501" x="43.035717" y="84.64286" 
        xml:space="preserve"><tspan x="43.035717" y="84.64286" style="fill:#ffffff;stroke-width:0.59489501">L</tspan></text>
        <text class="identikit-option identikit-option-3" style="font-style:normal;font-variant:normal;font-weight:normal;font-stretch:normal;font-size:15.86386681px;line-height:1.25;font-family:'AR JULIAN';-inkscape-font-specification:'AR JULIAN, Normal';font-variant-ligatures:normal;font-variant-caps:normal;font-variant-numeric:normal;font-feature-settings:normal;text-align:center;letter-spacing:0px;word-spacing:0px;writing-mode:lr-tb;text-anchor:middle;fill:#ffffff;fill-opacity:1;stroke:none;stroke-width:0.59489501" x="43.035717" y="84.64286" 
        xml:space="preserve"><tspan x="43.035717" y="84.64286" style="fill:#ffffff;stroke-width:0.59489501">I</tspan></text>
        <text class="identikit-option identikit-option-4" style="font-style:normal;font-variant:normal;font-weight:normal;font-stretch:normal;font-size:15.86386681px;line-height:1.25;font-family:'AR JULIAN';-inkscape-font-specification:'AR JULIAN, Normal';font-variant-ligatures:normal;font-variant-caps:normal;font-variant-numeric:normal;font-feature-settings:normal;text-align:center;letter-spacing:0px;word-spacing:0px;writing-mode:lr-tb;text-anchor:middle;fill:#ffffff;fill-opacity:1;stroke:none;stroke-width:0.59489501" x="43.035717" y="84.64286" 
        xml:space="preserve"><tspan x="43.035717" y="84.64286" style="fill:#ffffff;stroke-width:0.59489501">T</tspan></text>
        <text class="identikit-option identikit-option-5" style="font-style:normal;font-variant:normal;font-weight:normal;font-stretch:normal;font-size:15.86386681px;line-height:1.25;font-family:'AR JULIAN';-inkscape-font-specification:'AR JULIAN, Normal';font-variant-ligatures:normal;font-variant-caps:normal;font-variant-numeric:normal;font-feature-settings:normal;text-align:center;letter-spacing:0px;word-spacing:0px;writing-mode:lr-tb;text-anchor:middle;fill:#ffffff;fill-opacity:1;stroke:none;stroke-width:0.59489501" x="43.035717" y="84.64286" 
        xml:space="preserve"><tspan x="43.035717" y="84.64286" style="fill:#ffffff;stroke-width:0.59489501">R</tspan></text>
        <g transform="translate(-45.655488,79.025738)" style="display:inline" id="g4731">
            <circle style="opacity:1;vector-effect:none;fill:#ffffff;fill-opacity:1;stroke:#000000;stroke-width:1;stroke-linecap:round;stroke-linejoin:round;stroke-miterlimit:4;stroke-dasharray:none;stroke-dashoffset:0;stroke-opacity:1;paint-order:markers fill stroke" id="circle4727" cx="94.137627" cy="11.152834" r="5" />
            <path id="path4729" d="m 93.680476,14.091438 c -0.667172,-0.103041 -1.206761,-0.366448 -1.669389,-0.814931 -0.294109,-0.285117 -0.555221,-0.670372 -0.687829,-1.014854 -0.01815,-0.04714 -0.03782,-0.09122 -0.04371,-0.09794 -0.0088,-0.01001 -0.275729,0.08634 -0.731773,0.264128 -0.0639,0.02491 -0.06753,0.02502 -0.05577,0.0017 0.0069,-0.01374 0.188392,-0.41913 0.403265,-0.900859 0.353983,-0.793605 0.393436,-0.875155 0.420058,-0.868236 0.01616,0.0042 0.424415,0.184261 0.907234,0.400137 0.826765,0.36966 0.875403,0.393412 0.83573,0.408135 -0.02317,0.0086 -0.214031,0.08119 -0.424142,0.161318 -0.345946,0.131927 -0.381218,0.148393 -0.373533,0.174381 0.02233,0.07552 0.142753,0.309935 0.214964,0.418462 0.04435,0.06665 0.140546,0.183604 0.213773,0.259896 0.403903,0.420809 0.967998,0.6349 1.540858,0.584804 0.459801,-0.04021 0.844438,-0.21488 1.176904,-0.534452 0.177425,-0.170546 0.286247,-0.319377 0.391706,-0.535724 0.04788,-0.09822 0.08873,-0.180931 0.09079,-0.183811 0.0032,-0.0045 0.963449,0.337883 0.972829,0.346837 0.0066,0.0063 -0.09821,0.243476 -0.163031,0.368971 -0.234365,0.453774 -0.63017,0.875414 -1.078721,1.149131 -0.318375,0.19428 -0.663338,0.324577 -1.054496,0.398295 -0.165681,0.03122 -0.719145,0.04038 -0.88573,0.01465 z m 2.396473,-2.832129 c -0.485187,-0.216979 -0.882027,-0.398436 -0.881868,-0.403238 1.08e-4,-0.0048 0.186555,-0.07932 0.414211,-0.165597 0.376432,-0.14266 0.413147,-0.159481 0.405385,-0.185718 -0.02239,-0.07568 -0.142742,-0.309998 -0.215013,-0.418615 C 95.755316,10.01949 95.659118,9.9025368 95.585892,9.8262452 95.182145,9.4055981 94.618115,9.191456 94.045367,9.2413628 93.585829,9.281405 93.200594,9.4563223 92.868131,9.7758927 92.690704,9.9464383 92.581882,10.09527 92.476423,10.311617 c -0.04787,0.09822 -0.08873,0.180931 -0.09079,0.183811 -0.0032,0.0045 -0.96345,-0.337883 -0.97283,-0.346837 -0.0066,-0.0063 0.09822,-0.2434765 0.16303,-0.3689714 0.234365,-0.4537734 0.630171,-0.8754135 1.078723,-1.149131 0.321626,-0.1962644 0.669879,-0.3271308 1.061637,-0.3989411 0.167484,-0.0307 0.645096,-0.043096 0.815734,-0.021172 0.682311,0.087667 1.255024,0.3594679 1.732242,0.8220966 0.294111,0.2851177 0.555222,0.6703726 0.687829,1.0148539 0.01815,0.04714 0.03782,0.09122 0.04371,0.09794 0.0088,0.01001 0.275728,-0.08634 0.731771,-0.2641275 0.0639,-0.024911 0.06754,-0.025019 0.05577,-0.00166 -0.0069,0.013743 -0.188221,0.4187445 -0.402882,0.9000025 -0.214663,0.481261 -0.39726,0.874863 -0.405773,0.874677 -0.0085,-1.85e-4 -0.412449,-0.17787 -0.897637,-0.394849 z" style="fill:#000000;stroke-width:0.01428598" />
        </g>
    </g>
    <g id="lettera4">
        <circle style="opacity:1;vector-effect:none;fill:#000000;fill-opacity:1;stroke:none;stroke-width:2;stroke-linecap:round;stroke-linejoin:round;stroke-miterlimit:4;stroke-dasharray:none;stroke-dashoffset:0;stroke-opacity:1;paint-order:markers fill stroke" id="circle2133" cx="27.321426" cy="79.821426" r="7.8571429" />
        <text class="identikit-option identikit-option-1" y="84.64286" x="27.321428" style="font-style:normal;font-variant:normal;font-weight:normal;font-stretch:normal;font-size:15.86386681px;line-height:1.25;font-family:'AR JULIAN';-inkscape-font-specification:'AR JULIAN, Normal';font-variant-ligatures:normal;font-variant-caps:normal;font-variant-numeric:normal;font-feature-settings:normal;text-align:center;letter-spacing:0px;word-spacing:0px;writing-mode:lr-tb;text-anchor:middle;fill:#ffffff;fill-opacity:1;stroke:none;stroke-width:0.59489501" 
        xml:space="preserve"><tspan style="fill:#ffffff;stroke-width:0.59489501" y="84.64286" x="27.321428" id="tspan2208">?</tspan></text>
        <text class="identikit-option identikit-option-2" y="84.64286" x="27.321428" style="font-style:normal;font-variant:normal;font-weight:normal;font-stretch:normal;font-size:15.86386681px;line-height:1.25;font-family:'AR JULIAN';-inkscape-font-specification:'AR JULIAN, Normal';font-variant-ligatures:normal;font-variant-caps:normal;font-variant-numeric:normal;font-feature-settings:normal;text-align:center;letter-spacing:0px;word-spacing:0px;writing-mode:lr-tb;text-anchor:middle;fill:#ffffff;fill-opacity:1;stroke:none;stroke-width:0.59489501" 
        xml:space="preserve"><tspan style="fill:#ffffff;stroke-width:0.59489501" y="84.64286" x="27.321428" id="tspan2208">T</tspan></text>
        <text class="identikit-option identikit-option-3" y="84.64286" x="27.321428" style="font-style:normal;font-variant:normal;font-weight:normal;font-stretch:normal;font-size:15.86386681px;line-height:1.25;font-family:'AR JULIAN';-inkscape-font-specification:'AR JULIAN, Normal';font-variant-ligatures:normal;font-variant-caps:normal;font-variant-numeric:normal;font-feature-settings:normal;text-align:center;letter-spacing:0px;word-spacing:0px;writing-mode:lr-tb;text-anchor:middle;fill:#ffffff;fill-opacity:1;stroke:none;stroke-width:0.59489501" 
        xml:space="preserve"><tspan style="fill:#ffffff;stroke-width:0.59489501" y="84.64286" x="27.321428" id="tspan2208">I</tspan></text>
        <text class="identikit-option identikit-option-4" y="84.64286" x="27.321428" style="font-style:normal;font-variant:normal;font-weight:normal;font-stretch:normal;font-size:15.86386681px;line-height:1.25;font-family:'AR JULIAN';-inkscape-font-specification:'AR JULIAN, Normal';font-variant-ligatures:normal;font-variant-caps:normal;font-variant-numeric:normal;font-feature-settings:normal;text-align:center;letter-spacing:0px;word-spacing:0px;writing-mode:lr-tb;text-anchor:middle;fill:#ffffff;fill-opacity:1;stroke:none;stroke-width:0.59489501" 
        xml:space="preserve"><tspan style="fill:#ffffff;stroke-width:0.59489501" y="84.64286" x="27.321428" id="tspan2208">A</tspan></text>
        <text class="identikit-option identikit-option-5" y="84.64286" x="27.321428" style="font-style:normal;font-variant:normal;font-weight:normal;font-stretch:normal;font-size:15.86386681px;line-height:1.25;font-family:'AR JULIAN';-inkscape-font-specification:'AR JULIAN, Normal';font-variant-ligatures:normal;font-variant-caps:normal;font-variant-numeric:normal;font-feature-settings:normal;text-align:center;letter-spacing:0px;word-spacing:0px;writing-mode:lr-tb;text-anchor:middle;fill:#ffffff;fill-opacity:1;stroke:none;stroke-width:0.59489501" 
        xml:space="preserve"><tspan style="fill:#ffffff;stroke-width:0.59489501" y="84.64286" x="27.321428" id="tspan2208">P</tspan></text>
        <g id="g4737" style="display:inline" transform="translate(-61.592984,79.025738)">
            <circle r="5" cy="11.152834" cx="94.137627" id="circle4733" style="opacity:1;vector-effect:none;fill:#ffffff;fill-opacity:1;stroke:#000000;stroke-width:1;stroke-linecap:round;stroke-linejoin:round;stroke-miterlimit:4;stroke-dasharray:none;stroke-dashoffset:0;stroke-opacity:1;paint-order:markers fill stroke" />
            <path style="fill:#000000;stroke-width:0.01428598" d="m 93.680476,14.091438 c -0.667172,-0.103041 -1.206761,-0.366448 -1.669389,-0.814931 -0.294109,-0.285117 -0.555221,-0.670372 -0.687829,-1.014854 -0.01815,-0.04714 -0.03782,-0.09122 -0.04371,-0.09794 -0.0088,-0.01001 -0.275729,0.08634 -0.731773,0.264128 -0.0639,0.02491 -0.06753,0.02502 -0.05577,0.0017 0.0069,-0.01374 0.188392,-0.41913 0.403265,-0.900859 0.353983,-0.793605 0.393436,-0.875155 0.420058,-0.868236 0.01616,0.0042 0.424415,0.184261 0.907234,0.400137 0.826765,0.36966 0.875403,0.393412 0.83573,0.408135 -0.02317,0.0086 -0.214031,0.08119 -0.424142,0.161318 -0.345946,0.131927 -0.381218,0.148393 -0.373533,0.174381 0.02233,0.07552 0.142753,0.309935 0.214964,0.418462 0.04435,0.06665 0.140546,0.183604 0.213773,0.259896 0.403903,0.420809 0.967998,0.6349 1.540858,0.584804 0.459801,-0.04021 0.844438,-0.21488 1.176904,-0.534452 0.177425,-0.170546 0.286247,-0.319377 0.391706,-0.535724 0.04788,-0.09822 0.08873,-0.180931 0.09079,-0.183811 0.0032,-0.0045 0.963449,0.337883 0.972829,0.346837 0.0066,0.0063 -0.09821,0.243476 -0.163031,0.368971 -0.234365,0.453774 -0.63017,0.875414 -1.078721,1.149131 -0.318375,0.19428 -0.663338,0.324577 -1.054496,0.398295 -0.165681,0.03122 -0.719145,0.04038 -0.88573,0.01465 z m 2.396473,-2.832129 c -0.485187,-0.216979 -0.882027,-0.398436 -0.881868,-0.403238 1.08e-4,-0.0048 0.186555,-0.07932 0.414211,-0.165597 0.376432,-0.14266 0.413147,-0.159481 0.405385,-0.185718 -0.02239,-0.07568 -0.142742,-0.309998 -0.215013,-0.418615 C 95.755316,10.01949 95.659118,9.9025368 95.585892,9.8262452 95.182145,9.4055981 94.618115,9.191456 94.045367,9.2413628 93.585829,9.281405 93.200594,9.4563223 92.868131,9.7758927 92.690704,9.9464383 92.581882,10.09527 92.476423,10.311617 c -0.04787,0.09822 -0.08873,0.180931 -0.09079,0.183811 -0.0032,0.0045 -0.96345,-0.337883 -0.97283,-0.346837 -0.0066,-0.0063 0.09822,-0.2434765 0.16303,-0.3689714 0.234365,-0.4537734 0.630171,-0.8754135 1.078723,-1.149131 0.321626,-0.1962644 0.669879,-0.3271308 1.061637,-0.3989411 0.167484,-0.0307 0.645096,-0.043096 0.815734,-0.021172 0.682311,0.087667 1.255024,0.3594679 1.732242,0.8220966 0.294111,0.2851177 0.555222,0.6703726 0.687829,1.0148539 0.01815,0.04714 0.03782,0.09122 0.04371,0.09794 0.0088,0.01001 0.275728,-0.08634 0.731771,-0.2641275 0.0639,-0.024911 0.06754,-0.025019 0.05577,-0.00166 -0.0069,0.013743 -0.188221,0.4187445 -0.402882,0.9000025 -0.214663,0.481261 -0.39726,0.874863 -0.405773,0.874677 -0.0085,-1.85e-4 -0.412449,-0.17787 -0.897637,-0.394849 z" id="path4735" />
        </g>
    </g>
    <g id="lettera5">
        <circle r="7.8571429" cy="79.821426" cx="11.607142" id="path2131" style="opacity:1;vector-effect:none;fill:#000000;fill-opacity:1;stroke:none;stroke-width:2;stroke-linecap:round;stroke-linejoin:round;stroke-miterlimit:4;stroke-dasharray:none;stroke-dashoffset:0;stroke-opacity:1;paint-order:markers fill stroke" />
        <text class="identikit-option identikit-option-1" style="font-style:normal;font-variant:normal;font-weight:normal;font-stretch:normal;font-size:15.86386681px;line-height:1.25;font-family:'AR JULIAN';-inkscape-font-specification:'AR JULIAN, Normal';font-variant-ligatures:normal;font-variant-caps:normal;font-variant-numeric:normal;font-feature-settings:normal;text-align:center;letter-spacing:0px;word-spacing:0px;writing-mode:lr-tb;text-anchor:middle;fill:#ffffff;fill-opacity:1;stroke:none;stroke-width:0.59489501" x="11.607142" y="84.64286" 
            xml:space="preserve"><tspan x="11.607142" y="84.64286" style="fill:#ffffff;stroke-width:0.59489501">?</tspan></text>
        <text class="identikit-option identikit-option-2" style="font-style:normal;font-variant:normal;font-weight:normal;font-stretch:normal;font-size:15.86386681px;line-height:1.25;font-family:'AR JULIAN';-inkscape-font-specification:'AR JULIAN, Normal';font-variant-ligatures:normal;font-variant-caps:normal;font-variant-numeric:normal;font-feature-settings:normal;text-align:center;letter-spacing:0px;word-spacing:0px;writing-mode:lr-tb;text-anchor:middle;fill:#ffffff;fill-opacity:1;stroke:none;stroke-width:0.59489501" x="11.607142" y="84.64286" 
            xml:space="preserve"><tspan x="11.607142" y="84.64286" style="fill:#ffffff;stroke-width:0.59489501">E</tspan></text>
        <text class="identikit-option identikit-option-3" style="font-style:normal;font-variant:normal;font-weight:normal;font-stretch:normal;font-size:15.86386681px;line-height:1.25;font-family:'AR JULIAN';-inkscape-font-specification:'AR JULIAN, Normal';font-variant-ligatures:normal;font-variant-caps:normal;font-variant-numeric:normal;font-feature-settings:normal;text-align:center;letter-spacing:0px;word-spacing:0px;writing-mode:lr-tb;text-anchor:middle;fill:#ffffff;fill-opacity:1;stroke:none;stroke-width:0.59489501" x="11.607142" y="84.64286" 
            xml:space="preserve"><tspan x="11.607142" y="84.64286" style="fill:#ffffff;stroke-width:0.59489501">S</tspan></text>
        <text class="identikit-option identikit-option-4" style="font-style:normal;font-variant:normal;font-weight:normal;font-stretch:normal;font-size:15.86386681px;line-height:1.25;font-family:'AR JULIAN';-inkscape-font-specification:'AR JULIAN, Normal';font-variant-ligatures:normal;font-variant-caps:normal;font-variant-numeric:normal;font-feature-settings:normal;text-align:center;letter-spacing:0px;word-spacing:0px;writing-mode:lr-tb;text-anchor:middle;fill:#ffffff;fill-opacity:1;stroke:none;stroke-width:0.59489501" x="11.607142" y="84.64286" 
            xml:space="preserve"><tspan x="11.607142" y="84.64286" style="fill:#ffffff;stroke-width:0.59489501">R</tspan></text>
        <text class="identikit-option identikit-option-5" style="font-style:normal;font-variant:normal;font-weight:normal;font-stretch:normal;font-size:15.86386681px;line-height:1.25;font-family:'AR JULIAN';-inkscape-font-specification:'AR JULIAN, Normal';font-variant-ligatures:normal;font-variant-caps:normal;font-variant-numeric:normal;font-feature-settings:normal;text-align:center;letter-spacing:0px;word-spacing:0px;writing-mode:lr-tb;text-anchor:middle;fill:#ffffff;fill-opacity:1;stroke:none;stroke-width:0.59489501" x="11.607142" y="84.64286" 
            xml:space="preserve"><tspan x="11.607142" y="84.64286" style="fill:#ffffff;stroke-width:0.59489501">O</tspan></text>
        <g transform="translate(-77.530484,79.025738)" style="display:inline" id="g4743">
            <circle style="opacity:1;vector-effect:none;fill:#ffffff;fill-opacity:1;stroke:#000000;stroke-width:1;stroke-linecap:round;stroke-linejoin:round;stroke-miterlimit:4;stroke-dasharray:none;stroke-dashoffset:0;stroke-opacity:1;paint-order:markers fill stroke" id="circle4739" cx="94.137627" cy="11.152834" r="5" />
            <path id="path4741" d="m 93.680476,14.091438 c -0.667172,-0.103041 -1.206761,-0.366448 -1.669389,-0.814931 -0.294109,-0.285117 -0.555221,-0.670372 -0.687829,-1.014854 -0.01815,-0.04714 -0.03782,-0.09122 -0.04371,-0.09794 -0.0088,-0.01001 -0.275729,0.08634 -0.731773,0.264128 -0.0639,0.02491 -0.06753,0.02502 -0.05577,0.0017 0.0069,-0.01374 0.188392,-0.41913 0.403265,-0.900859 0.353983,-0.793605 0.393436,-0.875155 0.420058,-0.868236 0.01616,0.0042 0.424415,0.184261 0.907234,0.400137 0.826765,0.36966 0.875403,0.393412 0.83573,0.408135 -0.02317,0.0086 -0.214031,0.08119 -0.424142,0.161318 -0.345946,0.131927 -0.381218,0.148393 -0.373533,0.174381 0.02233,0.07552 0.142753,0.309935 0.214964,0.418462 0.04435,0.06665 0.140546,0.183604 0.213773,0.259896 0.403903,0.420809 0.967998,0.6349 1.540858,0.584804 0.459801,-0.04021 0.844438,-0.21488 1.176904,-0.534452 0.177425,-0.170546 0.286247,-0.319377 0.391706,-0.535724 0.04788,-0.09822 0.08873,-0.180931 0.09079,-0.183811 0.0032,-0.0045 0.963449,0.337883 0.972829,0.346837 0.0066,0.0063 -0.09821,0.243476 -0.163031,0.368971 -0.234365,0.453774 -0.63017,0.875414 -1.078721,1.149131 -0.318375,0.19428 -0.663338,0.324577 -1.054496,0.398295 -0.165681,0.03122 -0.719145,0.04038 -0.88573,0.01465 z m 2.396473,-2.832129 c -0.485187,-0.216979 -0.882027,-0.398436 -0.881868,-0.403238 1.08e-4,-0.0048 0.186555,-0.07932 0.414211,-0.165597 0.376432,-0.14266 0.413147,-0.159481 0.405385,-0.185718 -0.02239,-0.07568 -0.142742,-0.309998 -0.215013,-0.418615 C 95.755316,10.01949 95.659118,9.9025368 95.585892,9.8262452 95.182145,9.4055981 94.618115,9.191456 94.045367,9.2413628 93.585829,9.281405 93.200594,9.4563223 92.868131,9.7758927 92.690704,9.9464383 92.581882,10.09527 92.476423,10.311617 c -0.04787,0.09822 -0.08873,0.180931 -0.09079,0.183811 -0.0032,0.0045 -0.96345,-0.337883 -0.97283,-0.346837 -0.0066,-0.0063 0.09822,-0.2434765 0.16303,-0.3689714 0.234365,-0.4537734 0.630171,-0.8754135 1.078723,-1.149131 0.321626,-0.1962644 0.669879,-0.3271308 1.061637,-0.3989411 0.167484,-0.0307 0.645096,-0.043096 0.815734,-0.021172 0.682311,0.087667 1.255024,0.3594679 1.732242,0.8220966 0.294111,0.2851177 0.555222,0.6703726 0.687829,1.0148539 0.01815,0.04714 0.03782,0.09122 0.04371,0.09794 0.0088,0.01001 0.275728,-0.08634 0.731771,-0.2641275 0.0639,-0.024911 0.06754,-0.025019 0.05577,-0.00166 -0.0069,0.013743 -0.188221,0.4187445 -0.402882,0.9000025 -0.214663,0.481261 -0.39726,0.874863 -0.405773,0.874677 -0.0085,-1.85e-4 -0.412449,-0.17787 -0.897637,-0.394849 z" style="fill:#000000;stroke-width:0.01428598" />
        </g>
    </g>

</svg>