<svg viewBox="0 0 100 100" height="50px" width="50px">
    <path
       id="diary"
       d="M 6.3648607,89.526423 5.7793608,89.06586 V 85.273396 81.480931 L 4.6127351,81.63196 C 1.1172918,82.084477 1.1928891,82.087492 0.57634708,81.47095 L 0.00178898,80.896392 V 47.492489 c 0,-36.842258 -0.1097278,-34.111042 1.38952732,-34.586408 1.1630469,-0.368766 6.4517113,-1.095299 10.0545097,-1.381245 5.628645,-0.446732 14.715798,0.03468 18.460897,0.978014 1.334481,0.336135 1.986545,1.124758 1.764796,2.134386 -0.08466,0.385441 -0.406881,0.866548 -0.71605,1.069123 -0.523661,0.343116 -0.739054,0.342666 -3.147246,-0.0066 -4.675901,-0.678085 -8.190297,-0.880281 -12.80697,-0.736837 -4.278946,0.132951 -5.9550564,0.275191 -9.7064453,0.823715 l -1.737592,0.254069 V 47.11816 c 0,24.763846 0.056398,31.058411 0.2777689,30.983682 0.7314391,-0.246959 6.3135864,-0.818303 9.6534004,-0.988047 11.947843,-0.60723 23.851667,1.778496 32.673404,6.548324 1.008738,0.545411 1.88501,0.991658 1.94728,0.991658 0.0623,0 0.11322,-6.130924 0.11322,-13.624271 0,-13.37911 0.0081,-13.63298 0.450575,-14.107916 0.833009,-0.894126 2.065066,-0.824935 2.820018,0.158365 0.205823,0.268082 0.272394,3.614448 0.277769,13.963205 0.004,7.485836 0.05156,13.610617 0.10589,13.610617 0.05435,0 1.129315,-0.540785 2.388802,-1.20175 5.4082,-2.838163 12.330704,-4.938738 19.458204,-5.904417 3.099981,-0.42001 8.864941,-0.612619 12.773555,-0.42677 3.400189,0.161673 8.60578,0.705738 9.556808,0.998836 0.369073,0.113744 0.388875,-1.463494 0.388875,-30.978119 v -31.09791 l -1.722163,-0.260842 c -4.619018,-0.699607 -8.660284,-0.946831 -13.499514,-0.825825 -5.582663,0.139594 -9.345205,0.625288 -14.057423,1.814621 -1.679191,0.42382 -3.328068,0.771241 -3.664163,0.77205 -0.852924,0.002 -1.499952,-0.716226 -1.499952,-1.665137 0,-1.392044 0.556612,-1.679298 5.572276,-2.875742 7.936871,-1.893271 17.83717,-2.172143 27.315438,-0.769422 1.64994,0.24418 3.324571,0.546909 3.721401,0.672731 1.499245,0.475366 1.38953,-2.25585 1.38953,34.586408 v 33.403903 l -0.57456,0.574558 c -0.61654,0.616542 -0.54095,0.613527 -4.036389,0.16101 L 94.22064,81.480931 v 3.792465 3.792464 l -0.5855,0.460563 -0.585507,0.460555 H 50.000002 6.9503666 Z M 43.211354,86.240779 C 42.407015,85.513932 35.980089,83.238457 32.064808,82.29431 26.53405,80.960597 18.07784,80.323027 11.692096,80.758287 l -2.3573094,0.160671 v 2.756297 2.75629 H 26.378627 c 9.505215,0 16.95046,-0.08438 16.832727,-0.190766 z m 47.453859,-2.565524 v -2.756297 l -2.374241,-0.161825 c -3.464905,-0.23617 -12.003505,0.02299 -14.736261,0.447322 -3.330603,0.517126 -6.934322,1.346423 -9.815633,2.258806 -2.469926,0.782112 -6.543884,2.410134 -6.950428,2.777518 -0.117733,0.106394 7.327513,0.190766 16.832724,0.190766 H 90.665213 Z M 21.334356,64.876766 c -0.289572,-0.289572 -0.444425,-0.740714 -0.444425,-1.294748 0,-0.950936 0.942598,-4.462125 2.001781,-7.456655 0.468722,-1.32519 0.650004,-2.165001 0.551609,-2.555465 -0.404091,-1.60358 -0.775676,-5.021063 -0.775676,-7.133952 0,-9.990841 5.679905,-19.967518 15.568057,-27.345065 1.175685,-0.877179 1.382794,-0.953463 2.431302,-0.895498 0.449707,0.02486 0.625448,-0.137584 0.922543,-0.852752 0.283236,-0.681809 0.714374,-1.105334 1.88882,-1.855491 4.554952,-2.909388 9.794926,-5.38699 16.841581,-7.9631548 2.102556,-0.7686688 2.333966,-0.7824748 3.094049,-0.1845921 0.444809,0.349888 0.585506,0.6589265 0.585506,1.2860857 0,0.7008633 -0.171388,0.9920529 -1.134914,1.9282472 -0.624203,0.606494 -1.816854,1.978056 -2.65034,3.047914 -3.872098,4.970206 -6.088285,10.674611 -6.653631,17.126271 -0.330389,3.770317 -0.674749,5.95489 -1.0285,6.524579 -0.196757,0.316869 -0.863408,0.661416 -1.916879,0.990708 -0.88836,0.277684 -1.655759,0.532933 -1.705324,0.56722 -0.04957,0.03429 0.425418,0.607446 1.05552,1.273684 1.429966,1.511984 1.464767,2.046185 0.291308,4.471812 -4.340301,8.971732 -11.68073,13.314477 -20.83853,12.32849 -1.316919,-0.141789 -2.476666,-0.30864 -2.577208,-0.370781 -0.264415,-0.163415 -0.70617,1.006674 -1.830552,4.848668 -0.598377,2.044643 -1.147242,3.51003 -1.377837,3.678646 -0.5867,0.42901 -1.791114,0.342973 -2.29826,-0.164171 z M 35.889395,52.988512 c 2.375812,-0.6022 4.893772,-2.005911 6.721448,-3.747066 1.842992,-1.755751 2.649923,-2.826792 3.873377,-5.14116 l 0.822001,-1.554943 -1.875214,-1.916318 c -1.507446,-1.540483 -1.87522,-2.04673 -1.87522,-2.581273 0,-0.650574 0.900546,-1.836629 1.394511,-1.836629 0.122558,0 1.197654,-0.300819 2.389099,-0.668485 l 2.16627,-0.668486 0.133957,-0.942569 c 0.07368,-0.518412 0.239073,-2.091913 0.367536,-3.49667 0.527305,-5.766047 2.203655,-11.090164 4.863087,-15.445255 0.597058,-0.977743 1.058402,-1.806436 1.025207,-1.841539 -0.225208,-0.238162 -5.979008,2.613962 -9.339772,4.629671 l -1.777714,1.06623 -0.776743,1.945391 c -1.006451,2.520714 -1.37054,2.977711 -2.372339,2.977711 -0.580907,0 -0.941735,-0.169309 -1.39506,-0.654596 l -0.611486,-0.654599 -1.977579,1.727254 c -7.192547,6.282096 -11.073572,13.405626 -11.545925,21.192281 -0.08712,1.43606 -0.105711,2.611018 -0.04135,2.611018 0.06435,0 0.71385,-1.074961 1.443247,-2.388804 0.729399,-1.313841 1.606054,-2.888786 1.948121,-3.499875 0.998386,-1.783569 3.088622,-4.818461 4.773321,-6.930573 1.860687,-2.332739 6.305553,-6.872534 7.165078,-7.318105 1.170688,-0.606871 2.479608,0.218124 2.479608,1.562869 0,0.644097 -0.319608,1.052189 -2.558275,3.266607 -3.956518,3.913659 -6.704634,7.545609 -9.712297,12.835895 -1.735417,3.052492 -3.713626,7.31668 -3.495489,7.534815 0.544954,0.54495 5.550078,0.504598 7.788565,-0.06279 z"
       style="fill:#000000;" />
</svg>