<?xml version="1.0" encoding="UTF-8" standalone="no"?>
<!-- Created with Inkscape (http://www.inkscape.org/) -->

<svg
   xmlns:osb="http://www.openswatchbook.org/uri/2009/osb"
   xmlns:dc="http://purl.org/dc/elements/1.1/"
   xmlns:cc="http://creativecommons.org/ns#"
   xmlns:rdf="http://www.w3.org/1999/02/22-rdf-syntax-ns#"
   xmlns:svg="http://www.w3.org/2000/svg"
   xmlns="http://www.w3.org/2000/svg"
   xmlns:sodipodi="http://sodipodi.sourceforge.net/DTD/sodipodi-0.dtd"
   xmlns:inkscape="http://www.inkscape.org/namespaces/inkscape"
   width="8.2679129mm"
   height="6.53865mm"
   viewBox="0 0 8.2679129 6.5386498"
   version="1.1"
   id="svg8"
   sodipodi:docname="horse.svg"
   inkscape:version="0.92.3 (2405546, 2018-03-11)">
  <defs
     id="defs2">
    <linearGradient
       id="linearGradient2757"
       osb:paint="solid">
      <stop
         style="stop-color:#000000;stop-opacity:1;"
         offset="0"
         id="stop2755" />
    </linearGradient>
    <linearGradient
       id="linearGradient2701"
       osb:paint="solid">
      <stop
         style="stop-color:#000000;stop-opacity:1;"
         offset="0"
         id="stop2699" />
    </linearGradient>
  </defs>
  <sodipodi:namedview
     id="base"
     pagecolor="#ffffff"
     bordercolor="#666666"
     borderopacity="1.0"
     inkscape:pageopacity="0.0"
     inkscape:pageshadow="2"
     inkscape:zoom="1.24"
     inkscape:cx="-47.108843"
     inkscape:cy="-37.580612"
     inkscape:document-units="mm"
     inkscape:current-layer="layer1"
     showgrid="false"
     inkscape:window-width="1855"
     inkscape:window-height="1056"
     inkscape:window-x="65"
     inkscape:window-y="24"
     inkscape:window-maximized="1" />
  <metadata
     id="metadata5">
    <rdf:RDF>
      <cc:Work
         rdf:about="">
        <dc:format>image/svg+xml</dc:format>
        <dc:type
           rdf:resource="http://purl.org/dc/dcmitype/StillImage" />
        <dc:title></dc:title>
      </cc:Work>
    </rdf:RDF>
  </metadata>
  <g
     inkscape:label="Livello 1"
     inkscape:groupmode="layer"
     id="layer1"
     transform="translate(-94.062397,-142.99081)">
    <path
       style="opacity:1;fill:#000000;stroke:none;stroke-width:1.37296438;stroke-linecap:round;stroke-linejoin:round;stroke-miterlimit:4;stroke-dasharray:none;stroke-opacity:1;paint-order:stroke fill markers"
       d="m 94.062397,145.9994 c 1.15778,-0.25574 1.695155,-1.26773 2.50004,-0.77393 0.865211,-0.57797 1.86721,0.45022 2.460668,0.023 0.970459,-1.81471 1.332215,-1.96686 2.480345,-2.44281 l 0.079,0.74967 0.74786,0.99172 -0.15735,0.45953 c -0.37225,0.24295 -0.62776,-0.50045 -0.98425,-0.36271 -0.5251,0.36039 -0.16602,1.21475 -0.17734,1.86223 l 1.1812,2.78156 -0.57075,0.19343 c -0.25161,-1.09476 -0.60282,-1.91264 -1.31916,-2.05589 l -0.0983,0.82234 -1.712693,1.28198 -0.01963,-0.91907 1.122149,-0.87076 -0.09844,-0.36294 c -0.411134,0.0651 -0.883288,0.0698 -1.555143,-0.12074 l -0.689061,0.77382 0.787413,1.45123 -0.68894,0.048 -0.905557,-1.62049 1.35826,-1.04004 -1.653544,1.06414 -0.905521,1.59639 -0.492141,-0.26603 0.787421,-1.81407 c 0.448067,-0.38591 0.667234,-0.91236 0.590556,-1.62062 -0.571699,0.22434 -1.000478,0.8571 -2.066963,0.16942 z"
       id="path898"
       inkscape:connector-curvature="0"
       sodipodi:nodetypes="ccccccccccccccccccccccccccccc"
       inkscape:export-xdpi="96"
       inkscape:export-ydpi="96" />
  </g>
</svg>
