<?xml version="1.0" encoding="UTF-8" standalone="no"?>
<svg xmlns="http://www.w3.org/2000/svg" viewBox="0 0 100 100" height="25" width="25">

    <g
       id="star">
      <path
         style="opacity:1;vector-effect:none;fill:#008000;fill-opacity:1;stroke:none;stroke-width:1.45021093;stroke-linecap:round;stroke-linejoin:round;stroke-miterlimit:4;stroke-dasharray:none;stroke-dashoffset:0;stroke-opacity:1;paint-order:markers fill stroke"
         id="path46"
         d="m 48.660804,44.22002 c 0.355745,0.205389 2.657284,15.348135 2.824363,15.723401 0.167079,0.375266 9.880304,12.218116 9.794898,12.619919 -0.08541,0.401803 -13.775799,7.270063 -14.081067,7.544928 -0.305269,0.274865 -8.566938,13.172332 -8.975467,13.215271 -0.408529,0.04294 -11.171196,-10.85499 -11.526942,-11.06038 -0.355745,-0.20539 -15.174962,-4.077167 -15.342041,-4.452433 -0.167079,-0.375266 6.87162,-13.978815 6.957025,-14.380618 0.08541,-0.401803 -0.811704,-15.692161 -0.506435,-15.967026 0.305268,-0.274865 15.41809,2.215607 15.826619,2.172669 0.408529,-0.04294 14.673301,-5.621121 15.029047,-5.415731 z" />
      <path
         d="m 45.457628,49.767672 c 0.269395,0.155535 2.012278,11.622658 2.138801,11.906834 0.126524,0.284177 7.482041,9.252393 7.417366,9.556666 -0.06468,0.304272 -10.431976,5.505388 -10.663146,5.713534 -0.23117,0.208147 -6.487471,9.974991 -6.796837,10.007507 -0.309366,0.03252 -8.459593,-8.220141 -8.728988,-8.375676 -0.269394,-0.155535 -11.491518,-3.08751 -11.618042,-3.371686 -0.126523,-0.284177 5.203661,-10.585715 5.268336,-10.889987 0.06468,-0.304273 -0.614679,-11.883177 -0.383509,-12.091323 0.231171,-0.208147 11.675632,1.677809 11.984998,1.645294 0.309367,-0.03252 11.111627,-4.256698 11.381021,-4.101163 z"
         id="path48"
         style="opacity:1;vector-effect:none;fill:#00ff00;fill-opacity:1;stroke:none;stroke-width:1.09819877;stroke-linecap:round;stroke-linejoin:round;stroke-miterlimit:4;stroke-dasharray:none;stroke-dashoffset:0;stroke-opacity:1;paint-order:markers fill stroke" />
    </g>
    <g
       id="circle">
      <circle
         style="opacity:1;vector-effect:none;fill:#ff0000;fill-opacity:1;stroke:none;stroke-width:2;stroke-linecap:round;stroke-linejoin:round;stroke-miterlimit:4;stroke-dasharray:none;stroke-dashoffset:0;stroke-opacity:1;paint-order:markers fill stroke"
         id="path44"
         cx="71.25"
         cy="38.75"
         r="19.107143" />
      <circle
         r="15.535715"
         cy="38.75"
         cx="71.25"
         id="circle50"
         style="opacity:1;vector-effect:none;fill:#ffcc00;fill-opacity:1;stroke:none;stroke-width:1.62616825;stroke-linecap:round;stroke-linejoin:round;stroke-miterlimit:4;stroke-dasharray:none;stroke-dashoffset:0;stroke-opacity:1;paint-order:markers fill stroke" />
    </g>


</svg>
