<?xml version="1.0" encoding="UTF-8" standalone="no"?>
<svg xmlns="http://www.w3.org/2000/svg"
   xmlns:xlink="http://www.w3.org/1999/xlink" viewBox="0 0 100 100" height="25" width="25">

   <path id="path13016" d="M 1.5909902,18.505944 33.587572,10.19744 66.114483,26.107342 98.464618,18.329168 98.641395,80.73134 66.468037,89.216622 33.587572,72.776389 1.7677669,80.554564 Z" style="fill:#ffffff;stroke:#000000;stroke-width:1px;stroke-linecap:butt;stroke-linejoin:miter;stroke-opacity:1" />
   <path style="fill:#000000;stroke-width:0.19531193" d="M 49.6783,82.507519 33.633948,74.472447 17.907777,78.416905 c -8.6493948,2.169451 -16.0348721,3.944448 -16.4121737,3.944448 -0.5084681,0 -0.7907617,-0.133179 -1.0908028,-0.514613 L 0,81.332118 V 49.507682 17.683243 L 0.5371099,17.16116 c 0.4795446,-0.466129 2.300781,-0.961514 16.9931211,-4.622212 l 16.456011,-4.1001328 16.19042,8.0932838 16.190424,8.093285 15.725653,-3.944326 c 8.64911,-2.169379 16.034354,-3.944325 16.411659,-3.944325 0.50846,0 0.79076,0.133181 1.0908,0.514618 l 0.4048,0.514618 V 49.564493 81.36301 l -0.43949,0.510932 c -0.39916,0.464057 -1.935771,0.885648 -16.748039,4.595016 -8.969706,2.24624 -16.484345,4.081724 -16.699192,4.078854 -0.214837,-0.0031 -7.61058,-3.621005 -16.434977,-8.040293 z m 31.278304,1.306907 c 7.949449,-1.993764 14.783143,-3.711011 15.185978,-3.816104 l 0.732416,-0.191076 V 49.956306 20.105361 l -14.599605,3.650111 -14.599615,3.650112 -0.0497,22.082217 c -0.04378,19.458794 -0.01477,22.111187 0.244149,22.326051 0.374583,0.310879 0.371339,1.54189 -0.0052,2.039959 -0.230641,0.304936 -0.28676,1.16854 -0.28676,4.41306 0,3.599813 -0.03681,4.065534 -0.341798,4.327493 -0.530525,0.455635 -0.982585,0.554844 -1.548276,0.339769 -0.980786,-0.372897 -1.026726,-0.581858 -1.033401,-4.70037 -0.0073,-4.316325 0.09067,-4.066469 -1.591197,-4.072822 -1.039885,-0.0042 -1.735332,-0.624729 -1.735332,-1.549058 0,-1.118287 0.496878,-1.461029 2.055809,-1.418077 l 1.264502,0.03485 -0.0052,-22.021377 -0.0053,-22.021381 L 49.994812,19.809684 35.351552,12.43348 V 39.496185 66.55889 l -0.479404,0.4794 c -0.585877,0.585875 -1.252995,0.611586 -1.935662,0.07461 L 32.421865,66.708102 V 46.387108 26.066122 l -0.439454,0.121644 c -0.241699,0.0669 -1.022258,0.20719 -1.734574,0.311744 -0.712316,0.104556 -1.531027,0.279793 -1.819355,0.389416 -1.434578,0.54542 -2.804654,-0.213983 -2.570822,-1.424954 0.06604,-0.341998 0.292781,-0.76547 0.503874,-0.941045 0.569895,-0.474007 3.031192,-1.023276 4.644229,-1.036416 l 1.415929,-0.01154 8.7e-5,-5.712858 c 6.6e-5,-4.352507 -0.05642,-5.71285 -0.23723,-5.71285 -0.182153,0 -24.6727332,6.09534 -28.3271379,7.050203 L 3.1249894,19.290838 V 49.142025 78.99321 L 18.212881,75.214248 c 8.298339,-2.078435 15.351561,-3.779803 15.673827,-3.780825 0.386383,-0.0011 5.973894,2.7213 16.40625,7.993991 8.701172,4.397712 15.908007,7.99949 16.015191,8.00394 0.107184,0.0042 6.698986,-1.623165 14.648445,-3.616928 z m -9.18814,-10.916793 c -0.580893,-0.58089 -0.632624,-1.515806 -0.112643,-2.035783 0.488703,-0.488701 2.837534,-1.258882 3.346535,-1.09733 0.576214,0.18288 1.169523,0.881407 1.169523,1.37692 0,0.778679 -0.727976,1.422196 -2.081931,1.840386 -1.620741,0.500597 -1.741048,0.49623 -2.321484,-0.08423 z m 5.685883,-2.827908 c -2.719172,-2.727621 -2.723228,-2.758898 -0.630774,-4.863693 l 1.498064,-1.506885 -1.291213,-1.264538 c -1.489953,-1.459167 -1.876016,-2.163114 -1.607993,-2.931972 0.100238,-0.287634 1.088189,-1.414401 2.195375,-2.503924 2.591763,-2.550414 2.644305,-2.555664 4.815608,-0.481217 l 1.569769,1.499735 1.508587,-1.499735 c 2.068215,-2.056072 2.067935,-2.056106 4.759375,0.596087 1.169762,1.152702 2.174848,2.287087 2.233515,2.520856 0.153342,0.610956 -0.192647,1.168378 -1.646872,2.653278 l -1.285826,1.31296 1.393354,1.436963 c 0.766344,0.790333 1.449889,1.662195 1.518974,1.937472 0.191337,0.76235 -0.267243,1.439508 -2.319144,3.424519 -1.662469,1.608286 -1.944457,1.80553 -2.581157,1.80553 -0.625003,0 -0.902384,-0.182559 -2.208321,-1.453417 l -1.49354,-1.453418 -1.48674,1.453418 c -2.121527,2.073965 -2.205076,2.062434 -4.941041,-0.682019 z m 4.279343,-2.937883 c 0.922692,-0.916396 1.578858,-1.403789 2.00434,-1.48881 0.587652,-0.117427 0.741171,-0.02071 2.162465,1.362408 0.84144,0.818845 1.617008,1.488808 1.723475,1.488808 0.106466,0 0.44789,-0.265446 0.758722,-0.589881 l 0.565141,-0.58988 -1.505166,-1.514038 c -2.030054,-2.042021 -2.032352,-2.278045 -0.04211,-4.323229 l 1.463084,-1.503451 -0.633768,-0.614273 -0.633768,-0.61427 -1.561742,1.447517 c -2.074185,1.922486 -2.212511,1.92133 -4.223173,-0.03532 l -1.54236,-1.500933 -0.684438,0.663383 -0.684439,0.663383 1.441269,1.472312 c 0.792704,0.80977 1.494778,1.626882 1.560162,1.815799 0.202327,0.584601 -0.217592,1.309898 -1.568553,2.709243 l -1.299895,1.346452 0.559119,0.583594 c 0.307516,0.320979 0.606536,0.583596 0.664474,0.583596 0.05792,0 0.722652,-0.613082 1.477132,-1.362406 z m -26.293737,3.924985 c -2.460203,-1.862413 -3.230572,-3.29259 -2.307344,-4.283554 0.708268,-0.760232 1.461641,-0.574606 2.823112,0.69559 0.662056,0.617673 1.526455,1.396381 1.920884,1.730465 0.534471,0.452698 0.717145,0.758127 0.717145,1.199057 0,0.755975 -0.521763,1.383798 -1.269808,1.527927 -0.490725,0.09455 -0.797615,-0.04708 -1.883989,-0.869485 z m -5.030557,-7.396536 c -0.757945,-0.62405 -1.328879,-4.919997 -0.788146,-5.930358 0.29225,-0.546068 1.045322,-0.792987 1.681192,-0.551231 0.710288,0.270049 1.025708,0.737555 1.045743,1.549978 0.0093,0.375975 0.131694,1.430654 0.272049,2.343736 0.211166,1.37373 0.210575,1.748728 -0.0034,2.173585 -0.416545,0.826982 -1.46678,1.024091 -2.207416,0.41429 z m 0.04282,-9.815759 c -0.775283,-0.312367 -0.897298,-0.852128 -0.74548,-3.297786 0.08018,-1.291561 0.259137,-2.497145 0.415866,-2.801501 0.501316,-0.973529 1.992597,-0.962498 2.499888,0.0185 0.23396,0.452426 0.254865,0.963601 0.115168,2.815946 -0.177918,2.359099 -0.347259,2.927665 -0.971486,3.261737 -0.440512,0.235754 -0.734819,0.236452 -1.313956,0.0031 z M 12.567787,49.634587 c -0.459154,-0.459151 -0.489711,-0.591949 -0.370764,-1.611318 0.259145,-2.220875 0.624173,-2.771074 1.838461,-2.771074 0.404744,0 0.714243,0.164812 1.005983,0.535695 0.360701,0.458555 0.403349,0.690586 0.296162,1.61132 -0.173414,1.489615 -0.461135,2.313879 -0.887305,2.541957 -0.625906,0.334974 -1.360635,0.215319 -1.882537,-0.30658 z M 50.404703,43.50847 c -0.215338,-0.215336 -0.42722,-0.779753 -0.494908,-1.318352 -0.0651,-0.517993 -0.213895,-1.622169 -0.330655,-2.453726 -0.183685,-1.308211 -0.169302,-1.577525 0.106756,-1.99884 0.602059,-0.918853 2.053214,-0.892037 2.53337,0.04681 0.283097,0.553537 0.710422,3.281479 0.710422,4.535169 0,1.339184 -1.614511,2.099405 -2.524985,1.188936 z M 14.381808,41.917726 c -0.703726,-0.553548 -0.670343,-1.289594 0.16509,-3.639946 0.662459,-1.863722 1.313291,-2.791154 1.95871,-2.791154 0.519458,0 1.226009,0.435815 1.481995,0.91413 0.228228,0.426444 0.170353,0.736223 -0.515651,2.76008 -0.425003,1.253845 -0.966492,2.478163 -1.203309,2.720704 -0.536714,0.549691 -1.21742,0.562746 -1.886835,0.03619 z m 33.558299,-7.752442 c -0.112431,-0.07892 -0.608626,-0.670834 -1.102654,-1.315362 -0.494027,-0.644527 -1.17108,-1.43001 -1.504562,-1.745515 -1.146107,-1.084334 -0.616706,-2.648991 0.896288,-2.648991 0.614442,0 0.867948,0.151992 1.710249,1.025386 1.317588,1.366224 2.255885,2.8221 2.255885,3.50026 0,0.74516 -0.627042,1.334423 -1.416016,1.330706 -0.349121,-0.0016 -0.726756,-0.06757 -0.83919,-0.146484 z M 18.457563,32.752855 c -0.430284,-0.475457 -0.430238,-1.422958 1.02e-4,-2.079736 0.175381,-0.267665 0.939313,-1.139818 1.697624,-1.938116 1.151795,-1.212536 1.481121,-1.451455 2.000682,-1.451455 0.844251,0 1.476841,0.620163 1.476841,1.44783 0,0.54361 -0.280107,0.962394 -1.693169,2.53144 -1.556686,1.728524 -1.751044,1.880072 -2.411135,1.880072 -0.46956,0 -0.840091,-0.134947 -1.070945,-0.390035 z M 38.59822,27.495114 c -2.227486,-0.753397 -2.856032,-1.215016 -2.856032,-2.097539 0,-0.604199 0.81897,-1.43432 1.415054,-1.43432 0.590812,0 4.017139,1.107373 4.5997,1.486603 1.023815,0.666473 0.979253,2.106923 -0.08012,2.5896 -0.631397,0.287682 -0.604686,0.292405 -3.078608,-0.544344 z" id="map" />

</svg>
